<svg class="technology__svg bootstrap4" xmlns="http://www.w3.org/2000/svg" width="50" height="50" viewBox="0 0 1024 860" version="1.1">
<title>BOOTSTRAP4</title>
	<path d="M 514.928 25.468 C 496.892 28.410, 481.115 33.526, 468 40.686 C 464.425 42.637, 413.575 76.431, 355 115.782 C 296.425 155.133, 221.972 205.143, 189.548 226.915 C 126.645 269.153, 120.301 274.085, 112.680 286.680 C 102.340 303.768, 101.243 322.955, 109.598 340.615 C 113.303 348.448, 122.611 359.571, 130.773 365.922 L 137.742 371.343 131.893 375.739 C 120.567 384.253, 111.192 396.530, 106.824 408.568 C 103.523 417.666, 103.151 431.823, 105.967 441.195 C 109.878 454.211, 118.273 466.041, 130.340 475.540 L 137.727 481.354 131.886 485.745 C 120.567 494.253, 111.191 506.533, 106.824 518.568 C 103.523 527.666, 103.151 541.823, 105.967 551.195 C 109.740 563.754, 117.741 575.323, 128.913 584.379 C 140.226 593.548, 461.959 809.212, 471.517 814.033 C 482.287 819.465, 492.812 823.057, 507.010 826.147 C 516.155 828.137, 520.322 828.430, 539.500 828.430 C 558.406 828.430, 562.906 828.122, 571.500 826.244 C 585.793 823.120, 597.027 819.308, 607.436 814.048 C 616.677 809.379, 938.267 593.887, 949.741 584.675 C 961.337 575.367, 970.122 562.306, 973.492 549.368 C 979.268 527.193, 968.848 502.082, 947.078 485.718 L 941.258 481.343 948.209 475.922 C 960.796 466.104, 970.112 452.528, 973.599 438.923 C 975.741 430.563, 975.034 416.952, 972.007 408.277 C 967.977 396.731, 956.936 382.713, 945.207 374.252 L 940.914 371.155 945.207 368.198 C 951.838 363.631, 962.040 352.802, 966.211 345.905 C 973.182 334.376, 974.416 329.952, 974.420 316.500 C 974.422 305.873, 974.120 303.734, 971.776 297.803 C 968.010 288.272, 962.754 280.488, 955.031 273 C 950.261 268.376, 928.577 253.240, 879.913 220.566 C 842.286 195.302, 767.625 145.132, 714 109.078 C 660.375 73.023, 612.442 41.476, 607.483 38.972 C 596.789 33.572, 586.169 29.934, 572.500 26.986 C 559.480 24.179, 527.935 23.347, 514.928 25.468 M 492.635 191.135 C 478.437 192.958, 463.450 197.735, 448.768 205.116 C 442.624 208.206, 341.061 275.144, 336.736 278.955 C 336.316 279.325, 348.466 287.993, 363.736 298.216 C 379.006 308.439, 435.147 346.122, 488.493 381.955 C 542.352 418.134, 586.155 446.915, 586.993 446.677 C 589.385 445.996, 686.615 380.406, 695.691 373.351 C 700.196 369.849, 706.712 363.861, 710.172 360.044 C 732.981 334.879, 733.813 310.669, 712.595 289.521 C 681.683 258.712, 631.001 251.281, 587.092 271.122 C 583.568 272.715, 580.477 273.810, 580.223 273.557 C 579.970 273.303, 581.387 271.197, 583.373 268.877 C 589.831 261.333, 592.950 249.591, 591.122 239.704 C 589.354 230.137, 585.433 223.239, 577.083 215 C 558.060 196.232, 525.218 186.950, 492.635 191.135 M 490 221.553 C 481.071 223.468, 472.707 226.546, 465 230.755 C 456.994 235.127, 396 276.056, 396 277.057 C 396 277.454, 413.812 289.758, 435.582 304.398 L 475.164 331.017 502.832 312.372 C 518.049 302.118, 533.425 291.264, 537 288.253 C 549.773 277.494, 556.100 267.764, 556.823 257.770 C 557.166 253.023, 556.771 251.052, 554.576 246.565 C 551.034 239.326, 542.846 232.006, 532.690 227.001 C 519.129 220.317, 504.481 218.447, 490 221.553 M 614.585 287.043 C 593.210 290.392, 580.949 296.480, 537.721 325.211 C 518.593 337.925, 503.068 348.683, 503.221 349.119 C 503.537 350.015, 517.285 359.430, 560.266 388.185 L 590.032 408.099 622.266 386.407 C 659.170 361.571, 663.420 358.433, 671.070 350.370 C 684.545 336.169, 686.879 323.632, 678.356 311.236 C 671.956 301.927, 656.463 292.112, 642.500 288.520 C 634.776 286.533, 622.115 285.863, 614.585 287.043 M 1.762 859.707 C 3.006 859.946, 4.806 859.937, 5.762 859.687 C 6.718 859.437, 5.700 859.241, 3.500 859.252 C 1.300 859.263, 0.518 859.468, 1.762 859.707 M 12.750 859.737 C 15.638 859.939, 20.363 859.939, 23.250 859.737 C 26.138 859.535, 23.775 859.370, 18 859.370 C 12.225 859.370, 9.863 859.535, 12.750 859.737 " stroke="none" fill="black" fill-rule="evenodd"/>
</svg>