<svg width="25" height="20" viewBox="0 0 25 20" fill="none" xmlns="http://www.w3.org/2000/svg">
<path d="M0 0.328125V0.848334V19.0556H25V0.328125H0ZM1 1.36854H24V2.70158C23.7774 2.90294 14.9085 10.9255 14.1729 11.5888C13.5269 12.1713 12.8391 12.2939 12.5 12.2939C12.1609 12.2939 11.4731 12.1713 10.8271 11.5888C10.6417 11.4216 9.31134 10.2182 8.34961 9.34846L8.33984 9.33525L8.33789 9.33728C5.48222 6.75489 1.1662 2.85193 1 2.70158V1.36854ZM1 4.07627C1.87369 4.86672 4.92064 7.62269 7.54102 9.99263L1 15.3695V4.07627ZM24 4.07627V15.3715L17.4453 10.0048C20.0643 7.63613 23.1245 4.86836 24 4.07627ZM8.30859 10.6876C8.92647 11.2463 10.0314 12.2456 10.1729 12.3732C11.0269 13.1432 11.9391 13.3323 12.5 13.3323C13.0609 13.3323 13.9731 13.1432 14.8271 12.3732C14.9675 12.2466 16.0663 11.2518 16.6768 10.6998L24 16.6964V18.0152H1V16.6964L8.30859 10.6876Z" fill="url(#paint0_linear_177_2236)"/>
<defs>
<linearGradient id="paint0_linear_177_2236" x1="12.5" y1="0.328125" x2="12.5" y2="19.0556" gradientUnits="userSpaceOnUse">
<stop stop-color="#4ABCEC"/>
<stop offset="1" stop-color="#4A8BEC"/>
</linearGradient>
</defs>
</svg>
