<svg width="32" height="30" viewBox="0 0 32 30" fill="none" xmlns="http://www.w3.org/2000/svg">
<path fill-rule="evenodd" clip-rule="evenodd" d="M16 0C7.52829 0 0.666626 6.86167 0.666626 15.3333C0.666626 22.1183 5.05579 27.8492 11.1508 29.8808C11.9175 30.015 12.205 29.555 12.205 29.1525C12.205 28.7883 12.1858 27.5808 12.1858 26.2967C8.33329 27.0058 7.33663 25.3575 7.02996 24.495C6.85746 24.0542 6.10996 22.6933 5.45829 22.3292C4.92163 22.0417 4.15496 21.3325 5.43913 21.3133C6.64663 21.2942 7.50913 22.425 7.79663 22.885C9.17663 25.2042 11.3808 24.5525 12.2625 24.15C12.3966 23.1533 12.7991 22.4825 13.24 22.0992C9.82829 21.7158 6.26329 20.3933 6.26329 14.5283C6.26329 12.8608 6.85746 11.4808 7.83496 10.4075C7.68163 10.0242 7.14496 8.4525 7.98829 6.34417C7.98829 6.34417 9.27246 5.94167 12.205 7.91583C13.4316 7.57083 14.735 7.39833 16.0383 7.39833C17.3416 7.39833 18.645 7.57083 19.8716 7.91583C22.8041 5.9225 24.0883 6.34417 24.0883 6.34417C24.9316 8.4525 24.395 10.0242 24.2416 10.4075C25.2191 11.4808 25.8133 12.8417 25.8133 14.5283C25.8133 20.4125 22.2291 21.7158 18.8175 22.0992C19.3733 22.5783 19.8525 23.4983 19.8525 24.9358C19.8525 26.9867 19.8333 28.635 19.8333 29.1525C19.8333 29.555 20.1208 30.0342 20.8875 29.8808C26.9441 27.8492 31.3333 22.0992 31.3333 15.3333C31.3333 6.86167 24.4716 0 16 0V0Z" fill="white"/>
</svg>
