<?xml version="1.0" standalone="no"?>
<!DOCTYPE svg PUBLIC "-//W3C//DTD SVG 20010904//EN"
 "http://www.w3.org/TR/2001/REC-SVG-20010904/DTD/svg10.dtd">
<svg version="1.0" xmlns="http://www.w3.org/2000/svg"
 width="1000.000000pt" height="999.000000pt" viewBox="0 0 1000.000000 999.000000"
 preserveAspectRatio="xMidYMid meet">
<metadata>
Created by potrace 1.16, written by Peter Selinger 2001-2019
</metadata>
<g transform="translate(0.000000,999.000000) scale(0.100000,-0.100000)"
fill="#000000" stroke="none">
<path d="M4420 9980 c0 -6 -44 -10 -111 -10 -85 0 -114 -3 -125 -15 -11 -11
-38 -15 -100 -15 -66 0 -86 -3 -90 -15 -5 -11 -22 -15 -63 -15 -34 0 -65 -6
-78 -15 -12 -8 -49 -18 -83 -22 -34 -3 -68 -12 -75 -20 -7 -7 -34 -13 -59 -13
-32 0 -46 -4 -46 -14 0 -9 -17 -15 -56 -18 -37 -3 -61 -11 -69 -21 -8 -12 -27
-17 -59 -17 -34 0 -46 -4 -46 -15 0 -10 -10 -15 -34 -15 -18 0 -39 -7 -46 -15
-7 -8 -28 -15 -47 -15 -19 0 -36 -6 -39 -14 -3 -7 -23 -16 -44 -20 -21 -3 -45
-13 -54 -21 -8 -8 -26 -15 -40 -15 -16 0 -26 -6 -26 -15 0 -9 -9 -15 -25 -15
-28 0 -75 -20 -75 -32 0 -4 -13 -8 -29 -8 -16 0 -31 -6 -35 -15 -3 -9 -18 -15
-36 -15 -20 0 -30 -5 -30 -15 0 -9 -9 -15 -24 -15 -14 0 -31 -7 -39 -15 -8 -7
-27 -17 -42 -21 -14 -4 -29 -12 -32 -20 -2 -7 -18 -16 -34 -19 -16 -4 -29 -11
-29 -16 0 -5 -7 -9 -16 -9 -9 0 -18 -9 -21 -20 -4 -15 -14 -20 -39 -20 -24 0
-34 -5 -34 -15 0 -10 -10 -15 -30 -15 -20 0 -30 -5 -30 -15 0 -8 -8 -15 -19
-15 -10 0 -24 -7 -31 -15 -7 -8 -18 -15 -26 -15 -7 0 -18 -9 -24 -20 -6 -11
-19 -20 -29 -20 -21 0 -71 -40 -71 -58 0 -7 -13 -12 -30 -12 -18 0 -33 -6 -36
-15 -4 -8 -12 -15 -20 -15 -8 0 -14 -6 -14 -14 0 -7 -13 -16 -28 -19 -28 -6
-102 -67 -102 -85 0 -5 -16 -13 -35 -16 -21 -4 -35 -13 -35 -21 0 -8 -7 -15
-15 -15 -9 0 -18 -7 -21 -15 -4 -8 -12 -15 -20 -15 -8 0 -14 -5 -14 -11 0 -16
-42 -48 -63 -49 -11 0 -21 -9 -24 -20 -3 -11 -14 -20 -24 -20 -11 0 -19 -7
-19 -15 0 -8 -6 -15 -14 -15 -8 0 -18 -9 -21 -20 -3 -11 -13 -20 -21 -20 -8 0
-14 -7 -14 -15 0 -8 -7 -15 -15 -15 -8 0 -15 -7 -15 -15 0 -8 -7 -15 -15 -15
-8 0 -15 -7 -15 -15 0 -8 -5 -15 -11 -15 -13 0 -35 -20 -125 -109 -35 -34 -64
-67 -64 -71 0 -5 -9 -12 -20 -15 -11 -3 -20 -12 -20 -20 0 -7 -7 -15 -15 -19
-8 -3 -15 -12 -15 -21 0 -8 -7 -15 -15 -15 -8 0 -15 -6 -15 -14 0 -7 -9 -16
-20 -19 -11 -3 -20 -12 -20 -21 0 -9 -7 -16 -15 -16 -8 0 -15 -7 -15 -15 0 -8
-7 -15 -15 -15 -8 0 -15 -7 -15 -15 0 -8 -7 -15 -15 -15 -8 0 -15 -4 -15 -10
0 -5 -9 -18 -21 -29 -12 -11 -19 -23 -16 -28 3 -5 -3 -16 -14 -23 -10 -8 -19
-22 -19 -32 0 -10 -5 -18 -12 -18 -16 0 -88 -78 -88 -95 0 -8 -15 -30 -34 -48
-18 -17 -42 -51 -52 -74 -10 -23 -25 -43 -31 -43 -7 0 -13 -6 -13 -13 0 -7 -9
-18 -20 -25 -11 -7 -20 -23 -20 -37 0 -16 -6 -25 -15 -25 -8 0 -15 -9 -15 -20
0 -11 -6 -20 -14 -20 -8 0 -17 -13 -21 -30 -4 -16 -11 -30 -16 -30 -5 0 -19
-22 -31 -50 -13 -27 -29 -50 -35 -50 -8 0 -13 -13 -13 -31 0 -22 -5 -32 -20
-36 -14 -4 -20 -14 -20 -34 0 -19 -5 -29 -15 -29 -8 0 -15 -9 -15 -19 0 -10
-6 -21 -14 -24 -8 -3 -17 -19 -21 -35 -3 -17 -13 -33 -21 -36 -8 -3 -14 -16
-14 -29 0 -14 -7 -30 -15 -37 -8 -7 -15 -23 -15 -35 0 -13 -7 -25 -15 -29 -9
-3 -15 -18 -15 -34 0 -16 -9 -37 -20 -47 -11 -10 -20 -30 -20 -45 0 -16 -7
-30 -15 -34 -9 -3 -15 -18 -15 -36 0 -19 -5 -30 -14 -30 -8 0 -17 -15 -20 -34
-4 -19 -11 -36 -17 -38 -5 -2 -12 -21 -16 -43 -3 -22 -12 -44 -20 -48 -8 -5
-13 -26 -13 -51 0 -30 -5 -46 -15 -50 -9 -3 -15 -19 -15 -41 0 -22 -8 -43 -20
-55 -11 -11 -20 -33 -20 -51 0 -17 -7 -37 -15 -45 -9 -9 -15 -34 -15 -59 0
-27 -5 -45 -14 -48 -7 -3 -17 -26 -20 -51 -4 -25 -14 -58 -22 -74 -7 -15 -14
-48 -14 -73 0 -29 -6 -51 -15 -59 -11 -9 -15 -32 -15 -80 0 -51 -4 -69 -15
-74 -12 -4 -15 -25 -15 -95 0 -70 -3 -90 -15 -95 -12 -4 -15 -26 -15 -105 0
-81 -4 -108 -20 -139 -20 -38 -20 -53 -18 -571 3 -460 5 -533 18 -541 12 -7
16 -35 18 -124 3 -84 8 -118 18 -127 10 -8 14 -35 14 -95 0 -68 3 -84 15 -84
12 0 15 -15 15 -74 0 -53 4 -79 15 -90 10 -9 15 -34 15 -71 0 -39 4 -57 14
-61 9 -3 17 -28 21 -64 4 -36 12 -61 21 -64 9 -3 14 -21 14 -50 0 -25 6 -51
14 -58 7 -8 17 -33 21 -56 4 -26 12 -42 21 -42 10 0 14 -13 14 -49 0 -34 4
-51 15 -55 9 -3 15 -18 15 -35 0 -16 7 -36 15 -45 8 -8 15 -29 15 -46 0 -17 6
-33 14 -36 7 -3 16 -23 20 -45 4 -25 12 -39 21 -39 10 0 15 -10 15 -29 0 -16
6 -36 14 -43 7 -8 17 -28 20 -45 4 -17 14 -34 22 -37 8 -3 14 -19 14 -36 0
-20 5 -30 15 -30 10 0 15 -10 15 -30 0 -18 6 -33 15 -36 8 -4 15 -16 15 -29 0
-12 6 -28 14 -34 7 -6 16 -25 20 -41 3 -18 12 -30 21 -30 10 0 15 -10 15 -30
0 -20 5 -30 15 -30 8 0 15 -9 15 -20 0 -11 9 -29 20 -40 11 -11 20 -27 20 -35
0 -8 7 -15 15 -15 10 0 15 -10 15 -30 0 -17 5 -30 13 -30 6 -1 23 -23 36 -50
13 -27 30 -51 37 -54 8 -3 14 -17 14 -31 0 -14 7 -28 15 -31 8 -4 15 -12 15
-20 0 -8 6 -14 14 -14 7 0 19 -13 26 -30 7 -17 16 -30 21 -30 5 0 9 -7 9 -15
0 -9 7 -18 15 -21 8 -4 15 -11 15 -18 0 -6 9 -19 20 -29 11 -9 20 -26 20 -37
0 -11 7 -20 15 -20 8 0 15 -7 15 -15 0 -8 7 -15 15 -15 8 0 15 -9 15 -20 0
-11 7 -20 15 -20 8 0 15 -7 15 -15 0 -8 9 -24 20 -35 11 -11 20 -25 20 -30 0
-6 7 -13 15 -16 8 -4 15 -12 15 -20 0 -8 7 -14 15 -14 8 0 15 -7 15 -15 0 -8
9 -15 20 -15 13 0 20 -7 20 -20 0 -11 7 -20 15 -20 8 0 15 -9 15 -20 0 -11 7
-23 15 -26 8 -3 17 -14 20 -25 4 -10 13 -19 21 -19 8 0 14 -5 14 -12 0 -6 23
-33 50 -60 28 -27 50 -53 50 -58 0 -6 7 -10 15 -10 8 0 15 -7 15 -15 0 -8 7
-15 15 -15 8 0 15 -6 15 -14 0 -8 9 -18 20 -21 11 -3 20 -13 20 -21 0 -8 4
-14 9 -14 5 0 33 -23 62 -51 28 -27 63 -58 78 -67 14 -9 32 -25 39 -34 7 -10
20 -18 28 -18 8 0 14 -7 14 -15 0 -8 6 -15 14 -15 8 0 16 -7 20 -15 3 -8 12
-15 21 -15 8 0 15 -6 15 -13 0 -16 34 -45 66 -57 13 -5 24 -14 24 -20 0 -5 9
-10 20 -10 11 0 20 -5 20 -11 0 -13 46 -59 59 -59 5 0 14 -7 21 -15 7 -8 21
-15 31 -15 11 0 19 -7 19 -15 0 -9 8 -19 18 -22 9 -4 21 -12 25 -20 4 -7 19
-13 31 -13 13 0 26 -7 30 -15 3 -8 12 -15 21 -15 8 0 15 -6 15 -14 0 -8 13
-17 29 -21 16 -3 32 -13 35 -21 3 -8 12 -14 20 -14 7 0 16 -7 20 -15 3 -8 17
-15 31 -15 14 0 25 -6 25 -13 0 -7 21 -24 48 -37 26 -14 51 -31 55 -37 4 -7
19 -13 33 -13 13 0 27 -6 30 -14 3 -8 21 -17 40 -20 20 -4 34 -13 34 -21 0 -9
10 -15 25 -15 14 0 28 -7 31 -15 4 -8 15 -15 25 -15 10 0 19 -4 19 -9 0 -5 16
-15 35 -21 19 -6 35 -15 35 -20 0 -5 16 -12 35 -16 19 -3 39 -12 46 -20 6 -8
24 -14 40 -14 19 0 29 -5 29 -15 0 -10 10 -15 28 -15 16 0 37 -9 47 -20 10
-11 27 -20 37 -20 11 0 26 -7 34 -15 9 -8 33 -15 55 -15 28 0 39 -4 39 -15 0
-8 8 -15 18 -15 9 0 34 -9 55 -20 20 -11 48 -20 62 -20 14 0 28 -7 31 -15 4
-10 21 -15 54 -15 33 0 50 -5 54 -15 3 -10 19 -15 42 -15 21 0 46 -7 56 -16
10 -10 41 -19 70 -22 30 -3 57 -11 61 -18 5 -9 28 -14 67 -14 44 0 60 -4 60
-14 0 -9 19 -16 61 -20 34 -4 71 -13 83 -21 11 -7 50 -13 85 -14 39 -1 74 -7
88 -16 16 -11 50 -15 118 -15 76 0 97 -3 101 -15 5 -12 33 -15 165 -15 140 0
159 -2 168 -17 9 -17 35 -18 329 -18 289 0 322 2 339 18 17 14 41 17 169 17
117 0 155 3 170 15 13 10 47 14 117 15 79 0 97 3 97 15 0 11 14 15 58 16 31 1
65 1 74 0 9 -1 27 5 40 13 13 8 53 18 91 22 46 5 67 11 67 20 0 10 15 14 53
14 31 0 61 6 73 15 10 8 30 15 44 15 41 1 70 11 70 26 0 10 14 14 49 14 34 0
51 4 55 15 3 10 19 15 45 15 24 0 43 6 48 14 5 8 27 16 53 18 27 2 44 8 43 15
-2 6 18 14 48 18 29 4 53 13 56 21 3 8 18 14 33 14 15 0 30 6 33 14 3 7 24 16
47 20 22 3 43 13 46 21 4 9 19 15 35 15 17 0 32 6 35 15 4 9 19 15 35 15 17 0
32 6 35 15 4 9 19 15 35 15 19 0 29 5 29 15 0 8 14 17 35 21 20 3 35 12 35 20
0 9 11 14 29 14 16 0 31 6 35 15 3 8 14 15 24 15 10 0 29 9 42 20 13 11 29 20
37 20 7 0 16 7 19 15 4 8 15 15 25 15 10 0 19 7 19 15 0 10 10 15 28 15 15 0
35 9 45 20 9 11 26 20 37 20 11 0 23 7 26 15 4 8 12 15 20 15 8 0 14 7 14 15
0 9 9 15 25 15 14 0 28 7 31 15 4 8 12 15 20 15 8 0 19 9 26 20 7 11 21 20 31
20 10 0 31 13 47 30 16 16 40 32 54 36 14 3 26 12 26 20 0 8 7 14 15 14 9 0
18 7 21 15 4 8 12 15 20 15 8 0 14 6 14 14 0 8 12 17 28 21 15 3 39 20 54 36
15 16 32 29 37 29 6 0 11 7 11 15 0 8 6 15 13 15 7 0 23 9 35 20 12 11 28 20
37 20 8 0 15 7 15 15 0 8 5 15 11 15 15 0 59 42 59 58 0 6 7 12 15 12 8 0 15
7 15 15 0 8 5 15 11 15 15 0 59 42 59 58 0 6 7 12 15 12 9 0 18 7 21 15 4 8
13 15 21 15 8 0 11 5 8 10 -3 6 1 13 11 17 9 3 33 24 53 47 20 22 44 47 54 55
9 9 17 21 17 28 0 7 7 13 15 13 9 0 18 7 21 15 4 8 12 15 20 15 8 0 14 7 14
15 0 8 7 15 15 15 8 0 15 6 15 14 0 8 7 16 15 20 8 3 15 12 15 21 0 8 7 15 15
15 8 0 15 4 15 9 0 5 15 25 32 44 18 19 42 47 53 62 11 14 28 34 38 43 9 9 17
22 17 29 0 7 7 13 15 13 8 0 15 7 15 15 0 9 7 18 15 21 8 4 15 15 15 25 0 10
9 24 20 31 11 7 20 16 20 20 0 4 14 22 30 40 17 18 33 43 36 55 3 12 12 24 20
27 8 3 14 12 14 21 0 8 7 15 15 15 9 0 15 9 15 25 0 14 7 28 15 31 8 4 15 12
15 20 0 8 7 14 15 14 8 0 15 6 15 14 0 7 9 25 20 39 11 14 20 32 20 41 0 9 6
16 14 16 8 0 17 13 21 29 3 16 13 32 21 35 8 3 14 15 14 26 0 11 4 20 10 20 5
0 12 11 16 24 3 14 12 27 20 30 8 3 14 19 14 36 0 19 5 30 14 30 8 0 17 13 21
29 3 16 13 32 21 35 8 3 14 19 14 36 0 20 5 30 15 30 8 0 17 14 21 34 3 19 12
37 20 40 8 3 14 17 14 31 0 16 6 25 15 25 10 0 15 10 15 34 0 21 6 36 15 40 9
3 15 18 15 35 0 16 6 31 14 34 7 3 16 23 20 45 3 22 13 42 21 46 9 3 15 18 15
36 0 18 6 33 15 36 8 3 17 25 21 49 3 24 12 46 20 49 8 3 14 20 14 40 0 19 5
36 11 38 6 2 13 25 16 52 3 27 12 50 19 53 10 3 14 23 14 59 0 41 4 54 15 54
11 0 15 12 15 50 0 36 4 50 14 50 14 0 26 42 26 95 0 18 6 35 13 38 9 3 16 29
20 64 4 33 13 73 22 89 8 17 15 55 15 91 0 40 4 63 13 65 8 3 13 37 15 109 3
76 8 106 18 112 11 6 14 39 14 156 0 123 3 150 15 155 13 5 15 56 15 376 0
322 -2 370 -15 370 -13 0 -15 25 -15 165 0 138 -3 167 -15 171 -12 5 -15 26
-15 100 0 69 -4 95 -14 101 -9 5 -15 33 -18 86 -2 43 -8 81 -14 85 -6 4 -15
34 -18 67 -4 33 -14 70 -22 82 -8 12 -14 40 -14 63 0 28 -6 45 -20 57 -15 13
-20 30 -20 70 0 40 -4 53 -15 53 -11 0 -15 12 -15 50 0 38 -4 50 -15 50 -11 0
-15 12 -15 50 0 36 -4 50 -14 50 -9 0 -15 16 -19 46 -2 26 -9 49 -14 53 -5 3
-15 25 -21 49 -7 23 -17 42 -22 42 -6 0 -10 13 -10 28 0 16 -9 39 -20 52 -11
13 -20 34 -20 47 0 14 -6 23 -15 23 -10 0 -15 10 -15 29 0 16 -7 36 -15 45 -8
8 -15 26 -15 40 0 13 -7 31 -15 40 -8 8 -15 22 -15 31 0 9 -9 28 -20 42 -11
14 -20 34 -20 44 0 11 -6 19 -14 19 -8 0 -17 15 -20 35 -4 19 -11 35 -15 35
-5 0 -14 14 -20 30 -5 17 -15 30 -20 30 -6 0 -11 9 -11 20 0 11 -7 20 -15 20
-10 0 -15 10 -15 30 0 18 -6 33 -15 36 -8 4 -15 14 -15 23 0 17 -18 46 -52 82
-10 11 -18 28 -18 39 0 11 -6 20 -13 20 -7 0 -18 12 -24 28 -15 32 -35 65 -46
73 -10 7 -31 42 -46 77 -6 12 -15 22 -21 22 -5 0 -10 6 -10 14 0 8 -9 18 -20
21 -13 4 -20 15 -20 31 0 14 -7 27 -15 30 -8 3 -17 14 -20 25 -4 10 -13 19
-21 19 -8 0 -14 7 -14 15 0 8 -7 15 -15 15 -9 0 -15 9 -15 25 0 14 -7 28 -15
31 -8 4 -15 10 -15 14 0 5 -31 41 -70 81 -38 40 -70 79 -70 86 0 8 -7 16 -15
19 -8 4 -15 12 -15 20 0 8 -7 14 -15 14 -8 0 -15 5 -15 11 0 14 -146 159 -160
159 -6 0 -10 7 -10 15 0 9 -7 18 -15 21 -8 4 -15 12 -15 20 0 8 -4 14 -10 14
-5 0 -39 29 -75 65 -36 36 -69 65 -74 65 -5 0 -11 7 -15 15 -3 8 -12 15 -21
15 -8 0 -15 6 -15 14 0 8 -9 18 -21 21 -11 4 -42 29 -68 56 -26 27 -53 49 -58
49 -6 0 -13 7 -17 15 -3 8 -15 15 -26 15 -11 0 -23 7 -26 15 -4 8 -12 15 -20
15 -8 0 -14 7 -14 15 0 9 -7 18 -16 22 -9 3 -30 19 -47 35 -18 16 -42 31 -54
34 -13 4 -23 12 -23 20 0 8 -7 14 -15 14 -9 0 -18 7 -21 15 -4 9 -19 15 -35
15 -19 0 -29 5 -29 15 0 8 -4 15 -10 15 -5 0 -19 9 -30 20 -11 11 -29 20 -40
20 -11 0 -20 7 -20 15 0 8 -6 15 -14 15 -8 0 -16 6 -19 14 -3 8 -19 17 -36 21
-17 4 -31 13 -31 21 0 8 -10 14 -24 14 -13 0 -29 7 -36 15 -7 8 -19 15 -27 15
-7 0 -16 7 -19 15 -4 8 -15 15 -25 15 -10 0 -28 9 -39 20 -11 11 -29 20 -40
20 -11 0 -20 7 -20 15 0 10 -11 15 -35 15 -25 0 -35 4 -35 15 0 9 -12 18 -29
21 -17 4 -32 12 -35 20 -3 8 -19 14 -36 14 -20 0 -30 5 -30 15 0 10 -10 15
-30 15 -18 0 -33 6 -36 15 -4 8 -17 15 -30 15 -13 0 -33 9 -44 20 -11 11 -29
20 -39 20 -11 0 -21 5 -23 11 -2 6 -25 13 -51 16 -28 3 -47 11 -47 18 0 14
-22 25 -47 25 -8 0 -21 7 -29 15 -9 8 -31 15 -50 15 -22 0 -37 6 -40 15 -4 11
-21 15 -55 15 -37 0 -49 4 -49 15 0 11 -11 15 -43 15 -31 0 -45 5 -55 20 -9
15 -23 20 -53 20 -23 0 -47 7 -55 15 -10 10 -35 15 -70 15 -39 0 -54 4 -54 14
0 9 -20 15 -62 20 -34 3 -69 13 -78 21 -11 10 -37 15 -73 15 -36 0 -61 5 -71
15 -11 11 -37 15 -100 15 -70 0 -86 3 -86 15 0 13 -20 15 -120 15 -73 0 -120
4 -120 10 0 7 -198 10 -575 10 -377 0 -575 -3 -575 -10z m-2492 -2989 c11 -6
13 -114 12 -559 0 -304 -3 -559 -6 -567 -4 -10 0 -15 15 -15 12 0 21 4 21 10
0 30 184 173 270 210 14 6 34 15 45 20 11 5 54 18 96 29 93 26 312 30 381 7
24 -8 57 -17 73 -21 38 -8 145 -59 194 -91 92 -62 183 -182 224 -298 10 -28
27 -105 37 -171 17 -110 19 -184 20 -856 0 -630 -2 -738 -14 -749 -18 -14
-542 -18 -557 -3 -5 5 -10 312 -12 703 -4 719 -9 816 -46 888 -64 125 -242
190 -399 146 -85 -24 -136 -50 -184 -97 -69 -68 -99 -117 -118 -197 -6 -25
-16 -63 -22 -85 -6 -24 -12 -294 -14 -695 -3 -369 -9 -659 -14 -664 -9 -9
-555 -10 -571 -1 -5 4 -9 598 -9 1530 0 1209 3 1524 13 1528 21 9 551 7 565
-2z m2212 -11 c7 -14 11 -197 10 -573 0 -303 -1 -556 0 -562 0 -5 24 15 53 45
57 60 127 120 139 120 4 0 26 13 50 29 24 16 54 32 68 36 14 4 30 11 35 15 31
24 149 45 275 48 113 3 148 0 220 -19 143 -36 248 -95 341 -190 38 -39 109
-148 109 -168 0 -7 5 -22 12 -34 7 -12 21 -51 31 -87 19 -61 20 -115 26 -874
4 -548 3 -814 -4 -823 -9 -12 -61 -14 -284 -15 -150 0 -275 3 -279 7 -4 4 -9
340 -12 748 -6 807 -4 781 -64 875 -47 75 -164 132 -270 132 -51 0 -163 -29
-213 -54 -62 -32 -129 -103 -163 -172 -61 -124 -62 -142 -69 -866 -3 -361 -9
-660 -13 -664 -11 -10 -549 -7 -560 4 -9 9 -12 3038 -2 3053 3 5 126 9 279 9
264 0 275 -1 285 -20z m3332 -861 c78 -12 230 -49 288 -70 19 -6 40 -14 45
-15 6 -2 17 -8 25 -13 8 -5 40 -21 70 -36 91 -44 225 -131 279 -179 91 -84
171 -171 216 -236 21 -30 44 -62 51 -71 21 -24 114 -210 114 -228 0 -9 6 -25
14 -36 13 -19 20 -45 45 -155 42 -183 51 -325 30 -445 -5 -33 -14 -89 -20
-124 -5 -36 -13 -69 -18 -75 -4 -6 -11 -30 -15 -53 -3 -23 -12 -54 -20 -70 -7
-15 -21 -46 -31 -68 -9 -22 -21 -47 -26 -55 -5 -8 -13 -24 -18 -36 -63 -145
-271 -382 -422 -481 -35 -24 -68 -46 -74 -50 -22 -17 -222 -113 -249 -119 -16
-4 -41 -13 -55 -20 -14 -8 -35 -14 -47 -14 -11 0 -40 -6 -65 -14 -24 -8 -99
-20 -166 -26 -185 -18 -358 0 -538 56 -27 9 -66 23 -85 31 -19 9 -55 24 -80
35 -25 11 -52 24 -60 29 -8 5 -28 16 -45 24 -119 60 -281 201 -391 341 -62 79
-164 245 -164 267 0 7 -7 21 -15 31 -8 11 -15 26 -15 34 0 8 -6 28 -14 45 -44
99 -85 320 -86 454 0 79 29 282 51 353 52 165 121 316 180 391 16 20 29 41 29
45 0 17 162 188 236 251 53 44 133 101 175 124 43 23 142 71 177 85 17 8 47
20 65 28 142 61 449 93 629 65z m-6031 -2510 c18 -9 20 -20 18 -125 -1 -63 1
-117 4 -120 3 -3 61 -6 129 -6 93 1 125 4 133 15 6 8 8 48 4 103 -7 125 7 155
66 140 l25 -6 -2 -318 -3 -317 -31 -3 c-50 -5 -56 12 -58 160 l-1 133 -132 3
c-102 2 -133 0 -134 -10 -1 -7 -1 -65 1 -129 2 -133 -6 -159 -50 -159 -60 0
-60 2 -60 330 0 274 1 300 18 309 22 14 49 14 73 0z m1678 -3 c9 -10 12 -97
11 -313 -1 -343 -1 -345 -70 -305 -37 21 -40 21 -49 4 -5 -10 -25 -26 -43 -36
l-34 -19 -61 44 c-66 48 -90 81 -109 149 -17 59 -17 103 0 166 27 102 87 156
173 158 41 0 58 -4 68 -17 26 -36 35 -19 35 71 0 55 4 92 12 100 16 16 53 15
67 -2z m189 2 c8 -8 12 -52 12 -130 l0 -118 129 0 c89 0 132 4 137 12 4 6 6
58 5 115 -2 69 2 109 10 119 13 16 65 19 74 4 8 -13 8 -617 0 -630 -4 -6 -19
-10 -35 -10 -44 0 -52 25 -49 159 1 65 -1 123 -5 129 -5 8 -49 12 -137 12
l-129 0 0 -138 c0 -145 -5 -162 -46 -162 -44 0 -45 13 -46 331 0 320 0 318 48
319 11 0 25 -5 32 -12z m1429 -30 c4 -7 8 -37 8 -67 0 -53 1 -55 31 -63 53
-14 51 -78 -2 -78 -29 0 -34 -22 -34 -161 0 -122 5 -135 53 -152 39 -14 33
-81 -9 -97 -29 -11 -54 -1 -96 38 l-28 26 0 163 0 164 -30 17 c-16 9 -30 23
-30 30 0 26 21 52 41 52 19 0 21 5 17 38 -6 42 13 88 39 95 30 8 32 7 40 -5z
m-2547 -150 c70 -55 117 -169 91 -224 -10 -24 -12 -24 -150 -24 -77 0 -142 -4
-145 -9 -20 -31 61 -121 109 -121 27 0 84 38 85 58 0 4 12 15 26 26 21 15 30
16 50 7 38 -17 32 -59 -13 -102 -107 -101 -151 -111 -237 -55 -66 45 -89 77
-108 154 -36 144 41 296 157 312 59 8 107 0 135 -22z m457 -7 c18 -13 35 -31
39 -40 4 -9 10 -92 14 -186 4 -93 10 -177 14 -186 18 -42 -52 -58 -77 -18 -14
22 -40 25 -59 6 -22 -22 -80 -47 -108 -47 -31 0 -101 47 -125 84 -61 92 10
205 138 220 77 10 127 31 127 54 0 31 -46 62 -92 62 -37 0 -47 -5 -82 -45 -39
-43 -43 -45 -66 -32 -47 24 -33 75 36 130 52 41 185 39 241 -2z m1856 5 c55
-39 67 -89 67 -265 0 -146 -2 -159 -20 -176 -16 -15 -26 -17 -48 -9 l-27 9 -3
170 c-2 157 -4 171 -24 192 -31 34 -77 31 -114 -8 l-29 -30 -2 -155 c-2 -164
-7 -184 -48 -184 -43 0 -46 17 -47 241 0 194 1 214 18 226 24 17 43 17 50 -2
8 -19 50 -20 57 -1 12 32 123 27 170 -8z m632 0 c40 -28 53 -44 75 -94 30 -66
35 -115 15 -135 -14 -14 -39 -17 -151 -17 -146 0 -154 -3 -135 -53 16 -41 50
-69 91 -74 36 -5 42 -2 89 46 28 28 57 51 65 51 9 0 23 -11 31 -24 15 -23 15
-27 -1 -53 -40 -62 -126 -123 -174 -123 -38 0 -62 12 -121 61 -66 55 -93 121
-86 214 6 83 30 136 83 185 58 52 156 60 219 16z m387 2 c23 -37 -14 -85 -63
-80 -21 3 -35 -4 -54 -24 -24 -26 -25 -30 -25 -178 0 -160 -4 -176 -46 -176
-42 0 -45 16 -42 245 3 193 5 219 20 229 13 8 24 5 47 -12 30 -22 30 -22 41
-3 5 11 20 21 32 23 30 5 80 -9 90 -24z m-1668 6 c13 -13 16 -43 16 -175 0
-156 1 -160 25 -184 32 -33 57 -31 100 6 l35 31 0 142 c0 77 3 151 6 164 8 29
50 40 72 19 13 -14 15 -48 15 -230 0 -118 -3 -220 -7 -226 -10 -16 -46 -14
-52 3 -11 28 -36 26 -75 -5 -52 -41 -78 -40 -137 6 -76 57 -82 78 -82 270 0
173 6 195 50 195 10 0 26 -7 34 -16z"/>
<path d="M6858 5240 c-20 -11 -54 -40 -75 -65 -54 -65 -97 -59 -72 10 7 19 10
37 6 41 -8 8 -206 11 -218 3 -10 -6 -15 -947 -5 -956 7 -7 225 -8 232 -1 3 3
5 107 5 230 -1 341 19 444 100 513 36 30 115 35 154 9 33 -22 62 -10 71 29 6
29 19 64 47 125 13 28 0 42 -61 66 -57 22 -138 20 -184 -4z"/>
<path d="M7234 5228 c-3 -4 -5 -171 -5 -371 -1 -338 1 -367 19 -420 31 -86 65
-122 162 -167 112 -53 304 -16 393 74 36 37 71 58 81 49 10 -10 7 -50 -6 -79
-19 -41 3 -50 121 -48 56 1 104 4 107 7 7 6 6 948 0 955 -11 10 -226 9 -235
-2 -5 -6 -9 -147 -10 -312 -1 -282 -2 -305 -21 -350 -23 -53 -63 -94 -117
-119 -46 -22 -139 -17 -174 10 -51 38 -61 62 -70 167 -10 119 -13 555 -4 580
4 9 1 19 -5 23 -16 10 -231 12 -236 3z"/>
<path d="M2881 3331 c-29 -36 -31 -45 -31 -119 0 -67 4 -84 22 -108 50 -65 84
-70 134 -20 34 34 34 35 34 125 0 87 -1 92 -31 126 -44 50 -86 49 -128 -4z"/>
<path d="M2022 3335 c-18 -19 -32 -43 -32 -53 0 -17 8 -19 95 -17 52 1 97 4
101 7 10 11 -7 48 -34 73 -41 38 -90 34 -130 -10z"/>
<path d="M2574 3190 c-5 -5 -32 -13 -59 -16 -62 -9 -94 -31 -95 -65 0 -36 29
-59 74 -59 31 0 46 7 77 39 38 37 46 61 33 95 -7 18 -16 20 -30 6z"/>
<path d="M4972 3340 c-22 -20 -32 -37 -30 -52 3 -21 8 -22 96 -23 90 -1 92 -1
92 22 0 13 -14 37 -30 53 -41 40 -84 40 -128 0z"/>
</g>
</svg>
