<svg class="technology__svg javascript" xmlns="http://www.w3.org/2000/svg" width="50" height="50" viewBox="0 0 1170 1170" version="1.1">
	<title>JAVASCRIPT</title>
	<path d="M 27 584.472 L 27 1168.944 13.250 1169.252 L -0.500 1169.561 13.750 1169.781 L 28 1170 28 585 C 28 263.250, 27.775 0, 27.500 0 C 27.225 0, 27 263.012, 27 584.472 M 543 57 L 543 114 509 114 L 475 114 475 135.500 L 475 157 530.883 157 L 586.767 157 587.370 154.750 C 588.161 151.799, 588.183 3.641, 587.393 1.582 C 586.865 0.206, 583.934 0, 564.893 0 L 543 0 543 57 M 608 47.418 C 608 73.498, 608.273 95.548, 608.607 96.418 C 609.150 97.832, 614.710 98, 661.107 98 L 713 98 713 106 L 713 114 660.500 114 L 608 114 608 135.500 L 608 157 682 157 L 756 157 756 107.500 L 756 58 703.500 58 L 651 58 651 50 L 651 42 703.500 42 L 756 42 756 21 L 756 0 682 0 L 608 0 608 47.418 M 197.783 229.550 C 197.481 229.853, 197.620 231.765, 198.093 233.800 C 198.565 235.835, 198.963 241.887, 198.976 247.250 C 198.989 252.695, 199.418 257, 199.946 257 C 200.469 257, 201.107 262.928, 201.373 270.250 C 201.637 277.538, 202.567 290.025, 203.438 298 C 204.309 305.975, 205.294 318.462, 205.627 325.750 C 205.960 333.038, 206.604 339, 207.059 339 C 207.514 339, 208.100 344.512, 208.363 351.250 C 208.625 357.988, 209.597 370.700, 210.521 379.500 C 211.445 388.300, 212.408 400.788, 212.660 407.250 C 212.912 413.712, 213.515 419, 214.002 419 C 214.488 419, 215.085 424.512, 215.329 431.250 C 215.989 449.461, 218.234 475, 219.176 475 C 219.629 475, 220 480.850, 220 488 C 220 496, 220.385 501, 221 501 C 221.603 501, 222 505.141, 222 511.424 C 222 517.157, 222.461 524.019, 223.025 526.674 C 224.287 532.619, 225.929 552.164, 226.623 569.500 C 226.909 576.650, 227.561 582.650, 228.072 582.833 C 228.582 583.017, 229 588.058, 229 594.036 C 229 600.015, 229.441 605.940, 229.980 607.203 C 231.050 609.711, 232.868 631.390, 233.631 650.750 C 233.897 657.487, 234.539 663, 235.057 663 C 235.588 663, 236 667.612, 236 673.557 C 236 679.364, 236.458 686.001, 237.018 688.307 C 238.322 693.683, 240.037 713.780, 240.638 730.750 C 240.897 738.038, 241.495 744, 241.968 744 C 242.441 744, 243.040 749.063, 243.300 755.250 C 243.560 761.438, 244.008 768.075, 244.297 770 C 244.586 771.925, 245.156 779.013, 245.564 785.750 C 245.971 792.487, 246.686 798, 247.152 798 C 247.619 798, 248 804.750, 248 813 C 248 822.333, 248.378 828, 249 828 C 249.589 828, 250.010 831.599, 250.024 836.750 C 250.037 841.563, 250.473 847.300, 250.993 849.500 C 251.514 851.700, 252.246 859.462, 252.622 866.750 C 252.997 874.037, 253.686 880, 254.152 880 C 254.618 880, 255 885.625, 255 892.500 C 255 900.167, 255.387 905, 256 905 C 256.607 905, 257 909.419, 257 916.257 C 257 922.448, 257.457 929.085, 258.017 931.007 C 258.576 932.928, 259.321 940.688, 259.672 948.250 C 260.024 955.813, 260.691 962, 261.156 962 C 261.620 962, 262 967.625, 262 974.500 C 262 982.167, 262.387 987, 263 987 C 263.597 987, 264.007 990.929, 264.018 996.750 C 264.028 1002.112, 264.695 1010.775, 265.500 1016 C 266.305 1021.225, 266.972 1029.662, 266.982 1034.750 C 266.993 1040.238, 267.407 1044, 268 1044 C 268.609 1044, 269 1048.500, 269 1055.500 C 269 1062.409, 269.395 1067, 269.988 1067 C 270.532 1067, 270.910 1067.787, 270.830 1068.750 C 270.527 1072.367, 271.046 1074, 272.500 1074 C 273.325 1074, 274 1074.450, 274 1075 C 274 1075.550, 275.462 1076.016, 277.250 1076.035 C 279.038 1076.055, 281.625 1076.714, 283 1077.500 C 284.375 1078.286, 286.962 1078.945, 288.750 1078.965 C 290.538 1078.984, 292 1079.450, 292 1080 C 292 1080.550, 293.524 1081, 295.386 1081 C 297.248 1081, 300.060 1081.672, 301.636 1082.494 C 303.211 1083.315, 305.512 1083.990, 306.750 1083.994 C 307.988 1083.997, 309 1084.450, 309 1085 C 309 1085.550, 310.575 1086, 312.500 1086 C 314.425 1086, 316 1086.450, 316 1087 C 316 1087.550, 318.025 1088, 320.500 1088 C 322.975 1088, 325 1088.348, 325 1088.773 C 325 1089.562, 331.904 1091.669, 337.750 1092.665 C 339.538 1092.970, 341 1093.620, 341 1094.109 C 341 1094.599, 342.462 1095.002, 344.250 1095.004 C 346.038 1095.007, 350.650 1096.122, 354.500 1097.483 C 358.350 1098.844, 362.738 1099.967, 364.250 1099.979 C 365.762 1099.991, 367 1100.403, 367 1100.895 C 367 1101.387, 368.688 1102.033, 370.750 1102.330 C 376.499 1103.158, 384 1105.364, 384 1106.227 C 384 1106.652, 385.575 1107, 387.500 1107 C 389.425 1107, 391 1107.450, 391 1108 C 391 1108.550, 393.025 1109, 395.500 1109 C 397.975 1109, 400 1109.399, 400 1109.886 C 400 1110.374, 402.025 1111.077, 404.500 1111.448 C 406.975 1111.819, 409 1112.545, 409 1113.061 C 409 1113.578, 410.800 1114, 413 1114 C 415.200 1114, 417 1114.450, 417 1115 C 417 1115.550, 418.238 1116.002, 419.750 1116.004 C 421.262 1116.007, 425.650 1117.122, 429.500 1118.483 C 433.350 1119.844, 437.738 1120.967, 439.250 1120.979 C 440.762 1120.991, 442 1121.403, 442 1121.895 C 442 1122.387, 443.688 1123.033, 445.750 1123.330 C 451.499 1124.158, 459 1126.364, 459 1127.227 C 459 1127.652, 461.025 1128, 463.500 1128 C 465.975 1128, 468 1128.450, 468 1129 C 468 1129.550, 469.575 1130, 471.500 1130 C 473.425 1130, 475 1130.422, 475 1130.939 C 475 1131.455, 477.025 1132.181, 479.500 1132.552 C 481.975 1132.923, 484 1133.626, 484 1134.114 C 484 1134.601, 485.800 1135, 488 1135 C 490.200 1135, 492 1135.450, 492 1136 C 492 1136.550, 493.462 1137.016, 495.250 1137.035 C 497.038 1137.055, 499.625 1137.714, 501 1138.500 C 502.375 1139.286, 504.962 1139.945, 506.750 1139.965 C 508.538 1139.984, 510 1140.450, 510 1141 C 510 1141.550, 511.575 1142, 513.500 1142 C 515.425 1142, 517 1142.403, 517 1142.895 C 517 1143.387, 518.688 1144.033, 520.750 1144.330 C 526.499 1145.158, 534 1147.364, 534 1148.227 C 534 1148.652, 536.025 1149, 538.500 1149 C 540.975 1149, 543 1149.450, 543 1150 C 543 1150.550, 544.323 1151, 545.941 1151 C 547.559 1151, 549.144 1151.424, 549.464 1151.942 C 549.785 1152.460, 552.061 1153.187, 554.523 1153.556 C 556.985 1153.925, 559 1154.626, 559 1155.114 C 559 1155.601, 561.025 1156, 563.500 1156 C 565.975 1156, 568 1156.348, 568 1156.773 C 568 1157.636, 575.501 1159.842, 581.250 1160.670 C 583.313 1160.967, 585 1161.613, 585 1162.105 C 585 1162.597, 586.575 1163, 588.500 1163 C 590.425 1163, 592 1163.450, 592 1164 C 592 1164.550, 593.462 1165.016, 595.250 1165.035 C 597.038 1165.055, 599.625 1165.714, 601 1166.500 C 602.375 1167.286, 604.737 1167.945, 606.250 1167.965 C 607.763 1167.984, 609 1168.450, 609 1169 C 609 1169.550, 611.025 1170, 613.500 1170 C 615.975 1170, 618 1169.550, 618 1169 C 618 1168.450, 619.323 1168, 620.941 1168 C 622.559 1168, 624.144 1167.576, 624.464 1167.058 C 624.785 1166.540, 627.061 1165.813, 629.523 1165.444 C 631.985 1165.075, 634 1164.374, 634 1163.886 C 634 1163.399, 636.025 1163, 638.500 1163 C 640.975 1163, 643 1162.652, 643 1162.227 C 643 1161.438, 649.904 1159.331, 655.750 1158.335 C 657.538 1158.030, 659 1157.380, 659 1156.891 C 659 1156.401, 660.800 1156, 663 1156 C 665.200 1156, 667 1155.550, 667 1155 C 667 1154.450, 668.462 1153.984, 670.250 1153.965 C 672.038 1153.945, 674.625 1153.286, 676 1152.500 C 677.375 1151.714, 679.737 1151.055, 681.250 1151.035 C 682.763 1151.016, 684 1150.550, 684 1150 C 684 1149.450, 685.773 1149, 687.941 1149 C 690.109 1149, 692.128 1148.602, 692.429 1148.115 C 692.729 1147.629, 695.006 1146.926, 697.488 1146.554 C 699.969 1146.182, 702 1145.455, 702 1144.939 C 702 1144.422, 703.575 1144, 705.500 1144 C 707.425 1144, 709 1143.550, 709 1143 C 709 1142.450, 711.025 1142, 713.500 1142 C 715.975 1142, 718 1141.652, 718 1141.227 C 718 1140.364, 725.501 1138.158, 731.250 1137.330 C 733.313 1137.033, 735 1136.387, 735 1135.895 C 735 1135.403, 736.575 1135, 738.500 1135 C 740.425 1135, 742 1134.550, 742 1134 C 742 1133.450, 743.139 1133, 744.532 1133 C 745.925 1133, 748.680 1132.325, 750.654 1131.500 C 752.629 1130.675, 755.539 1130, 757.122 1130 C 758.705 1130, 760 1129.550, 760 1129 C 760 1128.450, 761.800 1128, 764 1128 C 766.200 1128, 768 1127.578, 768 1127.061 C 768 1126.545, 770.025 1125.819, 772.500 1125.448 C 774.975 1125.077, 777 1124.374, 777 1123.886 C 777 1123.399, 778.575 1123, 780.500 1123 C 782.425 1123, 784 1122.550, 784 1122 C 784 1121.450, 786.025 1121, 788.500 1121 C 790.975 1121, 793 1120.601, 793 1120.114 C 793 1119.626, 795.015 1118.925, 797.477 1118.556 C 799.939 1118.187, 802.215 1117.460, 802.536 1116.942 C 802.856 1116.424, 804.666 1116, 806.559 1116 C 808.452 1116, 810 1115.550, 810 1115 C 810 1114.450, 811.237 1113.991, 812.750 1113.979 C 814.263 1113.967, 818.650 1112.844, 822.500 1111.483 C 826.350 1110.122, 830.737 1109.007, 832.250 1109.004 C 833.763 1109.002, 835 1108.550, 835 1108 C 835 1107.450, 836.548 1107, 838.441 1107 C 840.334 1107, 842.144 1106.576, 842.464 1106.058 C 842.785 1105.540, 845.061 1104.813, 847.523 1104.444 C 849.985 1104.075, 852 1103.374, 852 1102.886 C 852 1102.399, 853.575 1102, 855.500 1102 C 857.425 1102, 859 1101.550, 859 1101 C 859 1100.450, 861.025 1100, 863.500 1100 C 865.975 1100, 868 1099.578, 868 1099.061 C 868 1098.545, 870.025 1097.819, 872.500 1097.448 C 874.975 1097.077, 877 1096.374, 877 1095.886 C 877 1095.399, 878.800 1095, 881 1095 C 883.200 1095, 885 1094.550, 885 1094 C 885 1093.450, 886.335 1093, 887.966 1093 C 889.597 1093, 892.410 1092.379, 894.216 1091.620 C 899.651 1089.336, 904.487 1088, 907.321 1088 C 908.794 1088, 910 1087.550, 910 1087 C 910 1086.450, 911.548 1086, 913.441 1086 C 915.334 1086, 917.144 1085.576, 917.464 1085.058 C 917.785 1084.540, 920.061 1083.813, 922.523 1083.444 C 924.985 1083.075, 927 1082.374, 927 1081.886 C 927 1081.399, 929.025 1081, 931.500 1081 C 933.975 1081, 936 1080.550, 936 1080 C 936 1079.450, 937.575 1079, 939.500 1079 C 941.425 1079, 943 1078.578, 943 1078.061 C 943 1077.545, 945.025 1076.819, 947.500 1076.448 C 949.975 1076.077, 952 1075.374, 952 1074.886 C 952 1074.399, 953.125 1074, 954.500 1074 L 957 1074 957 1062.500 C 957 1055.500, 957.391 1051, 958 1051 C 958.580 1051, 959.003 1047.744, 959.008 1043.250 C 959.013 1038.987, 959.679 1030.550, 960.489 1024.500 C 961.298 1018.450, 961.970 1009.337, 961.980 1004.250 C 961.992 998.763, 962.407 995, 963 995 C 963.611 995, 964 990.333, 964 983 C 964 975.667, 964.389 971, 965 971 C 965.593 971, 966.007 967.238, 966.018 961.750 C 966.028 956.663, 966.695 948.225, 967.500 943 C 968.305 937.775, 968.972 929.337, 968.982 924.250 C 968.993 918.762, 969.407 915, 970 915 C 970.619 915, 971 909.667, 971 901 C 971 893.300, 971.381 887, 971.846 887 C 972.312 887, 972.984 881.713, 973.341 875.250 C 973.698 868.788, 974.439 860.800, 974.989 857.500 C 975.539 854.200, 975.991 847.788, 975.994 843.250 C 975.998 838.421, 976.415 835, 977 835 C 977.619 835, 978 829.667, 978 821 C 978 813.300, 978.381 807, 978.848 807 C 979.314 807, 980.009 801.488, 980.392 794.750 C 980.776 788.013, 981.500 780.475, 982.001 778 C 982.503 775.525, 982.932 770.050, 982.956 765.833 C 982.986 760.715, 983.415 757.973, 984.250 757.583 C 985.250 757.117, 985.250 756.883, 984.250 756.417 C 982.795 755.738, 982.551 753, 983.946 753 C 984.469 753, 985.102 747.079, 985.363 739.750 C 985.996 721.939, 987.738 701.318, 988.984 696.884 C 989.543 694.895, 990 688.483, 990 682.634 C 990 676.641, 990.411 672, 990.943 672 C 991.461 672, 992.104 666.487, 992.370 659.750 C 993.112 640.996, 994.816 620.323, 995.960 616.204 C 996.526 614.167, 996.991 607.888, 996.994 602.250 C 996.998 596.087, 997.399 592, 998 592 C 998.609 592, 999 587.505, 999 580.514 C 999 574.197, 999.435 567.110, 999.966 564.764 C 1001.106 559.730, 1003.058 537.049, 1003.688 521.518 C 1003.968 514.616, 1004.573 510.250, 1005.317 509.768 C 1006.190 509.201, 1006.107 508.742, 1005 508.015 C 1004.143 507.453, 1003.999 507.024, 1004.664 507.015 C 1005.450 507.005, 1005.989 503.343, 1006.324 495.750 C 1006.596 489.563, 1007.595 477.300, 1008.542 468.500 C 1009.490 459.700, 1010.456 446.988, 1010.690 440.250 C 1010.923 433.512, 1011.512 428, 1011.998 428 C 1012.485 428, 1013.088 422.712, 1013.340 416.250 C 1013.592 409.788, 1014.556 397.300, 1015.481 388.500 C 1016.406 379.700, 1017.377 366.762, 1017.637 359.750 C 1017.898 352.738, 1018.477 347, 1018.925 347 C 1019.373 347, 1020.019 341.038, 1020.361 333.750 C 1020.703 326.462, 1021.704 313.975, 1022.586 306 C 1023.468 298.025, 1024.396 285.538, 1024.649 278.250 C 1024.901 270.962, 1025.480 265, 1025.933 265 C 1026.387 265, 1027.048 259.488, 1027.402 252.750 C 1027.756 246.012, 1028.302 237.912, 1028.615 234.750 L 1029.185 229 613.759 229 C 385.275 229, 198.086 229.248, 197.783 229.550 M 490.350 404.447 C 489.215 405.771, 489.053 406.518, 489.841 406.780 C 490.715 407.072, 491 463.409, 491 635.976 C 491 843.698, 490.854 864.842, 489.418 865.393 C 487.083 866.289, 484 866.130, 484 865.114 C 484 864.626, 481.975 863.923, 479.500 863.552 C 477.025 863.181, 475 862.455, 475 861.939 C 475 861.422, 472.975 861, 470.500 861 C 468.025 861, 466 860.550, 466 860 C 466 859.450, 464.452 859, 462.559 859 C 460.666 859, 458.856 858.576, 458.536 858.058 C 458.215 857.540, 455.939 856.813, 453.477 856.444 C 451.015 856.075, 449 855.374, 449 854.886 C 449 854.399, 446.975 854, 444.500 854 C 442.025 854, 440 853.550, 440 853 C 440 852.450, 438.452 852, 436.559 852 C 434.666 852, 432.856 851.576, 432.536 851.058 C 432.215 850.540, 429.939 849.813, 427.477 849.444 C 425.015 849.075, 423 848.374, 423 847.886 C 423 847.399, 420.975 847, 418.500 847 C 416.025 847, 414 846.550, 414 846 C 414 845.450, 412.425 845, 410.500 845 C 408.575 845, 407 844.578, 407 844.061 C 407 843.545, 404.969 842.818, 402.488 842.446 C 400.006 842.074, 397.729 841.371, 397.429 840.885 C 397.128 840.398, 395.109 840, 392.941 840 C 390.773 840, 389 839.550, 389 839 C 389 838.450, 387.452 838, 385.559 838 C 383.666 838, 381.856 837.576, 381.536 837.058 C 381.215 836.540, 378.939 835.813, 376.477 835.444 C 374.015 835.075, 372 834.374, 372 833.886 C 372 833.399, 369.975 833, 367.500 833 C 365.025 833, 363 832.550, 363 832 C 363 831.450, 361.452 831, 359.559 831 C 357.666 831, 355.856 830.576, 355.536 830.058 C 355.215 829.540, 352.939 828.813, 350.477 828.444 C 348.015 828.075, 346 827.374, 346 826.886 C 346 826.399, 343.975 826, 341.500 826 C 339.025 826, 337 825.550, 337 825 C 337 824.450, 335.425 824, 333.500 824 L 330 824 330 870.571 C 330 921.603, 329.808 920, 335.929 920 C 337.618 920, 339 920.450, 339 921 C 339 921.550, 340.800 922, 343 922 C 345.200 922, 347 922.450, 347 923 C 347 923.550, 348.462 924.016, 350.250 924.035 C 352.038 924.055, 354.625 924.714, 356 925.500 C 357.375 926.286, 359.962 926.945, 361.750 926.965 C 363.538 926.984, 365 927.450, 365 928 C 365 928.550, 366.575 929, 368.500 929 C 370.425 929, 372 929.450, 372 930 C 372 930.550, 373.364 931, 375.032 931 C 376.700 931, 379.680 931.675, 381.654 932.500 C 383.629 933.325, 386.539 934, 388.122 934 C 389.705 934, 391 934.450, 391 935 C 391 935.550, 392.575 936, 394.500 936 C 396.425 936, 398 936.450, 398 937 C 398 937.550, 399.295 938, 400.878 938 C 402.461 938, 405.371 938.675, 407.346 939.500 C 409.320 940.325, 412.075 941, 413.468 941 C 414.861 941, 416 941.450, 416 942 C 416 942.550, 418.025 943, 420.500 943 C 422.975 943, 425 943.450, 425 944 C 425 944.550, 426.238 945.016, 427.750 945.035 C 429.262 945.055, 431.625 945.714, 433 946.500 C 434.375 947.286, 436.962 947.945, 438.750 947.965 C 440.538 947.984, 442 948.450, 442 949 C 442 949.550, 443.581 950, 445.514 950 C 447.446 950, 449.809 950.387, 450.764 950.859 C 454.197 952.557, 462.821 955, 465.384 955 C 466.823 955, 468 955.403, 468 955.895 C 468 956.387, 469.688 957.003, 471.750 957.264 C 473.813 957.524, 477.975 958.511, 481 959.456 C 484.025 960.402, 488.188 961.408, 490.250 961.693 C 492.313 961.977, 494 962.613, 494 963.105 C 494 963.597, 495.206 964, 496.679 964 C 499.513 964, 504.349 965.336, 509.784 967.620 C 511.590 968.379, 514.403 969, 516.034 969 C 517.665 969, 519 969.450, 519 970 C 519 970.550, 520.800 971, 523 971 C 525.200 971, 527 971.450, 527 972 C 527 972.550, 528.139 973, 529.532 973 C 530.925 973, 533.680 973.675, 535.654 974.500 C 537.629 975.325, 540.539 976, 542.122 976 C 543.705 976, 545 976.450, 545 977 C 545 977.550, 546.356 978, 548.014 978 C 549.671 978, 551.809 978.397, 552.764 978.882 C 555.126 980.083, 562.682 982.073, 567.250 982.697 C 569.313 982.979, 571 983.613, 571 984.105 C 571 984.597, 572.538 985, 574.417 985 C 576.296 985, 578.062 985.563, 578.341 986.250 C 580.795 992.298, 580.961 971.946, 580.736 693.709 L 580.500 402.918 536.258 402.709 C 493.518 402.507, 491.960 402.566, 490.350 404.447 M 645.667 402.667 C 645.300 403.033, 645 483.133, 645 580.667 L 645 758 651.500 758 C 655.075 758, 658 757.599, 658 757.109 C 658 756.619, 661.263 755.970, 665.250 755.666 C 669.237 755.362, 676.325 754.368, 681 753.458 C 685.675 752.548, 692.763 751.588, 696.750 751.323 C 700.737 751.058, 704 750.466, 704 750.006 C 704 749.547, 706.813 748.948, 710.250 748.675 C 713.688 748.402, 720.325 747.420, 725 746.491 C 729.675 745.563, 736.763 744.588, 740.750 744.323 C 744.737 744.058, 748 743.464, 748 743.003 C 748 742.542, 751.038 741.944, 754.750 741.676 C 758.462 741.408, 765.325 740.430, 770 739.504 C 774.675 738.579, 781.313 737.598, 784.750 737.325 C 788.188 737.052, 791 736.418, 791 735.915 C 791 735.412, 791.450 735, 792 735 C 793.255 735, 793.351 750.704, 792.098 751.167 C 791.602 751.350, 790.971 755.325, 790.695 760 C 789.941 772.788, 788.005 790.107, 786.942 793.571 C 786.424 795.260, 786 801.223, 786 806.821 C 786 812.940, 785.601 817, 785 817 C 784.412 817, 784 820.484, 784 825.453 C 784 830.102, 783.575 834.940, 783.056 836.203 C 782.536 837.466, 781.823 841.987, 781.470 846.250 C 780.839 853.881, 780.787 854, 778.081 854 C 776.570 854, 774.996 854.337, 774.584 854.749 C 773.876 855.458, 766.790 857.469, 760.750 858.677 C 759.237 858.980, 758 859.626, 758 860.113 C 758 860.601, 755.975 861, 753.500 861 C 751.025 861, 749 861.399, 749 861.886 C 749 862.374, 746.985 863.075, 744.523 863.444 C 742.061 863.813, 739.785 864.540, 739.464 865.058 C 739.144 865.576, 737.334 866, 735.441 866 C 733.548 866, 732 866.403, 732 866.895 C 732 867.387, 730.313 868.027, 728.250 868.316 C 721.369 869.281, 714 871.255, 714 872.133 C 714 872.610, 712.425 873, 710.500 873 C 708.575 873, 707 873.450, 707 874 C 707 874.550, 705.050 875, 702.667 875 C 700.283 875, 698.042 875.291, 697.686 875.647 C 696.488 876.846, 686.524 879.934, 683.750 879.967 C 682.237 879.985, 681 880.403, 681 880.895 C 681 881.387, 679.313 882.021, 677.250 882.302 C 670.797 883.184, 664 885.123, 664 886.081 C 664 886.586, 661.975 887, 659.500 887 C 657.025 887, 655 887.450, 655 888 C 655 888.550, 653.655 889, 652.011 889 C 650.368 889, 648.118 889.775, 647.011 890.722 C 645.051 892.401, 645 893.595, 645 938.140 C 645 963.273, 645.273 984.548, 645.607 985.418 C 646.266 987.137, 650 987.631, 650 986 C 650 985.450, 651.800 985, 654 985 C 656.200 985, 658 984.550, 658 984 C 658 983.450, 659.237 982.991, 660.750 982.979 C 662.263 982.967, 666.650 981.844, 670.500 980.483 C 674.350 979.122, 678.737 978.007, 680.250 978.004 C 681.763 978.002, 683 977.550, 683 977 C 683 976.450, 684.548 976, 686.441 976 C 688.334 976, 690.144 975.576, 690.464 975.058 C 690.785 974.540, 693.061 973.813, 695.523 973.444 C 697.985 973.075, 700 972.374, 700 971.886 C 700 971.399, 702.025 971, 704.500 971 C 706.975 971, 709 970.550, 709 970 C 709 969.450, 710.575 969, 712.500 969 C 714.425 969, 716 968.601, 716 968.114 C 716 967.626, 718.015 966.925, 720.477 966.556 C 722.939 966.187, 725.215 965.460, 725.536 964.942 C 725.856 964.424, 727.666 964, 729.559 964 C 731.452 964, 733 963.550, 733 963 C 733 962.450, 734.773 962, 736.941 962 C 739.109 962, 741.144 961.576, 741.464 961.058 C 741.785 960.540, 744.061 959.813, 746.523 959.444 C 748.985 959.075, 751 958.374, 751 957.886 C 751 957.399, 752.575 957, 754.500 957 C 756.425 957, 758 956.597, 758 956.105 C 758 955.613, 759.688 954.966, 761.750 954.668 C 769.319 953.575, 777 951.643, 777 950.833 C 777 950.375, 778.575 950, 780.500 950 C 782.425 950, 784 949.550, 784 949 C 784 948.450, 785.177 948, 786.616 948 C 789.179 948, 797.803 945.557, 801.236 943.859 C 802.191 943.387, 804.554 943, 806.486 943 C 808.419 943, 810 942.550, 810 942 C 810 941.450, 811.139 941, 812.532 941 C 813.925 941, 816.680 940.325, 818.654 939.500 C 820.629 938.675, 823.539 938, 825.122 938 C 826.705 938, 828 937.550, 828 937 C 828 936.450, 829.575 936, 831.500 936 C 833.425 936, 835 935.597, 835 935.105 C 835 934.613, 836.688 933.967, 838.750 933.670 C 844.499 932.842, 852 930.636, 852 929.773 C 852 929.348, 853.382 929, 855.071 929 C 860.223 929, 861 927.305, 861 916.071 C 861 910.532, 861.365 906, 861.812 906 C 862.696 906, 864.996 882.641, 865.726 866.250 C 865.977 860.612, 866.591 856, 867.091 856 C 867.591 856, 868 850.825, 868 844.500 C 868 838.175, 868.355 833, 868.790 833 C 869.573 833, 871.673 811.599, 872.959 790.500 C 873.328 784.450, 873.798 779.950, 874.004 780.500 C 874.210 781.050, 874.718 776.100, 875.133 769.500 C 875.548 762.900, 876.599 750.975, 877.470 743 C 878.340 735.025, 879.313 723.212, 879.631 716.750 C 879.950 710.288, 880.613 705, 881.105 705 C 881.597 705, 882 699.600, 882 693 C 882 686.400, 882.357 681, 882.794 681 C 883.591 681, 885.854 658.189, 886.696 641.662 C 887.193 631.918, 886.662 628.938, 884.767 630.833 C 884.125 631.475, 880.990 632, 877.800 632 C 874.600 632, 872 632.448, 872 633 C 872 633.576, 868.889 634, 864.667 634 C 860.633 634, 856.998 634.337, 856.587 634.750 C 855.746 635.595, 841.714 637.839, 832.250 638.641 C 828.813 638.932, 826 639.582, 826 640.085 C 826 640.588, 822.475 641, 818.167 641 C 813.858 641, 809.998 641.337, 809.587 641.750 C 808.746 642.595, 794.714 644.839, 785.250 645.641 C 781.813 645.932, 779 646.582, 779 647.085 C 779 647.588, 775.700 648, 771.667 648 C 767.633 648, 763.999 648.337, 763.590 648.750 C 762.863 649.483, 751.223 651.560, 741.750 652.648 L 737 653.193 737 573.597 L 737 494 817.383 494 L 897.767 494 898.370 491.750 C 898.701 490.512, 898.979 487.333, 898.986 484.684 C 898.994 482.036, 899.515 478.907, 900.143 477.732 C 901.001 476.129, 901.001 475.500, 900.143 475.214 C 898.739 474.746, 898.609 470, 900 470 C 900.596 470, 901 466.167, 901 460.500 C 901 455.241, 901.419 451, 901.939 451 C 902.456 451, 903.086 445.938, 903.338 439.750 C 903.591 433.563, 904.369 423.287, 905.069 416.915 C 905.768 410.543, 906.053 404.581, 905.702 403.665 C 905.110 402.124, 895.462 402, 775.698 402 C 704.547 402, 646.033 402.300, 645.667 402.667 " stroke="none" fill="" fill-rule="evenodd"/>
</svg>