<svg class="technology__svg jquery" xmlns="http://www.w3.org/2000/svg" width="50" height="50" viewBox="0 0 800 800" version="1.1">
 	<title>JQuery</title>
	<path d="M 470.070 7.588 C 457.535 26.329, 451.865 43.769, 451.731 64 C 451.603 83.199, 455.030 96.251, 465.668 117.081 C 482.950 150.922, 508.764 174.400, 541.312 185.879 C 558.416 191.912, 568.217 193.405, 591 193.445 C 609.049 193.478, 612.562 193.213, 620.377 191.230 C 636.231 187.207, 652.172 178.504, 662.685 168.133 C 667.198 163.680, 675.228 153.916, 677.357 150.292 C 677.747 149.627, 674.749 150.595, 670.694 152.443 C 660.432 157.120, 645.637 161.715, 634.724 163.615 C 620.933 166.017, 597.768 165.093, 584.793 161.624 C 558.353 154.555, 534.660 141.044, 513.856 121.171 C 493.116 101.358, 481.930 82.091, 475.730 55.500 C 474.003 48.092, 473.635 43.315, 473.655 28.500 C 473.668 18.600, 474.164 8.250, 474.757 5.501 C 475.350 2.751, 475.697 0.363, 475.528 0.194 C 475.359 0.025, 472.903 3.352, 470.070 7.588 M 351 38.130 C 333.956 59.703, 323.594 81.220, 318.314 106 C 316.018 116.773, 315.715 157.105, 317.840 169 C 325.735 213.192, 344.951 248.429, 379.868 282.745 C 398.283 300.843, 415.366 313.136, 437.076 323.911 C 487.197 348.787, 545.867 352.762, 599.295 334.901 C 644.552 319.773, 677.828 291.549, 697.901 251.268 C 700.706 245.641, 703 240.746, 703 240.391 C 703 240.037, 698.377 244.199, 692.727 249.642 C 649.313 291.457, 590.427 307.648, 530 294.386 C 512.693 290.587, 499.308 285.758, 480.500 276.528 C 419.157 246.423, 379.727 205.812, 362.052 154.533 C 350.703 121.608, 348.368 84.896, 355.027 44.079 C 356.137 37.277, 356.922 31.589, 356.772 31.440 C 356.623 31.291, 354.025 34.301, 351 38.130 M 213.690 81.154 C 209.623 83.430, 197.577 97.973, 188.310 111.795 C 166.518 144.300, 155.033 183.391, 155.008 225.144 C 154.944 331.203, 223.077 436.504, 324.632 487.304 C 355.242 502.616, 382.736 511.013, 417.500 515.667 C 436.214 518.172, 482.755 518.179, 499.500 515.679 C 554.977 507.396, 601.467 484.736, 640.373 447.012 C 658.595 429.344, 672.939 410.344, 683.520 389.856 L 688.238 380.721 677.869 390.030 C 642.226 422.029, 602.655 440.204, 550.500 448.531 C 536.689 450.736, 499.536 451.585, 483.342 450.066 C 439.877 445.990, 404.309 434.612, 366 412.528 C 350.167 403.400, 325.688 386.866, 312.500 376.390 C 299.008 365.672, 277.628 344.911, 266.270 331.500 C 240.026 300.508, 220.650 261.191, 212.063 221.500 C 207.667 201.184, 206.586 189.531, 206.589 162.500 C 206.592 134.536, 208.209 117.886, 213.387 92.500 C 214.733 85.901, 215.755 80.422, 215.659 80.325 C 215.562 80.229, 214.676 80.602, 213.690 81.154 M 229.585 583.042 C 219.025 584.698, 208.825 587.997, 199.568 592.750 C 168.504 608.701, 146.601 654.202, 149.367 697.039 C 150.418 713.327, 155.140 724.983, 164.168 733.575 C 170.813 739.900, 173.174 741.359, 181.144 744.066 C 189.709 746.975, 217.109 748.049, 262.755 747.266 L 297.010 746.678 297.950 743.089 C 298.467 741.115, 300.061 734.775, 301.492 729 C 302.923 723.225, 304.328 717.712, 304.614 716.750 C 305.069 715.221, 304.383 715, 299.192 715 C 295.924 715, 291.881 714.726, 290.207 714.391 L 287.165 713.783 290.675 704.141 C 305.132 664.425, 308.933 645.640, 305.641 630.191 C 300.776 607.368, 284.650 590.921, 261.274 584.942 C 252.270 582.639, 237.714 581.766, 229.585 583.042 M 0 607.559 C 0 612.901, 0.393 616.875, 0.891 616.567 C 1.914 615.935, 10.613 602.173, 11.575 599.666 C 12.128 598.224, 11.394 598, 6.107 598 L 0 598 0 607.559 M 766.748 604.830 C 764.412 608.036, 752.150 625.791, 739.500 644.284 C 726.850 662.778, 716.271 677.929, 715.991 677.954 C 715.711 677.979, 714.130 673.612, 712.477 668.250 L 709.472 658.500 690.597 658.227 L 671.722 657.955 672.311 662.227 C 672.634 664.577, 674.502 671.900, 676.462 678.500 C 683.996 703.878, 685.270 710.544, 684.775 722 C 684.415 730.335, 683.773 733.856, 681.661 739.078 C 680.197 742.697, 679 745.959, 679 746.328 C 679 746.698, 687.490 747, 697.866 747 L 716.732 747 719.523 739.250 C 723.678 727.714, 732.849 709.910, 741.005 697.549 C 749.358 684.890, 757.148 674.488, 776.797 649.753 C 784.551 639.992, 792.944 629.135, 795.448 625.626 L 800 619.246 800 609.123 L 800 599 785.498 599 L 770.996 599 766.748 604.830 M 508 616.553 C 488.119 620.816, 471.341 631.001, 463.136 643.788 C 454.537 657.188, 445.710 691.469, 445.571 712 C 445.510 720.985, 445.840 723.252, 447.858 727.714 C 450.982 734.623, 458.077 741.133, 465.551 743.948 C 474.371 747.269, 498.030 748.561, 528.951 747.410 L 553.402 746.500 556.554 732 C 558.288 724.025, 559.435 717.211, 559.103 716.858 C 558.771 716.505, 544.100 715.981, 526.500 715.694 C 507.976 715.393, 492.995 714.716, 490.926 714.088 C 485.056 712.306, 482.552 708.830, 482.643 702.586 C 482.685 699.658, 483.034 696.754, 483.419 696.131 C 483.921 695.319, 495.753 695, 525.364 695 L 566.610 695 569.442 679.382 C 573.028 659.596, 573.180 648.032, 569.963 639.551 C 564.077 624.028, 546.946 614.890, 524.090 615.079 C 518.816 615.123, 511.575 615.786, 508 616.553 M 225.734 618.088 C 216.121 620.353, 207.397 627.289, 202.861 636.275 C 197.016 647.854, 191.492 668.681, 189.513 686.595 C 188.219 698.309, 192.341 706.392, 201.893 710.871 C 207.320 713.416, 208.194 713.510, 229.106 713.818 L 250.711 714.137 255.983 695.318 C 267.678 653.573, 269.239 644.992, 266.650 636.669 C 263.712 627.224, 257.834 621.513, 248.064 618.612 C 242.251 616.885, 231.872 616.642, 225.734 618.088 M 108.604 619.750 C 108.313 620.712, 106.934 626.450, 105.541 632.500 C 104.147 638.550, 102.770 644.522, 102.479 645.772 L 101.951 648.044 120.708 647.772 L 139.466 647.500 142.196 635 C 143.698 628.125, 144.943 621.487, 144.963 620.250 L 145 618 127.067 618 C 110.857 618, 109.084 618.168, 108.604 619.750 M 600.529 620.193 C 598.730 627.910, 574 745.189, 574 746.004 C 574 746.627, 580.484 747, 591.313 747 L 608.626 747 618.483 700.750 C 623.904 675.313, 628.541 653.487, 628.787 652.250 L 629.233 650 668.210 650 L 707.188 650 706.475 644.750 C 705.292 636.041, 702.259 627.622, 699.275 624.764 C 692.776 618.539, 692.697 618.530, 644.783 618.193 L 601.067 617.885 600.529 620.193 M 334 619.313 C 334 619.485, 331.098 634.222, 327.552 652.063 C 324.005 669.903, 320.357 689.900, 319.444 696.500 C 315.723 723.400, 320.161 736.646, 335.223 743.601 L 341.500 746.500 380.666 746.803 C 417.683 747.090, 419.862 747.007, 420.383 745.303 C 420.687 744.311, 426.603 716.500, 433.530 683.500 C 440.457 650.500, 446.371 622.487, 446.671 621.250 L 447.217 619 430.179 619 L 413.142 619 412.026 624.250 C 411.412 627.138, 406.738 648.400, 401.640 671.500 L 392.369 713.500 374.319 713.772 L 356.269 714.044 355.645 710.272 C 353.714 698.586, 355.482 682.711, 361.521 657.500 C 364.926 643.289, 367.981 626.178, 367.994 621.250 C 368 619.005, 367.965 619, 351 619 C 341.650 619, 334 619.141, 334 619.313 M 506.764 647.996 C 502.440 649.298, 497.428 652.749, 494.755 656.266 C 492.350 659.429, 489 665.358, 489 666.450 C 489 666.753, 499.350 667, 512 667 L 535 667 535 661.400 C 535 656.399, 534.647 655.447, 531.703 652.503 C 529.890 650.690, 526.627 648.712, 524.453 648.109 C 519.910 646.847, 510.771 646.789, 506.764 647.996 M 99.689 661.818 C 96.741 669.186, 93.015 684.686, 89.428 704.500 C 83.840 735.365, 79.746 749.226, 72.631 761.367 L 70.057 765.759 61.509 766.471 C 56.807 766.862, 52.404 767.739, 51.724 768.418 C 50.213 769.930, 43.570 797.903, 44.501 798.834 C 44.868 799.200, 53.568 799.486, 63.834 799.469 C 81.097 799.440, 82.949 799.259, 88.475 797.063 C 96.706 793.791, 103.870 786.809, 107.846 778.183 C 109.570 774.444, 113.439 761.735, 116.444 749.942 C 121.364 730.631, 137 661.456, 137 658.998 C 137 658.371, 130.342 658, 119.109 658 L 101.217 658 99.689 661.818 M 1.762 799.707 C 3.006 799.946, 4.806 799.937, 5.762 799.687 C 6.718 799.437, 5.700 799.241, 3.500 799.252 C 1.300 799.263, 0.518 799.468, 1.762 799.707 M 12.750 799.737 C 15.638 799.939, 20.363 799.939, 23.250 799.737 C 26.138 799.535, 23.775 799.370, 18 799.370 C 12.225 799.370, 9.863 799.535, 12.750 799.737 " stroke="none" fill="" fill-rule="evenodd"/>
</svg>