<?xml version="1.0" standalone="no"?>
<!DOCTYPE svg PUBLIC "-//W3C//DTD SVG 20010904//EN"
 "http://www.w3.org/TR/2001/REC-SVG-20010904/DTD/svg10.dtd">
<svg version="1.0" xmlns="http://www.w3.org/2000/svg"
 width="880.000000pt" height="973.000000pt" viewBox="0 0 880.000000 973.000000"
 preserveAspectRatio="xMidYMid meet">
<metadata>
Created by potrace 1.16, written by Peter Selinger 2001-2019
</metadata>
<g transform="translate(0.000000,973.000000) scale(0.100000,-0.100000)"
fill="#000000" stroke="none">
<path d="M4630 9677 c-83 -40 -118 -88 -204 -278 -43 -96 -83 -184 -89 -196
-6 -13 -7 -26 -4 -30 4 -3 7 1 7 10 0 19 16 23 22 6 2 -7 12 -7 33 1 17 6 67
13 112 15 46 2 87 6 93 10 5 3 10 5 10 2 0 -12 -87 -220 -137 -327 -20 -41
-48 -104 -64 -140 -16 -36 -50 -108 -76 -161 l-46 -96 -121 -7 c-161 -9 -397
-39 -566 -72 -95 -19 -277 -62 -310 -73 -14 -5 -52 -17 -85 -26 -261 -74 -641
-242 -897 -396 -571 -343 -1034 -800 -1388 -1369 -82 -132 -187 -331 -243
-460 -16 -36 -37 -83 -47 -105 -29 -67 -32 -82 -15 -89 13 -5 13 -10 -1 -48
-9 -24 -21 -53 -27 -66 -8 -16 -8 -25 0 -30 7 -5 8 -26 3 -62 -8 -61 -5 -74
16 -66 9 3 14 -2 14 -14 0 -11 -6 -19 -13 -17 -7 1 -13 -10 -15 -26 -3 -22 -7
-27 -23 -22 -25 8 -25 -7 0 -22 15 -10 22 -9 31 2 7 8 10 22 6 30 -3 9 0 15
10 15 13 0 15 -6 9 -27 -3 -15 -11 -31 -17 -35 -6 -3 -13 -26 -14 -50 -2 -23
-1 -36 3 -28 18 48 36 79 43 75 4 -3 13 16 19 42 31 123 220 553 318 723 177
308 378 567 640 828 173 172 248 226 95 70 -509 -524 -832 -1078 -1016 -1743
-99 -357 -139 -655 -139 -1045 -1 -337 24 -577 89 -875 46 -212 130 -473 199
-623 14 -29 25 -55 25 -58 0 -13 114 -240 165 -330 76 -132 188 -304 198 -304
5 0 22 30 39 68 43 95 59 142 47 142 -18 0 13 85 97 268 19 41 34 77 34 81 0
4 -29 64 -64 132 -193 377 -309 807 -334 1239 -9 161 1 581 17 685 29 192 62
365 81 425 4 14 16 54 25 90 9 36 21 74 25 85 4 11 15 47 26 80 53 174 178
446 297 645 255 429 623 810 1043 1082 62 40 281 160 359 197 137 65 366 151
480 181 140 37 231 59 290 69 39 7 75 16 82 19 6 4 38 59 71 122 71 138 112
201 112 174 0 -20 119 192 120 214 0 17 -60 15 -230 -8 -242 -33 -242 -33
-470 -90 -358 -89 -726 -245 -1076 -455 -86 -52 -147 -83 -134 -70 12 13 38
31 57 40 19 9 37 23 40 31 3 8 11 14 18 14 7 0 15 4 17 8 6 16 235 151 379
224 187 95 443 198 594 239 17 4 55 15 85 24 30 8 73 19 95 24 111 24 248 51
315 61 115 17 394 40 401 32 4 -4 -13 -47 -36 -97 -24 -49 -60 -126 -81 -170
-20 -44 -64 -136 -97 -205 -33 -69 -68 -144 -78 -167 -14 -32 -26 -44 -51 -52
-25 -7 -28 -9 -10 -10 12 -1 22 -5 22 -10 0 -10 -49 -116 -150 -326 -80 -166
-172 -361 -265 -560 -18 -38 -65 -137 -104 -218 -39 -82 -71 -150 -71 -152 0
-1 -33 -72 -74 -156 -40 -85 -92 -194 -116 -244 -75 -161 -107 -227 -184 -388
-42 -87 -76 -160 -76 -162 0 -1 -33 -72 -74 -156 -40 -85 -85 -179 -99 -209
-14 -30 -51 -109 -82 -175 -31 -66 -75 -158 -97 -205 -22 -47 -63 -132 -90
-190 -64 -133 -159 -335 -240 -510 -33 -71 -75 -160 -163 -345 -32 -66 -71
-149 -87 -185 -17 -36 -63 -135 -103 -220 -109 -232 -132 -283 -140 -310 -4
-14 -18 -40 -32 -58 -21 -28 -71 -130 -213 -437 -134 -290 -129 -281 -149
-259 -71 73 -295 437 -392 634 -25 52 -82 185 -103 240 -36 98 -48 120 -63
120 -7 0 -13 10 -12 23 0 21 1 21 9 2 8 -18 9 -18 9 -2 1 11 -5 33 -13 50 -8
18 -25 67 -37 110 -13 44 -25 75 -27 69 -1 -5 4 -29 12 -53 12 -33 12 -46 3
-57 -9 -11 -8 -17 4 -26 9 -6 18 -24 21 -39 5 -27 5 -27 -13 -11 -11 9 -19 12
-19 6 0 -6 5 -14 10 -17 6 -3 10 -15 10 -26 0 -11 3 -18 8 -16 4 3 7 -26 8
-64 0 -39 -3 -64 -8 -57 -10 16 -10 -16 -2 -89 4 -30 11 -50 16 -47 6 4 7 -18
3 -59 -7 -60 -5 -68 19 -103 27 -40 34 -78 16 -89 -6 -3 -10 1 -10 10 0 9 -10
26 -22 39 -32 33 -46 58 -53 100 -4 20 -11 36 -16 36 -5 0 -9 6 -9 14 0 7 -8
24 -18 37 -10 13 -29 49 -41 79 -13 30 -29 60 -36 65 -7 6 -16 26 -20 45 -4
19 -13 45 -21 57 -8 12 -14 29 -14 37 0 8 -6 21 -14 28 -7 8 -28 54 -45 103
-18 50 -40 108 -48 130 -42 109 -53 143 -59 187 -4 27 -10 48 -14 48 -4 0 -10
10 -13 23 -3 12 -17 68 -31 124 -14 56 -26 111 -26 122 0 11 -4 21 -8 23 -10
4 -38 167 -58 333 -8 66 -19 143 -24 170 -5 28 -11 143 -12 257 -3 213 -13
257 -24 108 -12 -152 -9 -791 3 -850 6 -30 17 -95 23 -145 28 -236 85 -487
167 -740 44 -136 106 -297 133 -347 6 -10 10 -22 10 -27 0 -35 175 -366 306
-577 34 -56 80 -128 103 -161 23 -33 41 -65 41 -71 0 -6 -20 -53 -44 -104 -53
-114 -136 -288 -182 -384 -19 -39 -34 -74 -34 -77 0 -4 -15 -39 -34 -79 -18
-40 -61 -134 -96 -208 -34 -74 -117 -245 -183 -379 l-122 -243 0 -82 c0 -94
18 -139 76 -195 79 -74 19 -70 1030 -70 l905 -1 52 26 c28 14 65 41 82 60 28
32 170 309 170 332 0 22 30 19 86 -8 107 -50 175 -79 309 -130 65 -25 164 -59
185 -65 14 -3 34 -10 45 -15 22 -10 233 -67 365 -100 80 -19 292 -54 440 -71
47 -6 204 -12 350 -14 247 -3 318 0 605 25 61 5 164 14 230 19 108 8 191 21
310 50 198 48 239 59 375 104 462 153 865 363 1257 655 184 138 292 231 468
406 357 355 639 749 847 1184 93 196 88 185 128 287 17 44 35 87 39 95 5 9 12
31 16 50 4 19 10 40 14 45 4 6 16 37 26 70 10 33 21 69 26 80 4 11 12 40 18
65 5 25 15 63 21 85 59 205 110 485 130 710 15 163 13 754 -1 772 -18 21 -30
-4 -16 -34 8 -19 8 -26 -3 -33 -12 -7 -12 -15 -2 -43 15 -41 15 -50 1 -42 -7
5 -10 -14 -9 -56 2 -161 -2 -241 -15 -310 -9 -41 -26 -137 -40 -214 -13 -77
-36 -185 -51 -240 -14 -55 -28 -111 -31 -125 -3 -14 -11 -39 -18 -55 -8 -17
-16 -49 -19 -70 -2 -22 -5 -44 -6 -50 -1 -5 -6 -1 -11 10 -7 16 -8 13 -5 -12
3 -18 1 -35 -4 -38 -4 -3 -11 -18 -15 -35 -3 -16 -15 -46 -25 -67 -9 -21 -21
-52 -24 -70 -4 -17 -18 -43 -32 -58 -19 -21 -24 -37 -24 -81 0 -35 -4 -53 -10
-49 -6 3 -13 -2 -16 -12 -9 -29 -13 -36 -38 -78 -13 -22 -21 -46 -18 -54 3 -9
1 -12 -6 -7 -8 5 -12 0 -12 -12 0 -10 -9 -27 -20 -37 -11 -10 -20 -31 -20 -46
0 -18 -7 -32 -20 -39 -11 -6 -19 -19 -18 -28 2 -10 -3 -16 -11 -14 -8 2 -11
-3 -8 -11 3 -7 -8 -33 -24 -57 -16 -24 -29 -52 -29 -62 0 -11 -4 -17 -9 -14
-8 6 -23 -17 -25 -39 -3 -23 -47 -95 -56 -90 -5 3 -1 20 10 38 10 18 35 73 56
122 21 50 42 92 46 93 4 2 8 8 8 14 0 5 20 60 44 121 111 284 195 593 240 882
39 255 41 293 41 630 0 391 -16 558 -85 890 -42 202 -152 553 -219 700 -5 11
-20 45 -32 75 -80 192 -277 538 -416 732 -240 333 -562 664 -880 904 -240 181
-561 368 -831 484 -38 17 -54 29 -59 48 -8 35 11 685 22 701 6 11 10 10 17 -3
5 -9 13 -14 19 -11 5 4 12 -1 15 -9 3 -9 10 -14 14 -11 8 5 86 -30 110 -50 29
-24 58 -24 64 -1 3 11 5 174 3 361 -2 327 -3 342 -24 380 -29 55 -79 100 -136
124 -48 21 -64 21 -730 21 -680 -1 -682 -1 -727 -23z m1158 -867 c-2 -326 -6
-432 -15 -442 -10 -9 -13 -6 -13 20 0 20 -5 31 -12 29 -16 -3 -24 67 -28 233
-1 69 -5 213 -9 320 l-6 195 -378 3 c-207 2 -388 2 -400 -2 -16 -4 -36 -30
-67 -91 -25 -47 -48 -85 -52 -85 -3 0 -9 -13 -13 -30 -4 -16 -10 -32 -15 -35
-5 -3 -4 11 1 30 6 20 8 42 5 48 -2 7 -5 4 -5 -5 -1 -15 -21 -28 -21 -14 0 4
28 71 89 209 l20 47 461 0 462 0 -4 -430z m-190 269 c22 -8 33 -19 37 -41 13
-57 -13 -1842 -31 -2155 -6 -95 -10 -113 -23 -113 -9 0 -22 9 -29 21 -7 11
-29 27 -48 35 -19 8 -37 21 -40 29 -4 8 -28 27 -55 42 -27 14 -49 29 -49 33 0
4 -9 10 -21 13 -11 3 -23 15 -26 26 -3 14 -15 21 -37 23 -18 2 -31 9 -31 17 0
16 -29 29 -67 30 -17 1 -29 8 -33 21 -4 12 -16 20 -28 21 -12 0 -16 3 -9 6 15
6 16 23 1 23 -6 0 -22 9 -36 20 -14 11 -34 20 -44 20 -10 0 -23 9 -29 20 -6
11 -19 20 -29 20 -10 0 -35 13 -55 29 -37 29 -51 35 -148 62 -27 7 -48 18 -48
24 0 11 -62 38 -77 33 -4 -2 -25 14 -45 35 -21 21 -38 33 -38 27 0 -12 -40
-13 -60 0 -8 5 -19 5 -25 0 -7 -6 -29 0 -60 15 -27 14 -54 25 -61 25 -7 0 -25
5 -39 10 -21 8 -25 13 -16 24 13 15 5 26 -21 26 -19 0 -25 28 -10 45 5 6 19
37 32 70 13 33 41 97 62 143 21 46 38 87 38 93 0 5 4 17 10 27 20 36 94 200
120 267 27 68 121 276 201 442 21 46 39 86 39 89 0 4 31 72 69 153 37 80 75
162 84 182 21 47 45 67 87 72 81 9 558 7 588 -4z m-1003 -520 c-3 -34 -9 -67
-14 -73 -10 -13 -54 -125 -71 -181 -6 -22 -18 -54 -26 -72 -20 -44 -17 -52 8
-23 l21 25 -8 -25 c-4 -14 -21 -54 -37 -90 -16 -36 -36 -78 -43 -95 -23 -53
-152 -332 -230 -500 -18 -38 -42 -90 -53 -115 -11 -25 -50 -107 -86 -184 -36
-76 -66 -139 -66 -141 0 -1 -36 -78 -81 -171 -44 -92 -92 -193 -106 -223 -75
-162 -354 -723 -358 -719 -3 2 0 21 6 42 6 21 8 40 6 43 -6 5 -250 -479 -346
-687 -40 -85 -79 -169 -88 -185 -17 -33 -14 -72 5 -68 7 2 12 -4 12 -12 0 -8
-4 -15 -9 -15 -5 0 -11 -13 -14 -28 -6 -29 -71 -185 -132 -318 -19 -42 -35
-77 -35 -79 0 -3 -24 -55 -54 -117 -29 -62 -74 -160 -101 -218 -26 -58 -52
-114 -58 -125 -6 -11 -29 -56 -50 -100 -187 -384 -239 -480 -259 -480 -32 0
-55 -36 -153 -240 -115 -236 -169 -357 -302 -668 -16 -37 -10 -65 7 -37 33 52
-11 -69 -85 -235 -48 -109 -53 -119 -93 -205 -22 -47 -68 -146 -102 -220 -67
-145 -116 -248 -310 -655 -26 -55 -71 -149 -100 -210 -29 -60 -99 -207 -156
-324 -58 -118 -102 -221 -99 -228 4 -12 85 -13 472 -7 258 3 472 8 476 11 5 3
21 33 37 67 33 73 120 253 265 551 59 121 125 258 147 305 90 190 489 989 522
1044 20 32 36 62 36 66 0 4 6 13 14 19 11 10 15 9 18 -4 3 -15 54 73 155 263
24 45 54 101 67 125 l24 42 74 -2 c40 -1 102 -5 138 -9 55 -6 60 -9 35 -15
-22 -5 -12 -7 38 -8 45 -1 66 -5 62 -11 -4 -6 -14 -10 -23 -9 -10 1 -79 1
-155 0 -133 -1 -138 -2 -146 -23 -5 -13 -45 -99 -90 -192 -45 -93 -81 -170
-81 -172 0 -1 -61 -127 -135 -280 -74 -152 -135 -277 -135 -279 0 -1 -74 -153
-164 -336 -317 -648 -548 -1103 -565 -1114 -5 -2 -6 8 -4 23 3 19 2 23 -5 14
-5 -8 -12 -13 -16 -12 -10 2 -40 -39 -57 -78 l-14 -32 -537 0 c-296 0 -538 2
-538 5 0 3 9 24 19 48 11 23 63 141 116 262 53 121 103 234 110 250 29 64 53
135 45 135 -5 0 -12 -5 -16 -11 -5 -8 -10 -7 -16 4 -12 22 22 99 307 712 18
39 59 124 90 190 31 66 74 156 95 200 21 44 68 143 105 220 37 77 96 199 130
270 154 320 200 414 309 635 64 129 121 237 127 241 7 4 9 11 6 15 -3 5 2 18
10 29 15 20 15 20 11 0 -3 -11 1 -26 9 -33 7 -7 13 -10 13 -7 0 15 3 21 15 35
7 8 45 80 83 160 38 80 102 213 142 295 40 83 84 175 97 205 60 130 84 181
133 285 90 190 126 269 137 300 6 17 15 39 19 50 11 30 12 55 3 61 -5 3 -9 -1
-9 -8 0 -13 -39 -69 -40 -56 0 7 52 130 95 223 15 33 47 103 70 156 59 129
116 253 210 454 23 50 54 115 68 145 13 30 46 100 72 155 26 55 63 134 82 175
19 41 51 109 70 150 20 41 53 111 73 155 21 44 62 132 93 195 78 164 330 695
389 820 198 417 461 950 470 950 4 0 5 -28 3 -61z m-753 -527 c17 -16 17 -21
3 -77 -18 -68 -68 -180 -93 -209 -22 -24 -81 -49 -157 -66 -85 -18 -303 -86
-390 -120 -164 -64 -229 -92 -335 -142 -116 -55 -215 -108 -279 -150 -14 -10
-39 -25 -56 -34 -16 -9 -32 -20 -35 -23 -3 -4 -36 -26 -75 -50 -38 -24 -87
-59 -108 -77 -20 -19 -40 -34 -45 -34 -4 0 -25 -16 -47 -36 -69 -61 -78 -69
-150 -126 -38 -30 -110 -99 -160 -154 -49 -54 -102 -111 -117 -127 -15 -15
-45 -49 -65 -75 -21 -26 -41 -49 -44 -52 -11 -10 -177 -236 -196 -267 -46 -80
-108 -178 -114 -183 -3 -3 -26 -43 -51 -90 -24 -47 -50 -94 -56 -105 -20 -36
-72 -155 -72 -164 0 -5 -7 -14 -15 -21 -8 -7 -15 -23 -15 -36 0 -13 -7 -27
-17 -32 -9 -5 -26 -36 -38 -68 -15 -40 -27 -58 -37 -56 -14 2 -55 -66 -72
-120 -3 -10 -15 -18 -27 -18 -19 0 -21 -4 -15 -37 5 -28 4 -34 -3 -23 -9 13
-11 13 -11 -3 0 -9 -11 -27 -25 -39 -14 -12 -25 -27 -25 -34 0 -17 -36 -101
-52 -120 -7 -8 -21 -24 -31 -35 -9 -10 -13 -19 -7 -19 13 0 13 -77 0 -82 -5
-1 -13 -25 -16 -53 -4 -27 -13 -55 -21 -62 -8 -6 -18 -42 -24 -83 -5 -39 -15
-94 -24 -122 -8 -29 -15 -76 -15 -105 0 -29 -3 -53 -7 -53 -10 0 -10 191 0
206 4 7 6 23 6 35 -4 92 33 373 73 559 25 115 91 364 108 405 17 40 26 63 41
105 6 19 23 60 37 90 13 30 33 78 44 105 50 128 205 406 318 571 151 221 391
500 545 634 22 19 76 67 121 106 434 379 981 641 1594 764 156 31 223 32 252
2z m1922 -106 c10 4 14 -30 19 -147 9 -187 9 -4149 1 -4149 -5 0 -129 120
-517 500 -81 80 -237 233 -347 340 l-200 195 -6 855 c-3 470 -7 856 -9 858 -1
2 -9 -14 -18 -35 -16 -40 -64 -143 -178 -382 -38 -79 -69 -145 -69 -147 0 -1
-45 -95 -100 -209 -55 -114 -100 -208 -100 -210 0 -3 -59 -127 -214 -450 -146
-303 -240 -487 -244 -476 -8 24 -22 9 -16 -16 7 -26 6 -27 -9 -11 -16 16 -16
21 6 80 14 35 34 81 46 103 11 22 21 43 21 47 0 4 11 31 24 60 31 67 136 306
146 333 4 11 17 41 28 65 21 48 42 107 42 121 0 5 -7 6 -15 2 -14 -5 -14 -2
-3 23 7 16 15 31 18 34 4 3 17 34 29 70 13 36 41 101 61 145 21 44 60 130 88
190 28 61 75 163 106 229 31 65 56 119 56 121 0 2 32 70 71 152 39 81 89 189
112 238 81 175 162 329 179 339 11 7 24 6 41 -1 l24 -11 7 -689 c3 -378 4
-840 2 -1026 l-5 -338 407 -403 c224 -223 408 -404 408 -403 2 2 13 2176 15
2882 0 292 5 519 9 505 4 -14 9 -41 10 -60 l2 -35 9 44 c4 24 13 183 19 353 9
280 16 356 27 321 3 -7 10 -10 17 -7z m379 -65 c511 -246 961 -616 1318 -1081
76 -99 204 -292 244 -368 15 -29 31 -55 36 -58 5 -3 9 -14 9 -25 0 -18 -1 -18
-17 -1 -10 9 -45 58 -78 107 -168 254 -379 506 -602 719 -276 263 -605 496
-941 665 -54 27 -63 29 -69 15 -11 -29 6 -217 23 -241 11 -17 17 -65 21 -175
l6 -151 61 -38 c239 -149 426 -298 622 -493 184 -185 315 -338 382 -450 261
-432 348 -618 450 -961 79 -262 116 -484 132 -783 13 -231 -6 -570 -40 -737
-6 -27 -16 -75 -22 -105 -138 -688 -500 -1321 -1033 -1811 -269 -247 -663
-496 -980 -619 -44 -17 -89 -35 -100 -39 -62 -28 -316 -106 -405 -124 -14 -3
-61 -13 -105 -22 -171 -35 -347 -55 -545 -61 -202 -6 -479 6 -578 26 -26 5
-90 17 -142 26 -140 24 -346 79 -500 134 -167 58 -191 68 -363 153 -76 37
-142 67 -146 67 -4 0 -26 -35 -48 -77 -73 -140 -88 -163 -102 -163 -16 0 -51
-28 -51 -41 0 -5 -14 -30 -30 -56 -17 -26 -30 -54 -30 -63 0 -20 249 -143 440
-218 117 -46 293 -106 385 -132 249 -69 437 -106 695 -135 154 -18 519 -22
744 -10 110 7 120 6 106 -9 -8 -8 -33 -18 -55 -21 -22 -3 -80 -10 -130 -17
-119 -16 -563 -15 -690 1 -317 39 -491 76 -755 158 -113 35 -331 116 -420 155
-89 39 -345 169 -368 186 -22 17 -23 19 -7 48 8 16 71 145 140 287 68 141 127
257 130 257 4 0 19 -8 33 -19 49 -34 242 -130 375 -185 437 -181 931 -269
1415 -252 103 3 203 5 222 5 115 -5 207 1 295 19 233 49 416 107 606 193 109
49 196 99 172 99 -7 0 -15 -5 -18 -10 -3 -6 -14 -10 -23 -9 -14 0 -14 2 -2 6
8 3 18 11 22 17 4 6 11 11 15 11 24 0 408 253 527 347 168 132 424 380 516
498 10 14 46 60 80 103 33 42 94 128 134 190 131 200 207 341 304 567 24 55
84 225 106 300 9 30 21 69 26 85 11 36 50 206 57 253 3 18 1 32 -5 32 -5 0
-12 -15 -15 -32 -9 -55 -27 -132 -36 -158 -5 -14 -16 -52 -26 -85 -33 -120
-58 -201 -70 -230 -8 -16 -25 -57 -40 -90 -15 -33 -34 -76 -42 -95 -102 -229
-284 -529 -442 -728 -141 -177 -378 -423 -516 -536 -262 -215 -612 -425 -870
-522 -49 -19 -99 -38 -110 -43 -69 -32 -220 -74 -370 -106 -44 -9 -96 -21
-115 -26 -19 -4 -66 -11 -105 -15 -38 -4 -81 -9 -95 -11 -72 -11 -512 -14
-570 -4 -36 5 -123 17 -195 26 -71 9 -150 22 -175 29 -25 8 -63 18 -85 24
-100 26 -349 109 -435 144 -140 57 -500 239 -500 253 0 7 6 25 14 41 29 60 78
170 126 283 46 109 155 355 232 521 20 41 47 100 61 130 88 191 140 296 150
302 7 4 281 8 609 8 l598 0 2 -432 3 -433 701 -1 c386 -1 707 1 713 5 9 6 10
185 3 767 -5 417 -10 1256 -11 1864 0 608 -4 1417 -7 1798 -7 681 -7 692 13
692 10 0 23 -4 29 -9 5 -5 50 -30 99 -56 50 -26 109 -60 133 -76 24 -16 45
-29 48 -29 17 0 -80 68 -248 174 l-58 36 0 355 c0 311 2 355 15 355 9 0 70
-27 138 -59z m169 -303 c34 -17 82 -44 105 -60 23 -15 46 -28 52 -28 6 0 11
-4 11 -8 0 -5 12 -15 28 -23 24 -12 59 -37 99 -69 7 -6 16 -10 20 -10 4 -1 31
-20 59 -43 28 -23 80 -66 115 -95 35 -29 82 -68 104 -85 47 -38 227 -220 305
-309 314 -356 527 -718 723 -1228 66 -170 157 -563 178 -765 5 -55 14 -133 19
-173 13 -96 13 -482 0 -591 -6 -47 -14 -122 -19 -166 -16 -144 -61 -367 -107
-530 -25 -88 -49 -169 -54 -180 -4 -11 -11 -29 -14 -40 -9 -36 -36 -109 -60
-160 -13 -27 -31 -72 -41 -100 -10 -27 -22 -54 -27 -60 -4 -5 -8 -15 -8 -22 0
-6 -13 -35 -30 -63 -16 -28 -30 -55 -30 -61 0 -6 -13 -30 -30 -54 -16 -24 -30
-47 -30 -51 0 -18 -184 -302 -264 -409 -148 -195 -370 -438 -491 -534 -38 -30
-79 -65 -90 -76 -24 -25 -138 -113 -180 -139 -16 -11 -34 -25 -38 -33 -4 -7
-14 -13 -21 -13 -7 0 -26 -11 -42 -25 -16 -14 -39 -28 -51 -31 -13 -4 -23 -13
-23 -21 0 -9 -6 -13 -15 -10 -8 4 -17 2 -20 -3 -3 -6 -16 -15 -27 -21 -18 -10
-20 -9 -15 5 8 19 -13 22 -32 4 -11 -10 -10 -8 0 10 9 14 23 22 41 22 24 0 28
4 28 30 0 24 7 32 35 46 21 10 42 30 50 48 33 72 81 134 106 138 15 2 27 17
38 44 21 54 39 74 59 67 14 -5 15 -3 5 8 -19 19 -16 37 7 44 11 3 27 22 36 41
9 18 20 32 24 29 5 -3 6 3 3 13 -3 13 8 30 34 52 21 19 31 31 22 28 -28 -11 6
47 36 60 17 8 24 18 22 34 -1 15 5 26 20 33 13 5 22 14 22 20 -3 24 2 35 15
35 8 0 17 9 21 20 3 11 21 35 38 54 48 52 57 64 57 76 0 5 5 10 10 10 6 0 10
7 10 15 0 9 7 18 15 21 8 4 15 11 15 17 0 5 11 24 24 41 13 17 23 33 23 36 0
3 11 18 26 34 15 16 27 34 27 41 0 7 9 22 20 35 11 13 20 27 20 32 0 9 40 69
52 78 6 5 27 44 119 225 17 33 37 72 45 88 9 15 12 27 9 27 -3 0 3 17 13 37
11 21 30 67 43 103 12 36 25 67 29 70 11 10 90 268 124 405 19 77 42 187 51
245 8 58 20 132 26 165 17 99 23 544 10 694 -19 213 -46 381 -92 566 -22 89
-117 394 -128 410 -4 6 -16 33 -26 60 -10 28 -40 96 -66 151 -27 56 -49 106
-49 112 0 6 -3 12 -7 14 -5 2 -24 36 -43 75 -19 40 -38 73 -42 73 -5 0 -8 5
-8 11 0 15 -122 217 -150 249 -12 14 -36 45 -53 70 -17 25 -48 66 -69 91 -21
25 -38 51 -38 58 0 7 -4 10 -9 7 -12 -8 -34 21 -26 33 4 7 0 8 -11 4 -13 -5
-15 -2 -9 18 4 15 3 19 -3 11 -7 -11 -11 -11 -20 0 -5 7 -10 17 -10 21 0 14
-69 87 -76 80 -3 -4 -6 1 -6 10 0 9 -4 17 -8 17 -5 0 -39 35 -77 78 -37 42
-73 79 -79 81 -6 2 -21 13 -33 25 -12 12 -43 39 -68 61 -26 22 -60 54 -77 72
-17 18 -35 30 -40 27 -4 -3 -8 2 -8 11 0 9 -5 21 -10 28 -6 7 -19 23 -30 35
-10 13 -23 21 -29 18 -5 -3 -7 4 -5 16 2 13 2 17 -2 11 -3 -7 -13 -13 -21 -13
-9 0 -14 3 -10 6 3 3 1 19 -5 36 -9 25 -14 29 -34 24 -25 -7 -34 8 -11 18 8 4
5 10 -10 22 -13 9 -23 22 -23 29 0 17 -25 26 -47 18 -12 -5 -15 -2 -10 10 3 8
0 21 -8 27 -16 13 -30 104 -19 122 5 7 9 16 10 21 1 4 2 9 3 12 3 13 45 2 103
-27z m-2677 -1558 c15 -13 19 -12 29 3 8 10 16 13 22 7 6 -6 40 -12 78 -14 37
-3 73 -9 79 -14 7 -5 37 -12 68 -14 38 -3 63 -11 78 -25 13 -12 43 -24 67 -28
24 -3 56 -13 72 -21 15 -7 42 -17 60 -20 19 -4 36 -12 38 -18 7 -18 -53 -193
-111 -326 -20 -47 -45 -106 -55 -131 -11 -25 -38 -86 -61 -135 -23 -49 -50
-109 -59 -134 -9 -25 -45 -106 -80 -180 -34 -74 -71 -155 -82 -180 -11 -25
-32 -70 -46 -100 -14 -30 -44 -98 -67 -150 -60 -134 -177 -385 -209 -447 -33
-66 -34 -116 -3 -147 23 -23 28 -24 298 -30 695 -15 1034 -17 1066 -6 39 14
63 61 63 124 0 58 28 93 61 76 17 -10 245 -233 287 -282 8 -9 11 -22 6 -29 -5
-9 -2 -10 9 -6 19 7 28 -4 44 -58 6 -22 11 -32 12 -22 1 9 6 17 11 17 16 0 12
-50 -5 -67 -19 -19 -14 -39 9 -35 9 2 16 -2 16 -8 0 -5 -6 -10 -14 -10 -9 0
-18 -20 -24 -57 -10 -52 -9 -61 9 -86 20 -27 18 -47 -4 -47 -7 0 -6 4 3 10 13
8 12 10 -3 10 -12 0 -17 -6 -16 -17 4 -33 -14 -78 -43 -106 -15 -16 -28 -35
-28 -42 0 -9 -6 -12 -15 -9 -8 4 -15 2 -15 -3 0 -11 -44 -62 -147 -169 -55
-58 -77 -75 -95 -72 -20 3 -24 11 -30 60 -9 70 -29 104 -72 118 -22 7 -162 7
-466 0 -239 -5 -610 -10 -825 -10 -371 0 -392 -1 -423 -20 -26 -16 -49 -54
-120 -197 -153 -311 -388 -762 -401 -773 -3 -3 -12 -18 -20 -35 -7 -16 -17
-37 -22 -45 -5 -8 -19 -35 -31 -60 -12 -25 -28 -49 -35 -55 -7 -5 -24 -28 -38
-50 -23 -38 -24 -39 -25 -13 0 33 -20 49 -20 16 0 -30 -15 -54 -24 -39 -4 6
-2 11 3 11 6 0 11 5 11 10 0 6 -9 10 -19 10 -10 0 -21 7 -25 15 -3 8 -15 15
-27 15 -34 0 -89 22 -89 36 0 7 -8 10 -20 7 -12 -3 -28 1 -38 9 -9 8 -43 27
-74 42 -31 15 -59 34 -62 41 -5 14 -89 55 -112 55 -7 0 -14 10 -16 23 -2 12
-13 26 -25 32 -13 5 -23 17 -23 27 0 24 -21 34 -32 14 -12 -21 -34 -21 -42 1
-4 10 -1 20 9 26 13 7 14 11 4 24 -8 9 -9 17 -3 21 5 4 20 36 33 72 55 153 64
175 72 178 5 2 9 11 9 21 0 9 4 21 8 26 5 6 21 42 37 80 15 39 48 113 72 165
25 52 57 127 73 165 28 69 54 126 191 416 38 81 69 149 69 153 0 4 29 68 65
142 36 74 65 137 65 140 0 2 29 65 65 139 36 75 65 138 65 141 0 2 39 84 86
182 48 97 113 231 145 297 194 405 328 677 428 875 63 124 137 270 164 325 28
55 59 108 70 117 10 9 17 18 16 20 -1 2 4 13 11 24 15 25 57 27 85 4z m1310
-702 c5 -41 9 -49 15 -33 7 17 9 17 9 3 1 -10 15 -33 31 -52 17 -19 30 -38 29
-43 -5 -26 2 -63 11 -58 6 3 14 -5 19 -18 5 -13 19 -27 31 -30 12 -3 19 -10
16 -16 -4 -5 -2 -12 3 -15 4 -3 11 -28 15 -56 8 -62 25 -100 43 -100 7 0 14
-4 14 -10 1 -5 2 -14 3 -19 0 -5 4 -13 9 -17 4 -4 7 -24 7 -44 0 -47 18 -100
42 -123 10 -10 16 -23 12 -28 -6 -10 19 -95 38 -132 7 -14 5 -24 -8 -38 -16
-18 -16 -20 0 -38 19 -21 14 -41 -10 -41 -9 0 -40 24 -71 53 -30 28 -59 54
-65 56 -22 8 -219 205 -233 234 -24 47 -17 375 11 584 8 55 19 47 29 -19z
m-93 -875 c58 -60 244 -246 414 -415 170 -169 345 -343 389 -387 l79 -81 -49
-51 c-48 -49 -96 -84 -81 -60 4 6 2 11 -4 11 -6 0 -8 5 -4 11 4 8 0 8 -15 0
-21 -12 -27 -26 -13 -34 4 -2 1 -2 -6 0 -8 1 -39 -21 -70 -49 -115 -107 -510
-489 -591 -572 -47 -47 -88 -83 -93 -80 -4 3 -8 88 -8 190 l0 184 -347 1
c-372 0 -564 5 -680 15 -66 5 -71 7 -57 22 20 19 289 30 778 31 293 1 331 -1
348 -16 16 -14 18 -33 18 -155 0 -76 3 -138 7 -138 4 0 57 51 118 113 60 63
217 217 348 344 l238 230 -128 124 c-70 68 -231 226 -358 352 l-230 228 -6
-153 c-3 -84 -7 -154 -7 -154 -13 -12 -79 -15 -302 -14 -312 1 -370 5 -370 30
0 15 17 18 143 23 78 4 187 7 242 8 93 1 97 2 55 12 -25 6 -47 14 -50 18 -3 4
-21 9 -40 12 -19 2 18 5 82 5 68 1 119 6 123 12 7 11 7 339 0 434 -3 40 0 56
8 56 7 0 60 -48 119 -107z m-4071 -746 l2 -42 7 35 7 35 2 -42 c0 -24 -4 -44
-11 -47 -10 -5 -10 -7 0 -12 6 -3 12 -14 12 -24 0 -10 7 -31 15 -46 8 -16 15
-38 16 -49 0 -11 3 -14 6 -7 9 22 21 13 28 -20 11 -53 39 -106 58 -111 10 -3
17 -15 17 -30 0 -13 7 -30 15 -37 9 -7 13 -20 10 -28 -3 -9 7 -31 23 -51 16
-20 39 -55 52 -79 18 -32 28 -41 42 -36 14 4 20 -1 24 -26 4 -17 16 -36 28
-42 29 -14 55 -49 56 -73 0 -17 2 -17 10 -5 8 12 10 10 10 -11 0 -32 9 -42 27
-28 10 9 13 7 13 -9 0 -11 6 -27 13 -34 35 -35 67 -100 67 -135 0 -65 -45
-180 -90 -230 -20 -23 -55 -15 -80 20 -36 48 -110 188 -110 208 0 9 -7 22 -15
29 -8 7 -15 20 -15 29 0 9 -6 25 -14 36 -41 59 -140 346 -193 560 -44 176 -68
365 -44 351 6 -4 12 -26 12 -49z m4950 -518 c-2 -79 -4 -157 -6 -174 -2 -16
-5 -171 -6 -343 -2 -276 -4 -314 -18 -321 -9 -5 -126 -10 -260 -10 -135 -1
-248 -4 -251 -6 -4 -3 -89 -5 -189 -5 -99 -1 -183 -6 -186 -11 -4 -5 12 -9 34
-9 48 0 56 -20 9 -21 -18 0 -52 -2 -75 -5 l-43 -5 1 48 c1 29 4 37 6 21 2 -16
8 -28 13 -28 4 0 6 10 3 23 -4 15 -2 19 5 12 6 -5 12 -21 15 -35 2 -14 5 5 6
42 l1 66 118 113 c64 63 272 268 462 456 190 189 349 342 354 340 6 -2 9 -62
7 -148z m2034 -711 c-17 -78 -185 -340 -355 -552 -247 -310 -590 -613 -950
-838 -207 -129 -583 -308 -648 -308 -28 0 -38 18 -15 27 26 9 392 189 428 210
384 227 593 383 849 633 257 251 476 522 661 818 13 21 29 41 33 42 2 0 0 -15
-3 -32z m-4839 -1132 c32 -13 88 -36 124 -51 125 -53 266 -102 395 -139 72
-20 153 -43 180 -51 84 -24 209 -46 485 -86 195 -28 707 -11 925 31 28 5 86
16 130 24 98 18 153 30 225 50 30 9 96 25 145 37 50 11 102 27 116 35 23 12
28 12 33 -1 6 -18 -105 -135 -128 -135 -9 0 -16 -7 -16 -15 0 -9 -7 -18 -15
-21 -8 -4 -15 -12 -15 -19 0 -8 -10 -17 -22 -21 -28 -9 -68 -45 -68 -61 0 -7
-9 -13 -21 -13 -11 0 -34 -13 -50 -30 -30 -29 -108 -70 -136 -70 -8 0 -12 -4
-9 -9 3 -5 -4 -11 -17 -14 -12 -2 -49 -12 -82 -22 -208 -60 -401 -84 -725 -91
-223 -5 -303 -3 -425 10 -393 45 -844 170 -1168 326 -155 74 -161 97 -71 258
20 35 45 73 55 83 26 26 82 24 155 -5z m-1746 -436 c4 0 10 -9 13 -19 3 -14
11 -18 26 -14 12 3 28 -1 37 -8 9 -7 23 -14 32 -15 8 -2 18 -7 22 -13 3 -6 19
-12 34 -13 16 -2 31 -8 33 -15 3 -7 19 -14 37 -14 19 -1 23 -3 11 -6 -70 -14
-72 -16 -30 -24 22 -4 56 -8 76 -8 28 -1 38 -6 42 -21 4 -16 14 -20 43 -20 67
0 30 -9 -57 -14 -358 -19 -418 -20 -438 -2 -12 11 -17 25 -14 34 11 31 44 97
63 127 11 17 23 36 26 43 4 7 13 11 21 8 8 -3 18 -6 23 -6z m-476 -52 c2 -18
5 -46 4 -63 0 -16 4 -43 8 -60 7 -27 6 -29 -9 -16 -15 11 -17 11 -17 -2 0 -9
5 -19 10 -22 6 -4 8 -15 5 -26 -9 -28 9 -23 25 6 7 14 15 23 18 21 2 -3 -5
-20 -15 -38 -30 -50 -49 -126 -34 -141 16 -16 14 -27 -8 -27 -14 0 -18 -5 -14
-20 3 -11 10 -20 15 -20 5 0 7 -9 3 -19 -3 -11 -2 -22 4 -25 15 -10 5 -41 -13
-38 -9 2 -16 -2 -16 -8 0 -5 12 -10 28 -10 20 -1 23 -3 12 -9 -25 -15 -290
-25 -290 -12 0 11 34 83 211 448 30 62 57 113 61 113 4 0 9 -15 12 -32z"/>
<path d="M5258 2765 c-218 -217 -394 -396 -390 -397 4 -2 185 -3 402 -3 l395
0 3 389 c1 215 -1 393 -5 397 -5 4 -187 -170 -405 -386z"/>
<path d="M2196 6844 c-9 -8 -13 -20 -10 -26 4 -7 2 -8 -5 -4 -23 15 -178 -142
-350 -354 -18 -23 -30 -44 -27 -47 3 -4 -3 -13 -15 -21 -14 -9 -17 -18 -11
-24 14 -14 55 29 48 48 -3 8 -2 13 3 10 5 -3 31 20 57 52 27 31 100 110 164
176 63 65 114 123 112 128 -1 5 1 7 6 4 13 -8 49 35 49 57 0 21 -2 21 -21 1z"/>
</g>
</svg>
