<svg class="technology__svg photoshop" version="1.0" xmlns="http://www.w3.org/2000/svg"
 width="50" height="50" viewBox="0 0 319.000000 320.000000"
 preserveAspectRatio="xMidYMid meet">
<title>PHOTOSHOP</title>
<g transform="translate(0.000000,320.000000) scale(0.100000,-0.100000)"
fill="" stroke="none">
<path d="M1396 3075 c-209 -30 -430 -116 -608 -236 -120 -82 -296 -257 -375
-374 -111 -166 -188 -346 -230 -545 -27 -129 -25 -419 5 -557 110 -510 474
-920 958 -1078 167 -55 257 -69 454 -69 189 -1 290 15 458 71 490 162 868 606
956 1122 32 189 18 456 -35 636 -130 450 -481 818 -918 967 -204 69 -458 93
-665 63z m-110 -730 c166 -29 269 -97 327 -214 31 -63 32 -71 32 -181 -1 -151
-22 -209 -109 -296 -108 -107 -229 -147 -432 -142 l-124 3 0 -277 0 -278 -90
0 -90 0 0 685 0 684 33 6 c130 25 341 29 453 10z m920 -376 c32 -6 80 -20 106
-31 l46 -20 -20 -61 c-12 -34 -22 -63 -23 -65 -2 -2 -21 6 -43 17 -56 29 -163
44 -212 31 -85 -23 -133 -97 -111 -171 15 -50 52 -77 176 -129 210 -89 273
-167 263 -324 -11 -165 -127 -261 -330 -273 -133 -9 -309 35 -307 76 1 28 36
116 45 114 5 -1 37 -14 71 -28 182 -75 353 -20 353 113 0 81 -45 131 -161 178
-210 86 -283 161 -282 294 0 76 19 124 70 181 79 88 214 125 359 98z"/>
<path d="M1018 2213 l-38 -4 0 -274 0 -275 25 -6 c14 -3 76 -4 137 -2 95 3
122 8 168 29 110 51 163 133 164 254 1 94 -23 153 -80 204 -25 22 -66 47 -92
56 -47 17 -212 27 -284 18z"/>
</g>
</svg>
