<svg version="1.0" xmlns="http://www.w3.org/2000/svg"
 width="50" height="50" viewBox="0 0 310.000000 310.000000"
 preserveAspectRatio="xMidYMid meet">
<g transform="translate(0.000000,310.000000) scale(0.100000,-0.100000)"
fill="" stroke="none">
<title>SCSS/SASS</title>
<path d="M1295 2583 c-100 -12 -273 -63 -380 -112 -182 -83 -281 -138 -277
-152 1 -6 -2 -8 -8 -4 -20 12 -245 -159 -233 -178 3 -6 2 -7 -4 -4 -18 11
-132 -122 -173 -203 -32 -63 -60 -148 -60 -184 0 -73 102 -258 132 -240 5 3 7
2 6 -3 -2 -4 4 -17 12 -28 21 -28 230 -195 244 -195 4 0 39 -24 80 -54 58 -44
76 -52 87 -43 11 10 11 9 0 -5 -7 -9 -10 -22 -6 -27 3 -7 0 -8 -9 -5 -9 4 -51
-14 -98 -42 -101 -58 -129 -79 -120 -88 3 -4 -1 -4 -9 -1 -11 4 -43 -19 -98
-71 -44 -42 -81 -81 -81 -86 0 -6 21 10 46 36 26 25 52 46 58 46 6 0 5 -4 -3
-9 -8 -5 -9 -11 -3 -15 6 -3 13 -2 17 4 3 5 11 10 17 10 7 0 6 -5 -2 -15 -7
-8 -10 -26 -8 -40 3 -14 1 -25 -3 -25 -5 0 -9 9 -9 19 0 11 -5 23 -12 27 -8 5
-9 2 -5 -9 3 -9 1 -19 -5 -23 -7 -4 -8 -3 -4 4 4 7 2 12 -5 12 -8 0 -8 4 1 15
7 9 11 18 8 21 -10 9 -80 -78 -74 -92 3 -9 1 -12 -5 -9 -10 7 -5 -27 13 -74
11 -30 0 -70 -13 -50 -7 9 -8 0 -4 -26 l5 -40 -14 40 c-10 28 -14 33 -15 18
-1 -12 3 -33 9 -47 5 -14 6 -26 1 -26 -5 0 -12 17 -15 38 -4 20 -9 46 -12 57
-3 11 -2 16 3 10 9 -11 53 -16 53 -6 0 3 -6 26 -14 51 -10 33 -15 40 -18 25
l-5 -20 2 20 c1 11 6 29 10 39 6 14 5 17 -3 12 -22 -13 -44 -114 -37 -166 8
-55 47 -123 81 -139 40 -18 117 -23 178 -12 233 43 397 271 367 511 -9 71 -31
126 -39 101 -3 -10 -9 -7 -18 10 -7 13 -13 18 -14 11 0 -24 21 -54 35 -48 9 3
12 0 8 -10 -5 -13 -7 -13 -22 0 -14 13 -20 13 -31 3 -11 -9 -11 -7 0 7 10 13
11 20 4 23 -6 2 -10 17 -8 34 2 16 0 28 -4 26 -4 -3 -15 6 -25 19 -10 13 -13
24 -8 24 6 0 14 -6 18 -13 10 -18 73 -48 73 -36 0 5 4 9 10 9 5 0 7 -7 4 -15
-4 -8 -12 -15 -20 -15 -8 0 -14 -5 -14 -11 0 -6 15 -2 33 9 82 50 139 82 147
82 5 0 12 5 16 12 4 6 3 8 -4 4 -6 -3 -13 -2 -16 3 -5 7 14 21 28 21 9 0 1
-38 -10 -50 -7 -9 -21 -47 -30 -85 -29 -124 -5 -262 57 -338 26 -31 36 -37 71
-37 54 0 82 31 139 154 24 53 50 96 57 96 10 0 10 -5 1 -22 -16 -29 -6 -128
16 -162 26 -39 66 -35 113 12 40 40 180 306 247 470 21 50 41 92 45 92 4 0 10
-19 14 -42 4 -24 23 -80 43 -126 30 -71 33 -85 22 -100 -8 -9 -45 -54 -83
-100 -38 -45 -67 -84 -65 -86 2 -2 13 -9 24 -15 l20 -13 -20 7 c-35 11 -38 11
-56 -21 -16 -27 -17 -33 -5 -50 11 -15 26 -19 68 -18 56 2 144 34 131 49 -5 4
-2 5 5 1 8 -5 29 3 52 19 33 23 38 32 35 56 -2 16 1 29 6 29 6 0 7 -9 4 -20
-9 -30 2 -24 20 10 21 40 21 150 0 150 -8 0 -15 -5 -15 -11 0 -5 -5 -7 -12 -3
-8 5 -5 11 10 17 25 11 27 20 11 46 -10 15 -5 28 28 77 58 86 123 198 123 212
0 28 -17 8 -43 -50 -22 -50 -30 -60 -38 -48 -8 12 -9 10 -4 -7 7 -26 -2 -46
-17 -37 -7 4 -6 9 2 14 7 4 9 13 5 19 -5 9 -11 7 -21 -6 -13 -16 -13 -15 -3 9
7 15 17 25 22 21 6 -4 8 0 4 11 -4 10 -3 15 3 11 6 -3 10 1 10 9 0 9 10 35 21
59 21 44 22 44 41 25 10 -10 23 -16 28 -13 5 3 12 -7 15 -22 16 -76 28 -112
37 -110 6 1 13 -4 15 -10 3 -7 0 -13 -6 -13 -7 0 -4 -15 8 -37 l19 -38 -60
-64 c-65 -70 -97 -131 -100 -193 -3 -75 51 -90 150 -42 71 35 147 110 157 153
8 38 -1 109 -16 131 -8 11 -9 7 -4 -15 12 -48 14 -91 5 -104 -4 -7 -7 11 -7
39 1 33 -4 54 -13 60 -7 4 -10 15 -7 23 7 18 94 47 139 47 15 0 28 4 28 8 0
13 171 -8 239 -30 129 -42 204 -153 171 -253 -12 -37 -56 -85 -77 -85 -7 0
-13 -4 -13 -10 0 -20 41 -6 81 28 21 18 26 38 7 26 -7 -4 -8 -3 -4 4 4 6 13 9
20 6 19 -7 41 52 40 106 -1 59 -31 131 -45 110 -8 -12 -9 -10 -4 7 4 16 -4 31
-37 63 -39 38 -106 80 -125 80 -4 0 1 -7 11 -15 11 -8 14 -15 8 -15 -7 0 -12
-4 -12 -10 0 -14 28 -12 32 2 3 9 6 9 11 1 4 -7 -5 -15 -23 -22 -23 -7 -29 -7
-24 1 5 8 2 9 -9 5 -10 -3 -17 -2 -17 2 0 5 7 11 15 15 31 12 -6 45 -65 57
-115 24 -334 -17 -343 -65 -3 -21 -4 -21 -11 -1 -5 11 -20 49 -34 84 -21 51
-26 78 -24 135 3 102 6 135 13 130 4 -2 9 5 12 16 10 38 -62 53 -127 26 -29
-12 -35 -22 -50 -77 -10 -35 -47 -118 -83 -184 -36 -66 -71 -130 -77 -142 -15
-32 -26 -25 -49 32 -24 63 -25 154 -2 224 13 40 14 56 6 64 -21 21 -151 10
-151 -13 0 -5 7 -6 17 -3 11 4 14 3 9 -5 -10 -17 3 -15 21 4 16 16 86 15 101
-1 4 -5 -1 -5 -10 -2 -10 4 -18 2 -18 -3 0 -6 -5 -10 -11 -10 -5 0 -7 5 -4 10
10 16 -31 11 -45 -5 -7 -8 -19 -15 -26 -15 -8 0 -14 -10 -15 -22 0 -22 -1 -22
-8 -3 -5 12 -4 23 3 27 7 5 5 8 -5 8 -10 0 -19 -11 -22 -30 -4 -16 -22 -64
-42 -105 -19 -42 -35 -78 -35 -80 0 -3 -16 -39 -35 -81 -19 -41 -35 -78 -35
-80 0 -3 -29 -66 -65 -140 -60 -123 -67 -134 -81 -119 -9 9 -19 13 -22 10 -4
-3 0 -10 8 -15 13 -8 12 -10 -2 -10 -11 0 -18 8 -18 20 0 13 7 20 20 20 16 0
20 7 20 38 0 20 3 48 6 62 5 21 4 22 -6 10 -10 -13 -11 -12 -6 3 3 10 6 23 6
28 0 6 4 8 8 5 5 -3 19 34 32 82 36 140 36 140 7 153 -14 6 -34 8 -44 5 -10
-4 -20 -7 -22 -7 -2 1 -5 31 -5 67 -1 56 -4 68 -25 85 -13 10 -36 19 -51 19
-37 0 -91 -20 -84 -31 3 -5 -1 -6 -9 -4 -14 6 -89 -55 -140 -112 -15 -18 -37
-35 -48 -38 -11 -4 -16 -11 -13 -17 4 -7 2 -8 -4 -4 -6 3 -51 -15 -99 -42 -48
-27 -97 -54 -109 -60 -18 -10 -27 -5 -67 33 -37 34 -48 40 -57 30 -8 -10 -7
-15 2 -19 7 -3 1 -3 -13 0 -16 3 -30 0 -38 -10 -15 -18 -1 -22 15 -6 6 6 18 8
27 4 29 -11 19 -21 -20 -20 -29 1 -37 5 -39 23 -3 17 0 21 13 16 11 -4 14 -3
9 5 -5 8 0 11 15 9 12 -1 24 4 27 12 3 10 0 12 -12 8 -10 -4 -14 -3 -11 3 6 9
-185 166 -197 162 -5 -1 -8 4 -8 11 0 8 -12 24 -27 38 -21 19 -25 20 -20 6 4
-11 3 -16 -4 -12 -5 4 -7 15 -4 24 3 10 -3 29 -13 42 -48 62 -54 154 -18 255
14 36 22 72 20 79 -3 7 -1 16 5 20 7 4 9 -1 5 -12 -4 -10 12 2 34 27 39 43 40
47 36 99 -3 38 -1 57 8 63 23 14 33 9 12 -7 -19 -14 -19 -15 5 -33 14 -12 20
-22 13 -26 -6 -3 -12 -1 -14 6 -3 9 -6 9 -12 0 -4 -7 -2 -12 5 -12 8 0 8 -4
-1 -15 -24 -29 5 -14 40 20 67 68 273 201 373 242 20 8 37 20 37 26 0 6 3 7 7
4 3 -4 11 -3 17 2 21 18 216 80 297 96 128 24 269 20 354 -11 39 -14 75 -25
82 -26 7 -1 10 -4 8 -8 -3 -4 4 -15 15 -25 20 -18 29 -8 9 12 -7 7 -6 12 4 16
11 4 13 -3 11 -34 -2 -22 0 -38 4 -35 14 8 3 -129 -14 -174 -49 -134 -220
-284 -396 -350 -131 -48 -312 -68 -401 -42 -20 6 -35 6 -32 1 4 -5 -1 -9 -9
-9 -10 0 -13 6 -10 15 4 8 1 15 -5 15 -5 0 -26 14 -46 31 -20 18 -38 29 -41
26 -11 -11 37 -82 70 -105 36 -25 54 -29 37 -8 -9 11 -7 15 10 19 15 4 23 0
26 -13 3 -11 16 -21 32 -23 l26 -4 -28 -2 c-21 -1 -30 4 -34 19 -6 24 -22 17
-19 -8 5 -32 71 -46 211 -46 101 1 148 6 210 22 104 28 186 62 179 73 -3 5 2
6 10 3 36 -14 247 167 278 238 7 15 16 28 19 28 4 0 20 30 35 68 25 59 29 80
29 172 0 91 -3 110 -22 140 -14 23 -30 35 -45 35 -15 0 -24 7 -26 20 -4 20 -4
20 11 0 9 -11 19 -16 24 -12 9 10 -32 46 -94 83 -43 26 -162 64 -200 64 -32 0
-29 -15 4 -18 39 -3 42 -12 4 -12 -24 0 -34 5 -38 20 -5 18 -13 20 -97 19 -50
-1 -104 -4 -121 -6z m-12 -1123 c6 0 23 -11 38 -26 25 -24 26 -26 14 -77 -7
-29 -22 -77 -34 -107 -24 -64 -26 -74 -8 -64 6 4 9 4 5 0 -3 -4 -9 -6 -13 -4
-4 2 -20 -33 -36 -77 -16 -44 -34 -89 -40 -100 -7 -10 -13 -40 -14 -65 -1 -25
0 -37 2 -27 8 31 23 18 17 -15 -4 -31 -4 -32 6 -8 9 19 8 31 -4 50 -13 23 -13
28 5 50 14 19 19 21 19 8 0 -9 -5 -18 -12 -20 -9 -3 -9 -11 0 -34 9 -22 10
-38 3 -58 -11 -27 -11 -27 -36 -9 -13 10 -22 24 -20 31 3 6 8 20 12 30 3 10
-10 3 -32 -18 -21 -19 -35 -28 -32 -19 3 9 0 22 -6 28 -13 13 -16 180 -4 226
7 23 6 27 -3 19 -7 -7 -15 -36 -20 -65 -4 -30 -8 -43 -9 -29 -1 14 -3 43 -6
65 -4 32 -3 35 4 15 l9 -25 1 28 c1 16 5 26 9 23 14 -8 26 7 60 77 33 70 104
157 128 157 16 0 19 16 3 25 -5 4 -18 -2 -27 -13 -9 -10 -24 -17 -32 -15 -12
4 -12 3 -2 -5 10 -7 6 -15 -17 -35 -17 -14 -31 -30 -31 -36 0 -6 -6 -9 -12 -7
-7 1 -10 1 -5 -1 14 -8 7 -25 -8 -19 -8 3 -15 1 -15 -3 0 -5 5 -11 12 -13 7
-3 8 -7 3 -10 -6 -3 -15 0 -21 7 -15 15 27 72 62 85 31 12 31 25 0 28 -28 2
-80 -52 -70 -71 5 -8 2 -8 -6 0 -11 10 -17 10 -30 -2 -15 -13 -17 -13 -17 0 0
8 6 15 13 15 7 0 16 9 19 20 3 11 13 20 22 20 8 0 17 9 20 19 3 13 10 18 21
14 11 -5 13 -3 7 8 -5 8 -1 7 12 -4 21 -18 35 -14 26 9 -3 8 0 14 7 14 7 0 10
7 6 16 -4 12 -2 15 9 11 8 -4 18 -1 22 6 5 8 9 7 11 -5 2 -10 9 -18 15 -18z
m950 -282 c-2 -39 -1 -40 6 -13 8 28 9 27 10 -15 0 -28 -3 -40 -8 -32 -6 10
-10 4 -15 -19 -8 -40 -69 -99 -102 -99 -22 0 -24 3 -18 28 11 45 40 94 84 145
23 26 43 47 44 47 1 0 1 -19 -1 -42z m-1457 -182 c-1 -90 -4 -107 -29 -154
-55 -104 -152 -183 -243 -197 -46 -8 -94 8 -94 30 0 9 -5 13 -10 10 -11 -7 -9
5 12 90 12 46 52 107 100 151 63 58 230 170 254 171 7 0 10 -35 10 -101z"/>
</g>
</svg>
