<svg width="20" height="19" viewBox="0 0 20 19" fill="none" xmlns="http://www.w3.org/2000/svg">
<path d="M4.51218 0.381242C4.17639 0.356114 3.80309 0.445634 3.45878 0.668648C3.15537 0.863392 2.50083 1.3424 1.8889 1.88423C1.58378 2.15436 1.29231 2.43548 1.06731 2.7119C0.840605 2.98831 0.642879 3.24116 0.65481 3.60866C0.666742 3.93847 0.702538 4.91377 1.46447 6.4089C2.22639 7.90247 3.70423 9.952 6.5866 12.6093C9.47068 15.2666 11.6951 16.6283 13.3161 17.3303C14.9371 18.0323 15.9974 18.0653 16.3553 18.0763C16.7525 18.0873 17.0269 17.9051 17.3269 17.6962C17.6269 17.4874 17.932 17.2204 18.2252 16.9392C18.8116 16.3754 19.3314 15.7723 19.5428 15.4928C20.0252 14.8599 19.9451 14.1123 19.4081 13.7652C19.0706 13.5469 15.9667 11.6434 15.4996 11.3796C15.0258 11.1126 14.4803 11.2335 13.9928 11.4707C13.6093 11.6576 12.5712 12.2057 12.2746 12.3627C12.0514 12.2324 11.2042 11.7126 9.38205 10.0337C7.55819 8.35478 6.99569 7.57423 6.85422 7.36849C7.02467 7.09522 7.61785 6.14348 7.82239 5.78383C8.07807 5.33624 8.22126 4.82896 7.91614 4.38921C7.7883 4.20232 7.20705 3.38722 6.62069 2.56898C6.03263 1.75074 5.47524 0.974899 5.33036 0.789578V0.788007C5.14115 0.547718 4.84627 0.406371 4.51218 0.381242ZM4.43207 1.20262C4.55138 1.21676 4.62298 1.26073 4.62298 1.26073C4.69286 1.35025 5.30479 2.19519 5.89115 3.01187C6.47751 3.83011 7.07581 4.66876 7.17978 4.82111C7.19683 4.84466 7.22069 5.11165 7.05024 5.40848V5.41005C6.85762 5.74771 5.95933 7.19416 5.95933 7.19416L5.8349 7.39676L5.96274 7.59779C5.96274 7.59779 6.63263 8.63904 8.7633 10.6022C10.8957 12.5653 12.0258 13.1841 12.0258 13.1841L12.244 13.3019L12.4639 13.1873C12.4639 13.1873 14.0303 12.3612 14.4002 12.1821C14.7224 12.0267 15.0121 12.0471 15.0462 12.0659C15.3479 12.2371 18.7008 14.2898 18.907 14.4233C18.9138 14.428 19.0962 14.6824 18.8303 15.0311H18.8286C18.6684 15.2431 18.1434 15.8572 17.5962 16.3817C17.3218 16.644 17.0405 16.889 16.8019 17.0539C16.5633 17.2188 16.3502 17.2706 16.3843 17.2722C16.0127 17.2612 15.1928 17.2533 13.6877 16.6016C12.1826 15.9514 10.0349 14.6494 7.20365 12.0392C4.37411 9.43215 2.96105 7.4533 2.25367 6.06496C1.54799 4.67819 1.53947 3.92277 1.52753 3.58196C1.52924 3.61337 1.58549 3.41549 1.76446 3.19562C1.94344 2.97574 2.20764 2.71504 2.4923 2.46218C3.06332 1.95805 3.72809 1.47433 3.95821 1.3267V1.32827C4.14741 1.20577 4.31275 1.19006 4.43207 1.20262Z" fill="url(#paint0_linear_177_1727)"/>
<defs>
<linearGradient id="paint0_linear_177_1727" x1="10.2581" y1="0.377136" x2="10.2581" y2="18.0768" gradientUnits="userSpaceOnUse">
<stop stop-color="#4ABCEC"/>
<stop offset="1" stop-color="#4A8BEC"/>
</linearGradient>
</defs>
</svg>
