<svg class="technology__svg ui/ux" xmlns="http://www.w3.org/2000/svg" width="50" height="500" viewBox="0 0 680 680" version="1.1">
 	<title>UI/UX</title>
	<path d="M 350 0.699 C 328.568 1.732, 299.765 6.413, 277.885 12.419 C 264.895 15.985, 238.733 25.066, 239.433 25.767 C 239.658 25.991, 242.465 25.578, 245.671 24.849 C 249.335 24.015, 258.186 23.518, 269.500 23.511 C 284.703 23.502, 289.107 23.860, 297.844 25.816 C 342.842 35.893, 387.362 64.888, 433.244 114 C 448.012 129.809, 448.754 131.292, 437.865 123.249 C 388.280 86.624, 334.052 62.550, 281.931 54.023 C 266.797 51.547, 234.776 49.645, 222.500 50.493 C 205.035 51.699, 188.652 55.607, 175.146 61.791 C 167.914 65.102, 153.203 76.307, 138.477 89.719 C 84.690 138.713, 47.408 205.748, 34.043 277.500 C 31.484 291.237, 29 312.510, 29 320.685 C 29 324.093, 28.550 327.160, 28 327.500 C 27.373 327.888, 27 325.712, 27 321.665 C 27 306.969, 23.179 280.126, 17.981 258.300 C 14.786 244.886, 6.611 219.623, 2.675 211 L 0.164 205.500 0.164 339 L 0.164 472.500 2.682 467 C 6.875 457.841, 15.595 430.340, 18.884 415.901 C 23.017 397.760, 25.850 378.330, 26.661 362.574 C 27.436 347.498, 28.437 348.577, 29.372 365.500 C 31.356 401.389, 41.849 442.971, 58.125 479.441 C 68.927 503.647, 86.202 531.771, 103.613 553.500 C 114.925 567.616, 140.384 593.075, 154.500 604.387 C 226.221 661.857, 315.370 687.632, 407 677.389 C 522.887 664.434, 624.088 591.716, 675.816 484.233 L 680.500 474.500 680.768 340.724 L 681.035 206.947 675.924 196.224 C 640.131 121.136, 579.220 61.691, 504.500 28.925 C 456.449 7.853, 403.239 -1.868, 350 0.699 M 0.486 339 C 0.486 412.425, 0.605 442.463, 0.750 405.750 C 0.895 369.038, 0.895 308.963, 0.750 272.250 C 0.605 235.538, 0.486 265.575, 0.486 339 M 336.512 330.250 C 323.989 362.837, 312.898 391.659, 311.867 394.298 L 309.991 399.096 316.190 398.798 L 322.389 398.500 346.695 335.550 C 360.063 300.927, 371 272.240, 371 271.800 C 371 271.360, 368.364 271, 365.141 271 L 359.283 271 336.512 330.250 M 166 313.340 C 166 350.969, 166.174 355.360, 167.938 362.259 C 170.278 371.408, 172.921 376.800, 177.608 381.988 C 184.570 389.694, 195.523 394, 208.161 394 C 232.394 394, 248.023 381.193, 252.507 357.662 C 253.671 351.549, 254 341.253, 254 310.870 L 254 271.916 246.250 272.208 L 238.500 272.500 237.993 315 C 237.494 356.767, 237.444 357.601, 235.122 363.381 C 230.131 375.799, 221.352 381.455, 208.007 380.848 C 198.082 380.397, 192.016 376.956, 187.308 369.105 C 182.019 360.286, 181.763 357.911, 181.286 313.250 L 180.845 272 173.422 272 L 166 272 166 313.340 M 276 332 L 276 392 283.500 392 L 291 392 291 332 L 291 272 283.500 272 L 276 272 276 332 M 390.706 272.627 C 390.318 273.015, 390.016 290.696, 390.035 311.917 C 390.073 354.553, 390.744 361.607, 395.770 372.287 C 403.014 387.676, 417.274 395.045, 437.292 393.743 C 456.293 392.507, 469.315 382.663, 475.251 365.047 C 477.369 358.765, 477.471 356.751, 477.778 315.250 L 478.098 272 470.549 272 L 463 272 462.969 308.750 C 462.936 348.699, 462.260 357.568, 458.649 365.455 C 452.843 378.138, 439.185 383.956, 424.677 379.927 C 419.052 378.365, 411.766 370.780, 408.899 363.500 C 406.580 357.612, 406.526 356.708, 406.018 315 L 405.500 272.500 398.456 272.210 C 394.582 272.051, 391.095 272.239, 390.706 272.627 M 493.380 273.548 C 493.707 274.400, 501.448 287.689, 510.582 303.079 C 520.523 319.829, 526.958 331.668, 526.611 332.572 C 526.292 333.403, 518.144 347.131, 508.504 363.079 L 490.976 392.075 500.069 391.788 L 509.162 391.500 522.817 366.934 L 536.472 342.368 542.680 352.934 C 546.093 358.745, 552.610 369.913, 557.161 377.750 L 565.435 392 574.217 392 C 579.048 392, 583 391.758, 583 391.463 C 583 391.167, 575.294 378.241, 565.877 362.739 C 556.459 347.236, 548.303 333.564, 547.753 332.356 C 546.887 330.456, 549.130 326.360, 564.376 302.001 C 574.069 286.513, 582 273.409, 582 272.882 C 582 272.321, 578.431 272.042, 573.417 272.211 L 564.835 272.500 556.338 287 C 551.665 294.975, 545.588 305.663, 542.834 310.750 C 540.080 315.837, 537.701 320, 537.546 320 C 537.391 320, 532.171 310.887, 525.947 299.750 C 519.722 288.613, 513.582 277.813, 512.302 275.750 L 509.975 272 501.380 272 C 494.033 272, 492.872 272.225, 493.380 273.548 M 1.762 679.707 C 3.006 679.946, 4.806 679.937, 5.762 679.687 C 6.718 679.437, 5.700 679.241, 3.500 679.252 C 1.300 679.263, 0.518 679.468, 1.762 679.707 M 12.750 679.737 C 15.638 679.939, 20.363 679.939, 23.250 679.737 C 26.138 679.535, 23.775 679.370, 18 679.370 C 12.225 679.370, 9.863 679.535, 12.750 679.737 " stroke="none" fill="" fill-rule="evenodd"/>
</svg>