<svg xmlns="http://www.w3.org/2000/svg" width="960" height="960" viewBox="0 0 960 960" version="1.1">
	<path d="M 466.500 16.138 C 462.650 16.615, 455.225 17.493, 450 18.090 C 432.184 20.124, 394.456 27.482, 384 30.960 C 382.625 31.418, 378.125 32.771, 374 33.968 C 324.627 48.289, 270.255 75.795, 228 107.827 C 195.137 132.740, 160.740 167.137, 135.827 200 C 103.852 242.179, 76.263 296.715, 61.968 346 C 60.771 350.125, 59.418 354.625, 58.960 356 C 55.427 366.619, 48.105 404.303, 46.039 422.500 C 45.415 428, 44.475 436.100, 43.951 440.500 C 42.715 450.874, 42.715 509.126, 43.951 519.500 C 44.475 523.900, 45.415 532, 46.039 537.500 C 48.105 555.697, 55.427 593.381, 58.960 604 C 59.418 605.375, 60.771 609.875, 61.968 614 C 76.263 663.285, 103.852 717.821, 135.827 760 C 160.740 792.863, 195.137 827.260, 228 852.173 C 270.255 884.205, 324.627 911.711, 374 926.032 C 378.125 927.229, 382.625 928.582, 384 929.040 C 394.619 932.573, 432.303 939.895, 450.500 941.961 C 456 942.585, 464.100 943.525, 468.500 944.049 C 478.874 945.285, 537.126 945.285, 547.500 944.049 C 551.900 943.525, 560 942.585, 565.500 941.961 C 583.697 939.895, 621.381 932.573, 632 929.040 C 633.375 928.582, 637.875 927.229, 642 926.032 C 691.373 911.711, 745.745 884.205, 788 852.173 C 820.863 827.260, 855.260 792.863, 880.173 760 C 914.471 714.757, 941.568 659.647, 957.125 603.500 C 957.735 601.300, 958.743 598.150, 959.366 596.500 C 960.179 594.347, 960.578 561.892, 960.779 481.596 C 961.013 387.695, 960.832 368.952, 959.652 365.096 C 958.878 362.568, 957.744 358.700, 957.131 356.500 C 941.377 299.946, 914.487 245.265, 880.173 200 C 855.260 167.137, 820.863 132.740, 788 107.827 C 745.745 75.795, 691.373 48.289, 642 33.968 C 637.875 32.771, 633.375 31.418, 632 30.960 C 621.381 27.427, 583.697 20.105, 565.500 18.039 C 560 17.415, 551.900 16.475, 547.500 15.951 C 537.762 14.790, 476.236 14.933, 466.500 16.138 M 223 427.557 C 223 502.337, 223.357 543.744, 224.029 546.807 C 224.594 549.388, 225.543 553.750, 226.137 556.500 C 234.048 593.133, 261.530 622.785, 298.835 634.937 C 332.395 645.869, 378.771 645.680, 412.584 634.474 C 439.259 625.633, 460.458 609.147, 473.786 586.878 C 479.471 577.380, 482.814 569.191, 486.318 556.186 L 489.467 544.500 489.773 428.750 L 490.079 313 455.589 313 L 421.099 313 420.751 421.250 C 420.439 518.530, 420.231 530.293, 418.705 537.322 C 414.300 557.603, 405.636 570.590, 391.849 577.576 C 378.250 584.468, 357.805 586.786, 339.379 583.526 C 308.562 578.074, 295.091 560.719, 292.012 522.500 C 291.480 515.890, 291.035 466.143, 291.023 411.750 L 291 313 257 313 L 223 313 223 427.557 M 535.754 313.579 C 535.435 313.898, 536.412 316.035, 537.925 318.329 C 539.437 320.623, 542.530 325.425, 544.798 329 C 547.067 332.575, 555.418 345.625, 563.358 358 C 571.298 370.375, 585.296 392.200, 594.466 406.500 C 603.635 420.800, 616.339 440.600, 622.697 450.500 C 629.055 460.400, 634.462 469.232, 634.713 470.127 C 634.981 471.084, 627.462 483.649, 616.460 500.627 C 606.170 516.507, 596.569 531.432, 595.125 533.794 C 593.681 536.155, 583.591 551.905, 572.703 568.794 C 561.815 585.682, 551.056 602.425, 548.795 606 C 546.534 609.575, 541.155 617.934, 536.842 624.577 C 532.529 631.219, 529 637.181, 529 637.827 C 529 638.703, 538.243 639, 565.529 639 L 602.058 639 606.779 631.414 C 616.553 615.707, 625.009 602.004, 634.494 586.500 C 639.878 577.700, 646.760 566.450, 649.789 561.500 C 652.817 556.550, 656.967 549.800, 659.011 546.500 C 661.056 543.200, 666.007 535.184, 670.015 528.686 C 675.930 519.095, 677.536 517.120, 678.551 518.186 C 679.636 519.327, 698.136 549.106, 702.975 557.500 C 703.926 559.150, 706.959 564.100, 709.715 568.500 C 712.472 572.900, 717.762 581.450, 721.472 587.500 C 725.183 593.550, 729.744 600.856, 731.609 603.735 C 733.474 606.614, 735 609.198, 735 609.477 C 735 609.756, 737.771 614.376, 741.157 619.742 C 744.543 625.109, 748.640 631.638, 750.261 634.250 L 753.208 639 792.639 639 L 832.070 639 830.905 636.823 C 829.887 634.920, 787.702 571.700, 738.852 498.866 C 730.133 485.867, 723 474.866, 723 474.419 C 723 473.973, 724.061 472.008, 725.359 470.054 C 726.656 468.099, 732.121 459.525, 737.503 451 C 762.509 411.389, 780.177 383.487, 794.491 361 C 800.968 350.825, 807.040 341.150, 807.984 339.500 C 808.928 337.850, 812.887 331.569, 816.781 325.542 C 820.675 319.516, 823.641 314.228, 823.372 313.792 C 823.102 313.357, 806.539 313, 786.563 313 C 758.720 313, 750.006 313.292, 749.223 314.250 C 748.252 315.438, 745.744 319.660, 726.508 352.500 C 721.998 360.200, 715.253 371.675, 711.519 378 C 707.785 384.325, 703.951 390.850, 703 392.500 C 702.049 394.150, 698.215 400.675, 694.481 407 C 690.747 413.325, 686.330 420.839, 684.665 423.697 C 683.001 426.556, 681.280 428.673, 680.840 428.401 C 680.139 427.968, 676.560 422.181, 671.006 412.500 C 665.845 403.505, 614.459 318.071, 612.813 315.750 L 610.864 313 573.599 313 C 553.103 313, 536.073 313.261, 535.754 313.579 M 1.201 479 C 1.201 548.182, 1.536 585.074, 2.140 582.500 C 4.104 574.134, 8.872 546.085, 9.961 536.500 C 10.585 531, 11.525 522.900, 12.049 518.500 C 13.285 508.126, 13.285 449.874, 12.049 439.500 C 11.525 435.100, 10.585 427, 9.961 421.500 C 8.872 411.915, 4.104 383.866, 2.140 375.500 C 1.536 372.926, 1.201 409.818, 1.201 479 M 6.750 959.743 C 10.738 959.932, 17.263 959.932, 21.250 959.743 C 25.238 959.553, 21.975 959.397, 14 959.397 C 6.025 959.397, 2.762 959.553, 6.750 959.743 " stroke="none" fill="black" fill-rule="evenodd"/>
</svg>