<svg width="14" height="10" viewBox="0 0 14 10" fill="none" xmlns="http://www.w3.org/2000/svg">
<path d="M6.50096 2.52901C6.26096 2.53401 6.02394 2.57 5.79594 2.642C5.90294 2.827 5.95896 3.037 5.95896 3.252C5.95896 3.949 5.39196 4.51601 4.69496 4.51601C4.48096 4.51301 4.27095 4.457 4.08595 4.353C3.69995 5.689 4.47195 7.089 5.80995 7.472C7.14795 7.858 8.54596 7.086 8.93196 5.748C9.31696 4.409 8.54595 3.01201 7.20695 2.62601C6.97695 2.56101 6.73996 2.52901 6.50096 2.52901ZM12.9219 4.728C11.6989 2.34 9.27496 0.723999 6.50096 0.723999C3.72696 0.723999 1.30296 2.34 0.078959 4.728C-0.024041 4.935 -0.024041 5.17899 0.078959 5.38699C1.30296 7.77499 3.72696 9.39101 6.50096 9.39101C9.27496 9.39101 11.6989 7.77499 12.9219 5.38699C13.0279 5.17899 13.0279 4.935 12.9219 4.728ZM6.50096 8.30701C4.27496 8.30701 2.23296 7.06601 1.13096 5.05701C2.23296 3.04801 4.27296 1.80701 6.50096 1.80701C8.72796 1.80701 10.7689 3.04801 11.8699 5.05701C10.7689 7.06601 8.72796 8.30701 6.50096 8.30701Z" fill="#3E3E3E"/>
</svg>
