<svg width="22" height="18" viewBox="0 0 22 18" fill="none" xmlns="http://www.w3.org/2000/svg">
<path d="M20.2599 0H1.73987C0.839868 0 0.109863 0.745993 0.109863 1.66499V12.767C0.109863 13.687 0.839868 14.433 1.73987 14.433H10.0798V15.543H4.63989C4.02989 15.543 3.54993 16.039 3.54993 16.653C3.54993 17.267 4.02989 17.763 4.63989 17.763H17.7098C18.3098 17.763 18.7999 17.267 18.7999 16.653C18.7999 16.039 18.3098 15.543 17.7098 15.543H12.2599V14.433H20.2599C21.1599 14.433 21.8899 13.687 21.8899 12.767V1.66499C21.8899 0.745993 21.1599 0 20.2599 0ZM19.7198 12.212H2.27991V2.22H19.7198V12.212Z" fill="#808080"/>
</svg>
