<svg width="21" height="19" viewBox="0 0 21 19" fill="none" xmlns="http://www.w3.org/2000/svg">
<path d="M21 14.739V15.91C21 16.232 20.74 16.496 20.41 16.496H18.73V18.178C18.73 18.5 18.47 18.764 18.15 18.764H16.98C16.65 18.764 16.39 18.5 16.39 18.178V16.496H14.71C14.39 16.496 14.12 16.232 14.12 15.91V14.739C14.12 14.417 14.39 14.154 14.71 14.154H16.39V12.471C16.39 12.149 16.65 11.886 16.98 11.886H18.15C18.47 11.886 18.73 12.149 18.73 12.471V14.154H20.41C20.74 14.154 21 14.417 21 14.739ZM0.589966 2.44701H15.8C16.13 2.44701 16.39 2.18299 16.39 1.86099V0.690994C16.39 0.368994 16.13 0.104996 15.8 0.104996H0.589966C0.259966 0.104996 0 0.368994 0 0.690994V1.86099C0 2.18699 0.259966 2.44701 0.589966 2.44701ZM0.589966 7.13H15.8C16.13 7.13 16.39 6.86601 16.39 6.54401V5.37399C16.39 5.05199 16.13 4.78799 15.8 4.78799H0.589966C0.259966 4.78799 0 5.05199 0 5.37399V6.54401C0 6.87001 0.259966 7.13 0.589966 7.13ZM0 14.739V15.91C0 16.232 0.259966 16.496 0.589966 16.496H11.67V14.154H0.589966C0.259966 14.154 0 14.417 0 14.739ZM0 10.056V11.227C0 11.549 0.259966 11.813 0.589966 11.813H14.03V9.47099H0.589966C0.259966 9.47099 0 9.735 0 10.056Z" fill="black"/>
</svg>
