<svg width="18" height="16" viewBox="0 0 18 16" fill="none" xmlns="http://www.w3.org/2000/svg">
<path d="M15.42 0H1.84998C0.829976 0 0 0.768005 0 1.714V14.286C0 15.233 0.829976 16 1.84998 16H15.42C16.44 16 17.27 15.233 17.27 14.286V1.714C17.27 0.768005 16.44 0 15.42 0ZM15.42 14.286H1.84998V1.714H15.42V14.286ZM14.04 5.653L7.39001 11.767C7.20001 11.934 6.90998 11.933 6.72998 11.765L3.22998 8.496C3.04998 8.328 3.04998 8.057 3.22998 7.89L4.10999 7.08501C4.28999 6.91901 4.58001 6.92 4.76001 7.088L7.06995 9.241L12.52 4.233C12.7 4.066 12.99 4.067 13.17 4.235L14.04 5.047C14.22 5.215 14.22 5.486 14.04 5.653Z" fill="#808080"/>
</svg>
