<svg width="12" height="12" viewBox="0 0 12 12" fill="none" xmlns="http://www.w3.org/2000/svg">
<path d="M11.222 10.375L9.00601 8.038C8.90601 7.933 8.77102 7.874 8.62802 7.874H8.26602C8.88002 7.047 9.24402 6.006 9.24402 4.875C9.24402 2.182 7.17501 0 4.62201 0C2.06901 0 0 2.182 0 4.875C0 7.567 2.06901 9.749 4.62201 9.749C5.69501 9.749 6.682 9.365 7.466 8.718V9.1C7.466 9.25 7.52201 9.393 7.62201 9.498L9.83701 11.835C10.046 12.055 10.384 12.055 10.591 11.835L11.22 11.172C11.428 10.951 11.428 10.595 11.222 10.375ZM4.62201 7.874C3.05101 7.874 1.77701 6.534 1.77701 4.875C1.77701 3.218 3.04901 1.875 4.62201 1.875C6.19301 1.875 7.466 3.215 7.466 4.875C7.466 6.531 6.19501 7.874 4.62201 7.874Z" fill="#999999"/>
</svg>
