<svg width="17" height="17" viewBox="0 0 17 17" fill="none" xmlns="http://www.w3.org/2000/svg">
<path d="M8.5 0C3.804 0 0 3.804 0 8.5C0 13.196 3.804 17 8.5 17C13.196 17 17 13.196 17 8.5C17 3.804 13.196 0 8.5 0ZM8.5 15.355C4.72 15.355 1.64502 12.28 1.64502 8.5C1.64502 4.72 4.72 1.645 8.5 1.645C12.28 1.645 15.355 4.72 15.355 8.5C15.355 12.28 12.28 15.355 8.5 15.355ZM5.758 7.952C6.365 7.952 6.85498 7.461 6.85498 6.855C6.85498 6.248 6.365 5.758 5.758 5.758C5.151 5.758 4.66101 6.248 4.66101 6.855C4.66101 7.461 5.151 7.952 5.758 7.952ZM11.242 7.952C11.849 7.952 12.339 7.461 12.339 6.855C12.339 6.248 11.849 5.758 11.242 5.758C10.635 5.758 10.145 6.248 10.145 6.855C10.145 7.461 10.635 7.952 11.242 7.952ZM11.379 10.44C10.666 11.297 9.614 11.79 8.5 11.79C7.386 11.79 6.33397 11.3 5.62097 10.44C5.32997 10.09 4.80901 10.046 4.46301 10.334C4.11301 10.625 4.06802 11.143 4.35602 11.492C5.38402 12.726 6.896 13.432 8.5 13.432C10.104 13.432 11.616 12.726 12.644 11.492C12.935 11.143 12.887 10.625 12.537 10.334C12.191 10.046 11.67 10.09 11.379 10.44Z" fill="#B346BD"/>
</svg>
