<svg width="14" height="16" viewBox="0 0 14 16" fill="none" xmlns="http://www.w3.org/2000/svg">
<path d="M6.56006 8.375C5.86006 8.375 5.24003 8.2285 4.66003 7.877C4.07003 7.5547 3.63006 7.1152 3.31006 6.5293C2.96006 5.9434 2.81006 5.3281 2.81006 4.625C2.81006 3.9512 2.96006 3.3359 3.31006 2.75C3.63006 2.1641 4.07003 1.7246 4.66003 1.373C5.24003 1.0508 5.86006 0.875 6.56006 0.875C7.24006 0.875 7.84994 1.0508 8.43994 1.373C9.01994 1.7246 9.46006 2.1641 9.81006 2.75C10.1401 3.3359 10.3101 3.9512 10.3101 4.625C10.3101 5.3281 10.1401 5.9434 9.81006 6.5293C9.46006 7.1152 9.01994 7.5547 8.43994 7.877C7.84994 8.2285 7.24006 8.375 6.56006 8.375ZM9.19995 9.3125C9.89995 9.3125 10.55 9.4883 11.16 9.8398C11.75 10.1914 12.25 10.6895 12.6 11.2754C12.95 11.8906 13.12 12.5352 13.12 13.2383V14.4688C13.12 14.8789 12.98 15.2012 12.71 15.4648C12.42 15.7578 12.1 15.875 11.72 15.875H1.41003C1.00003 15.875 0.670034 15.7578 0.410034 15.4648C0.120034 15.2012 0 14.8789 0 14.4688V13.2383C0 12.5352 0.180029 11.8906 0.530029 11.2754C0.880029 10.6895 1.34996 10.1914 1.95996 9.8398C2.54996 9.4883 3.22005 9.3125 3.93005 9.3125H4.42004C5.10004 9.6348 5.80006 9.7812 6.56006 9.7812C7.29006 9.7812 7.99995 9.6348 8.69995 9.3125H9.19995Z" fill="white"/>
</svg>
