<svg width="20" height="14" viewBox="0 0 20 14" fill="none" xmlns="http://www.w3.org/2000/svg">
<path d="M18.09 0.367996H17.6801C17.2501 0.367996 16.84 0.543004 16.54 0.854004L13.24 4.237V2.026C13.24 1.111 12.51 0.367996 11.62 0.367996H1.91003C1.01003 0.367996 0.290039 1.111 0.290039 2.026V11.974C0.290039 12.889 1.01003 13.632 1.91003 13.632H11.62C12.51 13.632 13.24 12.889 13.24 11.974V9.763L16.54 13.146C16.84 13.457 17.2501 13.632 17.6801 13.632H18.09C18.99 13.632 19.71 12.889 19.71 11.974V2.026C19.71 1.111 18.99 0.367996 18.09 0.367996Z" fill="#808080"/>
</svg>
