<svg width="15" height="15" viewBox="0 0 15 15" fill="none" xmlns="http://www.w3.org/2000/svg">
<path d="M14.8298 12.54C15.3098 13.409 14.7099 14.495 13.7499 14.495H1.24988C0.289876 14.495 -0.31008 13.407 0.16992 12.54L6.41992 1.24397C6.89992 0.373974 8.09983 0.375974 8.57983 1.24397L14.8298 12.54ZM7.49988 10.205C6.83988 10.205 6.29992 10.764 6.29992 11.454C6.29992 12.143 6.83988 12.703 7.49988 12.703C8.15988 12.703 8.69983 12.143 8.69983 11.454C8.69983 10.764 8.15988 10.205 7.49988 10.205ZM6.35986 5.71498L6.55993 9.40798C6.55993 9.57998 6.69987 9.71599 6.86987 9.71599H8.12988C8.29988 9.71599 8.43982 9.57998 8.43982 9.40798L8.63989 5.71498C8.64989 5.52798 8.49983 5.37099 8.32983 5.37099H6.66992C6.49992 5.37099 6.34986 5.52798 6.35986 5.71498Z" fill="#EE144E"/>
</svg>
