<svg xmlns="http://www.w3.org/2000/svg" width="9.02" height="9.26" viewBox="0 0 9.02 9.26">
	<style type="text/css">
		.st0{fill:#fff;}
	</style>
	<path class="st0" d="M3.57,6.25L1.6,6.25C1.17,6.25 0.77,6.09 0.46,5.79C0.16,5.48 0,5.08 0,4.65L0,1.73C0,1.55 0.07,1.37 0.19,1.25C0.32,1.12 0.49,1.05 0.68,1.05L1.26,1.05C1.39,1.05 1.49,1.15 1.49,1.27C1.49,1.39 1.39,1.49 1.26,1.49L0.68,1.49C0.61,1.49 0.55,1.52 0.51,1.56C0.47,1.61 0.44,1.66 0.44,1.73L0.44,4.65C0.44,4.96 0.56,5.25 0.78,5.47C1,5.69 1.29,5.81 1.6,5.81L3.57,5.81C3.69,5.81 3.79,5.91 3.79,6.03C3.79,6.15 3.69,6.25 3.57,6.25"/>
	<path class="st0" d="M1.8,0.44C1.68,0.44 1.57,0.54 1.57,0.67L1.57,1.74C1.57,1.87 1.68,1.97 1.8,1.97C1.93,1.97 2.03,1.87 2.03,1.74L2.03,0.67C2.03,0.54 1.93,0.44 1.8,0.44M1.8,2.42C1.43,2.42 1.13,2.12 1.13,1.74L1.13,0.67C1.13,0.3 1.43,0 1.8,0C2.17,0 2.48,0.3 2.48,0.67L2.48,1.74C2.48,2.12 2.17,2.42 1.8,2.42"/>
	<path class="st0" d="M4.37,6.25L3.2,6.25C3.07,6.25 2.97,6.15 2.97,6.03C2.97,5.91 3.07,5.81 3.2,5.81L4.37,5.81C4.68,5.81 4.97,5.69 5.19,5.47C5.41,5.25 5.53,4.96 5.53,4.65L5.53,1.73C5.53,1.66 5.5,1.61 5.46,1.56C5.42,1.52 5.36,1.49 5.29,1.49L4.71,1.49C4.58,1.49 4.48,1.39 4.48,1.27C4.48,1.15 4.58,1.05 4.71,1.05L5.29,1.05C5.48,1.05 5.65,1.12 5.78,1.25C5.9,1.37 5.97,1.55 5.97,1.73L5.97,4.65C5.97,5.08 5.81,5.48 5.51,5.79C5.2,6.09 4.8,6.25 4.37,6.25"/>
	<path class="st0" d="M4.17,0.44C4.04,0.44 3.94,0.54 3.94,0.67L3.94,1.74C3.94,1.87 4.04,1.97 4.17,1.97C4.29,1.97 4.4,1.87 4.4,1.74L4.4,0.67C4.4,0.54 4.29,0.44 4.17,0.44M4.17,2.42C3.8,2.42 3.49,2.12 3.49,1.74L3.49,0.67C3.49,0.3 3.8,0 4.17,0C4.54,0 4.84,0.3 4.84,0.67L4.84,1.74C4.84,2.12 4.54,2.42 4.17,2.42"/>
	<path class="st0" d="M4.96,9.26L3.68,9.26C3.4,9.26 3.13,9.14 2.92,8.94C2.72,8.74 2.61,8.47 2.61,8.18L2.61,6.03C2.61,5.91 2.71,5.81 2.83,5.81C2.95,5.81 3.05,5.91 3.05,6.03L3.05,8.18C3.05,8.35 3.12,8.51 3.24,8.62C3.36,8.74 3.51,8.81 3.68,8.81L4.96,8.81C5.09,8.81 5.2,8.76 5.29,8.68C5.37,8.59 5.42,8.48 5.42,8.35L5.42,7.53C5.42,7.36 5.49,7.19 5.61,7.07C5.73,6.95 5.89,6.88 6.07,6.88L6.89,6.88C7.01,6.88 7.11,6.98 7.11,7.11C7.11,7.23 7.01,7.33 6.89,7.33L6.07,7.33C6.01,7.33 5.96,7.35 5.93,7.39C5.89,7.43 5.87,7.48 5.87,7.53L5.87,8.35C5.87,8.59 5.77,8.82 5.6,8.99C5.43,9.16 5.21,9.26 4.96,9.26"/>
	<path class="st0" d="M7.9,6.21C7.48,6.21 7.13,6.55 7.13,6.98C7.13,7.4 7.48,7.74 7.9,7.74C8.32,7.74 8.67,7.4 8.67,6.98C8.67,6.55 8.32,6.21 7.9,6.21M7.9,8.1C7.28,8.1 6.78,7.59 6.78,6.98C6.78,6.36 7.28,5.85 7.9,5.85C8.52,5.85 9.02,6.36 9.02,6.98C9.02,7.59 8.52,8.1 7.9,8.1"/>
	<path class="st0" d="M7.9,6.77C7.78,6.77 7.69,6.86 7.69,6.98C7.69,7.09 7.78,7.18 7.9,7.18C8.01,7.18 8.11,7.09 8.11,6.98C8.11,6.86 8.01,6.77 7.9,6.77M7.9,7.45C7.64,7.45 7.42,7.24 7.42,6.98C7.42,6.71 7.64,6.5 7.9,6.5C8.16,6.5 8.38,6.71 8.38,6.98C8.38,7.24 8.16,7.45 7.9,7.45"/>
</svg>