<svg xmlns="http://www.w3.org/2000/svg" width="10.02" height="9.45" viewBox="0 0 10.02 9.45">
	<style type="text/css">
		.st0{fill:#fff;}
	</style>
	<path class="st0" d="M6.71,8.88C6.67,8.88 6.63,8.86 6.6,8.83L4.88,6.49C4.83,6.43 4.85,6.34 4.9,6.3C4.96,6.26 5.05,6.27 5.09,6.33L6.82,8.67C6.86,8.73 6.85,8.81 6.79,8.85C6.77,8.87 6.74,8.88 6.71,8.88"/>
	<path class="st0" d="M1.73,1.24C1.67,1.24 1.63,1.26 1.6,1.28L1.31,1.49C0.85,1.84 0.54,2.34 0.46,2.92C0.37,3.49 0.51,4.07 0.86,4.53L3.52,8.13C3.86,8.6 4.37,8.9 4.94,8.99C5.53,9.08 6.09,8.93 6.56,8.59L6.84,8.38C6.89,8.35 6.91,8.3 6.92,8.25C6.93,8.2 6.92,8.14 6.88,8.1L5.73,6.53C5.68,6.47 5.61,6.43 5.54,6.41C5.46,6.4 5.38,6.41 5.31,6.45L4.63,6.87C4.53,6.93 4.41,6.9 4.34,6.81L2.36,4.13C2.29,4.04 2.31,3.91 2.39,3.84L2.99,3.31C3.05,3.26 3.09,3.18 3.09,3.11C3.1,3.03 3.08,2.95 3.03,2.89L1.88,1.32C1.85,1.29 1.81,1.25 1.75,1.24ZM5.27,9.45C5.14,9.45 5.01,9.44 4.88,9.42C4.19,9.32 3.58,8.95 3.17,8.39L0.5,4.79C0.09,4.23 -0.07,3.54 0.02,2.85C0.13,2.16 0.49,1.55 1.05,1.14L1.34,0.93C1.48,0.83 1.64,0.78 1.81,0.81C1.98,0.84 2.13,0.92 2.23,1.06L3.39,2.63C3.5,2.78 3.55,2.97 3.53,3.15C3.51,3.34 3.42,3.51 3.28,3.64L2.83,4.03L4.58,6.39L5.09,6.08C5.25,5.98 5.43,5.95 5.62,5.98C5.8,6.02 5.97,6.12 6.08,6.27L7.24,7.84C7.34,7.98 7.38,8.15 7.35,8.31C7.33,8.48 7.24,8.63 7.1,8.73L6.82,8.94C6.36,9.27 5.83,9.45 5.27,9.45"/>
	<path class="st0" d="M2.94,3.77C2.9,3.77 2.86,3.75 2.83,3.72L1.1,1.38C1.06,1.32 1.07,1.23 1.13,1.19C1.19,1.15 1.27,1.16 1.32,1.22L3.05,3.56C3.09,3.62 3.08,3.7 3.02,3.74C2.99,3.76 2.97,3.77 2.94,3.77"/>
	<path class="st0" d="M7.14,0.35C5.75,0.35 4.62,1.38 4.62,2.65C4.62,3.89 5.69,4.89 7.05,4.94C7.1,4.94 7.15,4.96 7.18,5C7.22,5.04 7.23,5.09 7.22,5.15L7.15,5.62L7.81,4.89C7.83,4.86 7.86,4.84 7.89,4.83C8.95,4.53 9.66,3.65 9.66,2.65C9.66,1.38 8.53,0.35 7.14,0.35M6.88,6.36C6.85,6.36 6.83,6.36 6.8,6.34C6.73,6.31 6.69,6.23 6.7,6.16L6.84,5.28C5.38,5.14 4.26,4.02 4.26,2.65C4.26,1.19 5.56,0 7.14,0C8.73,0 10.02,1.19 10.02,2.65C10.02,3.8 9.23,4.8 8.04,5.16L7.01,6.3C6.98,6.34 6.93,6.36 6.88,6.36"/>
	<path class="st0" d="M6.88,3.99L7.41,3.99L7.41,3.18C7.41,3.08 7.49,3 7.59,3L8.4,3L8.4,2.47L7.59,2.47C7.49,2.47 7.41,2.39 7.41,2.29L7.41,1.48L6.88,1.48L6.88,2.29C6.88,2.39 6.8,2.47 6.7,2.47L5.89,2.47L5.89,3L6.7,3C6.8,3 6.88,3.08 6.88,3.18ZM7.59,4.35L6.7,4.35C6.6,4.35 6.52,4.27 6.52,4.17L6.52,3.35L5.71,3.35C5.61,3.35 5.53,3.27 5.53,3.18L5.53,2.29C5.53,2.19 5.61,2.11 5.71,2.11L6.52,2.11L6.52,1.3C6.52,1.2 6.6,1.12 6.7,1.12L7.59,1.12C7.69,1.12 7.77,1.2 7.77,1.3L7.77,2.11L8.58,2.11C8.68,2.11 8.76,2.19 8.76,2.29L8.76,3.18C8.76,3.27 8.68,3.35 8.58,3.35L7.77,3.35L7.77,4.17C7.77,4.27 7.69,4.35 7.59,4.35"/>
</svg>