<svg xmlns="http://www.w3.org/2000/svg" width="7.27" height="12.08" viewBox="0 0 7.27 12.08">
	<style type="text/css">
		.st0{fill:#fff;}
	</style>
	<path class="st0" d="M6.83,8.63C6.71,8.63 6.61,8.53 6.61,8.41L6.61,4.19C6.61,4.11 6.55,2.24 3.48,2.24C0.92,2.24 0.73,4.13 0.73,4.21L0.73,8.36C0.73,8.49 0.63,8.59 0.5,8.59C0.38,8.59 0.28,8.49 0.28,8.36L0.28,4.19C0.28,4.15 0.52,1.79 3.48,1.79C7.02,1.79 7.06,4.17 7.06,4.19L7.06,8.41C7.06,8.53 6.96,8.63 6.83,8.63"/>
	<path class="st0" d="M0.63,11.63L6.64,11.63C6.76,11.31 6.82,10.98 6.82,10.64C6.82,9.11 5.58,7.86 4.05,7.86L3.22,7.86C1.69,7.86 0.44,9.11 0.44,10.64C0.44,10.98 0.51,11.31 0.63,11.63M6.79,12.08L0.48,12.08C0.39,12.08 0.31,12.03 0.28,11.95C0.09,11.52 0,11.08 0,10.64C0,8.86 1.44,7.41 3.22,7.41L4.05,7.41C5.83,7.41 7.27,8.86 7.27,10.64C7.27,11.09 7.18,11.53 6.99,11.95C6.96,12.03 6.87,12.08 6.79,12.08"/>
	<path class="st0" d="M2.66,7.93L3.64,11.07L4.72,7.93ZM3.63,11.82C3.57,11.82 3.49,11.77 3.46,11.69L2.24,7.81C2.22,7.75 2.23,7.69 2.27,7.65C2.3,7.6 2.35,7.58 2.41,7.58L4.98,7.58C5.03,7.58 5.09,7.6 5.12,7.65C5.16,7.7 5.16,7.76 5.15,7.81L3.8,11.7C3.78,11.77 3.71,11.82 3.63,11.82"/>
	<path class="st0" d="M3.65,7.34C2.2,7.34 1.05,6.19 1.05,4.77C1.05,4.67 1.13,4.59 1.23,4.59C1.33,4.59 1.41,4.67 1.41,4.77C1.41,5.99 2.4,6.98 3.62,6.98C4.92,6.98 5.84,6.12 5.84,4.93C5.84,4.83 5.92,4.75 6.02,4.75C6.12,4.75 6.2,4.83 6.2,4.93C6.2,6.3 5.1,7.34 3.65,7.34"/>
	<path class="st0" d="M3.48,11.77C3.45,11.77 3.41,11.76 3.39,11.73L2.32,10.63C2.26,10.57 2.26,10.49 2.32,10.44L2.68,10.08L1.46,9.83C1.42,9.82 1.39,9.79 1.37,9.76C1.35,9.72 1.35,9.68 1.37,9.65L2.12,7.75C2.14,7.68 2.22,7.65 2.29,7.68C2.36,7.7 2.39,7.78 2.37,7.85L1.67,9.6L2.97,9.87C3.02,9.88 3.06,9.91 3.08,9.96C3.09,10.01 3.08,10.06 3.04,10.09L2.6,10.53L3.58,11.54C3.63,11.6 3.63,11.68 3.58,11.73C3.55,11.76 3.52,11.77 3.48,11.77"/>
	<path class="st0" d="M3.81,11.77C3.78,11.77 3.74,11.76 3.72,11.73C3.66,11.68 3.66,11.6 3.71,11.54L4.69,10.53L4.25,10.09C4.22,10.06 4.2,10.01 4.22,9.96C4.23,9.91 4.27,9.88 4.32,9.87L5.62,9.6L4.92,7.85C4.9,7.78 4.93,7.7 5,7.68C5.07,7.65 5.15,7.68 5.17,7.75L5.93,9.65C5.94,9.68 5.94,9.72 5.92,9.76C5.9,9.79 5.87,9.82 5.83,9.83L4.62,10.08L4.98,10.44C5.03,10.49 5.03,10.57 4.98,10.63L3.91,11.73C3.88,11.76 3.84,11.77 3.81,11.77"/>
	<path class="st0" d="M5.67 10.68L6.14 10.68L6.14 10.97L5.67 10.97ZM6.28,11.24L5.54,11.24C5.47,11.24 5.41,11.18 5.41,11.1L5.41,10.55C5.41,10.47 5.47,10.41 5.54,10.41L6.28,10.41C6.35,10.41 6.41,10.47 6.41,10.55L6.41,11.1C6.41,11.18 6.35,11.24 6.28,11.24"/>
	<path class="st0" d="M4.65,9.15L2.81,9.15C2.73,9.15 2.67,9.09 2.67,9.01C2.67,8.94 2.73,8.88 2.81,8.88L4.65,8.88C4.73,8.88 4.79,8.94 4.79,9.01C4.79,9.09 4.73,9.15 4.65,9.15"/>
	<path class="st0" d="M3.59,1.65C4.12,1.65 4.6,1.79 4.99,2.06L5.69,1.16C4.26,0.19 2.93,0.23 1.55,1.14L2.25,2.03C2.63,1.79 3.1,1.65 3.59,1.65M5.02,2.59C4.97,2.59 4.92,2.57 4.88,2.54C4.55,2.26 4.1,2.1 3.62,2.1C3.12,2.1 2.68,2.25 2.35,2.51C2.31,2.55 2.25,2.57 2.19,2.56C2.13,2.56 2.07,2.53 2.04,2.48L1.05,1.23C1.01,1.18 0.99,1.12 1,1.05C1.01,0.99 1.04,0.94 1.09,0.9C2.85,-0.34 4.5,-0.27 6.15,0.93C6.2,0.96 6.23,1.02 6.24,1.08C6.25,1.14 6.23,1.2 6.19,1.25L5.2,2.51C5.16,2.55 5.11,2.58 5.04,2.59C5.04,2.59 5.03,2.59 5.02,2.59"/>
	<path class="st0" d="M5.91,5.11L5.91,5.11C4.79,5.09 3.85,4.3 3.49,3.96C2.67,4.88 1.37,4.94 1.31,4.95C1.22,4.97 1.13,4.87 1.13,4.77C1.12,4.68 1.2,4.59 1.3,4.59C1.31,4.59 2.63,4.52 3.34,3.58C3.37,3.54 3.42,3.52 3.47,3.51C3.53,3.5 3.58,3.53 3.62,3.57C3.63,3.58 4.69,4.74 5.91,4.75C6.01,4.75 6.09,4.83 6.09,4.93C6.09,5.03 6.01,5.11 5.91,5.11"/>
	<path class="st0" d="M2.68,5.35C2.68,5.46 2.59,5.54 2.49,5.54C2.38,5.54 2.29,5.46 2.29,5.35C2.29,5.25 2.38,5.16 2.49,5.16C2.59,5.16 2.68,5.25 2.68,5.35"/>
	<path class="st0" d="M4.85,5.35C4.85,5.46 4.76,5.54 4.65,5.54C4.55,5.54 4.46,5.46 4.46,5.35C4.46,5.25 4.55,5.16 4.65,5.16C4.76,5.16 4.85,5.25 4.85,5.35"/>
</svg>