<svg xmlns="http://www.w3.org/2000/svg" width="9.66" height="9.02" viewBox="0 0 9.66 9.02">
	<style type="text/css">
		.st0{fill:#fff;}
	</style>
	<path class="st0" d="M2.36,4.32L2.82,4.32L2.82,3.65C2.82,3.58 2.88,3.52 2.95,3.52L3.62,3.52L3.62,3.07L2.95,3.07C2.88,3.07 2.82,3.01 2.82,2.93L2.82,2.26L2.36,2.26L2.36,2.93C2.36,3.01 2.3,3.07 2.23,3.07L1.56,3.07L1.56,3.52L2.23,3.52C2.3,3.52 2.36,3.58 2.36,3.65ZM2.95,4.59L2.23,4.59C2.16,4.59 2.1,4.53 2.1,4.46L2.1,3.79L1.43,3.79C1.35,3.79 1.29,3.73 1.29,3.65L1.29,2.93C1.29,2.86 1.35,2.8 1.43,2.8L2.1,2.8L2.1,2.13C2.1,2.05 2.16,1.99 2.23,1.99L2.95,1.99C3.02,1.99 3.08,2.05 3.08,2.13L3.08,2.8L3.75,2.8C3.83,2.8 3.89,2.86 3.89,2.93L3.89,3.65C3.89,3.73 3.83,3.79 3.75,3.79L3.08,3.79L3.08,4.46C3.08,4.53 3.02,4.59 2.95,4.59"/>
	<path class="st0" d="M0.35,6.34L9.3,6.34L9.3,4.22L7.28,1.36L0.35,1.36ZM9.48,6.7L0.17,6.7C0.08,6.7 0,6.62 0,6.52L0,1.19C0,1.09 0.08,1.01 0.17,1.01L7.37,1.01C7.43,1.01 7.48,1.03 7.51,1.08L9.63,4.05C9.65,4.09 9.66,4.12 9.66,4.16L9.66,6.52C9.66,6.62 9.58,6.7 9.48,6.7"/>
	<path class="st0" d="M5.23 0.35L5.89 0.35L5.89 1.01L5.23 1.01ZM6.07,1.36L5.05,1.36C4.96,1.36 4.88,1.28 4.88,1.19L4.88,0.17C4.88,0.08 4.96,0 5.05,0L6.07,0C6.17,0 6.25,0.08 6.25,0.17L6.25,1.19C6.25,1.28 6.17,1.36 6.07,1.36"/>
	<path class="st0" d="M5.95,3.89L8.08,3.89L6.89,2.25L5.95,2.25ZM8.44,4.25L8.43,4.25L5.77,4.25C5.68,4.25 5.6,4.17 5.6,4.07L5.6,2.07C5.6,1.98 5.68,1.9 5.77,1.9L6.98,1.9C7.04,1.9 7.09,1.92 7.13,1.97L8.54,3.93C8.59,3.96 8.61,4.01 8.61,4.07C8.61,4.17 8.53,4.25 8.44,4.25"/>
	<path class="st0" d="M9.35,5.06L8.86,5.06C8.78,5.06 8.72,5 8.72,4.93C8.72,4.85 8.78,4.79 8.86,4.79L9.35,4.79C9.42,4.79 9.48,4.85 9.48,4.93C9.48,5 9.42,5.06 9.35,5.06"/>
	<path class="st0" d="M9.35,5.63L8.86,5.63C8.78,5.63 8.72,5.57 8.72,5.49C8.72,5.42 8.78,5.36 8.86,5.36L9.35,5.36C9.42,5.36 9.48,5.42 9.48,5.49C9.48,5.57 9.42,5.63 9.35,5.63"/>
	<path class="st0" d="M5.04,6.61C4.94,6.61 4.86,6.53 4.86,6.43L4.86,2.07C4.86,1.98 4.94,1.9 5.04,1.9C5.14,1.9 5.22,1.98 5.22,2.07L5.22,6.43C5.22,6.53 5.14,6.61 5.04,6.61"/>
	<path class="st0" d="M5.04,5.33L0.26,5.33C0.18,5.33 0.12,5.27 0.12,5.19C0.12,5.12 0.18,5.06 0.26,5.06L5.04,5.06C5.11,5.06 5.17,5.12 5.17,5.19C5.17,5.27 5.11,5.33 5.04,5.33"/>
	<path class="st0" d="M2.03,6.94C1.56,6.94 1.17,7.33 1.17,7.8C1.17,8.28 1.56,8.67 2.03,8.67C2.51,8.67 2.9,8.28 2.9,7.8C2.9,7.33 2.51,6.94 2.03,6.94M2.03,9.02C1.36,9.02 0.81,8.48 0.81,7.8C0.81,7.13 1.36,6.58 2.03,6.58C2.71,6.58 3.26,7.13 3.26,7.8C3.26,8.48 2.71,9.02 2.03,9.02"/>
	<path class="st0" d="M7.38,6.94C6.91,6.94 6.52,7.33 6.52,7.8C6.52,8.28 6.91,8.67 7.38,8.67C7.86,8.67 8.25,8.28 8.25,7.8C8.25,7.33 7.86,6.94 7.38,6.94M7.38,9.02C6.71,9.02 6.16,8.48 6.16,7.8C6.16,7.13 6.71,6.58 7.38,6.58C8.06,6.58 8.61,7.13 8.61,7.8C8.61,8.48 8.06,9.02 7.38,9.02"/>
	<path class="st0" d="M6.39,5.15L5.98,5.15C5.79,5.15 5.64,5 5.64,4.81C5.64,4.62 5.79,4.47 5.98,4.47L6.39,4.47C6.57,4.47 6.73,4.62 6.73,4.81C6.73,5 6.57,5.15 6.39,5.15"/>
</svg>