<svg xmlns="http://www.w3.org/2000/svg" width="10.12" height="8.98" viewBox="0 0 10.12 8.98">
	<style type="text/css">
		.st0{fill: crimson;}
	</style>
	<path class="st0" d="M4.58,8.87L4.14,8.87L4.14,7.24C4.14,7.11 4.11,6.99 4.05,6.87C3.99,6.76 3.9,6.67 3.8,6.59L1.93,5.29L1.93,4.41C1.93,4.38 1.91,4.34 1.89,4.32C1.86,4.29 1.82,4.28 1.79,4.28L1.33,4.28L1.28,4.32L1.28,5.65L0.84,5.65L0.84,4.32C0.84,4.19 0.89,4.06 0.98,3.97C1.07,3.88 1.2,3.83 1.33,3.83L1.79,3.83C1.94,3.83 2.09,3.89 2.2,4C2.31,4.11 2.37,4.26 2.37,4.41L2.37,5.05L4.06,6.23C4.22,6.34 4.35,6.49 4.44,6.67C4.54,6.85 4.58,7.04 4.58,7.24Z"/>
	<path class="st0" d="M2.66,8.98L2.21,8.98L2.21,7.88L0.44,6.67C0.31,6.59 0.2,6.46 0.12,6.32C0.04,6.18 0,6.01 0,5.85L0,3.18C0,2.96 0.08,2.75 0.24,2.6C0.39,2.44 0.6,2.36 0.82,2.36L1.22,2.36C1.4,2.36 1.57,2.43 1.7,2.56C1.83,2.68 1.9,2.85 1.9,3.04L1.9,4.05L1.45,4.05L1.45,3.04C1.45,2.97 1.43,2.92 1.38,2.87C1.34,2.83 1.28,2.8 1.22,2.8L0.82,2.8C0.72,2.8 0.62,2.84 0.55,2.91C0.48,2.98 0.44,3.08 0.44,3.18L0.44,5.85C0.44,5.94 0.46,6.03 0.51,6.1C0.55,6.18 0.61,6.25 0.69,6.29L2.66,7.64Z"/>
	<path class="st0" d="M5.98,8.87L5.53,8.87L5.53,7.24C5.53,7.04 5.58,6.85 5.67,6.67C5.76,6.49 5.89,6.34 6.06,6.23L7.74,5.05L7.74,4.41C7.74,4.26 7.8,4.11 7.91,4C8.02,3.89 8.17,3.83 8.32,3.83L8.78,3.83C8.92,3.83 9.04,3.88 9.13,3.97C9.22,4.07 9.27,4.19 9.27,4.32L9.27,5.65L8.83,5.65L8.83,4.32L8.78,4.28L8.32,4.28C8.29,4.28 8.25,4.29 8.23,4.32C8.2,4.34 8.19,4.38 8.19,4.41L8.19,5.29L6.31,6.59C6.21,6.67 6.12,6.76 6.07,6.87C6.01,6.99 5.98,7.11 5.98,7.24Z"/>
	<path class="st0" d="M7.9,8.98L7.45,8.98L7.45,7.64L9.42,6.3C9.5,6.25 9.56,6.18 9.6,6.1C9.65,6.03 9.67,5.94 9.67,5.85L9.67,3.18C9.67,3.08 9.63,2.98 9.56,2.91C9.49,2.84 9.4,2.8 9.3,2.8L8.9,2.8C8.83,2.8 8.78,2.83 8.73,2.87C8.69,2.92 8.66,2.97 8.66,3.04L8.66,4.05L8.21,4.05L8.21,3.04C8.21,2.85 8.29,2.68 8.41,2.55C8.54,2.43 8.71,2.36 8.9,2.36L9.3,2.36C9.52,2.36 9.72,2.44 9.88,2.6C10.03,2.75 10.12,2.96 10.12,3.18L10.12,5.85C10.12,6.01 10.08,6.18 10,6.32C9.92,6.46 9.8,6.59 9.66,6.67L7.9,7.88Z"/>
	<path class="st0" d="M4.56,4.17L5.4,4.17L5.4,2.95C5.4,2.83 5.5,2.73 5.63,2.73L6.85,2.73L6.85,1.89L5.63,1.89C5.5,1.89 5.4,1.79 5.4,1.66L5.4,0.44L4.56,0.44L4.56,1.66C4.56,1.79 4.46,1.89 4.33,1.89L3.12,1.89L3.12,2.73L4.33,2.73C4.46,2.73 4.56,2.83 4.56,2.95ZM5.63,4.62L4.33,4.62C4.21,4.62 4.11,4.52 4.11,4.4L4.11,3.18L2.89,3.18C2.77,3.18 2.67,3.08 2.67,2.95L2.67,1.66C2.67,1.54 2.77,1.44 2.89,1.44L4.11,1.44L4.11,0.22C4.11,0.1 4.21,0 4.33,0L5.63,0C5.75,0 5.85,0.1 5.85,0.22L5.85,1.44L7.07,1.44C7.19,1.44 7.29,1.54 7.29,1.66L7.29,2.95C7.29,3.08 7.19,3.18 7.07,3.18L5.85,3.18L5.85,4.4C5.85,4.52 5.75,4.62 5.63,4.62"/>
</svg>