<svg xmlns="http://www.w3.org/2000/svg" width="9.91" height="8.85" viewBox="0 0 9.91 8.85">
	<style type="text/css">
		.st0{fill: crimson;}
	</style>
	<path class="st0" d="M2.71,0.44C1.96,0.44 1.24,0.82 0.82,1.44C0.4,2.05 0.33,2.79 0.62,3.52C1.76,6.48 4.32,8.06 4.84,8.35C5.33,8.13 7.74,6.95 9.21,3.91C9.58,3.16 9.53,2.33 9.09,1.61C8.64,0.9 7.86,0.45 7.06,0.45C6.32,0.45 5.62,0.82 5.02,1.52L4.84,1.73L4.67,1.51C4.15,0.82 3.45,0.44 2.71,0.44M4.81,8.84L4.72,8.8C4.59,8.73 1.52,7.12 0.2,3.68C-0.13,2.81 -0.04,1.92 0.45,1.19C0.95,0.45 1.82,0 2.71,0C3.51,0 4.27,0.36 4.86,1.03C5.67,0.19 6.49,0 7.06,0C8.01,0 8.93,0.53 9.46,1.38C9.99,2.22 10.05,3.22 9.62,4.11C7.89,7.67 5.02,8.77 4.9,8.81Z"/>
	<path class="st0" d="M5.19,6.66L3.63,2.81L2.7,4.72L0.85,4.72L0.85,4.36L2.48,4.36L3.67,1.93L5.2,5.72L6.35,2.96L7.13,4.36L9.28,4.36L9.28,4.72L6.92,4.72L6.4,3.78Z"/>
</svg>