<svg xmlns="http://www.w3.org/2000/svg" width="10.73" height="7.75" viewBox="0 0 10.73 7.75">
	<style type="text/css">
		.st0{fill: crimson;}
	</style>
	<path class="st0" d="M4.12,6.01L9.82,6.01C9.88,6.01 9.94,5.99 9.98,5.95C10.02,5.91 10.04,5.85 10.04,5.8L10.04,5.16C10.04,5.04 10.02,4.91 9.99,4.79C9.96,4.67 9.92,4.55 9.86,4.44L9.11,2.65C9,2.39 8.82,2.17 8.58,2.02C8.35,1.86 8.07,1.78 7.79,1.78L5.68,1.78C5.48,1.78 5.29,1.82 5.11,1.92C4.94,2.01 4.79,2.14 4.68,2.31L3.43,4.17C3.39,4.24 3.32,4.27 3.24,4.27L0.44,4.27L0.44,4.68ZM9.82,6.46L4.08,6.46C4.06,6.46 4.03,6.45 4.01,6.45L0.14,5.04C0.05,5.01 0,4.93 0,4.83L0,4.05C0,3.93 0.09,3.83 0.22,3.83L3.12,3.83L4.31,2.06C4.46,1.83 4.66,1.65 4.9,1.52C5.14,1.39 5.41,1.33 5.68,1.33L7.79,1.33C8.16,1.33 8.52,1.44 8.83,1.64C9.14,1.85 9.38,2.14 9.52,2.48L10.26,4.25C10.33,4.37 10.39,4.52 10.43,4.68C10.47,4.84 10.49,5 10.49,5.16L10.49,5.8C10.49,5.97 10.42,6.14 10.29,6.27C10.17,6.39 10,6.46 9.82,6.46"/>
	<path class="st0" d="M0.44,3.81L1.15,3.81L0.71,2.91L0.44,2.91ZM1.52,4.26C1.52,4.26 1.51,4.26 1.51,4.26L0.22,4.26C0.1,4.26 0,4.16 0,4.03L0,2.69C0,2.56 0.1,2.46 0.22,2.46L0.85,2.46C0.94,2.46 1.02,2.51 1.05,2.59L1.68,3.88C1.72,3.92 1.74,3.97 1.74,4.03C1.74,4.16 1.64,4.26 1.52,4.26"/>
	<path class="st0" d="M9.78,7.75L3.04,7.75C2.92,7.75 2.82,7.65 2.82,7.52C2.82,7.4 2.92,7.3 3.04,7.3L9.78,7.3C9.79,7.3 10.17,7.29 10.3,6.96C10.34,6.84 10.47,6.78 10.59,6.83C10.7,6.87 10.76,7 10.71,7.12C10.47,7.74 9.8,7.75 9.78,7.75"/>
	<path class="st0" d="M6.94,1.57C6.87,1.57 6.81,1.51 6.81,1.43L6.81,0.57C6.81,0.4 6.67,0.26 6.51,0.26C6.34,0.26 6.2,0.4 6.2,0.57L6.2,1.43C6.2,1.51 6.14,1.57 6.07,1.57C5.99,1.57 5.93,1.51 5.93,1.43L5.93,0.57C5.93,0.25 6.19,0 6.51,0C6.82,0 7.08,0.25 7.08,0.57L7.08,1.43C7.08,1.51 7.02,1.57 6.94,1.57"/>
	<path class="st0" d="M7.48,3.91L8.94,3.91L8.57,3.02C8.48,2.91 8.39,2.79 8.23,2.71C8.08,2.63 7.9,2.59 7.72,2.59L7.48,2.59ZM9.12,4.15L7.36,4.15C7.29,4.15 7.24,4.1 7.24,4.03L7.24,2.47C7.24,2.4 7.29,2.34 7.36,2.34L7.72,2.34C7.94,2.34 8.16,2.4 8.35,2.49C8.55,2.6 8.67,2.75 8.78,2.9L9.23,3.99C9.25,4.02 9.24,4.07 9.22,4.1C9.2,4.13 9.16,4.15 9.12,4.15"/>
	<path class="st0" d="M7.1,0.94C7.18,0.94 7.33,0.94 7.59,0.94C8.15,0.94 8.92,0.93 9.23,0.92L9.23,0.56L7.1,0.76ZM7.59,1.21C6.88,1.21 6.83,1.21 6.83,1.06L6.83,0.64C6.83,0.57 6.89,0.51 6.96,0.5L9.35,0.28C9.39,0.27 9.43,0.28 9.46,0.31C9.48,0.34 9.5,0.37 9.5,0.41L9.5,1.06C9.5,1.13 9.44,1.19 9.37,1.19C9.37,1.19 8.3,1.21 7.59,1.21"/>
	<path class="st0" d="M3.8,0.92C4.11,0.93 4.89,0.94 5.45,0.94C5.71,0.94 5.85,0.94 5.93,0.94L5.93,0.76L3.8,0.56ZM5.45,1.21C4.73,1.21 3.67,1.19 3.67,1.19C3.59,1.19 3.54,1.13 3.54,1.06L3.54,0.41C3.54,0.37 3.55,0.34 3.58,0.31C3.61,0.28 3.64,0.27 3.68,0.28L6.08,0.5C6.15,0.51 6.2,0.57 6.2,0.64L6.2,1.06C6.2,1.21 6.16,1.21 5.45,1.21"/>
	<path class="st0" d="M4.92,7.58C4.82,7.58 4.74,7.5 4.74,7.4L4.74,6.26C4.74,6.16 4.82,6.08 4.92,6.08C5.02,6.08 5.1,6.16 5.1,6.26L5.1,7.4C5.1,7.5 5.02,7.58 4.92,7.58"/>
	<path class="st0" d="M8.89,7.58C8.79,7.58 8.71,7.5 8.71,7.4L8.71,6.26C8.71,6.16 8.79,6.08 8.89,6.08C8.99,6.08 9.07,6.16 9.07,6.26L9.07,7.4C9.07,7.5 8.99,7.58 8.89,7.58"/>
	<path class="st0" d="M6.65,6.23C6.6,6.23 6.56,6.19 6.56,6.14L6.56,2.47C6.56,2.42 6.6,2.38 6.65,2.38C6.7,2.38 6.74,2.42 6.74,2.47L6.74,6.14C6.74,6.19 6.7,6.23 6.65,6.23"/>
	<path class="st0" d="M8.09,4.72L7.45,4.72C7.39,4.72 7.34,4.67 7.34,4.61C7.34,4.55 7.39,4.5 7.45,4.5L8.09,4.5C8.15,4.5 8.2,4.55 8.2,4.61C8.2,4.67 8.15,4.72 8.09,4.72"/>
</svg>