<svg xmlns="http://www.w3.org/2000/svg" width="10.63" height="9.23" viewBox="0 0 10.63 9.23">
	<style type="text/css">
		.st0{fill: crimson;}
	</style>
	<path class="st0" d="M3.67,1.96C3.39,1.96 2.92,2.32 2.69,2.55C0.36,4.83 0.4,6.48 0.43,7.69C0.43,7.82 0.43,7.95 0.43,8.08C0.43,8.48 0.52,8.65 0.59,8.73C0.62,8.76 0.68,8.8 0.8,8.8C1.12,8.8 1.56,8.52 1.78,8.38C2.51,7.91 2.69,7.86 3.04,7.79C3.16,7.77 3.31,7.74 3.53,7.67C4.03,7.53 3.94,6.61 3.94,6.6L3.94,2.63C3.94,2.18 3.85,1.96 3.67,1.96M0.8,9.23C0.6,9.23 0.42,9.16 0.29,9.03C0.1,8.83 0.01,8.52 0.01,8.08C0.01,7.95 0.01,7.83 0,7.7C-0.02,6.42 -0.06,4.66 2.4,2.24C2.47,2.17 3.12,1.53 3.67,1.53C3.93,1.53 4.37,1.68 4.37,2.63L4.37,6.58C4.37,6.61 4.49,7.83 3.65,8.08C3.41,8.15 3.25,8.18 3.12,8.21C2.83,8.26 2.7,8.29 2.03,8.72C1.74,8.91 1.24,9.23 0.8,9.23"/>
	<path class="st0" d="M6.95,1.96C6.77,1.96 6.68,2.18 6.68,2.63L6.68,6.58C6.68,6.61 6.6,7.53 7.09,7.67C7.32,7.74 7.46,7.77 7.59,7.79C7.93,7.86 8.11,7.91 8.82,8.36C9.06,8.52 9.51,8.8 9.82,8.8C9.94,8.8 10,8.76 10.03,8.73C10.11,8.65 10.19,8.48 10.19,8.08C10.19,7.95 10.19,7.82 10.2,7.69C10.22,6.48 10.26,4.83 7.93,2.55C7.7,2.32 7.23,1.96 6.95,1.96M9.82,9.23L9.82,9.23C9.38,9.23 8.88,8.91 8.62,8.74C7.92,8.29 7.79,8.27 7.51,8.21C7.37,8.18 7.21,8.15 6.97,8.08C6.13,7.83 6.25,6.61 6.26,6.56L6.26,2.63C6.26,1.68 6.69,1.53 6.95,1.53C7.5,1.53 8.16,2.17 8.23,2.25C10.69,4.66 10.65,6.42 10.62,7.7C10.62,7.83 10.62,7.95 10.62,8.08C10.62,8.52 10.52,8.83 10.33,9.03C10.2,9.16 10.03,9.23 9.82,9.23"/>
	<path class="st0" d="M6.37,3.54C6.35,3.54 6.33,3.54 6.31,3.54C6.28,3.52 5.48,3.26 5.48,2.58L5.48,0.35L5.06,0.35L5.06,2.58C5.06,3.26 4.25,3.52 4.22,3.54C4.12,3.57 4.02,3.51 3.99,3.42C3.96,3.32 4.01,3.22 4.11,3.19C4.11,3.19 4.7,3 4.7,2.58L4.7,0.17C4.7,0.08 4.78,0 4.88,0L5.66,0C5.76,0 5.84,0.08 5.84,0.17L5.84,2.58C5.84,3 6.42,3.19 6.42,3.19C6.52,3.22 6.57,3.32 6.54,3.42C6.51,3.49 6.44,3.54 6.37,3.54"/>
	<path class="st0" d="M4.16,4.52C4.07,4.52 4,4.46 3.98,4.38C3.96,4.28 4.02,4.19 4.12,4.17C4.14,4.16 4.67,4.04 5.09,3.42C5.13,3.37 5.2,3.33 5.25,3.34C5.31,3.34 5.36,3.38 5.39,3.43C5.52,3.63 5.93,4.16 6.37,4.16C6.47,4.16 6.55,4.24 6.55,4.34C6.55,4.44 6.47,4.52 6.37,4.52C5.86,4.52 5.45,4.09 5.24,3.82C4.76,4.39 4.22,4.51 4.19,4.52C4.18,4.52 4.17,4.52 4.16,4.52"/>
	<path class="st0" d="M5.66,1.16L4.88,1.16C4.8,1.16 4.74,1.1 4.74,1.02C4.74,0.95 4.8,0.89 4.88,0.89L5.66,0.89C5.73,0.89 5.79,0.95 5.79,1.02C5.79,1.1 5.73,1.16 5.66,1.16"/>
	<path class="st0" d="M5.66,1.84L4.88,1.84C4.8,1.84 4.74,1.78 4.74,1.7C4.74,1.63 4.8,1.57 4.88,1.57L5.66,1.57C5.73,1.57 5.79,1.63 5.79,1.7C5.79,1.78 5.73,1.84 5.66,1.84"/>
	<path class="st0" d="M5.66,2.51L4.88,2.51C4.8,2.51 4.74,2.45 4.74,2.37C4.74,2.3 4.8,2.24 4.88,2.24L5.66,2.24C5.73,2.24 5.79,2.3 5.79,2.37C5.79,2.45 5.73,2.51 5.66,2.51"/>
</svg>