<?xml version="1.0" standalone="no"?>
<!DOCTYPE svg PUBLIC "-//W3C//DTD SVG 20010904//EN"
 "http://www.w3.org/TR/2001/REC-SVG-20010904/DTD/svg10.dtd">
<svg version="1.0" xmlns="http://www.w3.org/2000/svg"
 width="50" height="50" viewBox="0 0 920.000000 920.000000"
 preserveAspectRatio="xMidYMid meet">
<g transform="translate(0.000000,920.000000) scale(0.100000,-0.100000)"
fill="#fff" stroke="none">
<path d="M4297 9189 c-708 -45 -1418 -265 -2035 -631 -1155 -683 -1972 -1864
-2191 -3164 -167 -995 -26 -1966 415 -2845 608 -1216 1726 -2105 3045 -2423
900 -217 1896 -146 2759 197 1528 607 2628 1997 2859 3612 37 259 45 369 45
665 0 297 -7 402 -45 665 -84 587 -285 1156 -591 1673 -884 1494 -2527 2362
-4261 2251z m808 -808 c837 -114 1595 -491 2190 -1086 604 -603 982 -1375
1092 -2230 28 -220 25 -742 -5 -964 -132 -958 -589 -1788 -1332 -2422 -518
-443 -1209 -754 -1895 -853 -400 -58 -929 -44 -1310 34 -1105 227 -2059 934
-2598 1925 -226 416 -372 869 -434 1350 -26 200 -26 730 0 930 144 1121 748
2093 1692 2720 345 229 735 402 1150 510 203 53 360 79 650 109 22 2 177 2
345 1 239 -3 337 -8 455 -24z"/>
<path d="M4857 7220 c-82 -21 -153 -71 -196 -138 -63 -99 -61 -50 -61 -1324
l0 -1158 -857 -2 -858 -3 -56 -26 c-126 -59 -193 -163 -193 -299 -1 -135 71
-243 200 -302 l49 -23 1060 0 1060 0 55 26 c77 36 121 77 161 151 l34 63 0
1400 0 1400 -23 46 c-71 144 -232 224 -375 189z"/>
</g>
</svg>
