<?xml version="1.0" standalone="no"?>
<!DOCTYPE svg PUBLIC "-//W3C//DTD SVG 20010904//EN"
 "http://www.w3.org/TR/2001/REC-SVG-20010904/DTD/svg10.dtd">
<svg version="1.0" xmlns="http://www.w3.org/2000/svg"
 width="20.000000pt" height="20.000000pt" viewBox="0 0 20.000000 20.000000"
 preserveAspectRatio="xMidYMid meet">
<metadata>
Created by potrace 1.16, written by Peter Selinger 2001-2019
</metadata>
<g transform="translate(0.000000,20.000000) scale(0.004167,-0.006536)"
fill="#000000" stroke="none">
<path d="M1400 3055 c-8 -2 -55 -9 -105 -15 -306 -42 -653 -221 -867 -448
-392 -417 -526 -997 -353 -1532 246 -759 1019 -1193 1816 -1020 557 121 947
522 1070 1103 19 85 22 136 23 307 1 113 -3 226 -7 253 l-8 47 -720 0 -719 0
0 -265 0 -265 430 0 c379 0 430 -2 430 -15 0 -24 -38 -132 -67 -189 -39 -79
-131 -194 -202 -252 -108 -90 -257 -157 -411 -185 -92 -17 -290 -14 -379 5
-399 88 -697 425 -744 843 -54 485 272 944 745 1049 117 26 309 22 430 -10
114 -29 228 -86 313 -155 l61 -49 64 61 c36 33 129 122 207 198 l142 138 -49
44 c-64 58 -209 156 -287 196 -155 77 -304 123 -483 147 -92 12 -287 17 -330
9z"/>
<path d="M3936 2183 c-3 -4 -6 -102 -6 -220 l0 -213 -220 0 -220 0 0 -220 0
-220 220 0 220 0 0 -221 0 -221 23 6 c12 3 109 6 215 6 l192 0 0 215 0 215
220 0 220 0 0 220 0 220 -220 0 -220 0 -2 218 -3 217 -206 2 c-114 1 -209 -1
-213 -4z"/>
</g>
</svg>
