<?xml version="1.0" standalone="no"?>
<!DOCTYPE svg PUBLIC "-//W3C//DTD SVG 20010904//EN"
 "http://www.w3.org/TR/2001/REC-SVG-20010904/DTD/svg10.dtd">
<svg version="1.0" xmlns="http://www.w3.org/2000/svg"
 width="50" height="50" viewBox="0 0 981.000000 758.000000"
 preserveAspectRatio="xMidYMid meet">
<g transform="translate(0.000000,758.000000) scale(0.100000,-0.100000)"
fill="#fff" stroke="none">
<path d="M996 7569 c-498 -53 -900 -435 -981 -930 -13 -83 -15 -426 -15 -2849
0 -2423 2 -2766 15 -2849 67 -411 359 -752 753 -880 183 -60 -102 -56 4137
-56 3711 0 3904 1 3988 18 434 88 755 392 875 825 l27 97 3 2795 c3 3055 6
2891 -54 3068 -127 380 -429 651 -829 745 l-90 22 -3875 1 c-2131 1 -3910 -2
-3954 -7z m7560 -660 c32 -6 65 -14 73 -18 9 -6 -472 -459 -1570 -1482 -871
-810 -1592 -1483 -1602 -1494 -108 -124 -109 -125 -143 -125 -19 0 -34 -4 -34
-9 0 -18 -91 -110 -140 -141 -194 -124 -453 -78 -590 105 -27 37 -40 45 -65
45 -33 0 -55 19 -108 92 -15 20 -742 704 -1617 1519 -875 815 -1588 1484
-1585 1487 29 30 114 30 3716 31 2570 1 3622 -2 3665 -10z m-6441 -1794 c709
-660 1318 -1227 1353 -1260 l63 -60 -1387 -1280 c-843 -777 -1398 -1297 -1415
-1323 l-28 -44 -13 44 c-19 64 -19 5132 0 5196 l13 44 62 -59 c34 -32 642
-599 1352 -1258z m7004 1223 c15 -109 11 -5109 -4 -5151 l-10 -28 -31 43 c-17
24 -653 617 -1413 1318 l-1382 1275 113 107 c354 333 2704 2517 2709 2518 4 0
12 -37 18 -82z m-4876 -3217 c332 -242 775 -283 1142 -106 118 57 195 114 303
222 l104 103 57 -52 c31 -29 661 -611 1400 -1293 738 -682 1358 -1249 1377
-1260 18 -11 34 -23 34 -26 0 -3 -21 -12 -47 -19 -40 -12 -637 -15 -3633 -17
-3461 -4 -3738 -2 -3810 25 -24 9 -24 9 15 35 22 14 668 605 1435 1314 l1395
1289 85 -86 c47 -48 111 -106 143 -129z"/>
</g>
</svg>
