<?xml version="1.0" standalone="no"?>
<!DOCTYPE svg PUBLIC "-//W3C//DTD SVG 20010904//EN"
 "http://www.w3.org/TR/2001/REC-SVG-20010904/DTD/svg10.dtd">
<svg version="1.0" xmlns="http://www.w3.org/2000/svg"
 width="50" height="50" viewBox="0 0 1200.000000 1200.000000"
 preserveAspectRatio="xMidYMid meet">
<g transform="translate(0.000000,1200.000000) scale(0.100000,-0.100000)"
fill="#fff" stroke="none">
<path d="M4192 10825 c-434 -79 -784 -388 -920 -815 -61 -190 -57 67 -57
-4010 0 -4077 -4 -3820 57 -4010 137 -428 491 -740 925 -815 78 -14 298 -15
1844 -12 l1754 2 81 22 c479 129 820 504 896 983 19 126 19 7534 0 7660 -80
508 -470 908 -969 995 -74 13 -324 15 -1812 14 -1381 -1 -1741 -3 -1799 -14z
m3858 -4365 l0 -3040 -2050 0 -2050 0 0 3040 0 3040 2050 0 2050 0 0 -3040z
m-1928 -3541 c82 -17 191 -75 260 -139 208 -191 242 -498 82 -733 -190 -277
-572 -326 -834 -107 -67 56 -141 170 -170 261 -97 298 90 632 400 713 66 18
190 20 262 5z"/>
</g>
</svg>
