<?xml version="1.0" standalone="no"?>
<!DOCTYPE svg PUBLIC "-//W3C//DTD SVG 20010904//EN"
 "http://www.w3.org/TR/2001/REC-SVG-20010904/DTD/svg10.dtd">
<svg version="1.0" xmlns="http://www.w3.org/2000/svg"
 width="50" height="50" viewBox="0 0 800.000000 800.000000"
 preserveAspectRatio="xMidYMid meet">
<metadata>
Created by potrace 1.16, written by Peter Selinger 2001-2019
</metadata>
<g transform="translate(0.000000,800.000000) scale(0.100000,-0.100000)"
fill="#000000" stroke="none">
<path d="M1490 7994 c0 -4 149 -331 330 -728 l330 -722 0 -837 0 -837 265 0
265 0 0 839 0 839 306 714 c168 392 308 719 311 726 4 10 -55 12 -288 10
l-294 -3 -161 -528 -161 -527 -159 527 -160 528 -292 3 c-161 1 -292 -1 -292
-4z"/>
<path d="M3748 7210 c-83 -15 -146 -40 -220 -89 -167 -109 -235 -243 -268
-526 -13 -118 -13 -1003 1 -1136 17 -174 61 -302 142 -413 87 -119 268 -186
509 -186 339 0 556 173 630 501 20 88 22 127 25 649 5 623 0 698 -57 835 -105
250 -280 361 -585 370 -71 2 -151 0 -177 -5z m249 -381 c53 -25 106 -86 121
-138 15 -49 17 -1238 2 -1291 -5 -19 -24 -52 -41 -73 -85 -104 -239 -106 -324
-5 -57 67 -55 47 -55 723 0 690 -2 665 63 734 66 69 155 88 234 50z"/>
<path d="M4883 6193 c4 -976 5 -1005 47 -1100 27 -62 112 -147 173 -174 76
-34 230 -34 304 0 48 21 106 73 161 146 l23 30 -5 -82 -5 -83 279 0 280 0 0
1100 0 1100 -220 0 -220 0 0 -870 c0 -965 4 -903 -66 -957 -29 -21 -50 -28
-99 -31 -80 -5 -136 21 -165 78 -20 38 -20 57 -20 910 l0 870 -235 0 -235 0 3
-937z"/>
<path d="M1446 4419 c-510 -59 -924 -399 -1020 -839 -15 -68 -16 -201 -14
-1405 l3 -1330 28 -85 c126 -375 468 -657 899 -741 95 -18 182 -19 2652 -19
2785 0 2619 -3 2814 56 46 14 136 52 200 85 266 135 457 349 545 609 l32 95 0
1365 0 1365 -36 102 c-20 55 -55 135 -78 176 -176 306 -537 526 -932 567 -121
12 -4986 12 -5093 -1z m1054 -974 l0 -185 -300 0 -300 0 0 -1240 0 -1240 -240
0 -240 0 0 1245 0 1245 -255 0 -255 0 0 180 0 180 795 0 795 0 0 -185z m1992
-229 l3 -415 70 45 c149 94 295 136 402 114 75 -16 117 -38 179 -94 58 -51
106 -135 131 -227 16 -58 18 -124 18 -724 0 -694 0 -697 -47 -845 -26 -83 -60
-142 -117 -203 -64 -69 -109 -90 -207 -95 -131 -7 -250 38 -402 153 -40 30
-77 55 -81 55 -4 0 -13 -38 -20 -84 -12 -82 -14 -84 -43 -90 -17 -3 -109 -6
-204 -6 l-174 0 0 1415 0 1415 245 0 245 0 2 -414z m1953 -231 c86 -22 152
-52 217 -98 62 -43 93 -78 127 -145 46 -90 53 -162 58 -569 l5 -383 -426 0
-426 0 0 -279 c0 -290 3 -316 43 -360 41 -45 93 -61 200 -61 104 0 152 13 195
53 46 43 52 67 52 222 l0 145 184 0 183 0 12 -89 c27 -210 -42 -382 -202 -509
-133 -106 -257 -152 -407 -152 -107 0 -192 20 -284 66 -193 97 -296 225 -349
432 -21 85 -22 102 -22 612 0 510 1 528 23 630 13 58 39 138 58 178 81 168
254 290 456 321 81 13 226 6 303 -14z m-3552 -247 c4 -83 7 -456 7 -828 l0
-676 26 -52 c44 -89 103 -102 197 -42 32 20 54 44 72 79 l25 50 0 811 0 810
240 0 240 0 0 -1055 0 -1055 -197 2 -198 3 3 135 3 135 -22 -30 c-91 -121
-263 -219 -444 -252 -176 -32 -326 20 -379 132 -41 84 -46 206 -51 1128 l-5
857 239 0 238 0 6 -152z"/>
<path d="M4612 2687 c-18 -7 -48 -25 -67 -40 -69 -55 -66 -15 -63 -753 l3
-666 47 -43 c101 -92 268 -85 363 15 l30 31 3 657 c1 361 0 667 -3 679 -9 37
-57 85 -110 109 -56 27 -146 31 -203 11z"/>
<path d="M6135 2591 c-48 -22 -99 -77 -113 -123 -6 -18 -13 -99 -16 -180 l-6
-148 239 0 239 0 7 63 c4 34 5 112 3 173 -3 104 -5 113 -32 148 -43 57 -113
86 -206 86 -51 0 -88 -6 -115 -19z"/>
</g>
</svg>
