<svg width="242" height="242" viewBox="0 0 242 242" fill="none" xmlns="http://www.w3.org/2000/svg">
<path d="M236.029 1.03812L198.99 38.0774C195.749 36.5356 188.95 34.3455 173.672 31.6648C169.187 30.8763 163.352 32.7511 160.093 36.01L146.147 49.9566L90.2023 105.866C78.726 94.5124 60.1363 94.53 48.7126 105.971C37.2364 117.447 37.2364 136.107 48.7126 147.583C50.0793 148.95 52.3044 148.95 53.6711 147.583C55.0377 146.217 55.0377 143.992 53.6711 142.625C44.9281 133.882 44.9281 119.673 53.6711 110.93C62.414 102.187 76.6235 102.187 85.3665 110.93L131.079 156.642C135.319 160.882 137.649 166.506 137.649 172.498C137.649 178.49 135.319 184.115 131.079 188.355C126.839 192.595 121.214 194.925 115.222 194.925C109.23 194.925 103.606 192.595 99.3657 188.355C97.9991 186.988 95.7739 186.988 94.4073 188.355C93.0407 189.721 93.0407 191.947 94.4073 193.313C99.9615 198.867 107.355 201.933 115.205 201.933C123.072 201.933 130.448 198.867 136.002 193.313C141.556 187.759 144.622 180.365 144.622 172.498C144.622 164.684 141.591 157.36 136.107 151.806L205.981 81.9324C209.24 78.6735 211.114 72.8215 210.326 68.3536C207.663 53.0754 205.455 46.2597 203.913 43.0183L240.935 5.99655C242.302 4.62991 242.302 2.40475 240.935 1.03812C239.621 -0.346039 237.396 -0.346039 236.029 1.03812ZM201.057 76.974L131.201 146.848L95.1607 110.824L103.396 102.59C110.807 104.64 117.728 108.704 123.51 114.486C125.454 116.431 127.259 118.551 128.818 120.776C129.502 121.74 130.588 122.266 131.692 122.266C132.393 122.266 133.094 122.055 133.707 121.617C135.284 120.496 135.669 118.306 134.548 116.729C132.743 114.188 130.693 111.753 128.468 109.528C122.791 103.851 116.133 99.611 108.967 97.0179L126.488 79.497C133.9 81.5469 140.82 85.6118 146.602 91.3937C148.565 93.3561 150.352 95.4761 151.911 97.6837C152.594 98.6474 153.681 99.173 154.785 99.173C155.485 99.173 156.186 98.9628 156.799 98.5247C158.376 97.4034 158.762 95.2133 157.64 93.6364C155.836 91.0958 153.803 88.6604 151.561 86.4353C145.884 80.7585 139.226 76.5184 132.06 73.9253L149.581 56.4043C156.992 58.4543 163.913 62.5192 169.695 68.3011C171.657 70.2634 173.444 72.3835 175.004 74.5911C175.687 75.5548 176.773 76.0804 177.877 76.0804C178.578 76.0804 179.279 75.8701 179.892 75.4321C181.469 74.3108 181.854 72.1207 180.733 70.5438C178.928 68.0032 176.896 65.5853 174.653 63.3427C168.977 57.6659 162.319 53.4258 155.152 50.8327L165.034 40.9509C166.681 39.3039 170.221 38.165 172.446 38.5505C189.599 41.5641 195.959 44.0346 197.01 45.0157C198.009 46.067 200.479 52.4271 203.458 69.5626C203.861 71.7878 202.704 75.327 201.057 76.974Z" fill="white"/>
<path d="M112.316 158.85C110.056 152.595 106.131 146.55 100.927 141.346C95.6011 136.02 89.4162 132.025 83.0211 129.8C79.6045 128.608 74.9614 129.782 72.2282 132.516L27.2343 177.509C24.6763 176.879 22.1708 176.546 19.7354 176.546C13.9359 176.546 8.99501 178.42 5.45578 181.96C-4.56621 191.982 -0.413744 211.833 14.8996 227.146C24.2032 236.45 35.7495 242.004 45.8065 242.004C51.606 242.004 56.5469 240.129 60.0861 236.59C65.3424 231.334 66.6565 223.379 64.5715 214.794L109.653 169.678C112.404 166.927 113.543 162.266 112.316 158.85ZM77.1515 137.474C78.0101 136.615 79.9023 136.142 80.6908 136.423C85.1061 137.965 89.4337 140.54 93.376 143.922L48.0668 189.021C43.8267 185.236 39.2187 182.205 34.5406 180.085L77.1515 137.474ZM55.0927 231.632C52.3068 234.417 48.4873 234.996 45.754 234.996C37.6418 234.996 27.7074 230.09 19.8054 222.188C7.68094 210.063 3.37078 193.909 10.3616 186.918C13.1475 184.132 16.967 183.554 19.7003 183.554C27.8125 183.554 37.7469 188.46 45.6489 196.362C57.7734 208.486 62.101 224.641 55.0927 231.632ZM104.694 164.719L61.9609 207.453C59.8584 202.862 56.8798 198.272 53.0252 193.962L98.3344 148.863C101.628 152.7 104.169 156.922 105.728 161.215C105.991 162.003 105.535 163.878 104.694 164.719Z" fill="white"/>
</svg>
