<svg width="14" height="14" viewBox="0 0 14 14" fill="none" xmlns="http://www.w3.org/2000/svg">
<path d="M12.2526 6.39893L7.56423 10.8207C6.98987 11.3623 6.21087 11.6667 5.3986 11.6667C4.58633 11.6667 3.80733 11.3623 3.23297 10.8207C2.65861 10.279 2.33594 9.54426 2.33594 8.77819C2.33594 8.01212 2.65861 7.27743 3.23297 6.73573L7.92134 2.31401C8.30425 1.95288 8.82358 1.75 9.3651 1.75C9.90661 1.75 10.4259 1.95288 10.8089 2.31401C11.1918 2.67514 11.4069 3.16494 11.4069 3.67565C11.4069 4.18636 11.1918 4.67616 10.8089 5.03729L6.11538 9.45901C5.92392 9.63958 5.66426 9.74102 5.3935 9.74102C5.12274 9.74102 4.86308 9.63958 4.67162 9.45901C4.48017 9.27845 4.37261 9.03355 4.37261 8.77819C4.37261 8.52284 4.48017 8.27794 4.67162 8.09737L9.00288 4.01726" stroke="white" stroke-linecap="round" stroke-linejoin="round"/>
</svg>
