<svg width="223" height="204" viewBox="0 0 223 204" fill="none" xmlns="http://www.w3.org/2000/svg">
<path d="M66.8111 100.172C41.4472 115.988 21.4744 131.024 13.2417 140.507C10.8709 143.252 10.5461 147.149 12.446 150.461C14.0211 153.222 16.7491 154.829 19.6557 154.829C20.1429 154.829 20.63 154.781 21.1009 154.699C33.3769 152.41 56.4675 142.602 83.1142 128.41L84.8517 131.43C86.7353 134.678 90.1453 136.497 93.6527 136.497C95.3739 136.497 97.1114 136.058 98.7028 135.149L113.285 126.737C116.76 130.147 121.046 132.648 125.885 133.947C128.337 134.613 130.838 134.938 133.322 134.938C138.275 134.938 143.146 133.639 147.547 131.106L217.354 90.8026C219.969 89.2924 221.836 86.8567 222.616 83.9501C223.395 81.0435 222.989 77.9907 221.479 75.3764L181.322 5.76369C179.812 3.14935 177.376 1.28197 174.47 0.502545C171.547 -0.276883 168.51 0.129069 165.896 1.63921L96.0884 41.9422C89.4795 45.7581 84.7705 51.9123 82.7894 59.2682C81.4904 64.0909 81.5066 69.0598 82.7407 73.7851L68.1589 82.1964C65.8044 83.5441 64.1319 85.7363 63.4336 88.3669C62.7354 90.9812 63.0926 93.7254 64.4566 96.0637L66.8111 100.172ZM19.9155 148.302C18.86 148.497 18.1943 147.441 18.0806 147.214C17.9507 146.97 17.3012 145.72 18.1456 144.746C25.9561 135.75 45.3119 121.233 70.0588 105.774L79.8666 122.759C54.2266 136.415 31.3796 146.158 19.9155 148.302ZM186.112 101.309L170.784 74.7593C169.891 73.2005 167.91 72.6809 166.351 73.574C164.792 74.4671 164.272 76.4643 165.165 78.007L180.494 104.556L171.336 109.85L151.964 76.302C151.071 74.7431 149.073 74.2072 147.531 75.1166C145.972 76.0097 145.452 78.007 146.345 79.5496L165.701 113.097L151.769 121.135L122.638 70.6511L170.995 42.7216L200.126 93.1896L186.112 101.309ZM69.7015 90.0394C69.9613 89.0976 70.5621 88.3181 71.4065 87.831L85.1277 79.9068C85.3063 80.2478 85.4687 80.5888 85.6473 80.9298L99.5309 104.978C100.424 106.537 102.421 107.057 103.964 106.164C105.523 105.271 106.042 103.273 105.149 101.731L91.2657 77.6822C88.3266 72.5834 87.5309 66.6403 89.0573 60.957C90.5837 55.2736 94.2373 50.5159 99.336 47.5768L169.144 7.25759C170.248 6.60807 171.547 6.44569 172.781 6.77045C174.015 7.09521 175.054 7.89088 175.688 9.01131L215.861 78.5753C216.51 79.6795 216.673 80.9785 216.348 82.2126C216.023 83.4467 215.227 84.486 214.107 85.1192L205.76 89.942L175.006 36.6648C174.567 35.9178 173.869 35.382 173.041 35.1546C172.213 34.9273 171.319 35.041 170.573 35.4794L116.581 66.6565C115.834 67.095 115.298 67.7932 115.071 68.6213C114.843 69.4495 114.957 70.3426 115.396 71.0895L146.15 124.367L144.299 125.438C139.201 128.378 133.257 129.157 127.574 127.647C121.891 126.12 117.133 122.467 114.178 117.368L111.904 113.438C111.011 111.88 109.03 111.344 107.471 112.253C105.912 113.146 105.393 115.143 106.286 116.686L108.559 120.616C108.754 120.957 108.981 121.265 109.176 121.59L95.4551 129.514C93.7177 130.521 91.4768 129.92 90.47 128.183L70.0588 92.7999C69.5716 91.9555 69.4417 90.9812 69.7015 90.0394Z" fill="white"/>
<path d="M15.738 203.884C23.9545 203.884 30.6283 197.21 30.6283 188.994C30.6283 178.748 19.4565 165.611 18.1899 164.149C17.5729 163.435 16.696 163.094 15.7217 163.029C14.7799 163.029 13.8706 163.451 13.2698 164.182C11.987 165.692 0.847656 179.137 0.847656 188.994C0.847656 197.21 7.52151 203.884 15.738 203.884ZM15.7705 171.505C19.3104 176.198 24.1331 183.781 24.1331 188.994C24.1331 193.622 20.3658 197.389 15.738 197.389C11.1101 197.389 7.34289 193.622 7.34289 188.994C7.34289 183.992 12.2143 176.296 15.7705 171.505Z" fill="white"/>
</svg>
