<svg width="156" height="218" viewBox="0 0 156 218" fill="none" xmlns="http://www.w3.org/2000/svg">
<path fill-rule="evenodd" clip-rule="evenodd" d="M108.54 0.00136896C110.954 1.14925 111.616 3.10481 111.712 5.69489C111.909 10.9969 110.599 15.6076 106.855 19.5009C104.691 21.7515 103.886 24.6236 103.881 27.7037C103.879 29.492 103.876 31.2803 103.873 33.0686C103.86 41.1432 103.846 49.2181 103.901 57.2926C103.95 64.4687 105.603 71.3135 108.333 77.9475C123.43 114.634 138.499 151.332 153.543 188.04C158.716 200.666 152.493 213.799 139.715 217.219C137.755 217.744 135.655 217.959 133.618 217.962C96.3323 218.005 59.0465 218.017 21.7607 217.982C5.50225 217.967 -4.33396 203.054 1.88217 187.885C16.8721 151.308 31.8751 114.736 46.9218 78.1816C49.9323 70.8686 51.5331 63.3365 51.4605 55.4157C51.3769 46.334 51.4105 37.2509 51.4564 28.1685C51.4735 24.6783 50.5789 21.5393 48.1137 19.0313C43.8833 14.726 43.3292 9.43354 43.7511 3.82283C43.8939 1.92512 45.2406 1.01674 46.6013 0.0989221L46.7479 0H108.539L108.54 0.00136896ZM8.61681 195.032C7.60442 203.309 13.4774 209.47 22.0834 209.474C59.1479 209.487 96.2124 209.489 133.277 209.449C134.953 209.447 136.713 209.25 138.291 208.72C145.701 206.23 148.751 198.838 145.574 191.075C140.892 179.631 136.198 168.193 131.504 156.755L131.501 156.748L131.498 156.742C125.788 142.827 120.078 128.912 114.388 114.989C113.842 113.652 113.158 113.246 111.731 113.252C99.99 113.297 88.2484 113.293 76.507 113.289H76.5016C73.2628 113.288 70.0241 113.287 66.7854 113.287C65.1629 113.287 63.5405 113.287 61.9181 113.286C55.7298 113.283 49.5416 113.28 43.3538 113.321C42.6983 113.325 41.6585 113.634 41.4537 114.093C40.2301 116.839 39.0996 119.627 37.9285 122.516L37.9285 122.516C37.5669 123.408 37.2014 124.309 36.8281 125.222C37.3263 125.222 37.791 125.214 38.2328 125.206C39.1381 125.19 39.9469 125.176 40.7502 125.237C43.4175 125.44 45.1176 127.18 45.082 129.561C45.0464 131.952 43.2949 133.616 40.603 133.704C39.6605 133.735 38.7166 133.73 37.7727 133.724H37.7717C36.7273 133.719 35.6828 133.713 34.6403 133.756C34.104 133.778 33.2751 134.05 33.1053 134.438C31.8748 137.243 30.7131 140.077 29.5001 143.037L29.4981 143.042C29.1472 143.898 28.792 144.765 28.4296 145.644C28.7752 145.644 29.0893 145.641 29.3819 145.637H29.3831H29.3835C29.9875 145.631 30.5005 145.625 31.012 145.653L31.2179 145.664C31.9261 145.702 32.6451 145.74 33.3231 145.913C35.3225 146.424 36.6062 148.177 36.5082 150.128C36.4096 152.087 34.9574 153.765 32.9416 154.052C32.0656 154.176 31.1686 154.169 30.2743 154.161H30.2739C30.0291 154.159 29.7845 154.156 29.5407 154.157C26.4683 154.163 24.3383 155.612 23.1506 158.502C22.4506 160.209 21.7526 161.917 21.0128 163.727L21.0064 163.743C20.6899 164.517 20.3657 165.31 20.0305 166.13C20.5631 166.13 21.0453 166.118 21.4929 166.107H21.4934C22.3852 166.085 23.1397 166.067 23.8821 166.152C26.3391 166.433 28.055 168.354 27.9406 170.543C27.8228 172.802 26.0432 174.477 23.5252 174.575C22.6131 174.61 21.6993 174.604 20.7857 174.598C19.7817 174.592 18.7779 174.586 17.7763 174.634C17.2461 174.659 16.4378 174.974 16.2638 175.375C15.0523 178.17 13.908 180.993 12.7219 183.92C12.3743 184.778 12.0231 185.644 11.6656 186.521C12.0966 186.521 12.4935 186.518 12.8674 186.515H12.8678C13.6234 186.508 14.2853 186.502 14.946 186.528C17.8674 186.638 19.8099 188.385 19.7812 190.843C19.7524 193.301 17.8002 194.981 14.8576 195.028C13.4536 195.051 12.049 195.045 10.6097 195.04C9.95433 195.037 9.2918 195.034 8.61887 195.034L8.61681 195.032ZM109.713 103.818C109.818 104.092 109.93 104.384 110.053 104.702H45.3149C45.4213 104.418 45.5195 104.15 45.6135 103.894L45.6136 103.894L45.6137 103.893C45.8008 103.383 45.9712 102.919 46.1567 102.461C47.2194 99.8336 48.2887 97.209 49.3581 94.5843C51.6815 88.8817 54.005 83.1791 56.2594 77.4492C58.9383 70.64 59.9555 63.5029 59.963 56.2111C59.9667 52.3806 59.9649 48.5499 59.9631 44.7192V44.7191C59.9605 39.2589 59.958 33.7986 59.9713 28.3383C59.985 22.7358 58.3581 17.7815 54.6216 13.5014C53.8561 12.6245 53.2861 11.5771 52.6505 10.4089L52.6505 10.4089C52.3374 9.83362 52.0085 9.22907 51.6324 8.60121H103.391C103.179 9.06998 103.007 9.54213 102.842 9.99686C102.502 10.9312 102.188 11.7919 101.609 12.3987C96.6036 17.6432 95.1466 23.9466 95.3097 30.966C95.4256 35.9415 95.4434 40.9194 95.4612 45.8974V45.8985C95.4792 50.9191 95.4972 55.9398 95.6158 60.958C95.7789 67.8281 97.6728 74.3724 100.265 80.7114C102.056 85.0902 103.852 89.4664 105.648 93.8426L105.653 93.8556C106.813 96.6806 107.972 99.5057 109.13 102.331C109.323 102.801 109.505 103.275 109.713 103.818L109.713 103.818ZM107.417 134.684C109.986 134.82 111.176 136.322 112.012 138.378C114.556 144.636 117.126 150.883 119.697 157.129C120.679 159.515 121.661 161.9 122.641 164.287C123.005 165.174 123.372 166.06 123.738 166.947L123.741 166.952C124.67 169.201 125.6 171.45 126.497 173.712C127.645 176.605 126.827 179.042 124.468 179.986C122.054 180.953 119.848 179.83 118.641 176.908C113.753 165.078 108.879 153.243 104.036 141.394C102.608 137.899 104.336 134.728 107.417 134.684ZM124.714 190.806C124.751 193.166 126.586 195.015 128.882 195.005C131.16 194.995 133.144 193.075 133.169 190.857C133.195 188.555 131.099 186.462 128.824 186.518C126.549 186.574 124.678 188.526 124.714 190.806Z" fill="white"/>
</svg>
