<svg width="151" height="244" viewBox="0 0 151 244" fill="none" xmlns="http://www.w3.org/2000/svg">
<path fill-rule="evenodd" clip-rule="evenodd" d="M121.918 12.9083C121.916 5.38215 120.277 2.85959 113.539 0.00259256V0H37.4668C30.726 2.83626 29.0745 5.37178 29.0745 12.8954C29.0737 15.2082 29.0873 17.5212 29.101 19.8342C29.1317 25.048 29.1625 30.2615 29.0278 35.4714C28.8619 41.8179 30.9826 46.4327 37.5368 48.3201C37.5101 48.6854 37.4928 49.0396 37.4759 49.3854C37.4403 50.1146 37.4065 50.8059 37.2905 51.483C35.5482 61.721 30.2049 69.4572 21.1203 74.5516C7.07618 82.4304 0.0709511 94.4754 0.0372472 110.505C-0.0275681 141.401 0.00354324 172.296 0.045025 203.192C0.0502102 205.792 0.203174 208.439 0.682807 210.987C4.33579 230.349 20.0937 243.381 39.7975 243.4C63.4888 243.418 87.18 243.41 110.871 243.4C133.741 243.389 150.917 226.361 150.961 203.518C151.023 170.8 151.007 138.085 150.94 105.367C150.935 103.036 150.556 100.591 149.781 98.3979C146.019 87.7451 139.151 79.6822 129.24 74.1497C121.444 69.7994 116.505 63.1314 114.296 54.4981C113.94 53.1085 113.756 51.6747 113.576 50.2684C113.494 49.6283 113.413 48.9939 113.316 48.3719C119.582 46.189 121.903 42.9353 121.916 36.6743C121.925 31.1899 121.923 25.7067 121.92 20.2231C121.919 17.785 121.918 15.3468 121.918 12.9083ZM143.152 205.286H140.163C131.537 205.286 122.912 205.287 114.287 205.287C92.7249 205.288 71.1632 205.289 49.6002 205.284C38.7138 205.281 32.0949 198.707 32.0871 187.867C32.0715 164.42 32.0741 140.97 32.1 117.523C32.1 115.872 32.1519 114.171 32.5252 112.574C34.3038 105.009 40.5494 100.265 48.7109 100.259C70.4564 100.244 92.2018 100.247 113.947 100.25C122.31 100.251 130.672 100.252 139.035 100.252H141.879C141.831 100.017 141.796 99.8269 141.767 99.6653C141.715 99.3832 141.68 99.1892 141.617 99.0046C141.389 98.3305 141.156 97.659 140.876 97.0057C137.941 90.1199 133.147 84.9322 126.583 81.357C116.697 75.9749 110.117 67.9043 107.089 57.057C106.57 55.2026 106.267 53.289 105.959 51.3484C105.816 50.4457 105.672 49.5371 105.505 48.626H45.3768C45.3346 48.7421 45.2959 48.8348 45.2633 48.913C45.2078 49.046 45.1698 49.137 45.1616 49.2301C43.9249 63.681 36.8704 74.3234 24.273 81.4426C13.161 87.7218 7.61545 97.392 7.58952 110.096C7.52211 141.307 7.55581 172.517 7.5947 203.728C7.5973 205.932 7.771 208.177 8.20656 210.337C11.2295 225.319 23.8348 235.759 39.126 235.809C60.6771 235.878 82.2303 235.849 103.782 235.819C106.474 235.816 109.167 235.812 111.859 235.809C113.749 235.809 115.66 235.614 117.527 235.308C131.723 232.985 143.436 219.386 143.152 205.286ZM140.922 107.799H143.289V197.729H140.629C130.514 197.729 120.398 197.73 110.283 197.73C90.0518 197.731 69.8208 197.733 49.5898 197.729C42.8853 197.727 39.6082 194.514 39.6057 187.877C39.5927 164.428 39.5927 140.981 39.6057 117.531C39.6108 111.055 42.8023 107.804 49.1672 107.804C72.1031 107.796 95.0391 107.797 117.975 107.798C125.624 107.798 133.273 107.799 140.922 107.799ZM65.6142 7.57201C68.9423 7.57244 72.2705 7.57286 75.5988 7.57286C79.428 7.57286 83.2575 7.57228 87.0871 7.57171C94.7465 7.57055 102.406 7.5694 110.065 7.57286C113.591 7.57286 114.371 8.35322 114.377 11.8972C114.387 20.1364 114.389 28.3755 114.377 36.6147C114.371 40.0213 113.537 40.8665 110.208 40.8665C87.0712 40.8717 63.9347 40.8717 40.7983 40.8665C37.459 40.8665 36.6164 40.0187 36.6112 36.638C36.5982 28.3211 36.5956 20.0016 36.6112 11.6847C36.6164 8.4284 37.459 7.57545 40.6557 7.57545C48.9759 7.5699 57.2947 7.57095 65.6142 7.57201ZM104.334 131.175C103.612 131.585 102.835 132.025 101.969 132.516L101.964 132.519C101.964 131.402 102.005 130.336 102.046 129.311C102.13 127.162 102.208 125.189 101.878 123.287C100.893 117.611 95.6531 113.966 89.8638 114.438C84.0901 114.907 79.7941 119.413 79.4571 125.464C79.3767 126.92 79.3965 128.383 79.4179 129.969C79.4282 130.735 79.4389 131.529 79.4389 132.366C78.701 131.947 78.0135 131.553 77.3587 131.179C76.0488 130.43 74.87 129.756 73.6808 129.099C70.8367 127.528 67.8137 127.194 64.7285 128.145C60.0281 129.597 57.2436 132.866 56.681 137.717C56.1547 142.269 58.0084 145.92 61.8429 148.453C63.1696 149.328 64.5454 150.129 65.9955 150.973C66.6537 151.356 67.3273 151.748 68.0185 152.16C67.2752 152.596 66.5652 153 65.8819 153.389C64.475 154.19 63.1813 154.926 61.944 155.748C57.9644 158.392 56.0329 162.162 56.7381 166.912C57.9333 174.987 66.24 179.068 73.4967 175.267C74.7765 174.597 76.0295 173.874 77.4213 173.071C78.1017 172.678 78.8154 172.266 79.5816 171.832C79.5816 172.849 79.5539 173.807 79.5275 174.722C79.4731 176.611 79.4238 178.319 79.6334 179.994C80.3956 186.076 85.6405 190.317 91.5309 189.895C97.6002 189.456 102.034 184.782 102.171 178.63C102.202 177.205 102.195 175.781 102.187 174.222C102.183 173.472 102.179 172.69 102.179 171.863C102.903 172.271 103.583 172.656 104.236 173.026C105.499 173.741 106.657 174.397 107.823 175.039C113.444 178.137 120.54 176.317 123.594 171.003C126.746 165.517 124.877 158.828 119.217 155.385C118.069 154.685 116.907 154.005 115.649 153.269C115.019 152.9 114.366 152.517 113.677 152.111C114.361 151.713 115.005 151.341 115.62 150.985C116.777 150.316 117.836 149.704 118.888 149.08C124.895 145.515 126.832 138.891 123.544 133.193C120.322 127.608 113.475 126.011 107.413 129.431C106.429 129.987 105.446 130.545 104.334 131.175ZM94.6342 132.223H94.642V132.228C94.642 132.892 94.634 133.556 94.626 134.22C94.6082 135.694 94.5905 137.169 94.6602 138.64C94.8235 142.09 97.6417 143.698 100.665 142.033C102.736 140.894 104.779 139.703 106.822 138.512C108.265 137.672 109.707 136.831 111.16 136.008C113.623 134.613 115.798 134.992 116.959 136.939C118.193 139.008 117.457 141.152 114.921 142.64C113.33 143.574 111.728 144.491 110.127 145.407C108.365 146.415 106.602 147.423 104.854 148.455C101.383 150.506 101.396 153.77 104.883 155.826C106.562 156.816 108.254 157.783 109.947 158.751C111.619 159.707 113.291 160.663 114.95 161.641C117.436 163.106 118.193 165.374 116.954 167.37C115.769 169.279 113.563 169.629 111.121 168.242C109.704 167.435 108.293 166.618 106.882 165.8C104.94 164.674 102.998 163.549 101.038 162.452C97.4809 160.464 94.7198 162.048 94.6498 166.144C94.6111 168.372 94.6186 170.601 94.626 172.83C94.6316 174.481 94.6371 176.132 94.6239 177.782C94.6005 180.631 93.2005 182.342 90.9424 182.399C88.622 182.456 87.0068 180.611 86.9809 177.746C86.9623 175.862 86.9673 173.977 86.9723 172.093C86.9778 170.019 86.9833 167.946 86.9575 165.872C86.9134 162.128 84.0927 160.503 80.8104 162.341C78.9664 163.373 77.1415 164.438 75.3166 165.504C73.7265 166.432 72.1364 167.361 70.5333 168.267C67.9952 169.704 65.7448 169.234 64.6144 167.124C63.5281 165.099 64.2981 163.075 66.7585 161.638C68.3048 160.734 69.8594 159.843 71.4141 158.952C73.2221 157.916 75.0302 156.88 76.8256 155.823C80.3593 153.741 80.3697 150.529 76.8515 148.455C75.0441 147.39 73.2229 146.348 71.4021 145.306C69.859 144.422 68.316 143.539 66.7818 142.643C64.2851 141.18 63.5203 139.2 64.6092 137.18C65.737 135.09 68.0496 134.6 70.5463 136.008C72.2535 136.971 73.9481 137.955 75.6428 138.939C77.299 139.901 78.9554 140.863 80.6238 141.805C84.1679 143.804 86.9342 142.197 86.9653 138.132C86.9802 136.279 86.9761 134.426 86.972 132.573C86.9676 130.546 86.9631 128.52 86.9834 126.494C87.012 123.616 88.6038 121.843 90.9813 121.915C93.2887 121.985 94.5772 123.611 94.6342 126.525V126.999V132.223Z" fill="white"/>
</svg>
