<svg width="40" height="40" viewBox="0 0 40 40" fill="none" xmlns="http://www.w3.org/2000/svg">
<rect width="40" height="40" rx="20" fill="#D6001C"/>
<mask id="path-2-inside-1_725_3017" fill="white">
<path d="M12.6475 12.6667V18.3273C13.5274 17.2998 14.5823 16.7825 15.8056 16.7825C16.4357 16.7825 16.9999 16.9004 17.5061 17.1341C18.0137 17.3663 18.3932 17.6645 18.6495 18.0264C18.9072 18.3918 19.0813 18.7919 19.1755 19.2329C19.2689 19.6718 19.3156 20.3547 19.3156 21.2811V27.3334H16.5815L16.5815 21.8822C16.5815 20.8006 16.532 20.1155 16.4279 19.8243C16.3304 19.539 16.137 19.2946 15.8793 19.131C15.6159 18.9569 15.2881 18.8709 14.8924 18.8709C14.4393 18.8709 14.0329 18.9819 13.6796 19.2024C13.3186 19.4242 13.0595 19.7557 12.8952 20.1987C12.7282 20.6425 12.6446 21.2977 12.6475 22.1651L12.6446 27.3334H9.91406L9.91406 12.6667H12.6482M23.4133 12.6667V18.3273C24.2939 17.2998 25.3481 16.7825 26.5707 16.7825C27.1987 16.7825 27.7671 16.9004 28.274 17.1341C28.7795 17.3663 29.159 17.6645 29.4138 18.0264C29.671 18.3894 29.85 18.7999 29.9398 19.2329C30.034 19.6718 30.0807 20.3547 30.0807 21.2811L30.0807 27.3334H27.3495L27.3495 21.8822C27.3495 20.8006 27.2978 20.1155 27.1937 19.8243C27.0962 19.5387 26.9022 19.2941 26.6436 19.131C26.3831 18.9569 26.0525 18.8709 25.6568 18.8709C25.2044 18.8709 24.798 18.9819 24.444 19.2024C24.0879 19.4242 23.8274 19.7557 23.661 20.1987C23.4968 20.6425 23.4133 21.2977 23.4133 22.1651V27.3334H20.6827V12.6667H23.4133Z"/>
</mask>
<path d="M12.6475 12.6667V18.3273C13.5274 17.2998 14.5823 16.7825 15.8056 16.7825C16.4357 16.7825 16.9999 16.9004 17.5061 17.1341C18.0137 17.3663 18.3932 17.6645 18.6495 18.0264C18.9072 18.3918 19.0813 18.7919 19.1755 19.2329C19.2689 19.6718 19.3156 20.3547 19.3156 21.2811V27.3334H16.5815L16.5815 21.8822C16.5815 20.8006 16.532 20.1155 16.4279 19.8243C16.3304 19.539 16.137 19.2946 15.8793 19.131C15.6159 18.9569 15.2881 18.8709 14.8924 18.8709C14.4393 18.8709 14.0329 18.9819 13.6796 19.2024C13.3186 19.4242 13.0595 19.7557 12.8952 20.1987C12.7282 20.6425 12.6446 21.2977 12.6475 22.1651L12.6446 27.3334H9.91406L9.91406 12.6667H12.6482M23.4133 12.6667V18.3273C24.2939 17.2998 25.3481 16.7825 26.5707 16.7825C27.1987 16.7825 27.7671 16.9004 28.274 17.1341C28.7795 17.3663 29.159 17.6645 29.4138 18.0264C29.671 18.3894 29.85 18.7999 29.9398 19.2329C30.034 19.6718 30.0807 20.3547 30.0807 21.2811L30.0807 27.3334H27.3495L27.3495 21.8822C27.3495 20.8006 27.2978 20.1155 27.1937 19.8243C27.0962 19.5387 26.9022 19.2941 26.6436 19.131C26.3831 18.9569 26.0525 18.8709 25.6568 18.8709C25.2044 18.8709 24.798 18.9819 24.444 19.2024C24.0879 19.4242 23.8274 19.7557 23.661 20.1987C23.4968 20.6425 23.4133 21.2977 23.4133 22.1651V27.3334H20.6827V12.6667H23.4133Z" fill="#FEFEFE"/>
<path d="M12.6475 18.3273H11.6475L11.6475 21.0324L13.407 18.9778L12.6475 18.3273ZM17.5061 17.1341L17.087 18.042L17.09 18.0434L17.5061 17.1341ZM18.6495 18.0264L19.4667 17.4501L19.4656 17.4486L18.6495 18.0264ZM19.1755 19.2329L20.1535 19.0246L20.1534 19.0241L19.1755 19.2329ZM19.3156 27.3334V28.3334H20.3156V27.3334H19.3156ZM16.5815 27.3334H15.5815V28.3334H16.5815V27.3334ZM16.4279 19.8243L15.4816 20.1478L15.4862 20.1608L16.4279 19.8243ZM15.8793 19.131L15.3279 19.9652L15.3355 19.9703L15.3432 19.9751L15.8793 19.131ZM13.6796 19.2024L14.2032 20.0544L14.2091 20.0507L13.6796 19.2024ZM12.8952 20.1987L13.8311 20.5511L13.8329 20.5463L12.8952 20.1987ZM12.6475 22.1651L13.6475 22.1657L13.6475 22.1618L12.6475 22.1651ZM12.6446 27.3334L12.6446 28.3334H13.6441L13.6446 27.334L12.6446 27.3334ZM9.91406 27.3334H8.91406V28.3334H9.91406V27.3334ZM9.91406 12.6667V11.6667H8.91406V12.6667H9.91406ZM23.4133 12.6667H24.4133V11.6667H23.4133V12.6667ZM23.4133 18.3273H22.4133V21.0308L24.1725 18.9781L23.4133 18.3273ZM28.274 17.1341L27.8554 18.0422L27.8565 18.0427L28.274 17.1341ZM29.4138 18.0264L28.5962 18.6022L28.5979 18.6046L29.4138 18.0264ZM29.9398 19.2329L28.9607 19.436L28.9621 19.4426L29.9398 19.2329ZM30.0807 27.3334V28.3334H31.0807V27.3334H30.0807ZM27.3495 27.3334L26.3495 27.3334V28.3334L27.3495 28.3334V27.3334ZM27.1937 19.8243L26.2473 20.1474L26.2496 20.1541L26.252 20.1608L27.1937 19.8243ZM26.6436 19.131L26.0882 19.9625L26.099 19.9697L26.11 19.9767L26.6436 19.131ZM24.444 19.2024L23.9153 18.3536L23.9152 18.3536L24.444 19.2024ZM23.661 20.1987L22.7249 19.8472L22.7232 19.8516L23.661 20.1987ZM23.4133 27.3334V28.3334H24.4133V27.3334H23.4133ZM20.6827 27.3334H19.6827V28.3334H20.6827V27.3334ZM20.6827 12.6667V11.6667H19.6827V12.6667H20.6827ZM11.6475 12.6667V18.3273H13.6475V12.6667H11.6475ZM13.407 18.9778C14.1204 18.1448 14.9085 17.7825 15.8056 17.7825V15.7825C14.2561 15.7825 12.9345 16.4548 11.8879 17.6769L13.407 18.9778ZM15.8056 17.7825C16.3076 17.7825 16.7265 17.8756 17.087 18.042L17.9252 16.2261C17.2733 15.9252 16.5638 15.7825 15.8056 15.7825V17.7825ZM17.09 18.0434C17.4749 18.2195 17.7003 18.4164 17.8333 18.6043L19.4656 17.4486C19.086 16.9125 18.5525 16.5132 17.9222 16.2248L17.09 18.0434ZM17.8322 18.6028C18.0111 18.8563 18.1312 19.1311 18.1975 19.4417L20.1534 19.0241C20.0314 18.4527 19.8032 17.9273 19.4667 17.4501L17.8322 18.6028ZM18.1974 19.4411C18.2678 19.772 18.3156 20.3672 18.3156 21.2811H20.3156C20.3156 20.3423 20.27 19.5716 20.1535 19.0246L18.1974 19.4411ZM18.3156 21.2811V27.3334H20.3156V21.2811H18.3156ZM19.3156 26.3334H16.5815L16.5815 28.3334H19.3156V26.3334ZM17.5815 27.3334L17.5815 21.8822H15.5815L15.5815 27.3334H17.5815ZM17.5815 21.8822C17.5815 21.3295 17.569 20.8605 17.541 20.483C17.5151 20.1335 17.4709 19.7712 17.3696 19.4878L15.4862 20.1608C15.4827 20.1508 15.4934 20.18 15.5081 20.2726C15.5217 20.3591 15.5351 20.4769 15.5465 20.6307C15.5693 20.9389 15.5815 21.3533 15.5815 21.8822H17.5815ZM17.3742 19.5009C17.2021 18.9975 16.8623 18.5706 16.4153 18.2868L15.3432 19.9751C15.4116 20.0186 15.4587 20.0806 15.4817 20.1477L17.3742 19.5009ZM16.4306 18.2967C15.9658 17.9895 15.4332 17.8709 14.8924 17.8709V19.8709C15.1431 19.8709 15.266 19.9243 15.3279 19.9652L16.4306 18.2967ZM14.8924 17.8709C14.2695 17.8709 13.6764 18.0256 13.1502 18.354L14.2091 20.0507C14.3894 19.9382 14.6091 19.8709 14.8924 19.8709V17.8709ZM13.1561 18.3504C12.5797 18.7046 12.1888 19.2274 11.9576 19.8511L13.8329 20.5463C13.9302 20.2839 14.0575 20.1439 14.2032 20.0544L13.1561 18.3504ZM11.9594 19.8464C11.728 20.461 11.6445 21.2612 11.6475 22.1684L13.6475 22.1618C13.6448 21.3342 13.7284 20.8239 13.8311 20.5511L11.9594 19.8464ZM11.6475 22.1646L11.6446 27.3329L13.6446 27.334L13.6475 22.1657L11.6475 22.1646ZM12.6446 26.3334H9.91406V28.3334H12.6446L12.6446 26.3334ZM10.9141 27.3334L10.9141 12.6667H8.91406L8.91406 27.3334H10.9141ZM9.91406 13.6667H12.6482V11.6667H9.91406V13.6667ZM22.4133 12.6667V18.3273L24.4133 18.3273V12.6667H22.4133ZM24.1725 18.9781C24.887 18.1445 25.6746 17.7825 26.5707 17.7825V15.7825C25.0216 15.7825 23.7009 16.455 22.654 17.6766L24.1725 18.9781ZM26.5707 17.7825C27.0713 17.7825 27.4945 17.8759 27.8554 18.0422L28.6927 16.2259C28.0398 15.925 27.3261 15.7825 26.5707 15.7825V17.7825ZM27.8565 18.0427C28.2404 18.2191 28.465 18.4159 28.5962 18.6022L30.2315 17.4507C29.8529 16.9131 29.3186 16.5136 28.6916 16.2254L27.8565 18.0427ZM28.5979 18.6046C28.7759 18.8558 28.899 19.1388 28.9607 19.436L30.919 19.0297C30.801 18.461 30.5661 17.923 30.2298 17.4483L28.5979 18.6046ZM28.9621 19.4426C29.0329 19.7725 29.0807 20.3668 29.0807 21.2811H31.0807C31.0807 20.3426 31.0352 19.5711 30.9176 19.0231L28.9621 19.4426ZM29.0807 21.2811L29.0807 27.3334H31.0807L31.0807 21.2811H29.0807ZM30.0807 26.3334H27.3495V28.3334H30.0807V26.3334ZM28.3495 27.3334L28.3495 21.8822L26.3495 21.8822L26.3495 27.3334L28.3495 27.3334ZM28.3495 21.8822C28.3495 21.3288 28.3363 20.8594 28.3078 20.4814C28.2813 20.131 28.2362 19.77 28.1354 19.4878L26.252 20.1608C26.2488 20.1517 26.2597 20.1815 26.2744 20.2742C26.2883 20.3608 26.3018 20.4786 26.3135 20.6323C26.3367 20.94 26.3495 21.354 26.3495 21.8822L28.3495 21.8822ZM28.1401 19.5013C27.9677 18.9963 27.6264 18.5686 27.1773 18.2852L26.11 19.9767C26.178 20.0196 26.2247 20.081 26.2473 20.1474L28.1401 19.5013ZM27.1991 18.2994C26.7332 17.9882 26.1945 17.8709 25.6568 17.8709V19.8709C25.9105 19.8709 26.033 19.9256 26.0882 19.9625L27.1991 18.2994ZM25.6568 17.8709C25.0342 17.8709 24.4416 18.0258 23.9153 18.3536L24.9727 20.0512C25.1544 19.938 25.3745 19.8709 25.6568 19.8709V17.8709ZM23.9152 18.3536C23.3488 18.7066 22.9583 19.2257 22.7249 19.8472L24.5972 20.5503C24.6966 20.2857 24.8271 20.1419 24.9729 20.0511L23.9152 18.3536ZM22.7232 19.8516C22.4971 20.4625 22.4133 21.259 22.4133 22.1651H24.4133C24.4133 21.3364 24.4965 20.8225 24.5989 20.5458L22.7232 19.8516ZM22.4133 22.1651V27.3334H24.4133V22.1651H22.4133ZM23.4133 26.3334H20.6827V28.3334H23.4133V26.3334ZM21.6827 27.3334V12.6667H19.6827V27.3334H21.6827ZM20.6827 13.6667H23.4133V11.6667H20.6827V13.6667Z" fill="white" mask="url(#path-2-inside-1_725_3017)"/>
</svg>
