<svg width="22" height="22" viewBox="0 0 22 22" fill="none" xmlns="http://www.w3.org/2000/svg">
<path d="M11.0026 18.7917H6.41927C3.66927 18.7917 1.83594 17.4167 1.83594 14.2084L1.83594 7.79171C1.83594 4.58337 3.66927 3.20837 6.41927 3.20837L15.5859 3.20837C18.3359 3.20837 20.1693 4.58337 20.1693 7.79171V10.5417" stroke="#032B5F" stroke-width="1.5" stroke-miterlimit="10" stroke-linecap="round" stroke-linejoin="round"/>
<path d="M15.5807 8.25L12.7116 10.5417C11.7674 11.2933 10.2182 11.2933 9.27406 10.5417L6.41406 8.25" stroke="#032B5F" stroke-width="1.5" stroke-miterlimit="10" stroke-linecap="round" stroke-linejoin="round"/>
<path d="M17.6088 13.5392L14.3638 16.7842C14.2355 16.9125 14.1163 17.1508 14.0888 17.325L13.9146 18.5625C13.8505 19.0117 14.1621 19.3234 14.6113 19.2592L15.8488 19.085C16.023 19.0575 16.2705 18.9383 16.3896 18.81L19.6346 15.565C20.1938 15.0059 20.4596 14.355 19.6346 13.53C18.8188 12.7142 18.168 12.98 17.6088 13.5392Z" stroke="#032B5F" stroke-width="1.5" stroke-miterlimit="10" stroke-linecap="round" stroke-linejoin="round"/>
<path d="M17.1406 14.0067C17.4156 14.9967 18.1856 15.7667 19.1756 16.0417" stroke="#032B5F" stroke-width="1.5" stroke-miterlimit="10" stroke-linecap="round" stroke-linejoin="round"/>
</svg>
