<svg version="1.0" xmlns="http://www.w3.org/2000/svg"
 width="50" height="50" viewBox="0 0 1280.000000 1280.000000"
 preserveAspectRatio="xMidYMid meet">

<g transform="translate(0.000000,1280.000000) scale(0.100000,-0.100000)"
fill="#ed143d" stroke="none">
<path d="M6280 11551 c-30 -9 -75 -30 -100 -45 -25 -16 -1027 -1010 -2227
-2210 -2395 -2394 -2227 -2218 -2254 -2370 -38 -219 120 -434 341 -465 77 -10
161 1 234 31 45 18 276 246 1884 1852 l1832 1831 0 -4290 c0 -3846 2 -4297 16
-4350 64 -249 344 -375 578 -261 59 29 135 101 171 162 59 101 55 -233 55
4449 l0 4290 1828 -1826 c1991 -1990 1863 -1870 1999 -1889 319 -43 561 270
435 565 -24 56 -163 198 -2221 2258 -1208 1209 -2216 2211 -2241 2227 -90 58
-225 75 -330 41z"/>
</g>
</svg>
