<?xml version="1.0" standalone="no"?>
<!DOCTYPE svg PUBLIC "-//W3C//DTD SVG 20010904//EN"
 "http://www.w3.org/TR/2001/REC-SVG-20010904/DTD/svg10.dtd">
<svg version="1.0" xmlns="http://www.w3.org/2000/svg"
 width="20.000000pt" height="20.000000pt" viewBox="0 0 20.000000 20.000000"
 preserveAspectRatio="xMidYMid meet">
<metadata>
Created by potrace 1.16, written by Peter Selinger 2001-2019
</metadata>
<g transform="translate(0.000000,20.000000) scale(0.004167,-0.007273)"
fill="#000000" stroke="none">
<path d="M1915 2739 c-109 -12 -203 -42 -247 -79 -21 -17 -38 -35 -38 -40 0
-5 22 -16 48 -24 101 -34 161 -90 192 -179 29 -83 39 -165 46 -382 12 -373
-32 -601 -126 -650 -120 -62 -262 70 -498 465 -105 175 -207 372 -277 535 -77
177 -90 200 -128 219 -31 14 -84 16 -416 16 -307 0 -388 -3 -416 -14 -35 -15
-55 -42 -55 -75 0 -43 261 -587 425 -886 489 -890 890 -1333 1385 -1527 223
-87 337 -108 613 -115 244 -6 280 1 324 68 22 34 27 54 34 162 11 182 43 285
109 361 42 47 79 66 130 66 86 0 160 -54 317 -232 244 -278 327 -349 463 -399
64 -24 69 -24 455 -24 389 0 390 0 443 24 65 30 102 71 102 116 0 19 -15 62
-34 99 -64 123 -187 267 -496 581 -232 236 -265 280 -265 366 0 87 51 173 282
481 307 408 456 645 498 790 21 74 17 106 -18 132 -28 21 -36 21 -512 21
l-483 0 -25 -23 c-14 -13 -46 -76 -72 -140 -184 -453 -488 -938 -654 -1043
-32 -21 -58 -29 -90 -29 -39 0 -49 5 -82 40 -73 77 -74 89 -71 640 2 338 -1
499 -9 532 -29 122 -162 159 -564 157 -115 -1 -246 -6 -290 -10z"/>
</g>
</svg>
