<?xml version="1.0" encoding="utf-8"?>
<!-- Generator: Adobe Illustrator 25.1.0, SVG Export Plug-In . SVG Version: 6.00 Build 0)  -->
<svg version="1.1" id="icons" xmlns="http://www.w3.org/2000/svg" xmlns:xlink="http://www.w3.org/1999/xlink" x="0px" y="0px"
	 viewBox="0 0 256 256" style="enable-background:new 0 0 256 256;" xml:space="preserve">
<style type="text/css">
	.st0{fill:url(#SVGID_1_);}
	.st1{fill:url(#SVGID_2_);}
	.st2{fill:url(#SVGID_3_);}
	.st3{fill:url(#SVGID_4_);}
	.st4{fill:url(#SVGID_5_);}
	.st5{fill:url(#SVGID_6_);}
	.st6{fill:url(#SVGID_7_);}
	.st7{fill:url(#SVGID_8_);}
	.st8{fill:url(#SVGID_9_);}
	.st9{fill:url(#SVGID_10_);}
	.st10{fill:url(#SVGID_11_);}
	.st11{fill:url(#SVGID_12_);}
	.st12{fill:url(#SVGID_13_);}
	.st13{fill:url(#SVGID_14_);}
	.st14{fill:url(#SVGID_15_);}
	.st15{fill:url(#SVGID_16_);}
	.st16{fill:url(#SVGID_17_);}
	.st17{fill:url(#SVGID_18_);}
	.st18{fill:url(#SVGID_19_);}
</style>
<g>
	<linearGradient id="SVGID_1_" gradientUnits="userSpaceOnUse" x1="52.1036" y1="168.6744" x2="124.1899" y2="43.8171">
		<stop  offset="0" style="stop-color:#0F46FF;stop-opacity:0"/>
		<stop  offset="0.1609" style="stop-color:#2A32FF;stop-opacity:0.1609"/>
		<stop  offset="0.3749" style="stop-color:#471CFF;stop-opacity:0.3749"/>
		<stop  offset="0.588" style="stop-color:#5B0CFF;stop-opacity:0.588"/>
		<stop  offset="0.7976" style="stop-color:#6803FF;stop-opacity:0.7976"/>
		<stop  offset="1" style="stop-color:#6C00FF"/>
	</linearGradient>
	<path class="st0" d="M91,128c0-20.5,16.6-37,37-37l21.6-21.6L128,47.9c-44.3,0-80.1,35.9-80.1,80.1c0,14.6,3.9,28.3,10.7,40.1
		l7.9-29.5l29.4,7.9C92.8,141.1,91,134.7,91,128z"/>
	<linearGradient id="SVGID_2_" gradientUnits="userSpaceOnUse" x1="132.2354" y1="44.6197" x2="201.1937" y2="164.059">
		<stop  offset="0" style="stop-color:#0F46FF;stop-opacity:0"/>
		<stop  offset="0.1609" style="stop-color:#2A32FF;stop-opacity:0.1609"/>
		<stop  offset="0.3749" style="stop-color:#471CFF;stop-opacity:0.3749"/>
		<stop  offset="0.588" style="stop-color:#5B0CFF;stop-opacity:0.588"/>
		<stop  offset="0.7976" style="stop-color:#6803FF;stop-opacity:0.7976"/>
		<stop  offset="1" style="stop-color:#6C00FF"/>
	</linearGradient>
	<path class="st1" d="M146.5,95.9c17.7,10.2,23.8,32.9,13.5,50.6l7.9,29.5l29.5-7.9c22.2-38.3,9.1-87.3-29.2-109.5
		c-12.6-7.3-26.4-10.8-40.1-10.8l21.5,21.6L128,91C134.3,91,140.7,92.6,146.5,95.9z"/>
	<linearGradient id="SVGID_3_" gradientUnits="userSpaceOnUse" x1="193.1465" y1="189.0337" x2="62.032" y2="160.3386">
		<stop  offset="0" style="stop-color:#0F46FF;stop-opacity:0"/>
		<stop  offset="1" style="stop-color:#0F46FF"/>
	</linearGradient>
	<path class="st2" d="M146.5,160.1c-17.7,10.2-40.4,4.1-50.6-13.6l-29.4-7.9L58.6,168c22.1,38.3,71.1,51.5,109.4,29.4
		c12.7-7.3,22.6-17.5,29.4-29.3L168,176l-7.9-29.4C156.9,152,152.3,156.7,146.5,160.1z"/>
</g>
</svg>
