<?xml version="1.0" encoding="utf-8"?>
<!-- Generator: Adobe Illustrator 25.1.0, SVG Export Plug-In . SVG Version: 6.00 Build 0)  -->
<svg version="1.1" id="icons" xmlns="http://www.w3.org/2000/svg" xmlns:xlink="http://www.w3.org/1999/xlink" x="0px" y="0px"
	 viewBox="0 0 256 256" style="enable-background:new 0 0 256 256;" xml:space="preserve">
<style type="text/css">
	.st0{fill:url(#SVGID_1_);}
	.st1{fill:url(#SVGID_2_);}
	.st2{fill:url(#SVGID_3_);}
	.st3{fill:url(#SVGID_4_);}
	.st4{fill:url(#SVGID_5_);}
	.st5{fill:url(#SVGID_6_);}
	.st6{fill:url(#SVGID_7_);}
	.st7{fill:url(#SVGID_8_);}
	.st8{fill:url(#SVGID_9_);}
	.st9{fill:url(#SVGID_10_);}
	.st10{fill:url(#SVGID_11_);}
	.st11{fill:url(#SVGID_12_);}
	.st12{fill:url(#SVGID_13_);}
	.st13{fill:url(#SVGID_14_);}
	.st14{fill:url(#SVGID_15_);}
	.st15{fill:url(#SVGID_16_);}
	.st16{fill:url(#SVGID_17_);}
	.st17{fill:url(#SVGID_18_);}
	.st18{fill:url(#SVGID_19_);}
</style>
<g>
	
		<linearGradient id="SVGID_1_" gradientUnits="userSpaceOnUse" x1="-4634.4204" y1="151.7106" x2="-4557.5786" y2="74.8688" gradientTransform="matrix(-1 0 0 1 -4479.4277 0)">
		<stop  offset="0" style="stop-color:#6C00FF;stop-opacity:0"/>
		<stop  offset="1" style="stop-color:#6C00FF"/>
	</linearGradient>
	<path class="st0" d="M128,178.7l-22.9,0c-4.2-21.4-5.6-24.2-19.5-40.9c-19.5-23.6-15.9-58.8,8-77.9c10.2-8.1,22.3-12.1,34.4-12"/>
	
		<linearGradient id="SVGID_2_" gradientUnits="userSpaceOnUse" x1="-4580.4253" y1="74.8587" x2="-4657.2876" y2="151.7208" gradientTransform="matrix(-1 0 0 1 -4479.4277 0)">
		<stop  offset="0" style="stop-color:#0F46FF;stop-opacity:0"/>
		<stop  offset="1" style="stop-color:#0F46FF"/>
	</linearGradient>
	<path class="st1" d="M128,47.9c12,0,24.2,3.9,34.4,12c23.9,19.1,27.5,54.3,8,77.9c-13.9,16.8-15.2,19.6-19.5,40.9l-22.9,0"/>
	
		<linearGradient id="SVGID_3_" gradientUnits="userSpaceOnUse" x1="-4607.4277" y1="178.6934" x2="-4607.4277" y2="208.1442" gradientTransform="matrix(-1 0 0 1 -4479.4277 0)">
		<stop  offset="0" style="stop-color:#0F46FF;stop-opacity:0"/>
		<stop  offset="1" style="stop-color:#0F46FF"/>
	</linearGradient>
	<polygon class="st2" points="105.1,208.1 150.9,208.1 150.9,178.7 105.1,178.7 	"/>
</g>
</svg>
