<?xml version="1.0" encoding="utf-8"?>
<svg version="1.1" id="Logo" xmlns="http://www.w3.org/2000/svg" xmlns:xlink="http://www.w3.org/1999/xlink" x="0px" y="0px"
	 viewBox="0 0 570.8 295.6" style="enable-background:new 0 0 570.8 295.6;" xml:space="preserve">
<style type="text/css">
	.st0{fill:url(#SVGID_1_);}
	.st1{fill:url(#SVGID_2_);}
	.st2{fill:#1B1F2A;}
</style>
<g>
	<g>
		
			<linearGradient id="SVGID_1_" gradientUnits="userSpaceOnUse" x1="71.5448" y1="161.1432" x2="156.7351" y2="75.7791" gradientTransform="matrix(1 1.018418e-03 -1.018418e-03 1 -5.8614 4.2311)">
			<stop  offset="0" style="stop-color:#6C00FF;stop-opacity:0.25"/>
			<stop  offset="0.1375" style="stop-color:#6C00FF;stop-opacity:0.3531"/>
			<stop  offset="1" style="stop-color:#6C00FF"/>
		</linearGradient>
		<path class="st0" d="M172.8,122.9c0,27.6-22.5,49.9-50,49.9l-50-0.1V72.8l50.1,0.1C150.4,72.9,172.8,95.3,172.8,122.9z"/>
		<linearGradient id="SVGID_2_" gradientUnits="userSpaceOnUse" x1="222.648" y1="108.2632" x2="119.7676" y2="211.1436">
			<stop  offset="0" style="stop-color:#0F46FF;stop-opacity:0.25"/>
			<stop  offset="0.1375" style="stop-color:#0F46FF;stop-opacity:0.3531"/>
			<stop  offset="1" style="stop-color:#0F46FF"/>
		</linearGradient>
		<path class="st1" d="M172.7,222.8c-27.6,0-49.9-22.5-49.9-50l0.1-50h99.9l-0.1,50.1C222.7,200.4,200.2,222.8,172.7,222.8z"/>
	</g>
	<g>
		<path class="st2" d="M271.7,75.5c-3.1-1.7-6.9-2.6-11.2-2.6l-15.4,0l0,43.6l15.2,0c4.4,0,8.2-0.9,11.4-2.6
			c3.2-1.7,5.6-4.2,7.3-7.5c1.7-3.3,2.6-7.2,2.6-11.7c0-4.5-0.8-8.4-2.5-11.7C277.3,79.7,274.9,77.2,271.7,75.5z M271.4,102.7
			c-1,2.1-2.4,3.7-4.4,4.7c-1.9,1-4.3,1.5-7.2,1.5l-6.1,0l0-28.6l6.2,0c2.8,0,5.2,0.5,7.1,1.5c1.9,1,3.4,2.6,4.3,4.7
			c1,2.1,1.5,4.8,1.4,8.1C272.9,97.9,272.4,100.6,271.4,102.7z"/>
		<path class="st2" d="M292.1,116c1.6,0.7,3.5,1.1,5.6,1.1c1.6,0,3.1-0.2,4.3-0.7c1.2-0.5,2.3-1.1,3.2-1.8c0.9-0.8,1.6-1.6,2.1-2.6
			l0.3,0l0,4.5l8.1,0l0-22c0-2-0.4-3.7-1.1-5.2c-0.8-1.4-1.8-2.6-3.1-3.4c-1.3-0.9-2.7-1.5-4.4-1.9c-1.6-0.4-3.3-0.6-5-0.6
			c-2.5,0-4.7,0.4-6.6,1.1c-1.9,0.7-3.5,1.8-4.8,3.2c-1.3,1.4-2.1,3.1-2.6,5.1l7.9,0.8c0.3-1.1,1-2,2-2.8c1-0.8,2.4-1.1,4.1-1.1
			c1.6,0,2.9,0.4,3.8,1.2c0.9,0.8,1.3,1.9,1.3,3.4l0,0.1c0,0.7-0.3,1.2-0.8,1.6c-0.5,0.3-1.4,0.6-2.6,0.8c-1.2,0.2-2.7,0.4-4.6,0.6
			c-1.6,0.2-3.1,0.4-4.6,0.8c-1.5,0.4-2.8,0.9-4,1.7c-1.2,0.7-2.1,1.7-2.8,2.9c-0.7,1.2-1,2.7-1,4.6c0,2.2,0.5,4,1.4,5.4
			C289.2,114.1,290.5,115.2,292.1,116z M295.7,104.8c0.5-0.6,1.1-1.1,2-1.4c0.8-0.3,1.8-0.6,2.9-0.8c0.5-0.1,1.1-0.2,1.7-0.2
			c0.6-0.1,1.3-0.2,1.9-0.3c0.7-0.1,1.2-0.3,1.8-0.4c0.5-0.2,0.9-0.3,1.2-0.5l0,3.6c0,1.2-0.3,2.2-0.9,3.2c-0.6,0.9-1.4,1.7-2.5,2.3
			s-2.3,0.8-3.7,0.8c-1.5,0-2.7-0.3-3.6-1c-1-0.7-1.4-1.7-1.4-3C295,106.1,295.2,105.4,295.7,104.8z"/>
		<path class="st2" d="M339.1,109.6c-0.2,0.1-0.5,0.1-1,0.2c-0.4,0.1-0.8,0.1-1.3,0.1c-0.6,0-1.2-0.1-1.7-0.3
			c-0.5-0.2-0.9-0.5-1.1-1c-0.3-0.5-0.4-1.2-0.4-2.1l0-16.2l6.3,0l0-6.5l-6.3,0l0-7.8l-8.5,0l0,7.8l-4.5,0l0,6.5l4.5,0l0,17.5
			c0,2.1,0.4,3.8,1.3,5.2c0.9,1.4,2.2,2.4,3.8,3.1c1.6,0.7,3.4,1,5.5,0.9c1.1,0,2.1-0.2,2.9-0.3c0.8-0.2,1.4-0.3,1.8-0.5
			L339.1,109.6z"/>
		<path class="st2" d="M369.1,85.9c-1.3-0.9-2.7-1.5-4.4-1.9c-1.6-0.4-3.3-0.6-5-0.6c-2.5,0-4.7,0.4-6.6,1.1
			c-1.9,0.7-3.5,1.8-4.8,3.2c-1.3,1.4-2.1,3.1-2.6,5.1l7.9,0.8c0.3-1.1,1-2,2-2.8c1-0.8,2.4-1.1,4.1-1.1c1.6,0,2.9,0.4,3.8,1.2
			c0.9,0.8,1.3,1.9,1.3,3.4l0,0.1c0,0.7-0.3,1.2-0.8,1.6c-0.5,0.3-1.4,0.6-2.6,0.8c-1.2,0.2-2.7,0.4-4.6,0.6
			c-1.6,0.2-3.1,0.4-4.6,0.8c-1.5,0.4-2.8,0.9-4,1.7c-1.2,0.7-2.1,1.7-2.8,2.9c-0.7,1.2-1,2.7-1,4.6c0,2.2,0.5,4,1.4,5.4
			c0.9,1.4,2.2,2.5,3.9,3.3c1.6,0.7,3.5,1.1,5.6,1.1c1.6,0,3.1-0.2,4.3-0.7c1.2-0.5,2.3-1.1,3.2-1.8c0.9-0.8,1.6-1.6,2.1-2.6l0.3,0
			l0,4.5l8.1,0l0-22c0-2-0.4-3.7-1.1-5.2C371.4,87.9,370.4,86.8,369.1,85.9z M364.8,104.8c0,1.2-0.3,2.2-0.9,3.2
			c-0.6,0.9-1.4,1.7-2.5,2.3c-1.1,0.6-2.3,0.8-3.7,0.8c-1.5,0-2.7-0.3-3.6-1c-1-0.7-1.4-1.7-1.4-3c0-0.9,0.2-1.7,0.7-2.3
			c0.5-0.6,1.1-1.1,2-1.4c0.8-0.3,1.8-0.6,2.9-0.8c0.5-0.1,1.1-0.2,1.7-0.2c0.6-0.1,1.3-0.2,1.9-0.3c0.7-0.1,1.2-0.3,1.8-0.4
			c0.5-0.2,0.9-0.3,1.2-0.5L364.8,104.8z"/>
		<path class="st2" d="M272.2,156.8c0,1.7-0.4,3.2-1.1,4.6c-0.8,1.3-1.8,2.4-3.2,3.2c-1.4,0.8-3,1.1-4.9,1.1c-1.9,0-3.5-0.4-4.9-1.2
			s-2.5-1.8-3.2-3.2c-0.8-1.3-1.1-2.9-1.1-4.6l0-27.6l-8.7,0l0,28.3c0,3.2,0.7,5.9,2.2,8.3c1.5,2.4,3.6,4.2,6.2,5.6
			c2.7,1.3,5.8,2,9.4,2c3.6,0,6.7-0.7,9.4-2c2.7-1.3,4.8-3.2,6.3-5.5c1.5-2.4,2.2-5.1,2.2-8.3l0-28.3l-8.7,0L272.2,156.8z"/>
		<path class="st2" d="M312.8,141.1c-1.7-1-3.7-1.5-5.9-1.5c-2.4,0-4.5,0.5-6.2,1.6c-1.7,1.1-2.9,2.6-3.6,4.5l-0.4,0l0-5.7l-8.1,0
			l0,32.7l8.5,0l0-19c0-1.5,0.3-2.7,0.8-3.8c0.5-1,1.3-1.8,2.3-2.4c1-0.5,2.1-0.8,3.4-0.8c1.9,0,3.4,0.6,4.4,1.8
			c1.1,1.2,1.6,2.8,1.6,4.9l0,19.4l8.5,0l0-20.8c0-2.6-0.4-4.8-1.4-6.6C315.8,143.5,314.5,142.1,312.8,141.1z"/>
		<path class="st2" d="M329.8,126.9c-1.3,0-2.4,0.4-3.3,1.3c-0.9,0.9-1.4,1.9-1.4,3.1c0,1.2,0.5,2.3,1.4,3.1c0.9,0.9,2,1.3,3.3,1.3
			c1.3,0,2.4-0.4,3.4-1.3c0.9-0.9,1.4-1.9,1.4-3.1c0-1.2-0.5-2.3-1.4-3.1C332.2,127.3,331.1,126.9,329.8,126.9z"/>
		
			<rect x="313.5" y="152.2" transform="matrix(1.018418e-03 -1 1 1.018418e-03 173.0286 486.0441)" class="st2" width="32.7" height="8.5"/>
		<polygon class="st2" points="355.4,163.8 355,163.8 348,140.1 339,140.1 350.4,172.8 360,172.8 371.5,140.1 362.5,140.1 		"/>
		<path class="st2" d="M400.4,143.8c-1.4-1.4-3-2.4-4.8-3.1c-1.8-0.7-3.8-1-5.9-1c-3.2,0-5.9,0.7-8.3,2.1c-2.3,1.4-4.2,3.4-5.5,5.9
			s-2,5.5-2,8.9c0,3.4,0.6,6.4,1.9,8.9c1.3,2.5,3.1,4.5,5.5,5.8s5.3,2.1,8.6,2.1c2.6,0,5-0.4,7-1.2c2-0.8,3.7-1.9,5-3.4
			c1.3-1.5,2.2-3.2,2.6-5.1l-7.9-0.7c-0.3,0.9-0.8,1.6-1.4,2.2c-0.6,0.6-1.4,1-2.2,1.3c-0.9,0.3-1.8,0.4-2.9,0.4c-1.6,0-3-0.3-4.1-1
			c-1.2-0.7-2.1-1.6-2.7-2.9c-0.6-1.2-0.9-2.7-0.9-4.4l22.5,0l0-2.4c0-2.8-0.4-5.2-1.2-7.3C402.9,146.9,401.8,145.2,400.4,143.8z
			 M382.4,153.3c0.1-1.2,0.3-2.3,0.9-3.4c0.6-1.1,1.5-2,2.6-2.7s2.4-1,3.9-1c1.4,0,2.6,0.3,3.6,0.9c1,0.6,1.9,1.4,2.5,2.5
			c0.6,1.1,0.9,2.3,0.9,3.7L382.4,153.3z"/>
		<path class="st2" d="M427.5,139.7c-1.9,0-3.5,0.5-4.9,1.5c-1.4,1-2.4,2.5-3,4.5l-0.3,0l0-5.6l-8.3,0l0,32.7l8.5,0l0-18.8
			c0-1.3,0.3-2.5,0.9-3.6c0.6-1,1.5-1.9,2.5-2.4c1.1-0.6,2.3-0.9,3.6-0.9c0.6,0,1.3,0,2.1,0.1c0.7,0.1,1.3,0.2,1.7,0.3l0-7.7
			c-0.4-0.1-0.8-0.2-1.4-0.2C428.4,139.7,428,139.7,427.5,139.7z"/>
		<path class="st2" d="M453.2,154l-5.8-1.2c-1.6-0.3-2.7-0.8-3.3-1.4c-0.7-0.6-1-1.3-1-2.1c0-1,0.5-1.9,1.5-2.5
			c1-0.6,2.3-0.9,3.7-0.9c1.1,0,2.1,0.2,2.8,0.5s1.4,0.8,1.9,1.4c0.5,0.6,0.8,1.2,1,2l7.8-0.6c-0.5-2.9-1.8-5.2-4.1-6.9
			c-2.3-1.7-5.5-2.6-9.5-2.6c-2.7,0-5.1,0.4-7.1,1.2s-3.6,2-4.8,3.5c-1.1,1.5-1.7,3.3-1.7,5.3c0,2.4,0.8,4.4,2.3,6
			c1.5,1.6,3.9,2.7,7,3.3l5.6,1.2c1.4,0.3,2.5,0.7,3.2,1.3c0.7,0.6,1,1.3,1.1,2.1c0,1-0.5,1.9-1.6,2.6c-1,0.7-2.4,1-4.1,1
			c-1.7,0-3-0.4-4.1-1.1c-1.1-0.7-1.7-1.8-2-3.1l-8.4,0.5c0.5,3.1,1.9,5.5,4.4,7.3c2.5,1.8,5.9,2.6,10.1,2.6c2.8,0,5.3-0.4,7.4-1.3
			c2.1-0.9,3.8-2.1,5.1-3.7c1.2-1.6,1.8-3.4,1.8-5.6c0-2.3-0.8-4.2-2.3-5.7C458.6,155.8,456.3,154.7,453.2,154z"/>
		<path class="st2" d="M498,156.4c0-2.8-0.4-5.2-1.2-7.3c-0.8-2.1-1.9-3.8-3.3-5.2c-1.4-1.4-3-2.4-4.8-3.1c-1.8-0.7-3.8-1-5.9-1
			c-3.2,0-5.9,0.7-8.3,2.1c-2.3,1.4-4.2,3.4-5.5,5.9s-2,5.5-2,8.9c0,3.4,0.6,6.4,1.9,8.9c1.3,2.5,3.1,4.5,5.5,5.8
			c2.4,1.4,5.3,2.1,8.6,2.1c2.6,0,5-0.4,7-1.2c2-0.8,3.7-1.9,5-3.4c1.3-1.5,2.2-3.2,2.6-5.1l-7.9-0.7c-0.3,0.9-0.8,1.6-1.4,2.2
			c-0.6,0.6-1.4,1-2.2,1.3c-0.9,0.3-1.8,0.4-2.9,0.4c-1.6,0-3-0.3-4.1-1c-1.2-0.7-2.1-1.6-2.7-2.9c-0.6-1.2-0.9-2.7-0.9-4.4l22.5,0
			L498,156.4z M475.6,153.4c0.1-1.2,0.3-2.3,0.9-3.4c0.6-1.1,1.5-2,2.6-2.7c1.1-0.7,2.4-1,3.9-1c1.4,0,2.6,0.3,3.6,0.9
			c1,0.6,1.9,1.4,2.5,2.5c0.6,1.1,0.9,2.3,0.9,3.7L475.6,153.4z"/>
	</g>
</g>
</svg>
