<?xml version="1.0" encoding="utf-8"?>
<!-- Generator: Adobe Illustrator 25.1.0, SVG Export Plug-In . SVG Version: 6.00 Build 0)  -->
<svg version="1.1" width="" id="Logo" xmlns="http://www.w3.org/2000/svg" xmlns:xlink="http://www.w3.org/1999/xlink" x="0px" y="0px"
	 viewBox="0 80 570.9 150" style="enable-background:new 0 0 570.9 294.5;" xml:space="preserve">
<style type="text/css">
	.st0{fill:#939393;}
</style>
<g>
	<g>
		<path class="st0" d="M271.6,75.5c-3.1-1.7-6.9-2.6-11.3-2.6h-15.4v43.6h15.2c4.4,0,8.2-0.9,11.4-2.6c3.2-1.7,5.6-4.2,7.3-7.5
			c1.7-3.3,2.6-7.2,2.6-11.7c0-4.5-0.8-8.4-2.5-11.7C277.1,79.7,274.7,77.2,271.6,75.5z M271.2,102.7c-1,2.1-2.4,3.7-4.4,4.7
			s-4.3,1.5-7.2,1.5h-6.1V80.3h6.2c2.8,0,5.2,0.5,7.1,1.5c1.9,1,3.4,2.6,4.3,4.7c1,2.1,1.5,4.8,1.5,8.1
			C272.7,97.9,272.2,100.6,271.2,102.7z"/>
		<path class="st0" d="M292,116c1.6,0.7,3.5,1.1,5.6,1.1c1.6,0,3.1-0.2,4.3-0.7c1.2-0.5,2.3-1.1,3.2-1.8c0.9-0.8,1.6-1.6,2.1-2.6
			h0.3v4.5h8.1v-22c0-2-0.4-3.8-1.1-5.2c-0.8-1.4-1.8-2.6-3.1-3.4s-2.7-1.5-4.4-1.9c-1.6-0.4-3.3-0.6-5-0.6c-2.5,0-4.7,0.4-6.6,1.1
			c-1.9,0.7-3.6,1.8-4.8,3.2s-2.1,3.1-2.6,5.1l7.9,0.8c0.3-1.1,1-2,2-2.8s2.4-1.1,4.1-1.1c1.6,0,2.9,0.4,3.8,1.2
			c0.9,0.8,1.3,1.9,1.3,3.4v0.1c0,0.7-0.3,1.2-0.8,1.6c-0.5,0.3-1.4,0.6-2.6,0.8c-1.2,0.2-2.7,0.4-4.6,0.6c-1.6,0.2-3.1,0.4-4.6,0.8
			c-1.5,0.4-2.8,0.9-4,1.7s-2.1,1.7-2.8,2.9c-0.7,1.2-1,2.7-1,4.6c0,2.2,0.5,4,1.4,5.4C289,114.1,290.3,115.2,292,116z M295.6,104.8
			c0.5-0.6,1.1-1.1,2-1.4c0.8-0.3,1.8-0.6,2.9-0.8c0.5-0.1,1.1-0.2,1.7-0.2c0.6-0.1,1.3-0.2,1.9-0.3c0.7-0.1,1.2-0.3,1.8-0.4
			c0.5-0.2,0.9-0.3,1.2-0.5v3.6c0,1.2-0.3,2.2-0.9,3.2c-0.6,0.9-1.4,1.7-2.5,2.3c-1.1,0.6-2.3,0.9-3.7,0.9c-1.5,0-2.7-0.3-3.6-1
			c-1-0.7-1.4-1.7-1.4-3C294.8,106.2,295.1,105.4,295.6,104.8z"/>
		<path class="st0" d="M339,109.6c-0.2,0.1-0.6,0.1-1,0.2c-0.4,0.1-0.8,0.1-1.3,0.1c-0.6,0-1.2-0.1-1.7-0.3c-0.5-0.2-0.9-0.5-1.2-1
			c-0.3-0.5-0.4-1.2-0.4-2.1V90.2h6.3v-6.5h-6.3v-7.8H325v7.8h-4.5v6.5h4.5v17.5c0,2.1,0.4,3.8,1.3,5.2c0.9,1.4,2.2,2.4,3.8,3.1
			c1.6,0.7,3.4,1,5.5,0.9c1.1,0,2.1-0.2,2.9-0.3c0.8-0.2,1.4-0.3,1.8-0.5L339,109.6z"/>
		<path class="st0" d="M369,85.9c-1.3-0.9-2.7-1.5-4.4-1.9c-1.6-0.4-3.3-0.6-5-0.6c-2.5,0-4.7,0.4-6.6,1.1c-1.9,0.7-3.6,1.8-4.8,3.2
			c-1.3,1.4-2.1,3.1-2.6,5.1l7.9,0.8c0.3-1.1,1-2,2-2.8c1-0.8,2.4-1.1,4.1-1.1c1.6,0,2.9,0.4,3.8,1.2c0.9,0.8,1.3,1.9,1.3,3.4v0.1
			c0,0.7-0.3,1.2-0.8,1.6c-0.5,0.3-1.4,0.6-2.6,0.8c-1.2,0.2-2.7,0.4-4.6,0.6c-1.6,0.2-3.1,0.4-4.6,0.8c-1.5,0.4-2.8,0.9-4,1.7
			c-1.2,0.7-2.1,1.7-2.8,2.9c-0.7,1.2-1,2.7-1,4.6c0,2.2,0.5,4,1.4,5.4c0.9,1.4,2.2,2.5,3.9,3.3c1.6,0.7,3.5,1.1,5.6,1.1
			c1.6,0,3.1-0.2,4.3-0.7c1.2-0.5,2.3-1.1,3.2-1.8c0.9-0.8,1.6-1.6,2.1-2.6h0.3v4.5h8.1v-22c0-2-0.4-3.8-1.1-5.2
			C371.3,87.9,370.3,86.7,369,85.9z M364.7,104.7c0,1.2-0.3,2.2-0.9,3.2c-0.6,0.9-1.4,1.7-2.5,2.3c-1.1,0.6-2.3,0.9-3.7,0.9
			c-1.5,0-2.7-0.3-3.6-1c-1-0.7-1.4-1.7-1.4-3c0-0.9,0.2-1.7,0.7-2.3c0.5-0.6,1.1-1.1,2-1.4c0.8-0.3,1.8-0.6,2.9-0.8
			c0.5-0.1,1.1-0.2,1.7-0.2c0.6-0.1,1.3-0.2,1.9-0.3c0.7-0.1,1.2-0.3,1.8-0.4c0.5-0.2,0.9-0.3,1.2-0.5V104.7z"/>
		<path class="st0" d="M272.1,156.8c0,1.7-0.4,3.2-1.1,4.6c-0.8,1.3-1.8,2.4-3.2,3.2s-3,1.1-4.9,1.1c-1.9,0-3.5-0.4-4.9-1.1
			s-2.5-1.8-3.2-3.2c-0.8-1.3-1.1-2.9-1.1-4.6v-27.6h-8.7v28.4c0,3.2,0.7,5.9,2.2,8.3c1.5,2.4,3.6,4.2,6.3,5.6c2.7,1.3,5.8,2,9.4,2
			s6.7-0.7,9.4-2c2.7-1.3,4.8-3.2,6.3-5.6c1.5-2.4,2.2-5.1,2.2-8.3v-28.4h-8.7V156.8z"/>
		<path class="st0" d="M312.7,141.1c-1.7-1-3.7-1.5-5.9-1.5c-2.4,0-4.5,0.6-6.2,1.6c-1.7,1.1-2.9,2.6-3.6,4.5h-0.4v-5.7h-8.1v32.7
			h8.5v-19c0-1.5,0.3-2.7,0.8-3.8c0.5-1,1.3-1.8,2.3-2.4c1-0.5,2.1-0.8,3.4-0.8c1.9,0,3.4,0.6,4.4,1.8c1.1,1.2,1.6,2.8,1.6,4.9v19.4
			h8.5V152c0-2.6-0.4-4.8-1.4-6.6S314.4,142.1,312.7,141.1z"/>
		<path class="st0" d="M329.8,126.9c-1.3,0-2.4,0.4-3.3,1.3c-0.9,0.9-1.4,1.9-1.4,3.1c0,1.2,0.5,2.3,1.4,3.1c0.9,0.9,2,1.3,3.3,1.3
			c1.3,0,2.4-0.4,3.4-1.3c0.9-0.9,1.4-1.9,1.4-3.1c0-1.2-0.5-2.3-1.4-3.1C332.2,127.3,331,126.9,329.8,126.9z"/>
		<rect x="325.5" y="140.1" class="st0" width="8.5" height="32.7"/>
		<polygon class="st0" points="355.3,163.8 355,163.8 347.9,140.1 338.9,140.1 350.4,172.8 359.9,172.8 371.4,140.1 362.4,140.1 		
			"/>
		<path class="st0" d="M400.4,143.7c-1.4-1.4-3-2.4-4.8-3.1c-1.8-0.7-3.8-1-5.9-1c-3.2,0-5.9,0.7-8.3,2.1c-2.3,1.4-4.2,3.4-5.5,5.9
			c-1.3,2.5-1.9,5.5-1.9,8.9c0,3.4,0.6,6.4,1.9,8.9c1.3,2.5,3.1,4.5,5.5,5.8s5.3,2.1,8.6,2.1c2.6,0,5-0.4,7-1.2c2-0.8,3.7-1.9,5-3.4
			c1.3-1.5,2.2-3.2,2.6-5.1l-7.9-0.7c-0.3,0.9-0.8,1.6-1.4,2.2c-0.6,0.6-1.4,1-2.2,1.3c-0.9,0.3-1.8,0.4-2.9,0.4c-1.6,0-3-0.3-4.1-1
			c-1.2-0.7-2.1-1.6-2.7-2.9c-0.6-1.2-0.9-2.7-1-4.4h22.5v-2.4c0-2.8-0.4-5.3-1.2-7.3C402.8,146.8,401.8,145.1,400.4,143.7z
			 M382.4,153.2c0.1-1.2,0.3-2.3,0.9-3.4c0.6-1.1,1.5-2,2.6-2.7c1.1-0.7,2.4-1,3.9-1c1.4,0,2.6,0.3,3.6,0.9c1.1,0.6,1.9,1.4,2.5,2.5
			c0.6,1.1,0.9,2.3,0.9,3.7H382.4z"/>
		<path class="st0" d="M427.5,139.6c-1.9,0-3.5,0.5-4.9,1.6c-1.4,1-2.4,2.5-3,4.5h-0.3v-5.6h-8.3v32.7h8.5V154
			c0-1.3,0.3-2.5,0.9-3.6c0.6-1,1.5-1.9,2.5-2.4c1.1-0.6,2.3-0.9,3.6-0.9c0.6,0,1.3,0,2.1,0.1c0.7,0.1,1.3,0.2,1.7,0.3v-7.7
			c-0.4-0.1-0.8-0.2-1.4-0.2C428.4,139.6,427.9,139.6,427.5,139.6z"/>
		<path class="st0" d="M453.2,153.9l-5.8-1.2c-1.6-0.3-2.7-0.8-3.4-1.4c-0.7-0.6-1-1.3-1-2.1c0-1,0.5-1.9,1.5-2.5
			c1-0.6,2.3-0.9,3.7-0.9c1.1,0,2.1,0.2,2.8,0.5s1.4,0.8,1.9,1.4c0.5,0.6,0.8,1.2,1,2l7.8-0.6c-0.5-2.9-1.8-5.2-4.1-6.9
			c-2.3-1.7-5.5-2.6-9.5-2.6c-2.7,0-5.1,0.4-7.1,1.2c-2,0.8-3.6,2-4.8,3.5c-1.1,1.5-1.7,3.3-1.7,5.3c0,2.4,0.8,4.4,2.3,6
			c1.5,1.6,3.9,2.7,7,3.3l5.6,1.1c1.4,0.3,2.5,0.7,3.2,1.3c0.7,0.6,1,1.3,1.1,2.1c0,1-0.5,1.9-1.6,2.6s-2.4,1-4.1,1
			c-1.7,0-3-0.4-4.1-1.1s-1.7-1.8-2-3.1l-8.4,0.6c0.5,3.1,1.9,5.5,4.4,7.3c2.5,1.8,5.9,2.6,10.1,2.6c2.8,0,5.3-0.4,7.4-1.3
			c2.1-0.9,3.8-2.1,5.1-3.7c1.2-1.6,1.8-3.5,1.8-5.6c0-2.3-0.8-4.2-2.3-5.7C458.7,155.6,456.3,154.6,453.2,153.9z"/>
		<path class="st0" d="M498.1,156.2c0-2.8-0.4-5.3-1.2-7.3c-0.8-2.1-1.9-3.8-3.3-5.2c-1.4-1.4-3-2.4-4.8-3.1c-1.8-0.7-3.8-1-5.9-1
			c-3.2,0-5.9,0.7-8.3,2.1c-2.3,1.4-4.2,3.4-5.5,5.9c-1.3,2.5-1.9,5.5-1.9,8.9c0,3.4,0.6,6.4,1.9,8.9c1.3,2.5,3.1,4.5,5.5,5.8
			c2.4,1.4,5.3,2.1,8.6,2.1c2.6,0,5-0.4,7-1.2c2-0.8,3.7-1.9,5-3.4c1.3-1.5,2.2-3.2,2.6-5.1l-7.9-0.7c-0.3,0.9-0.8,1.6-1.4,2.2
			c-0.6,0.6-1.4,1-2.2,1.3c-0.9,0.3-1.8,0.4-2.9,0.4c-1.6,0-3-0.3-4.1-1c-1.2-0.7-2.1-1.6-2.7-2.9c-0.6-1.2-0.9-2.7-1-4.4h22.5
			V156.2z M475.6,153.2c0.1-1.2,0.3-2.3,0.9-3.4c0.6-1.1,1.5-2,2.6-2.7c1.1-0.7,2.4-1,3.9-1c1.4,0,2.6,0.3,3.6,0.9
			c1,0.6,1.9,1.4,2.5,2.5c0.6,1.1,0.9,2.3,0.9,3.7H475.6z"/>
	</g>
	<g>
		<path class="st0" d="M123.9,174.8c24.6,0,45.2-17.5,49.9-40.8h-8.5c-4.6,18.6-21.4,32.5-41.5,32.5l-42.7,0V81.2l42.7,0
			c20,0,36.8,13.9,41.4,32.4h8.5c-4.7-23.2-25.3-40.7-49.9-40.7l-51-0.1v101.9L123.9,174.8L123.9,174.8z"/>
		<path class="st0" d="M119.7,119.7l0,40.8h4.1c1.4,0,2.8-0.1,4.2-0.2l0-32.2h85.3l0,42.7c0,23.5-19.1,42.6-42.7,42.6
			c-20.1,0-37-14-41.4-32.7c-1.7,0.2-3.5,0.3-5.3,0.3h-3.2c4.7,23.2,25.3,40.7,49.9,40.8h0.1c28.1,0,50.9-22.8,50.9-50.9l0.1-51.1
			H119.7z"/>
	</g>
</g>
</svg>
