<?xml version="1.0" encoding="utf-8"?>
<!-- Generator: Adobe Illustrator 16.0.0, SVG Export Plug-In . SVG Version: 6.00 Build 0)  -->
<!DOCTYPE svg PUBLIC "-//W3C//DTD SVG 1.1//EN" "http://www.w3.org/Graphics/SVG/1.1/DTD/svg11.dtd">
<svg version="1.1" id="Слой_1" xmlns="http://www.w3.org/2000/svg" xmlns:xlink="http://www.w3.org/1999/xlink" x="0px" y="0px"
	 viewBox="0 0 40 72" enable-background="new 0 0 40 72" xml:space="preserve">
<polyline fill="none" stroke="#FFFFFF" stroke-width="0.52" stroke-linecap="round" stroke-linejoin="round" stroke-miterlimit="10" points="
	4.316,55.858 18.929,70.325 33.9,55.858 "/>
<line fill="none" stroke="#FFFFFF" stroke-width="0.52" stroke-linecap="round" stroke-linejoin="round" stroke-miterlimit="10" x1="18.928" y1="41.904" x2="18.928" y2="70.325"/>
<path fill="none" stroke="#FFFFFF" stroke-width="0.52" stroke-linecap="round" stroke-miterlimit="10" d="M20.016,25.901h-1.814
	c-4.278,0-7.746-3.469-7.746-7.746V10.42c0-4.278,3.468-7.746,7.746-7.746h1.814c4.277,0,7.746,3.468,7.746,7.746v7.735
	C27.762,22.433,24.293,25.901,20.016,25.901z"/>
<line fill="none" stroke="#FFFFFF" stroke-width="0.52" stroke-linecap="round" stroke-miterlimit="10" x1="19.109" y1="12.019" x2="19.109" y2="2.675"/>
<path fill="#FFFFFF" d="M19.109,10.211L19.109,10.211c-0.503,0-0.911-0.408-0.911-0.911V7.277c0-0.503,0.408-0.911,0.911-0.911
	s0.911,0.408,0.911,0.911v2.024C20.02,9.804,19.612,10.211,19.109,10.211"/>
</svg>
