<svg xmlns="http://www.w3.org/2000/svg" width="91" height="91" fill="none"><defs><linearGradient id="a" x1="45.451" x2="57.044" y1="21.203" y2="68.939" gradientUnits="userSpaceOnUse"><stop stop-color="#CAE1ED"/><stop offset="1" stop-color="#2FBBDE" stop-opacity=".502"/></linearGradient></defs><path fill="#E6007E" d="M45.5 91C20.41 91 0 70.58 0 45.5 0 20.41 20.41 0 45.5 0 70.58 0 91 20.41 91 45.5 91 70.58 70.58 91 45.5 91m0-87.87C22.14 3.13 3.13 22.14 3.13 45.5c0 23.35 19.01 42.36 42.37 42.36 23.35 0 42.36-19.01 42.36-42.36 0-23.36-19.01-42.37-42.36-42.37"/><path fill="#E6007E" d="M65.89 26.67c-.4 0-.8-.16-1.11-.46-.61-.62-.61-1.61 0-2.22L75.2 13.57c.61-.61 1.6-.61 2.22 0 .61.62.61 1.61 0 2.22L67 26.21c-.31.3-.71.46-1.11.46M14.57 77.99c-.4 0-.8-.15-1.11-.46-.61-.61-.61-1.61 0-2.22l8.96-8.96c.61-.61 1.61-.61 2.22 0s.61 1.61 0 2.22l-8.96 8.96c-.31.31-.71.46-1.11.46"/><path fill="url(#a)" d="M40.89 61.62c-2.54-2.21-5.15-4.33-7.88-6.3l-3.06-2.2c-7.25-5.23-9.85-15.16-5.39-22.9a18.2 18.2 0 0 1 4.74-5.37c5.18-3.92 11.8-4.61 17.44-2.42 4.19 1.62 7.44 5.04 9.28 9.15l4.27 9.53c1.53 3.43 3.36 6.71 5.27 9.95 4.01 6.84 4.58 13.73-2.18 18.84-5.96 4.51-11 2.62-15.68-1.95-1.04-1.02-2.09-2.02-3.15-3.01z"/><path fill="#2FBBDE" fill-opacity=".92" d="M56.68 74.06c-3.33 0-6.67-1.66-10.08-4.99-1.03-1.01-2.07-2.01-3.12-2.99-.63-.59-.66-1.58-.07-2.22.59-.63 1.58-.66 2.21-.07q1.605 1.5 3.18 3.03c4.9 4.8 8.98 5.34 13.64 1.83 5.34-4.05 5.93-9.69 1.77-16.79-1.72-2.92-3.69-6.4-5.35-10.11l-4.27-9.53c-1.74-3.9-4.81-6.93-8.42-8.33-5.38-2.09-11.33-1.26-15.92 2.21a16.4 16.4 0 0 0-4.33 4.9c-3.95 6.85-1.77 16 4.95 20.84l3.06 2.21c2.63 1.9 5.24 3.99 7.99 6.39.65.57.72 1.56.15 2.21-.57.66-1.56.72-2.21.15-2.68-2.33-5.22-4.37-7.77-6.21l-3.06-2.2c-8.01-5.77-10.57-16.73-5.83-24.95a19.5 19.5 0 0 1 5.16-5.84c5.46-4.13 12.55-5.12 18.95-2.64 4.43 1.73 8.04 5.27 10.15 9.98l4.26 9.53c1.6 3.57 3.52 6.96 5.19 9.8 5.04 8.57 4.14 15.79-2.58 20.88q-3.84 2.91-7.65 2.91"/><path fill="#2FBBDE" fill-opacity=".92" d="M24.93 29.73c-.07 0-.15 0-.22-.01l-6.59-.91c-.86-.12-1.46-.92-1.34-1.77.12-.86.9-1.46 1.77-1.34l6.59.91a1.568 1.568 0 0 1-.21 3.12M40.58 21.82c-.07 0-.14 0-.21-.01-.86-.12-1.46-.91-1.34-1.77l.61-4.4c.12-.85.9-1.45 1.77-1.33.86.12 1.46.91 1.34 1.77l-.61 4.39c-.11.79-.78 1.35-1.56 1.35M46.99 22.64c-.24 0-.48-.05-.71-.15-.79-.37-1.11-1.26-.72-2l1.58-2.99c.39-.74 1.35-1.04 2.14-.68.79.37 1.12 1.26.72 2l-1.58 2.99c-.28.53-.85.83-1.43.83M53.16 28.05c-.65 0-1.26-.41-1.48-1.07-.28-.82.16-1.71.98-1.99l4.7-1.59c.82-.27 1.71.17 1.99.99s-.16 1.71-.99 1.99l-4.7 1.59c-.16.05-.33.08-.5.08M57.59 36.5c-.47 0-.94-.21-1.25-.62-.53-.69-.39-1.67.3-2.2l3.76-2.84c.69-.52 1.67-.38 2.19.31.53.69.39 1.67-.3 2.19l-3.75 2.84c-.29.22-.62.32-.95.32M64.86 48.71c-.66 0-1.27-.41-1.49-1.07-.28-.82.16-1.71.98-1.98l4.71-1.59c.82-.28 1.71.16 1.98.98.28.82-.16 1.71-.98 1.99l-4.7 1.59c-.17.05-.34.08-.5.08M74.02 63.42c-.07 0-.14 0-.22-.01l-4.39-.61c-.86-.12-1.46-.92-1.34-1.77.12-.86.91-1.46 1.77-1.34l4.39.61a1.568 1.568 0 0 1-.21 3.12M14.92 37.31c-.87 0-1.57-.7-1.57-1.56a1.56 1.56 0 0 1 1.56-1.58l6.92-.03h.01c.86 0 1.56.7 1.56 1.56.01.87-.69 1.57-1.56 1.58zM21.88 51.71c-.47 0-.94-.21-1.25-.62-.52-.69-.39-1.67.3-2.2L23.44 47a1.568 1.568 0 1 1 1.89 2.5l-2.5 1.9c-.29.21-.62.31-.95.31M26 62.37c-.2 0-.41-.04-.6-.13-.8-.33-1.18-1.25-.84-2.05l3.3-7.84c.34-.8 1.27-1.18 2.05-.84.8.34 1.18 1.26.84 2.06l-3.3 7.84c-.25.6-.83.96-1.45.96M37.33 69.54c-.07 0-.14-.01-.22-.02-.85-.12-1.45-.91-1.33-1.77l1.06-7.67c.12-.86.91-1.46 1.77-1.34s1.46.91 1.34 1.77l-1.07 7.67a1.57 1.57 0 0 1-1.55 1.36M52.11 76.06c-.08 0-.15 0-.22-.01-.86-.12-1.46-.91-1.34-1.77l.31-2.2c.12-.86.91-1.45 1.77-1.34.85.12 1.45.91 1.33 1.77l-.3 2.2c-.11.79-.78 1.35-1.55 1.35M63.1 77.59c-.48 0-.95-.22-1.26-.62L59 73.21c-.52-.69-.38-1.67.31-2.2.69-.52 1.67-.38 2.2.31l2.84 3.75a1.576 1.576 0 0 1-1.25 2.52M68.4 71.6c-.23 0-.47-.05-.69-.16l-3.15-1.56a1.574 1.574 0 0 1-.71-2.1c.39-.77 1.33-1.09 2.11-.71l3.14 1.56c.78.38 1.1 1.32.71 2.1-.27.55-.83.87-1.41.87M30.05 23.43c-.47 0-.94-.21-1.25-.62l-2.84-3.75c-.52-.69-.39-1.68.3-2.2.7-.53 1.68-.39 2.2.3l2.84 3.76c.52.69.39 1.67-.3 2.19-.29.22-.62.32-.95.32M37.99 37.38c0 .69-.37 1.25-.82 1.25-.46 0-.83-.56-.83-1.25 0-.68.37-1.24.83-1.24.45 0 .82.56.82 1.24M45.44 45.24c0 .46-.56.83-1.24.83-.69 0-1.24-.37-1.24-.83 0-.45.55-.82 1.24-.82.68 0 1.24.37 1.24.82M52.88 57.24A1.24 1.24 0 1 1 51.64 56c.69 0 1.24.55 1.24 1.24M37.16 46.07a.826.826 0 1 1-1.65 0 .826.826 0 1 1 1.65 0M46.27 52.69c0 .91-.56 1.65-1.25 1.65-.68 0-1.24-.74-1.24-1.65s.56-1.66 1.24-1.66c.69 0 1.25.75 1.25 1.66M42.13 50.62c0 .69-.56 1.24-1.24 1.24-.69 0-1.24-.55-1.24-1.24a1.24 1.24 0 1 1 2.48 0M47.09 37.38c0 .69-.37 1.25-.82 1.25-.46 0-.83-.56-.83-1.25 0-.68.37-1.24.83-1.24.45 0 .82.56.82 1.24M52.06 48.55c0 .92-.56 1.66-1.24 1.66-.69 0-1.25-.74-1.25-1.66 0-.91.56-1.65 1.25-1.65.68 0 1.24.74 1.24 1.65"/></svg>