<svg width="69.881577" height="94.000000" viewBox="0 0 69.8816 94" fill="none" xmlns="http://www.w3.org/2000/svg" xmlns:xlink="http://www.w3.org/1999/xlink">
	<desc>
			Created with Pixso.
	</desc>
	<defs>
		<linearGradient x1="3.993210" y1="101.666656" x2="85.651306" y2="32.467133" id="paint_linear_847_1314_0" gradientUnits="userSpaceOnUse">
			<stop stop-color="#2FBBDE" stop-opacity="0.501961"/>
			<stop offset="1.000000" stop-color="#CAE1ED"/>
		</linearGradient>
	</defs>
	<path id="Vector" d="M67.76 0.1L67.64 0.11L67.63 0L49.84 2.12L50.63 8.82L56.72 8.1L50.96 15.42C49.5 14.6 47.94 13.94 46.31 13.47C43.45 12.64 40.5 12.4 37.53 12.76C34.56 13.11 31.75 14.04 29.17 15.52C26.68 16.94 24.51 18.81 22.73 21.08C20.95 23.35 19.65 25.9 18.85 28.66C18.76 28.96 18.68 29.26 18.61 29.55C16.87 29.84 15.17 30.33 13.53 31.02C10.89 32.14 8.52 33.74 6.49 35.79C4.45 37.83 2.86 40.2 1.74 42.85C0.58 45.6 0 48.51 0 51.51C0 54.51 0.58 57.42 1.74 60.17C2.85 62.81 4.45 65.19 6.49 67.23C8.52 69.27 10.89 70.88 13.53 72C15.22 72.71 16.96 73.21 18.76 73.49L18.76 80.32L10.35 80.32L10.35 87.08L18.76 87.08L18.76 94L25.49 94L25.49 87.08L33.9 87.08L33.9 80.32L25.49 80.32L25.49 73.5C27.31 73.23 29.08 72.72 30.79 72C33.43 70.88 35.8 69.28 37.84 67.23C39.87 65.19 41.47 62.81 42.59 60.17C43.05 59.07 43.43 57.94 43.7 56.79C46.33 56.36 48.82 55.48 51.13 54.16C53.62 52.74 55.79 50.86 57.57 48.6C59.35 46.33 60.65 43.78 61.45 41.02C62.28 38.15 62.52 35.19 62.16 32.21C61.81 29.23 60.89 26.41 59.41 23.82C58.6 22.4 57.65 21.09 56.57 19.89L62.44 12.4L63.19 18.74L69.88 17.94L67.76 0.1ZM22.16 66.82C13.75 66.82 6.9 59.95 6.9 51.51C6.9 44.49 11.63 38.56 18.06 36.76C18.08 37 18.11 37.23 18.14 37.46C18.49 40.45 19.41 43.27 20.89 45.85C22.31 48.35 24.17 50.52 26.44 52.31C28.7 54.1 31.24 55.41 33.99 56.21C34.82 56.45 35.65 56.64 36.5 56.78C34.35 62.63 28.74 66.82 22.16 66.82L22.16 66.82ZM24.97 36.46C31.54 37.69 36.63 43.15 37.34 49.9C34.95 49.45 32.68 48.42 30.71 46.87C27.5 44.34 25.48 40.71 24.99 36.65C24.99 36.58 24.98 36.52 24.97 36.46L24.97 36.46ZM52.14 44.31C50.11 46.9 47.36 48.73 44.25 49.59C44.05 47.27 43.5 45.01 42.59 42.85C41.47 40.2 39.88 37.82 37.84 35.78C35.81 33.74 33.43 32.14 30.79 31.02C29.19 30.34 27.53 29.85 25.82 29.57C27.74 24.34 32.46 20.34 38.35 19.63C38.96 19.56 39.57 19.53 40.18 19.53C43.59 19.53 46.88 20.66 49.59 22.81C52.8 25.34 54.82 28.97 55.31 33.03C55.79 37.09 54.66 41.1 52.14 44.31L52.14 44.31Z" fill="url(#paint_linear_847_1314_0)" fill-opacity="1.000000" fill-rule="nonzero"/>
	<path id="Vector" d="M47.67 38.31L47.67 38.31C47.67 38.2 47.68 38.09 47.68 37.99C47.68 33.71 44.2 30 39.91 30C36.77 30 34.07 32.09 32.84 34.76L32.84 34.76C31.61 32.09 28.91 30 25.77 30C21.48 30 18 33.71 18 37.99C18 38.09 18 38.2 18 38.31L18 38.31C18 38.31 17.56 43.39 23.02 48.94C25.5 51.52 28.27 53.97 32.84 57.82C37.4 53.97 40.18 51.52 42.66 48.94C48.11 43.39 47.67 38.31 47.67 38.31Z" fill="#E6007E" fill-opacity="1.000000" fill-rule="nonzero"/>
</svg>
