<svg width="91.677887" height="91.543457" viewBox="0 0 91.6779 91.5435" fill="none" xmlns="http://www.w3.org/2000/svg" xmlns:xlink="http://www.w3.org/1999/xlink">
	<desc>
			Created with Pixso.
	</desc>
	<defs>
		<linearGradient x1="35.849613" y1="38.811954" x2="50.316784" y2="48.111813" id="paint_linear_847_1121_0" gradientUnits="userSpaceOnUse">
			<stop stop-color="#2FBBDE" stop-opacity="0.501961"/>
			<stop offset="1.000000" stop-color="#CAE1ED"/>
		</linearGradient>
		<linearGradient x1="11.837257" y1="24.189339" x2="59.578930" y2="62.450943" id="paint_linear_847_1122_0" gradientUnits="userSpaceOnUse">
			<stop stop-color="#2FBBDE" stop-opacity="0.501961"/>
			<stop offset="1.000000" stop-color="#CAE1ED"/>
		</linearGradient>
	</defs>
	<path id="Vector" d="M38.02 44C38.36 54.8 54.02 54.8 54.36 44C54.01 33.21 38.36 33.21 38.02 44Z" fill="url(#paint_linear_847_1121_0)" fill-opacity="1.000000" fill-rule="nonzero"/>
	<path id="Vector" d="M47.09 12.7C46.79 12.41 46.39 12.25 45.97 12.25C45.55 12.25 45.14 12.41 44.84 12.7C43.79 13.71 19.01 37.42 19.01 51.93C19.01 59.08 21.85 65.93 26.91 70.98C31.96 76.03 38.82 78.87 45.97 78.87C53.11 78.87 59.97 76.03 65.02 70.98C70.08 65.93 72.92 59.08 72.93 51.93C72.93 37.42 48.14 13.71 47.09 12.7ZM57.4 44.17C57.4 46.92 56.41 49.57 54.61 51.65C52.81 53.73 50.32 55.09 47.6 55.48L47.6 60.75L50.16 60.75C50.6 60.76 51.01 60.93 51.32 61.23C51.62 61.54 51.79 61.96 51.79 62.39C51.79 62.82 51.62 63.23 51.32 63.54C51.01 63.85 50.6 64.02 50.16 64.02L47.6 64.02L47.6 66.59C47.6 66.8 47.56 67.01 47.48 67.21C47.39 67.41 47.27 67.59 47.12 67.75C46.97 67.9 46.79 68.02 46.59 68.1C46.39 68.18 46.18 68.23 45.97 68.23C45.75 68.23 45.54 68.18 45.34 68.1C45.14 68.02 44.96 67.9 44.81 67.75C44.66 67.59 44.54 67.41 44.45 67.21C44.37 67.01 44.33 66.8 44.33 66.59L44.33 64.02L41.77 64.02C41.34 64.01 40.93 63.84 40.63 63.53C40.33 63.23 40.16 62.82 40.16 62.39C40.16 61.96 40.33 61.55 40.63 61.24C40.93 60.94 41.34 60.76 41.77 60.75L44.33 60.75L44.33 55.48C30.47 53.2 31.82 33.07 45.97 32.73C49 32.74 51.91 33.94 54.05 36.09C56.19 38.23 57.4 41.14 57.4 44.17Z" fill="url(#paint_linear_847_1122_0)" fill-opacity="1.000000" fill-rule="nonzero"/>
	<path id="Vector" d="M90.04 44.24C89.82 44.24 89.61 44.29 89.41 44.37C89.22 44.45 89.03 44.57 88.88 44.72C88.73 44.87 88.61 45.05 88.53 45.25C88.45 45.45 88.4 45.66 88.4 45.88C88.42 51.46 87.33 56.99 85.19 62.14C83.06 67.3 79.92 71.98 75.96 75.92C60.15 92.4 31.7 92.4 15.88 75.92C-20.87 36.48 30.29 -19.52 72.87 13.05L69.32 13.05C68.89 13.06 68.48 13.23 68.18 13.54C67.88 13.84 67.72 14.26 67.72 14.68C67.72 15.11 67.88 15.52 68.18 15.83C68.48 16.13 68.89 16.31 69.32 16.32L77.12 16.32C77.33 16.32 77.54 16.28 77.74 16.19C77.94 16.11 78.12 15.99 78.27 15.84C78.42 15.69 78.55 15.51 78.63 15.31C78.71 15.11 78.75 14.9 78.75 14.68L78.75 6.88C78.75 6.45 78.58 6.04 78.27 5.73C77.96 5.43 77.55 5.26 77.12 5.26C76.69 5.26 76.27 5.43 75.96 5.73C75.66 6.04 75.48 6.45 75.48 6.88L75.48 10.98C29.78 -25.03 -26.25 35.44 13.57 78.23C30.6 95.97 61.24 95.98 78.27 78.23C82.53 73.99 85.91 68.95 88.21 63.4C90.51 57.84 91.69 51.89 91.67 45.88C91.67 45.66 91.63 45.45 91.55 45.25C91.47 45.05 91.35 44.87 91.19 44.72C91.04 44.57 90.86 44.45 90.66 44.37C90.47 44.29 90.25 44.24 90.04 44.24Z" fill="#E6007E" fill-opacity="1.000000" fill-rule="nonzero"/>
</svg>
