<svg xmlns="http://www.w3.org/2000/svg" width="133" height="133" fill="none"><g filter="url(#a)" shape-rendering="crispEdges"><rect width="55" height="55" x="39.5" y="39" fill="url(#b)" rx="27.5"/><rect width="53" height="53" x="40.5" y="40" stroke="url(#c)" stroke-width="2" rx="26.5"/></g><path fill="#2FBBDE" d="m25.019 58.564-.137 2.318-6.796 4.577 6.504.383-.117 1.994-12.83-.755.118-1.995 6.217.367-5.932-5.218.13-2.192 5.93 5.217zm-7.93-7.706q.51-1.632 1.542-2.215 1.02-.605 2.65-.095l6.271 1.962-.414 1.323-1.4-.042-.022.068q.375.552.577 1.048.208.48.202 1.044-.002.547-.233 1.285a3.4 3.4 0 0 1-.727 1.3 2.42 2.42 0 0 1-1.234.69q-.749.162-1.693-.134-1.41-.441-1.836-1.668-.422-1.245.155-3.328l.41-1.493-.515-.162q-1.03-.322-1.578-.022-.54.285-.777 1.04a4.1 4.1 0 0 0-.186 1.318q.012.683.122 1.359l-1.5.153a7.2 7.2 0 0 1-.116-1.62q.017-.9.302-1.811m5.119 1.243q-.372 1.43-.08 2.125.274.69 1.099.947.721.225 1.166-.05.45-.293.643-.911.296-.945-.107-1.769-.396-.84-1.6-1.217l-.806-.252zm.938-13.81 1.087-1.845 2.11 5.607 6.415-.965-1.14 1.94-6.235.904 4.235 2.492-.987 1.676-8.36-4.922.985-1.675 4.065 2.392zm10.726-12.105q1.253-1.056 2.822-.73 1.569.324 3.182 2.238 1.056 1.251 1.429 2.42.387 1.157.125 2.132-.273.96-1.113 1.668-.509.429-1.024.628a3 3 0 0 1-1 .183 5.4 5.4 0 0 1-.908-.128l-.083.07q.236.223.554.545.306.306.527.568l2.552 3.028-1.486 1.253-9.039-10.72 1.211-1.021 1.042.816.069-.058a4.6 4.6 0 0 1 .006-.97q.069-.506.326-.981.271-.49.808-.94m.61 1.534q-.605.51-.744 1.099-.151.575.122 1.262.276.663.96 1.474l.186.22q.72.854 1.381 1.332.664.452 1.303.455.64-.021 1.287-.567.55-.465.63-1.096.068-.645-.278-1.39-.331-.757-1.004-1.555-1.02-1.21-2.026-1.565-.99-.365-1.816.331m9.292-7.941q1.532-.76 2.666-.418 1.142.318 1.901 1.85l2.918 5.887-1.242.615-.938-1.041-.065.032a5.7 5.7 0 0 1-.358 1.142 2.5 2.5 0 0 1-.614.867q-.396.377-1.09.72-.726.36-1.442.374a2.43 2.43 0 0 1-1.35-.415q-.636-.43-1.075-1.316-.655-1.323-.064-2.48.608-1.165 2.511-2.189l1.363-.736-.24-.483q-.48-.968-1.074-1.155-.58-.195-1.289.156a4.1 4.1 0 0 0-1.081.777q-.484.481-.897 1.027l-1.148-.978a7.2 7.2 0 0 1 1.091-1.203q.663-.61 1.517-1.033m2.64 4.557q-1.29.72-1.59 1.411-.308.675.075 1.45.336.677.843.807.522.123 1.103-.165.888-.44 1.204-1.3.333-.868-.226-1.997l-.376-.758zm5.58-3.676q-.472-2.09-.38-3.642.11-1.556.846-2.627.732-1.088 2.171-1.745.936-.432 1.88-.83a93 93 0 0 1 1.807-.74l.632 1.573q-.427.152-.917.355l-.996.41q-.507.206-.978.405-.455.195-.804.365a3.3 3.3 0 0 0-.987.611 2.4 2.4 0 0 0-.58.869q-.199.507-.22 1.23-.025.708.158 1.681l.106-.024q.135-.38.442-.82.307-.437.8-.789a3.2 3.2 0 0 1 1.209-.531q1.106-.25 2.015.098.904.332 1.523 1.188.615.84.907 2.139.36 1.598.059 2.792-.29 1.172-1.118 1.913-.812.737-2.076 1.022a4.04 4.04 0 0 1-1.804.02 3.75 3.75 0 0 1-1.57-.826q-.715-.633-1.26-1.654-.544-1.02-.865-2.443m5.294 3.344q.633-.143 1.021-.544.408-.405.52-1.133.113-.726-.141-1.85-.306-1.351-.923-2.043-.618-.69-1.636-.46a2.18 2.18 0 0 0-1.083.594q-.456.436-.733.922a4.5 4.5 0 0 0-.355.8q.187.826.463 1.557.293.726.691 1.264t.92.807q.536.248 1.256.086m14.803-4.448q-.021 1.206-.343 2.137-.322.93-.91 1.568-.568.639-1.384.966-.816.31-1.824.293a4.5 4.5 0 0 1-1.704-.354 3.85 3.85 0 0 1-1.35-1.013q-.565-.658-.873-1.6-.29-.94-.269-2.164.028-1.602.57-2.709.54-1.107 1.522-1.666 1-.577 2.35-.553 1.26.021 2.221.632.963.593 1.483 1.718.54 1.125.51 2.745m-6.641-.114q-.02 1.08.201 1.875.239.78.736 1.201.514.423 1.306.437.81.015 1.321-.391.53-.405.777-1.175.266-.788.284-1.868.02-1.116-.22-1.876-.238-.76-.736-1.165-.496-.422-1.324-.436-1.206-.021-1.762.87-.555.89-.583 2.528m17.197-.978-2.92-.718-1.95 7.936-1.87-.46 1.95-7.936-2.884-.709.366-1.486 7.673 1.887zm7.298 1.388q1.534.756 1.95 1.865.442 1.1-.314 2.634l-2.905 5.893-1.243-.613.258-1.378-.065-.031a5.8 5.8 0 0 1-1.124.409q-.507.13-1.063.038-.54-.086-1.234-.428a3.4 3.4 0 0 1-1.172-.919 2.43 2.43 0 0 1-.491-1.325q-.045-.764.393-1.653.653-1.323 1.931-1.556 1.294-.225 3.264.665l1.413.636.238-.484q.478-.97.265-1.556-.196-.578-.907-.928a4.1 4.1 0 0 0-1.274-.387 10 10 0 0 0-1.36-.09l.079-1.505a7.2 7.2 0 0 1 1.619.136 6.5 6.5 0 0 1 1.742.577m-2.017 4.866q-1.356-.587-2.087-.407-.723.165-1.106.94-.334.68-.13 1.16.22.49.802.777.888.438 1.764.167.891-.263 1.448-1.393l.374-.759zm15.199 11.675q-1.082 1.182-2.219 1.678t-2.229.303q-1.065-.195-2.009-1.058-.85-.778-1.172-1.732-.31-.968-.053-2.049.285-1.083 1.175-2.243l-1.487-1.361-2.856 3.12-1.434-1.313 6.55-7.157 1.435 1.313-2.662 2.908 1.5 1.373q1.007-.886 2.024-1.198t1.972-.074q.978.237 1.828 1.015.89.813 1.166 1.872.302 1.057-.067 2.232-.368 1.176-1.462 2.371m-4.62-4.23q-.766.838-1.13 1.554-.362.717-.272 1.337.092.62.636 1.119.558.51 1.157.522.613.024 1.294-.401.696-.414 1.461-1.25.778-.85 1.129-1.553.351-.705.248-1.31-.078-.609-.622-1.107t-1.171-.534q-.614-.05-1.283.362-.67.412-1.448 1.262m13.12 10.907-1.596-2.548-6.925 4.34-1.023-1.632 6.925-4.34-1.577-2.516 1.297-.813 4.195 6.696zm6.983 21.177-9.563 1.635-2.184-12.775 9.563-1.635.328 1.917-8.055 1.377.601 3.513 8.055-1.377.324 1.898-8.055 1.377.601 3.513 8.055-1.377zm-2.179 12.042.345-2.986-8.118-.94.222-1.913 8.118.94.341-2.95 1.52.175-.908 7.85zm-.477 7.429q-.56 1.616-1.609 2.166-1.038.574-2.653.013l-6.207-2.154.454-1.31 1.4.086.023-.068a5.8 5.8 0 0 1-.544-1.065 2.5 2.5 0 0 1-.17-1.05q.018-.546.272-1.277.266-.765.767-1.277a2.43 2.43 0 0 1 1.255-.65q.753-.14 1.688.185 1.395.484 1.784 1.724.382 1.257-.257 3.321l-.457 1.48.51.177q1.021.355 1.576.07.55-.266.81-1.014a4.1 4.1 0 0 0 .226-1.312 9.5 9.5 0 0 0-.08-1.362l1.504-.106a7.2 7.2 0 0 1 .066 1.623q-.046.9-.358 1.8m-5.078-1.4q.417-1.418.146-2.122-.254-.698-1.07-.98-.714-.248-1.167.014-.458.279-.671.891-.324.936.052 1.771.372.853 1.562 1.266l.799.277zm-4.575 17.917-7.982-5.515 1.013-1.466 4.739 3.274q.4.276.79.567.394.317.733.617l.031-.045-4.747-6.65.869-1.258 7.869 2.133.03-.044q-.39-.226-.815-.498a28 28 0 0 1-.855-.569l-4.694-3.243 1.003-1.452 7.982 5.516-1.504 2.176-7.59-2.093 4.622 6.388zm-12.23 10.49-5.91-7.694 1.413-1.086 3.509 4.569q.296.385.577.781.279.422.51.812l.043-.033-2.483-7.784 1.213-.932 6.838 4.44.042-.033a22 22 0 0 1-.623-.723q-.31-.375-.64-.803l-3.475-4.526 1.399-1.074 5.909 7.695-2.098 1.611-6.584-4.317 2.444 7.497zm-8.247-6.436 3.222 9.151-1.834.646-1.297-3.685-1.834.646q-1.188.418-2.06.382-.865-.02-1.425-.472-.577-.446-.888-1.328-.305-.867-.175-1.637.136-.754.79-1.385.645-.609 1.919-1.057zm-2.968 2.571q-.816.288-1.2.766-.396.502-.121 1.283.263.747.817.857.543.133 1.46-.189l1.613-.568-.956-2.717zm-5.47.399 3.221 9.152-1.833.645-3.222-9.151zm-5.053 5.608q.057.663-.025 1.158-.084.495-.35.952-.284.477-.8.992-.58.593-.89.981-.306.407-.403.758a2.3 2.3 0 0 0-.068.873q.067.772.588 1.142.502.371 1.345.297a4.4 4.4 0 0 0 1.432-.36 10 10 0 0 0 1.244-.651l.825 1.374a8.2 8.2 0 0 1-1.554.822 6.9 6.9 0 0 1-1.95.442q-1.667.146-2.657-.635-.99-.78-1.115-2.215-.068-.771.135-1.349.184-.576.592-1.082.39-.504.952-1.095.495-.531.753-.897.257-.365.335-.716.06-.33.019-.815l-.032-.358 1.578-.138zm.09-3.297q.061.7-.272 1.018-.334.318-.853.364a1.3 1.3 0 0 1-.868-.214q-.402-.254-.463-.953-.061-.7.289-1.037a1.27 1.27 0 0 1 .816-.379q.52-.045.905.228.385.274.447.973"/><path fill="#83D0F5" d="M64.209 71.325q0-1.404.265-2.428a5.9 5.9 0 0 1 .912-1.935q.684-.948 1.86-1.935 1.33-1.138 2.051-1.897.721-.796.988-1.518.303-.758.303-1.82 0-1.632-1.025-2.505-.987-.872-2.772-.872-1.672 0-3.076.493a21 21 0 0 0-2.734 1.138L59.5 55.011a17.3 17.3 0 0 1 3.417-1.442q1.9-.57 4.178-.569 3.531 0 5.468 1.821t1.937 4.857q0 1.63-.532 2.807a7 7 0 0 1-1.443 2.163 30 30 0 0 1-2.203 2.124q-1.139 1.025-1.746 1.746-.608.72-.836 1.441-.19.684-.19 1.708v.758H64.21zm-.798 6.905q0-1.48.76-2.086.759-.607 1.86-.607 1.026 0 1.785.607.798.606.798 2.086t-.798 2.125a2.67 2.67 0 0 1-1.785.645q-1.101 0-1.86-.645t-.76-2.125"/><defs><linearGradient id="b" x1="64.894" x2="87.335" y1="104.82" y2="53.192" gradientUnits="userSpaceOnUse"><stop stop-color="#fff" stop-opacity=".8"/><stop offset="1" stop-color="#fff" stop-opacity=".2"/></linearGradient><linearGradient id="c" x1="39.5" x2="94.5" y1="66.5" y2="66.5" gradientUnits="userSpaceOnUse"><stop stop-color="#fff" stop-opacity=".9"/><stop offset="1" stop-color="#fff" stop-opacity=".4"/></linearGradient><filter id="a" width="63" height="63" x="35.5" y="39" color-interpolation-filters="sRGB" filterUnits="userSpaceOnUse"><feFlood flood-opacity="0" result="BackgroundImageFix"/><feColorMatrix in="SourceAlpha" result="hardAlpha" values="0 0 0 0 0 0 0 0 0 0 0 0 0 0 0 0 0 0 127 0"/><feOffset dy="4"/><feGaussianBlur stdDeviation="2"/><feComposite in2="hardAlpha" operator="out"/><feColorMatrix values="0 0 0 0 0.0784314 0 0 0 0 0.482353 0 0 0 0 0.780392 0 0 0 0.15 0"/><feBlend in2="BackgroundImageFix" result="effect1_dropShadow_2071_203"/><feBlend in="SourceGraphic" in2="effect1_dropShadow_2071_203" result="shape"/></filter></defs></svg>