<svg xmlns="http://www.w3.org/2000/svg" width="89" height="89" fill="none"><path fill="url(#a)" d="M54.173 78.96c19.1-5.41 30.197-25.278 24.787-44.378S53.682 4.385 34.582 9.795 4.385 35.074 9.795 54.173c5.41 19.1 25.279 30.197 44.378 24.787"/><path fill="#2CB9DD" d="m24.372 42.197.092 1.42-2.695.143.374 6.426-7.726.432-.095-1.522 6.504-.37-.2-3.713-6.504.37-.095-1.521 6.504-.37-.052-1.096 3.91-.23zM15.312 36.733c.296-.961.823-1.652 1.57-2.02.773-.373 1.663-.419 2.703-.12l.792.241-1.479 4.989c.754.2 1.416.167 1.914-.078.5-.244.875-.738 1.072-1.413q.22-.722.248-1.31a9 9 0 0 0-.045-1.252l1.21.354q.101.63.039 1.228c-.042.4-.118.86-.283 1.371-.213.706-.532 1.313-.994 1.779-.437.46-.994.772-1.653.907q-.989.203-2.21-.148c-.846-.251-1.484-.587-1.998-1.035-.49-.455-.82-.981-.982-1.555-.17-.597-.14-1.225.062-1.876zm1.132.351c-.165.511-.108.986.14 1.406s.674.739 1.284.979l1.025-3.492c-.59-.168-1.078-.16-1.525-.007s-.755.524-.9 1.107zM27.867 29.925l-.884 1.257-5.283-3.796-1.277 1.781c1.22 1.023 2.17 1.916 2.813 2.637.674.739 1.061 1.378 1.224 1.951.155.55.069 1.065-.267 1.521-.202.29-.407.477-.584.58l-.944-.689c.123-.112.246-.224.339-.354.184-.259.144-.583-.063-1.04-.23-.452-.676-1.022-1.36-1.706-.692-.708-1.652-1.546-2.895-2.562l2.923-4.081 6.282 4.494zM26.816 20.748c.813-.592 1.657-.805 2.482-.626.85.172 1.565.693 2.2 1.571l.48.69-4.204 3.024c.49.636 1.008 1.006 1.56 1.133.577.12 1.15-.042 1.728-.463a6.7 6.7 0 0 0 .991-.875c.257-.28.517-.637.74-1.036l.731 1.032a5.7 5.7 0 0 1-.722 1.005c-.28.286-.633.593-1.08.926a4.4 4.4 0 0 1-1.869.787c-.641.104-1.265-.003-1.865-.297-.6-.295-1.152-.785-1.662-1.492s-.809-1.397-.92-2.063q-.167-.998.178-1.832c.23-.555.637-1.032 1.215-1.454zm.68.943c-.454.31-.7.715-.77 1.199s.073.986.416 1.56l2.96-2.129c-.371-.489-.766-.79-1.223-.944-.457-.155-.918-.05-1.39.29zM39.427 17.51c.129.455.11.847-.078 1.185-.188.337-.492.63-.92.854l.014.048a2.4 2.4 0 0 1 1.354.132c.41.169.692.527.858 1.023.183.645.117 1.232-.246 1.773q-.534.849-2.184 1.316l-3.284.982-2.225-7.4L36 16.443c.55-.156 1.04-.244 1.505-.246s.877.087 1.19.283c.337.188.565.537.724 1.008zM38 18.123c-.088-.311-.275-.516-.554-.592-.28-.076-.659-.046-1.184.103l-1.745.494.559 1.882 1.53-.434c1.109-.366 1.57-.832 1.388-1.477zm1.133 3.087c-.108-.383-.357-.622-.69-.708-.359-.08-.81-.03-1.383.133l-1.673.474.653 2.216 1.697-.48c.543-.18.922-.391 1.186-.646.263-.256.318-.607.186-.983zM49.28 19.393c-.075 1.286-.449 2.244-1.14 2.905s-1.609.972-2.714.898a3.65 3.65 0 0 1-1.838-.564c-.535-.34-.93-.821-1.201-1.416-.278-.618-.386-1.362-.364-2.194.075-1.286.45-2.244 1.116-2.898.69-.66 1.585-.965 2.715-.898.706.032 1.326.218 1.837.564.535.339.93.82 1.201 1.415.279.618.38 1.339.364 2.195zm-5.68-.276c-.04.864.078 1.553.4 2.055.3.51.815.777 1.52.81.707.031 1.243-.172 1.596-.66.36-.462.555-1.137.595-2 .032-.888-.085-1.577-.402-2.056-.292-.485-.83-.745-1.544-.801-.706-.033-1.242.17-1.601.634-.36.463-.532 1.131-.595 2.001zM54.377 16.969l-1.67 3.855s-.141.323-.278.569c-.113.238-.226.477-.346.692s-.2.392-.274.49l6.1-4.077 1.704.73-3.077 7.094-1.326-.58 1.643-3.77q.129-.229.288-.623c.113-.239.226-.477.346-.692.113-.238.199-.392.267-.515l-6.051 4.064-1.705-.73 3.077-7.094 1.326.58zm6.01-.928c-.36.643-.81 1.055-1.377 1.242-.567.186-1.294.082-2.234-.323-.648-.281-1.122-.586-1.414-.89-.3-.328-.473-.667-.503-1.045-.03-.38.03-.809.208-1.273l1.271.57c-.172.487-.19.88-.043 1.122.122.25.442.469.889.678.385.175.76.223 1.053.166.311-.088.581-.32.821-.749l1.295.563zM73.996 37.925l-7.05 3.184-4.434-9.82 7.05-3.184.621 1.374-5.926 2.685 1.294 2.835 5.926-2.686.621 1.373-5.926 2.686 1.294 2.835 5.926-2.686.62 1.373zM73.294 48.115l-.042-2.518-6.494.136-.04-1.512 6.517-.142-.066-2.512 1.204-.031.15 6.541-1.205.032zM73.379 53.977c-.279.931-.67 1.558-1.22 1.895s-1.252.406-2.129.138l-5.029-1.44.3-1.04 1.115.019-.014-.048c-.278-.437-.479-.871-.57-1.284s-.029-.922.133-1.535c.196-.676.542-1.187 1.02-1.503.479-.316 1.127-.396 1.888-.173q1.14.335 1.47 1.365c.22.686.178 1.628-.112 2.794l-.334 1.282.42.114c.535.158.969.138 1.252-.045.284-.184.503-.504.634-.954q.154-.547.145-1.126a6 6 0 0 0-.113-1.13l1.195-.157c.09.413.11.846.12 1.334-.015.495-.085.98-.226 1.484zm-4.365.178.259-1.002q.294-1.284.086-1.884c-.14-.4-.442-.649-.868-.786-.39-.097-.696-.087-.95.113-.235.17-.413.453-.516.818a2.15 2.15 0 0 0 .078 1.553c.214.481.64.8 1.284.979l.645.178zM65.354 67.48l-6.073-4.76.852-1.093 3.614 2.824c.197.15.402.325.606.499.205.174.385.356.559.513l.023-.007-3.34-5.688.76-.964 6.273 1.915.048-.014c-.205-.174-.426-.318-.624-.469-.221-.144-.426-.318-.654-.486l-3.583-2.806.852-1.093 6.073 4.76-1.293 1.631-6.056-1.873 3.233 5.487-1.253 1.594zM54.03 74.354l-3.474-6.89 1.216-.628 2.062 4.088c.115.226.238.475.33.707.098.257.213.482.298.69l.048-.013-.62-6.563 1.086-.54 4.886 4.4.048-.014c-.14-.22-.255-.445-.394-.663-.14-.219-.262-.468-.384-.718l-2.055-4.065 1.24-.635 3.475 6.89-1.852.938-4.719-4.266.607 6.334-1.804.924zM43.692 32.859c-.245 0-.392.128-.49.205-.098.103-.196.205-.27.308a6.4 6.4 0 0 0-.44.847c-.295.667-.613 1.514-.932 2.387-.318.873-.637 1.746-.882 2.439a10 10 0 0 1-.343.821c-.098.206-.22.334-.123.231.123-.102-.049 0-.245.052-.196.051-.49.077-.833.128-.661.077-1.519.128-2.376.205-.858.077-1.691.154-2.377.257a6 6 0 0 0-.883.206 2.4 2.4 0 0 0-.367.18.78.78 0 0 0-.343.435c-.074.232 0 .437.024.59.05.155.123.258.197.36.147.231.367.462.588.72.49.513 1.127 1.103 1.788 1.719.662.59 1.324 1.206 1.838 1.669.245.23.466.462.613.615.147.155.22.334.171.206-.049-.154 0 .051-.024.282a10 10 0 0 1-.147.899 69 69 0 0 1-.564 2.541c-.196.898-.392 1.822-.49 2.541-.049.36-.098.693-.073.976 0 .154 0 .282.048.436a.75.75 0 0 0 .295.488c.196.154.367.154.514.154s.27-.051.392-.077c.245-.077.515-.231.809-.41.612-.335 1.323-.822 2.058-1.336.735-.487 1.446-1 2.034-1.386.294-.18.539-.334.735-.436.196-.103.22-.129.22-.129-.147 0 .662.36.956.565.588.36 1.323.873 2.034 1.36.735.488 1.446.976 2.058 1.31.294.18.564.308.833.385a1 1 0 0 0 .392.077c.147 0 .319 0 .515-.154s.245-.334.294-.488c.025-.154.05-.282.05-.436 0-.283-.05-.616-.099-.976-.123-.744-.319-1.643-.514-2.541a73 73 0 0 1-.589-2.541c-.073-.36-.122-.668-.171-.899-.025-.23 0-.41-.025-.282-.049.154.025-.026.172-.206l.613-.641c.514-.488 1.176-1.104 1.813-1.694.661-.616 1.298-1.207 1.764-1.746.245-.257.441-.513.588-.744.074-.129.147-.231.196-.385a.93.93 0 0 0 .025-.59.78.78 0 0 0-.343-.437c-.123-.077-.245-.128-.368-.18a6 6 0 0 0-.882-.205 27 27 0 0 0-2.377-.231c-.858-.052-1.715-.103-2.377-.18-.343-.026-.637-.077-.833-.103s-.367-.128-.245-.051c.123.103 0-.026-.122-.231-.098-.205-.221-.488-.368-.821-.27-.668-.588-1.54-.907-2.413a41 41 0 0 0-.955-2.388 4.4 4.4 0 0 0-.466-.847.8.8 0 0 0-.27-.308.68.68 0 0 0-.49-.205z"/><defs><radialGradient id="a" cx="0" cy="0" r="1" gradientTransform="rotate(-9.025 303.232 -258.761)scale(35.943)" gradientUnits="userSpaceOnUse"><stop offset=".46" stop-color="#D4EDFC" stop-opacity="0"/><stop offset=".61" stop-color="#D3ECFB" stop-opacity="0"/><stop offset=".69" stop-color="#D3ECFB" stop-opacity=".04"/><stop offset=".75" stop-color="#D2ECFB" stop-opacity=".09"/><stop offset=".8" stop-color="#D0EBFB" stop-opacity=".17"/><stop offset=".84" stop-color="#CFEAFA" stop-opacity=".26"/><stop offset=".88" stop-color="#CCE9FA" stop-opacity=".38"/><stop offset=".92" stop-color="#CAE8F9" stop-opacity=".52"/><stop offset=".95" stop-color="#C6E7F9" stop-opacity=".69"/><stop offset=".98" stop-color="#C3E6F8" stop-opacity=".87"/><stop offset="1" stop-color="#C1E5F8"/></radialGradient></defs></svg>