<?xml version="1.0" encoding="UTF-8"?>
<svg id="_Слой_2" data-name="Слой 2" xmlns="http://www.w3.org/2000/svg" viewBox="0 0 750 163.63">
  <defs>
    <style>
      .cls-1 {
        fill: #005bff;
      }
    </style>
  </defs>
  <g id="Layer_1" data-name="Layer 1">
    <g>
      <path class="cls-1" d="M457.8,0C394.52,0,343.24,36.62,343.24,81.81s51.29,81.81,114.56,81.81,114.56-36.63,114.56-81.81S521.07,0,457.8,0ZM457.8,125.45c-43.69,0-76.39-23.03-76.39-43.64s32.7-43.65,76.39-43.65,76.39,23.04,76.39,43.65-32.59,43.64-76.39,43.64Z"/>
      <path class="cls-1" d="M81.87,0C36.68-.03.03,36.58,0,81.76c-.03,45.18,36.58,81.83,81.76,81.87,45.18.02,81.83-36.58,81.87-81.76v-.1C163.63,36.6,127.02,0,81.87,0ZM125.48,81.76c0,24.1-19.52,43.64-43.62,43.67-24.11.03-43.69-19.5-43.72-43.62-.03-24.11,19.5-43.69,43.62-43.71,24.11-.03,43.69,19.5,43.72,43.61v.05Z"/>
      <path class="cls-1" d="M207.78,3.67c-11.84,0-21.86,10.77-19.41,23.03,1.8,9,10.23,15.14,19.41,15.14h53.27l-82.9,109.38c-2.73,3.58-.16,8.74,4.34,8.74h130.05c9.16,0,17.61-6.15,19.39-15.14,2.47-12.26-6.86-23.03-18.68-23.03h-64.91L331.18,12.5c2.74-3.62.17-8.83-4.39-8.83h-119.02Z"/>
      <path class="cls-1" d="M750,22.76v131.68c0,1.23-.42,2.43-1.18,3.39-1.88,2.41-5.35,2.83-7.75.94l-103.24-81.96v64.06c0,10.54-8.54,19.09-19.1,19.09s-19.1-8.55-19.1-19.09V9.18c0-1.27.43-2.51,1.24-3.5,1.91-2.34,5.35-2.69,7.7-.78l103.23,81.92V22.76c0-10.55,8.55-19.1,19.1-19.1s19.1,8.55,19.1,19.1Z"/>
    </g>
  </g>
</svg>