<svg width="153.651489" height="153.651489" viewBox="0 0 153.651 153.651" fill="none" xmlns="http://www.w3.org/2000/svg" xmlns:xlink="http://www.w3.org/1999/xlink">
	<desc>
			Created with Pixso.
	</desc>
	<defs>
		<clipPath id="clip847_1061">
			<rect id="Layer_1" rx="0.000000" width="61.000000" height="60.243904" transform="translate(35.499146 36.500000)" fill="white" fill-opacity="0"/>
		</clipPath>
		<radialGradient gradientTransform="rotate(0) scale(69.5067 69.5067)" cx="0.000000" cy="0.000000" r="1.000000" id="paint_radial_847_1058_0" gradientUnits="userSpaceOnUse">
			<stop offset="0.754808" stop-color="#D7F0FE"/>
			<stop offset="1.000000" stop-color="#E8F7FF" stop-opacity="0.000000"/>
		</radialGradient>
	</defs>
	<circle id="Ellipse 3" r="69.506691" transform="matrix(0.11154 0.99376 -0.99376 0.11154 76.8257 76.8257)" fill="url(#paint_radial_847_1058_0)" fill-opacity="1.000000"/>
	<circle id="Ellipse 4" r="55.540306" transform="matrix(0.11154 0.99376 -0.99376 0.11154 65.8251 68.3232)" fill="#F3FBFF" fill-opacity="1.000000"/>
	<rect id="Layer_1" rx="0.000000" width="61.000000" height="60.243904" transform="translate(35.499146 36.500000)" fill="#FFFFFF" fill-opacity="0"/>
	<g clip-path="url(#clip847_1061)">
		<path id="Vector" d="M57.13 76.32C50.22 81.57 48.33 79.52 48.33 79.52C48.33 79.52 56.15 93.23 69.03 79.33C64.66 81.3 59.43 80.52 59.43 80.52C63.43 80.24 66.93 78.39 68.97 77.11C66.93 75.36 62.28 72.41 57.13 76.32L57.13 76.32Z" fill="#2FBBDE" fill-opacity="1.000000" fill-rule="nonzero"/>
		<path id="Vector" d="M80.84 52.75C77.6 47.52 72.22 43.92 66.14 42.79C65.96 42.76 65.77 42.72 65.58 42.69C64.75 42.56 63.91 42.47 63.07 42.41C63.07 42.41 63.93 42.82 65.01 43.79C65.39 44.13 65.79 44.54 66.19 45.02C66.64 45.56 67.09 46.2 67.5 46.93C67.78 47.43 68.04 47.98 68.27 48.57C69.19 50.92 69.64 54.06 68.91 58.14C68.65 59.56 68.26 61.09 67.69 62.73C64.5 72 71.31 76.06 71.31 76.06C71.31 76.06 71.75 75.67 72.43 75.01C75.21 72.29 81.92 64.86 78.58 59.66C79.02 60.35 79.61 60.86 79.96 61.65C80.83 63.6 80.76 65.81 80.2 67.83C80.11 68.17 80 68.51 79.89 68.84C77.9 74.63 73.07 78.82 68.61 82.84C66.17 85.05 63.83 87.49 61.23 89.51C60.07 90.41 58.87 91.23 57.6 91.87C56.21 92.57 54.74 93.06 53.17 93.22C52.79 93.26 52.41 93.28 52.02 93.28C48.54 93.28 45.27 91.94 42.81 89.51C42.44 89.15 42.09 88.75 41.76 88.34L41.74 88.31C37.71 83.21 38.18 75.9 42.81 71.32L66.08 48.33C65.91 47.94 65.73 47.58 65.54 47.24C65.34 46.89 65.14 46.57 64.94 46.27C64.59 45.76 64.23 45.31 63.87 44.92L39.98 68.52C33.92 74.51 33.31 84.06 38.57 90.73C38.58 90.75 38.59 90.76 38.6 90.77C39.03 91.31 39.49 91.83 39.98 92.31C43.2 95.49 47.47 97.24 52.02 97.24C52.43 97.24 52.83 97.22 53.24 97.2C55.02 97.07 56.75 96.68 58.37 96.03C60.48 95.2 62.41 93.94 64.06 92.31L65 91.51C65 91.51 78.63 77.96 78.64 77.96C83.68 72.94 85.8 65.45 83.65 58.65C82.99 56.57 81.99 54.6 80.84 52.75L80.84 52.75Z" fill="#2FBBDE" fill-opacity="1.000000" fill-rule="nonzero"/>
		<path id="Vector" d="M92.01 40.92C91.52 40.44 90.99 39.98 90.44 39.55L90.41 39.53C89.74 39.01 89.04 38.55 88.32 38.15C81.77 34.5 73.38 35.52 67.92 40.92L67.48 41.35C68.11 41.47 68.72 41.61 69.3 41.77C69.32 41.77 69.34 41.78 69.36 41.79C70.28 42.04 71.13 42.34 71.94 42.68C76.13 39.44 81.95 39.05 86.53 41.7C87.02 41.99 87.5 42.3 87.95 42.65L87.98 42.68C88.4 43 88.8 43.35 89.17 43.72C91.63 46.15 92.99 49.38 92.99 52.81C92.99 56.25 91.63 59.48 89.17 61.91L86.25 64.8C86.18 67.3 85.62 69.73 84.64 71.99L87.31 69.35L92.01 64.71C95.22 61.53 96.99 57.31 96.99 52.81C96.99 48.32 95.22 44.1 92.01 40.92L92.01 40.92Z" fill="#2FBBDE" fill-opacity="1.000000" fill-rule="nonzero"/>
	</g>
</svg>
