<svg width="153.651489" height="153.651489" viewBox="0 0 153.651 153.651" fill="none" xmlns="http://www.w3.org/2000/svg" xmlns:xlink="http://www.w3.org/1999/xlink">
	<desc>
			Created with Pixso.
	</desc>
	<defs>
		<radialGradient gradientTransform="rotate(0) scale(69.5067 69.5067)" cx="0.000000" cy="0.000000" r="1.000000" id="paint_radial_847_1054_0" gradientUnits="userSpaceOnUse">
			<stop offset="0.754808" stop-color="#D7F0FE"/>
			<stop offset="1.000000" stop-color="#E8F7FF" stop-opacity="0.000000"/>
		</radialGradient>
	</defs>
	<circle id="Ellipse 2" r="69.506691" transform="matrix(0.11154 0.99376 -0.99376 0.11154 76.8257 76.8257)" fill="url(#paint_radial_847_1054_0)" fill-opacity="1.000000"/>
	<circle id="Ellipse 4" r="55.540306" transform="matrix(0.11154 0.99376 -0.99376 0.11154 65.8258 67.8257)" fill="#F3FBFF" fill-opacity="1.000000"/>
	<path id="Empower Your Health, Embrace Your Beauty" d="M39.63 68.46C39.63 79.5 44.19 83.72 52.31 83.72C58.93 83.72 64.31 79.55 64.31 71.91C64.31 64.81 60.13 61.35 52.79 61.35C50.72 61.35 49.14 61.69 47.7 62.07C47.7 62.07 47.7 62.07 47.7 62.07L47.7 62.07C47.71 62.13 47.6 63.35 47.48 64.57C47.36 65.85 47.24 67.14 47.27 67.07C48.8 66.68 50.34 66.35 52.16 66.35C55.52 66.35 57.87 68.03 57.87 72.39C57.87 75.95 55.86 78.49 52.64 78.49C47.55 78.49 46.02 75.71 46.02 68.75C46.02 58.47 49.71 54.25 55.38 54.25C57.35 54.25 59.07 54.49 60.47 54.83L61.86 49.83C60.32 49.26 57.92 48.87 55.43 48.87C45.92 48.87 39.63 55.35 39.63 68.46ZM77.14 70.95L77.09 80.84L82.08 80.84L81.99 70.95L92.16 71L92.16 66.06L81.89 66.3L82.08 56.17L77.09 56.17L77.14 66.2L67.3 66.06L67.3 71L77.14 70.95Z" fill="#2FBBDE" fill-opacity="1.000000" fill-rule="evenodd"/>
</svg>
