<svg xmlns="http://www.w3.org/2000/svg" width="153.651" height="153.651" fill="none"><defs><radialGradient id="a" cx="0" cy="0" r="1" gradientTransform="scale(69.5067)" gradientUnits="userSpaceOnUse"><stop offset=".755" stop-color="#D7F0FE"/><stop offset="1" stop-color="#E8F7FF" stop-opacity="0"/></radialGradient><clipPath id="b"><rect width="71" height="71" fill="#fff" fill-opacity="0" rx="0" transform="translate(30.5 34.5)"/></clipPath></defs><circle r="69.507" fill="url(#a)" transform="rotate(83.596 -4.553 81.378)"/><circle r="55.54" fill="#F3FBFF" transform="rotate(83.596 -5.02 70.727)"/><rect width="71" height="71" fill="none" rx="0" transform="translate(30.5 34.5)"/><g fill="#2FBBDE" clip-path="url(#b)"><path d="M36.94 63.19a19.4 19.4 0 0 1-1.67-13.02c.01-.06.05-.1.11-.12 5.95-1.29 12.05.23 16.67 4.1a26.4 26.4 0 0 0-.99 4.83c-1.12-.28-2.29-.42-3.5-.42-.49 0-1 .03-1.48.07v-4.71c0-.74-.56-1.4-1.31-1.45-.81-.05-1.5.59-1.5 1.41v2.19l-2.52-2.51c-.57-.58-1.5-.55-2.05.07-.49.56-.44 1.42.1 1.95l3.84 3.84c-2.2.79-4.15 2.1-5.7 3.77M46.03 72.15c-.72 1.97-2.24 3.08-3.11 2.77-.87-.33-1.32-2.14-.61-4.11.64-1.74 1.9-2.81 2.79-2.81.11 0 .22.01.32.05.89.3 1.32 2.13.61 4.1"/><path d="M47.56 61.36c-6.46 0-11.72 5.26-11.72 11.71 0 6.46 5.26 11.72 11.72 11.72.9 0 1.79-.11 2.63-.3.63-5.37 4.2-9.85 9.07-11.79-.2-6.29-5.37-11.34-11.7-11.34m1.11 11.74c-1.04 2.84-3.25 4.67-5.41 4.67-.44 0-.88-.07-1.3-.22-2.51-.92-3.51-4.31-2.28-7.72 1.04-2.84 3.25-4.67 5.42-4.67.43 0 .87.07 1.28.22 2.53.93 3.54 4.32 2.29 7.72M53.79 59.95c.55-7.31 4.47-13.89 10.74-17.85.04-.03.11-.03.16 0 6.27 3.96 10.19 10.53 10.74 17.84-3.49 1.65-6.14 4.54-7.45 8.17-.45 1.24-.73 2.5-.83 3.78-.37-.07-.75-.11-1.13-.15V65.2l4.25-4.25c.55-.55.55-1.43 0-1.98s-1.43-.55-1.98 0l-2.25 2.25V49.84c0-.74-.57-1.4-1.31-1.44-.82-.06-1.51.59-1.51 1.4v4.78l-2.25-2.25c-.54-.55-1.43-.55-1.98 0s-.55 1.44 0 2l4.25 4.25v13.2c-.39.04-.79.09-1.17.16-.46-5.32-3.72-9.81-8.28-11.99"/><path fill-rule="evenodd" d="M70.59 89.57c0 1.09-1.63 1.97-3.65 1.97s-3.66-.88-3.66-1.97 1.64-1.97 3.66-1.97 3.65.88 3.65 1.97"/><path d="M64.62 74.48c-6.46 0-11.72 5.26-11.72 11.71 0 6.46 5.26 11.72 11.72 11.72 6.45 0 11.71-5.26 11.71-11.72 0-6.45-5.26-11.71-11.71-11.71m2.32 19.87c-3.63 0-6.47-2.09-6.47-4.78s2.84-4.78 6.47-4.78 6.47 2.09 6.47 4.78-2.84 4.78-6.47 4.78"/><path d="M92.24 68.12c-1.99-4.26-6.22-6.76-10.64-6.76-1.65 0-3.33.35-4.93 1.1a11.62 11.62 0 0 0-6.06 6.61c-.42 1.18-.66 2.39-.71 3.6 4.9 1.92 8.5 6.42 9.12 11.82 2.53.58 5.16.31 7.53-.8 2.85-1.32 5-3.67 6.07-6.61 1.08-2.94.94-6.11-.38-8.96m-10.62-1.84c-.99 0-1.96.21-2.87.64-1.65.77-2.9 2.12-3.52 3.82-.39 1.07-1.47.96-1.8.84a1.394 1.394 0 0 1-.84-1.8c.87-2.4 2.64-4.33 4.96-5.41 1.28-.6 2.65-.9 4.05-.9.78 0 1.41.63 1.41 1.41.01.77-.62 1.4-1.39 1.4M78.17 58.97c-.17-1.6-.48-3.16-.94-4.7 4.63-3.95 10.79-5.52 16.81-4.22.05.02.09.06.11.12.8 3.71.52 7.46-.75 10.9-.9.01-1.78.21-2.63.6-.02.01-.07.03-.1.06-1.19-.96-2.54-1.72-3.96-2.24l3.94-3.94c.55-.55.55-1.43 0-1.98s-1.44-.55-1.99 0l-2.5 2.52v-2.15c0-.75-.56-1.41-1.32-1.45a1.39 1.39 0 0 0-1.49 1.4v4.8c-1.72-.24-3.46-.14-5.18.28M96.96 68.79c-.22.6-.59 1.12-1.07 1.53a15 15 0 0 0-1.09-3.38 15.6 15.6 0 0 0-1.89-3.01 3.6 3.6 0 0 1 1.86.17c.91.34 1.64 1.02 2.06 1.9.43.89.45 1.87.13 2.79"/></g></svg>