<?xml version="1.0" encoding="UTF-8"?>
<svg id="_Слой_2" data-name="Слой 2" xmlns="http://www.w3.org/2000/svg" viewBox="0 0 164.99 21.39">
  <defs>
    <style>
      .cls-1 {
        fill: #ff8150;
      }

      .cls-1, .cls-2, .cls-3 {
        fill-rule: evenodd;
      }

      .cls-2 {
        fill: #1d1d1b;
      }

      .cls-3 {
        fill: #ff5b00;
      }
    </style>
  </defs>
  <g id="_Слой_1-2" data-name="Слой 1">
    <g>
      <path class="cls-3" d="M163.82,1.42c-1.59-1.56-4.12-1.56-5.71,0l-2,1.98-2.01-1.98c-1.58-1.56-4.12-1.56-5.71,0-1.57,1.55-1.57,4.09,0,5.64l2.01,1.99,5.71,5.64,7.71-7.63c1.57-1.55,1.57-4.09,0-5.64Z"/>
      <path class="cls-2" d="M13.74,10.64c0,3-2.71,4.5-6.55,4.5-4.77-.02-6.66-2.23-7.19-5.21h3.86c.29,1.71,1.33,2.32,3.25,2.32s2.78-.68,2.78-1.87c0-.87-.43-1.55-2.14-1.55h-2.45v-2.9h2.05c1.6,0,2.07-.5,2.07-1.42s-.64-1.72-2.5-1.72c-1.31,0-2.47.37-2.77,1.88H.29C.75,2.11,2.53,0,6.98,0,10.65,0,13.26,1.5,13.26,4.25c.06,1.25-.66,2.4-1.81,2.9,1.44.55,2.36,1.96,2.28,3.5Z"/>
      <path class="cls-2" d="M33.16,11.25v7.21h-3.81v-3.66h-11v3.66h-3.8v-7.21h2.61c.5-.42.82-1.27,1.07-2.74L19.55.32h10.95v10.93h2.66ZM26.68,11.25V3.87h-3.88l-.8,4.82c-.09.9-.37,1.77-.82,2.56h5.51Z"/>
      <path class="cls-2" d="M49.84,7.56c0,4.46-2.88,7.56-6.69,7.56-1.82.05-3.55-.79-4.64-2.25v8.52h-3.8V.32h3.8v2.03C39.58.85,41.32-.03,43.16,0c3.76,0,6.69,3.08,6.69,7.56h0ZM45.98,7.56c0-2.37-1.58-3.97-3.71-3.97-2.16,0-3.88,1.82-3.75,3.97-.13,2.16,1.59,3.98,3.75,3.98,2.11,0,3.71-1.57,3.71-3.98Z"/>
      <path class="cls-2" d="M66.37.32v14.49h-3.83v-1.95c-1.06,1.46-2.78,2.3-4.58,2.25-3.83,0-6.68-3.1-6.68-7.56S54.17,0,57.93,0c1.84-.04,3.58.84,4.64,2.35V.32h3.8ZM62.57,7.56c.13-2.16-1.59-3.98-3.75-3.97-2.13,0-3.71,1.6-3.71,3.97s1.6,3.98,3.71,3.98c2.16,0,3.88-1.82,3.75-3.98Z"/>
      <path class="cls-2" d="M81.29,10.62c0,3-2.32,4.18-5.32,4.18h-7.71V.32h7.08c2.93,0,5.25.75,5.25,3.66,0,1.5-.8,2.29-1.89,3,1.63.43,2.73,1.96,2.6,3.64h0ZM75,3.27h-3v2.79h3c1.31,0,1.73-.47,1.73-1.37s-.45-1.42-1.73-1.42h0ZM77.45,10.28c0-1.03-.47-1.5-1.75-1.5h-3.69v3.11h3.65c1.34-.03,1.77-.56,1.77-1.61h.02Z"/>
      <path class="cls-2" d="M82.4,7.56c-.04-2.03.75-3.99,2.2-5.42C86.04.71,88.01-.06,90.05,0c3.57,0,6.75,2.13,7.3,5.82h-3.92c-.45-1.47-1.85-2.44-3.38-2.34-2.32,0-3.81,1.68-3.75,4.08.06,2.4,1.5,4.09,3.75,4.09,1.55.1,2.96-.89,3.41-2.38h3.91c-.58,3.82-3.81,5.85-7.32,5.85-2.03.07-4-.71-5.45-2.14-1.45-1.43-2.24-3.39-2.2-5.42Z"/>
      <path class="cls-2" d="M112.88.32v14.49h-3.81v-5.14l.24-4.3-6.05,9.43h-4.4V.32h3.81v5.14l-.19,4.25L108.5.32h4.39Z"/>
      <path class="cls-2" d="M127.27,3.87h-4.5v10.93h-3.81V3.87h-4.5V.32h12.83v3.55h-.02Z"/>
      <path class="cls-2" d="M142.76.32v14.49h-3.81v-5.14l.24-4.3-6.04,9.43h-4.39V.32h3.81v5.14l-.19,4.25,6-9.38h4.39Z"/>
      <path class="cls-1" d="M150.4,9.05l-2.01-1.99c-1.57-1.55-1.57-4.09,0-5.64,1.58-1.56,4.12-1.56,5.71,0l2.01,1.98-5.71,5.65Z"/>
    </g>
  </g>
</svg>