<svg xmlns="http://www.w3.org/2000/svg" width="40" height="40" viewBox="0 0 54 42">
	<style type="text/css">
		.st0{fill:#424242;}
	</style>
	<path class="st0" d="M52,37C52,38.65 50.65,40 49,40L5,40C3.34,40 2,38.65 2,37L2,5C2,3.34 3.34,2 5,2L49,2C50.65,2 52,3.34 52,5ZM49,0L5,0C2.24,0 0,2.24 0,5L0,37C0,39.75 2.24,42 5,42L49,42C51.75,42 54,39.75 54,37L54,5C54,2.24 51.75,0 49,0"/>
	<path class="st0" d="M48.34,4.24L29.37,20.62C28.08,21.74 25.91,21.73 24.62,20.62L5.65,4.24C5.23,3.88 4.6,3.92 4.24,4.34C3.88,4.76 3.92,5.39 4.34,5.75L23.31,22.14C24.33,23.01 25.66,23.45 26.99,23.45C28.33,23.45 29.66,23.01 30.68,22.14L49.65,5.75C50.07,5.39 50.11,4.76 49.75,4.34C49.39,3.92 48.76,3.88 48.34,4.24"/>
</svg>