<svg xmlns="http://www.w3.org/2000/svg" width="40" height="40" viewBox="0 0 52 54">
	<style type="text/css">
		.st0{fill:#424242;}
	</style>
	<path class="st0" d="M25.94,2C33.25,2 39.2,7.9 39.2,15.16C39.2,17.11 38.77,19.01 37.89,20.83C34.3,29.08 28.12,36.89 25.99,39.45C23.84,36.89 17.57,29.07 13.96,20.8C13.11,19.04 12.69,17.15 12.69,15.16C12.69,7.9 18.63,2 25.94,2M25.25,41.66C25.44,41.87 25.71,42 26,42C26.28,42.01 26.56,41.87 26.75,41.65C27.09,41.26 35.22,31.95 39.71,21.66C40.7,19.6 41.2,17.41 41.2,15.16C41.2,6.8 34.36,0 25.94,0C17.53,0 10.69,6.8 10.69,15.16C10.69,17.45 11.18,19.64 12.14,21.63C16.64,31.95 24.9,41.27 25.25,41.66"/>
	<path class="st0" d="M25.94,9.76C28.83,9.76 31.18,12.1 31.18,14.99C31.18,17.88 28.83,20.23 25.94,20.23C23.06,20.23 20.71,17.88 20.71,14.99C20.71,12.1 23.06,9.76 25.94,9.76M25.94,22.23C29.93,22.23 33.18,18.98 33.18,14.99C33.18,11 29.93,7.76 25.94,7.76C21.95,7.76 18.71,11 18.71,14.99C18.71,18.98 21.95,22.23 25.94,22.23"/>
	<path class="st0" d="M51.96,52.74L45.96,29.74C45.88,29.44 45.66,29.18 45.37,29.07L40.37,27.07L39.62,28.92L44.15,30.74L49.47,51.12L39.44,46.1C39.17,45.96 38.85,45.96 38.58,46.09L25.99,51.89L13.41,46.09C13.14,45.96 12.82,45.96 12.55,46.1L2.52,51.12L7.84,30.74L12.37,28.92L11.62,27.07L6.62,29.07C6.33,29.18 6.11,29.44 6.03,29.74L0.03,52.74C-0.06,53.12 0.06,53.52 0.36,53.77C0.67,54.02 1.09,54.06 1.44,53.89L13.01,48.1L25.58,53.9C25.84,54.03 26.15,54.03 26.41,53.9L38.98,48.1L50.55,53.89C50.69,53.96 50.84,53.99 50.99,53.99C51.22,53.99 51.44,53.92 51.62,53.77C51.93,53.52 52.06,53.12 51.96,52.74"/>
</svg>