<svg xmlns="http://www.w3.org/2000/svg" width="40" height="40" viewBox="0 0 36 54">
	<style type="text/css">
		.st0{fill:#424242;}
	</style>
	<path class="st0" d="M31,52L5,52C3.34,52 2,50.65 2,49L2,42L34,42L34,49C34,50.65 32.65,52 31,52M5,2L31,2C32.65,2 34,3.34 34,5L34,7L2,7L2,5C2,3.34 3.34,2 5,2M2 9L34 9L34 40L2 40ZM31,0L5,0C2.24,0 0,2.24 0,5L0,49C0,51.75 2.24,54 5,54L31,54C33.75,54 36,51.75 36,49L36,5C36,2.24 33.75,0 31,0"/>
	<path class="st0" d="M20,46L16,46C15.44,46 15,46.44 15,47C15,47.55 15.44,48 16,48L20,48C20.55,48 21,47.55 21,47C21,46.44 20.55,46 20,46"/>
</svg>