<svg width="34.000000" height="40.000000" viewBox="0 0 34 40" fill="none" xmlns="http://www.w3.org/2000/svg" xmlns:xlink="http://www.w3.org/1999/xlink">
	<desc>
			Created with Pixso.
	</desc>
	<defs>
		<clipPath id="clip30_1096">
			<rect id="e7f2fbc9-e4cd-42bb-b054-d4d24487820f [преобразованный] 1" rx="0.000000" width="33.000000" height="39.000000" transform="translate(0.500000 0.500000)" fill="white" fill-opacity="0"/>
		</clipPath>
	</defs>
	<rect id="e7f2fbc9-e4cd-42bb-b054-d4d24487820f [преобразованный] 1" rx="0.000000" width="33.000000" height="39.000000" transform="translate(0.500000 0.500000)" fill="#FFFFFF" fill-opacity="1.000000"/>
	<g clip-path="url(#clip30_1096)">
		<path id="Vector" d="M5.57 19.53L10.14 19.53L10.14 24.35L5.57 24.35L5.57 19.53Z" fill="#B2E293" fill-opacity="1.000000" fill-rule="evenodd"/>
		<path id="Vector" d="M14.71 19.53L19.28 19.53L19.28 24.35L14.71 24.35L14.71 19.53Z" fill="#B2E293" fill-opacity="1.000000" fill-rule="evenodd"/>
		<path id="Vector" d="M23.85 19.53L28.41 19.53L28.41 24.35L23.85 24.35L23.85 19.53Z" fill="#B2E293" fill-opacity="1.000000" fill-rule="evenodd"/>
		<path id="Vector" d="M5.57 29.24L10.14 29.24L10.14 34.07L5.57 34.07L5.57 29.24Z" fill="#B2E293" fill-opacity="1.000000" fill-rule="evenodd"/>
		<path id="Vector" d="M14.71 29.24L19.28 29.24L19.28 34.07L14.71 34.07L14.71 29.24Z" fill="#B2E293" fill-opacity="1.000000" fill-rule="evenodd"/>
		<path id="Vector" d="M0 40L23.08 40L33.99 28.47L33.99 13.6L0 13.6L0 40L0 40ZM23.82 36.78L23.82 29.09L31.09 29.09L23.82 36.78ZM1.63 15.32L32.36 15.32L32.36 27.35L22.99 27.35C22.54 27.35 22.16 27.73 22.16 28.22L22.16 38.27L1.63 38.27L1.63 15.32Z" fill="#B2E293" fill-opacity="1.000000" fill-rule="nonzero"/>
		<path id="Vector" d="M29.22 2.16L29.22 3.22C29.91 3.86 30.32 4.79 30.32 5.78C30.32 7.66 28.87 9.19 27.09 9.19C25.31 9.19 23.86 7.66 23.86 5.78C23.86 4.79 24.27 3.86 24.95 3.22L24.95 2.16L19.12 2.16L19.12 3.22C19.81 3.86 20.22 4.79 20.22 5.78C20.22 7.66 18.77 9.19 16.99 9.19C15.21 9.19 13.76 7.66 13.76 5.78C13.76 4.79 14.17 3.86 14.85 3.22L14.85 2.16L9.02 2.16L9.02 3.22C9.71 3.86 10.12 4.79 10.12 5.78C10.12 7.66 8.67 9.19 6.89 9.19C5.11 9.19 3.66 7.66 3.66 5.78C3.66 4.79 4.07 3.86 4.76 3.22L4.76 2.16L0 2.16L0 11.76L34 11.76L34 2.16L29.22 2.16Z" fill="#B2E293" fill-opacity="1.000000" fill-rule="nonzero"/>
		<path id="Vector" d="M6.9 7.79C7.95 7.79 8.81 6.89 8.81 5.78C8.81 4.97 8.36 4.27 7.71 3.95L7.71 0L6.09 0L6.09 3.95C5.44 4.27 4.99 4.97 4.99 5.78C4.99 6.89 5.85 7.79 6.9 7.79L6.9 7.79Z" fill="#B2E293" fill-opacity="1.000000" fill-rule="nonzero"/>
		<path id="Vector" d="M17 7.79C18.05 7.79 18.91 6.89 18.91 5.78C18.91 4.97 18.46 4.27 17.81 3.95L17.81 0L16.18 0L16.18 3.95C15.54 4.27 15.09 4.97 15.09 5.78C15.09 6.89 15.94 7.79 17 7.79L17 7.79Z" fill="#B2E293" fill-opacity="1.000000" fill-rule="nonzero"/>
		<path id="Vector" d="M27.09 7.79C28.15 7.79 29 6.89 29 5.78C29 4.97 28.55 4.27 27.91 3.95L27.91 0L26.28 0L26.28 3.95C25.63 4.27 25.18 4.97 25.18 5.78C25.18 6.89 26.04 7.79 27.09 7.79L27.09 7.79Z" fill="#B2E293" fill-opacity="1.000000" fill-rule="nonzero"/>
	</g>
</svg>
