<svg width="479" height="93" viewBox="0 0 479 93" fill="none" xmlns="http://www.w3.org/2000/svg">
  <path d="M51.5127 28.4044C51.2182 25.1599 49.9076 22.638 47.5808 20.8387C45.2835 19.01 41.9995 18.0956 37.7289 18.0956C34.9014 18.0956 32.5452 18.4643 30.6602 19.2017C28.7753 19.9391 27.3615 20.9567 26.419 22.2545C25.4766 23.5228 24.9906 24.9829 24.9611 26.6346C24.9022 27.9914 25.1673 29.186 25.7563 30.2184C26.3748 31.2507 27.2585 32.1651 28.4071 32.9615C29.5852 33.7284 30.9989 34.4068 32.6483 34.9967C34.2976 35.5866 36.1531 36.1028 38.2148 36.5452L45.9904 38.3149C50.4672 39.2883 54.4138 40.5861 57.8303 42.2084C61.2763 43.8306 64.1627 45.7626 66.4894 48.0043C68.8456 50.246 70.6275 52.8268 71.8351 55.7469C73.0426 58.667 73.6611 61.941 73.6906 65.569C73.6611 71.2912 72.218 76.2022 69.3611 80.3021C66.5042 84.402 62.3955 87.5433 57.0351 89.726C51.7042 91.9087 45.2688 93 37.7289 93C30.1595 93 23.5621 91.8644 17.9367 89.5932C12.3112 87.3221 7.93747 83.8711 4.81549 79.2402C1.69351 74.6094 0.0883484 68.7545 0 61.6756L20.9409 61.6755C21.1176 64.5956 21.898 67.029 23.2823 68.9757C24.6666 70.9225 26.5663 72.3972 28.9814 73.4001C31.426 74.403 34.2534 74.9044 37.4638 74.9044C40.4091 74.9044 42.9125 74.5062 44.9742 73.7098C47.0654 72.9134 48.6705 71.8073 49.7897 70.3915C50.9089 68.9757 51.4833 67.3535 51.5127 65.5247C51.4833 63.814 50.9531 62.354 49.9223 61.1446C48.8914 59.9058 47.301 58.844 45.1509 57.9591C43.0304 57.0447 40.3207 56.2041 37.022 55.4372L27.5677 53.225C19.7333 51.4258 13.563 48.5205 9.05667 44.509C4.55042 40.4681 2.31201 35.0114 2.34146 28.1389C2.31201 22.5347 3.81412 17.6237 6.84775 13.4058C9.88135 9.18793 14.0784 5.89916 19.4388 3.5395C24.7991 1.17984 30.9106 1.12296e-05 37.773 1.09292e-05C44.7828 1.06224e-05 50.8648 1.19459 56.019 3.58374C61.2027 5.9434 65.223 9.26167 68.0799 13.5385C70.9368 17.8154 72.3947 22.7707 72.4536 28.4044L51.5127 28.4044Z" fill="url(#paint0_linear_2_335)" />
  <path d="M84.7354 91.8497V1.23883L147.823 1.23883V19.0247L106.604 19.0247V37.607H144.598V55.4372H106.604V74.0637H147.823V91.8497H84.7354Z" fill="url(#paint1_linear_2_335)" />
  <path d="M238.523 1.23882V91.8497H219.967L183.961 39.5538H183.387V91.8497H161.518V1.23883L180.339 1.23883L215.947 53.4462H216.698V1.23882L238.523 1.23882Z" fill="url(#paint2_linear_2_335)" />
  <path d="M301.179 28.4044C300.885 25.1598 299.574 22.638 297.247 20.8387C294.95 19.01 291.666 18.0956 287.396 18.0956C284.568 18.0956 282.212 18.4643 280.327 19.2017C278.442 19.9391 277.028 20.9567 276.086 22.2545C275.143 23.5228 274.657 24.9829 274.628 26.6346C274.569 27.9914 274.834 29.186 275.423 30.2184C276.042 31.2507 276.925 32.1651 278.074 32.9615C279.252 33.7284 280.666 34.4067 282.315 34.9967C283.964 35.5866 285.82 36.1028 287.882 36.5452L295.657 38.3149C300.134 39.2883 304.081 40.5861 307.497 42.2084C310.943 43.8306 313.829 45.7626 316.156 48.0043C318.512 50.2459 320.294 52.8268 321.502 55.7469C322.709 58.667 323.328 61.941 323.357 65.569C323.328 71.2911 321.885 76.2022 319.028 80.3021C316.171 84.402 312.062 87.5433 306.702 89.726C301.371 91.9086 294.935 93 287.396 93C279.826 93 273.229 91.8644 267.603 89.5932C261.978 87.3221 257.604 83.8711 254.482 79.2402C251.36 74.6094 249.755 68.7545 249.667 61.6755H270.608C270.784 64.5956 271.565 67.029 272.949 68.9757C274.333 70.9224 276.233 72.3972 278.648 73.4001C281.093 74.4029 283.92 74.9044 287.131 74.9044C290.076 74.9044 292.579 74.5062 294.641 73.7098C296.732 72.9134 298.337 71.8073 299.456 70.3915C300.576 68.9757 301.15 67.3535 301.179 65.5247C301.15 63.814 300.62 62.3539 299.589 61.1446C298.558 59.9058 296.968 58.8439 294.818 57.9591C292.697 57.0447 289.987 56.2041 286.689 55.4372L277.234 53.225C269.4 51.4258 263.23 48.5205 258.723 44.509C254.217 40.4681 251.979 35.0114 252.008 28.1389C251.979 22.5347 253.481 17.6237 256.514 13.4058C259.548 9.18792 263.745 5.89915 269.105 3.53949C274.466 1.17983 280.577 3.00407e-07 287.44 0C294.449 -3.06852e-07 300.531 1.19458 305.686 3.58373C310.869 5.94339 314.89 9.26165 317.747 13.5385C320.603 17.8154 322.061 22.7707 322.12 28.4044L301.179 28.4044Z" fill="url(#paint3_linear_2_335)" />
  <path d="M334.402 91.8496V1.23882L397.49 1.23882V19.0247L356.271 19.0247V37.607H394.265V55.4372L356.271 55.4372V74.0637H397.49V91.8496H334.402Z" fill="url(#paint4_linear_2_335)" />
  <path d="M438.134 78.7536L438.134 14.6889H455.939L455.939 78.7535L438.134 78.7536ZM415.029 55.6584L415.029 37.784H479L479 55.6584L415.029 55.6584Z" fill="url(#paint5_linear_2_335)" />
  <defs>
    <linearGradient id="paint0_linear_2_335" x1="457.387" y1="72.7443" x2="-0.00429155" y2="92.9035" gradientUnits="userSpaceOnUse">
      <stop stop-color="#D6DBE3" />
      <stop offset="0.999411" stop-color="#666666" />
    </linearGradient>
    <linearGradient id="paint1_linear_2_335" x1="457.387" y1="72.7443" x2="-0.00429155" y2="92.9035" gradientUnits="userSpaceOnUse">
      <stop stop-color="#D6DBE3" />
      <stop offset="0.999411" stop-color="#666666" />
    </linearGradient>
    <linearGradient id="paint2_linear_2_335" x1="457.387" y1="72.7443" x2="-0.00429155" y2="92.9035" gradientUnits="userSpaceOnUse">
      <stop stop-color="#D6DBE3" />
      <stop offset="0.999411" stop-color="#666666" />
    </linearGradient>
    <linearGradient id="paint3_linear_2_335" x1="457.387" y1="72.7443" x2="-0.00429155" y2="92.9035" gradientUnits="userSpaceOnUse">
      <stop stop-color="#D6DBE3" />
      <stop offset="0.999411" stop-color="#666666" />
    </linearGradient>
    <linearGradient id="paint4_linear_2_335" x1="457.387" y1="72.7443" x2="-0.00429155" y2="92.9035" gradientUnits="userSpaceOnUse">
      <stop stop-color="#D6DBE3" />
      <stop offset="0.999411" stop-color="#666666" />
    </linearGradient>
    <linearGradient id="paint5_linear_2_335" x1="457.387" y1="72.7443" x2="-0.00429155" y2="92.9035" gradientUnits="userSpaceOnUse">
      <stop stop-color="#D6DBE3" />
      <stop offset="0.999411" stop-color="#666666" />
    </linearGradient>
  </defs>
</svg>