<svg width="1878" height="360" viewBox="0 0 1878 360" fill="none" xmlns="http://www.w3.org/2000/svg">
  <g filter="url(#filter0_i_2_14)">
    <path d="M201.964 109.953C200.81 97.393 195.671 87.6309 186.549 80.6661C177.542 73.5872 164.666 70.0477 147.923 70.0477C136.837 70.0477 127.599 71.4749 120.209 74.3293C112.818 77.1837 107.276 81.1228 103.58 86.1466C99.8852 91.0562 97.98 96.708 97.8645 103.102C97.6335 108.354 98.6727 112.978 100.982 116.974C103.407 120.971 106.871 124.51 111.375 127.593C115.994 130.561 121.537 133.188 128.003 135.471C134.47 137.755 141.745 139.753 149.828 141.465L180.313 148.316C197.865 152.084 213.339 157.108 226.734 163.387C240.244 169.667 251.561 177.146 260.683 185.823C269.921 194.501 276.907 204.491 281.642 215.795C286.376 227.098 288.801 239.772 288.916 253.816C288.801 275.966 283.143 294.976 271.942 310.847C260.741 326.718 244.632 338.877 223.616 347.326C202.715 355.776 177.484 360 147.923 360C118.246 360 92.3794 355.604 70.3238 346.813C48.2683 338.021 31.1203 324.662 18.8801 306.737C6.63988 288.811 0.346424 266.147 -1.04358e-05 238.744L82.1022 238.744C82.795 250.048 85.8551 259.467 91.2825 267.003C96.7097 274.539 104.158 280.248 113.627 284.13C123.211 288.012 134.297 289.953 146.883 289.953C158.431 289.953 168.246 288.411 176.329 285.328C184.528 282.246 190.821 277.964 195.209 272.483C199.597 267.003 201.849 260.723 201.964 253.644C201.849 247.022 199.77 241.37 195.729 236.689C191.687 231.894 185.452 227.783 177.022 224.358C168.708 220.818 158.084 217.564 145.151 214.596L108.084 206.032C77.3678 199.068 53.176 187.821 35.5084 172.293C17.8409 156.651 9.06481 135.528 9.18029 108.925C9.06482 87.2313 14.954 68.2208 26.8478 51.8935C38.7417 35.5662 55.1968 22.8355 76.213 13.7013C97.2294 4.56717 121.19 8.87473e-05 148.096 8.87605e-05C175.579 8.8774e-05 199.424 4.62425 219.632 13.8726C239.955 23.0068 255.718 35.8517 266.919 52.4073C278.12 68.963 283.836 88.1447 284.067 109.953L201.964 109.953Z" fill="white" />
    <path d="M332.219 355.547L332.219 4.79552L579.565 4.79552L579.565 73.6442L417.959 73.6442L417.959 145.576L566.921 145.576L566.921 214.596L417.959 214.596L417.959 286.698L579.565 286.698L579.565 355.547L332.219 355.547Z" fill="white" />
    <path d="M935.168 4.79552L935.168 355.547L862.419 355.547L721.252 153.111L719 153.111L719 355.547L633.26 355.547L633.26 4.79553L707.048 4.79552L846.657 206.889L849.601 206.889L849.601 4.79552L935.168 4.79552Z" fill="white" />
    <path d="M1180.82 109.953C1179.67 97.3931 1174.53 87.6309 1165.41 80.6661C1156.4 73.5872 1143.53 70.0477 1126.78 70.0477C1115.7 70.0477 1106.46 71.4749 1099.07 74.3293C1091.68 77.1837 1086.14 81.1228 1082.44 86.1466C1078.75 91.0562 1076.84 96.708 1076.72 103.102C1076.49 108.354 1077.53 112.978 1079.84 116.974C1082.27 120.971 1085.73 124.51 1090.24 127.593C1094.85 130.561 1100.4 133.188 1106.86 135.471C1113.33 137.755 1120.6 139.753 1128.69 141.465L1159.17 148.316C1176.73 152.084 1192.2 157.108 1205.59 163.387C1219.1 169.667 1230.42 177.146 1239.54 185.823C1248.78 194.501 1255.77 204.491 1260.5 215.795C1265.24 227.098 1267.66 239.772 1267.78 253.816C1267.66 275.966 1262 294.976 1250.8 310.847C1239.6 326.718 1223.49 338.877 1202.48 347.326C1181.58 355.776 1156.34 360 1126.78 360C1097.11 360 1071.24 355.604 1049.18 346.813C1027.13 338.021 1009.98 324.662 997.74 306.737C985.5 288.811 979.207 266.147 978.86 238.744L1060.96 238.744C1061.66 250.048 1064.72 259.467 1070.14 267.003C1075.57 274.539 1083.02 280.247 1092.49 284.13C1102.07 288.012 1113.16 289.953 1125.74 289.953C1137.29 289.953 1147.11 288.411 1155.19 285.328C1163.39 282.246 1169.68 277.964 1174.07 272.483C1178.46 267.003 1180.71 260.723 1180.82 253.644C1180.71 247.022 1178.63 241.37 1174.59 236.689C1170.55 231.894 1164.31 227.783 1155.88 224.358C1147.57 220.818 1136.94 217.564 1124.01 214.596L1086.94 206.032C1056.23 199.068 1032.04 187.821 1014.37 172.293C996.701 156.651 987.925 135.528 988.04 108.925C987.925 87.2313 993.814 68.2208 1005.71 51.8935C1017.6 35.5662 1034.06 22.8355 1055.07 13.7013C1076.09 4.56717 1100.05 8.92279e-05 1126.96 8.92411e-05C1154.44 8.92546e-05 1178.28 4.62426 1198.49 13.8726C1218.82 23.0068 1234.58 35.8517 1245.78 52.4073C1256.98 68.963 1262.7 88.1447 1262.93 109.953L1180.82 109.953Z" fill="white" />
    <path d="M1311.08 355.547L1311.08 4.79553L1558.43 4.79553L1558.43 73.6442L1396.82 73.6443L1396.82 145.576L1545.78 145.576L1545.78 214.596L1396.82 214.596L1396.82 286.698L1558.43 286.699L1558.43 355.547L1311.08 355.547Z" fill="white" />
    <path d="M1717.78 304.853L1717.78 56.8602L1787.58 56.8602L1787.58 304.853L1717.78 304.853ZM1627.19 215.452L1627.19 146.261L1878 146.261L1878 215.452L1627.19 215.452Z" fill="white" />
  </g>
  <defs>
    <filter id="filter0_i_2_14" x="0" y="0.00012207" width="1878" height="364" filterUnits="userSpaceOnUse" color-interpolation-filters="sRGB">
      <feFlood flood-opacity="0" result="BackgroundImageFix" />
      <feBlend mode="normal" in="SourceGraphic" in2="BackgroundImageFix" result="shape" />
      <feColorMatrix in="SourceAlpha" type="matrix" values="0 0 0 0 0 0 0 0 0 0 0 0 0 0 0 0 0 0 127 0" result="hardAlpha" />
      <feOffset dy="4" />
      <feGaussianBlur stdDeviation="8.3" />
      <feComposite in2="hardAlpha" operator="arithmetic" k2="-1" k3="1" />
      <feColorMatrix type="matrix" values="0 0 0 0 0 0 0 0 0 0 0 0 0 0 0 0 0 0 0.17 0" />
      <feBlend mode="normal" in2="shape" result="effect1_innerShadow_2_14" />
    </filter>
  </defs>
</svg>