<svg viewBox="0 0 860 165" fill="none" xmlns="http://www.w3.org/2000/svg">
  <path d="M92.4863 50.3949C91.9576 44.6384 89.6044 40.1641 85.4269 36.972C81.3023 33.7274 75.4062 32.1052 67.7387 32.1052C62.6623 32.1052 58.4319 32.7593 55.0476 34.0676C51.6633 35.3759 49.1251 37.1813 47.433 39.4838C45.7408 41.7341 44.8683 44.3245 44.8154 47.255C44.7097 49.6622 45.1856 51.7816 46.2432 53.6132C47.3536 55.4448 48.9401 57.0671 51.0023 58.48C53.1176 59.8406 55.6558 61.0443 58.617 62.0909C61.5782 63.1375 64.9097 64.0533 68.6112 64.8383L82.5714 67.9781C90.6091 69.705 97.695 72.0076 103.829 74.8858C110.016 77.764 115.198 81.1917 119.376 85.1689C123.606 89.1461 126.805 93.725 128.973 98.9058C131.141 104.087 132.252 109.895 132.305 116.332C132.252 126.484 129.661 135.197 124.531 142.471C119.402 149.745 112.025 155.319 102.401 159.191C92.8301 163.064 81.2759 165 67.7387 165C54.1487 165 42.3036 162.985 32.2037 158.956C22.1036 154.926 14.251 148.804 8.64581 140.588C3.04059 132.372 0.15863 121.984 0 109.424L37.5974 109.424C37.9147 114.605 39.316 118.922 41.8013 122.376C44.2866 125.83 47.6974 128.447 52.0335 130.226C56.4225 132.005 61.499 132.895 67.2628 132.895C72.5508 132.895 77.0455 132.188 80.7471 130.775C84.5015 129.363 87.3835 127.4 89.3929 124.888C91.4023 122.376 92.4335 119.498 92.4863 116.254C92.4335 113.218 91.4816 110.628 89.6309 108.482C87.7801 106.284 84.9246 104.401 81.0644 102.831C77.257 101.208 72.3922 99.7169 66.4696 98.3563L49.4953 94.4315C35.4293 91.2393 24.3511 86.0847 16.2605 78.9677C8.16992 71.7983 4.15106 62.117 4.20392 49.9239C4.15106 39.981 6.8479 31.2679 12.2945 23.7845C17.7411 16.3012 25.2764 10.4662 34.9005 6.27976C44.5246 2.09327 55.4971 1.99235e-05 67.8181 1.93906e-05C80.4034 1.88461e-05 91.323 2.11943 100.577 6.35824C109.884 10.5447 117.102 16.432 122.231 24.02C127.36 31.608 129.978 40.3996 130.084 50.3949L92.4863 50.3949Z" fill="url(#paint0_linear_2_101)" />
  <path d="M152.134 162.959V2.19792L265.402 2.19792V33.7536L191.398 33.7536V66.7222H259.612V98.3563H191.398V131.403H265.402V162.959H152.134Z" fill="url(#paint1_linear_2_101)" />
  <path d="M428.245 2.19791V162.959H394.931L330.286 70.176H329.255V162.959H289.991V2.19792L323.781 2.19792L387.713 94.824H389.061V2.19791L428.245 2.19791Z" fill="url(#paint2_linear_2_101)" />
  <path d="M540.74 50.3948C540.211 44.6384 537.858 40.1641 533.68 36.9719C529.556 33.7274 523.66 32.1051 515.992 32.1051C510.916 32.1051 506.685 32.7593 503.301 34.0675C499.917 35.3758 497.378 37.1813 495.686 39.4838C493.994 41.7341 493.122 44.3245 493.069 47.255C492.963 49.6622 493.439 51.7816 494.497 53.6132C495.607 55.4448 497.193 57.0671 499.256 58.48C501.371 59.8406 503.909 61.0442 506.87 62.0909C509.832 63.1375 513.163 64.0533 516.865 64.8382L530.825 67.9781C538.862 69.705 545.948 72.0076 552.082 74.8858C558.269 77.764 563.451 81.1917 567.629 85.1689C571.859 89.146 575.059 93.725 577.227 98.9058C579.395 104.087 580.505 109.895 580.558 116.332C580.505 126.484 577.914 135.197 572.785 142.471C567.655 149.745 560.279 155.319 550.655 159.191C541.083 163.064 529.529 165 515.992 165C502.402 165 490.557 162.985 480.457 158.956C470.357 154.926 462.504 148.803 456.899 140.588C451.294 132.372 448.412 121.984 448.253 109.424H485.851C486.168 114.605 487.569 118.922 490.055 122.376C492.54 125.83 495.951 128.447 500.287 130.226C504.676 132.005 509.752 132.895 515.516 132.895C520.804 132.895 525.299 132.188 529 130.775C532.755 129.362 535.637 127.4 537.646 124.888C539.656 122.376 540.687 119.498 540.74 116.254C540.687 113.218 539.735 110.628 537.884 108.482C536.033 106.284 533.178 104.401 529.318 102.831C525.51 101.208 520.645 99.7169 514.723 98.3563L497.749 94.4315C483.683 91.2393 472.604 86.0847 464.514 78.9676C456.423 71.7983 452.404 62.117 452.457 49.9239C452.404 39.981 455.101 31.2678 460.548 23.7845C465.994 16.3011 473.53 10.4662 483.154 6.27974C492.778 2.09325 503.75 5.3298e-07 516.071 0C528.657 -5.44416e-07 539.576 2.11941 548.83 6.35822C558.137 10.5447 565.355 16.432 570.484 24.02C575.614 31.608 578.231 40.3996 578.337 50.3948L540.74 50.3948Z" fill="url(#paint3_linear_2_101)" />
  <path d="M600.388 162.959V2.1979L713.656 2.1979V33.7536L639.651 33.7536V66.7221H707.866V98.3563L639.651 98.3563V131.403H713.656V162.959H600.388Z" fill="url(#paint4_linear_2_101)" />
  <path d="M786.63 139.724L786.63 26.0609H818.595L818.595 139.724L786.63 139.724ZM745.146 98.7488L745.146 67.0361H860L860 98.7488L745.146 98.7488Z" fill="url(#paint5_linear_2_101)" />
  <defs>
    <linearGradient id="paint0_linear_2_101" x1="821.196" y1="129.063" x2="0.0305939" y2="165.687" gradientUnits="userSpaceOnUse">
      <stop stop-color="#D6DBE3" />
      <stop offset="0.999411" stop-color="#666666" />
    </linearGradient>
    <linearGradient id="paint1_linear_2_101" x1="821.196" y1="129.063" x2="0.0305939" y2="165.687" gradientUnits="userSpaceOnUse">
      <stop stop-color="#D6DBE3" />
      <stop offset="0.999411" stop-color="#666666" />
    </linearGradient>
    <linearGradient id="paint2_linear_2_101" x1="821.196" y1="129.063" x2="0.0305939" y2="165.687" gradientUnits="userSpaceOnUse">
      <stop stop-color="#D6DBE3" />
      <stop offset="0.999411" stop-color="#666666" />
    </linearGradient>
    <linearGradient id="paint3_linear_2_101" x1="821.196" y1="129.063" x2="0.0305939" y2="165.687" gradientUnits="userSpaceOnUse">
      <stop stop-color="#D6DBE3" />
      <stop offset="0.999411" stop-color="#666666" />
    </linearGradient>
    <linearGradient id="paint4_linear_2_101" x1="821.196" y1="129.063" x2="0.0305939" y2="165.687" gradientUnits="userSpaceOnUse">
      <stop stop-color="#D6DBE3" />
      <stop offset="0.999411" stop-color="#666666" />
    </linearGradient>
    <linearGradient id="paint5_linear_2_101" x1="821.196" y1="129.063" x2="0.0305939" y2="165.687" gradientUnits="userSpaceOnUse">
      <stop stop-color="#D6DBE3" />
      <stop offset="0.999411" stop-color="#666666" />
    </linearGradient>
  </defs>
</svg>