<svg width="1174.000000" height="561.000000" viewBox="0 0 1174 561" fill="none" xmlns="http://www.w3.org/2000/svg" xmlns:xlink="http://www.w3.org/1999/xlink">
	<desc>
			Created with Pixso.
	</desc>
	<defs>
		<linearGradient x1="157.756317" y1="464.440186" x2="1201.789062" y2="141.451660" id="paint_linear_457_1035_0" gradientUnits="userSpaceOnUse">
			<stop stop-color="#F1DD9F"/>
			<stop offset="1.000000" stop-color="#F1DD9F" stop-opacity="0.529412"/>
		</linearGradient>
	</defs>
	<path id="Union" d="M613.04 38.96C611.82 39.83 610.26 40.46 608.35 40.83C606.48 41.21 604.56 41.4 602.58 41.4C600.18 41.4 597.89 41.04 595.72 40.32C593.59 39.57 591.7 38.37 590.07 36.74C588.43 35.07 587.11 32.92 586.12 30.31C585.17 27.66 584.69 24.46 584.69 20.7C584.69 16.79 585.23 13.53 586.29 10.92C587.4 8.26 588.81 6.14 590.52 4.54C592.27 2.92 594.22 1.76 596.35 1.07C598.48 0.35 600.62 0 602.75 0C605.04 0 606.96 0.14 608.52 0.45C610.12 0.75 611.44 1.11 612.46 1.53L610.92 8.13C610.05 7.71 609 7.41 607.78 7.22C606.6 7.03 605.15 6.93 603.44 6.93C600.28 6.93 597.72 8.05 595.78 10.29Q592.92 13.64 592.92 20.7C592.92 22.75 593.15 24.62 593.61 26.33C594.07 28 594.75 29.44 595.66 30.65C596.62 31.83 597.78 32.76 599.15 33.44C600.56 34.08 602.18 34.41 604.01 34.41C605.72 34.41 607.17 34.24 608.35 33.89C609.53 33.55 610.56 33.12 611.44 32.59L613.04 38.96ZM552.21 23.94L537.58 23.94L537.58 40.6L529.75 40.6L529.75 0.79L537.58 0.79L537.58 17L552.21 17L552.21 0.79L560.03 0.79L560.03 40.6L552.21 40.6L552.21 23.94ZM570.91 41.29C572.59 41.29 573.77 41.03 574.46 40.5C575.18 39.96 575.56 39.26 575.6 38.39C575.56 37.52 575.18 36.83 574.46 36.34C573.73 35.85 572.4 35.6 570.46 35.6L568.06 35.6L568.06 33.44L572.23 28.89L574.69 27.46L571.37 27.81L564.8 27.81L564.8 22.4L580.97 22.4L580.97 25.93L576 31.17L574.06 32.19L574.06 32.47L575.77 32.3C577.75 32.38 579.3 32.99 580.4 34.12C581.54 35.22 582.14 36.79 582.17 38.85C582.14 40.21 581.83 41.39 581.26 42.37C580.73 43.35 579.98 44.17 579.03 44.82C578.12 45.46 577.03 45.93 575.77 46.24C574.52 46.54 573.22 46.69 571.89 46.69C570.4 46.69 569.01 46.56 567.71 46.29C566.46 46.07 565.37 45.75 564.46 45.33L565.77 40.21C567.34 40.92 569.05 41.29 570.91 41.29ZM1119.03 83.53C1117.81 84.41 1116.25 85.03 1114.34 85.42C1112.48 85.79 1110.55 85.98 1108.56 85.98C1106.17 85.98 1103.88 85.62 1101.71 84.9C1099.57 84.14 1097.69 82.95 1096.05 81.32C1094.42 79.65 1093.1 77.51 1092.11 74.89C1091.16 72.24 1090.68 69.03 1090.68 65.28C1090.68 61.37 1091.22 58.11 1092.29 55.5C1093.39 52.84 1094.8 50.72 1096.51 49.13C1098.27 47.5 1100.21 46.34 1102.34 45.66C1104.48 44.93 1106.61 44.57 1108.74 44.57Q1112.17 44.57 1114.52 45.03C1116.11 45.33 1117.43 45.69 1118.46 46.11L1116.91 52.71C1116.04 52.29 1114.99 51.99 1113.77 51.8C1112.59 51.61 1111.14 51.52 1109.43 51.52C1106.27 51.52 1103.71 52.64 1101.77 54.87C1099.87 57.1 1098.91 60.58 1098.91 65.28C1098.91 67.32 1099.14 69.21 1099.6 70.91C1100.05 72.58 1100.74 74.02 1101.66 75.23C1102.61 76.41 1103.77 77.34 1105.14 78.02C1106.55 78.67 1108.17 78.99 1110 78.99C1111.71 78.99 1113.16 78.82 1114.34 78.47C1115.52 78.14 1116.55 77.7 1117.43 77.17L1119.03 83.53ZM1144.04 68.52L1129.41 68.52L1129.41 85.19L1121.57 85.19L1121.57 45.37L1129.41 45.37L1129.41 61.58L1144.04 61.58L1144.04 45.37L1151.86 45.37L1151.86 85.19L1144.04 85.19L1144.04 68.52ZM654.55 112.92L737.89 66.07L822.87 112.97L908.61 66.07L991.87 112.89L1066 67.42C1068.18 66.09 1071.04 66.76 1072.38 68.93C1072.85 69.68 1073.06 70.52 1073.06 71.35C1073.06 72.89 1072.29 74.41 1070.86 75.28L996.61 120.82L996.61 195.1C996.61 197.65 994.54 199.71 991.98 199.71C989.42 199.71 987.35 197.65 987.35 195.1L987.35 120.93L908.55 76.63L822.85 123.5L737.93 76.64L659.14 120.93L659.14 220.12L685.13 255.62L714.74 296.35L685.09 337.07L655.32 377.69L607.25 362.21L564.98 348.45L524.33 372.24L484.89 394.48L485.27 441.83L484.86 492.56L440.93 518.28L396.59 543.29L352.24 518.28L312.03 494.74L272.14 518.08L227.46 543.29L182.79 518.08L143.46 495.07L86.98 528.8C84.79 530.1 81.94 529.4 80.63 527.21C80.18 526.47 79.97 525.65 79.97 524.85C79.97 523.28 80.77 521.75 82.22 520.89L138.48 487.29L138.11 441.06L138.52 389.95L182.79 364.04L227.46 338.83L272.14 364.04L291.56 375.4L291.56 325.77C291.56 323.22 293.64 321.16 296.19 321.16C298.75 321.16 300.83 323.22 300.83 325.77L300.83 391.53L267.51 372.03L227.46 349.43L187.42 372.03L147.74 395.25L147.37 441.06L147.74 486.88L187.42 510.1L227.46 532.69L267.51 510.1L307.02 486.97L307.35 415.83L307.19 395.25L307.13 395.21L307.49 387L307.78 324.98C307.79 322.43 309.87 320.38 312.43 320.39C314.98 320.4 317.05 322.46 317.05 325L317.05 325.02L316.76 386.15L352.24 365.39L391.68 343.14L391.3 295.79L391.71 245.06L435.64 219.35L479.98 194.33L524.33 219.35L559.53 239.95L559.53 175.89C559.53 173.34 561.6 171.28 564.16 171.28C566.72 171.28 568.79 173.34 568.79 175.89L568.79 242.93L607.3 230.42L649.88 216.75L649.88 120.88L571.85 75.33C570.38 74.47 569.57 72.93 569.57 71.35C569.57 70.56 569.77 69.75 570.2 69.02C571.5 66.82 574.34 66.08 576.54 67.37L654.55 112.92ZM1162.74 85.87C1164.42 85.87 1165.6 85.6 1166.29 85.07C1167.01 84.54 1167.39 83.84 1167.43 82.97C1167.39 82.1 1167.01 81.42 1166.29 80.92C1165.56 80.42 1164.23 80.18 1162.29 80.18L1159.89 80.18L1159.89 78.02L1164.05 73.47L1166.52 72.05L1163.19 72.39L1156.63 72.39L1156.63 66.99L1172.8 66.99L1172.8 70.51L1167.82 75.75L1165.89 76.77L1165.89 77.05L1167.6 76.89C1169.57 76.96 1171.12 77.57 1172.23 78.71C1173.37 79.8 1173.96 81.38 1174 83.42C1173.96 84.79 1173.66 85.96 1173.09 86.95C1172.55 87.93 1171.81 88.75 1170.86 89.39C1169.93 90.04 1168.86 90.51 1167.6 90.82C1166.34 91.12 1165.05 91.28 1163.71 91.28C1162.23 91.28 1160.84 91.14 1159.54 90.88C1158.29 90.64 1157.19 90.32 1156.29 89.91L1157.6 84.79C1159.16 85.51 1160.88 85.87 1162.74 85.87ZM556.84 152.71C555.62 153.59 554.05 154.21 552.15 154.59C550.28 154.97 548.36 155.16 546.38 155.16Q542.92 155.16 539.78 154.16Q539.65 154.12 539.52 154.08C537.39 153.32 535.5 152.13 533.86 150.5C532.23 148.82 530.91 146.68 529.92 144.07C528.97 141.42 528.49 138.21 528.49 134.46C528.49 130.55 529.03 127.29 530.09 124.68C531.2 122.02 532.6 119.89 534.32 118.3C536.07 116.68 538.02 115.52 540.15 114.83C542.28 114.11 544.42 113.75 546.55 113.75C548.84 113.75 550.76 113.9 552.32 114.21C553.92 114.51 555.24 114.87 556.27 115.28L554.72 121.89C553.85 121.47 552.8 121.17 551.58 120.98C550.4 120.78 548.95 120.69 547.23 120.69C544.07 120.69 541.52 121.81 539.58 124.05C537.68 126.28 536.72 129.75 536.72 134.46C536.72 136.5 536.95 138.38 537.4 140.09C537.86 141.75 538.55 143.2 539.46 144.41C540.42 145.59 541.58 146.51 542.95 147.2C544.36 147.84 545.98 148.17 547.81 148.17C549.52 148.17 550.97 148 552.15 147.65C553.33 147.31 554.36 146.88 555.24 146.35L556.84 152.71ZM581.84 137.7L567.21 137.7L567.21 154.36L559.39 154.36L559.39 114.55L567.21 114.55L567.21 130.76L581.84 130.76L581.84 114.55L589.67 114.55L589.67 154.36L581.84 154.36L581.84 137.7ZM600.55 155.04C602.23 155.04 603.4 154.78 604.09 154.25C604.82 153.72 605.2 153.02 605.24 152.14C605.2 151.28 604.82 150.59 604.09 150.1C603.37 149.6 602.03 149.35 600.09 149.35L597.69 149.35L597.69 147.2L601.86 142.64L604.32 141.22L601.01 141.57L594.44 141.57L594.44 136.16L610.61 136.16L610.61 139.69L605.64 144.92L603.69 145.95L603.69 146.23L605.4 146.06C607.39 146.14 608.93 146.75 610.03 147.88C611.18 148.98 611.77 150.55 611.81 152.6C611.77 153.96 611.46 155.14 610.89 156.13C610.36 157.11 609.62 157.92 608.66 158.57C607.75 159.21 606.66 159.69 605.4 160C604.15 160.3 602.85 160.45 601.52 160.45C600.03 160.45 598.64 160.32 597.35 160.05C596.09 159.82 595.01 159.5 594.09 159.08L595.4 153.96C596.97 154.68 598.68 155.04 600.55 155.04ZM479.98 204.93L440.28 227.34L400.93 250.36L400.57 295.79L400.93 341.22L440.28 364.25L479.98 386.65L519.69 364.25L559.04 341.22L559.21 320.31L559.18 296.29L559.22 273.44L559.04 250.36L519.69 227.34L479.98 204.93ZM981.57 255.71C980.35 256.58 978.78 257.21 976.88 257.59C975.01 257.96 973.09 258.16 971.11 258.16C968.71 258.16 966.42 257.79 964.25 257.07C962.12 256.32 960.23 255.12 958.59 253.5C956.96 251.82 955.64 249.68 954.65 247.07C953.7 244.41 953.22 241.21 953.22 237.45C953.22 233.55 953.75 230.28 954.82 227.67C955.93 225.01 957.34 222.89 959.05 221.3C960.8 219.67 962.75 218.51 964.88 217.83C967.01 217.11 969.15 216.75 971.28 216.75C973.57 216.75 975.49 216.9 977.05 217.21C978.65 217.5 979.96 217.87 981 218.28L979.45 224.89C978.57 224.46 977.53 224.16 976.31 223.97C975.13 223.78 973.68 223.69 971.96 223.69C968.8 223.69 966.25 224.81 964.31 227.04C962.4 229.28 961.45 232.75 961.45 237.45C961.45 239.5 961.68 241.38 962.14 243.08C962.59 244.75 963.28 246.19 964.19 247.41C965.15 248.58 966.31 249.51 967.68 250.19C969.09 250.84 970.71 251.16 972.54 251.16C974.25 251.16 975.7 250.99 976.88 250.65C978.06 250.31 979.09 249.87 979.96 249.34L981.57 255.71ZM1006.58 240.69L991.94 240.69L991.94 257.36L984.11 257.36L984.11 217.54L991.94 217.54L991.94 233.75L1006.58 233.75L1006.58 217.54L1014.41 217.54L1014.41 257.36L1006.58 257.36L1006.58 240.69ZM568.67 295.79L568.47 320.34L568.5 339.89L610.1 353.44L610.13 353.45L651.78 366.86L677.59 331.66L677.61 331.64L703.3 296.35L677.64 261.05L651.84 225.81L610.18 239.18L610.15 239.19L568.53 252.71L568.49 273.41L568.67 295.79ZM1025.29 258.04C1026.96 258.04 1028.14 257.78 1028.82 257.25C1029.55 256.71 1029.93 256.01 1029.97 255.14C1029.93 254.27 1029.55 253.59 1028.82 253.1C1028.1 252.6 1026.77 252.35 1024.82 252.35L1022.43 252.35L1022.43 250.19L1026.6 245.64L1029.05 244.22L1025.74 244.57L1019.17 244.57L1019.17 239.16L1035.34 239.16L1035.34 242.68L1030.37 247.92L1028.43 248.94L1028.43 249.23L1030.14 249.06C1032.12 249.13 1033.66 249.74 1034.77 250.88C1035.91 251.97 1036.5 253.55 1036.54 255.6C1036.5 256.96 1036.19 258.14 1035.63 259.12C1035.09 260.11 1034.35 260.93 1033.4 261.57C1032.48 262.21 1031.4 262.69 1030.14 262.99C1028.88 263.29 1027.59 263.45 1026.25 263.45C1024.77 263.45 1023.38 263.32 1022.09 263.05C1020.83 262.82 1019.74 262.5 1018.83 262.08L1020.14 256.96C1021.7 257.68 1023.42 258.04 1025.29 258.04ZM289.64 301.83C288.43 302.7 286.86 303.32 284.96 303.71C283.09 304.08 281.17 304.28 279.18 304.28C276.78 304.28 274.5 303.92 272.33 303.19C270.19 302.43 268.31 301.24 266.67 299.61C265.03 297.94 263.72 295.8 262.73 293.18C261.77 290.53 261.3 287.32 261.3 283.57C261.3 279.67 261.83 276.4 262.9 273.78C264 271.14 265.41 269.01 267.13 267.42C268.88 265.78 270.82 264.63 272.96 263.95C275.09 263.23 277.22 262.86 279.35 262.86C281.64 262.86 283.57 263.02 285.13 263.32C286.73 263.63 288.04 263.99 289.07 264.4L287.53 271C286.65 270.58 285.6 270.28 284.39 270.09C283.2 269.9 281.76 269.81 280.04 269.81C276.88 269.81 274.33 270.93 272.39 273.16C270.48 275.4 269.53 278.87 269.53 283.57C269.53 285.62 269.76 287.5 270.21 289.2C270.67 290.87 271.35 292.31 272.27 293.53Q272.89 294.28 273.62 294.9Q274.59 295.73 275.76 296.31C277.17 296.96 278.78 297.28 280.61 297.28C282.33 297.28 283.78 297.1 284.96 296.77C286.14 296.43 287.17 295.99 288.04 295.46L289.64 301.83ZM314.65 286.82L300.02 286.82L300.02 303.48L292.19 303.48L292.19 263.66L300.02 263.66L300.02 279.87L314.65 279.87L314.65 263.66L322.48 263.66L322.48 303.48L314.65 303.48L314.65 286.82ZM343.59 292.1C343.59 294.34 343.02 296.25 341.87 297.85C340.73 299.44 339.36 300.96 337.76 302.39L335.07 303.82L335.07 304.04L338.44 303.42L344.5 303.42L344.5 309.17L326.61 309.17L326.61 305.13C327.6 304.44 328.71 303.65 329.93 302.74C331.15 301.83 332.27 300.86 333.3 299.84C334.37 298.78 335.24 297.7 335.93 296.6C336.65 295.5 337.02 294.46 337.02 293.46C337.02 291.61 335.95 290.68 333.81 290.68C332.78 290.68 331.81 290.85 330.9 291.19C329.98 291.5 329.19 291.85 328.5 292.27L326.56 287.15C327.89 286.35 329.3 285.78 330.78 285.45C332.31 285.07 333.76 284.88 335.13 284.88C337.83 284.88 339.91 285.5 341.36 286.75C342.84 287.97 343.59 289.75 343.59 292.1ZM396.59 350.97L356.87 373.38L317.53 396.4L317.17 441.83L317.53 487.26L356.87 510.28L396.59 532.69L436.29 510.28L475.64 487.26L476 441.83L475.64 396.4L436.29 373.38L396.59 350.97ZM464.54 402.63C467.1 402.63 469.18 404.7 469.18 407.25L469.18 478.72C469.18 481.27 467.1 483.34 464.54 483.34C461.98 483.34 459.91 481.27 459.91 478.72L459.91 407.25C459.91 404.7 461.98 402.63 464.54 402.63ZM33.67 540.29C33.67 533.66 35.14 528.56 38.07 524.99Q39.35 523.43 40.95 522.31Q44.85 519.59 50.65 519.59C53.5 519.59 56 520.08 58.13 521.07C60.26 522.05 62.04 523.46 63.45 525.28C64.86 527.1 65.91 529.28 66.59 531.82C67.28 534.35 67.62 537.18 67.62 540.29Q67.62 550.25 63.16 555.65C60.23 559.21 56.06 561 50.65 561C47.75 561 45.24 560.5 43.1 559.52C40.97 558.53 39.2 557.13 37.79 555.31C36.42 553.49 35.39 551.31 34.7 548.77C34.02 546.23 33.67 543.4 33.67 540.29ZM22.45 543.53L7.82 543.53L7.82 560.2L0 560.2L0 520.39L7.82 520.39L7.82 536.6L22.45 536.6L22.45 520.39L30.28 520.39L30.28 560.2L22.45 560.2L22.45 543.53ZM41.91 540.29C41.91 542.3 42.07 544.16 42.42 545.86C42.76 547.53 43.28 548.97 43.96 550.19C44.69 551.4 45.6 552.35 46.7 553.03C47.81 553.71 49.12 554.06 50.65 554.06C53.43 554.06 55.58 552.97 57.1 550.82C58.63 548.65 59.39 545.14 59.39 540.29C59.39 538.35 59.22 536.56 58.87 534.89C58.57 533.22 58.08 531.76 57.39 530.51C56.71 529.26 55.81 528.29 54.71 527.6Q53.05 526.53 50.65 526.53C47.87 526.53 45.71 527.64 44.19 529.89C42.67 532.08 41.91 535.55 41.91 540.29Z" fill="url(#paint_linear_457_1035_0)" fill-opacity="0.250000" fill-rule="evenodd"/>
</svg>
