<svg xmlns="http://www.w3.org/2000/svg" width="86" height="86" fill="none"><path stroke="#70CF29" stroke-miterlimit="10" d="M70.36 11.148C63.01 4.828 53.455 1 43 1 19.804 1 1 19.805 1 43c0 10.455 3.828 20.01 10.148 27.36"/><path stroke="#3FA9F5" stroke-miterlimit="10" d="M15.373 74.621c7.386 6.457 17.045 10.38 27.627 10.38 23.196 0 42-18.806 42-42 0-10.582-3.922-20.242-10.379-27.628"/><path fill="#3FA9F5" d="M52.789 43.263C53.851 44.077 55.055 45 57 45c1.724 0 2.925-.883 3.985-1.662C61.962 42.62 62.806 42 64 42c1.167 0 1.97.603 2.9 1.3 1.063.797 2.267 1.7 4.1 1.7v-2c-1.167 0-1.97-.603-2.9-1.3-1.063-.797-2.267-1.7-4.1-1.7-1.85 0-3.098.917-4.199 1.727C58.871 42.41 58.068 43 57 43c-1.267 0-2.067-.613-2.995-1.324-.822-.63-1.739-1.319-3.005-1.571v-6.206a5.01 5.01 0 0 0 4-4.898c0-2.757-2.243-5-5-5s-5 2.243-5 5a5.01 5.01 0 0 0 4 4.898v6.206c-1.292.253-2.245.954-3.1 1.596-.93.697-1.733 1.3-2.9 1.3s-1.97-.603-2.9-1.3c-1.063-.797-2.267-1.7-4.1-1.7s-3.039.903-4.101 1.7c-.93.697-1.735 1.3-2.901 1.3-1.174 0-1.991-.607-2.934-1.311-1.063-.792-2.271-1.689-4.075-1.689-1.871 0-3.087.914-4.15 1.721C16.934 42.407 16 43 15 43v2c2 0 3.006-.896 4.048-1.687C19.977 42.608 20.802 42 22 42c1.14 0 1.943.6 2.874 1.293C25.946 44.093 27.163 45 29 45c1.833 0 3.038-.903 4.1-1.7.93-.697 1.733-1.3 2.9-1.3s1.97.603 2.9 1.3c1.063.797 2.267 1.7 4.1 1.7s3.038-.903 4.1-1.7c.638-.479 1.223-.896 1.9-1.122v4.927c-1.292.253-2.245.954-3.1 1.596-.93.697-1.733 1.3-2.9 1.3s-1.97-.603-2.9-1.3c-1.063-.797-2.267-1.7-4.1-1.7s-3.039.903-4.101 1.7c-.93.697-1.735 1.3-2.901 1.3-1.174 0-1.991-.607-2.934-1.311-1.063-.792-2.271-1.689-4.075-1.689-1.871 0-3.087.914-4.15 1.721C16.934 49.407 16 50 15 50v2c2 0 3.006-.896 4.048-1.687C19.977 49.608 20.802 49 22 49c1.14 0 1.943.6 2.874 1.293C25.946 51.093 27.163 52 29 52c1.833 0 3.038-.903 4.1-1.7.93-.697 1.733-1.3 2.9-1.3s1.97.603 2.9 1.3c1.063.797 2.267 1.7 4.1 1.7s3.038-.903 4.1-1.7c.638-.479 1.223-.896 1.9-1.122V62c0 3.859-3.14 7-7 7s-7-3.141-7-7v-2.586l4.293 4.293 1.414-1.414L33 54.586V62c0 4.963 4.038 9 9 9s9-4.037 9-9V49.181c.629.216 1.169.607 1.789 1.082C53.851 51.077 55.055 52 57 52c1.724 0 2.925-.883 3.985-1.662C61.962 49.62 62.806 49 64 49c1.167 0 1.97.603 2.9 1.3 1.063.797 2.267 1.7 4.1 1.7v-2c-1.167 0-1.97-.603-2.9-1.3-1.063-.797-2.267-1.7-4.1-1.7-1.85 0-3.098.917-4.199 1.727C58.871 49.41 58.068 50 57 50c-1.267 0-2.067-.613-2.995-1.324-.822-.63-1.739-1.319-3.005-1.571v-4.924c.629.215 1.169.607 1.789 1.082M47 29c0-1.654 1.346-3 3-3s3 1.346 3 3-1.346 3-3 3-3-1.346-3-3M51 16h-2v8h2z"/></svg>