<svg width="361" height="343" viewBox="0 0 361 343" fill="none" xmlns="http://www.w3.org/2000/svg">
<path d="M124.473 183.443L70.4559 113.642L105.241 86.7227C124.516 71.8064 152.234 75.3398 167.15 94.6147C182.066 113.89 178.533 141.607 159.258 156.524L124.473 183.443Z" fill="white"/>
<path fill-rule="evenodd" clip-rule="evenodd" d="M86.2314 204.58L154.523 151.731C171.072 138.924 174.106 115.126 161.299 98.5769C148.492 82.0278 124.695 78.9941 108.146 91.8009L39.8537 144.65C23.3046 157.457 20.2709 181.254 33.0777 197.804C45.8846 214.353 69.6823 217.386 86.2314 204.58ZM166.874 94.2627C151.685 74.6347 123.459 71.0366 103.831 86.2261L35.5395 139.075C15.9115 154.265 12.3134 182.49 27.5029 202.118C42.6924 221.746 70.9176 225.344 90.5456 210.154L158.838 157.305C178.466 142.116 182.064 113.891 166.874 94.2627Z" fill="white"/>
<path d="M240.926 119.107L320.05 78.8996L339.864 117.892C350.967 139.742 342.255 166.455 320.406 177.558C298.556 188.661 271.843 179.949 260.74 158.1L240.926 119.107Z" fill="white"/>
<path fill-rule="evenodd" clip-rule="evenodd" d="M227.329 77.5859L266.449 154.569C275.929 173.225 298.737 180.663 317.392 171.183C336.047 161.703 343.486 138.895 334.006 120.24L294.886 43.2565C285.406 24.6011 262.598 17.1629 243.943 26.6427C225.288 36.1225 217.85 58.9306 227.329 77.5859ZM320.586 177.468C342.712 166.224 351.534 139.173 340.29 117.047L301.171 40.063C289.927 17.9369 262.876 9.11483 240.75 20.3583C218.624 31.6018 209.801 58.6532 221.045 80.7793L260.165 157.763C271.408 179.889 298.459 188.711 320.586 177.468Z" fill="white"/>
<path d="M214.828 312.313L245.314 228.857L286.352 243.848C309.397 252.266 321.255 277.773 312.837 300.818C304.419 323.864 278.912 335.722 255.866 327.304L214.828 312.313Z" fill="white"/>
<path fill-rule="evenodd" clip-rule="evenodd" d="M176.564 291.218L257.675 320.847C277.33 328.027 299.084 317.913 306.264 298.258C313.444 278.602 303.331 256.848 283.675 249.668L202.565 220.039C182.909 212.859 161.155 222.973 153.975 242.628C146.795 262.284 156.908 284.038 176.564 291.218ZM312.886 300.676C321.401 277.364 309.406 251.562 286.094 243.047L204.983 213.418C181.671 204.902 155.869 216.897 147.354 240.21C138.838 263.522 150.833 289.324 174.145 297.839L255.256 327.468C278.568 335.984 304.37 323.989 312.886 300.676Z" fill="white"/>
</svg>
