<svg width="332" height="310" viewBox="0 0 332 310" fill="none" xmlns="http://www.w3.org/2000/svg">
<path fill-rule="evenodd" clip-rule="evenodd" d="M42.8456 108.373C60.9405 126.468 90.2782 126.468 108.373 108.373C126.468 90.2776 126.468 60.9399 108.373 42.845C90.2782 24.75 60.9405 24.75 42.8456 42.845C24.7506 60.9399 24.7506 90.2776 42.8456 108.373ZM37.805 113.413C58.6838 134.292 92.535 134.292 113.414 113.413C134.293 92.5344 134.293 58.6832 113.414 37.8044C92.535 16.9256 58.6838 16.9256 37.805 37.8044C16.9262 58.6832 16.9262 92.5344 37.805 113.413Z" fill="white"/>
<path d="M49.1465 31.5038L118.455 100.812L113.414 105.852L44.1059 36.5444L49.1465 31.5038Z" fill="white"/>
<path d="M36.5449 44.1047L107.113 114.673L102.073 119.714L31.5043 49.1453L36.5449 44.1047Z" fill="white"/>
<path fill-rule="evenodd" clip-rule="evenodd" d="M222.838 73.1468C204.743 91.2418 204.743 120.58 222.838 138.674C240.933 156.769 270.271 156.769 288.366 138.674C306.461 120.579 306.461 91.2418 288.366 73.1468C270.271 55.0519 240.933 55.0519 222.838 73.1468ZM217.798 68.1063C196.919 88.985 196.919 122.836 217.798 143.715C238.677 164.594 272.528 164.594 293.407 143.715C314.285 122.836 314.285 88.985 293.407 68.1063C272.528 47.2275 238.677 47.2275 217.798 68.1063Z" fill="white"/>
<path d="M299.707 79.4469L230.399 148.755L225.358 143.714L294.666 74.4063L299.707 79.4469Z" fill="white"/>
<path d="M287.107 66.8468L216.539 137.415L211.499 132.374L282.067 61.8062L287.107 66.8468Z" fill="white"/>
<path fill-rule="evenodd" clip-rule="evenodd" d="M166.626 260.125C179.41 237.957 171.803 209.622 149.635 196.838C127.467 184.054 99.1325 191.662 86.3486 213.83C73.5646 235.998 81.172 264.332 103.34 277.116C125.508 289.9 153.842 282.293 166.626 260.125ZM172.802 263.686C187.552 238.107 178.775 205.414 153.196 190.663C127.617 175.912 94.9241 184.69 80.1734 210.269C65.4227 235.847 74.2004 268.541 99.779 283.291C125.358 298.042 158.051 289.264 172.802 263.686Z" fill="white"/>
<path d="M90.7539 273.972L139.72 189.062L145.895 192.623L96.9291 277.533L90.7539 273.972Z" fill="white"/>
<path d="M106.189 282.874L156.045 196.421L162.221 199.982L112.365 286.435L106.189 282.874Z" fill="white"/>
</svg>
