<svg width="410" height="399" viewBox="0 0 410 399" fill="none" xmlns="http://www.w3.org/2000/svg">
<path fill-rule="evenodd" clip-rule="evenodd" d="M189.864 339.352L263.575 294.367C281.437 283.466 287.08 260.149 276.178 242.287C265.277 224.425 241.96 218.782 224.098 229.683L150.388 274.668C132.526 285.569 126.883 308.886 137.784 326.748C148.685 344.61 172.002 350.253 189.864 339.352ZM282.196 238.615C269.266 217.43 241.611 210.737 220.426 223.666L146.716 268.651C125.531 281.58 118.838 309.235 131.767 330.421C144.696 351.606 172.351 358.299 193.537 345.369L267.247 300.385C288.432 287.455 295.125 259.8 282.196 238.615Z" fill="white"/>
<path d="M219.859 329.3L174.875 255.59L180.892 251.918L225.877 325.628L219.859 329.3Z" fill="white"/>
<path d="M234.902 320.12L189.918 246.41L195.935 242.737L240.919 316.448L234.902 320.12Z" fill="white"/>
<path fill-rule="evenodd" clip-rule="evenodd" d="M36.8551 133.59L97.9806 194.586C112.793 209.367 136.783 209.342 151.564 194.529C166.345 179.717 166.32 155.726 151.507 140.945L90.382 79.9497C75.5695 65.1686 51.5792 65.1941 36.7982 80.0066C22.0171 94.8191 22.0426 118.809 36.8551 133.59ZM156.554 199.508C174.085 181.94 174.055 153.487 156.487 135.956L95.3612 74.9598C77.7929 57.4288 49.3393 57.4591 31.8083 75.0274C14.2773 92.5956 14.3076 121.049 31.8758 138.58L93.0013 199.576C110.57 217.107 139.023 217.077 156.554 199.508Z" fill="white"/>
<path d="M53.707 160.362L114.703 99.2363L119.693 104.216L58.6969 165.341L53.707 160.362Z" fill="white"/>
<path d="M66.1836 172.81L127.179 111.684L132.169 116.663L71.1734 177.789L66.1836 172.81Z" fill="white"/>
<path fill-rule="evenodd" clip-rule="evenodd" d="M344.479 104.478L266.609 67.1558C247.738 58.1115 225.109 66.0771 216.065 84.9474C207.02 103.818 214.986 126.447 233.856 135.491L311.727 172.814C330.598 181.858 353.227 173.892 362.271 155.022C371.315 136.152 363.35 113.522 344.479 104.478ZM209.708 81.9007C198.981 104.282 208.429 131.121 230.81 141.848L308.68 179.17C331.062 189.897 357.901 180.45 368.628 158.069C379.355 135.688 369.907 108.848 347.526 98.1212L269.655 60.799C247.274 50.072 220.435 59.5196 209.708 81.9007Z" fill="white"/>
<path d="M319.715 84.7944L282.393 162.665L276.036 159.618L313.358 81.7477L319.715 84.7944Z" fill="white"/>
<path d="M303.824 77.1782L266.502 155.049L260.145 152.002L297.467 74.1315L303.824 77.1782Z" fill="white"/>
</svg>
