<svg xmlns="http://www.w3.org/2000/svg" xmlns:v="https://svgstorm.com"
viewBox = "0 0 300 288"
width="300"
height="288">
<g fill="None" fill-opacity="0.0" stroke="#000000" stroke-opacity="0.00" stroke-width="0.3"><path d="
M 0.00 288.00 
L 300.00 288.00
L 300.00 0.00
L 0.00 0.00
L 0.00 288.00
M 180.00 4.00 
C 182.27 4.45 184.15 5.37 186.00 6.00
C 223.60 18.70 255.88 39.42 275.77 75.23 C 295.67 111.03 299.96 165.30 281.22 203.22 C 262.49 241.15 237.37 264.85 197.78 279.78 C 158.19 294.71 107.68 287.77 72.30 264.70 C 36.93 241.62 18.15 207.16 9.00 168.00
C 8.67 166.58 8.08 164.99 8.00 163.00
C 6.39 122.56 14.24 84.24 39.25 54.25 C 64.26 24.26 92.10 11.84 128.00 3.00
C 129.12 2.72 130.34 2.10 132.00 2.00
C 147.73 1.09 165.06 1.01 180.00 4.00 Z"/>
</g>
<g fill="None" fill-opacity="0.0" stroke="#3DBCE3" stroke-opacity="0.31" stroke-width="0.3"><path d="
M 128.00 3.00 
C 128.57 2.97 128.56 3.19 130.04 3.96 C 131.51 4.74 131.86 2.03 132.00 2.00
C 130.34 2.10 129.12 2.72 128.00 3.00 Z"/>
</g>
<g fill="None" fill-opacity="0.0" stroke="#33C6F5" stroke-opacity="0.98" stroke-width="0.3"><path d="
M 128.00 3.00 
C 92.10 11.84 64.26 24.26 39.25 54.25 C 14.24 84.24 6.39 122.56 8.00 163.00
C 8.16 164.10 8.92 167.34 9.00 168.00
C 18.15 207.16 36.93 241.62 72.30 264.70 C 107.68 287.77 158.19 294.71 197.78 279.78 C 237.37 264.85 262.49 241.15 281.22 203.22 C 299.96 165.30 295.67 111.03 275.77 75.23 C 255.88 39.42 223.60 18.70 186.00 6.00
C 183.28 5.56 180.61 4.23 180.00 4.00
C 165.06 1.01 147.73 1.09 132.00 2.00
C 131.86 2.03 131.51 4.74 130.04 3.96 C 128.56 3.19 128.57 2.97 128.00 3.00
M 111.00 53.00 
C 109.92 54.48 107.08 54.47 106.00 53.00
C 99.13 52.57 101.24 41.67 108.03 41.03 C 114.81 40.38 118.70 52.52 111.00 53.00
M 204.00 49.00 
C 200.97 56.02 187.62 54.88 189.34 46.32 C 191.05 37.76 204.75 40.50 204.00 49.00
M 90.00 63.00 
C 89.10 66.94 84.69 67.41 84.00 71.00
C 87.74 72.57 91.72 74.83 93.00 79.00
C 95.82 84.52 95.14 87.23 92.00 92.00
C 90.72 95.85 88.68 97.50 85.00 99.00
C 76.07 104.58 64.66 103.51 54.00 102.00
C 54.00 82.67 54.00 63.33 54.00 44.00
C 68.50 42.87 93.63 41.73 90.00 63.00
M 139.00 60.00 
C 143.30 59.61 147.69 60.29 152.00 60.00
C 151.89 61.00 152.47 62.73 151.00 63.00
C 150.62 64.00 150.13 64.52 150.00 66.00
C 149.57 70.84 144.30 70.48 139.00 70.00
C 139.00 75.70 136.68 88.34 140.00 93.00
C 143.08 96.08 145.94 93.71 150.00 94.00
C 156.54 106.27 128.46 105.79 128.00 94.00
C 127.04 90.97 127.63 86.34 127.00 83.00 C 126.37 79.66 128.84 72.63 127.00 70.00
C 125.29 68.29 122.39 69.24 120.00 69.00
C 116.29 57.82 132.86 63.49 128.00 51.00
C 130.67 50.40 133.29 49.59 136.00 49.00
C 136.30 48.99 138.02 47.10 139.00 48.00
C 139.00 52.00 139.00 56.00 139.00 60.00
M 182.00 60.00 
C 183.26 60.44 184.63 60.78 186.00 61.00
C 185.56 64.19 184.25 69.12 181.00 70.00
C 176.91 69.91 173.57 70.36 170.00 72.00
C 167.95 83.76 177.40 108.53 157.00 103.00
C 157.00 88.67 157.00 74.33 157.00 60.00
C 161.19 60.70 168.89 57.61 169.00 64.00
C 172.77 61.94 177.88 57.06 182.00 60.00
M 201.00 102.00 
C 197.69 102.30 194.31 101.78 191.00 102.00
C 191.00 88.33 191.00 74.67 191.00 61.00
C 192.17 58.13 203.82 59.28 203.00 65.00 C 202.17 70.73 202.64 80.46 203.00 85.00 C 203.36 89.54 202.18 103.22 201.00 102.00
M 245.00 67.00 
C 244.76 67.32 245.00 68.00 245.00 68.00
C 243.32 72.67 237.51 75.90 236.00 80.00
C 236.07 80.95 236.07 82.05 236.00 83.00
C 239.10 90.00 248.80 95.25 251.00 103.00
C 244.36 103.22 237.11 104.19 234.23 96.77 C 231.35 89.35 226.03 91.91 222.00 97.00
C 221.80 97.40 222.00 98.00 222.00 98.00
C 219.55 104.80 213.06 102.86 207.00 103.00
C 206.95 100.78 209.29 99.01 211.00 98.00
C 214.19 93.27 223.97 85.63 221.67 79.33 C 219.37 73.03 210.32 68.04 209.00 61.00
C 219.20 57.88 223.50 67.14 228.00 74.00
C 232.31 72.41 234.55 66.83 237.00 63.00
C 240.07 59.07 244.35 59.76 250.00 60.00
C 249.39 62.65 247.81 66.49 245.00 67.00
M 114.00 61.00 
C 114.00 75.00 114.00 89.00 114.00 103.00
C 110.33 103.00 106.67 103.00 103.00 103.00
C 103.00 89.00 103.00 75.00 103.00 61.00
C 106.67 61.00 110.33 61.00 114.00 61.00
M 256.00 119.00 
C 282.57 122.80 295.65 156.33 279.25 177.25 C 262.84 198.16 229.95 196.46 217.70 171.31 C 205.44 146.15 226.76 114.82 256.00 119.00
M 79.00 220.00 
C 95.33 220.00 111.67 220.00 128.00 220.00
C 128.00 226.33 128.00 232.67 128.00 239.00
C 102.00 239.00 76.00 239.00 50.00 239.00
C 50.95 227.28 55.12 211.82 62.77 202.77 C 70.42 193.73 79.98 186.00 89.08 180.08 C 98.19 174.16 111.59 159.66 99.25 150.75 C 86.90 141.85 70.71 151.36 59.00 155.00
C 57.50 149.28 54.92 143.89 54.00 138.00
C 76.25 124.12 124.70 123.53 127.00 157.00 C 129.29 190.47 86.76 192.40 79.00 220.00
M 196.00 130.00 
C 196.00 151.67 196.00 173.33 196.00 195.00
C 201.33 195.00 206.67 195.00 212.00 195.00
C 212.00 201.00 212.00 207.00 212.00 213.00
C 206.67 213.00 201.33 213.00 196.00 213.00
C 196.00 221.67 196.00 230.33 196.00 239.00
C 189.00 239.00 182.00 239.00 175.00 239.00
C 175.00 230.33 175.00 221.67 175.00 213.00
C 160.51 213.86 149.87 211.85 135.00 213.00 C 120.13 214.15 126.16 196.55 133.25 189.25 C 140.34 181.95 145.10 174.27 151.30 166.30 C 157.50 158.33 162.93 152.69 169.25 144.25 C 175.57 135.81 182.48 125.03 196.00 130.00 Z"/>
</g>
<g fill="None" fill-opacity="0.0" stroke="#25B8F0" stroke-opacity="0.39" stroke-width="0.3"><path d="
M 186.00 6.00 
C 184.15 5.37 182.27 4.45 180.00 4.00
C 180.61 4.23 183.28 5.56 186.00 6.00 Z"/>
</g>
<g fill="None" fill-opacity="0.0" stroke="#D3FDFE" stroke-opacity="0.91" stroke-width="0.3"><path d="
M 106.00 53.00 
C 106.50 53.03 107.00 53.00 107.00 53.00
C 105.37 49.09 99.84 43.76 108.01 43.01 C 116.18 42.26 113.40 50.02 110.00 53.00
C 110.50 53.00 111.00 53.00 111.00 53.00
C 118.70 52.52 114.81 40.38 108.03 41.03 C 101.24 41.67 99.13 52.57 106.00 53.00 Z"/>
</g>
<g fill="None" fill-opacity="0.0" stroke="#E8FEFE" stroke-opacity="0.95" stroke-width="0.3"><path d="
M 204.00 49.00 
C 204.75 40.50 191.05 37.76 189.34 46.32 C 187.62 54.88 200.97 56.02 204.00 49.00 Z"/>
</g>
<g fill="None" fill-opacity="0.0" stroke="#FAFEFE" stroke-opacity="1.00" stroke-width="0.3"><path d="
M 107.00 53.00 
C 108.00 53.00 109.00 53.00 110.00 53.00
C 113.40 50.02 116.18 42.26 108.01 43.01 C 99.84 43.76 105.37 49.09 107.00 53.00 Z"/>
</g>
<g fill="None" fill-opacity="0.0" stroke="#D2FDFE" stroke-opacity="0.91" stroke-width="0.3"><path d="
M 85.00 99.00 
C 73.72 103.59 52.11 104.96 55.00 89.00 C 57.89 73.04 52.83 60.64 55.00 45.00
C 69.63 43.25 90.81 44.20 90.00 63.00
C 93.63 41.73 68.50 42.87 54.00 44.00
C 54.00 63.33 54.00 82.67 54.00 102.00
C 64.66 103.51 76.07 104.58 85.00 99.00 Z"/>
</g>
<g fill="None" fill-opacity="0.0" stroke="#F9FEFE" stroke-opacity="0.99" stroke-width="0.3"><path d="
M 85.00 99.00 
C 88.68 97.50 90.72 95.85 92.00 92.00
C 93.18 88.47 93.88 82.86 93.00 79.00
C 91.72 74.83 87.74 72.57 84.00 71.00
C 84.69 67.41 89.10 66.94 90.00 63.00
C 90.81 44.20 69.63 43.25 55.00 45.00
C 52.83 60.64 57.89 73.04 55.00 89.00 C 52.11 104.96 73.72 103.59 85.00 99.00
M 73.00 52.00 
C 79.94 54.11 81.36 63.04 74.00 66.00
C 71.75 66.90 65.21 68.74 65.00 65.00
C 64.71 61.83 63.90 54.10 66.00 52.00
C 68.07 49.93 70.99 51.39 73.00 52.00
M 76.00 77.00 
C 86.07 80.18 84.14 91.58 74.00 93.00
C 71.65 93.33 67.56 93.56 66.00 92.00
C 63.80 89.80 64.71 81.26 65.00 78.00
C 65.23 73.98 73.98 76.36 76.00 77.00 Z"/>
</g>
<g fill="None" fill-opacity="0.0" stroke="#B7FEFF" stroke-opacity="0.61" stroke-width="0.3"><path d="
M 136.00 49.00 
C 140.58 50.80 135.79 57.92 139.00 61.00
C 138.96 61.00 139.00 60.00 139.00 60.00
C 139.00 56.00 139.00 52.00 139.00 48.00
C 138.02 47.10 136.30 48.99 136.00 49.00 Z"/>
</g>
<g fill="None" fill-opacity="0.0" stroke="#F3FEFE" stroke-opacity="0.99" stroke-width="0.3"><path d="
M 127.00 70.00 
C 131.05 74.05 126.97 88.27 128.00 94.00
C 128.46 105.79 156.54 106.27 150.00 94.00
C 145.94 93.71 143.08 96.08 140.00 93.00
C 137.07 90.07 135.96 71.92 139.00 69.00
C 142.31 68.70 145.69 69.22 149.00 69.00
C 149.11 68.00 148.53 66.27 150.00 66.00
C 150.13 64.52 150.62 64.00 151.00 63.00
C 149.73 59.32 142.67 61.33 139.00 61.00
C 135.79 57.92 140.58 50.80 136.00 49.00
C 133.29 49.59 130.67 50.40 128.00 51.00
C 132.86 63.49 116.29 57.82 120.00 69.00
C 122.39 69.24 125.29 68.29 127.00 70.00 Z"/>
</g>
<g fill="None" fill-opacity="0.0" stroke="#79B5C3" stroke-opacity="0.41" stroke-width="0.3"><path d="
M 66.00 52.00 
C 68.29 52.27 70.72 51.65 73.00 52.00
C 70.99 51.39 68.07 49.93 66.00 52.00 Z"/>
</g>
<g fill="None" fill-opacity="0.0" stroke="#74BECF" stroke-opacity="0.63" stroke-width="0.3"><path d="
M 65.00 65.00 
C 65.00 65.04 66.00 65.00 66.00 65.00
C 66.39 60.70 65.71 56.31 66.00 52.00
C 63.90 54.10 64.71 61.83 65.00 65.00 Z"/>
</g>
<g fill="None" fill-opacity="0.0" stroke="#48C6ED" stroke-opacity="0.95" stroke-width="0.3"><path d="
M 66.00 65.00 
C 67.61 66.19 72.84 66.36 74.00 66.00
C 81.36 63.04 79.94 54.11 73.00 52.00
C 70.72 51.65 68.29 52.27 66.00 52.00
C 65.71 56.31 66.39 60.70 66.00 65.00 Z"/>
</g>
<g fill="None" fill-opacity="0.0" stroke="#C5FCFF" stroke-opacity="0.73" stroke-width="0.3"><path d="
M 111.00 53.00 
C 111.00 53.00 110.50 53.00 110.00 53.00
C 109.00 53.00 108.00 53.00 107.00 53.00
C 107.00 53.00 106.50 53.03 106.00 53.00
C 107.08 54.47 109.92 54.48 111.00 53.00 Z"/>
</g>
<g fill="None" fill-opacity="0.0" stroke="#98E5F1" stroke-opacity="0.70" stroke-width="0.3"><path d="
M 181.00 70.00 
C 180.99 70.00 181.00 69.00 181.00 69.00
C 176.60 68.60 171.23 68.60 169.00 73.00
C 166.13 81.72 171.15 93.04 169.00 102.00
C 165.33 102.00 161.67 102.00 158.00 102.00
C 158.00 88.33 158.00 74.67 158.00 61.00
C 160.67 61.24 169.60 59.66 167.00 64.00
C 170.80 65.72 172.39 62.57 177.00 61.00
C 178.50 60.49 179.88 59.68 182.00 60.00
C 177.88 57.06 172.77 61.94 169.00 64.00
C 168.89 57.61 161.19 60.70 157.00 60.00
C 157.00 74.33 157.00 88.67 157.00 103.00
C 177.40 108.53 167.95 83.76 170.00 72.00
C 173.57 70.36 176.91 69.91 181.00 70.00 Z"/>
</g>
<g fill="None" fill-opacity="0.0" stroke="#69B9CC" stroke-opacity="0.58" stroke-width="0.3"><path d="
M 139.00 61.00 
C 142.67 61.33 149.73 59.32 151.00 63.00
C 152.47 62.73 151.89 61.00 152.00 60.00
C 147.69 60.29 143.30 59.61 139.00 60.00
C 139.00 60.00 138.96 61.00 139.00 61.00 Z"/>
</g>
<g fill="None" fill-opacity="0.0" stroke="#D6FEFF" stroke-opacity="0.93" stroke-width="0.3"><path d="
M 177.00 61.00 
C 179.28 60.64 181.71 61.27 184.00 61.00
C 184.67 64.20 182.59 66.60 181.00 69.00
C 181.00 69.00 180.99 70.00 181.00 70.00
C 184.25 69.12 185.56 64.19 186.00 61.00
C 184.63 60.78 183.26 60.44 182.00 60.00
C 179.88 59.68 178.50 60.49 177.00 61.00 Z"/>
</g>
<g fill="None" fill-opacity="0.0" stroke="#88D5EC" stroke-opacity="0.57" stroke-width="0.3"><path d="
M 191.00 61.00 
C 194.86 62.26 199.06 58.99 201.00 63.00
C 203.40 67.96 200.10 76.38 201.00 82.00 C 201.90 87.62 201.00 95.20 201.00 101.00
C 201.00 101.50 201.00 102.00 201.00 102.00
C 202.18 103.22 203.36 89.54 203.00 85.00 C 202.64 80.46 202.17 70.73 203.00 65.00 C 203.82 59.28 192.17 58.13 191.00 61.00 Z"/>
</g>
<g fill="None" fill-opacity="0.0" stroke="#9DE6F6" stroke-opacity="0.75" stroke-width="0.3"><path d="
M 237.00 63.00 
C 240.35 59.99 244.75 61.20 249.00 61.00
C 248.32 63.42 246.19 64.92 245.00 67.00
C 247.81 66.49 249.39 62.65 250.00 60.00
C 244.35 59.76 240.07 59.07 237.00 63.00 Z"/>
</g>
<g fill="None" fill-opacity="0.0" stroke="#CDFEFF" stroke-opacity="0.96" stroke-width="0.3"><path d="
M 114.00 61.00 
C 110.33 61.00 106.67 61.00 103.00 61.00
C 103.00 75.00 103.00 89.00 103.00 103.00
C 106.67 103.00 110.33 103.00 114.00 103.00
C 114.00 89.00 114.00 75.00 114.00 61.00
M 113.00 62.00 
C 113.00 75.00 113.00 88.00 113.00 101.00
C 110.00 101.00 107.00 101.00 104.00 101.00
C 103.89 93.30 104.14 84.60 104.00 77.00 C 103.86 69.40 101.88 58.90 113.00 62.00 Z"/>
</g>
<g fill="None" fill-opacity="0.0" stroke="#DAFFFF" stroke-opacity="0.96" stroke-width="0.3"><path d="
M 169.00 73.00 
C 165.14 80.64 169.81 92.41 168.00 101.00
C 165.00 101.00 162.00 101.00 159.00 101.00
C 159.00 88.00 159.00 75.00 159.00 62.00
C 161.48 62.74 166.82 60.19 167.00 64.00
C 169.60 59.66 160.67 61.24 158.00 61.00
C 158.00 74.67 158.00 88.33 158.00 102.00
C 161.67 102.00 165.33 102.00 169.00 102.00
C 171.15 93.04 166.13 81.72 169.00 73.00 Z"/>
</g>
<g fill="None" fill-opacity="0.0" stroke="#FAFEFE" stroke-opacity="1.00" stroke-width="0.3"><path d="
M 167.00 64.00 
C 166.82 60.19 161.48 62.74 159.00 62.00
C 159.00 75.00 159.00 88.00 159.00 101.00
C 162.00 101.00 165.00 101.00 168.00 101.00
C 169.81 92.41 165.14 80.64 169.00 73.00
C 171.23 68.60 176.60 68.60 181.00 69.00
C 182.59 66.60 184.67 64.20 184.00 61.00
C 181.71 61.27 179.28 60.64 177.00 61.00
C 172.39 62.57 170.80 65.72 167.00 64.00 Z"/>
</g>
<g fill="None" fill-opacity="0.0" stroke="#DCFFFF" stroke-opacity="0.96" stroke-width="0.3"><path d="
M 201.00 102.00 
C 201.00 102.00 201.00 101.50 201.00 101.00
C 198.02 100.73 194.98 101.20 192.00 101.00
C 191.77 93.45 192.31 84.40 192.00 77.00 C 191.69 69.60 190.31 57.79 201.00 63.00
C 199.06 58.99 194.86 62.26 191.00 61.00
C 191.00 74.67 191.00 88.33 191.00 102.00
C 194.31 101.78 197.69 102.30 201.00 102.00 Z"/>
</g>
<g fill="None" fill-opacity="0.0" stroke="#F4FEFE" stroke-opacity="0.99" stroke-width="0.3"><path d="
M 211.00 98.00 
C 210.06 99.39 208.74 100.54 208.00 102.00
C 211.67 102.00 215.33 102.00 219.00 102.00
C 219.99 100.67 220.05 98.43 222.00 98.00
C 222.00 98.00 221.80 97.40 222.00 97.00
C 223.54 93.86 227.00 90.11 230.00 89.00
C 234.27 96.66 239.57 105.09 250.00 102.00
C 245.71 95.71 237.92 88.95 236.00 83.00
C 236.07 82.05 236.07 80.95 236.00 80.00
C 235.79 77.22 242.41 70.48 245.00 68.00
C 245.00 68.00 244.76 67.32 245.00 67.00
C 246.19 64.92 248.32 63.42 249.00 61.00
C 244.75 61.20 240.35 59.99 237.00 63.00
C 234.55 66.83 232.31 72.41 228.00 74.00
C 223.50 67.14 219.20 57.88 209.00 61.00
C 210.32 68.04 219.37 73.03 221.67 79.33 C 223.97 85.63 214.19 93.27 211.00 98.00 Z"/>
</g>
<g fill="None" fill-opacity="0.0" stroke="#FAFEFF" stroke-opacity="1.00" stroke-width="0.3"><path d="
M 113.00 62.00 
C 101.88 58.90 103.86 69.40 104.00 77.00 C 104.14 84.60 103.89 93.30 104.00 101.00
C 107.00 101.00 110.00 101.00 113.00 101.00
C 113.00 88.00 113.00 75.00 113.00 62.00 Z"/>
</g>
<g fill="None" fill-opacity="0.0" stroke="#FAFFFE" stroke-opacity="0.99" stroke-width="0.3"><path d="
M 201.00 101.00 
C 201.00 95.20 201.90 87.62 201.00 82.00 C 200.10 76.38 203.40 67.96 201.00 63.00
C 190.31 57.79 191.69 69.60 192.00 77.00 C 192.31 84.40 191.77 93.45 192.00 101.00
C 194.98 101.20 198.02 100.73 201.00 101.00 Z"/>
</g>
<g fill="None" fill-opacity="0.0" stroke="#C1F2F9" stroke-opacity="0.55" stroke-width="0.3"><path d="
M 74.00 66.00 
C 72.84 66.36 67.61 66.19 66.00 65.00
C 66.00 65.00 65.00 65.04 65.00 65.00
C 65.21 68.74 71.75 66.90 74.00 66.00 Z"/>
</g>
<g fill="None" fill-opacity="0.0" stroke="#7BC9DC" stroke-opacity="0.58" stroke-width="0.3"><path d="
M 139.00 69.00 
C 138.96 69.00 139.00 70.00 139.00 70.00
C 144.30 70.48 149.57 70.84 150.00 66.00
C 148.53 66.27 149.11 68.00 149.00 69.00
C 145.69 69.22 142.31 68.70 139.00 69.00 Z"/>
</g>
<g fill="None" fill-opacity="0.0" stroke="#9EE5F2" stroke-opacity="0.78" stroke-width="0.3"><path d="
M 236.00 80.00 
C 237.51 75.90 243.32 72.67 245.00 68.00
C 242.41 70.48 235.79 77.22 236.00 80.00 Z"/>
</g>
<g fill="None" fill-opacity="0.0" stroke="#B2FBFC" stroke-opacity="0.58" stroke-width="0.3"><path d="
M 140.00 93.00 
C 136.68 88.34 139.00 75.70 139.00 70.00
C 139.00 70.00 138.96 69.00 139.00 69.00
C 135.96 71.92 137.07 90.07 140.00 93.00 Z"/>
</g>
<g fill="None" fill-opacity="0.0" stroke="#63CBEB" stroke-opacity="0.38" stroke-width="0.3"><path d="
M 128.00 94.00 
C 126.97 88.27 131.05 74.05 127.00 70.00
C 128.84 72.63 126.37 79.66 127.00 83.00 C 127.63 86.34 127.04 90.97 128.00 94.00 Z"/>
</g>
<g fill="None" fill-opacity="0.0" stroke="#ABF4FB" stroke-opacity="0.51" stroke-width="0.3"><path d="
M 65.00 78.00 
C 65.00 77.96 66.00 78.00 66.00 78.00
C 68.04 76.49 73.21 76.50 76.00 77.00
C 73.98 76.36 65.23 73.98 65.00 78.00 Z"/>
</g>
<g fill="None" fill-opacity="0.0" stroke="#46C6EE" stroke-opacity="0.95" stroke-width="0.3"><path d="
M 66.00 78.00 
C 66.42 82.63 65.69 87.36 66.00 92.00
C 68.44 90.86 72.40 93.07 74.00 93.00
C 84.14 91.58 86.07 80.18 76.00 77.00
C 73.21 76.50 68.04 76.49 66.00 78.00 Z"/>
</g>
<g fill="None" fill-opacity="0.0" stroke="#79BFD1" stroke-opacity="0.63" stroke-width="0.3"><path d="
M 66.00 92.00 
C 65.69 87.36 66.42 82.63 66.00 78.00
C 66.00 78.00 65.00 77.96 65.00 78.00
C 64.71 81.26 63.80 89.80 66.00 92.00 Z"/>
</g>
<g fill="None" fill-opacity="0.0" stroke="#CDFBFE" stroke-opacity="0.90" stroke-width="0.3"><path d="
M 92.00 92.00 
C 95.14 87.23 95.82 84.52 93.00 79.00
C 93.88 82.86 93.18 88.47 92.00 92.00 Z"/>
</g>
<g fill="None" fill-opacity="0.0" stroke="#A2E9F4" stroke-opacity="0.78" stroke-width="0.3"><path d="
M 222.00 97.00 
C 226.03 91.91 231.35 89.35 234.23 96.77 C 237.11 104.19 244.36 103.22 251.00 103.00
C 248.80 95.25 239.10 90.00 236.00 83.00
C 237.92 88.95 245.71 95.71 250.00 102.00
C 239.57 105.09 234.27 96.66 230.00 89.00
C 227.00 90.11 223.54 93.86 222.00 97.00 Z"/>
</g>
<g fill="None" fill-opacity="0.0" stroke="#82B9C8" stroke-opacity="0.37" stroke-width="0.3"><path d="
M 74.00 93.00 
C 72.40 93.07 68.44 90.86 66.00 92.00
C 67.56 93.56 71.65 93.33 74.00 93.00 Z"/>
</g>
<g fill="None" fill-opacity="0.0" stroke="#A6F8FD" stroke-opacity="0.74" stroke-width="0.3"><path d="
M 222.00 98.00 
C 220.05 98.43 219.99 100.67 219.00 102.00
C 215.33 102.00 211.67 102.00 208.00 102.00
C 208.74 100.54 210.06 99.39 211.00 98.00
C 209.29 99.01 206.95 100.78 207.00 103.00
C 213.06 102.86 219.55 104.80 222.00 98.00 Z"/>
</g>
<g fill="None" fill-opacity="0.0" stroke="#0B669D" stroke-opacity="0.99" stroke-width="0.3"><path d="
M 256.00 119.00 
C 226.76 114.82 205.44 146.15 217.70 171.31 C 229.95 196.46 262.84 198.16 279.25 177.25 C 295.65 156.33 282.57 122.80 256.00 119.00
M 255.00 126.00 
C 265.31 126.70 275.38 134.90 278.00 145.00
C 281.83 154.64 280.32 165.50 274.00 174.00
C 272.52 176.00 270.95 177.55 269.00 179.00
C 266.38 180.94 263.89 181.82 261.00 183.00
C 259.87 183.66 259.59 183.83 258.00 184.00
C 250.86 185.80 246.87 185.57 240.00 183.00
C 219.74 178.21 215.75 152.40 226.00 137.00
C 227.58 134.63 229.75 132.61 232.00 131.00
C 236.39 127.87 240.57 126.29 246.00 126.00
C 249.17 125.48 251.87 125.44 255.00 126.00 Z"/>
</g>
<g fill="None" fill-opacity="0.0" stroke="#A5E7FD" stroke-opacity="0.69" stroke-width="0.3"><path d="
M 246.00 126.00 
C 248.92 125.84 252.08 125.80 255.00 126.00
C 251.87 125.44 249.17 125.48 246.00 126.00 Z"/>
</g>
<g fill="None" fill-opacity="0.0" stroke="#F9FDFE" stroke-opacity="0.99" stroke-width="0.3"><path d="
M 232.00 131.00 
C 230.35 132.39 227.27 135.37 226.00 137.00
C 215.75 152.40 219.74 178.21 240.00 183.00
C 246.38 184.51 251.45 184.71 258.00 184.00
C 259.59 183.83 259.87 183.66 261.00 183.00
C 275.10 174.76 282.36 161.82 278.00 145.00
C 275.38 134.90 265.31 126.70 255.00 126.00
C 252.08 125.80 248.92 125.84 246.00 126.00
C 240.57 126.29 236.39 127.87 232.00 131.00
M 255.00 151.00 
C 257.08 152.46 264.36 150.76 267.00 151.00
C 268.51 152.45 269.03 158.35 266.00 159.00
C 260.32 159.51 253.68 159.51 248.00 159.00
C 245.14 158.84 244.48 139.73 247.00 138.00
C 248.58 136.91 252.23 138.82 254.00 138.00
C 254.64 142.17 252.71 147.66 255.00 151.00 Z"/>
</g>
<g fill="None" fill-opacity="0.0" stroke="#0166A1" stroke-opacity="1.00" stroke-width="0.3"><path d="
M 79.00 220.00 
C 86.76 192.40 129.29 190.47 127.00 157.00 C 124.70 123.53 76.25 124.12 54.00 138.00
C 54.92 143.89 57.50 149.28 59.00 155.00
C 70.71 151.36 86.90 141.85 99.25 150.75 C 111.59 159.66 98.19 174.16 89.08 180.08 C 79.98 186.00 70.42 193.73 62.77 202.77 C 55.12 211.82 50.95 227.28 50.00 239.00
C 76.00 239.00 102.00 239.00 128.00 239.00
C 128.00 232.67 128.00 226.33 128.00 220.00
C 111.67 220.00 95.33 220.00 79.00 220.00 Z"/>
</g>
<g fill="None" fill-opacity="0.0" stroke="#0066A1" stroke-opacity="1.00" stroke-width="0.3"><path d="
M 196.00 130.00 
C 182.48 125.03 175.57 135.81 169.25 144.25 C 162.93 152.69 157.50 158.33 151.30 166.30 C 145.10 174.27 140.34 181.95 133.25 189.25 C 126.16 196.55 120.13 214.15 135.00 213.00 C 149.87 211.85 160.51 213.86 175.00 213.00
C 175.00 221.67 175.00 230.33 175.00 239.00
C 182.00 239.00 189.00 239.00 196.00 239.00
C 196.00 230.33 196.00 221.67 196.00 213.00
C 201.33 213.00 206.67 213.00 212.00 213.00
C 212.00 207.00 212.00 201.00 212.00 195.00
C 206.67 195.00 201.33 195.00 196.00 195.00
C 196.00 173.33 196.00 151.67 196.00 130.00
M 176.00 164.00 
C 173.83 173.86 175.55 184.73 175.00 195.00
C 166.78 194.51 158.98 195.52 151.00 196.00
C 157.87 185.15 166.55 172.54 176.00 164.00 Z"/>
</g>
<g fill="None" fill-opacity="0.0" stroke="#3C7596" stroke-opacity="0.80" stroke-width="0.3"><path d="
M 226.00 137.00 
C 227.27 135.37 230.35 132.39 232.00 131.00
C 229.75 132.61 227.58 134.63 226.00 137.00 Z"/>
</g>
<g fill="None" fill-opacity="0.0" stroke="#CBFAFE" stroke-opacity="0.76" stroke-width="0.3"><path d="
M 248.00 159.00 
C 247.96 159.00 248.00 158.00 248.00 158.00
C 244.44 153.19 248.59 143.80 247.00 138.00
C 244.48 139.73 245.14 158.84 248.00 159.00 Z"/>
</g>
<g fill="None" fill-opacity="0.0" stroke="#0C6093" stroke-opacity="0.99" stroke-width="0.3"><path d="
M 248.00 158.00 
C 253.67 157.48 260.33 157.49 266.00 158.00
C 267.25 156.54 267.23 154.11 267.00 152.00
C 263.98 152.27 257.01 153.01 255.00 151.00
C 252.71 147.66 254.64 142.17 254.00 138.00
C 252.23 138.82 248.58 136.91 247.00 138.00
C 248.59 143.80 244.44 153.19 248.00 158.00 Z"/>
</g>
<g fill="None" fill-opacity="0.0" stroke="#CDF4FB" stroke-opacity="0.78" stroke-width="0.3"><path d="
M 261.00 183.00 
C 263.89 181.82 266.38 180.94 269.00 179.00
C 270.45 177.74 272.78 175.40 274.00 174.00
C 280.32 165.50 281.83 154.64 278.00 145.00
C 282.36 161.82 275.10 174.76 261.00 183.00 Z"/>
</g>
<g fill="None" fill-opacity="0.0" stroke="#3C6E87" stroke-opacity="0.67" stroke-width="0.3"><path d="
M 267.00 152.00 
C 266.95 151.51 267.00 151.00 267.00 151.00
C 264.36 150.76 257.08 152.46 255.00 151.00
C 257.01 153.01 263.98 152.27 267.00 152.00 Z"/>
</g>
<g fill="None" fill-opacity="0.0" stroke="#CAF8FD" stroke-opacity="0.73" stroke-width="0.3"><path d="
M 267.00 152.00 
C 267.23 154.11 267.25 156.54 266.00 158.00
C 265.75 158.29 266.00 159.00 266.00 159.00
C 269.03 158.35 268.51 152.45 267.00 151.00
C 267.00 151.00 266.95 151.51 267.00 152.00 Z"/>
</g>
<g fill="None" fill-opacity="0.0" stroke="#7EA6BA" stroke-opacity="0.47" stroke-width="0.3"><path d="
M 248.00 159.00 
C 253.68 159.51 260.32 159.51 266.00 159.00
C 266.00 159.00 265.75 158.29 266.00 158.00
C 260.33 157.49 253.67 157.48 248.00 158.00
C 248.00 158.00 247.96 159.00 248.00 159.00 Z"/>
</g>
<g fill="None" fill-opacity="0.0" stroke="#34A5C2" stroke-opacity="0.10" stroke-width="0.3"><path d="
M 9.00 168.00 
C 8.92 167.34 8.16 164.10 8.00 163.00
C 8.08 164.99 8.67 166.58 9.00 168.00 Z"/>
</g>
<g fill="None" fill-opacity="0.0" stroke="#33C0F2" stroke-opacity="1.00" stroke-width="0.3"><path d="
M 176.00 164.00 
C 166.55 172.54 157.87 185.15 151.00 196.00
C 158.98 195.52 166.78 194.51 175.00 195.00
C 175.55 184.73 173.83 173.86 176.00 164.00 Z"/>
</g>
<g fill="None" fill-opacity="0.0" stroke="#679EBE" stroke-opacity="0.73" stroke-width="0.3"><path d="
M 269.00 179.00 
C 270.95 177.55 272.52 176.00 274.00 174.00
C 272.78 175.40 270.45 177.74 269.00 179.00 Z"/>
</g>
<g fill="None" fill-opacity="0.0" stroke="#B0DBEB" stroke-opacity="0.75" stroke-width="0.3"><path d="
M 258.00 184.00 
C 251.45 184.71 246.38 184.51 240.00 183.00
C 246.87 185.57 250.86 185.80 258.00 184.00 Z"/>
</g>
<g fill="#000000" fill-opacity="0.00" stroke="None">
<path d="
M 0.00 288.00 
L 300.00 288.00
L 300.00 0.00
L 0.00 0.00
L 0.00 288.00
M 180.00 4.00 
C 182.27 4.45 184.15 5.37 186.00 6.00
C 223.60 18.70 255.88 39.42 275.77 75.23 C 295.67 111.03 299.96 165.30 281.22 203.22 C 262.49 241.15 237.37 264.85 197.78 279.78 C 158.19 294.71 107.68 287.77 72.30 264.70 C 36.93 241.62 18.15 207.16 9.00 168.00
C 8.67 166.58 8.08 164.99 8.00 163.00
C 6.39 122.56 14.24 84.24 39.25 54.25 C 64.26 24.26 92.10 11.84 128.00 3.00
C 129.12 2.72 130.34 2.10 132.00 2.00
C 147.73 1.09 165.06 1.01 180.00 4.00 Z"/>
</g>
<g fill="#3DBCE3" fill-opacity="0.31" stroke="None">
<path d="
M 128.00 3.00 
C 128.57 2.97 128.56 3.19 130.04 3.96 C 131.51 4.74 131.86 2.03 132.00 2.00
C 130.34 2.10 129.12 2.72 128.00 3.00 Z"/>
</g>
<g fill="#33C6F5" fill-opacity="0.98" stroke="None">
<path d="
M 128.00 3.00 
C 92.10 11.84 64.26 24.26 39.25 54.25 C 14.24 84.24 6.39 122.56 8.00 163.00
C 8.16 164.10 8.92 167.34 9.00 168.00
C 18.15 207.16 36.93 241.62 72.30 264.70 C 107.68 287.77 158.19 294.71 197.78 279.78 C 237.37 264.85 262.49 241.15 281.22 203.22 C 299.96 165.30 295.67 111.03 275.77 75.23 C 255.88 39.42 223.60 18.70 186.00 6.00
C 183.28 5.56 180.61 4.23 180.00 4.00
C 165.06 1.01 147.73 1.09 132.00 2.00
C 131.86 2.03 131.51 4.74 130.04 3.96 C 128.56 3.19 128.57 2.97 128.00 3.00
M 111.00 53.00 
C 109.92 54.48 107.08 54.47 106.00 53.00
C 99.13 52.57 101.24 41.67 108.03 41.03 C 114.81 40.38 118.70 52.52 111.00 53.00
M 204.00 49.00 
C 200.97 56.02 187.62 54.88 189.34 46.32 C 191.05 37.76 204.75 40.50 204.00 49.00
M 90.00 63.00 
C 89.10 66.94 84.69 67.41 84.00 71.00
C 87.74 72.57 91.72 74.83 93.00 79.00
C 95.82 84.52 95.14 87.23 92.00 92.00
C 90.72 95.85 88.68 97.50 85.00 99.00
C 76.07 104.58 64.66 103.51 54.00 102.00
C 54.00 82.67 54.00 63.33 54.00 44.00
C 68.50 42.87 93.63 41.73 90.00 63.00
M 139.00 60.00 
C 143.30 59.61 147.69 60.29 152.00 60.00
C 151.89 61.00 152.47 62.73 151.00 63.00
C 150.62 64.00 150.13 64.52 150.00 66.00
C 149.57 70.84 144.30 70.48 139.00 70.00
C 139.00 75.70 136.68 88.34 140.00 93.00
C 143.08 96.08 145.94 93.71 150.00 94.00
C 156.54 106.27 128.46 105.79 128.00 94.00
C 127.04 90.97 127.63 86.34 127.00 83.00 C 126.37 79.66 128.84 72.63 127.00 70.00
C 125.29 68.29 122.39 69.24 120.00 69.00
C 116.29 57.82 132.86 63.49 128.00 51.00
C 130.67 50.40 133.29 49.59 136.00 49.00
C 136.30 48.99 138.02 47.10 139.00 48.00
C 139.00 52.00 139.00 56.00 139.00 60.00
M 182.00 60.00 
C 183.26 60.44 184.63 60.78 186.00 61.00
C 185.56 64.19 184.25 69.12 181.00 70.00
C 176.91 69.91 173.57 70.36 170.00 72.00
C 167.95 83.76 177.40 108.53 157.00 103.00
C 157.00 88.67 157.00 74.33 157.00 60.00
C 161.19 60.70 168.89 57.61 169.00 64.00
C 172.77 61.94 177.88 57.06 182.00 60.00
M 201.00 102.00 
C 197.69 102.30 194.31 101.78 191.00 102.00
C 191.00 88.33 191.00 74.67 191.00 61.00
C 192.17 58.13 203.82 59.28 203.00 65.00 C 202.17 70.73 202.64 80.46 203.00 85.00 C 203.36 89.54 202.18 103.22 201.00 102.00
M 245.00 67.00 
C 244.76 67.32 245.00 68.00 245.00 68.00
C 243.32 72.67 237.51 75.90 236.00 80.00
C 236.07 80.95 236.07 82.05 236.00 83.00
C 239.10 90.00 248.80 95.25 251.00 103.00
C 244.36 103.22 237.11 104.19 234.23 96.77 C 231.35 89.35 226.03 91.91 222.00 97.00
C 221.80 97.40 222.00 98.00 222.00 98.00
C 219.55 104.80 213.06 102.86 207.00 103.00
C 206.95 100.78 209.29 99.01 211.00 98.00
C 214.19 93.27 223.97 85.63 221.67 79.33 C 219.37 73.03 210.32 68.04 209.00 61.00
C 219.20 57.88 223.50 67.14 228.00 74.00
C 232.31 72.41 234.55 66.83 237.00 63.00
C 240.07 59.07 244.35 59.76 250.00 60.00
C 249.39 62.65 247.81 66.49 245.00 67.00
M 114.00 61.00 
C 114.00 75.00 114.00 89.00 114.00 103.00
C 110.33 103.00 106.67 103.00 103.00 103.00
C 103.00 89.00 103.00 75.00 103.00 61.00
C 106.67 61.00 110.33 61.00 114.00 61.00
M 256.00 119.00 
C 282.57 122.80 295.65 156.33 279.25 177.25 C 262.84 198.16 229.95 196.46 217.70 171.31 C 205.44 146.15 226.76 114.82 256.00 119.00
M 79.00 220.00 
C 95.33 220.00 111.67 220.00 128.00 220.00
C 128.00 226.33 128.00 232.67 128.00 239.00
C 102.00 239.00 76.00 239.00 50.00 239.00
C 50.95 227.28 55.12 211.82 62.77 202.77 C 70.42 193.73 79.98 186.00 89.08 180.08 C 98.19 174.16 111.59 159.66 99.25 150.75 C 86.90 141.85 70.71 151.36 59.00 155.00
C 57.50 149.28 54.92 143.89 54.00 138.00
C 76.25 124.12 124.70 123.53 127.00 157.00 C 129.29 190.47 86.76 192.40 79.00 220.00
M 196.00 130.00 
C 196.00 151.67 196.00 173.33 196.00 195.00
C 201.33 195.00 206.67 195.00 212.00 195.00
C 212.00 201.00 212.00 207.00 212.00 213.00
C 206.67 213.00 201.33 213.00 196.00 213.00
C 196.00 221.67 196.00 230.33 196.00 239.00
C 189.00 239.00 182.00 239.00 175.00 239.00
C 175.00 230.33 175.00 221.67 175.00 213.00
C 160.51 213.86 149.87 211.85 135.00 213.00 C 120.13 214.15 126.16 196.55 133.25 189.25 C 140.34 181.95 145.10 174.27 151.30 166.30 C 157.50 158.33 162.93 152.69 169.25 144.25 C 175.57 135.81 182.48 125.03 196.00 130.00 Z"/>
</g>
<g fill="#25B8F0" fill-opacity="0.39" stroke="None">
<path d="
M 186.00 6.00 
C 184.15 5.37 182.27 4.45 180.00 4.00
C 180.61 4.23 183.28 5.56 186.00 6.00 Z"/>
</g>
<g fill="#D3FDFE" fill-opacity="0.91" stroke="None">
<path d="
M 106.00 53.00 
C 106.50 53.03 107.00 53.00 107.00 53.00
C 105.37 49.09 99.84 43.76 108.01 43.01 C 116.18 42.26 113.40 50.02 110.00 53.00
C 110.50 53.00 111.00 53.00 111.00 53.00
C 118.70 52.52 114.81 40.38 108.03 41.03 C 101.24 41.67 99.13 52.57 106.00 53.00 Z"/>
</g>
<g fill="#E8FEFE" fill-opacity="0.95" stroke="None">
<path d="
M 204.00 49.00 
C 204.75 40.50 191.05 37.76 189.34 46.32 C 187.62 54.88 200.97 56.02 204.00 49.00 Z"/>
</g>
<g fill="#FAFEFE" fill-opacity="1.00" stroke="None">
<path d="
M 107.00 53.00 
C 108.00 53.00 109.00 53.00 110.00 53.00
C 113.40 50.02 116.18 42.26 108.01 43.01 C 99.84 43.76 105.37 49.09 107.00 53.00 Z"/>
</g>
<g fill="#D2FDFE" fill-opacity="0.91" stroke="None">
<path d="
M 85.00 99.00 
C 73.72 103.59 52.11 104.96 55.00 89.00 C 57.89 73.04 52.83 60.64 55.00 45.00
C 69.63 43.25 90.81 44.20 90.00 63.00
C 93.63 41.73 68.50 42.87 54.00 44.00
C 54.00 63.33 54.00 82.67 54.00 102.00
C 64.66 103.51 76.07 104.58 85.00 99.00 Z"/>
</g>
<g fill="#F9FEFE" fill-opacity="0.99" stroke="None">
<path d="
M 85.00 99.00 
C 88.68 97.50 90.72 95.85 92.00 92.00
C 93.18 88.47 93.88 82.86 93.00 79.00
C 91.72 74.83 87.74 72.57 84.00 71.00
C 84.69 67.41 89.10 66.94 90.00 63.00
C 90.81 44.20 69.63 43.25 55.00 45.00
C 52.83 60.64 57.89 73.04 55.00 89.00 C 52.11 104.96 73.72 103.59 85.00 99.00
M 73.00 52.00 
C 79.94 54.11 81.36 63.04 74.00 66.00
C 71.75 66.90 65.21 68.74 65.00 65.00
C 64.71 61.83 63.90 54.10 66.00 52.00
C 68.07 49.93 70.99 51.39 73.00 52.00
M 76.00 77.00 
C 86.07 80.18 84.14 91.58 74.00 93.00
C 71.65 93.33 67.56 93.56 66.00 92.00
C 63.80 89.80 64.71 81.26 65.00 78.00
C 65.23 73.98 73.98 76.36 76.00 77.00 Z"/>
</g>
<g fill="#B7FEFF" fill-opacity="0.61" stroke="None">
<path d="
M 136.00 49.00 
C 140.58 50.80 135.79 57.92 139.00 61.00
C 138.96 61.00 139.00 60.00 139.00 60.00
C 139.00 56.00 139.00 52.00 139.00 48.00
C 138.02 47.10 136.30 48.99 136.00 49.00 Z"/>
</g>
<g fill="#F3FEFE" fill-opacity="0.99" stroke="None">
<path d="
M 127.00 70.00 
C 131.05 74.05 126.97 88.27 128.00 94.00
C 128.46 105.79 156.54 106.27 150.00 94.00
C 145.94 93.71 143.08 96.08 140.00 93.00
C 137.07 90.07 135.96 71.92 139.00 69.00
C 142.31 68.70 145.69 69.22 149.00 69.00
C 149.11 68.00 148.53 66.27 150.00 66.00
C 150.13 64.52 150.62 64.00 151.00 63.00
C 149.73 59.32 142.67 61.33 139.00 61.00
C 135.79 57.92 140.58 50.80 136.00 49.00
C 133.29 49.59 130.67 50.40 128.00 51.00
C 132.86 63.49 116.29 57.82 120.00 69.00
C 122.39 69.24 125.29 68.29 127.00 70.00 Z"/>
</g>
<g fill="#79B5C3" fill-opacity="0.41" stroke="None">
<path d="
M 66.00 52.00 
C 68.29 52.27 70.72 51.65 73.00 52.00
C 70.99 51.39 68.07 49.93 66.00 52.00 Z"/>
</g>
<g fill="#74BECF" fill-opacity="0.63" stroke="None">
<path d="
M 65.00 65.00 
C 65.00 65.04 66.00 65.00 66.00 65.00
C 66.39 60.70 65.71 56.31 66.00 52.00
C 63.90 54.10 64.71 61.83 65.00 65.00 Z"/>
</g>
<g fill="#48C6ED" fill-opacity="0.95" stroke="None">
<path d="
M 66.00 65.00 
C 67.61 66.19 72.84 66.36 74.00 66.00
C 81.36 63.04 79.94 54.11 73.00 52.00
C 70.72 51.65 68.29 52.27 66.00 52.00
C 65.71 56.31 66.39 60.70 66.00 65.00 Z"/>
</g>
<g fill="#C5FCFF" fill-opacity="0.73" stroke="None">
<path d="
M 111.00 53.00 
C 111.00 53.00 110.50 53.00 110.00 53.00
C 109.00 53.00 108.00 53.00 107.00 53.00
C 107.00 53.00 106.50 53.03 106.00 53.00
C 107.08 54.47 109.92 54.48 111.00 53.00 Z"/>
</g>
<g fill="#98E5F1" fill-opacity="0.70" stroke="None">
<path d="
M 181.00 70.00 
C 180.99 70.00 181.00 69.00 181.00 69.00
C 176.60 68.60 171.23 68.60 169.00 73.00
C 166.13 81.72 171.15 93.04 169.00 102.00
C 165.33 102.00 161.67 102.00 158.00 102.00
C 158.00 88.33 158.00 74.67 158.00 61.00
C 160.67 61.24 169.60 59.66 167.00 64.00
C 170.80 65.72 172.39 62.57 177.00 61.00
C 178.50 60.49 179.88 59.68 182.00 60.00
C 177.88 57.06 172.77 61.94 169.00 64.00
C 168.89 57.61 161.19 60.70 157.00 60.00
C 157.00 74.33 157.00 88.67 157.00 103.00
C 177.40 108.53 167.95 83.76 170.00 72.00
C 173.57 70.36 176.91 69.91 181.00 70.00 Z"/>
</g>
<g fill="#69B9CC" fill-opacity="0.58" stroke="None">
<path d="
M 139.00 61.00 
C 142.67 61.33 149.73 59.32 151.00 63.00
C 152.47 62.73 151.89 61.00 152.00 60.00
C 147.69 60.29 143.30 59.61 139.00 60.00
C 139.00 60.00 138.96 61.00 139.00 61.00 Z"/>
</g>
<g fill="#D6FEFF" fill-opacity="0.93" stroke="None">
<path d="
M 177.00 61.00 
C 179.28 60.64 181.71 61.27 184.00 61.00
C 184.67 64.20 182.59 66.60 181.00 69.00
C 181.00 69.00 180.99 70.00 181.00 70.00
C 184.25 69.12 185.56 64.19 186.00 61.00
C 184.63 60.78 183.26 60.44 182.00 60.00
C 179.88 59.68 178.50 60.49 177.00 61.00 Z"/>
</g>
<g fill="#88D5EC" fill-opacity="0.57" stroke="None">
<path d="
M 191.00 61.00 
C 194.86 62.26 199.06 58.99 201.00 63.00
C 203.40 67.96 200.10 76.38 201.00 82.00 C 201.90 87.62 201.00 95.20 201.00 101.00
C 201.00 101.50 201.00 102.00 201.00 102.00
C 202.18 103.22 203.36 89.54 203.00 85.00 C 202.64 80.46 202.17 70.73 203.00 65.00 C 203.82 59.28 192.17 58.13 191.00 61.00 Z"/>
</g>
<g fill="#9DE6F6" fill-opacity="0.75" stroke="None">
<path d="
M 237.00 63.00 
C 240.35 59.99 244.75 61.20 249.00 61.00
C 248.32 63.42 246.19 64.92 245.00 67.00
C 247.81 66.49 249.39 62.65 250.00 60.00
C 244.35 59.76 240.07 59.07 237.00 63.00 Z"/>
</g>
<g fill="#CDFEFF" fill-opacity="0.96" stroke="None">
<path d="
M 114.00 61.00 
C 110.33 61.00 106.67 61.00 103.00 61.00
C 103.00 75.00 103.00 89.00 103.00 103.00
C 106.67 103.00 110.33 103.00 114.00 103.00
C 114.00 89.00 114.00 75.00 114.00 61.00
M 113.00 62.00 
C 113.00 75.00 113.00 88.00 113.00 101.00
C 110.00 101.00 107.00 101.00 104.00 101.00
C 103.89 93.30 104.14 84.60 104.00 77.00 C 103.86 69.40 101.88 58.90 113.00 62.00 Z"/>
</g>
<g fill="#DAFFFF" fill-opacity="0.96" stroke="None">
<path d="
M 169.00 73.00 
C 165.14 80.64 169.81 92.41 168.00 101.00
C 165.00 101.00 162.00 101.00 159.00 101.00
C 159.00 88.00 159.00 75.00 159.00 62.00
C 161.48 62.74 166.82 60.19 167.00 64.00
C 169.60 59.66 160.67 61.24 158.00 61.00
C 158.00 74.67 158.00 88.33 158.00 102.00
C 161.67 102.00 165.33 102.00 169.00 102.00
C 171.15 93.04 166.13 81.72 169.00 73.00 Z"/>
</g>
<g fill="#FAFEFE" fill-opacity="1.00" stroke="None">
<path d="
M 167.00 64.00 
C 166.82 60.19 161.48 62.74 159.00 62.00
C 159.00 75.00 159.00 88.00 159.00 101.00
C 162.00 101.00 165.00 101.00 168.00 101.00
C 169.81 92.41 165.14 80.64 169.00 73.00
C 171.23 68.60 176.60 68.60 181.00 69.00
C 182.59 66.60 184.67 64.20 184.00 61.00
C 181.71 61.27 179.28 60.64 177.00 61.00
C 172.39 62.57 170.80 65.72 167.00 64.00 Z"/>
</g>
<g fill="#DCFFFF" fill-opacity="0.96" stroke="None">
<path d="
M 201.00 102.00 
C 201.00 102.00 201.00 101.50 201.00 101.00
C 198.02 100.73 194.98 101.20 192.00 101.00
C 191.77 93.45 192.31 84.40 192.00 77.00 C 191.69 69.60 190.31 57.79 201.00 63.00
C 199.06 58.99 194.86 62.26 191.00 61.00
C 191.00 74.67 191.00 88.33 191.00 102.00
C 194.31 101.78 197.69 102.30 201.00 102.00 Z"/>
</g>
<g fill="#F4FEFE" fill-opacity="0.99" stroke="None">
<path d="
M 211.00 98.00 
C 210.06 99.39 208.74 100.54 208.00 102.00
C 211.67 102.00 215.33 102.00 219.00 102.00
C 219.99 100.67 220.05 98.43 222.00 98.00
C 222.00 98.00 221.80 97.40 222.00 97.00
C 223.54 93.86 227.00 90.11 230.00 89.00
C 234.27 96.66 239.57 105.09 250.00 102.00
C 245.71 95.71 237.92 88.95 236.00 83.00
C 236.07 82.05 236.07 80.95 236.00 80.00
C 235.79 77.22 242.41 70.48 245.00 68.00
C 245.00 68.00 244.76 67.32 245.00 67.00
C 246.19 64.92 248.32 63.42 249.00 61.00
C 244.75 61.20 240.35 59.99 237.00 63.00
C 234.55 66.83 232.31 72.41 228.00 74.00
C 223.50 67.14 219.20 57.88 209.00 61.00
C 210.32 68.04 219.37 73.03 221.67 79.33 C 223.97 85.63 214.19 93.27 211.00 98.00 Z"/>
</g>
<g fill="#FAFEFF" fill-opacity="1.00" stroke="None">
<path d="
M 113.00 62.00 
C 101.88 58.90 103.86 69.40 104.00 77.00 C 104.14 84.60 103.89 93.30 104.00 101.00
C 107.00 101.00 110.00 101.00 113.00 101.00
C 113.00 88.00 113.00 75.00 113.00 62.00 Z"/>
</g>
<g fill="#FAFFFE" fill-opacity="0.99" stroke="None">
<path d="
M 201.00 101.00 
C 201.00 95.20 201.90 87.62 201.00 82.00 C 200.10 76.38 203.40 67.96 201.00 63.00
C 190.31 57.79 191.69 69.60 192.00 77.00 C 192.31 84.40 191.77 93.45 192.00 101.00
C 194.98 101.20 198.02 100.73 201.00 101.00 Z"/>
</g>
<g fill="#C1F2F9" fill-opacity="0.55" stroke="None">
<path d="
M 74.00 66.00 
C 72.84 66.36 67.61 66.19 66.00 65.00
C 66.00 65.00 65.00 65.04 65.00 65.00
C 65.21 68.74 71.75 66.90 74.00 66.00 Z"/>
</g>
<g fill="#7BC9DC" fill-opacity="0.58" stroke="None">
<path d="
M 139.00 69.00 
C 138.96 69.00 139.00 70.00 139.00 70.00
C 144.30 70.48 149.57 70.84 150.00 66.00
C 148.53 66.27 149.11 68.00 149.00 69.00
C 145.69 69.22 142.31 68.70 139.00 69.00 Z"/>
</g>
<g fill="#9EE5F2" fill-opacity="0.78" stroke="None">
<path d="
M 236.00 80.00 
C 237.51 75.90 243.32 72.67 245.00 68.00
C 242.41 70.48 235.79 77.22 236.00 80.00 Z"/>
</g>
<g fill="#B2FBFC" fill-opacity="0.58" stroke="None">
<path d="
M 140.00 93.00 
C 136.68 88.34 139.00 75.70 139.00 70.00
C 139.00 70.00 138.96 69.00 139.00 69.00
C 135.96 71.92 137.07 90.07 140.00 93.00 Z"/>
</g>
<g fill="#63CBEB" fill-opacity="0.38" stroke="None">
<path d="
M 128.00 94.00 
C 126.97 88.27 131.05 74.05 127.00 70.00
C 128.84 72.63 126.37 79.66 127.00 83.00 C 127.63 86.34 127.04 90.97 128.00 94.00 Z"/>
</g>
<g fill="#ABF4FB" fill-opacity="0.51" stroke="None">
<path d="
M 65.00 78.00 
C 65.00 77.96 66.00 78.00 66.00 78.00
C 68.04 76.49 73.21 76.50 76.00 77.00
C 73.98 76.36 65.23 73.98 65.00 78.00 Z"/>
</g>
<g fill="#46C6EE" fill-opacity="0.95" stroke="None">
<path d="
M 66.00 78.00 
C 66.42 82.63 65.69 87.36 66.00 92.00
C 68.44 90.86 72.40 93.07 74.00 93.00
C 84.14 91.58 86.07 80.18 76.00 77.00
C 73.21 76.50 68.04 76.49 66.00 78.00 Z"/>
</g>
<g fill="#79BFD1" fill-opacity="0.63" stroke="None">
<path d="
M 66.00 92.00 
C 65.69 87.36 66.42 82.63 66.00 78.00
C 66.00 78.00 65.00 77.96 65.00 78.00
C 64.71 81.26 63.80 89.80 66.00 92.00 Z"/>
</g>
<g fill="#CDFBFE" fill-opacity="0.90" stroke="None">
<path d="
M 92.00 92.00 
C 95.14 87.23 95.82 84.52 93.00 79.00
C 93.88 82.86 93.18 88.47 92.00 92.00 Z"/>
</g>
<g fill="#A2E9F4" fill-opacity="0.78" stroke="None">
<path d="
M 222.00 97.00 
C 226.03 91.91 231.35 89.35 234.23 96.77 C 237.11 104.19 244.36 103.22 251.00 103.00
C 248.80 95.25 239.10 90.00 236.00 83.00
C 237.92 88.95 245.71 95.71 250.00 102.00
C 239.57 105.09 234.27 96.66 230.00 89.00
C 227.00 90.11 223.54 93.86 222.00 97.00 Z"/>
</g>
<g fill="#82B9C8" fill-opacity="0.37" stroke="None">
<path d="
M 74.00 93.00 
C 72.40 93.07 68.44 90.86 66.00 92.00
C 67.56 93.56 71.65 93.33 74.00 93.00 Z"/>
</g>
<g fill="#A6F8FD" fill-opacity="0.74" stroke="None">
<path d="
M 222.00 98.00 
C 220.05 98.43 219.99 100.67 219.00 102.00
C 215.33 102.00 211.67 102.00 208.00 102.00
C 208.74 100.54 210.06 99.39 211.00 98.00
C 209.29 99.01 206.95 100.78 207.00 103.00
C 213.06 102.86 219.55 104.80 222.00 98.00 Z"/>
</g>
<g fill="#0B669D" fill-opacity="0.99" stroke="None">
<path d="
M 256.00 119.00 
C 226.76 114.82 205.44 146.15 217.70 171.31 C 229.95 196.46 262.84 198.16 279.25 177.25 C 295.65 156.33 282.57 122.80 256.00 119.00
M 255.00 126.00 
C 265.31 126.70 275.38 134.90 278.00 145.00
C 281.83 154.64 280.32 165.50 274.00 174.00
C 272.52 176.00 270.95 177.55 269.00 179.00
C 266.38 180.94 263.89 181.82 261.00 183.00
C 259.87 183.66 259.59 183.83 258.00 184.00
C 250.86 185.80 246.87 185.57 240.00 183.00
C 219.74 178.21 215.75 152.40 226.00 137.00
C 227.58 134.63 229.75 132.61 232.00 131.00
C 236.39 127.87 240.57 126.29 246.00 126.00
C 249.17 125.48 251.87 125.44 255.00 126.00 Z"/>
</g>
<g fill="#A5E7FD" fill-opacity="0.69" stroke="None">
<path d="
M 246.00 126.00 
C 248.92 125.84 252.08 125.80 255.00 126.00
C 251.87 125.44 249.17 125.48 246.00 126.00 Z"/>
</g>
<g fill="#F9FDFE" fill-opacity="0.99" stroke="None">
<path d="
M 232.00 131.00 
C 230.35 132.39 227.27 135.37 226.00 137.00
C 215.75 152.40 219.74 178.21 240.00 183.00
C 246.38 184.51 251.45 184.71 258.00 184.00
C 259.59 183.83 259.87 183.66 261.00 183.00
C 275.10 174.76 282.36 161.82 278.00 145.00
C 275.38 134.90 265.31 126.70 255.00 126.00
C 252.08 125.80 248.92 125.84 246.00 126.00
C 240.57 126.29 236.39 127.87 232.00 131.00
M 255.00 151.00 
C 257.08 152.46 264.36 150.76 267.00 151.00
C 268.51 152.45 269.03 158.35 266.00 159.00
C 260.32 159.51 253.68 159.51 248.00 159.00
C 245.14 158.84 244.48 139.73 247.00 138.00
C 248.58 136.91 252.23 138.82 254.00 138.00
C 254.64 142.17 252.71 147.66 255.00 151.00 Z"/>
</g>
<g fill="#0166A1" fill-opacity="1.00" stroke="None">
<path d="
M 79.00 220.00 
C 86.76 192.40 129.29 190.47 127.00 157.00 C 124.70 123.53 76.25 124.12 54.00 138.00
C 54.92 143.89 57.50 149.28 59.00 155.00
C 70.71 151.36 86.90 141.85 99.25 150.75 C 111.59 159.66 98.19 174.16 89.08 180.08 C 79.98 186.00 70.42 193.73 62.77 202.77 C 55.12 211.82 50.95 227.28 50.00 239.00
C 76.00 239.00 102.00 239.00 128.00 239.00
C 128.00 232.67 128.00 226.33 128.00 220.00
C 111.67 220.00 95.33 220.00 79.00 220.00 Z"/>
</g>
<g fill="#0066A1" fill-opacity="1.00" stroke="None">
<path d="
M 196.00 130.00 
C 182.48 125.03 175.57 135.81 169.25 144.25 C 162.93 152.69 157.50 158.33 151.30 166.30 C 145.10 174.27 140.34 181.95 133.25 189.25 C 126.16 196.55 120.13 214.15 135.00 213.00 C 149.87 211.85 160.51 213.86 175.00 213.00
C 175.00 221.67 175.00 230.33 175.00 239.00
C 182.00 239.00 189.00 239.00 196.00 239.00
C 196.00 230.33 196.00 221.67 196.00 213.00
C 201.33 213.00 206.67 213.00 212.00 213.00
C 212.00 207.00 212.00 201.00 212.00 195.00
C 206.67 195.00 201.33 195.00 196.00 195.00
C 196.00 173.33 196.00 151.67 196.00 130.00
M 176.00 164.00 
C 173.83 173.86 175.55 184.73 175.00 195.00
C 166.78 194.51 158.98 195.52 151.00 196.00
C 157.87 185.15 166.55 172.54 176.00 164.00 Z"/>
</g>
<g fill="#3C7596" fill-opacity="0.80" stroke="None">
<path d="
M 226.00 137.00 
C 227.27 135.37 230.35 132.39 232.00 131.00
C 229.75 132.61 227.58 134.63 226.00 137.00 Z"/>
</g>
<g fill="#CBFAFE" fill-opacity="0.76" stroke="None">
<path d="
M 248.00 159.00 
C 247.96 159.00 248.00 158.00 248.00 158.00
C 244.44 153.19 248.59 143.80 247.00 138.00
C 244.48 139.73 245.14 158.84 248.00 159.00 Z"/>
</g>
<g fill="#0C6093" fill-opacity="0.99" stroke="None">
<path d="
M 248.00 158.00 
C 253.67 157.48 260.33 157.49 266.00 158.00
C 267.25 156.54 267.23 154.11 267.00 152.00
C 263.98 152.27 257.01 153.01 255.00 151.00
C 252.71 147.66 254.64 142.17 254.00 138.00
C 252.23 138.82 248.58 136.91 247.00 138.00
C 248.59 143.80 244.44 153.19 248.00 158.00 Z"/>
</g>
<g fill="#CDF4FB" fill-opacity="0.78" stroke="None">
<path d="
M 261.00 183.00 
C 263.89 181.82 266.38 180.94 269.00 179.00
C 270.45 177.74 272.78 175.40 274.00 174.00
C 280.32 165.50 281.83 154.64 278.00 145.00
C 282.36 161.82 275.10 174.76 261.00 183.00 Z"/>
</g>
<g fill="#3C6E87" fill-opacity="0.67" stroke="None">
<path d="
M 267.00 152.00 
C 266.95 151.51 267.00 151.00 267.00 151.00
C 264.36 150.76 257.08 152.46 255.00 151.00
C 257.01 153.01 263.98 152.27 267.00 152.00 Z"/>
</g>
<g fill="#CAF8FD" fill-opacity="0.73" stroke="None">
<path d="
M 267.00 152.00 
C 267.23 154.11 267.25 156.54 266.00 158.00
C 265.75 158.29 266.00 159.00 266.00 159.00
C 269.03 158.35 268.51 152.45 267.00 151.00
C 267.00 151.00 266.95 151.51 267.00 152.00 Z"/>
</g>
<g fill="#7EA6BA" fill-opacity="0.47" stroke="None">
<path d="
M 248.00 159.00 
C 253.68 159.51 260.32 159.51 266.00 159.00
C 266.00 159.00 265.75 158.29 266.00 158.00
C 260.33 157.49 253.67 157.48 248.00 158.00
C 248.00 158.00 247.96 159.00 248.00 159.00 Z"/>
</g>
<g fill="#34A5C2" fill-opacity="0.10" stroke="None">
<path d="
M 9.00 168.00 
C 8.92 167.34 8.16 164.10 8.00 163.00
C 8.08 164.99 8.67 166.58 9.00 168.00 Z"/>
</g>
<g fill="#33C0F2" fill-opacity="1.00" stroke="None">
<path d="
M 176.00 164.00 
C 166.55 172.54 157.87 185.15 151.00 196.00
C 158.98 195.52 166.78 194.51 175.00 195.00
C 175.55 184.73 173.83 173.86 176.00 164.00 Z"/>
</g>
<g fill="#679EBE" fill-opacity="0.73" stroke="None">
<path d="
M 269.00 179.00 
C 270.95 177.55 272.52 176.00 274.00 174.00
C 272.78 175.40 270.45 177.74 269.00 179.00 Z"/>
</g>
<g fill="#B0DBEB" fill-opacity="0.75" stroke="None">
<path d="
M 258.00 184.00 
C 251.45 184.71 246.38 184.51 240.00 183.00
C 246.87 185.57 250.86 185.80 258.00 184.00 Z"/>
</g>
</svg>