<?xml version="1.0" standalone="no"?>
<!DOCTYPE svg PUBLIC "-//W3C//DTD SVG 20010904//EN"
 "http://www.w3.org/TR/2001/REC-SVG-20010904/DTD/svg10.dtd">
<svg version="1.0" xmlns="http://www.w3.org/2000/svg"
 width="2048.000000pt" height="2048.000000pt" viewBox="0 0 2048.000000 2048.000000"
 preserveAspectRatio="xMidYMid meet">
<metadata>
Created by potrace 1.16, written by Peter Selinger 2001-2019
</metadata>
<g transform="translate(0.000000,2048.000000) scale(0.100000,-0.100000)"
fill="#000000" stroke="none">
<path d="M9730 20465 c-47 -7 -130 -16 -185 -20 -55 -3 -107 -8 -115 -10 -8
-3 -43 -7 -77 -10 -114 -10 -279 -34 -307 -45 -15 -5 -31 -8 -36 -5 -4 3 -27
-2 -50 -10 -23 -8 -155 -37 -293 -65 -139 -27 -273 -54 -298 -60 -25 -6 -68
-13 -95 -16 -49 -6 -284 -51 -290 -56 -1 -2 1 -629 6 -1393 5 -765 11 -1871
15 -2460 3 -588 10 -1504 15 -2035 17 -1625 30 -3240 30 -3746 0 -510 6 -624
46 -824 154 -773 762 -1430 1529 -1652 200 -58 307 -71 565 -72 320 -1 527 26
761 100 301 94 630 305 894 570 557 562 755 1401 514 2189 -206 671 -697 1192
-1327 1407 -46 15 -177 53 -290 84 -114 30 -231 62 -259 70 l-53 15 0 592 c1
961 15 1090 127 1167 51 35 154 39 292 10 127 -26 506 -134 691 -197 809 -275
1515 -798 2002 -1484 286 -403 495 -855 618 -1334 196 -767 162 -1569 -101
-2348 -60 -179 -106 -285 -196 -460 -275 -529 -762 -1086 -1275 -1460 -258
-188 -560 -341 -998 -507 -577 -218 -996 -284 -1608 -251 -601 32 -929 125
-1587 451 -733 363 -1321 952 -1765 1769 -56 102 -86 178 -160 396 -160 475
-197 631 -249 1042 -54 427 -71 744 -78 1444 -8 910 27 1808 112 2816 l25 293
-10 1152 c-19 2303 -48 4010 -70 4032 -8 8 -77 -11 -210 -59 -36 -13 -110 -40
-165 -59 -55 -20 -142 -57 -192 -83 l-93 -48 0 -270 c0 -148 7 -1317 15 -2596
8 -1279 12 -2341 10 -2360 -3 -19 -12 -167 -20 -329 -121 -2421 -36 -4270 235
-5064 249 -731 624 -1326 1176 -1866 245 -240 433 -391 714 -576 639 -419
1351 -668 2145 -750 234 -24 689 -24 910 0 1121 123 2160 624 2921 1408 599
619 1006 1322 1204 2083 107 410 152 757 152 1185 0 610 -105 1161 -329 1730
-561 1426 -1799 2516 -3269 2879 -89 22 -334 71 -545 110 -211 39 -395 74
-407 77 l-24 5 5 742 c5 790 8 841 56 934 26 53 82 98 137 112 60 15 168 14
293 -5 118 -17 669 -129 858 -174 815 -195 1604 -570 2308 -1100 308 -232 554
-449 845 -746 1120 -1145 1687 -2308 1854 -3804 36 -319 41 -414 41 -790 -1
-411 -10 -548 -61 -895 -115 -780 -385 -1555 -790 -2268 -434 -763 -1031
-1451 -1729 -1993 -909 -706 -2007 -1165 -3140 -1313 -302 -39 -422 -46 -840
-46 -416 0 -507 5 -824 46 -1478 191 -2874 913 -3942 2040 -649 684 -1042
1302 -1413 2222 -193 477 -233 638 -270 1067 -54 615 -67 1295 -121 5985 -14
1210 -29 2406 -33 2659 l-7 458 -431 -443 c-493 -509 -612 -635 -791 -844
-734 -855 -1285 -1749 -1663 -2695 -407 -1019 -659 -2098 -735 -3143 -8 -117
-20 -261 -26 -322 -16 -160 -6 -1003 15 -1260 115 -1392 462 -2629 1081 -3853
657 -1302 1611 -2475 2760 -3396 986 -791 2193 -1421 3453 -1802 383 -116 856
-230 1127 -273 350 -55 338 -54 1555 -59 1142 -4 1375 1 1755 33 510 44 888
127 1517 331 3486 1133 5919 3646 6908 7134 261 919 290 1193 290 2695 0 1337
-25 1642 -181 2270 -279 1117 -681 2093 -1250 3030 -1074 1772 -2666 3208
-4437 4001 -1131 507 -2435 843 -3727 960 -245 22 -1023 28 -1145 9z"/>
</g>
</svg>
