<?xml version="1.0" standalone="no"?>
<!DOCTYPE svg PUBLIC "-//W3C//DTD SVG 20010904//EN"
 "http://www.w3.org/TR/2001/REC-SVG-20010904/DTD/svg10.dtd">
<svg version="1.0" xmlns="http://www.w3.org/2000/svg"
 width="586.000000pt" height="350.000000pt" viewBox="0 0 586.000000 350.000000"
 preserveAspectRatio="xMidYMid meet">

<g transform="translate(0.000000,350.000000) scale(0.100000,-0.100000)"
fill="#000000" stroke="none">
<path d="M4480 3324 c-46 -20 -77 -50 -103 -99 -19 -35 -22 -56 -22 -160 0
-112 2 -124 27 -172 40 -75 85 -103 166 -103 147 0 223 113 209 310 -8 124
-51 195 -136 225 -54 19 -96 19 -141 -1z"/>
<path d="M1235 3320 c-11 -5 -30 -17 -41 -27 -18 -15 -128 -160 -212 -280
l-23 -32 132 -180 131 -180 52 0 c121 2 187 -83 193 -245 2 -78 6 -94 30 -130
15 -23 30 -43 33 -46 3 -3 48 -63 99 -133 l93 -128 42 6 c123 18 226 -136 201
-302 -10 -71 -37 -123 -83 -165 -37 -34 -48 -38 -95 -38 -68 0 -113 30 -152
101 -27 49 -30 63 -32 156 l-1 101 -114 153 -113 154 -3 -429 -2 -428 34 -39
c47 -52 70 -131 64 -223 -9 -133 -86 -226 -187 -226 -53 0 -116 48 -150 115
-22 43 -26 63 -26 140 0 76 4 98 25 139 13 26 37 59 52 71 l28 24 0 441 0 441
-35 36 c-54 56 -78 131 -72 226 l5 78 -131 179 -131 178 -57 -76 c-31 -43
-185 -252 -342 -467 -157 -214 -295 -401 -306 -415 -34 -41 -54 -115 -49 -180
5 -75 -2 -64 350 -542 68 -91 208 -282 313 -425 104 -142 203 -276 220 -299
16 -22 75 -102 130 -177 107 -146 132 -165 199 -153 54 10 37 -11 423 516 43
58 117 159 165 225 143 194 265 361 368 500 53 72 116 157 140 190 24 33 50
75 56 95 17 45 17 125 0 170 -12 35 -139 212 -549 765 -32 44 -69 93 -80 109
-12 16 -120 163 -240 328 -120 164 -229 305 -242 314 -29 19 -84 26 -110 14z"/>
<path d="M5186 2971 c-24 -243 -101 -379 -238 -419 l-58 -17 0 -137 0 -138 84
0 84 0 4 -502 c5 -475 6 -507 26 -582 50 -182 147 -256 339 -256 89 0 159 14
243 48 95 38 142 69 136 90 -2 9 -16 70 -31 135 -25 109 -35 131 -50 108 -3
-5 -38 -17 -78 -26 -135 -31 -204 0 -226 103 -7 35 -11 198 -11 467 l0 415
170 0 170 0 0 155 0 155 -170 0 -170 0 0 235 0 235 -109 0 -108 0 -7 -69z"/>
<path d="M3408 2529 c-92 -9 -203 -59 -264 -118 -220 -211 -229 -705 -16 -906
18 -16 32 -33 32 -37 0 -5 -34 -54 -77 -110 -42 -57 -84 -121 -94 -143 -43
-99 -32 -220 27 -285 19 -20 34 -41 34 -45 0 -4 -18 -36 -39 -70 -57 -89 -74
-158 -69 -269 9 -189 100 -286 315 -337 115 -27 342 -29 453 -4 215 48 356
179 406 377 21 81 15 301 -10 368 -49 131 -142 193 -339 225 -72 12 -401 44
-464 45 -19 0 -17 10 21 93 l34 75 59 -14 c173 -41 367 14 475 134 85 95 128
224 128 392 0 112 -15 187 -51 265 -12 25 -19 48 -16 51 2 3 48 10 101 16 l96
11 0 133 0 134 -225 0 c-123 0 -246 4 -272 9 -77 15 -162 19 -245 10z m218
-331 c59 -39 87 -106 92 -221 5 -112 -10 -165 -62 -225 -39 -45 -81 -62 -150
-62 -91 0 -139 28 -179 105 -30 58 -36 203 -11 281 21 66 75 128 126 143 53
17 144 6 184 -21z m-141 -1413 c268 -23 307 -39 307 -127 0 -57 -14 -89 -51
-121 -51 -43 -94 -52 -246 -52 -162 0 -219 15 -260 69 -34 45 -34 121 0 194
28 61 8 58 250 37z"/>
<path d="M4271 2409 c-7 -67 -11 -122 -9 -124 2 -1 32 -17 68 -34 35 -18 68
-38 72 -44 4 -7 8 -236 8 -509 0 -567 10 -512 -94 -524 l-56 -7 0 -123 0 -124
325 0 326 0 -3 122 -3 123 -60 10 c-33 5 -66 14 -72 18 -10 6 -13 152 -13 673
l0 664 -239 0 -238 0 -12 -121z"/>
</g>
</svg>
