<svg className="technology__additional__img technology__additional__img_gulp" version="1.0"
    width="50" height="50" viewBox="0 0 397.000000 460.000000"
    preserveAspectRatio="xMidYMid meet">
    <title>GULP</title>
    <g transform="translate(0.000000,460.000000) scale(0.100000,-0.100000)"
    fill="" stroke="none">
    <path d="M1858 4468 c-18 -18 -69 -72 -113 -118 -44 -47 -142 -151 -218 -231
    -76 -81 -146 -157 -155 -170 -9 -12 -39 -113 -67 -223 l-51 -201 -329 -6
    c-446 -8 -763 -45 -851 -100 -40 -24 -42 -34 -12 -53 104 -66 452 -105 946
    -106 322 0 527 10 707 36 131 19 274 59 282 80 20 54 -145 97 -495 129 -87 8
    -84 -17 -26 212 l39 152 120 128 c365 387 365 388 365 410 0 22 -55 78 -87 87
    -17 6 -30 -1 -55 -26z m-643 -1108 c8 -14 158 -13 172 1 13 13 33 4 33 -16 0
    -29 -114 -44 -193 -26 -46 11 -51 15 -44 36 7 17 23 20 32 5z"/>
    <path d="M55 3268 c5 -34 45 -388 52 -468 2 -25 11 -110 20 -190 9 -80 21
    -191 27 -248 l11 -103 25 63 c71 182 184 324 303 382 48 24 65 28 104 22 115
    -16 210 -155 138 -202 -25 -16 -27 -16 -51 7 -14 13 -30 35 -37 49 -7 13 -24
    31 -39 38 -52 25 -126 -23 -198 -129 -125 -182 -195 -424 -142 -489 25 -31 59
    -19 135 50 80 74 129 146 157 234 21 65 48 106 70 106 6 0 19 -9 29 -19 25
    -25 20 -64 -20 -176 -34 -97 -84 -257 -94 -305 -12 -56 -44 -125 -65 -138 -15
    -9 -22 -8 -36 5 -22 22 -14 74 32 227 5 17 0 15 -27 -11 -85 -80 -203 -125
    -237 -91 -15 15 -15 20 3 -162 9 -80 20 -203 26 -275 20 -243 19 -237 64 -261
    62 -34 225 -73 390 -95 283 -36 618 -20 861 41 145 36 202 62 208 92 5 27 32
    255 51 443 8 72 19 169 25 217 16 125 15 128 -45 79 -88 -73 -156 -95 -219
    -71 -33 12 -43 53 -23 94 8 17 45 69 81 115 67 85 79 111 51 111 -41 0 -104
    -54 -157 -135 -33 -49 -103 -205 -154 -339 -39 -104 -61 -136 -93 -136 -47 0
    -53 68 -13 152 11 24 35 75 52 113 18 39 37 79 43 90 7 14 1 12 -24 -9 -43
    -37 -106 -65 -142 -66 -16 0 -38 10 -52 24 l-24 24 -47 -24 c-80 -41 -124 -25
    -124 43 l0 35 -37 -36 c-67 -65 -169 -84 -212 -41 -35 34 -1 184 75 339 35 71
    53 84 88 68 35 -16 33 -43 -10 -122 -35 -65 -65 -164 -57 -187 8 -23 38 -14
    81 23 49 42 85 100 127 203 33 81 54 103 83 85 29 -19 25 -60 -17 -164 -62
    -149 -54 -198 23 -151 23 15 37 37 54 83 13 35 28 72 32 83 5 11 35 85 66 165
    129 334 131 338 179 326 52 -13 52 -13 -59 -281 -80 -191 -146 -361 -146 -375
    0 -19 32 -10 78 22 92 63 129 106 157 178 30 79 57 110 83 94 9 -6 18 -23 20
    -37 l3 -26 50 39 c57 45 106 58 150 40 79 -33 61 -117 -57 -259 -39 -47 -50
    -67 -40 -69 20 -4 33 4 97 59 30 25 67 57 82 70 28 24 28 27 52 264 14 132 30
    281 35 330 6 50 15 133 20 185 5 52 16 156 24 230 20 177 20 184 -1 175 -29
    -13 -172 -44 -253 -55 -498 -70 -1390 -43 -1633 49 -39 15 -39 15 -32 -21z"/>
    <path d="M2840 2135 l0 -215 25 0 25 0 0 215 0 215 -25 0 -25 0 0 -215z" fill="#fff"/>
    <path d="M3500 2320 c0 -25 4 -30 25 -30 21 0 25 5 25 30 0 25 -4 30 -25 30
    -21 0 -25 -5 -25 -30z" fill="#fff"/>
    <path d="M2210 2223 c-50 -26 -75 -75 -75 -148 0 -105 45 -157 135 -157 40 0
    57 5 77 23 l26 24 -6 -44 c-8 -61 -35 -86 -93 -86 -35 0 -50 5 -64 23 -10 12
    -29 22 -44 22 -22 0 -24 -3 -17 -22 23 -65 144 -91 212 -45 50 33 58 69 58
    255 l1 162 -25 0 c-17 0 -25 -6 -25 -17 0 -15 -2 -14 -20 2 -28 26 -98 30
    -140 8z m117 -48 c76 -53 38 -215 -50 -215 -52 0 -80 36 -85 110 -4 55 -2 61
    26 90 34 34 74 39 109 15z" fill="#fff"/>
    <path d="M3085 2233 c-11 -3 -28 -12 -37 -21 -16 -14 -18 -14 -18 1 0 11 -8
    17 -25 17 l-25 0 0 -215 0 -215 25 0 c24 0 25 2 25 77 0 75 0 76 20 58 29 -26
    100 -31 144 -10 94 45 104 223 15 288 -27 19 -89 30 -124 20z m79 -54 c34 -16
    61 -86 52 -135 -10 -53 -46 -84 -96 -84 -62 0 -90 35 -90 112 0 52 3 63 29 89
    31 31 64 36 105 18z" fill="#fff"/>
    <path d="M3694 2233 c-37 -7 -68 -49 -67 -90 1 -46 27 -66 102 -83 92 -20 121
    -48 85 -84 -23 -23 -106 -21 -127 2 -10 10 -17 24 -17 30 0 7 -12 12 -26 12
    -25 0 -26 -2 -20 -32 7 -37 36 -64 79 -72 105 -21 181 20 179 97 -1 39 -27 65
    -76 78 -93 25 -126 40 -126 59 0 44 87 55 124 15 23 -25 66 -34 66 -15 0 6 -7
    24 -15 40 -21 40 -86 58 -161 43z" fill="#fff"/>
    <path d="M2501 2118 c0 -127 13 -176 49 -196 37 -19 115 -10 145 18 l25 23 0
    -21 c0 -15 6 -22 20 -22 19 0 20 7 20 155 l0 155 -24 0 c-24 0 -24 -1 -28
    -116 -3 -108 -5 -117 -27 -135 -26 -21 -90 -26 -109 -7 -8 8 -12 53 -12 135
    l0 123 -30 0 -30 0 1 -112z" fill="#fff"/>
    <path d="M3498 2038 c-3 -192 -3 -193 -25 -196 -15 -2 -23 -10 -23 -23 0 -15
    7 -19 33 -19 63 0 67 13 67 233 l0 197 -25 0 -25 0 -2 -192z" fill="#fff"/>
    <path d="M3350 1955 c0 -32 2 -35 30 -35 28 0 30 3 30 35 0 32 -2 35 -30 35
    -28 0 -30 -3 -30 -35z" fill="#fff"/>
    <path d="M379 1010 c66 -113 56 -57 90 -535 10 -138 23 -261 30 -273 68 -127
    773 -153 1003 -36 55 28 55 27 62 179 3 61 12 214 20 341 l13 230 56 97 c31
    53 52 97 47 97 -4 0 -37 -9 -72 -20 -140 -44 -417 -80 -613 -80 -206 0 -474
    35 -618 80 -34 11 -65 20 -69 20 -3 0 20 -45 51 -100z"/>
    </g>
</svg>