<?xml version="1.0" standalone="no"?>
<!DOCTYPE svg PUBLIC "-//W3C//DTD SVG 20010904//EN"
 "http://www.w3.org/TR/2001/REC-SVG-20010904/DTD/svg10.dtd">
<svg version="1.0" xmlns="http://www.w3.org/2000/svg"
 width="50" height="50" viewBox="0 0 1200.000000 1200.000000"
 preserveAspectRatio="xMidYMid meet">
<g transform="translate(0.000000,1200.000000) scale(0.100000,-0.100000)"
fill="" stroke="none">
<path d="M2540 11190 l0 -810 275 0 275 0 0 270 0 270 240 0 240 0 0 -270 0
-270 275 0 275 0 0 810 0 810 -275 0 -275 0 0 -265 0 -265 -240 0 -240 0 0
265 0 265 -275 0 -275 0 0 -810z"/>
<path d="M4350 11730 l0 -270 235 0 235 0 0 -540 0 -540 275 0 275 0 0 540 0
540 240 0 240 0 0 270 0 270 -750 0 -750 0 0 -270z"/>
<path d="M6080 11190 l0 -810 270 0 270 0 2 385 3 386 179 -276 c98 -152 182
-275 187 -273 4 2 89 129 188 282 l181 279 0 -391 0 -392 275 0 275 0 0 810 0
810 -289 0 -289 0 -167 -275 c-92 -151 -171 -273 -175 -270 -3 2 -80 126 -171
274 l-164 271 -287 0 -288 0 0 -810z"/>
<path d="M8170 11190 l0 -810 655 0 655 0 0 270 0 270 -380 0 -380 0 0 540 0
540 -275 0 -275 0 0 -810z"/>
<path d="M1746 9618 c2 -18 175 -1959 384 -4313 209 -2354 383 -4295 388
-4314 l7 -34 1725 -478 c948 -264 1734 -479 1746 -479 23 0 3471 954 3480 963
3 3 178 1940 389 4304 211 2364 386 4317 388 4341 l5 42 -4259 0 -4258 0 5
-32z m6914 -1765 c0 -35 -91 -1028 -95 -1040 -3 -10 -420 -13 -2037 -13
l-2034 0 48 -522 c26 -288 47 -533 47 -545 l1 -23 1941 0 1941 0 -6 -47 c-3
-27 -69 -759 -147 -1628 -77 -869 -143 -1583 -147 -1587 -4 -3 -495 -141
-1092 -306 l-1085 -301 -1090 303 -1090 303 -72 804 c-40 442 -72 819 -73 837
l0 32 530 0 530 0 4 -22 c3 -13 21 -203 40 -422 19 -219 39 -402 43 -406 4 -4
271 -78 593 -165 l585 -157 585 157 c322 87 590 163 595 170 6 7 36 309 68
671 32 363 60 669 63 682 l4 22 -1844 0 -1845 0 -5 43 c-4 23 -67 728 -141
1567 -74 839 -137 1544 -140 1568 l-6 42 2665 0 c2516 0 2666 -1 2666 -17z"/>
</g>
</svg>
