<?xml version="1.0" standalone="no"?>
<!DOCTYPE svg PUBLIC "-//W3C//DTD SVG 20010904//EN"
 "http://www.w3.org/TR/2001/REC-SVG-20010904/DTD/svg10.dtd">
<svg version="1.0" xmlns="http://www.w3.org/2000/svg"
 width="50" height="50" viewBox="0 0 142.000000 158.000000"
 preserveAspectRatio="xMidYMid meet">

<g transform="translate(0.000000,158.000000) scale(0.100000,-0.100000)"
fill="#000000" stroke="none">
<path d="M750 1495 l0 -75 -50 0 c-49 0 -50 -1 -50 -30 l0 -30 80 0 80 0 0
105 0 105 -30 0 -30 0 0 -75z"/>
<path d="M840 1505 l0 -65 70 0 c40 0 70 -4 70 -10 0 -6 -30 -10 -70 -10 l-70
0 0 -30 0 -30 100 0 101 0 -3 68 -3 67 -63 1 c-88 2 -91 14 -4 14 l72 0 0 30
0 30 -100 0 -100 0 0 -65z"/>
<path d="M280 1238 c0 -38 90 -1078 94 -1093 2 -6 109 -39 237 -74 l234 -63
235 64 235 64 17 195 c9 107 30 349 47 539 17 189 31 357 31 372 l0 28 -565 0
-565 0 0 -32z m520 -593 c0 -212 -3 -385 -7 -385 -5 0 -81 19 -170 42 l-163
42 0 63 c0 35 1 63 3 63 1 0 43 -11 92 -25 50 -14 98 -25 108 -25 16 0 17 21
17 305 l0 305 60 0 60 0 0 -385z m440 348 c0 -84 1 -83 -121 -83 l-109 0 0
-105 c0 -77 3 -105 13 -105 6 0 52 6 100 14 48 7 89 10 91 7 4 -7 -31 -381
-36 -386 -5 -5 -263 -75 -277 -75 -7 0 -11 22 -11 59 0 67 -10 59 126 96 l61
17 7 75 c4 41 5 77 3 79 -2 2 -44 -3 -93 -11 -49 -8 -92 -15 -96 -15 -5 0 -8
106 -8 235 l0 235 175 0 175 0 0 -37z"/>
</g>
</svg>
