
<svg version="1.0" xmlns="http://www.w3.org/2000/svg"
 width="50" height="50" viewBox="0 0 157.000000 157.000000"
 preserveAspectRatio="xMidYMid meet">
<g transform="translate(0.000000,157.000000) scale(0.100000,-0.100000)"
fill="#000000" stroke="none">
<path d="M907 1518 c-48 -107 11 -247 126 -302 105 -50 199 -43 265 21 25 23
30 33 17 28 -72 -24 -121 -28 -175 -11 -118 35 -195 122 -209 238 l-8 63 -16
-37z"/>
<path d="M666 1453 c-109 -165 -8 -427 203 -527 61 -29 74 -31 171 -31 85 1
116 5 161 23 60 24 132 87 163 143 l20 34 -41 -33 c-158 -125 -376 -99 -538
63 -84 83 -123 196 -109 313 3 28 4 52 0 52 -3 0 -17 -17 -30 -37z"/>
<path d="M382 1357 c-47 -67 -63 -116 -69 -202 -7 -102 8 -176 57 -273 51
-100 116 -173 208 -234 250 -162 572 -116 734 106 40 56 35 62 -18 22 -116
-89 -318 -116 -472 -63 -128 44 -294 179 -350 285 -54 102 -75 244 -53 360 5
23 5 42 0 42 -4 0 -21 -19 -37 -43z"/>
<path d="M429 421 c-48 -16 -78 -43 -104 -94 -27 -55 -34 -141 -14 -179 18
-33 70 -48 174 -48 93 0 96 1 105 26 14 35 13 44 -6 44 -11 0 -14 5 -9 18 3 9
13 41 20 70 25 93 -14 156 -100 166 -22 3 -52 1 -66 -3z m65 -67 c33 -13 37
-40 20 -114 l-17 -70 -47 0 c-61 0 -75 16 -67 74 13 90 55 132 111 110z"/>
<path d="M1460 323 c-43 -63 -54 -73 -62 -60 -6 11 -22 17 -45 17 -35 0 -35 0
-27 -32 4 -18 8 -59 9 -91 l0 -57 35 0 c32 1 37 5 58 50 13 27 50 84 83 127
65 84 72 116 28 120 -22 1 -34 -10 -79 -74z"/>
<path d="M217 353 c-4 -3 -7 -17 -7 -30 0 -20 5 -23 34 -23 33 0 46 13 46 46
0 14 -60 21 -73 7z"/>
<path d="M655 338 c-20 -90 -25 -119 -25 -160 0 -64 21 -78 117 -78 39 0 74 4
77 8 10 16 54 236 50 244 -3 5 -18 8 -34 8 -27 0 -29 -4 -40 -57 -26 -131 -27
-133 -67 -133 l-36 0 6 43 c3 23 9 66 13 95 l7 52 -31 0 c-25 0 -33 -5 -37
-22z"/>
<path d="M965 350 c-39 -16 -68 -59 -81 -121 -22 -106 1 -129 132 -129 67 0
74 2 76 20 0 11 1 26 2 33 1 8 -21 14 -68 17 -43 3 -71 10 -74 18 -3 9 15 12
66 12 99 0 102 2 102 66 0 72 -21 94 -87 93 -27 0 -57 -4 -68 -9z m69 -56 c33
-13 17 -34 -24 -34 -41 0 -49 7 -28 28 13 13 28 15 52 6z"/>
<path d="M1176 343 c-10 -36 -46 -213 -46 -228 0 -12 8 -15 33 -13 32 3 32 3
52 96 l20 92 78 0 c77 0 78 1 72 23 -12 38 -34 47 -121 47 -70 0 -83 -3 -88
-17z"/>
<path d="M191 243 c-5 -21 -12 -54 -16 -73 -13 -72 -26 -100 -45 -100 -21 0
-25 -4 -34 -43 -6 -26 -5 -27 36 -27 71 1 84 18 119 168 26 111 26 112 -16
112 -31 0 -35 -3 -44 -37z"/>
</g>
</svg>
