<svg version="1.0" xmlns="http://www.w3.org/2000/svg"
 width="50" height="50" viewBox="0 0 447.000000 177.000000"
 preserveAspectRatio="xMidYMid meet">
<g transform="translate(0.000000,177.000000) scale(0.100000,-0.100000)"
fill="#000000" stroke="none">
<path d="M684 1736 c-3 -7 -4 -283 -2 -612 l3 -599 23 -47 c29 -61 82 -113
138 -134 35 -13 65 -16 142 -11 53 3 118 11 145 17 l47 12 0 104 0 104 -73 0
c-85 0 -110 15 -127 79 -7 25 -10 225 -10 558 0 285 0 524 0 531 0 19 -279 17
-286 -2z"/>
<path d="M445 1673 c-63 -5 -155 -33 -194 -58 -51 -32 -76 -62 -102 -120 -19
-44 -22 -74 -28 -260 -7 -238 -12 -255 -82 -283 l-39 -15 0 -87 0 -87 39 -15
c70 -28 75 -45 82 -278 6 -194 7 -208 32 -261 49 -105 125 -146 290 -156 l88
-6 -3 89 -3 89 -37 6 c-47 7 -86 33 -98 65 -6 14 -10 85 -10 157 0 151 -13
243 -40 297 -18 35 -64 82 -92 93 -9 4 -8 9 6 18 95 60 117 124 125 372 l6
189 32 29 c18 16 45 31 60 35 56 12 54 8 51 101 -3 98 0 94 -83 86z"/>
<path d="M3910 1580 c0 -87 1 -90 23 -90 30 0 82 -33 104 -67 15 -23 19 -57
23 -223 5 -189 6 -197 33 -252 16 -32 39 -66 53 -77 l25 -20 -38 -38 c-59 -59
-73 -118 -74 -309 0 -96 -5 -173 -12 -194 -14 -40 -68 -80 -108 -80 l-29 0 0
-90 c0 -65 3 -90 13 -91 117 -8 236 27 292 85 59 61 67 94 74 321 7 238 17
270 89 295 46 16 44 9 46 140 1 41 -1 46 -29 55 -90 30 -105 74 -105 310 0
146 -3 180 -20 231 -12 32 -28 68 -38 79 -51 60 -163 105 -263 105 l-59 0 0
-90z"/>
<path d="M1590 1301 c-89 -23 -124 -44 -197 -114 -106 -101 -143 -201 -143
-383 0 -166 35 -259 132 -355 91 -91 207 -125 393 -116 109 6 204 26 257 53
l28 15 0 109 c0 61 -4 110 -9 110 -5 0 -28 -11 -52 -24 -68 -36 -128 -48 -226
-45 -65 3 -99 10 -128 25 -45 23 -90 83 -100 131 l-7 33 299 2 298 3 3 80 c11
261 -98 430 -309 480 -82 19 -157 18 -239 -4z m213 -233 c32 -23 59 -81 55
-118 l-3 -25 -159 -3 -158 -3 7 28 c15 62 79 133 130 146 33 8 98 -4 128 -25z"/>
<path d="M2525 1304 c-94 -18 -165 -56 -220 -116 -53 -59 -69 -108 -62 -201 9
-133 79 -200 289 -277 125 -45 152 -64 146 -102 -4 -32 -50 -52 -134 -56 -82
-5 -186 22 -246 63 -20 14 -42 25 -48 25 -7 0 -10 -42 -8 -132 l3 -133 65 -19
c92 -27 328 -29 420 -3 77 22 165 78 197 126 74 111 64 256 -23 345 -31 31
-132 81 -224 111 -84 27 -130 53 -142 81 -10 21 -8 28 9 45 42 42 148 46 273
12 30 -9 61 -20 67 -25 7 -6 20 -8 28 -4 12 4 15 26 15 115 0 130 6 123 -131
146 -111 18 -179 18 -274 -1z"/>
<path d="M3357 1304 c-137 -25 -235 -89 -273 -180 -19 -45 -18 -175 1 -222 35
-82 108 -134 267 -191 139 -48 150 -56 146 -98 -3 -31 -8 -38 -38 -49 -47 -17
-153 -17 -218 0 -29 8 -77 28 -107 45 -30 17 -57 31 -60 31 -3 0 -4 -59 -3
-132 l3 -132 60 -20 c76 -24 319 -29 405 -7 161 41 260 150 260 288 0 152 -79
228 -315 304 -86 27 -143 76 -125 108 18 35 51 46 140 45 65 -1 104 -7 163
-27 42 -15 80 -27 82 -27 3 0 5 54 5 119 0 137 11 124 -124 146 -110 18 -166
18 -269 -1z"/>
</g>
</svg>
