<svg version="1.0" xmlns="http://www.w3.org/2000/svg"
 width="50" height="50" viewBox="0 0 680.000000 680.000000"
 preserveAspectRatio="xMidYMid meet">
<g transform="translate(0.000000,680.000000) scale(0.100000,-0.100000)"
fill="#000000" stroke="none">
<path d="M3190 6790 c-234 -15 -496 -60 -713 -121 -109 -30 -361 -119 -355
-124 2 -1 39 3 83 11 98 16 301 18 398 3 473 -71 969 -377 1450 -897 133 -143
164 -185 101 -137 -443 338 -970 595 -1435 699 -348 78 -775 93 -1014 37 -184
-44 -277 -91 -442 -224 -1019 -818 -1473 -2166 -1162 -3447 184 -758 631
-1432 1266 -1909 719 -541 1628 -771 2527 -640 1100 160 2055 855 2551 1856
468 945 466 2068 -4 3013 -471 945 -1344 1613 -2376 1819 -275 55 -610 78
-875 61z m243 -2705 c-3 -21 -485 -1260 -492 -1268 -4 -4 -33 -7 -64 -5 l-56
3 243 631 c134 347 246 636 250 643 9 15 122 11 119 -4z m-1903 -352 c0 -382
8 -490 39 -574 23 -60 72 -118 124 -146 50 -28 199 -25 254 4 52 28 97 83 126
153 21 53 22 68 25 483 l3 427 80 0 80 0 -3 -427 c-3 -410 -5 -431 -26 -494
-32 -95 -88 -177 -153 -221 -89 -62 -128 -72 -269 -72 -107 0 -133 3 -182 22
-114 46 -201 156 -234 298 -13 56 -15 137 -16 459 0 214 1 400 1 413 1 21 5
22 76 22 l75 0 0 -347z m1100 -253 l0 -600 -80 0 -80 0 0 593 c0 327 3 597 7
600 3 4 39 7 80 7 l73 0 0 -600z m1150 204 c0 -436 6 -492 60 -577 51 -80 120
-117 220 -117 128 0 219 68 261 196 22 66 23 86 27 482 l4 413 76 -3 77 -3 0
-400 c-1 -433 -4 -469 -55 -582 -74 -163 -226 -243 -440 -231 -188 11 -302
104 -366 298 -16 49 -18 104 -22 488 l-3 432 80 0 81 0 0 -396z m1048 384 c5
-7 64 -110 131 -228 66 -118 124 -222 129 -230 7 -11 18 2 45 55 19 39 80 147
135 240 l99 170 87 3 c55 2 86 -1 86 -8 0 -5 -79 -137 -176 -291 -104 -166
-173 -287 -170 -296 3 -8 85 -144 181 -302 96 -159 175 -291 175 -295 0 -3
-40 -6 -89 -6 l-89 0 -56 98 c-98 174 -224 383 -231 383 -7 0 -51 -77 -192
-334 -42 -77 -81 -141 -88 -143 -6 -3 -48 -4 -92 -2 l-81 3 170 280 c93 154
174 290 180 301 9 19 -14 63 -161 309 -94 158 -171 291 -171 296 0 14 166 11
178 -3z"/>
</g>
</svg>
