<svg width="295" height="270" viewBox="0 0 295 270" fill="none" xmlns="http://www.w3.org/2000/svg">
<g opacity="0.8" clip-path="url(#clip0_205:14)">
<path d="M1092.97 236.204L1086.1 233.447L1079.22 267.09L1072.34 270.537L1065.47 234.76L1058.59 229.64L1051.71 244.41L1044.83 237.616L1037.96 209.782L1031.08 283.042L1024.2 269.06L1017.33 228.458L1010.45 241.751L1003.57 290.756L996.695 229.738L989.818 219.662L982.941 296.762L976.064 288.294L969.187 275.592L962.31 270.143L955.433 220.252L948.555 252.845L941.678 271.062L934.801 188.644L927.924 215.526L921.047 238.994L914.17 214.968L907.293 295.942L900.416 236.303L893.539 182.703L886.662 194.224L879.785 244.082L872.907 227.408L866.03 250.449L859.153 238.239L852.276 247.397L845.399 214.869L838.522 249.53L831.645 277.725L824.768 305.592L817.891 296.762L811.014 266.959L804.137 169.673L797.259 191.04L790.382 223.206L783.505 182.408L776.628 229.902L769.751 194.519L762.874 215.427L755.997 216.872L749.12 217.791L742.243 206.5L735.366 169.902L728.488 152.933L721.611 179.388L714.734 155.395L707.857 194.913L700.98 141.248L694.103 256.423L687.226 273.228L680.349 201.872L673.472 169.738L666.595 163.239L659.717 162.353L652.84 147.255L645.963 158.874L639.086 200.263L632.209 150.931L625.332 184.574L618.455 139.279L611.578 142.725L604.701 194.815L597.824 189.76L590.947 195.11L584.069 170.099L577.192 172.856L570.315 148.436L563.438 161.139L556.561 144.202L549.684 167.112L542.807 164.388L535.93 169.082L529.053 119.651L522.176 128.152L515.298 154.607L508.421 146.303L501.544 160.482L494.667 132.747L487.79 157.266L480.913 136.587L474.036 135.668L467.159 144.53L460.568 150.767L453.691 134.027L446.814 141.543L439.937 134.093L433.06 122.539L426.183 155.788L419.306 142.167L412.429 145.187L405.551 153.327L398.674 129.136L391.797 198.95L384.92 203.414L378.043 188.939L371.166 174.301L364.289 146.106L357.412 179.158L350.535 133.206L343.658 153.885L336.78 261.478L329.903 224.355L323.026 159.957L316.149 150.438L309.272 130.121L302.395 194.158L295.518 195.602L288.641 174.793L281.764 125.099L274.887 149.487L268.01 176.007L261.132 155.23L254.255 117.025L247.378 109.246L240.501 138.753L233.624 124.837L226.747 125.263L219.87 135.996L212.993 105.373L206.116 101.434L199.239 147.911L192.361 110.624L185.484 121.948L178.607 147.517L171.73 167.08L164.853 180.602L157.976 130.252L151.099 117.878L144.222 141.74L137.345 196.653L130.468 163.075L123.59 169.968L116.713 172.627L109.836 128.611L102.959 110.099L96.0821 117.452L89.205 121.325L82.3279 102.616L75.4508 86.6966L68.5737 143.25L61.6966 204.005L54.8195 168.786L47.9424 135.012L41.0653 146.959L34.1882 103.272L27.3111 65.4603L20.434 48.3268L13.5569 56.0073L6.67984 84.6616L-0.197255 98.5456L-7.07435 90.2414L-13.9146 65.9526V305.592H-7.07435H-0.197255H6.67984H13.5569H20.434H27.3111H34.1882H41.0653H47.9424H54.8195H61.6966H68.5737H75.4508H82.3279H89.205H96.0821H102.959H109.836H116.713H123.59H130.468H137.345H144.222H151.099H157.976H164.853H171.73H178.607H185.484H192.361H199.239H206.116H212.993H219.87H226.747H233.624H240.501H247.378H254.255H261.132H268.01H274.887H281.764H288.641H295.518H302.395H309.272H316.149H323.026H329.903H336.78H343.658H350.535H357.412H364.289H371.166H378.043H384.92H391.797H398.674H405.551H412.429H419.306H426.183H433.06H439.937H446.814H453.691H460.568H467.159H474.036H480.913H487.79H494.667H501.544H508.421H515.298H522.176H529.053H535.93H542.807H549.684H556.561H563.438H570.315H577.192H584.069H590.947H597.824H604.701H611.578H618.455H625.332H632.209H639.086H645.963H652.84H659.717H666.595H673.472H680.349H687.226H694.103H700.98H707.857H714.734H721.611H728.488H735.366H742.243H749.12H755.997H762.874H769.751H776.628H783.505H790.382H797.259H804.137H811.014H817.891H824.768H831.645H838.522H845.399H852.276H859.153H866.03H872.907H879.785H886.662H893.539H900.416H907.293H914.17H921.047H927.924H934.801H941.678H948.555H955.433H962.31H969.187H976.064H982.941H989.818H996.695H1003.57H1010.45H1017.33H1024.2H1031.08H1037.96H1044.83H1051.71H1058.59H1065.47H1072.34H1079.22H1086.1H1092.97V236.204Z" fill="url(#paint0_linear_205:14)"/>
<path d="M824.768 305.592L831.645 277.725L838.522 249.53L845.399 214.869L852.276 247.397L859.153 238.239L866.03 250.449L872.907 227.408L879.785 244.082L886.662 194.224L893.539 182.703L900.416 236.303L907.293 295.942L914.17 214.968L921.047 238.994L927.924 215.526L934.801 188.644L941.678 271.062L948.555 252.845L955.433 220.252L962.31 270.143L969.187 275.592L976.064 288.294L982.941 296.762L989.818 219.662L996.695 229.738L1003.57 290.756L1010.45 241.751L1017.33 228.458L1024.2 269.06L1031.08 283.042L1037.96 209.782L1044.83 237.616L1051.71 244.41L1058.59 229.64L1065.47 234.76L1072.34 270.537L1079.22 267.09L1086.1 233.447L1092.97 236.204V305.592H1086.1H1079.22H1072.34H1065.47H1058.59H1051.71H1044.83H1037.96H1031.08H1024.2H1017.33H1010.45H1003.57H996.695H989.818H982.941H976.064H969.187H962.31H955.433H948.555H941.678H934.801H927.924H921.047H914.17H907.293H900.416H893.539H886.662H879.785H872.907H866.03H859.153H852.276H845.399H838.522H831.645H824.768ZM824.768 305.592L817.891 296.762L811.014 266.959L804.137 169.673L797.259 191.04L790.382 223.206L783.505 182.408L776.628 229.902L769.751 194.519L762.874 215.427L755.997 216.872L749.12 217.791L742.243 206.5L735.366 169.902L728.488 152.933L721.611 179.388L714.734 155.395L707.857 194.913L700.98 141.248L694.103 256.423L687.226 273.228L680.349 201.872L673.472 169.738L666.595 163.239L659.717 162.353L652.84 147.255L645.963 158.874L639.086 200.263L632.209 150.931L625.332 184.574L618.455 139.279L611.578 142.725L604.701 194.815L597.824 189.76L590.947 195.11L584.069 170.099L577.192 172.856L570.315 148.436L563.438 161.139L556.561 144.202L549.684 167.112L542.807 164.388L535.93 169.082L529.053 119.651L522.176 128.152L515.298 154.607L508.421 146.303L501.544 160.482L494.667 132.747L487.79 157.266L480.913 136.587L474.036 135.668L467.159 144.53L460.568 150.767L453.691 134.027L446.814 141.543L439.937 134.093L433.06 122.539L426.183 155.788L419.306 142.167L412.429 145.187L405.551 153.327L398.674 129.136L391.797 198.95L384.92 203.414L378.043 188.939L371.166 174.301L364.289 146.106L357.412 179.158L350.535 133.206L343.658 153.885L336.78 261.478L329.903 224.355L323.026 159.957L316.149 150.438L309.272 130.121L302.395 194.158L295.518 195.602L288.641 174.793L281.764 125.099L274.887 149.487L268.01 176.007L261.132 155.23L254.255 117.025L247.378 109.246L240.501 138.753L233.624 124.837L226.747 125.263L219.87 135.996L212.993 105.373L206.116 101.434L199.239 147.911L192.361 110.624L185.484 121.948L178.607 147.517L171.73 167.08L164.853 180.602L157.976 130.252L151.099 117.878L144.222 141.74L137.345 196.653L130.468 163.075L123.59 169.968L116.713 172.627L109.836 128.611L102.959 110.099L96.0821 117.452L89.205 121.325L82.3279 102.616L75.4508 86.6966L68.5737 143.25L61.6966 204.005L54.8195 168.786L47.9424 135.012L41.0653 146.959L34.1882 103.272L27.3111 65.4603L20.434 48.3268L13.5569 56.0073L6.67984 84.6616L-0.197255 98.5456L-7.07435 90.2414L-13.9146 65.9526V305.592H-7.07435H-0.197255H6.67984H13.5569H20.434H27.3111H34.1882H41.0653H47.9424H54.8195H61.6966H68.5737H75.4508H82.3279H89.205H96.0821H102.959H109.836H116.713H123.59H130.468H137.345H144.222H151.099H157.976H164.853H171.73H178.607H185.484H192.361H199.239H206.116H212.993H219.87H226.747H233.624H240.501H247.378H254.255H261.132H268.01H274.887H281.764H288.641H295.518H302.395H309.272H316.149H323.026H329.903H336.78H343.658H350.535H357.412H364.289H371.166H378.043H384.92H391.797H398.674H405.551H412.429H419.306H426.183H433.06H439.937H446.814H453.691H460.568H467.159H474.036H480.913H487.79H494.667H501.544H508.421H515.298H522.176H529.053H535.93H542.807H549.684H556.561H563.438H570.315H577.192H584.069H590.947H597.824H604.701H611.578H618.455H625.332H632.209H639.086H645.963H652.84H659.717H666.595H673.472H680.349H687.226H694.103H700.98H707.857H714.734H721.611H728.488H735.366H742.243H749.12H755.997H762.874H769.751H776.628H783.505H790.382H797.259H804.137H811.014H817.891H824.768Z" stroke="#646981" stroke-linejoin="round"/>
<path d="M824.768 305.592L831.645 277.725L838.522 249.53L845.399 214.869L852.276 247.397L859.153 238.239L866.03 250.449L872.907 227.408L879.785 244.082L886.662 194.224L893.539 182.703L900.416 236.303L907.293 295.942L914.17 214.968L921.047 238.994L927.924 215.526L934.801 188.644L941.678 271.062L948.555 252.845L955.433 220.252L962.31 270.143L969.187 275.592L976.064 288.294L982.941 296.762L989.818 219.662L996.695 229.738L1003.57 290.756L1010.45 241.751L1017.33 228.458L1024.2 269.06L1031.08 283.042L1037.96 209.782L1044.83 237.616L1051.71 244.41L1058.59 229.64L1065.47 234.76L1072.34 270.537L1079.22 267.09L1086.1 233.447L1092.97 236.204V305.592H1086.1H1079.22H1072.34H1065.47H1058.59H1051.71H1044.83H1037.96H1031.08H1024.2H1017.33H1010.45H1003.57H996.695H989.818H982.941H976.064H969.187H962.31H955.433H948.555H941.678H934.801H927.924H921.047H914.17H907.293H900.416H893.539H886.662H879.785H872.907H866.03H859.153H852.276H845.399H838.522H831.645H824.768ZM824.768 305.592L817.891 296.762L811.014 266.959L804.137 169.673L797.259 191.04L790.382 223.206L783.505 182.408L776.628 229.902L769.751 194.519L762.874 215.427L755.997 216.872L749.12 217.791L742.243 206.5L735.366 169.902L728.488 152.933L721.611 179.388L714.734 155.395L707.857 194.913L700.98 141.248L694.103 256.423L687.226 273.228L680.349 201.872L673.472 169.738L666.595 163.239L659.717 162.353L652.84 147.255L645.963 158.874L639.086 200.263L632.209 150.931L625.332 184.574L618.455 139.279L611.578 142.725L604.701 194.815L597.824 189.76L590.947 195.11L584.069 170.099L577.192 172.856L570.315 148.436L563.438 161.139L556.561 144.202L549.684 167.112L542.807 164.388L535.93 169.082L529.053 119.651L522.176 128.152L515.298 154.607L508.421 146.303L501.544 160.482L494.667 132.747L487.79 157.266L480.913 136.587L474.036 135.668L467.159 144.53L460.568 150.767L453.691 134.027L446.814 141.543L439.937 134.093L433.06 122.539L426.183 155.788L419.306 142.167L412.429 145.187L405.551 153.327L398.674 129.136L391.797 198.95L384.92 203.414L378.043 188.939L371.166 174.301L364.289 146.106L357.412 179.158L350.535 133.206L343.658 153.885L336.78 261.478L329.903 224.355L323.026 159.957L316.149 150.438L309.272 130.121L302.395 194.158L295.518 195.602L288.641 174.793L281.764 125.099L274.887 149.487L268.01 176.007L261.132 155.23L254.255 117.025L247.378 109.246L240.501 138.753L233.624 124.837L226.747 125.263L219.87 135.996L212.993 105.373L206.116 101.434L199.239 147.911L192.361 110.624L185.484 121.948L178.607 147.517L171.73 167.08L164.853 180.602L157.976 130.252L151.099 117.878L144.222 141.74L137.345 196.653L130.468 163.075L123.59 169.968L116.713 172.627L109.836 128.611L102.959 110.099L96.0821 117.452L89.205 121.325L82.3279 102.616L75.4508 86.6966L68.5737 143.25L61.6966 204.005L54.8195 168.786L47.9424 135.012L41.0653 146.959L34.1882 103.272L27.3111 65.4603L20.434 48.3268L13.5569 56.0073L6.67984 84.6616L-0.197255 98.5456L-7.07435 90.2414L-13.9146 65.9526V305.592H-7.07435H-0.197255H6.67984H13.5569H20.434H27.3111H34.1882H41.0653H47.9424H54.8195H61.6966H68.5737H75.4508H82.3279H89.205H96.0821H102.959H109.836H116.713H123.59H130.468H137.345H144.222H151.099H157.976H164.853H171.73H178.607H185.484H192.361H199.239H206.116H212.993H219.87H226.747H233.624H240.501H247.378H254.255H261.132H268.01H274.887H281.764H288.641H295.518H302.395H309.272H316.149H323.026H329.903H336.78H343.658H350.535H357.412H364.289H371.166H378.043H384.92H391.797H398.674H405.551H412.429H419.306H426.183H433.06H439.937H446.814H453.691H460.568H467.159H474.036H480.913H487.79H494.667H501.544H508.421H515.298H522.176H529.053H535.93H542.807H549.684H556.561H563.438H570.315H577.192H584.069H590.947H597.824H604.701H611.578H618.455H625.332H632.209H639.086H645.963H652.84H659.717H666.595H673.472H680.349H687.226H694.103H700.98H707.857H714.734H721.611H728.488H735.366H742.243H749.12H755.997H762.874H769.751H776.628H783.505H790.382H797.259H804.137H811.014H817.891H824.768Z" stroke="url(#paint1_linear_205:14)" stroke-linejoin="round"/>
<path d="M1092.97 236.204L1086.1 233.447L1079.22 267.09L1072.34 270.537L1065.47 234.76L1058.59 229.64L1051.71 244.41L1044.83 237.616L1037.96 209.782L1031.08 283.042L1024.2 269.06L1017.33 228.458L1010.45 241.751L1003.57 290.756L996.695 229.738L989.818 219.662L982.941 296.762L976.064 288.294L969.187 275.592L962.31 270.143L955.433 220.252L948.555 252.845L941.678 271.062L934.801 188.644L927.924 215.526L921.047 238.994L914.17 214.968L907.293 295.942L900.416 236.303L893.539 182.703L886.662 194.224L879.785 244.082L872.907 227.408L866.03 250.449L859.153 238.239L852.276 247.397L845.399 214.869L838.522 249.53L831.645 277.725L824.768 305.592L817.891 296.762L811.014 266.959L804.137 169.673L797.259 191.04L790.382 223.206L783.505 182.408L776.628 229.902L769.751 194.519L762.874 215.427L755.997 216.872L749.12 217.791L742.243 206.5L735.366 169.902L728.488 152.933L721.611 179.388L714.734 155.395L707.857 194.913L700.98 141.248L694.103 256.423L687.226 273.228L680.349 201.872L673.472 169.738L666.595 163.239L659.717 162.353L652.84 147.255L645.963 158.874L639.086 200.263L632.209 150.931L625.332 184.574L618.455 139.279L611.578 142.725L604.701 194.815L597.824 189.76L590.947 195.11L584.069 170.099L577.192 172.856L570.315 148.436L563.438 161.139L556.561 144.202L549.684 167.112L542.807 164.388L535.93 169.082L529.053 119.651L522.176 128.152L515.298 154.607L508.421 146.303L501.544 160.482L494.667 132.747L487.79 157.266L480.913 136.587L474.036 135.668L467.159 144.53L460.568 150.767L453.691 134.027L446.814 141.543L439.937 134.093L433.06 122.539L426.183 155.788L419.306 142.167L412.429 145.187L405.551 153.327L398.674 129.136L391.797 198.95L384.92 203.414L378.043 188.939L371.166 174.301L364.289 146.106L357.412 179.158L350.535 133.206L343.658 153.885L336.78 261.478L329.903 224.355L323.026 159.957L316.149 150.438L309.272 130.121L302.395 194.158L295.518 195.602L288.641 174.793L281.764 125.099L274.887 149.487L268.01 176.007L261.132 155.23L254.255 117.025L247.378 109.246L240.501 138.753L233.624 124.837L226.747 125.263L219.87 135.996L212.993 105.373L206.116 101.434L199.239 147.911L192.361 110.624L185.484 121.948L178.607 147.517L171.73 167.08L164.853 180.602L157.976 130.252L151.099 117.878L144.222 141.74L137.345 196.653L130.468 163.075L123.59 169.968L116.713 172.627L109.836 128.611L102.959 110.099L96.0821 117.452L89.205 121.325L82.3279 102.616L75.4508 86.6966L68.5737 143.25L61.6966 204.005L54.8195 168.786L47.9424 135.012L41.0653 146.959L34.1882 103.272L27.3111 65.4603L20.434 48.3268L13.5569 56.0073L6.67984 84.6616L-0.197255 98.5456L-7.07435 90.2414L-13.9146 65.9526" stroke="#646981" stroke-linecap="round" stroke-linejoin="round"/>
<path d="M1092.97 236.204L1086.1 233.447L1079.22 267.09L1072.34 270.537L1065.47 234.76L1058.59 229.64L1051.71 244.41L1044.83 237.616L1037.96 209.782L1031.08 283.042L1024.2 269.06L1017.33 228.458L1010.45 241.751L1003.57 290.756L996.695 229.738L989.818 219.662L982.941 296.762L976.064 288.294L969.187 275.592L962.31 270.143L955.433 220.252L948.555 252.845L941.678 271.062L934.801 188.644L927.924 215.526L921.047 238.994L914.17 214.968L907.293 295.942L900.416 236.303L893.539 182.703L886.662 194.224L879.785 244.082L872.907 227.408L866.03 250.449L859.153 238.239L852.276 247.397L845.399 214.869L838.522 249.53L831.645 277.725L824.768 305.592L817.891 296.762L811.014 266.959L804.137 169.673L797.259 191.04L790.382 223.206L783.505 182.408L776.628 229.902L769.751 194.519L762.874 215.427L755.997 216.872L749.12 217.791L742.243 206.5L735.366 169.902L728.488 152.933L721.611 179.388L714.734 155.395L707.857 194.913L700.98 141.248L694.103 256.423L687.226 273.228L680.349 201.872L673.472 169.738L666.595 163.239L659.717 162.353L652.84 147.255L645.963 158.874L639.086 200.263L632.209 150.931L625.332 184.574L618.455 139.279L611.578 142.725L604.701 194.815L597.824 189.76L590.947 195.11L584.069 170.099L577.192 172.856L570.315 148.436L563.438 161.139L556.561 144.202L549.684 167.112L542.807 164.388L535.93 169.082L529.053 119.651L522.176 128.152L515.298 154.607L508.421 146.303L501.544 160.482L494.667 132.747L487.79 157.266L480.913 136.587L474.036 135.668L467.159 144.53L460.568 150.767L453.691 134.027L446.814 141.543L439.937 134.093L433.06 122.539L426.183 155.788L419.306 142.167L412.429 145.187L405.551 153.327L398.674 129.136L391.797 198.95L384.92 203.414L378.043 188.939L371.166 174.301L364.289 146.106L357.412 179.158L350.535 133.206L343.658 153.885L336.78 261.478L329.903 224.355L323.026 159.957L316.149 150.438L309.272 130.121L302.395 194.158L295.518 195.602L288.641 174.793L281.764 125.099L274.887 149.487L268.01 176.007L261.132 155.23L254.255 117.025L247.378 109.246L240.501 138.753L233.624 124.837L226.747 125.263L219.87 135.996L212.993 105.373L206.116 101.434L199.239 147.911L192.361 110.624L185.484 121.948L178.607 147.517L171.73 167.08L164.853 180.602L157.976 130.252L151.099 117.878L144.222 141.74L137.345 196.653L130.468 163.075L123.59 169.968L116.713 172.627L109.836 128.611L102.959 110.099L96.0821 117.452L89.205 121.325L82.3279 102.616L75.4508 86.6966L68.5737 143.25L61.6966 204.005L54.8195 168.786L47.9424 135.012L41.0653 146.959L34.1882 103.272L27.3111 65.4603L20.434 48.3268L13.5569 56.0073L6.67984 84.6616L-0.197255 98.5456L-7.07435 90.2414L-13.9146 65.9526" stroke="url(#paint2_linear_205:14)" stroke-linecap="round" stroke-linejoin="round"/>
</g>
<defs>
<linearGradient id="paint0_linear_205:14" x1="539.53" y1="48.3268" x2="539.53" y2="305.592" gradientUnits="userSpaceOnUse">
<stop stop-color="#0A090A"/>
<stop offset="0.315625" stop-color="#050505" stop-opacity="0.32"/>
<stop offset="0.695833" stop-opacity="0"/>
</linearGradient>
<linearGradient id="paint1_linear_205:14" x1="539.53" y1="48.3268" x2="576.739" y2="250.652" gradientUnits="userSpaceOnUse">
<stop stop-color="#43E9FF"/>
<stop offset="1" stop-color="#00ABAB"/>
</linearGradient>
<linearGradient id="paint2_linear_205:14" x1="539.53" y1="48.3268" x2="576.739" y2="250.652" gradientUnits="userSpaceOnUse">
<stop stop-color="#43E9FF"/>
<stop offset="1" stop-color="#00ABAB"/>
</linearGradient>
<clipPath id="clip0_205:14">
<rect width="294" height="273" fill="white" transform="translate(0.157959)"/>
</clipPath>
</defs>
</svg>
