<svg width="1071" height="359" viewBox="0 0 1071 359" fill="none" xmlns="http://www.w3.org/2000/svg">
<path d="M496.016 0H401.411C317.3 0 256.112 88.7951 188.306 179.124C127.523 259.847 72.6341 338.713 1.92238 355.18C1.49421 355.18 1.08409 355.35 0.781325 355.653C0.478562 355.956 0.30835 356.367 0.30835 356.795C0.30835 357.223 0.478562 357.634 0.781325 357.936C1.08409 358.239 1.49421 358.409 1.92238 358.409H96.6889C180.639 358.409 241.34 269.211 309.711 179.124C370.575 98.4011 425.224 19.535 496.016 3.14831C497.953 2.58325 497.792 0 496.016 0ZM569.956 28.1722C555.819 18.0607 538.904 12.563 521.523 12.4311C512.897 12.3794 504.327 13.7991 496.178 16.6289C482.91 21.2271 470.416 27.8137 459.126 36.1637C501.908 70.4708 540.494 124.959 581.743 179.124C608.865 214.884 635.018 250.321 661.414 280.35C683.307 256.398 703.893 231.284 723.084 205.116C716.626 197.044 710.008 187.842 703.469 179.124C658.669 120.035 617.178 61.5914 570.279 28.1722H569.956ZM889.774 355.18C858.777 347.996 830.847 328.703 804.047 302.63C787.823 320.359 769.436 335.98 749.318 349.126C763.773 355.155 779.266 358.308 794.927 358.409H889.451C889.879 358.409 890.289 358.239 890.592 357.936C890.895 357.634 891.065 357.223 891.065 356.795C891.065 356.367 890.895 355.956 890.592 355.653C890.289 355.35 889.879 355.18 889.451 355.18" fill="#E5005B"/>
<path d="M182.561 0C182.205 0.0812898 181.887 0.281107 181.659 0.567089C181.431 0.853072 181.306 1.20832 181.306 1.57415C181.306 1.93999 181.431 2.29474 181.659 2.58073C181.887 2.86671 182.205 3.06702 182.561 3.14831C213.558 10.2519 241.408 29.464 268.207 55.6989C284.535 37.9608 303 22.3156 323.179 9.12172C308.658 3.1419 293.112 0.0437665 277.409 0H182.561ZM612.967 321.923C570.265 287.777 531.601 233.693 490.433 179.124C463.23 143.444 437.237 107.845 410.679 77.978C388.788 101.832 368.254 126.896 349.171 153.051C355.628 161.769 362.166 170.406 368.785 179.124C413.505 238.213 455.076 296.656 501.895 330.156C516.205 340.277 533.285 345.745 550.812 345.817C559.377 345.843 567.885 344.452 575.996 341.7C589.294 337.118 601.775 330.442 612.967 321.923ZM1069.61 0H975.083C891.052 0 830.349 88.7951 762.139 179.124C701.276 259.847 646.306 338.713 575.594 355.18C575.166 355.18 574.754 355.35 574.451 355.653C574.148 355.956 573.978 356.367 573.978 356.795C573.978 357.223 574.148 357.634 574.451 357.936C574.754 358.239 575.166 358.409 575.594 358.409H670.199C754.23 358.409 815.093 269.211 883.383 179.124C944.246 98.4011 999.137 19.535 1069.61 3.14831C1071.54 2.58325 1071.38 0 1069.61 0Z" fill="#00A3D3"/>
</svg>
