<svg width="156" height="72" viewBox="0 0 156 72" fill="none" xmlns="http://www.w3.org/2000/svg">
<path d="M105.181 5H97.3218C90.3342 5 85.251 12.4324 79.618 19.9932C74.5684 26.75 70.0085 33.3513 64.1341 34.7297C64.0985 34.7297 64.0644 34.744 64.0393 34.7693C64.0141 34.7946 64 34.829 64 34.8649C64 34.9007 64.0141 34.9351 64.0393 34.9604C64.0644 34.9858 64.0985 35 64.1341 35H72.0069C78.981 35 84.0238 27.5338 89.7038 19.9932C94.7601 13.2365 99.3 6.63514 105.181 5.26352C105.342 5.21623 105.329 5 105.181 5ZM111.324 7.3581C110.149 6.51174 108.744 6.05156 107.3 6.04053C106.584 6.03619 105.872 6.15503 105.195 6.39189C104.092 6.77677 103.054 7.32809 102.116 8.02701C105.671 10.8986 108.876 15.4595 112.303 19.9932C114.556 22.9865 116.729 25.9527 118.922 28.4662C120.74 26.4613 122.451 24.3592 124.045 22.1689C123.508 21.4932 122.959 20.723 122.415 19.9932C118.694 15.0473 115.247 10.1554 111.351 7.3581H111.324ZM137.893 34.7297C135.318 34.1284 132.997 32.5135 130.771 30.3311C129.423 31.8151 127.896 33.1226 126.224 34.223C127.425 34.7276 128.712 34.9915 130.013 35H137.866C137.901 35 137.936 34.9858 137.961 34.9604C137.986 34.9351 138 34.9007 138 34.8649C138 34.829 137.986 34.7946 137.961 34.7693C137.936 34.744 137.901 34.7297 137.866 34.7297" fill="#E5005B"/>
<path d="M78.1058 5C78.0758 5.0068 78.049 5.02353 78.0297 5.04747C78.0105 5.0714 78 5.10114 78 5.13176C78 5.16238 78.0105 5.19208 78.0297 5.21601C78.049 5.23995 78.0758 5.25672 78.1058 5.26352C80.7188 5.85812 83.0665 7.46623 85.3257 9.66218C86.7021 8.17744 88.2587 6.86788 89.9597 5.76352C88.7356 5.26299 87.4251 5.00366 86.1013 5H78.1058ZM114.388 31.9459C110.789 29.0878 107.529 24.5608 104.059 19.9932C101.766 17.0068 99.5746 14.027 97.3359 11.527C95.4905 13.5237 93.7595 15.6216 92.1508 17.8108C92.6952 18.5405 93.2463 19.2635 93.8043 19.9932C97.5741 24.9392 101.078 29.8311 105.025 32.6351C106.232 33.4823 107.671 33.9399 109.149 33.9459C109.871 33.9481 110.588 33.8317 111.272 33.6013C112.393 33.2179 113.445 32.659 114.388 31.9459ZM152.883 5H144.914C137.831 5 132.713 12.4324 126.963 19.9932C121.833 26.75 117.199 33.3513 111.238 34.7297C111.202 34.7297 111.167 34.744 111.142 34.7693C111.116 34.7946 111.102 34.829 111.102 34.8649C111.102 34.9007 111.116 34.9351 111.142 34.9604C111.167 34.9858 111.202 35 111.238 35H119.213C126.297 35 131.427 27.5338 137.184 19.9932C142.315 13.2365 146.942 6.63514 152.883 5.26352C153.046 5.21623 153.032 5 152.883 5Z" fill="#00A3D3"/>
<path d="M13.0711 43.9143C11.7914 43.9264 10.5138 44.018 9.24569 44.1886C7.96937 44.3438 6.7194 44.6654 5.52833 45.1452C5.30529 45.2255 5.17005 45.3191 5.1295 45.4529C5.10292 45.5154 5.08924 45.5825 5.08924 45.6503C5.08924 45.7181 5.10292 45.7851 5.1295 45.8476L5.64318 47.6606C5.69725 47.888 5.79199 48.0218 5.93392 48.0486C6.12616 48.073 6.32127 48.0404 6.4948 47.9549C7.3925 47.6967 8.30714 47.5 9.23216 47.3662C10.2815 47.2094 11.3408 47.1267 12.402 47.1187C13.2733 47.0945 14.1434 47.1982 14.9839 47.4264C15.5688 47.593 16.1013 47.9037 16.5317 48.3295C16.8999 48.7193 17.1605 49.1961 17.2886 49.7143C17.4218 50.3028 17.4876 50.9042 17.4847 51.5072V52.4304H12.2804C10.8128 52.3938 9.34978 52.6064 7.95481 53.0592C6.89228 53.4174 5.91482 53.9865 5.0823 54.7317C4.36633 55.3976 3.82166 56.2233 3.49391 57.14C3.16601 58.0412 2.99907 58.9919 3.00053 59.9497C2.99041 60.8569 3.12505 61.76 3.39936 62.6257C3.67641 63.4777 4.16695 64.2464 4.82538 64.86C5.62437 65.5795 6.57935 66.1081 7.61687 66.4054C9.09005 66.8247 10.6197 67.0165 12.152 66.974C13.5853 66.9682 15.0168 66.8699 16.4372 66.6797C17.8656 66.4961 19.2604 66.1132 20.5803 65.5424C20.7922 65.4527 20.9688 65.2971 21.0834 65.0991C21.198 64.9012 21.2444 64.6716 21.2156 64.4453V51.2463C21.2156 48.8647 20.5397 47.0451 19.2623 45.7874C17.9849 44.5297 15.8829 43.9143 13.0442 43.9143H13.0711ZM17.4307 63.1341C16.9593 63.3049 16.4758 63.4412 15.9842 63.5422C15.4638 63.6291 14.9704 63.7161 14.4703 63.783C14.023 63.8561 13.5715 63.9008 13.1185 63.9168H12.1047C11.3903 63.9199 10.6774 63.855 9.97569 63.7228C9.37334 63.62 8.79567 63.4067 8.27246 63.094C7.78783 62.7924 7.39167 62.3703 7.12349 61.8697C6.82217 61.2772 6.67569 60.6194 6.69759 59.9564C6.64813 59.1166 6.86312 58.2821 7.31275 57.5682C7.70386 57.0054 8.22815 56.546 8.84009 56.2302C9.43204 55.9424 10.0702 55.7591 10.7258 55.6883C11.4017 55.6214 11.983 55.588 12.49 55.588H17.4307V63.1341ZM42.8032 44.4026H39.9781C39.85 44.39 39.7213 44.4209 39.6132 44.4902C39.5052 44.5595 39.4241 44.6631 39.3834 44.784L35.5174 56.4911L33.4897 63.2813H33.2801L31.1376 56.4109L27.1431 44.784C27.1036 44.6636 27.0238 44.5602 26.9168 44.4908C26.8099 44.4215 26.6824 44.3904 26.5551 44.4026H23.6894C23.3852 44.4026 23.2636 44.5431 23.3515 44.8241L30.34 64.9203C30.507 65.4811 30.8165 65.9901 31.239 66.3987C31.6193 66.6383 32.0663 66.753 32.5163 66.7265H34.1791C34.6781 66.774 35.1758 66.625 35.5645 66.3118C35.9078 65.8903 36.1588 65.4028 36.3013 64.8801L43.1615 44.8107C43.2155 44.5297 43.1074 44.3892 42.8303 44.3892L42.8032 44.4026ZM61.1874 46.5233C60.3977 45.6587 59.4071 44.9974 58.3014 44.5966C56.9521 44.125 55.528 43.8984 54.0974 43.9276C52.7519 43.9141 51.4186 44.1808 50.184 44.7103C48.99 45.2248 47.9276 45.9974 47.0749 46.9715C46.1573 48.0364 45.4675 49.2744 45.0472 50.6108C44.5139 52.2067 44.258 53.8806 44.2903 55.5612C44.2521 57.2979 44.4915 59.0297 44.9999 60.6923C45.3943 62.0115 46.0878 63.2242 47.0275 64.2379C47.9168 65.1741 49.0201 65.8853 50.2447 66.3118C51.6189 66.7769 53.0642 67.0033 54.5163 66.9807C55.6811 66.9758 56.8434 66.8729 57.9905 66.673C59.1565 66.4578 60.2723 66.0314 61.2819 65.4153C61.3645 65.39 61.4397 65.3453 61.5009 65.285C61.5622 65.2247 61.6077 65.1506 61.6336 65.069C61.6595 64.9874 61.6651 64.9008 61.6498 64.8166C61.6344 64.7325 61.5987 64.6533 61.5456 64.5858L60.6534 62.8197C60.6243 62.7431 60.5774 62.6743 60.5165 62.619C60.4555 62.5637 60.3822 62.5233 60.3026 62.5012C60.223 62.479 60.1392 62.4757 60.0581 62.4915C59.9769 62.5074 59.9008 62.5419 59.8356 62.5922C59.1181 62.9543 58.3605 63.2327 57.5781 63.4218C56.6718 63.6596 55.7378 63.7788 54.8002 63.7763C53.9076 63.7814 53.0193 63.6552 52.1643 63.4017C51.3647 63.1527 50.6339 62.7246 50.0286 62.1507C49.3837 61.5132 48.8836 60.7469 48.5618 59.9029C48.1623 58.8332 47.972 57.6981 48.0009 56.558H60.2681C60.6813 56.5591 61.0929 56.5051 61.4915 56.3975C61.862 56.3044 62.2078 56.1332 62.5053 55.8957C62.8071 55.6291 63.0391 55.2939 63.1812 54.919C63.3711 54.3891 63.4581 53.8285 63.438 53.2666C63.4568 51.9856 63.2698 50.7098 62.8839 49.4869C62.5419 48.3999 61.9679 47.3984 61.2009 46.55L61.1874 46.5233ZM48.0955 53.5476C48.1486 52.699 48.3192 51.8617 48.6024 51.059C48.874 50.3018 49.2739 49.5959 49.7852 48.9717C50.2875 48.3674 50.9112 47.8731 51.6168 47.5201C52.399 47.1505 53.2577 46.9672 54.1243 46.9849C55.0997 46.9445 56.072 47.1205 56.9699 47.5C57.6807 47.8209 58.2988 48.3131 58.7677 48.9316C59.2181 49.5637 59.5249 50.2849 59.6667 51.0456C59.856 51.8664 59.9512 52.7057 59.9505 53.5476H48.0955ZM76.4015 54.6113L83.0049 44.9111C83.0624 44.807 83.0836 44.6871 83.0657 44.5699C83.0657 44.4294 82.9238 44.3625 82.6602 44.3625H79.889C79.7039 44.3532 79.5209 44.405 79.3686 44.5097C79.2299 44.6167 79.105 44.7403 78.9968 44.8776L74.4076 52.1026L69.8521 44.8776C69.7657 44.7357 69.6534 44.6109 69.5209 44.5097C69.3397 44.3965 69.1262 44.3449 68.9127 44.3625H66.0334C65.7969 44.3625 65.6752 44.4428 65.6414 44.5966C65.6266 44.6657 65.6282 44.7372 65.6458 44.8056C65.6634 44.8741 65.6966 44.9376 65.7428 44.9913L72.1705 54.7651L64.7358 65.8502C64.5195 66.2783 64.6208 66.479 65.0331 66.479H67.7367C67.9559 66.4992 68.176 66.45 68.3652 66.3385C68.5011 66.2226 68.6215 66.09 68.7234 65.9438L74.1711 57.4678L79.4902 65.9906C79.573 66.1194 79.6731 66.2364 79.7877 66.3385C79.9802 66.4542 80.206 66.5036 80.4298 66.479H83.5387C83.7618 66.479 83.8834 66.4054 83.8834 66.2783C83.8858 66.1453 83.8532 66.0139 83.7889 65.897L76.4015 54.6113ZM90.0746 44.3625H87.7698C87.5875 44.3508 87.4055 44.3878 87.2426 44.4695C87.1142 44.5364 87.0399 44.7104 87.0399 44.9913V65.8502C87.0399 66.1311 87.1142 66.3051 87.2426 66.3786C87.4062 66.4578 87.5882 66.4924 87.7698 66.479H90.0746C90.2565 66.4978 90.44 66.4629 90.6019 66.3786C90.7032 66.3051 90.7505 66.1311 90.7505 65.8502V45.0114C90.7505 44.7304 90.7032 44.5565 90.6019 44.4896C90.441 44.4023 90.2572 44.365 90.0746 44.3825V44.3625ZM88.9661 36.0002C88.6375 35.9957 88.3113 36.0567 88.0071 36.1797C87.7028 36.3027 87.4268 36.4851 87.1954 36.716C86.9535 36.9425 86.7622 37.2168 86.6342 37.521C86.5061 37.8252 86.444 38.1526 86.4518 38.4821C86.4476 38.8052 86.5116 39.1256 86.6396 39.4228C86.7676 39.72 86.9569 39.9875 87.1954 40.2081C87.4281 40.4369 87.7045 40.6174 88.0085 40.7392C88.3126 40.861 88.6381 40.9215 88.9661 40.9172C89.2902 40.9225 89.612 40.8623 89.9118 40.7404C90.2116 40.6185 90.4832 40.4373 90.7099 40.2081C90.9435 39.9851 91.1277 39.7166 91.251 39.4195C91.3743 39.1224 91.4341 38.8032 91.4264 38.4821C91.4327 38.1584 91.3736 37.8368 91.2528 37.5359C91.132 37.235 90.9519 36.961 90.7228 36.7299C90.4937 36.4988 90.2203 36.3152 89.9187 36.1899C89.6171 36.0646 89.2932 36.0002 88.9661 36.0002ZM126.234 46.7574C125.468 45.8262 124.475 45.1033 123.348 44.6568C121.957 44.1252 120.473 43.8728 118.982 43.9143C117.475 43.9034 115.975 44.1108 114.528 44.5297C113.226 44.9004 111.992 45.474 110.872 46.2289C109.979 45.4243 108.921 44.8216 107.769 44.4628C106.364 44.0648 104.905 43.8799 103.444 43.9143C102.362 43.9143 101.375 43.9143 100.463 44.0213C99.6616 44.0679 98.8715 44.2302 98.1176 44.503C97.5159 44.7223 96.9856 45.0992 96.5833 45.5934C96.1772 46.1826 95.9801 46.8884 96.0225 47.6003V65.9304C96.0098 66.0207 96.0212 66.1126 96.0556 66.1971C96.09 66.2816 96.146 66.3557 96.2183 66.4121C96.3824 66.4897 96.564 66.5243 96.7455 66.5124H99.0504C99.2345 66.533 99.4205 66.498 99.5842 66.4121C99.643 66.3474 99.6869 66.2708 99.7126 66.1876C99.7383 66.1044 99.7453 66.0166 99.733 65.9304V47.5268C100.448 47.3809 101.173 47.2914 101.903 47.2592C102.666 47.219 103.254 47.1923 103.613 47.1923C104.719 47.1523 105.822 47.3226 106.863 47.694C107.645 47.9894 108.329 48.4944 108.837 49.1524C109.348 49.8379 109.695 50.6294 109.851 51.4671C110.04 52.4909 110.128 53.5305 110.115 54.5712V65.9037C110.115 66.1579 110.169 66.3118 110.297 66.3853C110.451 66.4655 110.624 66.5004 110.797 66.4857H113.102C113.294 66.5006 113.488 66.466 113.663 66.3853C113.778 66.3118 113.818 66.1579 113.818 65.9037V54.6313C113.831 53.5134 113.768 52.396 113.629 51.2864C113.524 50.3576 113.261 49.453 112.852 48.6105C113.253 48.4003 113.668 48.2192 114.096 48.0686C114.582 47.8947 115.062 47.7542 115.576 47.6204C116.089 47.4866 116.583 47.3997 117.076 47.3194C117.538 47.2642 118.003 47.2329 118.469 47.2257C120.733 47.2257 122.334 47.8345 123.254 49.0521C124.173 50.2696 124.646 52.1963 124.646 54.8053V65.9371C124.646 66.1913 124.693 66.3452 124.808 66.4188C124.97 66.497 125.149 66.5317 125.329 66.5191H127.708C127.874 66.5369 128.042 66.5017 128.188 66.4188C128.251 66.3564 128.298 66.2805 128.326 66.1969C128.354 66.1133 128.362 66.0244 128.35 65.9371V54.2166C128.362 52.8105 128.199 51.4084 127.863 50.0421C127.57 48.8535 127.024 47.7405 126.261 46.7775L126.234 46.7574ZM141.807 43.9343C140.523 43.9474 139.24 44.039 137.968 44.2086C136.694 44.3646 135.446 44.6863 134.257 45.1652C134.041 45.2455 133.906 45.3392 133.865 45.473C133.818 45.6004 133.818 45.7403 133.865 45.8677L134.372 47.6806C134.419 47.9081 134.527 48.0419 134.669 48.0686C134.859 48.0929 135.053 48.0603 135.224 47.975C136.124 47.7162 137.04 47.5195 137.968 47.3863C139.019 47.2285 140.081 47.1457 141.144 47.1387C142.011 47.1153 142.877 47.219 143.713 47.4465C144.3 47.6115 144.835 47.9223 145.267 48.3496C145.631 48.7414 145.889 49.2177 146.018 49.7344C146.152 50.3225 146.215 50.9243 146.207 51.5273V52.4505H141.056C139.591 52.4126 138.13 52.6253 136.738 53.0793C135.671 53.4331 134.691 54.0027 133.858 54.7518C133.143 55.4192 132.596 56.2443 132.263 57.1601C131.938 58.0621 131.772 59.0123 131.77 59.9698C131.768 60.8774 131.907 61.78 132.182 62.6457C132.454 63.4986 132.943 64.268 133.601 64.8801C134.399 65.6009 135.355 66.1297 136.393 66.4255C137.866 66.8453 139.396 67.0371 140.928 66.9941C142.359 66.9885 143.788 66.8902 145.206 66.6997C146.637 66.5162 148.034 66.1333 149.356 65.5625C149.568 65.4727 149.745 65.3171 149.859 65.1192C149.974 64.9212 150.02 64.6917 149.992 64.4654V51.2463C149.992 48.8647 149.316 47.0451 148.025 45.7874C146.734 44.5297 144.645 43.9143 141.82 43.9143L141.807 43.9343ZM146.2 63.1341C145.731 63.3057 145.25 63.4421 144.76 63.5422C144.253 63.6291 143.746 63.7161 143.24 63.783C142.792 63.8565 142.341 63.9012 141.888 63.9168H140.901C140.187 63.9209 139.474 63.8559 138.772 63.7228C138.165 63.62 137.583 63.4067 137.055 63.094C136.576 62.7878 136.183 62.3666 135.913 61.8697C135.614 61.2766 135.47 60.6188 135.494 59.9564C135.444 59.1183 135.654 58.285 136.095 57.5682C136.488 57.0118 137.007 56.5537 137.609 56.2302C138.207 55.9441 138.849 55.7608 139.509 55.6883C140.185 55.6214 140.766 55.588 141.28 55.588H146.213L146.2 63.1341Z" fill="white"/>
</svg>
