<svg width="1260" height="268" viewBox="0 0 1756 375" fill="none" xmlns="http://www.w3.org/2000/svg">
<path d="M120.28 96.435C104.996 96.5817 89.7378 97.6873 74.5926 99.7449C59.3494 101.618 44.421 105.499 30.196 111.288C27.5322 112.257 25.917 113.387 25.4327 115.002C25.1152 115.755 24.9519 116.565 24.9519 117.383C24.9519 118.201 25.1152 119.01 25.4327 119.764L31.5676 141.64C32.2134 144.385 33.3449 145.999 35.04 146.322C37.3359 146.616 39.6661 146.223 41.7385 145.192C52.4599 142.076 63.3835 139.703 74.431 138.088C86.9637 136.197 99.6145 135.198 112.289 135.102C122.694 134.81 133.086 136.061 143.125 138.814C150.109 140.824 156.47 144.574 161.61 149.712C166.007 154.415 169.119 160.169 170.65 166.422C172.24 173.522 173.026 180.779 172.991 188.056V199.195H110.836C93.3087 198.753 75.8358 201.32 59.1756 206.783C46.4858 211.105 34.8119 217.972 24.8691 226.964C16.3181 234.999 9.8131 244.963 5.89883 256.024C1.9827 266.898 -0.0111085 278.37 0.00634297 289.928C-0.114553 300.874 1.49344 311.771 4.7696 322.217C8.07841 332.499 13.937 341.774 21.8007 349.178C31.3429 357.859 42.7484 364.238 55.1395 367.825C72.7338 372.884 91.003 375.199 109.303 374.687C126.421 374.617 143.517 373.43 160.481 371.135C177.54 368.92 194.199 364.299 209.962 357.412C212.493 356.329 214.602 354.451 215.971 352.063C217.34 349.674 217.894 346.905 217.549 344.173V184.907C217.549 156.17 209.478 134.214 194.222 119.038C178.966 103.862 153.862 96.435 119.959 96.435H120.28ZM172.347 328.352C166.716 330.412 160.942 332.058 155.071 333.276C148.856 334.325 142.963 335.375 136.99 336.182C131.648 337.064 126.256 337.604 120.846 337.796H108.737C100.206 337.834 91.692 337.05 83.3111 335.456C76.1171 334.215 69.218 331.642 62.9692 327.868C57.1814 324.229 52.45 319.135 49.247 313.095C45.6484 305.946 43.899 298.008 44.1606 290.009C43.5698 279.874 46.1375 269.806 51.5075 261.191C56.1784 254.4 62.4401 248.857 69.7485 245.046C76.8183 241.573 84.4399 239.361 92.2701 238.507C100.342 237.7 107.285 237.296 113.339 237.296H172.347V328.352ZM475.372 102.328H441.631C440.101 102.176 438.565 102.548 437.274 103.384C435.983 104.221 435.016 105.471 434.529 106.929L388.357 248.194L364.14 330.128H361.637L336.049 247.226L288.342 106.929C287.871 105.477 286.917 104.229 285.64 103.392C284.363 102.556 282.84 102.18 281.32 102.328H247.095C243.462 102.328 242.009 104.023 243.059 107.414L326.523 349.905C328.517 356.672 332.214 362.814 337.26 367.745C341.802 370.636 347.14 372.02 352.515 371.7H372.374C378.333 372.273 384.277 370.475 388.92 366.695C393.02 361.61 396.017 355.727 397.72 349.421L479.651 107.252C480.297 103.862 479.005 102.167 475.695 102.167L475.372 102.328ZM694.935 127.917C685.504 117.484 673.674 109.505 660.467 104.669C644.353 98.9786 627.345 96.244 610.259 96.5966C594.19 96.4338 578.266 99.6514 563.521 106.041C549.262 112.249 536.573 121.572 526.389 133.325C515.43 146.175 507.192 161.114 502.172 177.239C495.803 196.496 492.747 216.694 493.133 236.974C492.676 257.93 495.535 278.826 501.607 298.888C506.317 314.806 514.6 329.439 525.823 341.671C536.443 352.967 549.62 361.549 564.246 366.695C580.659 372.308 597.919 375.039 615.263 374.768C629.173 374.708 643.055 373.466 656.754 371.054C670.68 368.458 684.006 363.313 696.065 355.878C697.05 355.573 697.948 355.034 698.68 354.306C699.411 353.578 699.955 352.684 700.264 351.699C700.574 350.715 700.64 349.67 700.457 348.654C700.274 347.639 699.848 346.683 699.214 345.869L688.558 324.558C688.21 323.633 687.65 322.804 686.922 322.137C686.195 321.469 685.319 320.982 684.368 320.715C683.418 320.448 682.417 320.408 681.448 320.598C680.479 320.789 679.57 321.206 678.791 321.813C670.222 326.182 661.174 329.541 651.83 331.823C641.005 334.693 629.851 336.131 618.652 336.101C607.992 336.163 597.383 334.64 587.172 331.581C577.622 328.576 568.894 323.41 561.665 316.485C553.963 308.793 547.99 299.547 544.147 289.363C539.376 276.455 537.104 262.758 537.448 249.001H683.956C688.891 249.014 693.806 248.363 698.567 247.064C702.992 245.941 707.122 243.876 710.676 241.01C714.28 237.792 717.05 233.748 718.748 229.224C721.015 222.83 722.055 216.066 721.814 209.286C722.039 193.828 719.806 178.433 715.196 163.677C711.112 150.562 704.258 138.476 695.097 128.24L694.935 127.917ZM538.578 212.676C539.212 202.437 541.249 192.333 544.632 182.647C547.875 173.511 552.652 164.993 558.758 157.461C564.757 150.17 572.206 144.205 580.633 139.945C589.975 135.485 600.231 133.274 610.58 133.487C622.23 133 633.842 135.124 644.565 139.703C653.055 143.574 660.437 149.514 666.037 156.977C671.417 164.604 675.08 173.307 676.773 182.486C679.034 192.39 680.171 202.517 680.163 212.676H538.578ZM876.639 225.511L955.503 108.463C956.19 107.207 956.444 105.761 956.229 104.346C956.229 102.651 954.535 101.844 951.387 101.844H918.29C916.079 101.732 913.893 102.356 912.075 103.619C910.418 104.912 908.926 106.403 907.634 108.059L852.824 195.24L798.418 108.059C797.386 106.347 796.045 104.842 794.463 103.619C792.299 102.254 789.749 101.631 787.199 101.844H752.812C749.987 101.844 748.533 102.812 748.129 104.669C747.954 105.503 747.973 106.365 748.183 107.191C748.392 108.017 748.789 108.783 749.341 109.432L826.107 227.368L737.314 361.125C734.731 366.292 735.941 368.713 740.865 368.713H773.154C775.772 368.957 778.4 368.363 780.66 367.018C782.284 365.62 783.722 364.019 784.939 362.256L850 259.979L913.527 362.82C914.515 364.374 915.712 365.786 917.08 367.018C919.379 368.414 922.075 369.01 924.748 368.713H961.879C964.543 368.713 965.996 367.826 965.996 366.292C966.023 364.686 965.635 363.101 964.866 361.691L876.639 225.511ZM1039.94 101.844H1012.41C1010.23 101.703 1008.06 102.149 1006.11 103.135C1004.58 103.942 1003.69 106.041 1003.69 109.432V361.125C1003.69 364.516 1004.58 366.614 1006.11 367.502C1008.07 368.457 1010.24 368.875 1012.41 368.713H1039.94C1042.11 368.94 1044.3 368.519 1046.23 367.502C1047.44 366.614 1048.01 364.516 1048.01 361.125V109.674C1048.01 106.283 1047.44 104.185 1046.23 103.378C1044.31 102.324 1042.12 101.873 1039.94 102.086V101.844ZM1026.7 0.940316C1022.77 0.885845 1018.88 1.62221 1015.24 3.10619C1011.61 4.59018 1008.31 6.79142 1005.55 9.57771C1002.66 12.3107 1000.38 15.6197 998.848 19.2907C997.318 22.9616 996.576 26.9124 996.67 30.8882C996.619 34.7864 997.384 38.6526 998.913 42.2388C1000.44 45.825 1002.7 49.0524 1005.55 51.7148C1008.33 54.4754 1011.63 56.654 1015.26 58.1232C1018.89 59.5924 1022.78 60.3227 1026.7 60.2714C1030.57 60.3346 1034.41 59.6087 1037.99 58.1375C1041.57 56.6664 1044.82 54.4809 1047.52 51.7148C1050.31 49.0242 1052.51 45.7837 1053.99 42.1989C1055.46 38.6141 1056.17 34.7627 1056.08 30.8882C1056.16 26.9822 1055.45 23.1009 1054.01 19.4705C1052.57 15.8401 1050.41 12.5338 1047.68 9.74523C1044.94 6.95663 1041.68 4.74121 1038.08 3.22937C1034.47 1.71752 1030.6 0.939593 1026.7 0.940316ZM1471.8 130.742C1462.64 119.506 1450.78 110.783 1437.33 105.396C1420.71 98.981 1402.99 95.9348 1385.18 96.435C1367.18 96.304 1349.26 98.8063 1331.99 103.862C1316.43 108.334 1301.69 115.255 1288.32 124.365C1277.66 114.656 1265.02 107.384 1251.26 103.054C1234.48 98.252 1217.06 96.0202 1199.6 96.435C1186.69 96.435 1174.9 96.4353 1164 97.7269C1154.43 98.2894 1145 100.247 1135.99 103.539C1128.81 106.185 1122.48 110.733 1117.67 116.697C1112.82 123.806 1110.47 132.322 1110.97 140.913V362.094C1110.82 363.183 1110.96 364.292 1111.37 365.312C1111.78 366.331 1112.45 367.226 1113.31 367.906C1115.27 368.842 1117.44 369.26 1119.61 369.117H1147.14C1149.33 369.365 1151.56 368.943 1153.51 367.906C1154.21 367.126 1154.74 366.201 1155.04 365.197C1155.35 364.193 1155.43 363.134 1155.29 362.094V140.026C1163.83 138.265 1172.49 137.186 1181.2 136.796C1190.32 136.312 1197.34 135.989 1201.62 135.989C1214.83 135.507 1228.01 137.562 1240.45 142.044C1249.79 145.608 1257.95 151.701 1264.02 159.641C1270.12 167.913 1274.26 177.464 1276.13 187.571C1278.38 199.925 1279.44 212.469 1279.27 225.027V361.771C1279.27 364.838 1279.92 366.695 1281.45 367.583C1283.29 368.551 1285.36 368.971 1287.43 368.794H1314.95C1317.25 368.974 1319.56 368.557 1321.65 367.583C1323.03 366.695 1323.51 364.838 1323.51 361.771V225.753C1323.66 212.264 1322.9 198.78 1321.25 185.392C1319.99 174.184 1316.85 163.268 1311.97 153.103C1316.75 150.567 1321.72 148.381 1326.82 146.564C1332.63 144.465 1338.36 142.77 1344.5 141.156C1350.63 139.541 1356.53 138.492 1362.42 137.523C1367.94 136.857 1373.49 136.48 1379.05 136.393C1406.09 136.393 1425.22 143.739 1436.2 158.431C1447.17 173.122 1452.83 196.37 1452.83 227.852V362.175C1452.83 365.242 1453.39 367.099 1454.76 367.987C1456.69 368.931 1458.84 369.349 1460.98 369.198H1489.39C1491.38 369.412 1493.39 368.987 1495.12 367.987C1495.87 367.234 1496.44 366.317 1496.78 365.309C1497.11 364.3 1497.21 363.227 1497.06 362.175V220.748C1497.21 203.782 1495.26 186.863 1491.25 170.377C1487.75 156.035 1481.23 142.604 1472.12 130.985L1471.8 130.742ZM1657.78 96.6774C1642.44 96.8349 1627.13 97.94 1611.93 99.9869C1596.71 101.87 1581.81 105.751 1567.61 111.53C1565.03 112.499 1563.41 113.629 1562.93 115.244C1562.37 116.781 1562.37 118.469 1562.93 120.006L1568.98 141.882C1569.55 144.627 1570.84 146.241 1572.54 146.564C1574.81 146.857 1577.11 146.463 1579.16 145.434C1589.9 142.312 1600.85 139.938 1611.93 138.33C1624.48 136.426 1637.16 135.428 1649.86 135.343C1660.22 135.061 1670.55 136.312 1680.54 139.057C1687.56 141.048 1693.95 144.799 1699.11 149.954C1703.45 154.682 1706.53 160.429 1708.07 166.664C1709.67 173.761 1710.43 181.022 1710.33 188.298V199.437H1648.82C1631.31 198.98 1613.87 201.547 1597.24 207.025C1584.5 211.295 1572.79 218.167 1562.85 227.206C1554.3 235.26 1547.77 245.216 1543.8 256.267C1539.92 267.15 1537.93 278.616 1537.91 290.17C1537.88 301.122 1539.54 312.013 1542.83 322.459C1546.08 332.75 1551.91 342.035 1559.78 349.421C1569.31 358.118 1580.72 364.499 1593.12 368.067C1610.71 373.133 1628.98 375.447 1647.28 374.929C1664.37 374.861 1681.44 373.675 1698.38 371.377C1715.46 369.162 1732.15 364.542 1747.94 357.654C1750.47 356.571 1752.58 354.693 1753.95 352.305C1755.32 349.916 1755.87 347.147 1755.53 344.416V184.907C1755.53 156.17 1747.46 134.214 1732.04 119.038C1716.62 103.862 1691.68 96.435 1657.94 96.435L1657.78 96.6774ZM1710.25 328.352C1704.65 330.423 1698.9 332.069 1693.05 333.276C1687 334.325 1680.94 335.375 1674.89 336.182C1669.55 337.069 1664.16 337.609 1658.74 337.796H1646.96C1638.43 337.846 1629.91 337.062 1621.53 335.456C1614.29 334.215 1607.34 331.642 1601.03 327.868C1595.31 324.173 1590.62 319.091 1587.39 313.095C1583.82 305.939 1582.1 298.001 1582.38 290.009C1581.79 279.895 1584.29 269.84 1589.57 261.191C1594.26 254.477 1600.45 248.95 1607.65 245.046C1614.78 241.593 1622.45 239.382 1630.33 238.507C1638.4 237.7 1645.35 237.296 1651.48 237.296H1710.41L1710.25 328.352Z" fill="url(#paint0_linear_44_12705)"/>
<defs>
<linearGradient id="paint0_linear_44_12705" x1="-0.429486" y1="273.214" x2="13671.2" y2="273.214" gradientUnits="userSpaceOnUse">
<stop stop-color="white"/>
<stop offset="1" stop-color="white" stop-opacity="0"/>
</linearGradient>
</defs>
</svg>
