<svg width="100" height="60" viewBox="0 0 364 152" fill="none" xmlns="http://www.w3.org/2000/svg">
<path d="M247.466 0H228.292C211.245 0 198.844 18.1408 185.102 36.5949C172.783 53.0864 161.658 69.1987 147.327 72.563C147.24 72.563 147.157 72.5978 147.095 72.6596C147.034 72.7215 147 72.8054 147 72.8929C147 72.9803 147.034 73.0642 147.095 73.1261C147.157 73.1879 147.24 73.2227 147.327 73.2227H166.533C183.548 73.2227 195.85 54.9995 209.707 36.5949C222.043 20.1033 233.119 3.99099 247.466 0.643196C247.859 0.527755 247.826 0 247.466 0ZM262.452 5.75555C259.587 3.68978 256.158 2.56661 252.636 2.53967C250.888 2.5291 249.151 2.81914 247.499 3.39726C244.81 4.33667 242.278 5.68231 239.99 7.3882C248.66 14.3971 256.481 25.529 264.841 36.5949C270.338 43.9006 275.638 51.1404 280.988 57.2753C285.425 52.3819 289.597 47.2511 293.487 41.9051C292.178 40.2559 290.837 38.3759 289.511 36.5949C280.432 24.523 272.023 12.5831 262.517 5.75555H262.452ZM327.271 72.563C320.988 71.0953 315.328 67.1538 309.896 61.827C306.608 65.4491 302.881 68.6404 298.804 71.3261C301.733 72.5578 304.873 73.202 308.048 73.2227H327.205C327.292 73.2227 327.375 73.1879 327.436 73.1261C327.498 73.0642 327.532 72.9803 327.532 72.8929C327.532 72.8054 327.498 72.7215 327.436 72.6596C327.375 72.5978 327.292 72.563 327.205 72.563" fill="#E5005B"/>
<path d="M183.937 0C183.865 0.0166074 183.8 0.0574299 183.754 0.115856C183.708 0.174282 183.683 0.246859 183.683 0.321598C183.683 0.396337 183.708 0.468814 183.754 0.52724C183.8 0.585666 183.865 0.626589 183.937 0.643196C190.219 2.09446 195.864 6.01947 201.295 11.3792C204.604 7.75535 208.347 4.55905 212.436 1.86356C209.494 0.641887 206.343 0.00894147 203.16 0H183.937ZM271.169 65.7685C262.514 58.7925 254.678 47.7432 246.334 36.5949C240.821 29.3056 235.553 22.0327 230.17 15.9308C225.734 20.8042 221.572 25.9247 217.704 31.2681C219.013 33.0492 220.338 34.8138 221.68 36.5949C230.743 48.6667 239.169 60.6067 248.657 67.4507C251.558 69.5183 255.019 70.6354 258.572 70.65C260.307 70.6553 262.032 70.3711 263.676 69.8089C266.371 68.873 268.901 67.5089 271.169 65.7685ZM363.718 0H344.56C327.529 0 315.226 18.1408 301.402 36.5949C289.067 53.0864 277.926 69.1987 263.594 72.563C263.508 72.563 263.424 72.5978 263.363 72.6596C263.301 72.7215 263.267 72.8054 263.267 72.8929C263.267 72.9803 263.301 73.0642 263.363 73.1261C263.424 73.1879 263.508 73.2227 263.594 73.2227H282.768C299.799 73.2227 312.134 54.9995 325.975 36.5949C338.31 20.1033 349.435 3.99099 363.718 0.643196C364.11 0.527755 364.077 0 363.718 0Z" fill="#00A3D3"/>
<path d="M24.3776 95.0892C21.28 95.1191 18.1875 95.345 15.1179 95.7654C12.0285 96.148 9.00295 96.941 6.11992 98.1237C5.58004 98.3216 5.25269 98.5525 5.15453 98.8823C5.09019 99.0363 5.05708 99.2017 5.05708 99.3688C5.05708 99.5359 5.09019 99.7013 5.15453 99.8553L6.39791 104.325C6.52879 104.885 6.75812 105.215 7.10168 105.281C7.567 105.341 8.03927 105.261 8.45929 105.05C10.6322 104.414 12.8462 103.929 15.0852 103.599C17.6252 103.212 20.1892 103.009 22.7579 102.989C24.8668 102.929 26.973 103.185 29.0076 103.747C30.4232 104.158 31.7123 104.924 32.7541 105.974C33.6452 106.934 34.2759 108.11 34.5862 109.387C34.9085 110.838 35.0677 112.321 35.0607 113.807V116.083H22.4636C18.9112 115.993 15.3699 116.517 11.9933 117.633C9.42142 118.516 7.05544 119.919 5.0403 121.756C3.30725 123.398 1.98885 125.433 1.19554 127.693C0.40184 129.915 -0.00225139 132.258 0.00128555 134.62C-0.0232168 136.856 0.302681 139.082 0.966671 141.216C1.63728 143.317 2.82466 145.212 4.41841 146.724C6.35238 148.498 8.66396 149.801 11.1753 150.534C14.7412 151.567 18.4439 152.04 22.1528 151.936C25.6222 151.921 29.0871 151.679 32.5252 151.21C35.9827 150.758 39.3589 149.814 42.5537 148.407C43.0667 148.185 43.4941 147.802 43.7715 147.314C44.049 146.826 44.1613 146.26 44.0915 145.702V113.164C44.0915 107.293 42.4557 102.807 39.3636 99.7069C36.2716 96.6065 31.1837 95.0892 24.3125 95.0892H24.3776ZM34.9301 142.47C33.789 142.891 32.6186 143.227 31.4288 143.476C30.1691 143.69 28.9748 143.904 27.7642 144.069C26.6816 144.25 25.5887 144.36 24.4922 144.399H22.0382C20.3091 144.407 18.5835 144.247 16.8849 143.921C15.4269 143.667 14.0287 143.142 12.7622 142.371C11.5891 141.627 10.6302 140.587 9.98106 139.353C9.25172 137.892 8.89715 136.27 8.95017 134.636C8.83045 132.566 9.35084 130.509 10.4392 128.749C11.3859 127.361 12.6549 126.229 14.1362 125.45C15.569 124.741 17.1137 124.289 18.7007 124.114C20.3367 123.95 21.7438 123.867 22.9708 123.867H34.9301V142.47ZM96.3453 96.2931H89.5069C89.1968 96.262 88.8854 96.3381 88.6238 96.5089C88.3622 96.6797 88.1661 96.9351 88.0674 97.2332L78.7095 126.093L73.8015 142.832H73.2943L68.1083 125.896L58.4392 97.2332C58.3438 96.9364 58.1505 96.6815 57.8917 96.5105C57.6328 96.3396 57.3241 96.2629 57.0161 96.2931H50.0795C49.3433 96.2931 49.0488 96.6395 49.2615 97.3321L66.1775 146.873C66.5817 148.255 67.331 149.51 68.3535 150.517C69.2742 151.108 70.356 151.391 71.4454 151.326H75.4703C76.6781 151.443 77.8827 151.075 78.8238 150.303C79.6547 149.264 80.2622 148.062 80.6072 146.774L97.2124 97.2991C97.3433 96.6064 97.0816 96.2601 96.4108 96.2601L96.3453 96.2931ZM140.845 101.521C138.933 99.3895 136.536 97.7593 133.859 96.7713C130.593 95.6088 127.146 95.0501 123.683 95.1222C120.426 95.0889 117.199 95.7463 114.211 97.0517C111.321 98.3199 108.749 100.225 106.685 102.626C104.464 105.251 102.794 108.303 101.777 111.597C100.486 115.531 99.8667 119.658 99.9448 123.801C99.8524 128.082 100.432 132.351 101.662 136.45C102.617 139.702 104.296 142.692 106.57 145.191C108.723 147.498 111.393 149.252 114.358 150.303C117.684 151.45 121.182 152.008 124.697 151.952C127.517 151.94 130.33 151.686 133.107 151.194C135.929 150.663 138.63 149.612 141.074 148.093C141.274 148.031 141.456 147.921 141.604 147.772C141.752 147.623 141.862 147.441 141.925 147.239C141.988 147.038 142.001 146.825 141.964 146.617C141.927 146.41 141.84 146.215 141.712 146.048L139.552 141.694C139.482 141.506 139.368 141.336 139.221 141.2C139.073 141.063 138.896 140.964 138.703 140.909C138.511 140.855 138.308 140.847 138.111 140.886C137.915 140.925 137.731 141.01 137.573 141.134C135.836 142.026 134.002 142.713 132.108 143.179C129.915 143.765 127.654 144.059 125.384 144.053C123.224 144.065 121.074 143.754 119.004 143.129C117.069 142.515 115.3 141.46 113.834 140.045C112.274 138.474 111.063 136.585 110.284 134.504C109.317 131.867 108.857 129.069 108.926 126.258H138.62C139.62 126.261 140.616 126.128 141.581 125.863C142.478 125.633 143.315 125.211 144.035 124.626C144.766 123.968 145.327 123.142 145.671 122.218C146.131 120.912 146.341 119.53 146.292 118.144C146.338 114.987 145.885 111.841 144.951 108.827C144.123 106.147 142.734 103.678 140.878 101.587L140.845 101.521ZM109.155 118.837C109.284 116.745 109.697 114.681 110.382 112.702C111.04 110.836 112.008 109.096 113.245 107.557C114.461 106.067 115.971 104.848 117.679 103.978C119.572 103.067 121.651 102.615 123.748 102.659C126.109 102.559 128.463 102.993 130.636 103.929C132.357 104.72 133.853 105.933 134.988 107.458C136.078 109.016 136.821 110.794 137.164 112.669C137.622 114.693 137.853 116.762 137.851 118.837H109.155ZM177.671 121.459L193.655 97.5465C193.794 97.2899 193.846 96.9945 193.802 96.7054C193.802 96.3591 193.459 96.1942 192.821 96.1942H186.113C185.665 96.1713 185.222 96.2989 184.853 96.5569C184.517 96.8209 184.215 97.1255 183.953 97.464L172.845 115.275L161.818 97.464C161.609 97.1142 161.337 96.8066 161.017 96.5569C160.578 96.2781 160.061 96.1508 159.544 96.1942H152.575C152.002 96.1942 151.708 96.392 151.626 96.7713C151.59 96.9416 151.594 97.1179 151.637 97.2866C151.679 97.4553 151.76 97.6119 151.872 97.7444L167.43 121.839L149.434 149.165C148.91 150.221 149.156 150.715 150.154 150.715H156.698C157.228 150.765 157.761 150.644 158.219 150.369C158.548 150.083 158.84 149.756 159.086 149.396L172.272 128.501L185.148 149.511C185.348 149.829 185.59 150.117 185.868 150.369C186.334 150.654 186.88 150.776 187.422 150.715H194.947C195.487 150.715 195.782 150.534 195.782 150.221C195.787 149.893 195.708 149.569 195.553 149.281L177.671 121.459ZM210.768 96.1942H205.189C204.747 96.1655 204.307 96.2565 203.912 96.458C203.602 96.6229 203.422 97.0517 203.422 97.7444V149.165C203.422 149.858 203.602 150.287 203.912 150.468C204.309 150.663 204.749 150.748 205.189 150.715H210.768C211.208 150.762 211.652 150.676 212.044 150.468C212.289 150.287 212.404 149.858 212.404 149.165V97.7938C212.404 97.1012 212.289 96.6724 212.044 96.5075C211.654 96.2922 211.21 96.2002 210.768 96.2436V96.1942ZM208.084 75.5797C207.289 75.5685 206.499 75.719 205.763 76.0222C205.027 76.3253 204.359 76.7751 203.798 77.3443C203.213 77.9026 202.75 78.5787 202.44 79.3286C202.13 80.0786 201.979 80.8857 201.998 81.698C201.988 82.4944 202.143 83.2843 202.453 84.0169C202.763 84.7496 203.221 85.4089 203.798 85.9529C204.362 86.5168 205.031 86.9619 205.767 87.2621C206.503 87.5623 207.29 87.7114 208.084 87.701C208.869 87.7139 209.648 87.5656 210.373 87.265C211.099 86.9645 211.756 86.518 212.305 85.9529C212.871 85.4032 213.317 84.7412 213.615 84.0088C213.914 83.2764 214.058 82.4896 214.04 81.698C214.055 80.9 213.912 80.1071 213.619 79.3654C213.327 78.6237 212.891 77.9482 212.337 77.3785C211.782 76.8088 211.12 76.3562 210.39 76.0473C209.66 75.7385 208.876 75.5795 208.084 75.5797ZM298.294 102.098C296.439 99.8024 294.035 98.0205 291.308 96.9198C287.94 95.6093 284.348 94.987 280.739 95.0892C277.092 95.0624 273.459 95.5736 269.958 96.6065C266.806 97.5202 263.818 98.9342 261.107 100.795C258.948 98.8117 256.385 97.326 253.598 96.4415C250.196 95.4604 246.666 95.0044 243.128 95.0892C240.51 95.0892 238.121 95.0892 235.913 95.3531C233.973 95.468 232.061 95.868 230.236 96.5404C228.779 97.0811 227.496 98.0102 226.522 99.2286C225.539 100.681 225.062 102.421 225.165 104.176V149.363C225.134 149.586 225.162 149.812 225.245 150.02C225.328 150.229 225.464 150.411 225.639 150.55C226.036 150.742 226.475 150.827 226.915 150.798H232.494C232.939 150.849 233.39 150.762 233.786 150.55C233.928 150.391 234.034 150.202 234.097 149.997C234.159 149.792 234.176 149.575 234.146 149.363V103.995C235.877 103.635 237.633 103.414 239.398 103.335C241.246 103.236 242.67 103.17 243.537 103.17C246.214 103.072 248.885 103.491 251.406 104.407C253.298 105.135 254.953 106.38 256.183 108.002C257.42 109.692 258.259 111.643 258.637 113.708C259.095 116.232 259.308 118.795 259.275 121.36V149.297C259.275 149.924 259.406 150.303 259.717 150.484C260.088 150.682 260.509 150.768 260.927 150.732H266.506C266.972 150.769 267.44 150.683 267.864 150.484C268.142 150.303 268.24 149.924 268.24 149.297V121.509C268.27 118.753 268.117 115.998 267.782 113.263C267.527 110.973 266.891 108.743 265.901 106.666C266.871 106.148 267.877 105.702 268.911 105.33C270.089 104.902 271.251 104.555 272.494 104.226C273.737 103.896 274.932 103.681 276.126 103.483C277.244 103.347 278.369 103.27 279.496 103.253C284.977 103.253 288.854 104.753 291.079 107.755C293.304 110.756 294.449 115.506 294.449 121.938V149.38C294.449 150.006 294.563 150.386 294.842 150.567C295.233 150.76 295.667 150.845 296.101 150.814H301.86C302.264 150.858 302.67 150.771 303.022 150.567C303.174 150.413 303.289 150.226 303.357 150.02C303.425 149.814 303.445 149.595 303.414 149.38V120.486C303.445 117.02 303.049 113.564 302.236 110.196C301.527 107.265 300.205 104.522 298.359 102.148L298.294 102.098ZM335.987 95.1387C332.879 95.1709 329.775 95.3966 326.695 95.8148C323.611 96.1994 320.591 96.9924 317.713 98.1731C317.189 98.371 316.862 98.6019 316.764 98.9317C316.65 99.2459 316.65 99.5906 316.764 99.9048L317.991 104.374C318.106 104.935 318.367 105.265 318.711 105.33C319.171 105.39 319.638 105.31 320.053 105.1C322.231 104.462 324.45 103.977 326.695 103.648C329.24 103.259 331.809 103.055 334.384 103.038C336.482 102.98 338.577 103.236 340.601 103.797C342.023 104.203 343.318 104.97 344.363 106.023C345.244 106.989 345.869 108.163 346.18 109.437C346.505 110.887 346.658 112.37 346.638 113.857V116.132H334.171C330.624 116.039 327.088 116.564 323.717 117.683C321.136 118.555 318.762 119.959 316.748 121.806C315.016 123.451 313.693 125.485 312.887 127.743C312.101 129.966 311.697 132.308 311.693 134.669C311.687 136.906 312.024 139.131 312.691 141.266C313.349 143.368 314.531 145.265 316.126 146.774C318.058 148.551 320.37 149.854 322.883 150.583C326.449 151.618 330.151 152.091 333.86 151.985C337.324 151.971 340.784 151.729 344.216 151.26C347.679 150.807 351.061 149.863 354.261 148.456C354.774 148.235 355.202 147.851 355.479 147.363C355.757 146.875 355.869 146.309 355.799 145.751V113.164C355.799 107.293 354.163 102.807 351.038 99.7069C347.914 96.6065 342.858 95.0892 336.02 95.0892L335.987 95.1387ZM346.621 142.47C345.486 142.893 344.321 143.229 343.136 143.476C341.909 143.69 340.682 143.904 339.455 144.069C338.373 144.251 337.28 144.361 336.183 144.399H333.795C332.066 144.409 330.34 144.249 328.642 143.921C327.173 143.667 325.764 143.142 324.486 142.371C323.327 141.616 322.375 140.578 321.721 139.353C320.997 137.891 320.649 136.269 320.707 134.636C320.586 132.57 321.094 130.516 322.163 128.749C323.114 127.377 324.368 126.248 325.827 125.45C327.273 124.745 328.828 124.293 330.425 124.114C332.061 123.95 333.468 123.867 334.711 123.867H346.654L346.621 142.47Z" fill="#626262"/>
</svg>
