<svg width="40" height="40" viewBox="0 0 40 40" fill="none" xmlns="http://www.w3.org/2000/svg">
<rect width="40" height="40" rx="20" fill="#032B5F"/>
<path d="M19.9999 27.7913H15.4166C12.6666 27.7913 10.8333 26.4163 10.8333 23.208L10.8333 16.7913C10.8333 13.583 12.6666 12.208 15.4166 12.208L24.5833 12.208C27.3333 12.208 29.1666 13.583 29.1666 16.7913V19.5413" stroke="white" stroke-width="1.5" stroke-miterlimit="10" stroke-linecap="round" stroke-linejoin="round"/>
<path d="M24.5834 17.25L21.7142 19.5417C20.7701 20.2933 19.2209 20.2933 18.2767 19.5417L15.4167 17.25" stroke="white" stroke-width="1.5" stroke-miterlimit="10" stroke-linecap="round" stroke-linejoin="round"/>
<path d="M26.6093 22.5389L23.3643 25.7839C23.236 25.9123 23.1168 26.1506 23.0893 26.3248L22.9151 27.5623C22.8509 28.0114 23.1626 28.3231 23.6118 28.259L24.8493 28.0848C25.0235 28.0573 25.271 27.9381 25.3901 27.8098L28.6351 24.5648C29.1943 24.0056 29.4601 23.3548 28.6351 22.5298C27.8193 21.714 27.1684 21.9798 26.6093 22.5389Z" stroke="white" stroke-width="1.5" stroke-miterlimit="10" stroke-linecap="round" stroke-linejoin="round"/>
<path d="M26.1418 23.0068C26.4168 23.9968 27.1868 24.7668 28.1768 25.0418" stroke="white" stroke-width="1.5" stroke-miterlimit="10" stroke-linecap="round" stroke-linejoin="round"/>
</svg>
