<svg xmlns="http://www.w3.org/2000/svg" width="844" height="672" viewBox="0 0 844 672" fill="none">
<path opacity="0.1" d="M433.959 621.2V609.013L424.3 616.445C367.442 660.192 291.007 666 259.556 666C150.252 666 87.2302 632.805 51.4046 590.942C17.2464 551.027 7.02554 502.322 6.07518 464.361H115.771C116.737 482.749 122.389 507.042 140.042 527.597C159.854 550.667 193.932 568.049 250.507 568.049C280.978 568.049 313.939 564.032 339.496 551.044C352.355 544.51 363.506 535.618 371.431 523.679C379.382 511.701 383.858 496.995 383.858 479.238C383.858 465.741 380.735 454.435 374.719 444.89C368.733 435.392 360.128 428.026 349.76 421.979C329.298 410.045 300.723 402.606 268.787 394.33L268.78 394.328L146.506 362.781L146.492 362.777L146.477 362.774C104.18 352.087 71.5275 333.714 49.4192 306.712C27.3426 279.749 15.2699 243.558 15.2699 196.242C15.2699 161.871 24.2748 114.358 56.8758 75.5354C89.2975 36.9267 145.828 6 242.782 6C332.239 6 388.782 36.0534 423.469 75.1925L433.959 87.0294V71.213V22.7014H540.04V361.4V378.027L550.657 365.232L697.838 187.86H826.687L677.018 360.955L674.266 364.137L676.32 367.809L833.769 649.299H706.141L600.564 449.297L596.594 441.775L590.839 448.039L541.621 501.623L540.043 503.341L540.04 505.673L539.828 649.299H433.959V621.2ZM433.959 206.68V200.68H427.959H362.867C360.895 185.672 356.412 163.195 340.522 143.656C322.381 121.35 290.326 103.951 233.733 103.951C208.817 103.951 181.061 108.867 159.31 121.557C137.257 134.423 121.35 155.375 121.35 186.499C121.35 213.445 132.066 230.366 146.555 241.155C160.613 251.622 177.864 256.019 190.328 259.122C190.335 259.124 190.342 259.125 190.349 259.127L338.361 296.915C338.369 296.918 338.378 296.92 338.386 296.922C369.745 305.22 399.755 315.48 424.832 330.798L433.959 336.373V325.678V206.68Z" stroke="url(#paint0_linear_44_12094)" stroke-width="12"/>
<defs>
<linearGradient id="paint0_linear_44_12094" x1="-7.86037e-07" y1="336" x2="844" y2="336" gradientUnits="userSpaceOnUse">
<stop stop-color="#EB5270"/>
<stop offset="0.185757" stop-color="#C53486"/>
<stop offset="0.369789" stop-color="#8A2567"/>
<stop offset="0.539931" stop-color="#1F2173"/>
<stop offset="0.713545" stop-color="#0075BC"/>
<stop offset="0.878478" stop-color="#00ABE9"/>
<stop offset="1" stop-color="#71C8F4"/>
</linearGradient>
</defs>
</svg>