<svg width="28" height="28" viewBox="0 0 28 28" fill="none" xmlns="http://www.w3.org/2000/svg">
<rect width="28" height="28" rx="14" fill="white"/>
<path d="M13.9993 18.9583H11.0827C9.33268 18.9583 8.16602 18.0833 8.16602 16.0416L8.16602 11.9583C8.16602 9.91663 9.33268 9.04163 11.0827 9.04163L16.916 9.04163C18.666 9.04163 19.8327 9.91663 19.8327 11.9583V13.7083" stroke="#032B5F" stroke-miterlimit="10" stroke-linecap="round" stroke-linejoin="round"/>
<path d="M16.9173 12.25L15.0915 13.7083C14.4906 14.1867 13.5048 14.1867 12.904 13.7083L11.084 12.25" stroke="#032B5F" stroke-miterlimit="10" stroke-linecap="round" stroke-linejoin="round"/>
<path d="M18.2058 15.6159L16.1408 17.6809C16.0591 17.7625 15.9833 17.9142 15.9658 18.025L15.8549 18.8125C15.8141 19.0984 16.0124 19.2967 16.2983 19.2559L17.0858 19.145C17.1966 19.1275 17.3541 19.0517 17.4299 18.97L19.4949 16.9051C19.8508 16.5492 20.0199 16.1351 19.4949 15.6101C18.9758 15.0909 18.5616 15.26 18.2058 15.6159Z" stroke="#032B5F" stroke-miterlimit="10" stroke-linecap="round" stroke-linejoin="round"/>
<path d="M17.9082 15.9133C18.0832 16.5433 18.5732 17.0333 19.2032 17.2083" stroke="#032B5F" stroke-miterlimit="10" stroke-linecap="round" stroke-linejoin="round"/>
</svg>
