<svg width="46.000000" height="46.000000" viewBox="0 0 46 46" fill="none" xmlns="http://www.w3.org/2000/svg" xmlns:xlink="http://www.w3.org/1999/xlink">
	<desc>
			Created with Pixso.
	</desc>
	<defs/>
	<path id="Vector" d="M23.02 46C27.79 46 32.6 44.52 36.72 41.46C41.65 37.79 44.86 32.43 45.75 26.33C46.64 20.26 45.11 14.18 41.44 9.25C33.86 -0.91 19.43 -3.04 9.25 4.54C4.33 8.2 1.13 13.58 0.24 19.65C-0.65 25.73 0.88 31.81 4.55 36.74C9.06 42.8 15.99 46 23.02 46ZM2.67 20.02C3.47 14.6 6.33 9.79 10.73 6.52C14.41 3.78 18.7 2.46 22.97 2.46C27.75 2.46 32.48 4.13 36.24 7.29L4.15 31.19C2.63 27.7 2.1 23.87 2.67 20.02ZM43.3 25.98C42.5 31.41 39.64 36.21 35.24 39.49C27.45 45.3 16.87 44.72 9.75 38.69L41.82 14.8C43.35 18.29 43.87 22.12 43.3 25.97L43.3 25.98ZM5.3 32.79L37.45 8.85C37.75 8.82 38.69 9.28 39.66 10.59C40.63 11.89 40.77 12.94 40.68 13.2L8.52 37.14C8.22 37.14 7.28 36.67 6.33 35.4C5.36 34.1 5.22 33.05 5.31 32.79L5.3 32.79Z" fill="#FDB8DB" fill-opacity="1.000000" fill-rule="nonzero"/>
</svg>
