<svg width="16.149902" height="9.074707" viewBox="0 0 16.1499 9.07471" fill="none" xmlns="http://www.w3.org/2000/svg" xmlns:xlink="http://www.w3.org/1999/xlink">
	<desc>
			Created with Pixso.
	</desc>
	<defs/>
	<path id="Rectangle" d="M0.29 1.71L7.36 8.78Q7.43 8.85 7.51 8.9Q7.6 8.96 7.69 8.99Q7.78 9.03 7.87 9.05Q7.97 9.07 8.07 9.07Q8.17 9.07 8.27 9.05Q8.36 9.03 8.45 8.99Q8.54 8.96 8.63 8.9Q8.71 8.85 8.78 8.78L15.85 1.71L14.43 0.29L7.36 7.36L8.07 8.07L8.78 7.36L1.71 0.29L0.29 1.71ZM15.82 1.71L15.85 1.71C16.24 1.31 16.24 0.69 15.85 0.29C15.45 -0.1 14.83 -0.1 14.43 0.29L14.43 0.32L15.82 1.71ZM1.71 0.32L1.71 0.29C1.31 -0.1 0.69 -0.1 0.29 0.29C-0.1 0.69 -0.1 1.31 0.29 1.71L0.32 1.71L1.71 0.32Z" fill="#008DCD" fill-opacity="1.000000" fill-rule="evenodd"/>
</svg>
