<svg width="16" height="16" viewBox="0 0 16.1458 30.292" fill="" xmlns="http://www.w3.org/2000/svg" xmlns:xlink="http://www.w3.org/1999/xlink">
	<path id="Rectangle" d="M1.71 0.29L15.85 14.43Q15.92 14.5 15.97 14.59Q16.03 14.67 16.06 14.76Q16.1 14.85 16.12 14.95Q16.14 15.04 16.14 15.14Q16.14 15.24 16.12 15.34Q16.1 15.43 16.06 15.52Q16.03 15.61 15.97 15.7Q15.92 15.78 15.85 15.85L1.71 29.99L0.29 28.58L14.43 14.43L15.14 15.14L14.43 15.85L0.29 1.71L1.71 0.29ZM1.71 29.96L1.71 29.99C1.31 30.39 0.69 30.39 0.29 29.99C-0.1 29.59 -0.1 28.97 0.29 28.58L0.32 28.58L1.71 29.96ZM0.32 1.71L0.29 1.71C-0.1 1.31 -0.1 0.69 0.29 0.29C0.69 -0.1 1.31 -0.1 1.71 0.29L1.71 0.32L0.32 1.71Z" fill="#C4C4C4" fill-opacity="1.000000" fill-rule="evenodd"/>
</svg>
