<?xml version="1.0" standalone="no"?>
<!DOCTYPE svg PUBLIC "-//W3C//DTD SVG 20010904//EN"
 "http://www.w3.org/TR/2001/REC-SVG-20010904/DTD/svg10.dtd">
<svg version="1.0" xmlns="http://www.w3.org/2000/svg"
 width="20" height="20" viewBox="0 0 900.000000 520.000000"
 preserveAspectRatio="xMidYMid meet">
<g transform="translate(0.000000,520.000000) scale(0.100000,-0.100000)"
fill="gold" stroke="none">
<path d="M4453 5187 c-12 -7 -46 -44 -76 -82 -74 -97 -1673 -2178 -1763 -2295
-40 -52 -77 -106 -82 -121 -15 -38 -3 -76 31 -105 25 -21 38 -25 67 -21 19 3
305 112 635 242 330 131 608 240 617 242 17 5 18 -74 20 -1451 l3 -1456 28
-27 27 -28 540 0 540 0 27 28 28 27 3 1456 c2 1377 3 1456 20 1451 9 -2 287
-111 617 -242 330 -130 616 -239 635 -242 70 -10 124 65 95 132 -18 43 -1892
2478 -1918 2492 -28 16 -66 16 -94 0z"/>
</g>
</svg>
