<svg xmlns="http://www.w3.org/2000/svg" width="7.61" height="6.65" viewBox="0 0 7.61 6.65">
	<style type="text/css">
		.st0{fill:#fff;}
	</style>
	<path class="st0" d="M1.4,1.36C1.18,1.36 0.96,1.44 0.79,1.58C0.39,1.91 0.32,2.51 0.66,2.92L3.06,5.86C3.38,6.25 4.01,6.32 4.4,5.99C4.6,5.83 4.72,5.6 4.75,5.35C4.77,5.09 4.7,4.84 4.54,4.65L2.14,1.71C1.96,1.49 1.69,1.36 1.4,1.36M3.8,6.65C3.38,6.65 2.98,6.47 2.71,6.14L0.31,3.2C-0.17,2.6 -0.08,1.72 0.51,1.23C1.09,0.76 2.01,0.85 2.48,1.43L4.88,4.36C5.37,4.96 5.29,5.85 4.69,6.34C4.44,6.54 4.12,6.65 3.8,6.65"/>
	<path class="st0" d="M1.69,4.75C1.62,4.75 1.56,4.73 1.51,4.67C1.43,4.58 1.45,4.43 1.54,4.36L3.37,2.86C3.47,2.79 3.61,2.8 3.68,2.9C3.76,2.99 3.75,3.13 3.65,3.21L1.83,4.7C1.79,4.74 1.74,4.75 1.69,4.75"/>
	<path class="st0" d="M5.93,0.44C5.64,0.44 5.36,0.54 5.14,0.72C4.89,0.93 4.73,1.23 4.7,1.55C4.66,1.88 4.76,2.21 4.97,2.46C5.38,2.97 6.2,3.05 6.71,2.64C7.24,2.2 7.32,1.42 6.88,0.9C6.65,0.61 6.3,0.44 5.93,0.44M5.93,3.36C5.42,3.36 4.94,3.14 4.62,2.74C4.34,2.4 4.21,1.96 4.25,1.51C4.3,1.06 4.51,0.66 4.86,0.38C5.16,0.13 5.54,0 5.93,0C6.43,0 6.91,0.22 7.23,0.61C7.82,1.33 7.71,2.39 6.99,2.98C6.69,3.23 6.31,3.36 5.93,3.36"/>
	<path class="st0" d="M5.49,3.29C5.47,3.29 5.45,3.29 5.43,3.29C5.31,3.25 5.24,3.13 5.27,3.01L6.04,0.23C6.07,0.11 6.2,0.04 6.32,0.07C6.44,0.1 6.51,0.23 6.47,0.34L5.7,3.13C5.68,3.23 5.59,3.29 5.49,3.29"/>
</svg>