<svg xmlns="http://www.w3.org/2000/svg" width="8.89" height="9.15" viewBox="0 0 8.89 9.15">
	<style type="text/css">
		.st0{fill:#fff;}
	</style>
	<path class="st0" d="M3.48,8.71L5.4,8.71L5.4,6.89C5.4,6.81 5.45,6.73 5.53,6.7C5.6,6.66 5.69,6.66 5.76,6.71L7.23,7.77L8.35,6.22L6.33,4.75C6.28,4.71 6.24,4.65 6.24,4.57C6.24,4.5 6.28,4.43 6.33,4.39L8.35,2.93L7.23,1.37L5.76,2.43C5.69,2.48 5.6,2.49 5.53,2.45C5.45,2.41 5.4,2.34 5.4,2.25L5.4,0.44L3.48,0.44L3.48,2.25C3.48,2.34 3.43,2.41 3.36,2.45C3.28,2.49 3.19,2.48 3.13,2.43L1.66,1.37L0.53,2.93L2.55,4.39C2.61,4.43 2.64,4.5 2.64,4.57C2.64,4.65 2.61,4.71 2.55,4.75L0.53,6.22L1.66,7.77L3.13,6.71C3.19,6.66 3.28,6.66 3.36,6.7C3.43,6.73 3.48,6.81 3.48,6.9ZM5.63,9.15L3.26,9.15C3.13,9.15 3.03,9.05 3.03,8.93L3.03,7.33L1.74,8.27C1.64,8.34 1.5,8.32 1.43,8.22L0.04,6.3C0,6.25 0,6.19 0,6.13C0.01,6.07 0.04,6.02 0.09,5.99L2.04,4.57L0.09,3.16C0.04,3.13 0.01,3.08 0,3.02C0,2.96 0,2.9 0.04,2.85L1.43,0.93C1.5,0.83 1.64,0.81 1.74,0.88L3.03,1.81L3.03,0.22C3.03,0.09 3.13,0 3.26,0L5.63,0C5.75,0 5.85,0.09 5.85,0.22L5.85,1.81L7.15,0.88C7.19,0.84 7.25,0.83 7.31,0.84C7.37,0.85 7.42,0.88 7.46,0.93L8.85,2.85C8.92,2.95 8.9,3.09 8.8,3.16L6.85,4.57L8.8,5.99C8.85,6.02 8.88,6.07 8.89,6.13C8.9,6.19 8.88,6.25 8.85,6.3L7.46,8.22C7.38,8.32 7.24,8.34 7.14,8.27L5.85,7.33L5.85,8.93C5.85,9.05 5.75,9.15 5.63,9.15"/>
	<path class="st0" d="M4.44,7.58C4.37,7.58 4.31,7.52 4.31,7.45L4.31,2.46C4.31,2.38 4.37,2.32 4.44,2.32C4.52,2.32 4.58,2.38 4.58,2.46L4.58,7.45C4.58,7.52 4.52,7.58 4.44,7.58"/>
	<path class="st0" d="M4.44,7.15C4.42,7.15 4.41,7.15 4.39,7.14C4.23,7.07 3.96,6.96 3.92,6.63C3.87,6.21 4.09,6.12 4.27,6.05L4.33,6.02C4.36,6.01 4.39,6 4.42,5.99C4.52,5.95 4.69,5.89 4.71,5.82C4.72,5.8 4.71,5.77 4.69,5.74C4.65,5.67 4.49,5.6 4.36,5.54C4.17,5.46 4,5.39 3.92,5.26C3.83,5.13 3.81,5.01 3.85,4.9C3.94,4.68 4.24,4.58 4.49,4.51L4.53,4.5C4.7,4.45 4.8,4.37 4.8,4.32C4.8,4.29 4.77,4.23 4.67,4.16C4.62,4.14 4.55,4.1 4.46,4.06C4.1,3.89 3.61,3.66 3.67,3.32C3.69,3.18 3.78,3.07 3.9,3C4.17,2.86 4.61,2.94 4.83,3.03C4.89,3.07 4.92,3.15 4.89,3.21C4.86,3.28 4.78,3.31 4.71,3.28C4.55,3.2 4.2,3.15 4.03,3.24C3.98,3.27 3.95,3.31 3.94,3.37C3.91,3.51 4.39,3.73 4.57,3.82C4.67,3.86 4.76,3.9 4.81,3.94C5.05,4.09 5.08,4.25 5.07,4.35C5.05,4.53 4.88,4.67 4.61,4.75L4.57,4.77C4.41,4.82 4.14,4.89 4.11,4.99C4.09,5.03 4.12,5.08 4.14,5.11C4.18,5.17 4.33,5.24 4.46,5.29C4.65,5.37 4.85,5.46 4.93,5.61C4.99,5.72 5,5.82 4.96,5.92C4.89,6.1 4.68,6.18 4.52,6.24C4.49,6.25 4.46,6.26 4.44,6.27L4.38,6.29C4.21,6.36 4.16,6.38 4.19,6.6C4.21,6.76 4.33,6.82 4.5,6.89C4.56,6.92 4.6,7 4.57,7.07C4.55,7.12 4.5,7.15 4.44,7.15"/>
	<path class="st0" d="M5,3.46C4.93,3.56 4.76,3.56 4.63,3.46C4.5,3.36 4.46,3.2 4.54,3.1C4.61,3 4.78,3 4.91,3.1C5.04,3.2 5.08,3.36 5,3.46"/>
</svg>