<svg xmlns="http://www.w3.org/2000/svg" width="8.42" height="9.04" viewBox="0 0 8.42 9.04">
	<style type="text/css">
		.st0{fill:#fff;}
	</style>
	<path class="st0" d="M4.34,0.35C3.55,0.35 2.71,2.03 2.71,4.52C2.71,7 3.55,8.68 4.34,8.68C5.12,8.68 5.97,7 5.97,4.52C5.97,2.03 5.12,0.35 4.34,0.35M4.34,9.04C3.22,9.04 2.35,7.05 2.35,4.52C2.35,1.98 3.22,0 4.34,0C5.45,0 6.32,1.98 6.32,4.52C6.32,7.05 5.45,9.04 4.34,9.04"/>
	<path class="st0" d="M1.82,2.06C1.25,2.06 0.85,2.21 0.7,2.49C0.5,2.84 0.68,3.4 1.17,4.03C1.71,4.71 2.55,5.39 3.54,5.94C4.71,6.59 5.94,6.97 6.85,6.97C7.42,6.97 7.82,6.82 7.97,6.54C8.17,6.19 8,5.63 7.5,5C6.96,4.32 6.12,3.64 5.13,3.09C3.96,2.44 2.73,2.06 1.82,2.06M6.85,7.33C5.87,7.33 4.6,6.94 3.37,6.25C2.34,5.68 1.46,4.97 0.89,4.25C0.29,3.5 0.11,2.81 0.38,2.32C0.61,1.91 1.11,1.7 1.82,1.7C2.8,1.7 4.07,2.09 5.3,2.78C6.34,3.35 7.22,4.06 7.78,4.78C8.38,5.53 8.56,6.22 8.29,6.71C8.06,7.12 7.56,7.33 6.85,7.33"/>
	<path class="st0" d="M6.84,2.07C5.94,2.07 4.71,2.45 3.55,3.09C2.55,3.64 1.71,4.31 1.17,4.99C0.67,5.61 0.5,6.17 0.69,6.52C0.85,6.81 1.25,6.96 1.83,6.96C2.73,6.96 3.96,6.58 5.12,5.94C6.12,5.39 6.96,4.72 7.5,4.04C8,3.42 8.17,2.86 7.98,2.51C7.82,2.22 7.42,2.07 6.84,2.07M1.83,7.32C1.1,7.32 0.6,7.11 0.38,6.7C0.11,6.21 0.29,5.52 0.89,4.77C1.46,4.05 2.34,3.35 3.38,2.77C4.6,2.1 5.87,1.71 6.84,1.71C7.57,1.71 8.07,1.92 8.29,2.33C8.56,2.82 8.38,3.51 7.78,4.26C7.21,4.98 6.33,5.68 5.3,6.26C4.07,6.93 2.8,7.32 1.83,7.32"/>
	<path class="st0" d="M4.34,4.15C4.14,4.15 3.98,4.32 3.98,4.51C3.98,4.71 4.14,4.87 4.34,4.87C4.53,4.87 4.7,4.71 4.7,4.51C4.7,4.32 4.53,4.15 4.34,4.15M4.34,5.23C3.94,5.23 3.62,4.91 3.62,4.51C3.62,4.12 3.94,3.8 4.34,3.8C4.73,3.8 5.05,4.12 5.05,4.51C5.05,4.91 4.73,5.23 4.34,5.23"/>
	<path class="st0" d="M5.95,8.06C5.95,8.35 5.72,8.59 5.42,8.59C5.13,8.59 4.89,8.35 4.89,8.06C4.89,7.77 5.13,7.53 5.42,7.53C5.72,7.53 5.95,7.77 5.95,8.06"/>
	<path class="st0" d="M1.06,3.75C1.06,4.04 0.82,4.28 0.53,4.28C0.23,4.28 0,4.04 0,3.75C0,3.45 0.23,3.22 0.53,3.22C0.82,3.22 1.06,3.45 1.06,3.75"/>
	<path class="st0" d="M7.57,1.88C7.57,2.17 7.33,2.41 7.03,2.41C6.74,2.41 6.5,2.17 6.5,1.88C6.5,1.59 6.74,1.35 7.03,1.35C7.33,1.35 7.57,1.59 7.57,1.88"/>
</svg>