<svg xmlns="http://www.w3.org/2000/svg" width="7.96" height="9.91" viewBox="0 0 7.96 9.91">
	<style type="text/css">
		.st0{fill:#fff;}
	</style>
	<path class="st0" d="M0.76 7.3L4.79 7.3L4.79 7.53L0.76 7.53ZM4.9,7.8L0.66,7.8C0.6,7.8 0.56,7.74 0.56,7.67L0.56,7.16C0.56,7.09 0.6,7.03 0.66,7.03L4.9,7.03C4.95,7.03 5,7.09 5,7.16L5,7.67C5,7.74 4.95,7.8 4.9,7.8"/>
	<path class="st0" d="M0.35 8.9L7.6 8.9L7.6 9.55L0.35 9.55ZM7.78,9.91L0.17,9.91C0.07,9.91 0,9.83 0,9.73L0,8.72C0,8.62 0.07,8.54 0.17,8.54L7.78,8.54C7.88,8.54 7.96,8.62 7.96,8.72L7.96,9.73C7.96,9.83 7.88,9.91 7.78,9.91"/>
	<path class="st0" d="M4.58,8.52L7.52,8.54C8.05,4.2 5.69,3.2 4.96,3L4.51,3.69C5.14,4.28 5.48,4.97 5.53,5.74C5.6,6.94 4.95,8.02 4.58,8.52M7.68,8.9L7.68,8.9L4.21,8.88C4.14,8.88 4.08,8.84 4.05,8.77C4.02,8.71 4.03,8.63 4.08,8.58C4.09,8.57 5.27,7.23 5.17,5.76C5.12,5.04 4.79,4.4 4.16,3.86C4.09,3.8 4.08,3.7 4.13,3.63L4.72,2.69C4.76,2.63 4.84,2.6 4.91,2.62C5.53,2.76 8.54,3.7 7.86,8.75C7.84,8.83 7.77,8.9 7.68,8.9"/>
	<path class="st0" d="M3.7,0.63L4.89,0.97L4.98,0.63L3.8,0.3ZM4.98,1.27C4.97,1.27 4.96,1.26 4.95,1.26L3.5,0.85C3.47,0.84 3.44,0.82 3.42,0.79C3.4,0.76 3.4,0.72 3.41,0.69L3.58,0.09C3.6,0.02 3.67,-0.01 3.74,0L5.19,0.41C5.26,0.43 5.3,0.5 5.28,0.57L5.11,1.17C5.1,1.2 5.08,1.23 5.05,1.25C5.03,1.26 5.01,1.27 4.98,1.27"/>
	<path class="st0" d="M2.46,4.41L3.89,4.81L4.71,1.9L3.28,1.49ZM4.01,5.21C3.99,5.21 3.98,5.21 3.96,5.2L2.19,4.7C2.14,4.69 2.1,4.66 2.08,4.62C2.05,4.57 2.05,4.53 2.06,4.48L2.98,1.22C3.01,1.13 3.11,1.07 3.2,1.1L4.98,1.6C5.07,1.63 5.13,1.73 5.1,1.82L4.18,5.08C4.17,5.12 4.14,5.16 4.1,5.19C4.07,5.2 4.04,5.21 4.01,5.21"/>
	<path class="st0" d="M3.08,1.07L5.11,1.65L5.2,1.33L3.17,0.76ZM5.2,1.95C5.19,1.95 5.18,1.94 5.17,1.94L2.88,1.29C2.8,1.27 2.76,1.2 2.78,1.13L2.94,0.56C2.95,0.52 2.98,0.49 3.01,0.48C3.04,0.46 3.07,0.45 3.11,0.46L5.4,1.11C5.47,1.13 5.51,1.2 5.49,1.28L5.33,1.85C5.32,1.88 5.3,1.91 5.27,1.93C5.25,1.94 5.23,1.95 5.2,1.95"/>
	<path class="st0" d="M1.98,4.91L4.11,5.51L4.18,5.25L2.05,4.65ZM4.2,5.81C4.19,5.81 4.17,5.8 4.16,5.8L1.77,5.13C1.74,5.12 1.71,5.09 1.69,5.06C1.67,5.03 1.67,5 1.68,4.96L1.83,4.44C1.85,4.37 1.92,4.33 1.99,4.35L4.38,5.02C4.45,5.05 4.49,5.12 4.47,5.19L4.33,5.71C4.32,5.74 4.29,5.77 4.26,5.79C4.24,5.8 4.22,5.81 4.2,5.81"/>
	<path class="st0" d="M2.47,5.69L3.26,5.91L3.33,5.65L2.54,5.43ZM3.35,6.21C3.34,6.21 3.33,6.21 3.32,6.21L2.27,5.91C2.24,5.9 2.21,5.88 2.19,5.85C2.17,5.82 2.17,5.78 2.18,5.75L2.32,5.23C2.34,5.16 2.42,5.12 2.49,5.14L3.53,5.43C3.61,5.45 3.65,5.53 3.63,5.6L3.48,6.12C3.47,6.15 3.45,6.18 3.42,6.2C3.4,6.21 3.38,6.21 3.35,6.21"/>
	<path class="st0" d="M4.37,2.45C4.01,2.45 3.74,2.71 3.72,3.05C3.71,3.39 3.98,3.68 4.32,3.69L4.38,3.69C4.78,3.69 4.95,3.53 4.96,3.1C4.98,2.76 4.71,2.47 4.37,2.45M4.38,3.96L4.31,3.96C3.82,3.94 3.44,3.52 3.46,3.04C3.48,2.56 3.87,2.18 4.35,2.18C4.35,2.18 4.38,2.18 4.38,2.18C4.87,2.2 5.25,2.62 5.23,3.11C5.21,3.68 4.92,3.96 4.38,3.96"/>
	<path class="st0" d="M5.04,3.1C5.02,3.48 4.7,3.78 4.32,3.76C3.93,3.75 3.64,3.43 3.65,3.04C3.67,2.66 3.99,2.36 4.38,2.38C4.76,2.4 5.05,2.72 5.04,3.1"/>
</svg>