<svg width="25" height="25" viewBox="0 0 25 25" fill="none" xmlns="http://www.w3.org/2000/svg" xmlns:xlink="http://www.w3.org/1999/xlink">
	<defs/>
	<path id="Vector" d="M13.04 0.2C12.89 0.07 12.69 0 12.5 0C12.3 0 12.1 0.07 11.95 0.2L0 10.45L0 22.5C0 23.16 0.26 23.79 0.73 24.26C1.19 24.73 1.83 25 2.5 25L9.16 25C9.38 25 9.6 24.91 9.75 24.75C9.91 24.6 10 24.39 10 24.16L10 19.16C10 18.5 10.26 17.86 10.73 17.39C11.19 16.92 11.83 16.66 12.5 16.66C13.16 16.66 13.8 16.92 14.26 17.39C14.73 17.86 15 18.5 15 19.16L15 24.16C15 24.39 15.08 24.6 15.24 24.75C15.39 24.91 15.61 25 15.83 25L22.5 25C23.16 25 23.8 24.73 24.26 24.26C24.73 23.79 25 23.16 25 22.5L25 10.45L13.04 0.2Z" fill="#FFFFFF" fill-opacity="1.000000" fill-rule="nonzero"/>
</svg>
