<?xml version="1.0" standalone="no"?>
<!DOCTYPE svg PUBLIC "-//W3C//DTD SVG 20010904//EN"
 "http://www.w3.org/TR/2001/REC-SVG-20010904/DTD/svg10.dtd">
<svg version="1.0" xmlns="http://www.w3.org/2000/svg"
 width="1280.000000pt" height="160.000000pt" viewBox="0 0 1280.000000 160.000000"
 preserveAspectRatio="xMidYMid meet">
<metadata>
Created by potrace 1.16, written by Peter Selinger 2001-2019
</metadata>
<g transform="translate(0.000000,160.000000) scale(0.100000,-0.100000)"
fill="#000000" stroke="none">
<path d="M12610 1573 c-1402 -109 -2621 -520 -3490 -1178 -146 -110 -420 -353
-420 -371 0 -2 109 -4 241 -4 l242 0 98 95 c545 522 1326 952 2202 1209 379
112 726 181 1222 245 l70 8 -60 0 c-33 0 -80 -2 -105 -4z"/>
<path d="M4068 948 c-46 -57 -87 -108 -90 -114 -4 -6 60 -102 141 -215 l149
-204 -313 -3 -313 -2 -78 -83 -77 -82 456 -3 456 -2 78 -110 78 -110 183 0
c153 0 182 2 175 14 -20 35 -749 1015 -755 1016 -4 0 -44 -46 -90 -102z"/>
<path d="M210 991 c-66 -23 -114 -72 -130 -132 -7 -26 -11 -93 -8 -164 3 -114
5 -124 31 -164 20 -31 44 -50 85 -69 l57 -27 478 -3 477 -3 0 -104 0 -105
-581 0 -580 0 6 -22 c18 -61 61 -113 120 -143 l59 -30 540 0 c605 0 603 0 665
70 42 48 51 91 51 235 0 144 -15 190 -72 233 -80 61 -80 61 -590 65 l-468 3 0
100 0 99 550 0 c469 0 550 2 550 14 0 29 -67 102 -120 131 l-55 30 -505 2
c-475 3 -508 2 -560 -16z"/>
<path d="M1880 515 l0 -495 155 0 155 0 0 190 0 189 463 3 463 3 59 30 c45 23
67 42 89 78 26 43 30 58 34 151 7 169 -31 253 -142 305 -81 37 -142 41 -718
41 l-558 0 0 -495z m1131 286 c14 -17 19 -39 19 -83 0 -68 -19 -113 -52 -122
-13 -3 -195 -6 -405 -6 l-383 0 0 120 0 121 401 -3 401 -3 19 -24z"/>
<path d="M5330 994 c-64 -22 -109 -60 -131 -108 -17 -37 -19 -70 -19 -364 0
-346 3 -366 53 -420 71 -77 144 -85 724 -80 l468 3 57 27 c61 28 102 78 114
136 l7 32 -557 0 -556 0 0 305 0 305 555 0 c533 0 555 1 555 18 0 37 -57 99
-117 128 l-58 29 -525 2 c-455 2 -531 0 -570 -13z"/>
<path d="M7030 920 l0 -90 675 0 675 0 0 90 0 90 -675 0 -675 0 0 -90z"/>
<path d="M8730 1006 c0 -7 547 -406 556 -406 12 1 255 153 257 162 1 4 -74 61
-167 127 l-169 121 -239 0 c-131 0 -238 -2 -238 -4z"/>
<path d="M7000 350 l0 -330 670 0 670 0 0 95 0 95 -515 0 -515 0 0 145 0 145
300 0 300 0 0 90 0 90 -455 0 -455 0 0 -330z"/>
<path d="M9760 424 c-63 -46 -115 -88 -115 -94 0 -5 93 -77 207 -160 l206
-150 243 2 243 3 -331 243 c-182 133 -333 242 -334 241 -2 0 -56 -38 -119 -85z"/>
</g>
</svg>
