<svg width="1326.140625" height="1247.186523" viewBox="0 0 1326.14 1247.19" fill="none" xmlns="http://www.w3.org/2000/svg" xmlns:xlink="http://www.w3.org/1999/xlink">
	<desc>
			Created with Pixso.
	</desc>
	<defs>
		<filter id="filter_30_1369_dd" x="0.000000" y="0.000000" width="1326.140625" height="1247.186523" filterUnits="userSpaceOnUse" color-interpolation-filters="sRGB">
			<feFlood flood-opacity="0" result="BackgroundImageFix"/>
			<feBlend mode="normal" in="SourceGraphic" in2="BackgroundImageFix" result="shape"/>
			<feColorMatrix in="SourceAlpha" type="matrix" values="0 0 0 0 0 0 0 0 0 0 0 0 0 0 0 0 0 0 127 0" result="hardAlpha"/>
			<feOffset dx="0" dy="22"/>
			<feGaussianBlur stdDeviation="18.0333"/>
			<feComposite in2="hardAlpha" operator="arithmetic" k2="-1" k3="1"/>
			<feColorMatrix type="matrix" values="0 0 0 0 0 0 0 0 0 0 0 0 0 0 0 0 0 0 0.12 0"/>
			<feBlend mode="normal" in2="shape" result="effect_innerShadow_1"/>
		</filter>
	</defs>
	<g filter="url(#filter_30_1369_dd)">
		<path id="Vector" d="M844.11 1194.96C838.58 1193.65 832.58 1191.59 826.04 1188.55C773.12 1163.97 685.93 1075.86 558.56 807.75C557.16 804.93 556.99 801.6 558.08 798.68C559.2 795.68 561.37 793.34 564.15 792.01L634.62 758.99L544.06 760.19C539.37 760.18 535.15 757.58 533.23 753.35C483.78 645.65 441.15 560.81 409.52 498.96C408.12 496.15 407.95 492.81 409 489.78C410.05 486.74 412.22 484.23 415.15 482.97L478.48 453.23L394.13 454.51C389.69 454.52 385.51 452.04 383.46 448.1C282.36 251.82 282.04 182.3 324.05 109.77C372.99 147.96 547.82 291.33 677.34 482.84C838.42 720.98 894.29 959.75 844.19 1195L844.11 1194.96Z" fill="#FFFFFF" fill-opacity="1.000000" fill-rule="nonzero"/>
		<path id="Vector" d="M877.35 1193.24C875.8 1194.06 872.65 1195.56 867.58 1196.38C927.72 900.04 814.73 643.59 696.52 468.98C570.5 282.98 402.85 142.05 345.14 96.27C433.68 84.83 576.2 70.38 729.36 171.71C732.05 173.5 733.93 176.45 734.5 179.7C735 182.91 734.14 186.3 732.05 188.86L687.35 245.41L764.46 205.45C768.62 203.31 773.84 203.93 777.48 206.8C816.34 238.49 854.52 277.28 890.87 322.16C892.88 324.64 893.79 327.94 893.33 331.07C892.87 334.2 891.3 337.18 888.57 338.98L828.12 383.7L914.95 365.06C919.57 364.04 924.32 365.89 927.03 369.58C959.65 414.91 991.64 466.44 1021.98 522.9C1068.97 610.4 1097.13 694.3 1105.32 772.36C1105.94 778.79 1101.39 784.53 1094.89 785.3L998.85 796.33L1099.31 828.46C1104.25 830.12 1107.68 834.78 1107.51 840.21C1097.31 1081.35 887.91 1188.03 877.28 1193.21L877.35 1193.24Z" fill="#FFFFFF" fill-opacity="1.000000" fill-rule="nonzero"/>
	</g>
</svg>
