<svg width="96.324219" height="96.324219" viewBox="0 0 96.3242 96.3242" fill="none" xmlns="http://www.w3.org/2000/svg" xmlns:xlink="http://www.w3.org/1999/xlink">
	<path id="Vector" d="M48.11 95.49C22.09 95.49 0.92 74.32 0.92 48.3C0.92 22.28 22.09 1.11 48.11 1.11C74.13 1.11 95.3 22.28 95.3 48.3C95.3 74.32 74.13 95.49 48.11 95.49Z" fill="#FFFFFF" fill-opacity="1.000000" fill-rule="nonzero"/>
	<path id="Vector" d="M48.16 0C21.56 0 0 21.56 0 48.16C0 74.75 21.56 96.32 48.16 96.32C74.75 96.32 96.32 74.75 96.32 48.16C96.32 21.56 74.75 0 48.16 0ZM48.16 90.39C37.5 90.39 27.77 86.44 20.34 79.93L36.11 64.15L32.16 60.2L16.39 75.98C9.88 68.55 5.93 58.82 5.93 48.16C5.93 24.83 24.83 5.93 48.16 5.93C58.81 5.93 68.55 9.88 75.98 16.39L60.45 31.91L64.4 35.86L79.93 20.34C86.44 27.77 90.38 37.5 90.38 48.16C90.38 71.47 71.47 90.39 48.16 90.39Z" fill="" fill-opacity="1.000000" fill-rule="nonzero"/>
	<path id="Vector" d="M55.64 16.08L42.02 16.08C41.04 16.08 40.24 16.87 40.24 17.86C40.24 18.84 41.04 19.64 42.02 19.64L42.62 19.64L42.62 26.64C42.62 26.64 42.59 26.72 42.59 26.77C42.59 26.81 42.6 26.85 42.62 26.89L42.62 37.83C42.62 37.83 42.59 37.9 42.59 37.95C42.59 38 42.6 38.04 42.62 38.08L42.62 49.01C42.62 49.01 42.59 49.09 42.59 49.14C42.59 49.19 42.6 49.23 42.62 49.27L42.62 75.54C42.62 79.04 45.46 81.89 48.97 81.89C52.48 81.89 55.32 79.05 55.32 75.54L55.32 19.64L55.65 19.64C56.64 19.64 57.43 18.84 57.43 17.86C57.43 16.87 56.64 16.08 55.65 16.08L55.64 16.08ZM44.56 75.55L44.56 60.39L47.65 60.39L47.65 76.3C47.65 77.73 48.08 79.02 48.76 79.94C46.43 79.82 44.56 77.91 44.56 75.56L44.56 75.55ZM53.37 58.45L44.56 58.45L44.56 49.64L50.13 49.64C50.4 49.64 50.61 49.42 50.61 49.15C50.61 48.88 50.4 48.66 50.13 48.66L44.56 48.66L44.56 38.45L50.13 38.45C50.4 38.45 50.61 38.23 50.61 37.96C50.61 37.69 50.4 37.48 50.13 37.48L44.56 37.48L44.56 27.26L50.13 27.26C50.4 27.26 50.61 27.05 50.61 26.78C50.61 26.5 50.4 26.29 50.13 26.29L44.56 26.29L44.56 19.65L53.37 19.65L53.37 58.46L53.37 58.45Z" fill="" fill-opacity="1.000000" fill-rule="nonzero"/>
</svg>
