<svg width="96.324219" height="96.324219" viewBox="0 0 96.3242 96.3242" fill="none" xmlns="http://www.w3.org/2000/svg" xmlns:xlink="http://www.w3.org/1999/xlink">
	<defs/>
	<path id="Vector" d="M48.16 0C21.56 0 0 21.56 0 48.16C0 74.75 21.56 96.32 48.16 96.32C74.75 96.32 96.32 74.75 96.32 48.16C96.32 21.56 74.75 0 48.16 0ZM48.16 90.39C37.5 90.39 27.77 86.44 20.34 79.93L28.64 71.62L24.69 67.67L16.39 75.98C9.88 68.55 5.93 58.82 5.93 48.16C5.93 24.83 24.83 5.93 48.16 5.93C58.81 5.93 68.55 9.88 75.98 16.39L64.94 27.43L68.89 31.38L79.93 20.34C86.44 27.77 90.38 37.5 90.38 48.16C90.38 71.47 71.47 90.39 48.16 90.39Z" fill="" fill-opacity="1.000000" fill-rule="nonzero"/>
	<path id="Vector" d="M49.07 17.44C45.31 30.71 29.96 40.87 29.96 53.36C29.96 63.92 38.52 72.47 49.07 72.47C59.62 72.47 68.18 63.92 68.18 53.36C68.18 39.35 53.4 30.18 49.07 17.44ZM49.2 22.56C51.21 26.37 53.91 29.87 56.55 33.28C61.07 39.15 65.39 45.86 65.39 52.54L60.41 55.95C60.41 49.68 59.14 43.3 54.63 34.06C52.99 30.69 50.65 26.53 48.91 23.12C49 22.93 49.11 22.75 49.2 22.56ZM49.15 69.7C40.26 69.7 33.05 62.5 33.05 53.6C33.05 49.92 34.3 46.53 36.38 43.82C36.28 44.57 36.2 45.34 36.2 46.11C36.2 55.01 43.41 62.21 52.29 62.21C57.49 62.21 62.11 59.73 65.05 55.9C63.93 63.7 57.25 69.7 49.14 69.7L49.15 69.7Z" fill="" fill-opacity="1.000000" fill-rule="nonzero"/>
</svg>
