<svg width="35.000000" height="43.000000" viewBox="0 0 35 43" fill="none" xmlns="http://www.w3.org/2000/svg" xmlns:xlink="http://www.w3.org/1999/xlink">
	<desc>
			Created with Pixso.
	</desc>
	<defs/>
	<path id="Vector" d="M17.21 42.96C17.4 43.01 17.6 43.01 17.78 42.96C27.18 40.85 34.14 32.81 34.99 23.11C34.99 23.07 35 23.03 35 22.99L35 7.56C35 6.88 34.48 6.3 33.81 6.23C28.2 5.63 22.85 3.57 18.27 0.25C17.81 -0.09 17.18 -0.09 16.72 0.25C12.14 3.57 6.79 5.63 1.18 6.23C0.51 6.3 0 6.88 0 7.56L0 22.99C0 23.03 0 23.07 0 23.11C0.85 32.82 7.81 40.85 17.21 42.96Z" fill="#FFFFFF" fill-opacity="1.000000" fill-rule="nonzero"/>
</svg>
