<svg width="54.371094" height="58.114502" viewBox="0 0 54.3711 58.1145" fill="none" xmlns="http://www.w3.org/2000/svg" xmlns:xlink="http://www.w3.org/1999/xlink">
	<desc>
			Created with Pixso.
	</desc>
	<defs/>
	<path id="Vector" d="M25.65 1.25C26.07 -0.42 28.28 -0.42 28.71 1.25L33.66 20.93C33.81 21.51 34.24 21.96 34.78 22.12L53.2 27.42C54.76 27.87 54.76 30.24 53.2 30.69L34.78 35.99C34.24 36.15 33.81 36.6 33.66 37.18L28.71 56.86C28.28 58.53 26.07 58.53 25.65 56.86L20.69 37.18C20.54 36.6 20.12 36.15 19.58 35.99L1.17 30.68C-0.4 30.23 -0.4 27.87 1.17 27.42L19.58 22.12C20.12 21.96 20.54 21.5 20.69 20.92L25.65 1.25Z" fill="#FFFFFF" fill-opacity="1.000000" fill-rule="nonzero"/>
</svg>
