<svg width="64.137695" height="68.553467" viewBox="0 0 64.1377 68.5535" fill="none" xmlns="http://www.w3.org/2000/svg" xmlns:xlink="http://www.w3.org/1999/xlink">
	<desc>
			Created with Pixso.
	</desc>
	<defs/>
	<path id="Vector" d="M30.26 1.47C30.76 -0.5 33.37 -0.5 33.86 1.47L39.71 24.69C39.89 25.38 40.39 25.91 41.03 26.1L62.75 32.35C64.59 32.88 64.59 35.67 62.75 36.2L41.03 42.45C40.39 42.64 39.89 43.18 39.71 43.86L33.86 67.07C33.37 69.04 30.76 69.04 30.26 67.07L24.41 43.86C24.24 43.17 23.73 42.64 23.09 42.45L1.38 36.2C-0.47 35.66 -0.47 32.87 1.38 32.34L23.09 26.09C23.74 25.9 24.24 25.37 24.41 24.68L30.26 1.47Z" fill="#FD7E91" fill-opacity="1.000000" fill-rule="nonzero"/>
</svg>
