<svg width="96.324219" height="96.324219" viewBox="0 0 96.3242 96.3242" fill="none" xmlns="http://www.w3.org/2000/svg" xmlns:xlink="http://www.w3.org/1999/xlink">
	<path id="Vector" d="M48.35 95.3C22.33 95.3 1.16 74.13 1.16 48.11C1.16 22.09 22.33 0.92 48.35 0.92C74.37 0.92 95.54 22.09 95.54 48.11C95.54 74.13 74.37 95.3 48.35 95.3Z" fill="#FFFFFF" fill-opacity="1.000000" fill-rule="nonzero"/>
	<path id="Vector" d="M48.16 0C21.56 0 0 21.56 0 48.16C0 74.75 21.56 96.32 48.16 96.32C74.75 96.32 96.32 74.75 96.32 48.16C96.32 21.56 74.75 0 48.16 0ZM48.16 90.39C37.5 90.39 27.77 86.44 20.34 79.93L29.31 70.95L25.37 67L16.39 75.98C9.88 68.55 5.93 58.82 5.93 48.16C5.93 24.83 24.83 5.93 48.16 5.93C58.81 5.93 68.55 9.88 75.98 16.39L63.92 28.45L67.87 32.4L79.93 20.34C86.44 27.77 90.38 37.5 90.38 48.16C90.38 71.47 71.47 90.39 48.16 90.39Z" fill="" fill-opacity="1.000000" fill-rule="nonzero"/>
	<path id="Vector" d="M62.02 69.81C62.02 70.07 61.81 70.15 61.55 69.99L50.34 63.09C50.08 62.93 49.88 62.59 49.88 62.33L49.88 51.12C49.88 50.86 50.08 50.78 50.34 50.95L61.55 57.85C61.81 58 62.02 58.34 62.02 58.6L62.02 69.81Z" fill="" fill-opacity="1.000000" fill-rule="nonzero"/>
	<path id="Vector" d="M36.02 68.99C36.02 69.26 35.81 69.33 35.55 69.17L24.34 62.27C24.08 62.12 23.88 61.78 23.88 61.51L23.88 50.31C23.88 50.04 24.08 49.97 24.34 50.13L35.55 57.03C35.81 57.18 36.02 57.53 36.02 57.79L36.02 68.99Z" fill="" fill-opacity="1.000000" fill-rule="nonzero"/>
	<path id="Vector" d="M48.45 47.13C48.45 47.39 48.25 47.47 47.99 47.3L36.78 40.4C36.52 40.25 36.31 39.91 36.31 39.64L36.31 28.44C36.31 28.18 36.52 28.1 36.78 28.26L47.99 35.16C48.25 35.32 48.45 35.66 48.45 35.92L48.45 47.13Z" fill="" fill-opacity="1.000000" fill-rule="nonzero"/>
	<path id="Vector" d="M60.37 27.02L48.87 20.14C48.61 19.98 48.04 20.06 47.61 20.32L37.73 26.32C37.3 26.57 37.16 26.91 37.43 27.07L48.93 33.94C49.19 34.1 49.76 34.02 50.2 33.77L60.08 27.77C60.51 27.51 60.65 27.17 60.38 27.02L60.37 27.02ZM48.57 24.06L40.97 26.93L40.72 26.78L48.39 22.12L56.66 27.09L48.56 24.07L48.57 24.06Z" fill="" fill-opacity="1.000000" fill-rule="nonzero"/>
	<path id="Vector" d="M47.9 48.73L36.4 41.85C36.14 41.7 35.57 41.78 35.13 42.03L25.26 48.03C24.83 48.28 24.69 48.62 24.96 48.78L36.46 55.66C36.72 55.81 37.28 55.73 37.72 55.48L47.59 49.48C48.02 49.23 48.17 48.89 47.9 48.73ZM36.29 45.58L28.69 48.45L28.44 48.3L36.11 43.64L44.38 48.6L36.28 45.59L36.29 45.58Z" fill="" fill-opacity="1.000000" fill-rule="nonzero"/>
	<path id="Vector" d="M73.5 49.55L62.01 42.67C61.74 42.51 61.18 42.59 60.74 42.85L50.87 48.85C50.43 49.1 50.29 49.44 50.57 49.6L62.07 56.47C62.33 56.63 62.89 56.55 63.33 56.3L73.2 50.3C73.64 50.04 73.78 49.7 73.5 49.55ZM61.9 46.39L54.3 49.26L54.05 49.11L61.71 44.45L69.99 49.41L61.89 46.4L61.9 46.39Z" fill="" fill-opacity="1.000000" fill-rule="nonzero"/>
	<path id="Vector" d="M73.97 51.6L63.81 57.85C63.56 58 63.34 58.34 63.34 58.6L63.34 69.81C63.34 70.07 63.55 70.15 63.81 69.99L73.97 63.74C74.23 63.59 74.43 63.25 74.43 62.98L74.43 51.78C74.43 51.51 74.23 51.44 73.97 51.6ZM72.94 62.53L65.55 67.21L71.45 61.8L72.81 54.17L73.03 54.02L72.94 62.52L72.94 62.53Z" fill="" fill-opacity="1.000000" fill-rule="nonzero"/>
	<path id="Vector" d="M60.88 28.92L50.72 35.16C50.46 35.32 50.25 35.66 50.25 35.92L50.25 47.13C50.25 47.39 50.46 47.47 50.72 47.3L60.88 41.06C61.14 40.9 61.34 40.56 61.34 40.3L61.34 29.09C61.34 28.83 61.14 28.75 60.88 28.92ZM60.05 39.91L52.66 44.6L58.55 39.18L59.91 31.55L60.14 31.41L60.05 39.9L60.05 39.91Z" fill="" fill-opacity="1.000000" fill-rule="nonzero"/>
	<path id="Vector" d="M47.96 50.78L37.8 57.03C37.54 57.18 37.33 57.52 37.33 57.79L37.33 68.99C37.33 69.26 37.54 69.33 37.8 69.17L47.96 62.92C48.22 62.77 48.42 62.43 48.42 62.16L48.42 50.96C48.42 50.7 48.22 50.62 47.96 50.78ZM47.15 61.67L39.76 66.36L45.65 60.94L47.01 53.31L47.24 53.17L47.15 61.66L47.15 61.67Z" fill="" fill-opacity="1.000000" fill-rule="nonzero"/>
</svg>
