<svg width="41" height="32" viewBox="0 0 41 32" fill="none" xmlns="http://www.w3.org/2000/svg">
<path d="M22.0631 0.0999756C14.792 0.0999756 12.0918 5.71826 14.1706 10.4781C13.9112 10.6511 13.4948 11.1924 13.5813 12.1437C13.7542 13.8734 14.5326 14.2866 14.965 14.3731C15.138 16.0163 16.179 17.9318 16.7844 18.1912C16.7844 19.3155 16.7684 20.2572 16.6819 21.4712C15.3558 24.953 6.88031 24.1458 5.79125 30.3887C5.7432 30.661 6.02508 31.26 6.58563 31.26H34.44C35.2728 31.26 35.2568 30.645 35.2087 30.3631C34.1005 24.1458 25.6442 24.9498 24.3181 21.4712C24.2316 20.1708 24.2156 19.3155 24.2156 18.1912C24.821 17.9318 25.7852 15.9298 25.9581 14.3731C26.3905 14.3731 27.0824 13.851 27.3419 12.1181C27.4284 11.1668 27.0728 10.5646 26.7269 10.4781C28.1106 8.74841 27.8608 1.6631 22.755 1.6631L22.0631 0.0999756ZM12.4281 4.19998C6.95398 4.29287 4.55484 8.64912 6.20125 12.3744C6.02508 12.4608 5.67914 12.9189 5.76562 13.7069C5.9418 15.1098 6.46391 15.4494 6.81625 15.4494C6.98922 16.7626 7.76437 18.2361 8.2 18.4987C8.2 19.3732 8.20961 19.3476 8.12313 20.395C7.41203 22.6372 0 22.4706 0 27.98C0 27.98 0 28.8 0.82 28.8H4.53562C5.78805 25.2573 9.19297 23.8928 11.7619 22.8806C13.1777 22.3233 14.6287 21.7595 15.0675 21.0612C15.1155 20.2989 15.1412 19.6519 15.1444 18.9344C14.366 18.0439 13.7863 16.6569 13.5044 15.475C12.8381 14.9817 12.1174 14.0336 11.9412 12.2719C11.8644 11.4358 12.0405 10.7408 12.3256 10.1962C11.6754 8.17505 11.717 6.0642 12.4281 4.19998ZM31.16 4.19998C30.3752 4.19998 29.4495 4.26404 28.5719 4.40498C29.2285 6.33005 29.2541 8.6299 28.6744 10.2731C28.9306 10.8369 29.0491 11.5223 28.9819 12.2719L28.9562 12.3231V12.3744C28.7128 13.9855 28.1202 14.9657 27.4187 15.5006C27.1529 16.6089 26.6116 18.0086 25.8556 18.9087C25.8588 19.6134 25.8845 20.2476 25.9325 21.0612C26.3713 21.7595 27.8255 22.3233 29.2381 22.8806C31.8038 23.8896 35.2087 25.2573 36.4644 28.8H40.18C41 28.8 41 28.0056 41 28.0056C41.0032 21.6634 33.982 23.1657 32.9281 20.2669C32.8384 19.2995 32.8256 19.3892 32.8256 18.4219C33.2645 18.1592 34.0716 16.6826 34.1581 15.4494C34.5105 15.4494 35.0326 15.0874 35.2087 13.6812C35.2952 12.9797 35.0358 12.4608 34.7731 12.3744C35.8302 10.9682 35.6572 5.42998 31.6981 5.42998L31.16 4.19998Z" fill="url(#paint0_linear_436_103)"/>
<defs>
<linearGradient id="paint0_linear_436_103" x1="46.2564" y1="0.0999765" x2="11.2421" y2="40.9176" gradientUnits="userSpaceOnUse">
<stop offset="0.25" stop-color="#3B768F"/>
<stop offset="0.536458" stop-color="#3EC6FF"/>
<stop offset="0.817708" stop-color="#3B768F"/>
</linearGradient>
</defs>
</svg>
