<svg width="36" height="36" viewBox="0 0 36 36" fill="none" xmlns="http://www.w3.org/2000/svg">
<path d="M13.2004 0.400024V1.20002H10.0004V35.6H13.2004V34.8H14.0004V35.6H14.8004V34.8H15.6004V35.6H16.4004V34.8H17.2004V35.6H18.0004V34.8H18.8004V35.6H19.6004V34.8H20.4004V35.6H21.2004V34.8H22.0004V35.6H25.2004V1.20002H22.0004V0.400024H13.2004ZM8.40039 3.7344L0.400391 7.06565V35.6H3.60039V34H4.40039V35.6H5.20039V34H6.00039V35.6H6.80039V34H7.60039V35.6H8.40039V3.7344ZM13.2004 4.40002H14.0004V5.20002H13.2004V4.40002ZM14.8004 4.40002H15.6004V5.20002H14.8004V4.40002ZM16.4004 4.40002H17.2004V5.20002H16.4004V4.40002ZM18.0004 4.40002H18.8004V5.20002H18.0004V4.40002ZM19.6004 4.40002H20.4004V5.20002H19.6004V4.40002ZM21.2004 4.40002H22.0004V5.20002H21.2004V4.40002ZM13.2004 6.00002H14.0004V6.80002H13.2004V6.00002ZM14.8004 6.00002H15.6004V6.80002H14.8004V6.00002ZM16.4004 6.00002H17.2004V6.80002H16.4004V6.00002ZM18.0004 6.00002H18.8004V6.80002H18.0004V6.00002ZM19.6004 6.00002H20.4004V6.80002H19.6004V6.00002ZM21.2004 6.00002H22.0004V6.80002H21.2004V6.00002ZM7.60039 7.38752V9.20002H6.80039V7.6969L7.60039 7.38752ZM13.2004 7.60002H14.0004V8.40002H13.2004V7.60002ZM14.8004 7.60002H15.6004V8.40002H14.8004V7.60002ZM16.4004 7.60002H17.2004V8.40002H16.4004V7.60002ZM18.0004 7.60002H18.8004V8.40002H18.0004V7.60002ZM19.6004 7.60002H20.4004V8.40002H19.6004V7.60002ZM21.2004 7.60002H22.0004V8.40002H21.2004V7.60002ZM26.8004 7.60002V10.8H27.6004V11.6H26.8004V12.4H27.6004V13.2H26.8004V14H27.6004V14.8H26.8004V15.6H27.6004V16.4H26.8004V17.2H27.6004V18H26.8004V18.8H27.6004V19.6H26.8004V20.4H27.6004V21.2H26.8004V22H27.6004V22.8H26.8004V23.6H27.6004V24.4H26.8004V25.2H27.6004V26H26.8004V26.8H27.6004V27.6H26.8004V28.4H27.6004V29.2H26.8004V30H27.6004V30.8H26.8004V31.6H27.6004V32.4H26.8004V33.2H27.6004V34H26.8004V34.8H27.6004V35.6H28.4004V34.8H30.0004V35.6H30.8004V34.8H32.4004V35.6H35.6004V7.60002H26.8004ZM6.00039 8.00002V9.20002H5.20039V8.3094L6.00039 8.00002ZM4.40039 8.61252V9.20002H3.60039V8.9219L4.40039 8.61252ZM13.2004 9.20002H14.0004V10H13.2004V9.20002ZM14.8004 9.20002H15.6004V10H14.8004V9.20002ZM16.4004 9.20002H17.2004V10H16.4004V9.20002ZM18.0004 9.20002H18.8004V10H18.0004V9.20002ZM19.6004 9.20002H20.4004V10H19.6004V9.20002ZM21.2004 9.20002H22.0004V10H21.2004V9.20002ZM3.60039 10H4.40039V11.6H3.60039V10ZM5.20039 10H6.00039V11.6H5.20039V10ZM6.80039 10H7.60039V11.6H6.80039V10ZM13.2004 10.8H14.0004V11.6H13.2004V10.8ZM14.8004 10.8H15.6004V11.6H14.8004V10.8ZM16.4004 10.8H17.2004V11.6H16.4004V10.8ZM18.0004 10.8H18.8004V11.6H18.0004V10.8ZM19.6004 10.8H20.4004V11.6H19.6004V10.8ZM21.2004 10.8H22.0004V11.6H21.2004V10.8ZM28.4004 10.8H30.0004V11.6H28.4004V10.8ZM30.8004 10.8H32.4004V11.6H30.8004V10.8ZM3.60039 12.4H4.40039V14H3.60039V12.4ZM5.20039 12.4H6.00039V14H5.20039V12.4ZM6.80039 12.4H7.60039V14H6.80039V12.4ZM13.2004 12.4H14.0004V13.2H13.2004V12.4ZM14.8004 12.4H15.6004V13.2H14.8004V12.4ZM16.4004 12.4H17.2004V13.2H16.4004V12.4ZM18.0004 12.4H18.8004V13.2H18.0004V12.4ZM19.6004 12.4H20.4004V13.2H19.6004V12.4ZM21.2004 12.4H22.0004V13.2H21.2004V12.4ZM28.4004 12.4H30.0004V13.2H28.4004V12.4ZM30.8004 12.4H32.4004V13.2H30.8004V12.4ZM13.2004 14H14.0004V14.8H13.2004V14ZM14.8004 14H15.6004V14.8H14.8004V14ZM16.4004 14H17.2004V14.8H16.4004V14ZM18.0004 14H18.8004V14.8H18.0004V14ZM19.6004 14H20.4004V14.8H19.6004V14ZM21.2004 14H22.0004V14.8H21.2004V14ZM28.4004 14H30.0004V14.8H28.4004V14ZM30.8004 14H32.4004V14.8H30.8004V14ZM3.60039 14.8H4.40039V16.4H3.60039V14.8ZM5.20039 14.8H6.00039V16.4H5.20039V14.8ZM6.80039 14.8H7.60039V16.4H6.80039V14.8ZM13.2004 15.6H14.0004V16.4H13.2004V15.6ZM14.8004 15.6H15.6004V16.4H14.8004V15.6ZM16.4004 15.6H17.2004V16.4H16.4004V15.6ZM18.0004 15.6H18.8004V16.4H18.0004V15.6ZM19.6004 15.6H20.4004V16.4H19.6004V15.6ZM21.2004 15.6H22.0004V16.4H21.2004V15.6ZM28.4004 15.6H30.0004V16.4H28.4004V15.6ZM30.8004 15.6H32.4004V16.4H30.8004V15.6ZM3.60039 17.2H4.40039V18.8H3.60039V17.2ZM5.20039 17.2H6.00039V18.8H5.20039V17.2ZM6.80039 17.2H7.60039V18.8H6.80039V17.2ZM13.2004 17.2H14.0004V18H13.2004V17.2ZM14.8004 17.2H15.6004V18H14.8004V17.2ZM16.4004 17.2H17.2004V18H16.4004V17.2ZM18.0004 17.2H18.8004V18H18.0004V17.2ZM19.6004 17.2H20.4004V18H19.6004V17.2ZM21.2004 17.2H22.0004V18H21.2004V17.2ZM28.4004 17.2H30.0004V18H28.4004V17.2ZM30.8004 17.2H32.4004V18H30.8004V17.2ZM13.2004 18.8H14.0004V19.6H13.2004V18.8ZM14.8004 18.8H15.6004V19.6H14.8004V18.8ZM16.4004 18.8H17.2004V19.6H16.4004V18.8ZM18.0004 18.8H18.8004V19.6H18.0004V18.8ZM19.6004 18.8H20.4004V19.6H19.6004V18.8ZM21.2004 18.8H22.0004V19.6H21.2004V18.8ZM28.4004 18.8H30.0004V19.6H28.4004V18.8ZM30.8004 18.8H32.4004V19.6H30.8004V18.8ZM3.60039 19.6H4.40039V21.2H3.60039V19.6ZM5.20039 19.6H6.00039V21.2H5.20039V19.6ZM6.80039 19.6H7.60039V21.2H6.80039V19.6ZM13.2004 20.4H14.0004V21.2H13.2004V20.4ZM14.8004 20.4H15.6004V21.2H14.8004V20.4ZM16.4004 20.4H17.2004V21.2H16.4004V20.4ZM18.0004 20.4H18.8004V21.2H18.0004V20.4ZM19.6004 20.4H20.4004V21.2H19.6004V20.4ZM21.2004 20.4H22.0004V21.2H21.2004V20.4ZM28.4004 20.4H30.0004V21.2H28.4004V20.4ZM30.8004 20.4H32.4004V21.2H30.8004V20.4ZM3.60039 22H4.40039V23.6H3.60039V22ZM5.20039 22H6.00039V23.6H5.20039V22ZM6.80039 22H7.60039V23.6H6.80039V22ZM13.2004 22H14.0004V22.8H13.2004V22ZM14.8004 22H15.6004V22.8H14.8004V22ZM16.4004 22H17.2004V22.8H16.4004V22ZM18.0004 22H18.8004V22.8H18.0004V22ZM19.6004 22H20.4004V22.8H19.6004V22ZM21.2004 22H22.0004V22.8H21.2004V22ZM28.4004 22H30.0004V22.8H28.4004V22ZM30.8004 22H32.4004V22.8H30.8004V22ZM13.2004 23.6H14.0004V24.4H13.2004V23.6ZM14.8004 23.6H15.6004V24.4H14.8004V23.6ZM16.4004 23.6H17.2004V24.4H16.4004V23.6ZM18.0004 23.6H18.8004V24.4H18.0004V23.6ZM19.6004 23.6H20.4004V24.4H19.6004V23.6ZM21.2004 23.6H22.0004V24.4H21.2004V23.6ZM28.4004 23.6H30.0004V24.4H28.4004V23.6ZM30.8004 23.6H32.4004V24.4H30.8004V23.6ZM3.60039 24.4H4.40039V26H3.60039V24.4ZM5.20039 24.4H6.00039V26H5.20039V24.4ZM6.80039 24.4H7.60039V26H6.80039V24.4ZM13.2004 25.2H14.0004V26H13.2004V25.2ZM14.8004 25.2H15.6004V26H14.8004V25.2ZM16.4004 25.2H17.2004V26H16.4004V25.2ZM18.0004 25.2H18.8004V26H18.0004V25.2ZM19.6004 25.2H20.4004V26H19.6004V25.2ZM21.2004 25.2H22.0004V26H21.2004V25.2ZM28.4004 25.2H30.0004V26H28.4004V25.2ZM30.8004 25.2H32.4004V26H30.8004V25.2ZM3.60039 26.8H4.40039V28.4H3.60039V26.8ZM5.20039 26.8H6.00039V28.4H5.20039V26.8ZM6.80039 26.8H7.60039V28.4H6.80039V26.8ZM13.2004 26.8H14.0004V27.6H13.2004V26.8ZM14.8004 26.8H15.6004V27.6H14.8004V26.8ZM16.4004 26.8H17.2004V27.6H16.4004V26.8ZM18.0004 26.8H18.8004V27.6H18.0004V26.8ZM19.6004 26.8H20.4004V27.6H19.6004V26.8ZM21.2004 26.8H22.0004V27.6H21.2004V26.8ZM28.4004 26.8H30.0004V27.6H28.4004V26.8ZM30.8004 26.8H32.4004V27.6H30.8004V26.8ZM13.2004 28.4H14.0004V29.2H13.2004V28.4ZM14.8004 28.4H15.6004V29.2H14.8004V28.4ZM16.4004 28.4H17.2004V29.2H16.4004V28.4ZM18.0004 28.4H18.8004V29.2H18.0004V28.4ZM19.6004 28.4H20.4004V29.2H19.6004V28.4ZM21.2004 28.4H22.0004V29.2H21.2004V28.4ZM28.4004 28.4H30.0004V29.2H28.4004V28.4ZM30.8004 28.4H32.4004V29.2H30.8004V28.4ZM3.60039 29.2H4.40039V30.8H3.60039V29.2ZM5.20039 29.2H6.00039V30.8H5.20039V29.2ZM6.80039 29.2H7.60039V30.8H6.80039V29.2ZM13.2004 30H14.0004V30.8H13.2004V30ZM14.8004 30H15.6004V30.8H14.8004V30ZM16.4004 30H17.2004V30.8H16.4004V30ZM18.0004 30H18.8004V30.8H18.0004V30ZM19.6004 30H20.4004V30.8H19.6004V30ZM21.2004 30H22.0004V30.8H21.2004V30ZM28.4004 30H30.0004V30.8H28.4004V30ZM30.8004 30H32.4004V30.8H30.8004V30ZM3.60039 31.6H4.40039V33.2H3.60039V31.6ZM5.20039 31.6H6.00039V33.2H5.20039V31.6ZM6.80039 31.6H7.60039V33.2H6.80039V31.6ZM13.2004 31.6H14.0004V32.4H13.2004V31.6ZM14.8004 31.6H15.6004V32.4H14.8004V31.6ZM16.4004 31.6H17.2004V32.4H16.4004V31.6ZM18.0004 31.6H18.8004V32.4H18.0004V31.6ZM19.6004 31.6H20.4004V32.4H19.6004V31.6ZM21.2004 31.6H22.0004V32.4H21.2004V31.6ZM28.4004 31.6H30.0004V32.4H28.4004V31.6ZM30.8004 31.6H32.4004V32.4H30.8004V31.6ZM13.2004 33.2H14.0004V34H13.2004V33.2ZM14.8004 33.2H15.6004V34H14.8004V33.2ZM16.4004 33.2H17.2004V34H16.4004V33.2ZM18.0004 33.2H18.8004V34H18.0004V33.2ZM19.6004 33.2H20.4004V34H19.6004V33.2ZM21.2004 33.2H22.0004V34H21.2004V33.2ZM28.4004 33.2H30.0004V34H28.4004V33.2ZM30.8004 33.2H32.4004V34H30.8004V33.2Z" fill="url(#paint0_linear_436_115)"/>
<defs>
<linearGradient id="paint0_linear_436_115" x1="40.1132" y1="0.400025" x2="0.384724" y2="35.598" gradientUnits="userSpaceOnUse">
<stop offset="0.25" stop-color="#3B768F"/>
<stop offset="0.536458" stop-color="#3EC6FF"/>
<stop offset="0.817708" stop-color="#3B768F"/>
</linearGradient>
</defs>
</svg>
