<svg width="32" height="32" viewBox="0 0 32 32" fill="none" xmlns="http://www.w3.org/2000/svg">
<path d="M0.800039 0.039978C0.382039 0.039978 0.0400391 0.381978 0.0400391 0.799978V8.39998C0.0400391 8.81798 0.382039 9.15998 0.800039 9.15998H31.2C31.618 9.15998 31.96 8.81798 31.96 8.39998V0.799978C31.96 0.381978 31.618 0.039978 31.2 0.039978H0.800039ZM4.60004 3.83998C5.01804 3.83998 5.36004 4.18198 5.36004 4.59998C5.36004 5.01798 5.01804 5.35998 4.60004 5.35998C4.18204 5.35998 3.84004 5.01798 3.84004 4.59998C3.84004 4.18198 4.18204 3.83998 4.60004 3.83998ZM7.64004 3.83998C8.05804 3.83998 8.40004 4.18198 8.40004 4.59998C8.40004 5.01798 8.05804 5.35998 7.64004 5.35998C7.22204 5.35998 6.88004 5.01798 6.88004 4.59998C6.88004 4.18198 7.22204 3.83998 7.64004 3.83998ZM10.68 3.83998C11.098 3.83998 11.44 4.18198 11.44 4.59998C11.44 5.01798 11.098 5.35998 10.68 5.35998C10.262 5.35998 9.92004 5.01798 9.92004 4.59998C9.92004 4.18198 10.262 3.83998 10.68 3.83998ZM0.0400391 11.44V31.2C0.0400592 31.4015 0.120137 31.5948 0.26266 31.7374C0.405183 31.8799 0.598481 31.96 0.800039 31.96H31.2C31.4016 31.96 31.5949 31.8799 31.7374 31.7374C31.8799 31.5948 31.96 31.4015 31.96 31.2V11.44H30.44V30.44H1.56004V11.44H0.0400391ZM4.60004 11.44C4.18052 11.44 3.84004 11.7797 3.84004 12.2V27.4C3.84004 27.8203 4.18052 28.16 4.60004 28.16H14.48C14.8996 28.16 15.24 27.8203 15.24 27.4V12.2C15.24 11.7797 14.8996 11.44 14.48 11.44H4.60004ZM17.52 11.44V12.96H28.16V11.44H17.52ZM17.52 15.24V16.76H28.16V15.24H17.52ZM17.52 19.04V20.56H28.16V19.04H17.52ZM17.52 22.84V24.36H28.16V22.84H17.52ZM17.52 26.64V28.16H28.16V26.64H17.52Z" fill="url(#paint0_linear_436_91)"/>
<defs>
<linearGradient id="paint0_linear_436_91" x1="36.0524" y1="0.0399789" x2="0.0258304" y2="31.9582" gradientUnits="userSpaceOnUse">
<stop offset="0.25" stop-color="#3B768F"/>
<stop offset="0.536458" stop-color="#3EC6FF"/>
<stop offset="0.817708" stop-color="#3B768F"/>
</linearGradient>
</defs>
</svg>
