<svg width="36" height="36" viewBox="0 0 36 36" fill="none" xmlns="http://www.w3.org/2000/svg">
<path d="M2.80039 0.400024C1.47719 0.400024 0.400391 1.47682 0.400391 2.80002V10.8C0.400391 12.1232 1.47719 13.2 2.80039 13.2H5.20039V14.8C5.19889 14.906 5.21848 15.0113 5.25801 15.1097C5.29754 15.208 5.35623 15.2976 5.43066 15.3731C5.5051 15.4486 5.5938 15.5085 5.6916 15.5494C5.78941 15.5903 5.89437 15.6114 6.00039 15.6114C6.10641 15.6114 6.21137 15.5903 6.30918 15.5494C6.40699 15.5085 6.49568 15.4486 6.57012 15.3731C6.64455 15.2976 6.70324 15.208 6.74277 15.1097C6.7823 15.0113 6.80189 14.906 6.80039 14.8V13.2H10.8004C12.1236 13.2 13.2004 12.1232 13.2004 10.8V7.60002H17.2004C17.3064 7.60152 17.4116 7.58194 17.51 7.54241C17.6084 7.50288 17.6979 7.44419 17.7734 7.36975C17.8489 7.29532 17.9089 7.20662 17.9498 7.10881C17.9907 7.01101 18.0118 6.90604 18.0118 6.80002C18.0118 6.694 17.9907 6.58904 17.9498 6.49123C17.9089 6.39343 17.8489 6.30473 17.7734 6.2303C17.6979 6.15586 17.6084 6.09717 17.51 6.05764C17.4116 6.01811 17.3064 5.99852 17.2004 6.00002H13.2004V2.80002C13.2004 1.47682 12.1236 0.400024 10.8004 0.400024H2.80039ZM25.2004 0.400024C23.8772 0.400024 22.8004 1.47682 22.8004 2.80002V6.00002H20.4004C20.2944 5.99852 20.1891 6.01811 20.0908 6.05764C19.9924 6.09717 19.9028 6.15586 19.8273 6.2303C19.7519 6.30473 19.6919 6.39343 19.651 6.49123C19.6101 6.58904 19.589 6.694 19.589 6.80002C19.589 6.90604 19.6101 7.01101 19.651 7.10881C19.6919 7.20662 19.7519 7.29532 19.8273 7.36975C19.9028 7.44419 19.9924 7.50288 20.0908 7.54241C20.1891 7.58194 20.2944 7.60152 20.4004 7.60002H22.8004V10.8C22.8004 12.1232 23.8772 13.2 25.2004 13.2H28.4004V17.2C28.3989 17.306 28.4185 17.4113 28.458 17.5097C28.4975 17.608 28.5562 17.6976 28.6307 17.7731C28.7051 17.8486 28.7938 17.9085 28.8916 17.9494C28.9894 17.9903 29.0944 18.0114 29.2004 18.0114C29.3064 18.0114 29.4114 17.9903 29.5092 17.9494C29.607 17.9085 29.6957 17.8486 29.7701 17.7731C29.8446 17.6976 29.9032 17.608 29.9428 17.5097C29.9823 17.4113 30.0019 17.306 30.0004 17.2V13.2H33.2004C34.5236 13.2 35.6004 12.1232 35.6004 10.8V2.80002C35.6004 1.47682 34.5236 0.400024 33.2004 0.400024H25.2004ZM5.98789 17.1891C5.77599 17.1924 5.57406 17.2796 5.42642 17.4317C5.27878 17.5837 5.19749 17.7881 5.20039 18V22.8H2.80039C1.47719 22.8 0.400391 23.8768 0.400391 25.2V33.2C0.400391 34.5232 1.47719 35.6 2.80039 35.6H10.8004C12.1236 35.6 13.2004 34.5232 13.2004 33.2V30H15.6004C15.7064 30.0015 15.8116 29.9819 15.91 29.9424C16.0084 29.9029 16.0979 29.8442 16.1734 29.7697C16.2489 29.6953 16.3089 29.6066 16.3498 29.5088C16.3907 29.411 16.4118 29.306 16.4118 29.2C16.4118 29.094 16.3907 28.989 16.3498 28.8912C16.3089 28.7934 16.2489 28.7047 16.1734 28.6303C16.0979 28.5559 16.0084 28.4972 15.91 28.4576C15.8116 28.4181 15.7064 28.3985 15.6004 28.4H13.2004V25.2C13.2004 23.8768 12.1236 22.8 10.8004 22.8H6.80039V18C6.80186 17.893 6.78183 17.7868 6.7415 17.6876C6.70116 17.5885 6.64135 17.4984 6.56558 17.4228C6.48982 17.3472 6.39965 17.2875 6.30042 17.2474C6.20119 17.2072 6.09492 17.1874 5.98789 17.1891ZM29.1879 19.5891C28.976 19.5924 28.7741 19.6796 28.6264 19.8317C28.4788 19.9837 28.3975 20.1881 28.4004 20.4V22H25.2004C23.8772 22 22.8004 23.0768 22.8004 24.4V28.4H18.8004C18.6944 28.3985 18.5891 28.4181 18.4908 28.4576C18.3924 28.4972 18.3028 28.5559 18.2273 28.6303C18.1519 28.7047 18.0919 28.7934 18.051 28.8912C18.0101 28.989 17.989 29.094 17.989 29.2C17.989 29.306 18.0101 29.411 18.051 29.5088C18.0919 29.6066 18.1519 29.6953 18.2273 29.7697C18.3028 29.8442 18.3924 29.9029 18.4908 29.9424C18.5891 29.9819 18.6944 30.0015 18.8004 30H22.8004V32.4C22.8004 33.7232 23.8772 34.8 25.2004 34.8H33.2004C34.5236 34.8 35.6004 33.7232 35.6004 32.4V24.4C35.6004 23.0768 34.5236 22 33.2004 22H30.0004V20.4C30.0019 20.293 29.9818 20.1868 29.9415 20.0876C29.9012 19.9885 29.8413 19.8984 29.7656 19.8228C29.6898 19.7472 29.5997 19.6875 29.5004 19.6474C29.4012 19.6072 29.2949 19.5874 29.1879 19.5891Z" fill="url(#paint0_linear_436_84)"/>
<defs>
<linearGradient id="paint0_linear_436_84" x1="40.1132" y1="0.400025" x2="0.384724" y2="35.598" gradientUnits="userSpaceOnUse">
<stop offset="0.25" stop-color="#3B768F"/>
<stop offset="0.536458" stop-color="#3EC6FF"/>
<stop offset="0.817708" stop-color="#3B768F"/>
</linearGradient>
</defs>
</svg>
