<svg width="34" height="34" viewBox="0 0 34 34" fill="none" xmlns="http://www.w3.org/2000/svg">
<path d="M33.9973 19.0002C33.8539 16.5803 32.2283 15.81 31.0409 15.2495C30.422 14.9547 29.8855 14.7023 29.6916 14.3092C29.6623 13.9267 29.665 13.6186 29.6677 13.268V13.2148C30.0077 12.8191 30.2945 12.1736 30.43 11.5892C30.7302 11.382 31.0436 10.973 31.1445 10.1522C31.1923 9.73515 31.0967 9.39781 30.9427 9.14546C31.1764 8.29281 31.5456 6.43609 30.7673 5.185C30.4273 4.63515 29.9041 4.26859 29.2427 4.11187C28.8203 3.64968 28.0952 3.4 27.1548 3.4H27.1522C25.6939 3.42656 24.6181 3.88343 23.9541 4.75734C23.1997 5.75343 23.0377 7.21968 23.4706 9.12421C23.3086 9.37921 23.205 9.72718 23.2555 10.1548C23.3564 10.9783 23.6725 11.3873 23.9727 11.5919C24.1134 12.1709 24.4083 12.8191 24.7536 13.2175V13.2706C24.7563 13.6186 24.7589 13.9267 24.7297 14.3066C24.6367 14.4766 24.4455 14.628 24.1745 14.7741C23.537 13.0422 22.0495 12.3569 20.9259 11.8389C20.2592 11.5334 19.6802 11.2652 19.4916 10.9066C19.4623 10.5267 19.465 10.2212 19.4677 9.87062L19.4703 9.81484C19.8077 9.41906 20.0972 8.77625 20.2327 8.18921C20.5302 7.98468 20.8463 7.57296 20.9445 6.75218C20.995 6.33781 20.8994 5.99781 20.7453 5.74546C20.9764 4.89281 21.3456 3.03609 20.57 1.78765C20.2273 1.23781 19.7041 0.868589 19.0453 0.71187C18.7106 0.347964 18.097 0.0106201 16.9548 0.0106201C15.4939 0.0398389 14.4155 0.494058 13.7541 1.36796C12.9997 2.3614 12.8403 3.825 13.2733 5.72421C13.1112 5.97921 13.0077 6.32718 13.0581 6.75484C13.1564 7.57828 13.4725 7.98734 13.7753 8.19187C13.9134 8.77093 14.2109 9.41906 14.5536 9.8175V9.87328C14.5562 10.2239 14.5589 10.5294 14.5297 10.9066C14.3411 11.2652 13.7594 11.5334 13.09 11.8389C11.9611 12.3569 10.4683 13.0422 9.82812 14.7741C9.55719 14.628 9.36328 14.4766 9.27297 14.3066C9.24375 13.9241 9.24641 13.6159 9.24906 13.2627V13.2175C9.59172 12.8191 9.88922 12.1709 10.0273 11.5919C10.3275 11.3847 10.6436 10.9756 10.7445 10.1522C10.795 9.72453 10.6914 9.37656 10.5294 9.12156C10.9623 7.21968 10.8003 5.75078 10.0459 4.75734C9.38188 3.88343 8.30609 3.42656 6.83453 3.4C5.90219 3.4 5.17969 3.64968 4.75734 4.11187C4.09594 4.26859 3.57266 4.63781 3.23 5.18765C2.45438 6.43609 2.82359 8.29281 3.05734 9.14546C2.90328 9.39781 2.80766 9.73781 2.85547 10.1548C2.95641 10.9756 3.26984 11.3847 3.57 11.5919C3.70547 12.1762 3.99234 12.8191 4.33234 13.2148V13.2706C4.335 13.6212 4.33766 13.9294 4.30844 14.3119C4.11453 14.7023 3.57531 14.9573 2.95906 15.2495C1.77172 15.81 0.146094 16.5803 0 19.04V26.52C0 26.5652 0.0053125 26.6103 0.0132813 26.6555C0.053125 26.8547 1.05187 31.2906 7.83594 33.5166C7.83594 33.5166 7.9475 33.6148 8.82672 33.7184C8.82406 33.4183 8.82406 32.9189 8.85063 32.4248C9.10563 29.9412 11.1058 29.1311 12.5773 28.5334C13.3795 28.2094 14.1366 27.9012 14.3623 27.4603C14.3969 27.0406 14.3916 26.7006 14.3889 26.3155V26.2384C14.0117 25.8108 13.6823 25.0909 13.5336 24.4534C13.2148 24.2436 12.8695 23.8106 12.7633 22.9181C12.7075 22.4586 12.8244 22.0867 12.9997 21.8184C12.5242 19.7545 12.6942 18.1661 13.5097 17.093C14.2189 16.158 15.3744 15.6666 16.9416 15.64C17.9589 15.64 18.7345 15.9083 19.1808 16.4077C19.8927 16.5723 20.4584 16.9655 20.8223 17.5525C21.6617 18.9045 21.25 20.9312 20.9977 21.8397C21.1677 22.108 21.2766 22.4719 21.2234 22.9208C21.1145 23.8106 20.7719 24.2436 20.4505 24.4534C20.3044 25.0909 19.9856 25.8081 19.6164 26.2331L19.6138 26.3155C19.6111 26.7006 19.6084 27.038 19.6403 27.4603C19.8687 27.9039 20.6231 28.212 21.42 28.5334C22.8942 29.1337 24.8997 29.9492 25.1388 32.4248C25.168 32.7861 25.16 33.4714 25.1547 33.7689C25.7948 33.6972 25.8347 33.6334 25.8347 33.6334C32.9295 31.4447 33.9442 26.8627 33.9867 26.6555C33.9947 26.6103 34 26.5652 34 26.52L33.9973 19.0002Z" fill="url(#paint0_linear_436_109)"/>
<defs>
<linearGradient id="paint0_linear_436_109" x1="38.359" y1="0.0106211" x2="0.225871" y2="34.0371" gradientUnits="userSpaceOnUse">
<stop offset="0.25" stop-color="#3B768F"/>
<stop offset="0.536458" stop-color="#3EC6FF"/>
<stop offset="0.817708" stop-color="#3B768F"/>
</linearGradient>
</defs>
</svg>
