<svg width="30" height="36" viewBox="0 0 30 36" fill="none" xmlns="http://www.w3.org/2000/svg">
<path d="M9.23961 0C8.84305 0 8.51961 0.323438 8.51961 0.72V6.48C8.51961 6.87656 8.84305 7.2 9.23961 7.2H20.7596C21.159 7.2 21.4796 6.87656 21.4796 6.48V0.72C21.4796 0.323438 21.159 0 20.7596 0H9.23961ZM2.75961 1.44C1.56992 1.44 0.599609 2.41031 0.599609 3.6V33.84C0.599609 35.0297 1.56992 36 2.75961 36H27.2396C28.4293 36 29.3996 35.0297 29.3996 33.84V3.6C29.3996 2.41031 28.4293 1.44 27.2396 1.44H22.9196V4.32H26.5196V33.12H3.47961V4.32H7.07961V1.44H2.75961ZM4.91961 5.76V31.68H25.0796V5.76H22.9196V6.48C22.9196 7.66969 21.9493 8.64 20.7596 8.64H9.23961C8.04992 8.64 7.07961 7.66969 7.07961 6.48V5.76H4.91961ZM7.79961 12.24H13.5596V18H7.79961V12.24ZM9.23961 13.68V16.56H12.1196V13.68H9.23961ZM15.7196 14.4H22.1996V15.84H15.7196V14.4ZM7.79961 21.6H13.5596V27.36H7.79961V21.6ZM9.23961 23.04V25.92H12.1196V23.04H9.23961ZM9.95961 23.76H11.3996V25.2H9.95961V23.76ZM15.7196 23.76H22.1996V25.2H15.7196V23.76Z" fill="url(#paint0_linear_436_97)"/>
<defs>
<linearGradient id="paint0_linear_436_97" x1="33.0919" y1="1.02951e-06" x2="-5.52703" y2="27.372" gradientUnits="userSpaceOnUse">
<stop offset="0.25" stop-color="#3B768F"/>
<stop offset="0.536458" stop-color="#3EC6FF"/>
<stop offset="0.817708" stop-color="#3B768F"/>
</linearGradient>
</defs>
</svg>
