<svg width="42" height="42" viewBox="0 0 42 42" fill="none" xmlns="http://www.w3.org/2000/svg">
<path d="M22.7589 3.35999C14.4672 3.35999 11.478 9.71577 13.8602 15.0937C13.5944 15.2709 13.0629 15.8747 13.1514 16.9312C13.4172 18.8737 14.208 19.425 14.6477 19.425C14.8249 21.2756 16.0521 23.3789 16.6689 23.73C16.6689 25.0523 16.7674 24.7865 16.5902 26.1975C16.4327 26.6831 16.1505 27.113 15.7764 27.4837L20.2389 29.4H21.7614L26.2239 27.615C25.8171 27.2344 25.5054 26.7848 25.3314 26.2762C25.2429 24.8653 25.2264 25.0687 25.2264 23.835C25.8433 23.4806 27.0082 21.269 27.2739 19.5037C27.8022 19.5037 28.593 18.9755 28.7702 17.0362C28.8588 15.9764 28.5044 15.2611 28.0614 15.1725C29.6496 13.1447 29.3838 5.11874 23.6514 5.11874L22.7589 3.35999ZM14.1489 28.6125C10.4772 30.5484 4.2002 31.4475 4.2002 37.8C4.2002 37.8 4.2002 38.64 5.0402 38.64H18.4802L20.1602 32.76L19.3989 30.87L14.1489 28.6125ZM27.9302 28.7437L22.6014 30.87L21.8402 32.76L23.5202 38.64H36.9602C37.8264 38.64 37.8002 37.8 37.8002 37.8C37.8002 31.5197 31.6479 30.6075 27.9302 28.7437Z" fill="url(#paint0_linear_436_77)"/>
<defs>
<linearGradient id="paint0_linear_436_77" x1="42.108" y1="3.35999" x2="2.56879" y2="36.7222" gradientUnits="userSpaceOnUse">
<stop offset="0.25" stop-color="#3B768F"/>
<stop offset="0.536458" stop-color="#3EC6FF"/>
<stop offset="0.817708" stop-color="#3B768F"/>
</linearGradient>
</defs>
</svg>
