<svg width="29" height="27" viewBox="0 0 29 27" fill="none" xmlns="http://www.w3.org/2000/svg">
<g clip-path="url(#clip0_341_3023)">
<path d="M0.715745 0C0.447766 0.0485156 0.254469 0.276328 0.258862 0.54V22.14C0.258862 22.4374 0.511466 22.68 0.821179 22.68H9.81825V21.6H1.3835V1.08H27.2501V21.6H18.8153V22.68H27.8124C28.1221 22.68 28.3747 22.4374 28.3747 22.14V0.54C28.3747 0.242578 28.1221 0 27.8124 0H0.821179C0.803607 0 0.786034 0 0.768462 0C0.75089 0 0.733317 0 0.715745 0ZM5.88203 4.86V5.94H22.7515V4.86H5.88203ZM5.88203 7.56V8.64H22.7515V7.56H5.88203ZM5.88203 10.26V11.34H22.7515V10.26H5.88203ZM14.2641 12.9094C13.6754 12.9094 13.2075 13.2469 12.911 13.7025C12.3619 13.5337 11.7622 13.5844 11.3119 13.9556C10.855 14.3311 10.7144 14.888 10.7847 15.4237C10.2488 15.6389 9.83362 16.0481 9.71281 16.5712C9.71281 16.5881 9.71281 16.605 9.71281 16.6219C9.64472 17.1429 9.88634 17.6196 10.2751 17.9887C10.0203 18.4781 9.92588 19.0455 10.2224 19.5412C10.3894 19.8218 10.6507 20.0053 10.9429 20.1319V26.46C10.9473 26.6498 11.0571 26.8249 11.2284 26.9177C11.402 27.0127 11.615 27.0105 11.7864 26.9156L14.3168 25.4644L16.8472 26.9156C17.0185 27.0105 17.2316 27.0127 17.4051 26.9177C17.5765 26.8249 17.6863 26.6498 17.6907 26.46V19.9125C17.8225 19.8197 17.9433 19.7248 18.0421 19.5919C18.0487 19.575 18.0553 19.5581 18.0597 19.5412C18.3475 19.0561 18.2816 18.5055 18.0421 18.0225C18.5451 17.666 18.8768 17.1555 18.8153 16.6219C18.8109 16.605 18.8043 16.5881 18.7977 16.5712C18.6703 16.0249 18.2486 15.6284 17.7258 15.4069C17.7895 14.8774 17.6687 14.329 17.2162 13.9556C16.7484 13.5717 16.1509 13.5612 15.6171 13.7025C15.3184 13.2616 14.8703 12.9094 14.2641 12.9094ZM14.2641 13.9894C14.5211 13.9894 14.7078 14.137 14.8088 14.3944C14.8703 14.5462 14.9977 14.6644 15.1603 14.715C15.169 14.7192 15.2437 14.7213 15.2657 14.7319C15.2942 14.7403 15.2723 14.7487 15.336 14.7487C15.3887 14.7677 15.3909 14.7994 15.4941 14.7994C15.5864 14.7973 15.6764 14.7741 15.7577 14.7319C16.0565 14.5884 16.2651 14.5905 16.4782 14.7656C16.7 14.9491 16.7462 15.1896 16.6539 15.4237C16.588 15.6115 16.6363 15.8182 16.7769 15.9637C16.7989 16.0059 16.823 16.0755 16.8999 16.1494C16.9768 16.2253 17.0735 16.278 17.1811 16.3012C17.4952 16.3687 17.616 16.4995 17.6907 16.7906C17.7126 17.0395 17.6709 17.1745 17.2689 17.3137C17.0471 17.3918 16.8999 17.5943 16.8999 17.82V18.0394C16.9021 18.1491 16.9395 18.2545 17.0054 18.3431C17.1657 18.5604 17.1789 18.8135 17.0932 18.9844C16.9197 19.1953 16.6693 19.3134 16.4606 19.2881C16.2915 19.2691 16.1245 19.3261 16.0037 19.44L15.828 19.5919C15.7226 19.6952 15.6655 19.8366 15.6699 19.98C15.6699 20.2669 15.5534 20.4124 15.3008 20.5031C15.2942 20.5031 15.2899 20.5031 15.2833 20.5031C15.2833 20.4968 15.191 20.52 15.1075 20.52C14.9582 20.52 14.8088 20.4525 14.6507 20.3006C14.5474 20.2036 14.409 20.1509 14.2641 20.1487H13.9829C13.8335 20.1445 13.6864 20.1994 13.5787 20.3006C13.3525 20.5179 13.1658 20.5812 12.9461 20.5031C12.7309 20.4251 12.5771 20.1867 12.5771 19.98C12.5749 19.8323 12.5134 19.6931 12.4014 19.5919L12.2432 19.44C12.118 19.3219 11.9423 19.2649 11.7688 19.2881C11.5469 19.3155 11.3163 19.2037 11.2065 19.0181C11.1054 18.8473 11.1252 18.5709 11.2943 18.3431C11.3602 18.2545 11.3976 18.1491 11.3998 18.0394V17.82C11.3976 17.6217 11.2833 17.4403 11.101 17.3475C10.9517 17.2652 10.8309 16.9952 10.8374 16.7906C10.9143 16.4932 11.0549 16.3266 11.2943 16.3012C11.4195 16.2886 11.5381 16.2337 11.6282 16.1494C11.7139 16.0671 11.749 15.9827 11.7688 15.9469C11.8918 15.7992 11.9247 15.6009 11.8566 15.4237C11.7644 15.1896 11.8105 14.9491 12.0324 14.7656C12.2476 14.5884 12.542 14.5884 12.7001 14.6981C12.8715 14.812 13.0955 14.8247 13.28 14.7319C13.2866 14.7319 13.291 14.7319 13.2976 14.7319C13.3152 14.7277 13.3327 14.7213 13.3503 14.715C13.5414 14.6602 13.6886 14.5125 13.7369 14.3269C13.7808 14.1623 14.0071 13.9894 14.2641 13.9894ZM16.5661 20.6719V25.515L14.5979 24.3844C14.4244 24.2873 14.2092 24.2873 14.0356 24.3844L12.0675 25.515V21.2287C12.1993 21.349 12.3553 21.4481 12.542 21.5156C13.0999 21.716 13.6359 21.522 14.0708 21.2287C14.0752 21.2266 14.0839 21.2309 14.0883 21.2287C14.0927 21.2309 14.1015 21.2266 14.1059 21.2287C14.3761 21.427 14.7012 21.6 15.1075 21.6C15.2086 21.6 15.426 21.5979 15.6874 21.4987C15.6962 21.4903 15.7116 21.4861 15.7226 21.4819C15.738 21.4755 15.7423 21.4903 15.7577 21.4819V21.465C16.1289 21.3089 16.4035 21.022 16.5661 20.6719Z" fill="url(#paint0_linear_341_3023)"/>
</g>
<defs>
<linearGradient id="paint0_linear_341_3023" x1="31.9793" y1="7.71784e-07" x2="1.39413" y2="28.23" gradientUnits="userSpaceOnUse">
<stop offset="0.25" stop-color="#3B768F"/>
<stop offset="0.536458" stop-color="#3EC6FF"/>
<stop offset="0.817708" stop-color="#3B768F"/>
</linearGradient>
<clipPath id="clip0_341_3023">
<rect width="28.1158" height="27" fill="white" transform="translate(0.258789)"/>
</clipPath>
</defs>
</svg>
