<svg width="32" height="24" viewBox="0 0 32 24" fill="none" xmlns="http://www.w3.org/2000/svg">
<path d="M0 0.959991V2.75249C1.92 4.41649 12.9915 14.0797 13.8875 14.7837C14.7835 15.5517 15.68 15.68 16 15.68C16.32 15.68 17.2165 15.6157 18.1125 14.7837C19.0725 14.0157 30.72 3.84049 32 2.75249V0.959991H0ZM0 4.41624V20.48L9.66375 12.8637C6.52775 10.1117 2.048 6.20824 0 4.41624ZM32 4.41624C30.016 6.14424 25.5362 10.0477 22.3363 12.8637L32 20.48V4.41624ZM10.6875 13.6962L0 22.1437V24H32V22.08L21.3125 13.6962C20.0965 14.7842 19.1997 15.5517 18.9438 15.7437C17.7277 16.8317 16.512 16.96 16 16.96C15.488 16.96 14.2722 16.8317 13.0562 15.7437C12.8003 15.5517 11.9035 14.7842 10.6875 13.6962Z" fill="white"/>
</svg>
