<svg width="29" height="29" viewBox="0 0 29 29" fill="none" xmlns="http://www.w3.org/2000/svg">
<path d="M23.7475 29C23.7372 29 23.7269 29 23.7166 29C18.7628 28.8378 12.9593 24.0364 8.96072 20.0357C4.95697 16.035 0.155047 10.2296 0.000561771 5.29946C-0.0560826 3.56941 4.18969 0.492925 4.23346 0.462031C5.33546 -0.30516 6.55847 -0.0322666 7.06055 0.662839C7.40041 1.13397 10.6189 6.01001 10.969 6.56352C11.3321 7.13762 11.278 7.99235 10.8248 8.84965C10.5751 9.32592 9.74602 10.7831 9.35723 11.4627C9.77691 12.06 10.8866 13.5249 13.1782 15.8162C15.4723 18.1074 16.9347 19.2196 17.5347 19.6392C18.2144 19.2505 19.6717 18.4215 20.148 18.1718C20.9926 17.7238 21.8422 17.6672 22.4215 18.0225C23.0137 18.3855 27.8775 21.619 28.3255 21.9305C28.7014 22.1957 28.9434 22.6488 28.9923 23.1766C29.0387 23.7095 28.8739 24.2733 28.5314 24.765C28.5031 24.8062 25.4623 29 23.7475 29Z" fill="url(#paint0_linear_1666_83)"/>
<defs>
<linearGradient id="paint0_linear_1666_83" x1="32.718" y1="8.29325e-07" x2="-0.0129071" y2="28.9983" gradientUnits="userSpaceOnUse">
<stop offset="0.25" stop-color="#3B768F"/>
<stop offset="0.536458" stop-color="#3EC6FF"/>
<stop offset="0.817708" stop-color="#3B768F"/>
</linearGradient>
</defs>
</svg>
