<svg width="38" height="35" viewBox="0 0 38 35" fill="none" xmlns="http://www.w3.org/2000/svg">
<path d="M9.11923 2.0918C8.54742 2.04805 7.91175 2.20391 7.32543 2.5922C6.80877 2.93126 5.69418 3.76524 4.65215 4.7086C4.13259 5.17891 3.63625 5.66837 3.2531 6.14962C2.86706 6.63087 2.53036 7.0711 2.55068 7.71095C2.571 8.28516 2.63195 9.98321 3.92941 12.5863C5.22686 15.1867 7.7434 18.7551 12.6517 23.3816C17.5628 28.0082 21.3507 30.3789 24.1111 31.6012C26.8714 32.8234 28.6768 32.8809 29.2864 32.9C29.9627 32.9191 30.43 32.602 30.9408 32.2383C31.4517 31.8746 31.9713 31.4098 32.4705 30.9203C33.469 29.9387 34.3543 28.8887 34.7142 28.402C35.5356 27.3 35.3992 25.9984 34.4849 25.3941C33.9102 25.0141 28.6246 21.7 27.8293 21.2406C27.0224 20.7758 26.0935 20.9863 25.2634 21.3992C24.6103 21.7246 22.8426 22.6789 22.3376 22.9524C21.9574 22.7254 20.5148 21.8203 17.4119 18.8973C14.3061 15.9742 13.3483 14.6152 13.1074 14.257C13.3976 13.7813 14.4077 12.1242 14.756 11.4981C15.1914 10.7188 15.4352 9.83555 14.9157 9.06993C14.698 8.74454 13.7082 7.3254 12.7097 5.90079C11.7083 4.47618 10.7592 3.1254 10.5125 2.80274V2.80001C10.1903 2.38165 9.68813 2.13555 9.11923 2.0918ZM8.9828 3.52188C9.18599 3.54649 9.30789 3.62305 9.30789 3.62305C9.4269 3.77891 10.4689 5.25001 11.4674 6.67188C12.4659 8.09649 13.4847 9.55665 13.6618 9.82188C13.6908 9.8629 13.7314 10.3277 13.4412 10.8445V10.8473C13.1132 11.4352 11.5835 13.9535 11.5835 13.9535L11.3716 14.3063L11.5893 14.6563C11.5893 14.6563 12.73 16.4691 16.3583 19.8871C19.9894 23.3051 21.9138 24.3824 21.9138 24.3824L22.2853 24.5875L22.6598 24.3879C22.6598 24.3879 25.3273 22.9496 25.9571 22.6379C26.5057 22.3672 26.9991 22.4027 27.0572 22.4356C27.5709 22.7336 33.2803 26.3074 33.6315 26.5399C33.6432 26.5481 33.9537 26.991 33.5009 27.5981H33.498C33.2252 27.9672 32.3312 29.0363 31.3995 29.9496C30.9321 30.4063 30.4532 30.8328 30.0469 31.1199C29.6405 31.407 29.2777 31.4973 29.3357 31.5C28.703 31.4809 27.3068 31.4672 24.7438 30.3324C22.1809 29.2004 18.5236 26.9336 13.7024 22.3891C8.88412 17.85 6.47787 14.4047 5.2733 11.9875C4.07163 9.57305 4.05712 8.25782 4.0368 7.66446C4.0397 7.71915 4.13549 7.37462 4.44026 6.99181C4.74503 6.60899 5.19493 6.15509 5.67966 5.71485C6.65203 4.83712 7.78404 3.99493 8.17589 3.7379V3.74063C8.49807 3.52735 8.77962 3.50001 8.9828 3.52188Z" fill="url(#paint0_linear_341_3015)"/>
<defs>
<linearGradient id="paint0_linear_341_3015" x1="18.9037" y1="2.08466" x2="18.9037" y2="32.9008" gradientUnits="userSpaceOnUse">
<stop stop-color="#4ABCEC"/>
<stop offset="1" stop-color="#4A8BEC"/>
</linearGradient>
</defs>
</svg>
