<svg width="38" height="36" viewBox="0 0 38 36" fill="none" xmlns="http://www.w3.org/2000/svg">
<path d="M18.6333 0C8.342 0 0 7.21456 0 16.1137C0 20.034 1.62285 23.6229 4.314 26.4166C4.36834 26.5548 5.74912 30.1864 1.66009 33.8898C1.58847 33.9584 1.53138 34.0412 1.49238 34.1333C1.45337 34.2253 1.43327 34.3245 1.43333 34.4248C1.43333 34.6191 1.50884 34.8054 1.64324 34.9427C1.77764 35.0801 1.95993 35.1573 2.15 35.1573C2.20178 35.1572 2.25341 35.1515 2.30397 35.1401C6.42604 34.8905 9.95229 32.7999 12.1049 31.1889C14.1394 31.8483 16.3326 32.2275 18.6333 32.2275C28.9247 32.2275 37.2667 25.0129 37.2667 16.1137C37.2667 7.21456 28.9247 0 18.6333 0Z" fill="url(#paint0_linear_1666_67)"/>
<path d="M12.3403 14.944V19H10.4363V14.944H9.04428V13.336H13.7323V14.944H12.3403ZM13.1806 19L15.4126 13.336H17.4366L19.6446 19H17.5726L17.2766 18.168H15.4766L15.1966 19H13.1806ZM16.8526 16.712L16.3966 15.312L15.9326 16.712H16.8526ZM20.0475 19V13.336H21.9675V17.368H23.8475V19H20.0475ZM27.8222 19L26.3102 16.744H26.2942V19H24.4382V13.336H26.2862V15.424H26.3022L27.8142 13.336H30.0542L27.9262 15.928L30.1582 19H27.8222Z" fill="#0B5B6D"/>
<defs>
<linearGradient id="paint0_linear_1666_67" x1="42.0445" y1="1.00541e-06" x2="2.1517" y2="37.4641" gradientUnits="userSpaceOnUse">
<stop offset="0.25" stop-color="#3B768F"/>
<stop offset="0.536458" stop-color="#3EC6FF"/>
<stop offset="0.817708" stop-color="#3B768F"/>
</linearGradient>
</defs>
</svg>
