<svg width="35" height="35" viewBox="0 0 35 35" fill="none" xmlns="http://www.w3.org/2000/svg">
<path d="M17.4998 0.299988C8.00111 0.299988 0.299805 8.00129 0.299805 17.5C0.299805 20.7267 1.20616 23.7351 2.75215 26.3155L0.453776 34.7L9.01738 32.452C11.5219 33.8759 14.4131 34.7 17.4998 34.7C26.9985 34.7 34.6998 26.9987 34.6998 17.5C34.6998 8.00129 26.9985 0.299988 17.4998 0.299988ZM11.6125 9.47668C11.892 9.47668 12.1792 9.47498 12.4272 9.48788C12.7339 9.49505 13.0677 9.51751 13.3874 10.2241C13.7672 11.0641 14.5943 13.1712 14.7003 13.3848C14.8064 13.5983 14.8816 13.8499 14.7339 14.1294C14.5935 14.4161 14.5204 14.5896 14.314 14.8433C14.1004 15.0898 13.8664 15.396 13.6729 15.5823C13.4594 15.7959 13.2388 16.0301 13.4854 16.4558C13.7319 16.8815 14.5881 18.277 15.8537 19.4036C17.4805 20.857 18.8531 21.3037 19.2803 21.5172C19.7074 21.7308 19.9548 21.6975 20.2013 21.4109C20.455 21.1314 21.2668 20.1723 21.5535 19.7452C21.833 19.318 22.1183 19.3919 22.5053 19.5324C22.898 19.6729 24.9924 20.7046 25.4195 20.9182C25.8467 21.1317 26.1267 21.2374 26.2342 21.4109C26.3445 21.59 26.3447 22.443 25.9906 23.4377C25.6366 24.431 23.8981 25.3915 23.1184 25.4589C22.3315 25.532 21.5971 25.8126 18.0037 24.3979C13.6693 22.6908 10.9358 18.2514 10.7223 17.9647C10.5087 17.6852 8.98659 15.6566 8.98659 13.5639C8.98659 11.4641 10.0875 10.4357 10.4731 10.0086C10.8658 9.58145 11.3258 9.47668 11.6125 9.47668Z" fill="url(#paint0_linear_1666_63)"/>
<defs>
<linearGradient id="paint0_linear_1666_63" x1="39.1101" y1="0.299989" x2="0.284494" y2="34.698" gradientUnits="userSpaceOnUse">
<stop offset="0.25" stop-color="#3B768F"/>
<stop offset="0.536458" stop-color="#3EC6FF"/>
<stop offset="0.817708" stop-color="#3B768F"/>
</linearGradient>
</defs>
</svg>
