<svg xmlns="http://www.w3.org/2000/svg" width="53" height="22" fill="none"><path fill="#fff" fill-rule="evenodd" d="M46.666 21.936h.994v-3.32l3.045 2.975a7 7 0 0 0 .253.187q.105.072.214.13a.8.8 0 0 0 .201.071q.109.022.217.022c.148 0 .297-.025.436-.091a1 1 0 0 0 .32-.249c.092-.109.156-.236.202-.369.046-.148.069-.303.069-.454V17.72h-.996v3.311l-3.051-3.002c-.237-.232-.527-.408-.869-.408a1 1 0 0 0-.385.082 1.4 1.4 0 0 0-.334.216 1.1 1.1 0 0 0-.229.313.84.84 0 0 0-.088.376zM31.75 14.85h3.489V8.592l11.511 5.76c1.242.617 3.123.764 4.332 0 1.182-.744 1.535-2.033 1.535-3.359V.126H11.859c-.688 0-1.364.105-2.018.309a5.8 5.8 0 0 0-1.768.9c-.52.391-.94.871-1.262 1.429-.338.585-.483 1.229-.483 1.898 0 .642.132 1.253.415 1.827a4.6 4.6 0 0 0 1.113 1.447 5 5 0 0 0 1.602.945 5.3 5.3 0 0 0 1.885.34h14.406v2.178H3.903V0H0v14.852h3.904v-.002h20.471q.953-.002 1.851-.338a5.3 5.3 0 0 0 1.583-.937 4.6 4.6 0 0 0 1.1-1.419 3.94 3.94 0 0 0 .414-1.803q.002-.945-.387-1.803a4.6 4.6 0 0 0-1.05-1.477 4.9 4.9 0 0 0-1.583-.996 5.2 5.2 0 0 0-1.973-.367H10.131V3.487h38.978v8.025L37.475 5.718c-2.697-1.342-5.725-.859-5.725 2.692zM5.006 20.973H1.029V18.69h3.977zm-4.986.963h4.575q.28.001.546-.097c.168-.063.324-.153.459-.272q.199-.176.318-.416c.08-.164.117-.342.117-.524v-1.613c0-.186-.035-.364-.115-.534a1.3 1.3 0 0 0-.313-.41 1.3 1.3 0 0 0-.451-.268 1.5 1.5 0 0 0-.545-.1H.019zm16.175.019v-1.046H11.21v-.579h4.985v-1.015H11.21v-.616h4.985v-1.01h-4.497c-.198 0-.399.029-.587.092-.172.061-.33.146-.469.264a1.24 1.24 0 0 0-.429.986v1.575c0 .189.035.376.117.544q.124.243.328.425c.137.122.297.212.473.279.178.063.363.101.555.101zm10.44-3.26v-.957h-4.688c-.192 0-.387.029-.574.09-.18.055-.352.139-.504.254a1.4 1.4 0 0 0-.359.408 1.07 1.07 0 0 0-.137.541c0 .18.037.357.119.52.076.156.183.299.316.41q.203.18.455.271.262.097.539.098h4.111v.625h-5.266v.98h4.871q.273 0 .525-.096.253-.093.452-.268c.134-.113.235-.25.314-.403a1.1 1.1 0 0 0 .117-.515 1.2 1.2 0 0 0-.11-.514 1.3 1.3 0 0 0-.297-.423 1.5 1.5 0 0 0-.453-.28 1.5 1.5 0 0 0-.561-.105H21.45v-.637h5.185zm5.583-.994h-1.112v4.27h1.112zm7.294 1.596v1.016h1.953v.597h-4.08v-2.22h5.104v-.988h-4.562c-.39 0-.816.066-1.137.308-.277.212-.398.501-.398.845v1.735c0 .198.037.394.127.571q.13.242.347.413c.149.115.317.2.495.255q.284.09.584.09h2.924q.3.002.596-.078.276-.072.514-.238a1.24 1.24 0 0 0 .361-.404 1.2 1.2 0 0 0 .135-.571v-1.329h-2.963z" clip-rule="evenodd"/></svg>