<svg width="21" height="24" viewBox="0 0 21 24" fill="none" xmlns="http://www.w3.org/2000/svg">
<path d="M19.6865 10C19.6865 17 10.6865 23 10.6865 23C10.6865 23 1.68652 17 1.68652 10C1.68652 7.61305 2.63473 5.32387 4.32256 3.63604C6.01039 1.94821 8.29958 1 10.6865 1C13.0735 1 15.3627 1.94821 17.0505 3.63604C18.7383 5.32387 19.6865 7.61305 19.6865 10Z" stroke="white" stroke-width="2" stroke-linecap="round" stroke-linejoin="round"/>
<path d="M10.6865 13C12.3434 13 13.6865 11.6569 13.6865 10C13.6865 8.34315 12.3434 7 10.6865 7C9.02967 7 7.68652 8.34315 7.68652 10C7.68652 11.6569 9.02967 13 10.6865 13Z" stroke="white" stroke-width="2" stroke-linecap="round" stroke-linejoin="round"/>
</svg>
