<svg width="32" height="32" viewBox="0 0 32 32" fill="none" xmlns="http://www.w3.org/2000/svg">
<path fill-rule="evenodd" clip-rule="evenodd" d="M23.3317 19.1761C22.9325 18.9774 20.9751 18.0201 20.6107 17.8867C20.2463 17.7547 19.981 17.6894 19.7144 18.0867C19.4491 18.4814 18.6868 19.3747 18.4551 19.6387C18.2219 19.9041 17.9902 19.9361 17.5923 19.7387C17.1943 19.5387 15.9109 19.1214 14.3903 17.7721C13.2073 16.7214 12.4074 15.4241 12.1756 15.0267C11.9439 14.6307 12.1502 14.4161 12.3498 14.2187C12.5293 14.0414 12.7477 13.7561 12.9473 13.5254C13.147 13.2934 13.2126 13.1281 13.3452 12.8627C13.4792 12.5987 13.4122 12.3681 13.3118 12.1694C13.2126 11.9707 12.4168 10.0201 12.0845 9.22672C11.7617 8.45472 11.4334 8.56005 11.1896 8.54672C10.9565 8.53605 10.6912 8.53339 10.4259 8.53339C10.1607 8.53339 9.72926 8.63206 9.36485 9.02939C8.9991 9.42539 7.97151 10.3841 7.97151 12.3347C7.97151 14.2841 9.397 16.1681 9.59663 16.4334C9.79625 16.6974 12.4034 20.7001 16.3972 22.4161C17.3484 22.8241 18.0893 23.0681 18.6667 23.2494C19.6206 23.5521 20.4888 23.5094 21.1747 23.4067C21.9384 23.2934 23.53 22.4481 23.8623 21.5227C24.1932 20.5974 24.1932 19.8041 24.0941 19.6387C23.9949 19.4734 23.7296 19.3747 23.3304 19.1761H23.3317ZM16.0676 29.0467H16.0623C13.6901 29.0472 11.3616 28.4125 9.32064 27.2094L8.83833 26.9241L3.82499 28.2334L5.1634 23.3694L4.84855 22.8707C3.52239 20.7699 2.82057 18.3384 2.82419 15.8574C2.82687 8.59072 8.76732 2.67872 16.073 2.67872C19.6099 2.67872 22.9352 4.05205 25.4352 6.54272C26.6682 7.76483 27.6456 9.21814 28.3106 10.8186C28.9757 12.419 29.3153 14.1348 29.3097 15.8667C29.307 23.1334 23.3666 29.0467 16.0676 29.0467ZM27.3376 4.65072C25.8614 3.17195 24.1051 1.99944 22.1703 1.20112C20.2355 0.402806 18.1608 -0.005435 16.0663 5.46367e-05C7.28556 5.46367e-05 0.136654 7.11339 0.133975 15.8561C0.132635 18.6507 0.865478 21.3787 2.26016 23.7827L0 32.0001L8.44578 29.7947C10.7821 31.0616 13.4003 31.7253 16.0609 31.7254H16.0676C24.8483 31.7254 31.9972 24.6121 31.9999 15.8681C32.0064 13.7844 31.5977 11.7202 30.7974 9.79477C29.9971 7.86934 28.8212 6.12095 27.3376 4.65072Z" fill="white"/>
</svg>
