<svg width="21" height="20" viewBox="0 0 21 20" fill="none" xmlns="http://www.w3.org/2000/svg">
<path fill-rule="evenodd" clip-rule="evenodd" d="M14.8958 11.985C14.6463 11.8608 13.4229 11.2625 13.1952 11.1792C12.9674 11.0967 12.8016 11.0559 12.635 11.3042C12.4692 11.5508 11.9927 12.1092 11.8479 12.2742C11.7022 12.44 11.5573 12.46 11.3086 12.3367C11.0599 12.2117 10.2578 11.9508 9.30738 11.1075C8.56801 10.4509 8.06812 9.64002 7.92326 9.39169C7.7784 9.14419 7.90735 9.01002 8.03211 8.88669C8.14431 8.77585 8.2808 8.59752 8.40557 8.45335C8.53033 8.30835 8.57136 8.20502 8.65426 8.03919C8.73799 7.87419 8.69612 7.73002 8.63332 7.60585C8.57136 7.48169 8.07398 6.26252 7.86632 5.76669C7.66452 5.28419 7.45937 5.35003 7.30697 5.34169C7.16127 5.33503 6.99548 5.33336 6.82968 5.33336C6.66389 5.33336 6.39427 5.39503 6.16651 5.64336C5.93791 5.89086 5.29567 6.49002 5.29567 7.70919C5.29567 8.92752 6.1866 10.105 6.31137 10.2709C6.43613 10.4359 8.0656 12.9375 10.5617 14.01C11.1562 14.265 11.6193 14.4175 11.9802 14.5308C12.5764 14.72 13.119 14.6933 13.5477 14.6292C14.025 14.5583 15.0197 14.03 15.2274 13.4517C15.4342 12.8733 15.4342 12.3775 15.3723 12.2742C15.3103 12.1708 15.1445 12.1092 14.895 11.985H14.8958ZM10.3557 18.1542H10.3524C8.86981 18.1544 7.41446 17.7578 6.13888 17.0058L5.83743 16.8275L2.70409 17.6458L3.5406 14.6058L3.34382 14.2942C2.51497 12.9811 2.07633 11.4615 2.0786 9.91085C2.08027 5.36919 5.79305 1.6742 10.3591 1.6742C12.5697 1.6742 14.648 2.53253 16.2104 4.08919C16.9811 4.85301 17.592 5.76133 18.0076 6.7616C18.4233 7.76188 18.6355 8.83425 18.632 9.91669C18.6304 14.4583 14.9176 18.1542 10.3557 18.1542ZM17.3995 2.9067C16.4769 1.98247 15.3792 1.24965 14.1699 0.7507C12.9607 0.251754 11.6639 -0.00339687 10.3549 3.41479e-05C4.86695 3.41479e-05 0.398886 4.44586 0.397211 9.91002C0.396374 11.6567 0.854401 13.3617 1.72608 14.8642L0.313477 20L5.59209 18.6217C7.05231 19.4134 8.68867 19.8283 10.3516 19.8283H10.3557C15.8437 19.8283 20.3118 15.3825 20.3134 9.91752C20.3175 8.61525 20.062 7.32511 19.5619 6.12172C19.0617 4.91833 18.3267 3.82559 17.3995 2.9067Z" fill="white"/>
</svg>
