<svg width="354" height="146" viewBox="0 0 354 146" fill="none" xmlns="http://www.w3.org/2000/svg">
<path d="M240.668 0H222.02C205.442 0 193.381 17.4247 180.016 35.1503C168.036 50.9909 157.217 66.4672 143.279 69.6987C143.195 69.6987 143.114 69.7321 143.054 69.7915C142.994 69.8509 142.961 69.9315 142.961 70.0155C142.961 70.0995 142.994 70.1801 143.054 70.2395C143.114 70.2989 143.195 70.3323 143.279 70.3323H161.958C178.505 70.3323 190.47 52.8284 203.946 35.1503C215.942 19.3097 226.714 3.83345 240.668 0.617807C241.049 0.506923 241.018 0 240.668 0ZM255.242 5.52836C252.455 3.54413 249.121 2.46529 245.695 2.43942C243.995 2.42926 242.306 2.70786 240.699 3.26316C238.084 4.16549 235.622 5.45801 233.396 7.09656C241.829 13.8288 249.435 24.5213 257.565 35.1503C262.911 42.1677 268.066 49.1217 273.268 55.0144C277.584 50.3142 281.641 45.3859 285.424 40.2509C284.151 38.6669 282.846 36.8611 281.558 35.1503C272.727 23.555 264.549 12.0864 255.305 5.52836H255.242ZM318.279 69.6987C312.17 68.2889 306.665 64.5029 301.382 59.3864C298.184 62.8655 294.56 65.9309 290.595 68.5106C293.444 69.6936 296.498 70.3124 299.585 70.3323H318.216C318.3 70.3323 318.381 70.2989 318.441 70.2395C318.5 70.1801 318.534 70.0995 318.534 70.0155C318.534 69.9315 318.5 69.8509 318.441 69.7915C318.381 69.7321 318.3 69.6987 318.216 69.6987" fill="white"/>
<path d="M178.88 0C178.81 0.0159519 178.747 0.0551629 178.702 0.111283C178.657 0.167402 178.633 0.237114 178.633 0.308903C178.633 0.380693 178.657 0.450308 178.702 0.506428C178.747 0.562547 178.81 0.601855 178.88 0.617807C184.99 2.01178 190.479 5.78186 195.762 10.9301C198.98 7.44922 202.619 4.37909 206.597 1.79C203.735 0.61655 200.67 0.00858851 197.575 0H178.88ZM263.716 63.1724C255.299 56.4718 247.678 45.8586 239.563 35.1503C234.202 28.1488 229.078 21.163 223.844 15.302C219.529 19.983 215.481 24.9014 211.72 30.0338C212.993 31.7446 214.281 33.4395 215.586 35.1503C224.401 46.7456 232.594 58.2143 241.823 64.7881C244.643 66.7742 248.01 67.8471 251.464 67.8612C253.153 67.8663 254.83 67.5933 256.428 67.0533C259.049 66.1543 261.51 64.8441 263.716 63.1724ZM353.722 0H335.091C318.528 0 306.563 17.4247 293.118 35.1503C281.122 50.9909 270.287 66.4672 256.349 69.6987C256.265 69.6987 256.184 69.7321 256.124 69.7915C256.064 69.8509 256.031 69.9315 256.031 70.0155C256.031 70.0995 256.064 70.1801 256.124 70.2395C256.184 70.2989 256.265 70.3323 256.349 70.3323H274.996C291.559 70.3323 303.556 52.8284 317.016 35.1503C329.013 19.3097 339.832 3.83345 353.722 0.617807C354.104 0.506923 354.072 0 353.722 0Z" fill="white"/>
<path d="M23.7078 91.3359C20.6954 91.3647 17.6878 91.5816 14.7026 91.9854C11.6981 92.353 8.75562 93.1146 5.95179 94.2506C5.42674 94.4407 5.10839 94.6625 5.01293 94.9793C4.95035 95.1272 4.91815 95.2861 4.91815 95.4466C4.91815 95.6071 4.95035 95.7659 5.01293 95.9139L6.22214 100.207C6.34943 100.745 6.57246 101.062 6.90658 101.125C7.35911 101.183 7.81841 101.106 8.22689 100.904C10.3401 100.292 12.4932 99.8266 14.6708 99.5097C17.141 99.1385 19.6346 98.9426 22.1327 98.9236C24.1837 98.8664 26.232 99.1119 28.2107 99.6522C29.5874 100.047 30.8411 100.782 31.8542 101.791C32.7208 102.714 33.3343 103.843 33.636 105.07C33.9495 106.463 34.1043 107.887 34.0975 109.315V111.501H21.8464C18.3916 111.414 14.9476 111.918 11.6638 112.99C9.16259 113.838 6.86161 115.186 4.90183 116.95C3.2164 118.527 1.93422 120.482 1.16269 122.653C0.3908 124.787 -0.00218954 127.038 0.00125023 129.306C-0.0225789 131.454 0.294365 133.592 0.940114 135.642C1.5923 137.66 2.74706 139.48 4.29703 140.933C6.17786 142.636 8.42594 143.888 10.8683 144.592C14.3362 145.585 17.9372 146.039 21.5442 145.939C24.9183 145.925 28.288 145.692 31.6317 145.242C34.9941 144.807 38.2776 143.9 41.3847 142.549C41.8835 142.336 42.2992 141.968 42.569 141.499C42.8389 141.03 42.9481 140.487 42.8802 139.951V108.697C42.8802 103.058 41.2893 98.7494 38.2822 95.7714C35.2751 92.7933 30.327 91.3359 23.6445 91.3359H23.7078ZM33.9705 136.846C32.8607 137.25 31.7225 137.573 30.5654 137.812C29.3403 138.018 28.1788 138.224 27.0014 138.383C25.9486 138.556 24.8857 138.662 23.8193 138.699H21.4327C19.7512 138.707 18.073 138.553 16.4211 138.24C15.0031 137.997 13.6432 137.492 12.4116 136.751C11.2708 136.037 10.3382 135.037 9.70685 133.852C8.99755 132.449 8.65272 130.892 8.70429 129.322C8.58785 127.333 9.09395 125.357 10.1524 123.667C11.0731 122.334 12.3073 121.246 13.7478 120.499C15.1413 119.817 16.6436 119.383 18.1869 119.215C19.778 119.057 21.1465 118.978 22.3398 118.978H33.9705V136.846ZM93.6984 92.4923H87.0479C86.7463 92.4624 86.4435 92.5356 86.1891 92.6996C85.9347 92.8637 85.7439 93.109 85.648 93.3953L76.5472 121.116L71.774 137.194H71.2807L66.2372 120.926L56.8338 93.3953C56.7409 93.1103 56.553 92.8654 56.3012 92.7012C56.0495 92.537 55.7493 92.4633 55.4498 92.4923H48.7037C47.9877 92.4923 47.7013 92.825 47.9082 93.4903L64.3594 141.075C64.7525 142.403 65.4812 143.609 66.4757 144.576C67.371 145.144 68.4232 145.415 69.4826 145.352H73.3969C74.5716 145.465 75.7431 145.112 76.6583 144.37C77.4664 143.372 78.0572 142.218 78.3927 140.98L94.5418 93.4586C94.669 92.7933 94.4145 92.4606 93.7621 92.4606L93.6984 92.4923ZM136.976 97.5138C135.117 95.4665 132.785 93.9007 130.182 92.9517C127.006 91.835 123.653 91.2984 120.285 91.3676C117.118 91.3357 113.979 91.9671 111.073 93.2209C108.262 94.4391 105.761 96.2686 103.754 98.5751C101.594 101.097 99.9703 104.028 98.9809 107.192C97.7254 110.971 97.1231 114.935 97.1991 118.914C97.1092 123.027 97.6727 127.127 98.8694 131.064C99.7979 134.188 101.43 137.059 103.643 139.46C105.736 141.676 108.333 143.361 111.216 144.37C114.451 145.472 117.853 146.008 121.272 145.954C124.013 145.943 126.75 145.699 129.45 145.226C132.195 144.716 134.821 143.707 137.198 142.248C137.392 142.188 137.569 142.082 137.714 141.939C137.858 141.796 137.965 141.621 138.026 141.428C138.087 141.234 138.1 141.029 138.064 140.83C138.028 140.631 137.944 140.443 137.819 140.283L135.719 136.101C135.65 135.92 135.54 135.757 135.396 135.626C135.253 135.495 135.08 135.4 134.893 135.347C134.705 135.295 134.508 135.287 134.317 135.325C134.126 135.362 133.947 135.444 133.793 135.563C132.104 136.42 130.321 137.079 128.479 137.527C126.346 138.09 124.147 138.373 121.94 138.367C119.839 138.379 117.748 138.08 115.735 137.48C113.852 136.89 112.132 135.876 110.707 134.517C109.189 133.008 108.012 131.193 107.254 129.195C106.314 126.662 105.866 123.974 105.934 121.275H134.812C135.784 121.277 136.753 121.149 137.691 120.895C138.564 120.674 139.378 120.269 140.078 119.706C140.788 119.075 141.334 118.281 141.669 117.394C142.116 116.139 142.321 114.812 142.273 113.481C142.318 110.448 141.878 107.427 140.969 104.531C140.164 101.957 138.813 99.5859 137.007 97.5771L136.976 97.5138ZM106.157 114.146C106.282 112.137 106.683 110.154 107.35 108.254C107.989 106.461 108.931 104.789 110.134 103.311C111.317 101.88 112.785 100.71 114.446 99.874C116.287 98.999 118.309 98.565 120.349 98.6068C122.645 98.5112 124.934 98.928 127.047 99.8265C128.721 100.586 130.176 101.752 131.279 103.216C132.34 104.713 133.062 106.421 133.396 108.222C133.841 110.166 134.065 112.153 134.064 114.146H106.157ZM172.79 116.665L188.335 93.6962C188.47 93.4498 188.52 93.166 188.478 92.8884C188.478 92.5557 188.144 92.3973 187.523 92.3973H181C180.564 92.3754 180.133 92.4979 179.775 92.7457C179.448 92.9993 179.154 93.2919 178.9 93.617L168.096 110.725L157.373 93.617C157.169 93.281 156.905 92.9856 156.593 92.7457C156.166 92.4779 155.664 92.3556 155.161 92.3973H148.383C147.826 92.3973 147.54 92.5873 147.46 92.9517C147.426 93.1153 147.429 93.2846 147.471 93.4466C147.512 93.6086 147.59 93.7591 147.699 93.8863L162.83 117.029L145.329 143.277C144.819 144.291 145.058 144.766 146.029 144.766H152.393C152.909 144.814 153.427 144.698 153.872 144.434C154.192 144.159 154.476 143.845 154.716 143.499L167.54 123.429L180.061 143.61C180.256 143.915 180.492 144.192 180.761 144.434C181.215 144.708 181.746 144.825 182.273 144.766H189.592C190.117 144.766 190.403 144.592 190.403 144.291C190.408 143.976 190.332 143.665 190.18 143.388L172.79 116.665ZM204.977 92.3973H199.552C199.123 92.3697 198.694 92.4572 198.31 92.6507C198.008 92.8091 197.833 93.221 197.833 93.8863V143.277C197.833 143.943 198.008 144.354 198.31 144.529C198.696 144.716 199.124 144.798 199.552 144.766H204.977C205.405 144.811 205.837 144.728 206.218 144.529C206.457 144.354 206.568 143.943 206.568 143.277V93.9338C206.568 93.2685 206.457 92.8567 206.218 92.6983C205.84 92.4915 205.407 92.4031 204.977 92.4448V92.3973ZM202.368 72.5965C201.594 72.5858 200.826 72.7303 200.11 73.0216C199.394 73.3128 198.744 73.7447 198.199 74.2915C197.63 74.8278 197.18 75.4771 196.878 76.1975C196.577 76.9179 196.431 77.6932 196.449 78.4733C196.439 79.2383 196.59 79.997 196.891 80.7007C197.192 81.4045 197.638 82.0378 198.199 82.5602C198.747 83.102 199.398 83.5295 200.114 83.8178C200.829 84.1061 201.596 84.2494 202.368 84.2393C203.131 84.2517 203.888 84.1093 204.594 83.8206C205.3 83.5319 205.939 83.103 206.473 82.5602C207.023 82.0322 207.456 81.3964 207.746 80.6929C208.037 79.9894 208.178 79.2336 208.159 78.4733C208.174 77.7069 208.035 76.9452 207.751 76.2328C207.466 75.5204 207.042 74.8716 206.503 74.3244C205.964 73.7771 205.32 73.3424 204.61 73.0457C203.9 72.749 203.138 72.5964 202.368 72.5965ZM290.099 98.0682C288.295 95.8631 285.957 94.1515 283.305 93.0943C280.03 91.8355 276.536 91.2377 273.027 91.3359C269.479 91.3102 265.947 91.8012 262.542 92.7933C259.476 93.671 256.571 95.0291 253.934 96.8168C251.834 94.9115 249.341 93.4844 246.631 92.6348C243.322 91.6925 239.889 91.2545 236.448 91.3359C233.903 91.3359 231.58 91.336 229.432 91.5894C227.545 91.6998 225.685 92.084 223.911 92.7299C222.494 93.2492 221.246 94.1416 220.299 95.3119C219.343 96.707 218.879 98.3782 218.979 100.064V143.467C218.949 143.681 218.976 143.899 219.057 144.099C219.138 144.299 219.27 144.474 219.44 144.608C219.826 144.792 220.254 144.874 220.681 144.846H226.107C226.54 144.894 226.978 144.811 227.363 144.608C227.502 144.455 227.605 144.273 227.665 144.076C227.726 143.879 227.742 143.671 227.714 143.467V99.8899C229.396 99.5445 231.104 99.3326 232.821 99.2562C234.619 99.1612 236.003 99.0978 236.846 99.0978C239.45 99.0032 242.048 99.4065 244.499 100.286C246.339 100.985 247.948 102.181 249.145 103.739C250.348 105.362 251.164 107.237 251.532 109.22C251.977 111.644 252.184 114.106 252.152 116.57V143.404C252.152 144.006 252.279 144.37 252.582 144.545C252.943 144.734 253.352 144.817 253.759 144.782H259.184C259.638 144.818 260.093 144.736 260.505 144.545C260.776 144.37 260.871 144.006 260.871 143.404V116.713C260.9 114.066 260.751 111.42 260.425 108.792C260.177 106.593 259.559 104.451 258.596 102.456C259.539 101.958 260.518 101.53 261.524 101.173C262.669 100.761 263.799 100.428 265.008 100.112C266.217 99.7949 267.378 99.5889 268.54 99.3988C269.628 99.2682 270.722 99.1941 271.818 99.177C277.148 99.177 280.918 100.619 283.082 103.502C285.246 106.385 286.36 110.947 286.36 117.124V143.483C286.36 144.085 286.471 144.449 286.742 144.624C287.122 144.809 287.544 144.891 287.967 144.861H293.567C293.96 144.903 294.355 144.82 294.697 144.624C294.845 144.476 294.956 144.296 295.023 144.098C295.089 143.9 295.108 143.69 295.079 143.483V115.73C295.108 112.401 294.724 109.081 293.933 105.846C293.243 103.031 291.958 100.396 290.163 98.1157L290.099 98.0682ZM326.757 91.3835C323.734 91.4144 320.715 91.6312 317.719 92.0329C314.72 92.4023 311.783 93.164 308.984 94.2981C308.475 94.4882 308.157 94.71 308.062 95.0268C307.951 95.3286 307.951 95.6596 308.062 95.9614L309.255 100.254C309.367 100.793 309.621 101.11 309.955 101.173C310.403 101.23 310.857 101.153 311.26 100.951C313.378 100.338 315.536 99.8727 317.719 99.5572C320.195 99.1835 322.694 98.9877 325.197 98.9711C327.238 98.9156 329.275 99.1612 331.243 99.6998C332.626 100.09 333.886 100.827 334.903 101.838C335.759 102.766 336.367 103.894 336.669 105.117C336.985 106.51 337.135 107.935 337.115 109.363V111.549H324.991C321.541 111.459 318.102 111.963 314.824 113.038C312.313 113.875 310.005 115.224 308.046 116.998C306.361 118.578 305.075 120.532 304.291 122.7C303.526 124.836 303.134 127.086 303.129 129.353C303.124 131.503 303.452 133.64 304.1 135.69C304.74 137.709 305.89 139.531 307.441 140.98C309.32 142.687 311.569 143.939 314.012 144.64C317.48 145.634 321.081 146.088 324.688 145.986C328.057 145.973 331.421 145.74 334.76 145.289C338.127 144.854 341.416 143.948 344.529 142.596C345.028 142.384 345.443 142.015 345.713 141.546C345.983 141.078 346.092 140.534 346.024 139.998V108.697C346.024 103.058 344.433 98.7494 341.395 95.7714C338.356 92.7933 333.439 91.3359 326.788 91.3359L326.757 91.3835ZM337.099 136.846C335.995 137.252 334.862 137.575 333.71 137.812C332.516 138.018 331.323 138.224 330.13 138.383C329.077 138.557 328.014 138.663 326.948 138.699H324.625C322.943 138.709 321.265 138.555 319.613 138.24C318.185 137.996 316.815 137.492 315.572 136.751C314.444 136.026 313.519 135.029 312.883 133.852C312.179 132.448 311.84 130.89 311.896 129.322C311.779 127.337 312.272 125.364 313.312 123.667C314.237 122.349 315.457 121.265 316.876 120.499C318.282 119.821 319.794 119.387 321.347 119.215C322.938 119.057 324.307 118.978 325.516 118.978H337.13L337.099 136.846Z" fill="white"/>
</svg>
