<svg width="225.203125" height="47.992188" viewBox="0 0 225.203 47.9922" fill="none" xmlns="http://www.w3.org/2000/svg" xmlns:xlink="http://www.w3.org/1999/xlink">
	<desc>
			Created with Pixso.
	</desc>
	<defs>
		<clipPath id="clip7_841">
			<rect rx="-0.444158" width="224.315170" height="47.105869" transform="translate(0.444158 0.444158)" fill="white" fill-opacity="0"/>
		</clipPath>
	</defs>
	<rect rx="-0.444158" width="224.315170" height="47.105869" transform="translate(0.444158 0.444158)" fill="#FFFFFF" fill-opacity="0"/>
	<g clip-path="url(#clip7_841)">
		<path d="M0.03 30.17C0.03 34.64 3.07 38.14 7.85 38.14C10.83 38.14 13.33 36.76 15.57 34.79L15.73 34.79L16.31 37.5L22.69 37.5L22.69 22.41C22.69 14.32 18.97 10.5 12.21 10.5C8.07 10.5 4.29 11.93 0.94 13.96L3.7 19.11C6.26 17.62 8.49 16.71 10.73 16.71C13.54 16.71 14.71 18.21 14.87 20.54C4.45 21.61 0.03 24.64 0.03 30.17ZM7.48 29.58C7.48 27.57 9.29 25.97 14.87 25.22L14.87 29.85C13.49 31.23 12.32 32.08 10.51 32.08C8.65 32.08 7.48 31.28 7.48 29.58ZM36.96 35.38C38.82 37.14 40.94 38.14 43.23 38.14C48.92 38.14 54.35 32.93 54.35 23.89C54.35 15.76 50.41 10.5 44.03 10.5C41.26 10.5 38.6 11.88 36.53 13.74L36.32 13.74L35.78 11.14L29.4 11.14L29.4 47.28L37.22 47.28L37.22 39.58L36.96 35.38ZM37.22 30.07L37.22 19.27C38.76 17.62 40.15 16.88 41.74 16.88C44.88 16.88 46.32 19.27 46.32 24C46.32 29.42 44.14 31.76 41.42 31.76C40.09 31.76 38.6 31.34 37.22 30.07ZM60.95 27.93C60.95 34.05 63.51 38.14 70.05 38.14C72.6 38.14 74.51 37.61 75.9 37.18L74.67 31.5C73.98 31.76 73.03 32.03 72.17 32.03C70.1 32.03 68.77 30.81 68.77 27.83L68.77 17.25L75.1 17.25L75.1 11.14L68.77 11.14L68.77 4.12L62.28 4.12L61.38 11.14L57.34 11.46L57.34 17.25L60.95 17.25L60.95 27.93ZM78.19 24.32C78.19 33.04 83.99 38.14 91.54 38.14C94.67 38.14 98.19 37.03 100.9 35.17L98.29 30.43C96.38 31.6 94.57 32.19 92.6 32.19C89.09 32.19 86.43 30.43 85.74 26.45L101.54 26.45C101.7 25.81 101.85 24.53 101.85 23.15C101.85 15.97 98.13 10.5 90.63 10.5C84.3 10.5 78.19 15.76 78.19 24.32ZM85.69 21.61C86.22 18.1 88.35 16.45 90.79 16.45C93.93 16.45 95.21 18.58 95.21 21.61L85.69 21.61ZM107.26 37.5L114.86 37.5L114.86 31.02L118.21 27.25L124.17 37.5L132.63 37.5L122.68 21.98L131.94 11.14L123.43 11.14L115.08 21.61L114.86 21.61L114.86 0.24L107.26 0.24L107.26 37.5ZM134.92 30.17C134.92 34.64 137.95 38.14 142.74 38.14C145.72 38.14 148.22 36.76 150.45 34.79L150.61 34.79L151.19 37.5L157.58 37.5L157.58 22.41C157.58 14.32 153.85 10.5 147.1 10.5C142.95 10.5 139.17 11.93 135.82 13.96L138.59 19.11C141.14 17.62 143.38 16.71 145.61 16.71C148.43 16.71 149.6 18.21 149.76 20.54C139.34 21.61 134.92 24.64 134.92 30.17ZM142.37 29.58C142.37 27.57 144.17 25.97 149.76 25.22L149.76 29.85C148.37 31.23 147.21 32.08 145.4 32.08C143.53 32.08 142.37 31.28 142.37 29.58Z" fill="#1A2A79" fill-opacity="1.000000" fill-rule="nonzero"/>
		<path d="M164.08 33.25C164.08 36.01 166.1 38.14 168.82 38.14C171.53 38.14 173.55 36.01 173.55 33.25C173.55 30.43 171.53 28.31 168.82 28.31C166.1 28.31 164.08 30.43 164.08 33.25ZM180.24 37.5L188.06 37.5L188.06 22.19C189.44 18.63 191.89 17.35 193.85 17.35C194.97 17.35 195.77 17.51 196.73 17.78L198 11.03C197.26 10.71 196.35 10.5 194.87 10.5C192.15 10.5 189.28 12.2 187.37 15.76L187.15 15.76L186.62 11.14L180.24 11.14L180.24 37.5ZM201.16 27.51C201.16 34.1 203.61 38.14 209.35 38.14C212.97 38.14 215.42 36.5 217.65 33.83L217.81 33.83L218.4 37.5L224.78 37.5L224.78 11.14L216.96 11.14L216.96 28.57C215.42 30.64 214.25 31.5 212.28 31.5C209.99 31.5 208.98 30.27 208.98 26.5L208.98 11.14L201.16 11.14L201.16 27.51Z" fill="#FA4A5F" fill-opacity="1.000000" fill-rule="nonzero"/>
	</g>
</svg>
