<svg width="94.000000" height="86.000000" viewBox="0 0 94 86" fill="none" xmlns="http://www.w3.org/2000/svg" xmlns:xlink="http://www.w3.org/1999/xlink">
	<desc>
			Created with Pixso.
	</desc>
	<defs>
		<clipPath id="clip457_1155">
			<rect id="озерки" rx="-0.500000" width="93.000000" height="85.000000" transform="translate(0.500000 0.500000)" fill="white" fill-opacity="0"/>
		</clipPath>
	</defs>
	<rect id="озерки" rx="-0.500000" width="93.000000" height="85.000000" transform="translate(0.500000 0.500000)" fill="#FFFFFF" fill-opacity="0"/>
	<g clip-path="url(#clip457_1155)">
		<path id="Vector" d="M48.73 0.1C51.61 0.07 54.48 0.33 57.33 0.65C61.72 1.15 66.04 2 70.26 3.27C75.55 4.85 80.58 6.96 85.09 10.17C87.33 11.78 89.35 13.62 90.98 15.85C95.08 21.46 95 28 90.75 33.51C88.08 36.99 84.62 39.5 80.8 41.57C75.32 44.55 69.45 46.41 63.33 47.55C59.07 48.34 54.76 48.78 50.43 48.93C42.1 49.23 33.87 48.53 25.8 46.42C20 44.89 14.5 42.68 9.53 39.29C6.95 37.53 4.64 35.49 2.85 32.92C-1.13 27.21 -0.94 20.96 3.37 15.42C5.89 12.17 9.13 9.79 12.69 7.79C17.77 4.94 23.25 3.14 28.93 1.92C33.88 0.86 38.88 0.26 43.94 0.1C44.07 0.1 44.22 0.16 44.29 0L45.2 0C45.35 0.17 45.55 0.1 45.73 0.1C46.73 0.11 47.73 0.1 48.73 0.1ZM89.83 24.34C89.79 23.75 89.75 22.91 89.58 22.08C88.98 19.21 87.53 16.81 85.56 14.67C82.74 11.62 79.28 9.45 75.55 7.67C70.73 5.39 65.65 3.9 60.4 2.96C58.75 2.66 57.08 2.42 55.41 2.25C55.1 2.21 54.96 2.25 54.96 2.6C54.96 2.98 55.07 3.1 55.45 3.17C58.88 3.83 62.2 4.85 65.36 6.35C69.64 8.37 73.42 11.03 76.26 14.88C78.21 17.51 79.42 20.42 79.64 23.71C79.91 27.92 78.56 31.64 76.01 34.95C73.08 38.76 69.23 41.39 64.88 43.36C61.86 44.73 58.71 45.7 55.44 46.32C55.28 46.35 54.93 46.28 55 46.61C55.07 46.88 55.33 46.69 55.49 46.67C56.71 46.52 57.93 46.38 59.14 46.2C64.82 45.34 70.31 43.86 75.5 41.39C79.5 39.49 83.17 37.14 86.07 33.75C88.33 31.11 89.77 28.13 89.83 24.34ZM36.73 46.35C36.57 46.3 36.41 46.25 36.25 46.21C32.56 45.47 29.02 44.28 25.68 42.57C21.99 40.66 18.68 38.26 16.19 34.92C11.96 29.24 11.26 23.2 14.67 16.89C16.63 13.26 19.64 10.59 23.1 8.39C24.54 7.48 26.05 6.69 27.6 6C30.59 4.68 33.69 3.75 36.9 3.15C37.17 3.1 37.42 3.06 37.36 2.67C37.29 2.26 37 2.48 36.83 2.5C35.87 2.62 34.92 2.77 33.97 2.93C28.14 3.93 22.53 5.6 17.25 8.28C13.6 10.14 10.27 12.44 7.67 15.66C5.74 18.07 4.47 20.76 4.31 23.88C4.12 27.5 5.47 30.61 7.71 33.39C10.47 36.8 14.03 39.17 17.93 41.1C22.38 43.3 27.08 44.76 31.94 45.71C33.52 46.01 35.1 46.28 36.73 46.35ZM65.72 38.01C66.89 38.54 67.97 39.03 69.05 39.54C69.29 39.66 69.42 39.56 69.6 39.44C71.94 37.82 74.01 35.94 75.61 33.59C79.02 28.57 79.56 23.32 76.79 17.85C75.3 14.9 73.03 12.6 70.4 10.63C69.56 10 68.68 9.9 67.75 10.35C67.16 10.64 66.55 10.9 65.96 11.19C65.82 11.26 65.62 11.28 65.55 11.5C67.09 12.7 68.46 14.06 69.62 15.64C69.75 15.82 69.92 15.82 70.12 15.82C70.78 15.82 71.44 15.85 72.1 15.82C72.6 15.78 72.74 15.92 72.74 16.42C72.71 21.6 72.73 26.78 72.72 31.96C72.72 32.42 72.87 33.05 72.64 33.32C72.36 33.64 71.7 33.47 71.23 33.41C70.37 33.31 69.83 33.6 69.33 34.33C68.37 35.74 67.1 36.89 65.72 38.01ZM27.18 38.5C26.47 37.91 25.81 37.41 25.2 36.85C24.58 36.29 24.02 35.67 23.43 35.1C22.92 34.58 22.66 33.71 22 33.49C21.32 33.25 20.5 33.4 19.74 33.44C19.28 33.46 19.14 33.35 19.14 32.86C19.17 30.07 19.16 27.29 19.16 24.51C19.16 21.78 19.16 19.05 19.15 16.32C19.14 15.93 19.25 15.8 19.65 15.82C20.41 15.85 21.17 15.82 21.92 15.83C22.14 15.83 22.31 15.81 22.46 15.6C23.66 13.96 25.13 12.58 26.8 11.32C25.66 10.83 24.56 10.39 23.48 9.9C23.18 9.77 22.96 9.8 22.7 9.98C20.42 11.57 18.38 13.4 16.76 15.67C13.88 19.72 12.84 24.15 14.33 28.97C15.83 33.85 19.26 37.24 23.43 39.99C23.57 40.07 23.69 40.1 23.85 40.03C24.94 39.53 26.03 39.03 27.18 38.5ZM68.62 33.43C64.12 33.43 59.73 33.43 55.34 33.42C55.03 33.42 54.97 33.53 54.97 33.82C54.98 36.37 54.98 38.92 54.97 41.49C54.96 41.84 55.05 41.89 55.38 41.79C57.42 41.22 59.4 40.5 61.28 39.5C62 39.13 62.73 38.75 63.44 38.21C62.52 37.8 61.68 37.42 60.84 37.03C60.3 36.78 59.75 36.53 59.2 36.27C58.88 36.11 58.77 35.85 58.92 35.52C59.05 35.21 59.32 35.14 59.63 35.24C59.79 35.28 59.94 35.36 60.09 35.43C61.43 36.05 62.77 36.66 64.11 37.27C64.33 37.37 64.52 37.5 64.78 37.3C66.2 36.19 67.48 34.96 68.62 33.43ZM23.64 33.43C23.64 33.67 23.8 33.77 23.9 33.89C25.06 35.3 26.41 36.5 27.87 37.58C28.25 37.85 28.55 37.91 28.99 37.7C30.57 36.94 32.18 36.23 33.78 35.5C33.91 35.44 34.05 35.37 34.19 35.34C34.48 35.26 34.73 35.34 34.86 35.62C35 35.92 34.92 36.18 34.63 36.35C34.38 36.49 34.12 36.59 33.86 36.71C32.46 37.35 31.05 38 29.61 38.65C29.71 38.73 29.76 38.78 29.82 38.82C32.05 40.1 34.42 41.06 36.91 41.75C37.34 41.88 37.36 41.69 37.36 41.35C37.35 38.89 37.34 36.42 37.37 33.96C37.37 33.49 37.21 33.42 36.8 33.42C32.57 33.43 28.35 33.43 24.13 33.43L23.64 33.43ZM23.75 15.79C23.94 15.81 24.01 15.82 24.08 15.82C28.36 15.82 32.64 15.82 36.92 15.83C37.26 15.83 37.37 15.75 37.37 15.39C37.35 12.95 37.35 10.5 37.37 8.06C37.37 7.65 37.23 7.66 36.9 7.75C35.17 8.22 33.49 8.84 31.86 9.6C30.96 10.03 30.08 10.48 29.19 11.07C29.48 11.21 29.67 11.3 29.88 11.39C31.28 11.99 32.69 12.58 34.1 13.17C34.15 13.2 34.21 13.22 34.26 13.24C34.66 13.39 34.95 13.63 34.75 14.08C34.55 14.52 34.2 14.45 33.83 14.29C32.17 13.58 30.48 12.91 28.83 12.16C28.23 11.88 27.8 11.9 27.28 12.34C26.03 13.37 24.81 14.42 23.75 15.79ZM68.33 15.82C67.24 14.42 66.04 13.33 64.76 12.29C64.41 12 64.14 12.03 63.76 12.21C62.46 12.85 61.13 13.44 59.82 14.07C59.44 14.25 59.1 14.26 58.91 13.85C58.71 13.43 58.98 13.19 59.35 13.03C59.48 12.99 59.59 12.92 59.71 12.87C60.85 12.33 62 11.8 63.17 11.25C63.08 11.17 63.03 11.1 62.97 11.07C60.59 9.57 58.02 8.5 55.32 7.73C55 7.64 54.97 7.75 54.97 8.01C54.98 10.5 54.98 12.98 54.97 15.46C54.97 15.77 55.08 15.84 55.37 15.83C55.86 15.82 56.35 15.82 56.84 15.82C60.63 15.82 64.41 15.82 68.33 15.82ZM24.25 9C25.21 9.41 26.14 9.75 27 10.19C27.64 10.51 28.1 10.44 28.69 10.07C31.25 8.44 34.03 7.35 36.94 6.57C37.17 6.5 37.37 6.48 37.36 6.16C37.34 5.52 37.36 4.89 37.36 4.2C32.71 5.07 28.35 6.57 24.25 9ZM67.95 9C66.46 8.08 64.96 7.35 63.41 6.71C60.86 5.64 58.22 4.88 55.51 4.32C55.12 4.23 54.92 4.27 54.97 4.75C55.01 5.16 55 5.57 54.97 5.99C54.94 6.34 55.04 6.5 55.42 6.6C58.53 7.42 61.44 8.68 64.11 10.47C64.28 10.58 64.42 10.67 64.63 10.57C65.71 10.04 66.81 9.53 67.95 9ZM68.15 40.37C67.08 39.89 66.07 39.43 65.07 38.96C64.78 38.82 64.57 38.84 64.3 39.02C61.9 40.64 59.29 41.8 56.52 42.63C56.02 42.78 55.3 42.78 55.07 43.12C54.81 43.5 55.03 44.17 54.96 44.71C54.9 45.26 55.14 45.25 55.56 45.17C58.06 44.64 60.51 43.95 62.88 43C64.69 42.28 66.44 41.44 68.15 40.37ZM24.83 40.83C28.76 43.07 32.92 44.46 37.3 45.28C37.32 45.22 37.35 45.19 37.35 45.16C37.35 44.6 37.33 44.03 37.37 43.46C37.39 43.1 37.25 42.99 36.92 42.9C34 42.14 31.22 41.01 28.65 39.42C28.46 39.3 28.29 39.24 28.07 39.34C27.01 39.83 25.95 40.32 24.83 40.83Z" fill="#ED1C24" fill-opacity="1.000000" fill-rule="nonzero"/>
		<path id="Vector" d="M49 0.1C47.86 0.1 46.73 0.11 45.6 0.1C45.39 0.1 45.16 0.17 45 0L48.99 0L49 0.1Z" fill="#ED1C24" fill-opacity="1.000000" fill-rule="nonzero"/>
		<path id="Vector" d="M74.59 81.32C75.72 80.34 76.76 79.45 77.8 78.56C77.97 78.42 78.01 78.25 77.97 78.05C77.92 77.83 77.73 77.92 77.59 77.89C76.95 77.78 76.61 77.39 76.65 76.82C76.69 76.29 77.02 76.02 77.7 76.01C78.76 76 79.82 76 80.87 76.01C81.59 76.02 81.83 76.21 81.88 76.75C81.94 77.43 81.73 77.77 81.04 77.87C80.69 77.92 80.66 78.07 80.66 78.35C80.66 80.12 80.67 81.89 80.66 83.67C80.65 84.01 80.76 84.11 81.1 84.15C81.75 84.22 82.02 84.55 81.99 85.1C81.97 85.63 81.66 85.93 81.03 85.95C79.9 85.98 78.76 85.98 77.63 85.95C76.97 85.93 76.66 85.62 76.65 85.07C76.64 84.51 76.91 84.22 77.57 84.14C77.78 84.1 77.99 84.13 77.99 83.82C77.98 82.84 77.98 81.86 77.98 80.91C77.82 80.83 77.75 80.9 77.68 80.96C76.74 81.77 75.8 82.57 74.85 83.38C74.67 83.53 74.53 83.7 74.59 83.96C74.66 84.24 74.91 84.1 75.07 84.14C75.66 84.24 75.97 84.56 75.96 85.07C75.94 85.59 75.63 85.92 75.02 85.94C73.85 85.98 72.67 85.96 71.5 85.95C71.11 85.94 70.8 85.77 70.6 85.38C70.37 85.86 69.95 85.96 69.49 85.97C69.28 85.97 68.49 85.97 68.49 85.97C67.28 85.91 66.91 85.6 66.4 84.58C65.93 83.64 65.26 82.83 64.44 82.15C64.29 82.03 64.14 81.71 63.88 81.91C63.56 82.15 63.07 82.23 63 82.72C62.97 82.91 63.01 83.1 62.99 83.28C62.94 83.79 62.96 84.18 63.67 84.2C64.14 84.21 64.33 84.59 64.33 85.05C64.33 85.5 64.14 85.85 63.67 85.9C62.35 86.03 61.02 86.02 59.7 85.91C59.21 85.87 58.99 85.5 59 85.03C59 84.54 59.26 84.19 59.74 84.17C60.33 84.16 60.38 83.88 60.37 83.4C60.35 81.72 60.35 80.04 60.37 78.36C60.37 78.05 60.32 77.91 59.95 77.87C59.28 77.8 59.06 77.47 59.1 76.84C59.15 76.21 59.37 76.02 60.09 76.01C61.15 76 62.21 76 63.26 76.01C63.93 76.02 64.27 76.27 64.32 76.74C64.39 77.36 64.1 77.78 63.41 77.87C63.04 77.92 62.98 78.05 62.98 78.36C63.01 78.95 62.99 79.53 62.99 80.28C64.07 79.43 65.04 78.67 66.08 77.86C65.75 77.69 65.38 77.65 65.27 77.27C65.07 76.55 65.43 76.03 66.21 76.01C67.25 75.99 68.29 76 69.33 76.01C70.03 76.02 70.38 76.31 70.41 76.85C70.44 77.39 70.05 77.85 69.41 77.87C68.98 77.89 68.7 78.08 68.4 78.32C67.68 78.89 66.95 79.45 66.23 80C66.06 80.14 65.93 80.24 66.19 80.42C67.4 81.24 68.1 82.46 68.86 83.64C69.05 83.95 69.23 84.19 69.66 84.13C70.08 84.07 70.39 84.3 70.6 84.69C70.82 84.29 71.17 84.11 71.6 84.13C71.91 84.14 71.93 83.98 71.93 83.75C71.93 81.92 71.92 80.08 71.94 78.25C71.94 78 71.87 77.91 71.59 77.89C71.2 77.85 70.83 77.68 70.66 77.31C70.36 76.69 70.74 76.05 71.48 76.03C72.67 75.98 73.86 75.99 75.05 76.02C75.61 76.03 75.93 76.39 75.96 76.87C75.98 77.37 75.66 77.78 75.05 77.85C74.64 77.91 74.57 78.06 74.58 78.42C74.6 79.34 74.59 80.26 74.59 81.32Z" fill="#ED1C24" fill-opacity="1.000000" fill-rule="nonzero"/>
		<path id="Vector" d="M54.09 71C52.63 71 51.17 71 49.72 71C49.39 71 49.07 71 48.76 70.9C48.19 70.73 47.96 70.42 48 69.84C48.04 69.32 48.34 68.95 48.87 68.92C49.32 68.89 49.33 68.7 49.33 68.36C49.32 66.46 49.32 64.55 49.33 62.65C49.33 62.32 49.3 62.11 48.87 62.07C48.33 62.03 48.04 61.67 48 61.15C47.96 60.57 48.19 60.26 48.76 60.08C49.02 60 49.28 60 49.55 60C52.54 60 55.53 60 58.52 60C58.64 60 58.75 60 58.86 60C59.78 60.05 59.97 60.24 59.98 61.15C59.98 61.75 59.99 62.35 59.97 62.96C59.94 63.79 59.52 64.15 58.67 64.13C57.85 64.1 57.48 63.74 57.47 62.93C57.47 62.34 57.16 62.04 56.54 62.04C55.23 62.04 53.92 62.05 52.62 62.03C52.25 62.03 52.12 62.14 52.14 62.5C52.17 62.97 52.17 63.45 52.14 63.92C52.13 64.22 52.24 64.31 52.53 64.29C52.82 64.27 53.1 64.27 53.39 64.29C53.83 64.32 54.2 64.33 54.29 63.73C54.35 63.31 54.94 63.12 55.57 63.2C56.14 63.27 56.53 63.59 56.55 64.09C56.58 64.87 56.59 65.66 56.55 66.45C56.53 67.02 56.11 67.35 55.5 67.38C54.64 67.42 54.3 67.24 54.2 66.58C54.16 66.3 54.06 66.23 53.78 66.21C52.15 66.14 52.15 66.14 52.15 67.7C52.15 68.53 52.58 68.95 53.44 68.95C54.61 68.95 55.79 68.93 56.96 68.96C57.34 68.96 57.54 68.87 57.48 68.47C57.46 68.42 57.47 68.36 57.47 68.31C57.48 66.89 57.61 66.78 59.05 66.79C59.54 66.79 59.82 67.01 59.89 67.43C60.05 68.42 59.99 69.4 59.92 70.39C59.91 70.67 59.71 70.83 59.42 70.9C59.08 70.99 58.74 71 58.41 71C56.96 71 55.53 71 54.09 71Z" fill="#ED1C24" fill-opacity="1.000000" fill-rule="nonzero"/>
		<path id="Vector" d="M26.5 60C27.99 60 29.48 60 30.98 60C31.37 60 31.75 60 32.13 60.11C32.75 60.29 33.02 60.61 32.99 61.13C32.96 61.58 32.55 62.03 32.01 62.07C31.51 62.09 31.42 62.28 31.43 62.7C31.45 64.6 31.44 66.51 31.43 68.42C31.43 68.75 31.5 68.9 31.91 68.89C32.53 68.89 32.91 69.22 32.98 69.75C33.06 70.38 32.83 70.7 32.19 70.91C31.85 71.02 31.5 70.99 31.15 70.99C30.12 70.99 29.09 71 28.07 70.97C27.58 70.96 27.2 70.75 27.03 70.3C26.87 69.86 27 69.47 27.31 69.13C27.44 68.98 27.61 68.86 27.81 68.89C28.28 68.96 28.34 68.73 28.33 68.35C28.32 66.45 28.32 64.54 28.33 62.64C28.34 62.26 28.24 62.13 27.82 62.14C26.91 62.17 26 62.16 25.08 62.14C24.79 62.14 24.67 62.22 24.68 62.52C24.69 64.51 24.69 66.51 24.68 68.51C24.67 68.78 24.76 68.88 25.07 68.89C25.68 68.93 26.03 69.32 26.05 69.91C26.07 70.45 25.74 70.85 25.14 70.95C24.8 71 24.44 70.99 24.1 70.99C23.13 70.99 22.16 71.01 21.19 70.97C20.28 70.93 19.82 70.32 20.06 69.5C20.19 69.05 20.54 68.84 21.03 68.89C21.46 68.93 21.59 68.79 21.58 68.38C21.56 66.47 21.56 64.57 21.58 62.66C21.58 62.28 21.51 62.11 21.06 62.08C20.3 62.02 20 61.62 20.03 60.95C20.05 60.54 20.25 60.3 20.64 60.16C21.06 60.01 21.51 60 21.95 60C23.47 60 24.98 60 26.5 60Z" fill="#ED1C24" fill-opacity="1.000000" fill-rule="nonzero"/>
		<path id="Vector" d="M69.97 62.12C69.11 61.82 68.87 61.5 68.96 60.89C69.03 60.39 69.39 60.08 70.12 60.06C71.24 60.02 72.37 60.02 73.5 60.06C74.29 60.08 74.65 60.43 74.67 61.05C74.7 61.73 74.39 62.04 73.55 62.14C73.19 62.17 72.91 62.3 72.64 62.52C71.75 63.24 70.83 63.92 69.93 64.63C69.92 64.64 69.91 64.66 69.87 64.71C71.32 65.76 72.35 67.14 73.21 68.66C73.37 68.94 73.62 68.86 73.85 68.87C74.62 68.91 75.05 69.33 74.99 70.02C74.96 70.46 74.72 70.77 74.25 70.87C73.46 71.03 72.65 71.03 71.86 70.91C71.25 70.82 70.87 70.39 70.58 69.9C69.94 68.86 69.29 67.83 68.37 67C68.13 66.77 67.91 66.39 67.49 66.53C66.89 66.71 66.51 67.22 66.51 67.75C66.51 67.89 66.52 68.01 66.51 68.14C66.46 68.59 66.49 68.91 67.14 68.92C67.61 68.93 67.89 69.31 67.92 69.79C67.96 70.3 67.81 70.71 67.25 70.85C67.03 70.92 66.8 70.95 66.57 70.96C65.54 70.96 64.51 70.96 63.48 70.96C63.27 70.96 63.06 70.92 62.86 70.87C62.28 70.72 61.96 70.32 62 69.8C62.03 69.38 62.48 68.9 63 68.9C63.52 68.9 63.56 68.69 63.56 68.28C63.53 66.42 63.54 64.57 63.55 62.71C63.56 62.35 63.51 62.14 63.06 62.11C62.44 62.06 62.12 61.69 62.1 61.14C62.08 60.54 62.31 60.19 62.96 60.11C64.33 59.95 65.71 59.96 67.07 60.11C67.73 60.18 67.96 60.57 67.92 61.2C67.89 61.72 67.58 62.05 66.98 62.11C66.63 62.15 66.49 62.26 66.5 62.62C66.53 63.31 66.51 64 66.51 64.85C67.7 63.9 68.8 63.03 69.97 62.12Z" fill="#ED1C24" fill-opacity="1.000000" fill-rule="nonzero"/>
		<path id="Vector" d="M8.98 68.87C9.23 68.87 9.43 68.85 9.63 68.87C10.31 68.92 10.68 69.25 10.7 69.82C10.73 70.46 10.44 70.86 9.75 70.92C8.49 71.02 7.21 71.03 5.95 70.91C5.23 70.84 4.97 70.47 5 69.82C5.02 69.25 5.36 68.92 6.05 68.87C6.28 68.85 6.42 68.79 6.51 68.58C7.42 66.51 8.34 64.44 9.25 62.37C9.28 62.32 9.27 62.27 9.28 62.19C8.86 62.16 8.44 62.14 8.02 62.1C7.53 62.03 7.15 61.82 7.1 61.26C7.03 60.6 7.23 60.3 7.84 60.1C7.9 60.09 7.95 60.06 8 60.06C9.71 59.99 11.42 59.96 13.12 60.07C13.73 60.11 13.95 60.61 14.16 61.09C15.09 63.17 16.01 65.25 16.92 67.34C17.03 67.59 17.16 67.84 17.26 68.09C17.42 68.55 17.58 68.91 18.22 68.92C18.69 68.92 18.98 69.35 19 69.84C19.01 70.34 18.82 70.72 18.28 70.87C17.95 70.96 17.62 70.96 17.29 70.96C16.28 70.96 15.27 70.96 14.26 70.96C13.97 70.96 13.67 70.95 13.4 70.82C13.01 70.63 12.76 70.35 12.75 69.89C12.74 69.44 13 69.18 13.37 69.01C13.51 68.94 13.69 68.92 13.84 68.87C14.05 68.79 14.41 69.04 14.47 68.69C14.54 68.28 14.1 67.89 13.68 67.89C12.52 67.88 11.36 67.88 10.2 67.88C9.62 67.88 9.21 68.21 8.98 68.87ZM11.78 62.17C11.28 63.39 10.82 64.51 10.35 65.64C10.24 65.89 10.35 65.95 10.59 65.94C11.39 65.94 12.2 65.94 13.01 65.94C13.27 65.95 13.31 65.86 13.21 65.62C12.74 64.51 12.28 63.39 11.78 62.17Z" fill="#ED1C24" fill-opacity="1.000000" fill-rule="nonzero"/>
		<path id="Vector" d="M81.34 60.01C82.2 60.01 82.88 60.01 83.56 60.01C84.25 60 84.73 60.27 85.02 60.94C86.12 63.42 87.26 65.9 88.37 68.39C88.51 68.71 88.66 68.91 89.07 68.93C89.57 68.96 89.92 69.25 89.99 69.79C90.05 70.36 89.77 70.7 89.27 70.89C89.1 70.94 88.91 70.98 88.73 70.98C87.47 70.99 86.2 71 84.94 70.98C84.23 70.96 83.85 70.64 83.8 70.1C83.72 69.32 84.08 68.95 84.91 68.89C85.1 68.87 85.47 69.04 85.43 68.74C85.4 68.42 85.33 67.93 84.87 67.92C83.42 67.89 81.96 67.9 80.51 67.91C80.33 67.92 79.91 68.69 80 68.83C80.07 68.94 80.19 68.89 80.3 68.89C80.55 68.9 80.81 68.89 81.05 69.01C81.43 69.2 81.73 69.46 81.71 69.93C81.7 70.41 81.42 70.71 81 70.87C80.83 70.94 80.64 70.98 80.46 70.98C79.36 70.99 78.26 71.01 77.16 70.98C76.34 70.95 75.98 70.57 76 69.89C76.01 69.32 76.39 68.93 77.02 68.9C77.31 68.89 77.44 68.79 77.55 68.54C78.41 66.57 79.28 64.6 80.16 62.63C80.32 62.28 80.3 62.13 79.87 62.16C79.6 62.17 79.32 62.14 79.05 62.1C78.44 62.02 78.12 61.7 78.09 61.17C78.06 60.53 78.33 60.17 78.99 60.07C79.83 59.92 80.68 60.04 81.34 60.01ZM81.14 65.96C82.1 65.96 83 65.96 83.89 65.96C84.32 65.96 84.15 65.73 84.07 65.53C83.69 64.59 83.31 63.64 82.91 62.71C82.85 62.57 82.87 62.37 82.63 62.33C82.14 63.52 81.65 64.71 81.14 65.96Z" fill="#ED1C24" fill-opacity="1.000000" fill-rule="nonzero"/>
		<path id="Vector" d="M40.48 60C42.11 60 43.75 60 45.38 60C46.6 60 46.79 60.17 46.87 61.32C46.94 62.21 46.95 63.11 47 64.01C47.01 64.47 46.84 64.85 46.35 65.01C45.8 65.18 45.24 65.19 44.75 64.82C44.55 64.67 44.55 64.44 44.53 64.21C44.51 63.65 44.47 63.08 44.45 62.52C44.44 62.23 44.31 62.14 44.02 62.15C43.5 62.17 42.97 62.17 42.44 62.14C42.14 62.14 42.05 62.25 42.05 62.53C42.05 64.53 42.05 66.52 42.05 68.52C42.04 68.81 42.15 68.9 42.45 68.89C43.01 68.87 43.58 68.88 44.14 68.89C44.98 68.9 45.4 69.23 45.41 69.88C45.42 70.57 45.06 70.94 44.19 70.97C43.01 71.01 41.82 71 40.63 71C39.35 71 38.06 71 36.78 70.97C36.02 70.96 35.55 70.62 35.47 70.11C35.34 69.41 35.76 68.94 36.59 68.89C37.17 68.87 37.76 68.85 38.34 68.89C38.85 68.93 38.95 68.75 38.94 68.31C38.92 66.46 38.91 64.61 38.94 62.76C38.96 62.23 38.76 62.1 38.26 62.14C37.97 62.17 37.67 62.15 37.38 62.15C36.53 62.15 36.52 62.15 36.48 62.99C36.46 63.37 36.46 63.75 36.44 64.14C36.41 64.74 35.92 65.12 35.21 65.12C34.48 65.12 33.99 64.75 34 64.14C34.01 63.01 34.06 61.87 34.12 60.74C34.16 60.14 34.65 60.02 35.16 60.01C36.31 60 37.46 60 38.61 60C39.23 60 39.85 60 40.48 60Z" fill="#ED1C24" fill-opacity="1.000000" fill-rule="nonzero"/>
		<path id="Vector" d="M41.62 76C43.11 76 44.6 76 46.09 76C46.85 76 46.98 76.14 46.99 76.86C47 77.49 47 78.11 46.98 78.74C46.96 79.42 46.66 79.71 45.99 79.73C45.21 79.75 44.8 79.44 44.71 78.78C44.67 78.46 44.86 78.02 44.61 77.87C44.33 77.71 43.89 77.8 43.52 77.8C42.44 77.79 41.37 77.81 40.29 77.79C39.96 77.78 39.84 77.87 39.86 78.2C39.89 78.65 39.88 79.11 39.86 79.56C39.85 79.87 39.97 79.96 40.27 79.94C40.48 79.92 40.7 79.92 40.91 79.94C41.32 79.97 41.6 79.95 41.73 79.43C41.87 78.83 42.48 78.89 42.99 78.89C43.51 78.89 43.82 79.18 43.85 79.64C43.9 80.41 43.9 81.19 43.85 81.96C43.81 82.53 43.46 82.71 42.74 82.7C42.25 82.69 41.78 82.63 41.75 82C41.75 81.98 41.75 81.95 41.75 81.94C41.33 81.37 40.73 81.82 40.23 81.68C39.96 81.61 39.85 81.76 39.86 82.03C39.88 82.62 39.88 83.21 39.86 83.79C39.85 84.07 39.96 84.14 40.24 84.14C41.59 84.14 42.94 84.14 44.29 84.14C44.58 84.14 44.74 84.08 44.71 83.77C44.69 83.58 44.7 83.39 44.7 83.2C44.72 82.14 45.62 81.92 46.45 82.18C46.83 82.31 46.98 82.61 46.98 82.98C46.99 83.74 46.98 84.5 46.99 85.25C46.99 85.69 46.74 85.91 46.32 85.97C46.16 85.99 46.01 86 45.85 86C43.01 86 40.17 86 37.33 86C37 86 36.66 86 36.37 85.81C36.01 85.58 35.95 85.22 36.02 84.85C36.1 84.46 36.35 84.17 36.77 84.17C37.2 84.16 37.27 83.98 37.27 83.61C37.25 81.87 37.26 80.13 37.26 78.39C37.26 78.11 37.27 77.92 36.87 77.86C36.24 77.77 35.95 77.33 36 76.78C36.06 76.27 36.4 76 37.1 76C38.61 75.99 40.12 76 41.62 76Z" fill="#ED1C24" fill-opacity="1.000000" fill-rule="nonzero"/>
		<path id="Vector" d="M19.01 86C17.55 85.99 16.2 85.66 15 84.71C13.21 83.32 12.21 80.35 13.76 77.71C14.29 76.82 14.97 76.11 15.91 75.67C17.84 74.79 19.79 74.79 21.76 75.54C24.1 76.42 25.19 79.18 24.96 81.1C24.67 83.57 22.9 85.46 20.48 85.88C20 85.96 19.51 86.01 19.01 86ZM21.85 80.53C21.83 80.22 21.83 79.92 21.79 79.63C21.62 78.1 20.59 77.14 19.1 77.09C17.55 77.04 16.49 77.93 16.21 79.47C16.08 80.18 16.09 80.89 16.22 81.59C16.5 83.14 17.51 84 19.06 83.95C20.59 83.91 21.58 83.01 21.79 81.46C21.83 81.15 21.83 80.83 21.85 80.53Z" fill="#ED1C24" fill-opacity="1.000000" fill-rule="nonzero"/>
		<path id="Vector" d="M51.94 76C53.4 76.01 54.86 75.92 56.3 76.22C58.75 76.74 59.77 79.1 58.34 80.94C57.58 81.92 56.44 82.16 55.28 82.33C54.3 82.47 53.31 82.44 52.33 82.42C52 82.42 51.89 82.51 51.89 82.83C51.86 84.1 51.85 84.1 53.17 84.13C54.09 84.15 54.42 84.6 54.19 85.42C54.08 85.83 53.75 85.92 53.44 85.94C51.9 86.02 50.36 86.01 48.83 85.94C48.31 85.92 48.02 85.58 48 85.08C47.97 84.58 48.28 84.21 48.83 84.17C49.24 84.13 49.3 83.98 49.3 83.64C49.28 81.89 49.29 80.13 49.3 78.37C49.3 78.08 49.3 77.91 48.89 77.86C48.27 77.78 47.94 77.32 48 76.79C48.06 76.28 48.41 76.01 49.1 76C50.05 76 51 76 51.94 76ZM51.9 79.22C51.9 79.56 51.9 79.9 51.9 80.24C51.9 80.37 51.89 80.51 52.09 80.52C53.16 80.53 54.22 80.57 55.22 80.14C55.66 79.96 55.98 79.63 55.91 79.13C55.83 78.63 55.54 78.26 55 78.13C54.42 77.99 53.85 77.88 53.25 77.89C51.9 77.91 51.9 77.89 51.9 79.22Z" fill="#ED1C24" fill-opacity="1.000000" fill-rule="nonzero"/>
		<path id="Vector" d="M32.53 80.07C32.81 80.16 32.96 80.2 33.1 80.25C34.36 80.65 34.92 81.27 34.99 82.33C35.07 83.69 34.51 84.75 33.39 85.28C31.8 86.03 30.1 86.08 28.39 85.92C27.43 85.82 26.49 85.61 25.65 85.12C24.92 84.71 24.8 84.04 25.29 83.53C25.57 83.24 25.89 83.23 26.25 83.32C27.32 83.62 28.35 84.05 29.47 84.12C30.17 84.16 30.85 84.05 31.49 83.77C31.95 83.57 32.29 83.23 32.36 82.68C32.44 82.12 32.11 81.82 31.71 81.53C31.16 81.15 30.54 81.09 29.9 81.07C29.37 81.05 28.83 81.13 28.31 80.95C27.92 80.81 27.73 80.57 27.72 80.17C27.71 79.77 27.96 79.57 28.3 79.46C28.83 79.26 29.4 79.33 29.94 79.23C30.35 79.16 30.78 79.12 31.16 78.92C31.5 78.75 31.76 78.51 31.76 78.07C31.76 77.64 31.56 77.37 31.21 77.17C30.39 76.71 29.53 76.83 28.69 77.03C28.14 77.17 27.61 77.42 27.07 77.61C26.76 77.73 26.44 77.78 26.12 77.66C25.5 77.42 25.33 76.74 25.78 76.23C26.01 75.97 26.29 75.79 26.59 75.67C28.54 74.91 30.54 74.79 32.56 75.32C33.03 75.45 33.44 75.71 33.81 76.03C35 77.07 34.85 78.8 33.51 79.6C33.23 79.76 32.93 79.88 32.53 80.07Z" fill="#ED1C24" fill-opacity="1.000000" fill-rule="nonzero"/>
		<path id="Vector" d="M9.29 79C9.86 79 10.14 79.53 9.87 80.1C9.51 80.87 8.92 81.62 8.87 82.42C8.82 83.19 9.48 83.92 9.82 84.67C10.03 85.12 10.11 85.52 9.69 85.84C9.29 86.14 8.82 86 8.54 85.52C8.08 84.7 7.62 83.88 7.17 83.06C6.93 82.64 6.94 82.22 7.18 81.81C7.62 81.04 8.07 80.28 8.5 79.52C8.69 79.18 8.94 79 9.29 79Z" fill="#ED1C24" fill-opacity="1.000000" fill-rule="nonzero"/>
		<path id="Vector" d="M6.26 79C6.82 79 7.11 79.57 6.83 80.19C6.55 80.82 6.24 81.43 5.91 82.03C5.73 82.34 5.74 82.59 5.91 82.9C6.25 83.5 6.56 84.1 6.84 84.74C7 85.08 7.13 85.47 6.73 85.79C6.35 86.1 6.01 86.04 5.67 85.75C5.58 85.67 5.5 85.55 5.44 85.43C5 84.58 4.57 83.72 4.12 82.88C3.96 82.59 3.95 82.33 4.11 82.04C4.57 81.21 5.01 80.35 5.47 79.52C5.65 79.19 5.92 79.02 6.26 79Z" fill="#ED1C24" fill-opacity="1.000000" fill-rule="nonzero"/>
		<path id="Vector" d="M87.75 85C87.13 85 86.83 84.44 87.12 83.8C87.42 83.14 87.73 82.48 88.06 81.83C88.19 81.57 88.19 81.36 88.06 81.11C87.74 80.46 87.45 79.79 87.12 79.14C86.93 78.77 86.94 78.43 87.26 78.2C87.57 77.97 87.97 77.87 88.22 78.24C88.87 79.19 89.41 80.24 89.93 81.29C90.06 81.55 89.97 81.87 89.81 82.14C89.35 82.93 88.89 83.72 88.44 84.52C88.27 84.82 88.05 84.96 87.75 85Z" fill="#ED1C24" fill-opacity="1.000000" fill-rule="nonzero"/>
		<path id="Vector" d="M84.68 79C84.98 79.01 85.23 79.1 85.4 79.41C85.88 80.28 86.37 81.15 86.85 82.03C87.05 82.39 87.04 82.75 86.83 83.1C86.35 83.91 85.9 84.73 85.42 85.53C85.13 86.01 84.66 86.14 84.28 85.82C83.86 85.49 83.98 85.07 84.18 84.64C84.48 84.02 84.76 83.39 85.07 82.78C85.19 82.53 85.19 82.35 85.07 82.1C84.74 81.44 84.42 80.76 84.12 80.07C83.86 79.49 84.12 79 84.68 79Z" fill="#ED1C24" fill-opacity="1.000000" fill-rule="nonzero"/>
	</g>
</svg>
