<svg width="195.000000" height="65.000000" viewBox="0 0 195 65" fill="none" xmlns="http://www.w3.org/2000/svg" xmlns:xlink="http://www.w3.org/1999/xlink">
	<desc>
			Created with Pixso.
	</desc>
	<defs>
		<clipPath id="clip457_1147">
			<rect id="header__logotype_stol 1" rx="-0.500000" width="194.000000" height="64.000000" transform="translate(0.500000 0.500000)" fill="white" fill-opacity="0"/>
		</clipPath>
	</defs>
	<rect id="header__logotype_stol 1" rx="-0.500000" width="194.000000" height="64.000000" transform="translate(0.500000 0.500000)" fill="#FFFFFF" fill-opacity="0"/>
	<g clip-path="url(#clip457_1147)">
		<path id="Vector" d="M182.48 27.17C183.62 26.75 184.95 26.47 186.07 26.48C187.03 26.47 187.79 26.67 188.3 26.99C188.7 27.24 188.94 27.52 189.12 27.85C189.29 28.17 189.38 28.57 189.39 29.02C189.39 29.82 189.04 30.77 188.42 31.44C187.66 32.28 186.71 32.67 185.77 32.67C185 32.67 184.19 32.42 183.36 31.74C183.11 31.53 182.69 30.96 182.39 30C182.14 29.15 181.98 28.27 181.93 27.38C182.11 27.31 182.29 27.23 182.48 27.17ZM167.35 31.78C166.59 31.5 165.91 31.02 165.39 30.39C164.9 29.83 164.43 29.03 164.04 27.86C164.42 27.64 164.73 27.28 164.91 26.85C165.2 26.15 165.6 25.71 166.09 25.39C166.59 25.07 167.17 24.91 167.76 24.91C169.02 24.92 170.32 25.57 171.09 27.13C171.29 27.57 171.37 27.98 171.38 28.39C171.39 29.25 170.98 30.17 170.3 30.86C169.63 31.56 168.77 31.93 168.09 31.92C167.83 31.92 167.59 31.89 167.35 31.78ZM118.77 26.21C118.42 26.8 117.89 27.42 117.28 28C117.04 27.32 116.87 26.61 116.78 25.89C116.77 25.83 116.77 25.78 116.77 25.72C116.75 25.27 117.02 24.52 117.43 24.03C117.59 23.82 117.78 23.64 118.01 23.5C118.11 23.43 118.23 23.39 118.35 23.39C118.4 23.39 118.45 23.39 118.6 23.47C118.76 23.57 119 23.77 119.3 24.19C119.37 24.29 119.4 24.35 119.4 24.55C119.41 24.85 119.24 25.49 118.77 26.21ZM84.03 31.71C83.17 32.38 82.48 32.57 81.85 32.57C81.33 32.57 80.8 32.43 80.23 32.11C79.39 31.64 78.5 30.75 77.81 29.59C77.58 29.21 77.39 28.82 77.22 28.42C77.73 28.52 78.27 28.43 78.72 28.17C79.18 27.92 79.53 27.5 79.69 27.01C79.98 26.17 80.34 25.65 80.71 25.35C81.09 25.06 81.54 24.85 82.51 24.83C82.71 24.83 82.93 24.85 83.17 24.87C83.76 24.92 84.44 25.29 84.98 25.95C85.51 26.6 85.85 27.5 85.85 28.39C85.83 29.47 85.44 30.58 84.03 31.71ZM20.42 12.19C21.11 12.57 21.73 13.08 22.26 13.67C23.5 15.03 24.17 16.86 24.16 18.21C24.16 18.84 24.02 19.35 23.82 19.7C23.64 20.04 23.33 20.32 22.97 20.46C22.13 20.83 21.48 20.96 21.03 20.96C20.63 20.96 20.37 20.87 20.15 20.75C19.82 20.58 19.51 20.28 19.25 19.7C18.99 19.14 18.82 18.32 18.82 17.4C18.82 15.77 19.35 13.82 20.42 12.19ZM187.09 12.07C187.7 11.51 188.28 11.14 188.74 10.93C188.98 10.81 189.25 10.73 189.52 10.68C190.09 10.87 190.34 11.08 190.47 11.24C190.6 11.4 190.67 11.57 190.68 11.93C190.68 12.32 190.54 12.93 190.16 13.63C189.79 14.33 189.19 15.12 188.39 15.87C188.03 16.22 187.39 16.6 186.55 16.85C185.63 17.12 184.68 17.25 183.73 17.26C184.74 14.73 185.98 13.09 187.09 12.07ZM183.6 21.55C185.03 21.57 186.46 21.36 187.82 20.95C189.14 20.54 190.37 19.92 191.36 18.99C192.46 17.95 193.34 16.83 193.97 15.65C194.6 14.47 194.99 13.23 195 11.93C195.01 10.71 194.6 9.51 193.84 8.55C193.05 7.57 191.91 6.89 190.61 6.53C190.27 6.43 189.91 6.39 189.56 6.39C188.66 6.39 187.8 6.63 186.9 7.04C184.28 8.28 181.31 11.21 179.39 16.51C179.03 16.38 178.67 16.22 178.33 16.05C176.76 15.24 175.59 14.11 174.99 12.61C174.76 12.1 174.34 11.7 173.82 11.49C173.3 11.28 172.72 11.28 172.2 11.49C171.68 11.7 171.27 12.1 171.03 12.6C170.81 13.12 170.79 13.7 170.98 14.22C172.04 16.84 174.08 18.71 176.35 19.86C176.95 20.17 177.57 20.43 178.2 20.65C177.9 22.04 177.71 23.45 177.62 24.86C177.49 24.96 177.36 25.07 177.24 25.17L175.48 26.66C175.36 26.18 175.19 25.71 174.98 25.27C173.52 22.24 170.6 20.6 167.76 20.61C166.36 20.61 164.96 21 163.74 21.78C162.45 22.62 161.45 23.84 160.89 25.27C160.6 25.38 160.34 25.55 160.11 25.77C159.89 25.99 159.73 26.25 159.62 26.55C159.12 27.94 158.64 29.52 158.07 30.58C157.79 31.11 157.5 31.48 157.3 31.64C157.09 31.8 157.07 31.8 156.91 31.81C156.78 31.81 156.66 31.78 156.54 31.75C156.39 31.7 156.37 31.67 156.34 31.64C156.29 31.61 156.13 31.38 156.01 30.81C155.8 29.97 155.75 28.63 155.35 27.14C155.14 26.31 154.77 25.53 154.25 24.83C153.64 24.02 152.8 23.39 151.85 23.02C151.27 22.78 150.64 22.66 150 22.66C148.75 22.66 147.64 23.12 146.7 23.73C145.79 24.35 144.98 25.11 144.3 25.97C143.97 25.23 143.52 24.55 142.96 23.96C142.1 23.1 141 22.53 139.8 22.35C139.57 22.31 139.34 22.29 139.11 22.28C137.81 22.29 136.73 22.89 135.94 23.57C134.74 24.63 133.89 26 133.09 27.5L133.08 27.53C132.6 26.49 132.13 25.39 131.78 24.28C131.64 23.82 131.34 23.42 130.94 23.14C130.54 22.87 130.06 22.74 129.58 22.78C129.1 22.81 128.64 23 128.28 23.32C127.92 23.64 127.68 24.07 127.59 24.55C127.44 25.49 126.74 27.63 125.72 29.3C125.21 30.14 124.62 30.88 124.08 31.35C123.52 31.82 123.06 32 122.67 32.03C122.53 32.04 122.39 32.04 122.25 32.05C121.43 32.06 120.62 31.85 119.9 31.46C120.35 31.05 120.77 30.62 121.17 30.17C121.87 29.39 122.47 28.52 122.94 27.58C123.4 26.66 123.71 25.65 123.72 24.55C123.73 23.54 123.42 22.56 122.84 21.72C122.27 20.92 121.6 20.26 120.84 19.8C120.09 19.34 119.23 19.1 118.35 19.09C117.41 19.09 116.55 19.38 115.84 19.79C114.76 20.42 113.96 21.32 113.39 22.33C112.79 23.36 112.47 24.53 112.45 25.72C112.45 25.95 112.46 26.18 112.5 26.42C112.66 27.75 113.02 29.12 113.6 30.42C112.94 30.67 112.35 30.81 111.93 30.79C111.86 30.79 111.79 30.79 111.73 30.78C111.64 30.78 111.57 30.75 111.5 30.7C111.27 30.57 110.86 30.19 110.45 29.59C109.83 28.7 109.21 27.38 108.71 26.04C108.25 24.8 107.84 23.54 107.48 22.27C107.35 21.81 107.06 21.39 106.66 21.11C106.26 20.83 105.78 20.69 105.29 20.72C104.8 20.75 104.34 20.93 103.97 21.25C103.6 21.58 103.36 22.02 103.28 22.5C102.94 24.46 102.15 26.89 101.15 28.64C100.66 29.52 100.12 30.21 99.66 30.6C99.2 31.01 98.92 31.07 98.8 31.07L98.78 31.07C98.36 31.04 98.23 30.96 98.1 30.87C97.9 30.75 97.6 30.32 97.36 29.52C97.13 28.74 96.98 27.68 96.87 26.6C96.83 26.28 96.72 25.96 96.54 25.67C96.35 25.39 96.11 25.16 95.82 24.99C95.53 24.82 95.21 24.71 94.87 24.69C94.53 24.67 94.2 24.72 93.89 24.85C93.32 25.09 92.74 25.41 92.08 25.78C91.44 26.15 90.74 26.57 90.05 27C89.8 25.62 89.21 24.33 88.33 23.24C87.19 21.85 85.55 20.8 83.62 20.6C83.25 20.56 82.88 20.53 82.51 20.53C80.77 20.53 79.16 21.05 77.98 22.03C77.1 22.74 76.49 23.62 76.05 24.55C75.73 24.13 75.27 23.84 74.75 23.74C74.3 23.64 73.84 23.7 73.43 23.89C73.01 24.07 72.67 24.39 72.44 24.78C71.88 25.78 70.69 27.66 69.37 29.17C68.71 29.92 68.02 30.59 67.44 31C67.18 31.19 66.91 31.34 66.61 31.46C66.51 31.17 66.44 30.88 66.39 30.59C66.17 29.54 66.04 28.08 65.52 26.58C65.25 25.83 64.87 25.04 64.21 24.34C63.51 23.57 62.58 23.06 61.56 22.85C61.07 22.75 60.57 22.7 60.06 22.7C59.07 22.69 58.1 22.94 57.25 23.42C56.21 24.02 55.42 24.89 54.76 25.92C54.46 25.02 54.01 24.07 53.21 23.27C52.37 22.42 51.21 21.88 49.94 21.67C49.63 21.62 49.32 21.59 49 21.59C47.55 21.57 46.23 22.23 45.31 23.1C44.2 24.16 43.46 25.46 42.83 26.91C42.69 26.5 42.55 26.1 42.4 25.72C41.94 24.6 41.39 23.58 40.49 22.74C39.55 21.87 38.3 21.39 37.01 21.41L36.94 21.41L36.96 21.41C36.04 21.41 35.14 21.64 34.33 22.1C33.16 22.78 32.38 23.74 31.6 24.83C30.83 25.93 30.05 27.25 29.04 28.84C27.17 31.78 25.19 33.74 23.19 34.96C21.33 36.1 19.19 36.71 17.01 36.7L16.86 36.7C13.91 36.67 10.99 35.83 8.77 34.08C6.56 32.32 4.89 29.67 4.4 25.43C4.34 24.92 4.31 24.42 4.31 23.9C4.32 20 6.01 16.96 8.52 14.77C10.63 12.92 13.35 11.77 15.89 11.46C14.99 13.32 14.52 15.35 14.5 17.4C14.51 19.3 14.93 21.14 16 22.66C16.53 23.42 17.24 24.09 18.11 24.55C19.01 25.02 20.01 25.26 21.03 25.25C22.22 25.25 23.45 24.95 24.71 24.39C25.94 23.86 26.96 22.94 27.6 21.78C28.22 20.67 28.47 19.43 28.47 18.21C28.45 15.61 27.38 12.96 25.48 10.82C24.95 10.22 24.36 9.68 23.71 9.21C24.85 8.64 26.2 8.3 27.83 8.29C28.42 8.29 29.04 8.34 29.7 8.44C30.26 8.5 30.82 8.35 31.26 8.02C31.71 7.67 32.01 7.17 32.09 6.63C32.18 6.07 32.04 5.51 31.71 5.06C31.39 4.6 30.9 4.29 30.34 4.19C29.48 4.06 28.64 4 27.83 4C24.21 3.98 21.21 5.3 19.03 7.24C18.47 7.14 17.89 7.1 17.32 7.1L17.25 7.09C13.21 7.1 9 8.67 5.68 11.53C2.37 14.39 -0.02 18.69 0 23.9C0 24.56 0.03 25.22 0.11 25.9C0.67 31.1 2.95 35 6.1 37.45C9.24 39.92 13.1 40.95 16.82 41L17.04 41C20.01 41 22.92 40.17 25.45 38.61C28.12 36.99 30.56 34.5 32.69 31.13C34.08 28.93 35.03 27.34 35.72 26.53C36.06 26.11 36.31 25.92 36.47 25.83C36.63 25.75 36.71 25.71 37 25.71L37.02 25.71C37.37 25.72 37.36 25.74 37.57 25.89C37.71 26.03 37.92 26.3 38.16 26.78C38.51 27.5 38.87 28.62 39.24 30.04C39.6 31.46 39.97 33.19 40.42 35.16C40.52 35.63 40.78 36.04 41.15 36.35C41.52 36.65 41.98 36.82 42.46 36.84C42.94 36.85 43.41 36.71 43.8 36.42C44.19 36.14 44.47 35.74 44.6 35.28C45.39 32.52 46.17 29.85 47.04 28.07C47.46 27.19 47.92 26.55 48.26 26.24C48.63 25.92 48.76 25.89 49 25.89C49.06 25.89 49.12 25.89 49.2 25.9C49.83 26.02 50 26.16 50.15 26.3C50.26 26.41 50.4 26.6 50.54 26.95C50.76 27.47 50.96 28.35 51.19 29.46C51.42 30.57 51.69 31.92 52.16 33.42C52.3 33.85 52.57 34.24 52.94 34.51C53.31 34.78 53.76 34.93 54.22 34.93C54.68 34.93 55.13 34.78 55.5 34.51C55.87 34.24 56.14 33.85 56.28 33.42C57.13 30.67 57.93 28.85 58.6 27.94C58.93 27.48 59.21 27.26 59.4 27.15C59.6 27.03 59.83 26.98 60.06 26.99C60.23 26.99 60.43 27.01 60.68 27.06C60.8 27.08 60.91 27.13 61 27.2C61.12 27.29 61.36 27.64 61.55 28.31C61.85 29.29 61.97 30.73 62.32 32.17C62.52 32.89 62.76 33.65 63.37 34.42C63.67 34.81 64.09 35.17 64.6 35.42C65.1 35.68 65.69 35.81 66.24 35.82L66.31 35.82C67.76 35.8 68.93 35.2 69.94 34.5C71.35 33.5 72.55 32.15 73.58 30.82C74.03 31.75 74.58 32.6 75.21 33.37C76.01 34.37 77 35.21 78.11 35.85C79.25 36.51 80.54 36.86 81.85 36.87C83.52 36.88 85.23 36.25 86.71 35.08C87.61 34.39 88.33 33.59 88.87 32.73C89.85 32.18 91.08 31.41 92.29 30.67L93.07 30.19C93.22 30.79 93.42 31.4 93.69 32C94.08 32.83 94.65 33.67 95.51 34.32C96.38 34.96 97.51 35.33 98.67 35.35L98.69 35.35C98.73 35.36 98.77 35.36 98.8 35.36C100.3 35.35 101.57 34.67 102.53 33.82C103.8 32.68 104.75 31.2 105.52 29.58C105.58 29.71 105.64 29.83 105.7 29.96C106.27 31.1 106.92 32.2 107.78 33.14C108.22 33.6 108.71 34.03 109.29 34.39C109.87 34.73 110.56 34.99 111.32 35.06C111.52 35.08 111.73 35.09 111.93 35.09C113.36 35.08 114.72 34.67 116.01 34.07L116.15 34C116.73 34.53 117.39 35 118.14 35.39C119.33 36 120.72 36.34 122.23 36.34L122.24 36.34C122.49 36.34 122.73 36.33 122.97 36.32C124.54 36.21 125.87 35.48 126.89 34.6C128.16 33.51 129.1 32.14 129.84 30.77C130.15 31.4 130.41 31.96 130.59 32.41C130.8 32.88 130.89 33.25 130.89 33.27C130.94 33.75 131.15 34.2 131.49 34.54C131.82 34.89 132.27 35.11 132.75 35.17C133.23 35.23 133.72 35.13 134.14 34.89C134.55 34.64 134.87 34.25 135.05 33.8C135.82 31.78 136.71 29.71 137.59 28.31C138.02 27.61 138.46 27.08 138.77 26.82C138.87 26.73 138.98 26.65 139.1 26.6L139.11 26.59C139.4 26.63 139.67 26.77 139.87 26.98C140.19 27.28 140.53 27.98 140.73 28.94C140.92 29.89 140.98 31.03 140.98 32.07C140.98 32.28 140.97 32.49 140.97 32.69C140.96 33.21 141.14 33.71 141.48 34.1C141.82 34.5 142.28 34.77 142.8 34.85C143.32 34.92 143.84 34.82 144.28 34.54C144.72 34.26 145.05 33.84 145.2 33.34C145.67 31.78 146.59 29.98 147.62 28.72C148.12 28.09 148.65 27.6 149.09 27.31C149.53 27.02 149.85 26.95 150 26.95C150.09 26.95 150.14 26.96 150.22 27C150.41 27.06 150.57 27.17 150.71 27.3C150.89 27.49 151.07 27.82 151.22 28.4C151.45 29.28 151.5 30.56 151.85 31.97C152.03 32.68 152.3 33.46 152.87 34.2C153.42 34.95 154.3 35.57 155.3 35.85C155.83 36.02 156.37 36.1 156.91 36.1C158.08 36.1 159.21 35.67 160.1 34.91C160.78 34.31 161.35 33.59 161.78 32.78C162.8 34.14 164.19 35.17 165.77 35.78C166.51 36.07 167.3 36.22 168.09 36.22C169.72 36.21 171.21 35.62 172.43 34.71C172.63 34.63 172.82 34.51 172.99 34.37C174.66 32.99 176.32 31.59 177.98 30.18C178.06 30.57 178.16 30.94 178.28 31.3C178.75 32.78 179.46 34.07 180.59 35.03C182.12 36.31 183.95 36.97 185.75 36.97L185.77 36.97C187.99 36.97 190.1 36 191.62 34.32C192.94 32.87 193.69 30.98 193.7 29.02C193.7 27.96 193.47 26.87 192.95 25.88C192.41 24.83 191.59 23.96 190.58 23.34C189.16 22.46 187.57 22.18 186.07 22.18C184.76 22.2 183.46 22.39 182.2 22.75C182.27 22.35 182.34 21.93 182.44 21.51C182.82 21.54 183.21 21.55 183.6 21.55Z" fill="#189C4A" fill-opacity="1.000000" fill-rule="evenodd"/>
		<path id="Vector" d="M74.79 4.52C74.74 4.64 74.66 4.75 74.56 4.82C74.45 4.91 74.33 4.96 74.19 4.97C74.06 4.98 73.92 4.96 73.8 4.9C73.68 4.84 73.58 4.75 73.51 4.64C73.35 4.41 73.26 4.07 73.22 3.64C73.18 3.24 73.19 2.92 73.28 2.67C73.36 2.41 73.6 2.24 73.92 2.21C74.22 2.18 74.49 2.3 74.63 2.55C74.76 2.78 74.83 3.08 74.87 3.48C74.92 3.92 74.89 4.26 74.79 4.52ZM77 1.09C76.25 0.64 75.16 0.47 73.76 0.6C72.34 0.74 71.32 1.1 70.66 1.69C70.01 2.28 69.73 3.01 69.82 3.96C70.03 5.94 71.46 6.78 74.34 6.52C77.23 6.23 78.46 5.14 78.27 3.16C78.17 2.21 77.76 1.54 77 1.09ZM131.55 5.19C131.48 5.3 131.38 5.39 131.27 5.45C131.14 5.51 131.01 5.53 130.88 5.53C130.74 5.51 130.61 5.46 130.5 5.39C130.4 5.31 130.32 5.2 130.27 5.07C130.16 4.82 130.14 4.47 130.18 4.03C130.22 3.64 130.3 3.33 130.42 3.1C130.56 2.85 130.83 2.74 131.14 2.77C131.44 2.79 131.69 2.96 131.77 3.23C131.86 3.47 131.87 3.79 131.84 4.19C131.79 4.63 131.71 4.96 131.55 5.19ZM134.39 2.23C133.73 1.65 132.7 1.28 131.29 1.16C129.88 1.03 128.8 1.21 128.05 1.65C127.29 2.1 126.87 2.78 126.78 3.72C126.6 5.71 127.84 6.79 130.72 7.07C133.61 7.32 135.03 6.48 135.23 4.5C135.32 3.55 135.04 2.82 134.39 2.23ZM87.21 0.17C87.12 0.33 87.07 0.51 87.04 0.69C87.02 0.85 87 1.23 87.01 1.53L87.01 1.56C87.05 3.11 87.11 4.35 87.21 5.27C87.22 5.37 87.26 5.44 87.35 5.52C87.43 5.59 87.54 5.63 87.71 5.63C88.16 5.64 88.57 5.64 88.94 5.64C89.26 5.64 89.57 5.62 89.89 5.6C90.13 5.58 90.28 5.52 90.35 5.46C90.43 5.39 90.48 5.3 90.49 5.21C90.52 4.71 90.53 4.33 90.53 4.08C90.53 3.89 90.53 3.78 90.54 3.71C90.55 3.68 90.53 3.67 90.57 3.63L90.58 3.6L90.58 3.6C90.6 3.59 90.62 3.57 90.63 3.57C90.65 3.56 90.67 3.56 90.69 3.56C90.8 3.57 90.81 3.6 90.88 3.64L90.9 3.65L92.04 5.34C92.13 5.46 92.28 5.53 92.55 5.53L93.85 5.51L95.47 5.46C95.74 5.43 95.75 5.4 95.76 5.3C95.76 5.25 95.73 5.17 95.65 5.07C94.89 4.06 94.07 3.08 93.22 2.14C93.17 2.08 93.14 2.02 93.14 1.95C93.14 1.91 93.14 1.87 93.16 1.84C93.17 1.81 93.19 1.78 93.23 1.75L94.82 0.32C94.89 0.26 94.9 0.21 94.89 0.21C94.89 0.17 94.88 0.14 94.88 0.14L94.88 0.13L94.87 0.12C94.83 0.02 94.81 0.02 94.78 0.02L93.07 0.05C92.96 0.05 92.85 0.07 92.75 0.1C92.65 0.15 92.55 0.22 92.47 0.31L90.96 1.71C90.91 1.77 90.84 1.82 90.74 1.82C90.63 1.82 90.55 1.73 90.54 1.67C90.51 1.59 90.5 1.5 90.5 1.42C90.5 1.33 90.44 0.75 90.42 0.6C90.37 0.35 90.32 0.19 90.26 0.1C90.22 0.05 90.1 -0.01 89.86 0L87.6 0.04C87.36 0.05 87.24 0.1 87.21 0.17ZM114.67 5.48C114.66 5.63 114.7 5.72 114.76 5.78C114.81 5.83 114.95 5.88 115.18 5.89L117.44 5.93C117.71 5.94 117.87 5.89 117.92 5.85C117.98 5.8 118.03 5.7 118.05 5.52C118.06 5.32 118.07 4.94 118.09 4.37C118.11 3.8 118.13 3.15 118.14 2.42C118.14 1.73 117.93 1.2 117.48 0.8C117.03 0.39 116.43 0.18 115.65 0.16C115.16 0.14 114.68 0.23 114.24 0.42C113.8 0.61 113.46 0.89 113.21 1.28L113.07 1.49L112.96 1.26C112.79 0.88 112.49 0.56 112.11 0.35C111.68 0.14 111.19 0.01 110.69 0.01C109.79 -0.02 109.06 0.25 108.46 0.82L108.22 1.05L108.23 0.71C108.21 0.45 108.16 0.28 108.1 0.2C108.06 0.14 107.93 0.07 107.68 0.07L105.39 0C105.14 -0.01 105.01 0.04 104.97 0.1C104.91 0.17 104.84 0.4 104.8 0.76C104.76 1.14 104.72 1.83 104.68 2.85C104.65 3.6 104.66 4.36 104.69 5.11C104.7 5.21 104.74 5.29 104.83 5.38C104.91 5.46 105.02 5.5 105.19 5.51C105.84 5.57 106.31 5.6 106.58 5.6C106.85 5.6 107.12 5.6 107.39 5.6C107.66 5.59 107.83 5.53 107.89 5.47C107.98 5.41 108.03 5.32 108.06 5.21C108.12 4.86 108.16 4.17 108.19 3.17L108.22 2.48C108.22 2.36 108.24 2.25 108.29 2.15C108.34 2.05 108.41 1.96 108.5 1.89C108.66 1.75 108.87 1.69 109.08 1.7C109.18 1.7 109.28 1.71 109.37 1.75C109.46 1.79 109.54 1.85 109.61 1.92C109.76 2.07 109.82 2.29 109.81 2.54L109.71 5.33C109.71 5.48 109.74 5.57 109.8 5.63C109.85 5.67 109.99 5.73 110.23 5.74L112.48 5.78C112.75 5.79 112.92 5.75 112.96 5.7C113.02 5.64 113.07 5.55 113.09 5.37C113.1 5.17 113.12 4.81 113.13 4.28L113.18 2.63C113.18 2.51 113.2 2.4 113.25 2.3C113.3 2.2 113.37 2.1 113.46 2.03C113.62 1.91 113.83 1.84 114.04 1.85C114.14 1.85 114.24 1.87 114.33 1.91C114.42 1.94 114.5 2 114.57 2.07C114.64 2.15 114.7 2.25 114.73 2.36C114.77 2.46 114.78 2.57 114.77 2.69L114.67 5.48ZM148.54 7.77C148.46 7.86 148.35 7.93 148.23 7.97C148.11 8.01 147.98 8.03 147.86 8C147.85 8 147.85 8 147.85 8C147.64 7.96 147.45 7.85 147.32 7.7C147.25 7.61 147.19 7.51 147.16 7.4C147.13 7.28 147.13 7.17 147.16 7.06L147.31 6.19C147.32 6.08 147.37 5.97 147.43 5.88C147.49 5.78 147.58 5.71 147.68 5.64C147.86 5.53 148.07 5.5 148.28 5.53C148.41 5.55 148.53 5.6 148.63 5.68C148.73 5.75 148.81 5.86 148.85 5.98C148.95 6.22 148.95 6.52 148.89 6.9C148.82 7.28 148.71 7.57 148.54 7.77ZM151.64 5.05C151.28 4.5 150.77 4.18 150.08 4.07C149.66 4 149.24 4 148.82 4.06C148.41 4.1 148.02 4.25 147.67 4.45L147.42 4.6L147.46 4.32C147.48 4.14 147.44 4.03 147.35 3.92C147.26 3.82 147.12 3.75 146.98 3.72L144.85 3.35C144.72 3.34 144.59 3.36 144.47 3.42C144.34 3.49 144.28 3.56 144.27 3.67L143.59 7.35C143.4 8.46 143.05 10.49 142.94 11.2C142.91 11.43 142.93 11.6 142.98 11.7C143.01 11.78 143.12 11.85 143.36 11.89L145.58 12.26C145.83 12.31 145.97 12.27 146.02 12.22C146.09 12.16 146.16 12.01 146.22 11.78C146.38 11.15 146.69 9.47 146.79 8.94C146.79 8.9 146.8 8.87 146.83 8.84C146.85 8.81 146.87 8.78 146.9 8.76C146.92 8.75 146.94 8.74 146.97 8.73C146.99 8.73 147.02 8.73 147.04 8.73C147.13 8.75 147.17 8.8 147.22 8.86C147.53 9.37 148.02 9.67 148.73 9.79C149.44 9.91 150.08 9.82 150.65 9.53C150.94 9.37 151.2 9.11 151.42 8.75C151.65 8.38 151.81 7.91 151.91 7.35C152.09 6.35 151.98 5.59 151.63 5.05L151.64 5.05ZM58.64 10.63C58.61 10.75 58.54 10.87 58.44 10.96C58.35 11.04 58.23 11.1 58.1 11.13L58.08 11.13C57.95 11.15 57.82 11.14 57.69 11.1C57.57 11.05 57.46 10.97 57.39 10.87C57.21 10.66 57.09 10.35 57.01 9.93L57 9.88C56.89 9.07 57.72 8.54 58.13 8.46C58.21 8.44 58.38 8.43 58.44 8.6C58.49 8.79 58.54 9.08 58.6 9.39L58.64 9.59C58.72 10.03 58.73 10.36 58.64 10.63ZM56.12 5.52C56.05 5.14 56.05 4.84 56.14 4.6C56.18 4.48 56.26 4.38 56.36 4.3C56.46 4.21 56.58 4.17 56.7 4.14C56.91 4.11 57.12 4.14 57.31 4.25C57.41 4.31 57.5 4.39 57.56 4.48C57.62 4.57 57.67 4.68 57.68 4.8L57.84 5.67C57.89 5.9 57.84 6.13 57.69 6.3C57.56 6.46 57.37 6.57 57.16 6.6L57.16 6.61C57.03 6.64 56.9 6.63 56.78 6.59C56.66 6.54 56.55 6.47 56.47 6.38C56.3 6.19 56.19 5.9 56.12 5.52ZM62.71 6.65C62.69 6.57 62.64 6.53 62.55 6.54C62.54 6.54 62.53 6.54 62.52 6.55L61.59 6.89L61.56 6.74C61.52 6.5 61.48 6.26 61.43 6.03L60.71 2.35C60.69 2.24 60.64 2.17 60.51 2.1C60.39 2.04 60.26 2.03 60.13 2.04L58.9 2.24C58.6 2.29 58.29 2.35 57.99 2.42C57.85 2.46 57.73 2.53 57.63 2.64C57.54 2.75 57.5 2.86 57.53 3.03L57.58 3.39L57.3 3.14C56.83 2.73 56.23 2.59 55.46 2.72C54.67 2.86 54.06 3.19 53.57 3.71C53.33 3.96 53.16 4.31 53.06 4.75C52.97 5.18 52.97 5.67 53.08 6.23C53.27 7.25 53.64 7.92 54.19 8.28C54.75 8.66 55.37 8.78 56.07 8.66C56.17 8.64 56.27 8.61 56.37 8.59L56.82 8.45L56.51 8.8C56.33 9.01 56.17 9.22 56.04 9.45C55.84 9.82 55.75 10.25 55.78 10.67C55.78 10.83 55.8 11 55.83 11.17C55.89 11.48 56 11.79 56.22 12.07C56.88 12.91 57.58 12.92 58.12 12.98C58.44 13.01 58.78 13 59.13 12.93C59.74 12.82 60.32 12.59 60.85 12.27C61.53 11.88 62.25 10.73 61.91 8.8C61.91 8.78 61.91 8.76 61.91 8.75L61.73 7.72L61.71 7.58L62.68 7.45L62.69 7.44C62.73 7.43 62.77 7.41 62.8 7.37C62.83 7.33 62.83 7.28 62.83 7.25L62.83 7.22L62.71 6.65Z" fill="#1CA14C" fill-opacity="1.000000" fill-rule="evenodd"/>
		<path id="Vector" d="M112.97 60.75L106.97 60.75L106.97 58.83L112.6 58.83L112.6 56.02L106.97 56.02L106.97 54.25L112.85 54.25L112.85 51.35C112.84 51.16 110.5 51 107.61 51C104.73 51 102.39 51.16 102.38 51.35L102.38 63.64C102.39 63.84 104.76 64 107.68 64C110.59 64 112.96 63.84 112.97 63.64L112.97 60.75ZM99.73 51.35C99.71 51.16 96.89 51 93.39 51C89.9 51 87.07 51.16 87.05 51.35L87.05 54.99L91.1 54.99L91.1 63.64C91.1 63.84 92.13 64 93.39 64C94.66 64 95.68 63.84 95.69 63.64L95.69 54.99L99.73 54.99L99.73 51.35ZM84.63 63.64L84.63 51.35C84.6 51.16 81.89 51 78.53 51C75.18 51 72.46 51.16 72.44 51.35L72.44 51.35L72.44 63.64L72.44 63.64C72.44 63.84 73.47 64 74.73 64C76 64 77.02 63.84 77.03 63.64L77.03 54.69L80.03 54.69L80.03 63.64C80.04 63.84 81.07 64 82.33 64C83.6 64 84.63 63.83 84.63 63.64L84.63 63.64ZM130.32 63.64L130.3 63.62C130.3 63.61 130.29 63.6 130.28 63.59L125.89 57.11L129.89 51.42C129.92 51.4 129.94 51.38 129.94 51.35L129.94 51.35L129.93 51.35C129.91 51.16 128.75 51 127.32 51C125.89 51 124.73 51.16 124.71 51.35L121.88 56.18L121.82 56.18L121.82 51.35L121.81 51.35C121.79 51.16 120.77 51 119.52 51C118.26 51 117.24 51.16 117.22 51.35L117.22 63.64C117.23 63.84 118.25 64 119.52 64C120.78 64 121.8 63.84 121.81 63.64L121.82 63.64L121.82 58.42L121.88 58.42L124.83 63.64C124.84 63.84 126.06 64 127.57 64C129.08 64 130.3 63.84 130.3 63.64L130.32 63.64ZM137.27 58.11L138.5 54.27L138.57 54.27L139.82 58.11L137.27 58.11ZM145.98 63.6L141.72 51.35C141.71 51.16 140.33 51 138.63 51C136.92 51 135.53 51.16 135.53 51.35L131.35 63.6C131.34 63.6 131.34 63.62 131.33 63.64C131.33 63.83 132.36 64 133.63 64C134.89 64 135.92 63.84 135.92 63.64L135.93 63.64L136.73 60.99L140.33 60.99L141.16 63.64L141.16 63.64C141.17 63.84 142.25 64 143.57 64C144.91 64 146 63.83 146 63.64C146 63.62 145.99 63.6 145.98 63.6ZM60.93 58.11L62.16 54.27L62.23 54.27L63.48 58.11L60.93 58.11ZM69.64 63.6L65.39 51.35L65.38 51.35C65.37 51.16 63.99 51 62.29 51C60.58 51 59.19 51.16 59.19 51.35L55.01 63.6C55 63.6 55 63.62 55 63.64C55 63.83 56.02 64 57.29 64C58.56 64 59.58 63.84 59.59 63.64L59.59 63.64L60.4 60.99L64 60.99L64.82 63.64L64.82 63.64C64.83 63.84 65.91 64 67.24 64C68.57 64 69.66 63.83 69.66 63.64C69.66 63.62 69.65 63.6 69.64 63.6Z" fill="#1BA14C" fill-opacity="1.000000" fill-rule="evenodd"/>
	</g>
</svg>
