<svg width="282.000000" height="37.000000" viewBox="0 0 282 37" fill="none" xmlns="http://www.w3.org/2000/svg" xmlns:xlink="http://www.w3.org/1999/xlink">
	<desc>
			Created with Pixso.
	</desc>
	<defs>
		<clipPath id="clip457_1134">
			<rect id="Здравсити" rx="-0.444158" width="281.111694" height="36.111683" transform="translate(0.444158 0.444158)" fill="white" fill-opacity="0"/>
		</clipPath>
	</defs>
	<rect id="Здравсити" rx="-0.444158" width="281.111694" height="36.111683" transform="translate(0.444158 0.444158)" fill="#FFFFFF" fill-opacity="0"/>
	<g clip-path="url(#clip457_1134)">
		<path id="Vector" d="M280.01 2.03C278.73 0.72 277 0 275.19 0C273.39 0 271.66 0.72 270.38 2.03L267 5.45L263.61 2.03C262.33 0.72 260.6 0 258.8 0C257 0 255.27 0.72 253.99 2.03C253.35 2.66 252.85 3.42 252.52 4.26C252.17 5.1 252 6 252 6.9C252 7.82 252.17 8.71 252.52 9.55C252.85 10.39 253.35 11.15 253.99 11.78L257.38 15.23L267 25L280.01 11.78C280.64 11.15 281.14 10.39 281.48 9.55C281.82 8.71 282 7.82 282 6.9C282 6 281.82 5.1 281.48 4.26C281.14 3.42 280.64 2.66 280.01 2.03Z" fill="#FF5B00" fill-opacity="1.000000" fill-rule="evenodd"/>
		<path id="Vector" d="M22.99 18.27C22.99 23.42 18.44 26 12.03 26C4.05 25.96 0.89 22.16 0 17.05L6.46 17.05C6.95 19.99 8.68 21.03 11.89 21.03C15.11 21.03 16.54 19.85 16.54 17.82C16.54 16.33 15.82 15.15 12.96 15.15L8.87 15.15L8.87 10.17L12.3 10.17C14.97 10.17 15.77 9.31 15.77 7.74C15.77 6.17 14.71 4.78 11.58 4.78C9.4 4.78 7.44 5.42 6.95 8L0.49 8C1.25 3.62 4.23 0 11.67 0C17.82 0 22.19 2.57 22.19 7.28C22.24 8.33 21.97 9.37 21.43 10.25C20.89 11.14 20.1 11.84 19.16 12.26C20.34 12.71 21.34 13.54 22.03 14.62C22.72 15.71 23.05 16.98 22.99 18.27Z" fill="#1D1D1B" fill-opacity="1.000000" fill-rule="evenodd"/>
		<path id="Vector" d="M57 19.67L57 32L50.45 32L50.45 25.75L31.53 25.75L31.53 32L25 32L25 19.67L29.48 19.67C30.6 18.36 31.25 16.71 31.32 15L33.6 1L52.42 1L52.42 19.67L57 19.67ZM45.87 19.67L45.87 7.07L39.19 7.07L37.81 15.3C37.65 16.84 37.17 18.33 36.39 19.67L45.87 19.67Z" fill="#1D1D1B" fill-opacity="1.000000" fill-rule="evenodd"/>
		<path id="Vector" d="M85 13.07C85 20.78 80.05 26.15 73.5 26.15C71.96 26.19 70.43 25.86 69.04 25.18C67.65 24.51 66.45 23.5 65.53 22.26L65.53 37L59 37L59 0.54L65.53 0.54L65.53 4.06C66.43 2.78 67.62 1.75 69.01 1.03C70.4 0.32 71.94 -0.03 73.5 0C79.96 0 85 5.33 85 13.07ZM78.36 13.07C78.42 12.19 78.31 11.31 78.02 10.47C77.73 9.64 77.27 8.88 76.67 8.23C76.07 7.58 75.35 7.07 74.54 6.72C73.73 6.37 72.87 6.19 71.99 6.2C71.11 6.2 70.24 6.38 69.43 6.73C68.62 7.08 67.89 7.59 67.29 8.24C66.69 8.88 66.22 9.64 65.92 10.47C65.62 11.3 65.49 12.19 65.54 13.07C65.49 13.96 65.62 14.84 65.92 15.67C66.22 16.5 66.68 17.27 67.29 17.91C67.89 18.56 68.62 19.07 69.43 19.42C70.24 19.77 71.11 19.95 71.99 19.95C72.87 19.96 73.74 19.78 74.54 19.43C75.35 19.08 76.08 18.57 76.67 17.92C77.28 17.28 77.73 16.51 78.02 15.67C78.32 14.84 78.43 13.96 78.36 13.07Z" fill="#1D1D1B" fill-opacity="1.000000" fill-rule="evenodd"/>
		<path id="Vector" d="M114 0.54L114 25.47L107.39 25.47L107.39 22.12C106.5 23.36 105.31 24.36 103.93 25.03C102.55 25.71 101.03 26.03 99.5 25.99C92.91 25.99 88 20.65 88 12.99C88 5.32 92.99 0 99.46 0C101.03 -0.04 102.57 0.32 103.96 1.02C105.35 1.72 106.55 2.76 107.45 4.04L107.45 0.54L114 0.54ZM107.45 13C107.5 12.13 107.37 11.25 107.07 10.42C106.77 9.59 106.3 8.83 105.7 8.19C105.09 7.55 104.36 7.04 103.55 6.69C102.75 6.35 101.87 6.17 100.99 6.17C100.11 6.16 99.24 6.34 98.43 6.69C97.62 7.03 96.9 7.54 96.3 8.19C95.7 8.83 95.24 9.59 94.95 10.42C94.66 11.25 94.54 12.13 94.61 13C94.54 13.88 94.66 14.76 94.95 15.59C95.25 16.42 95.71 17.17 96.3 17.82C96.91 18.46 97.63 18.97 98.44 19.32C99.24 19.67 100.11 19.85 100.99 19.85C101.87 19.85 102.75 19.67 103.55 19.32C104.37 18.97 105.1 18.46 105.7 17.82C106.3 17.18 106.77 16.42 107.07 15.6C107.37 14.77 107.5 13.89 107.45 13Z" fill="#1D1D1B" fill-opacity="1.000000" fill-rule="evenodd"/>
		<path id="Vector" d="M138.98 18.78C138.98 23.96 135.07 26 130 26L117 26L117 1L128.93 1C133.88 1 137.79 2.29 137.79 7.32C137.78 8.39 137.48 9.45 136.91 10.36C136.35 11.28 135.54 12.02 134.59 12.49C135.92 12.85 137.1 13.67 137.9 14.82C138.7 15.97 139.08 17.37 138.98 18.78ZM128.38 6.09L123.32 6.09L123.32 10.9L128.38 10.9C130.58 10.9 131.3 10.09 131.3 8.54C131.3 6.99 130.54 6.09 128.38 6.09ZM132.5 18.17C132.5 16.4 131.71 15.59 129.55 15.59L123.32 15.59L123.32 20.96L129.48 20.96C131.75 20.91 132.46 19.99 132.46 18.17L132.5 18.17Z" fill="#1D1D1B" fill-opacity="1.000000" fill-rule="evenodd"/>
		<path id="Vector" d="M141 13C140.96 11.26 141.28 9.55 141.94 7.95C142.6 6.35 143.58 4.89 144.82 3.67C146.06 2.46 147.54 1.51 149.16 0.88C150.79 0.25 152.53 -0.05 154.28 0C160.47 0 166 3.66 166.95 10L160.14 10C159.77 8.78 158.98 7.71 157.92 6.98C156.85 6.25 155.57 5.9 154.28 5.98C153.36 5.96 152.46 6.12 151.61 6.47C150.77 6.82 150.02 7.35 149.4 8.01C148.78 8.67 148.32 9.46 148.03 10.32C147.75 11.18 147.66 12.1 147.77 13C147.86 17.12 150.37 20.02 154.28 20.02C155.59 20.1 156.88 19.75 157.96 19C159.03 18.26 159.82 17.17 160.2 15.93L167 15.93C165.98 22.5 160.38 25.99 154.28 25.99C152.53 26.04 150.79 25.75 149.16 25.12C147.53 24.49 146.05 23.53 144.81 22.32C143.57 21.1 142.59 19.64 141.94 18.04C141.28 16.44 140.96 14.72 141 13Z" fill="#1D1D1B" fill-opacity="1.000000" fill-rule="evenodd"/>
		<path id="Vector" d="M193 1L193 26L186.47 26L186.47 17.13L186.88 9.71L176.52 26L169 26L169 1L175.53 1L175.53 9.86L175.21 17.18L185.48 1L193 1Z" fill="#1D1D1B" fill-opacity="1.000000" fill-rule="evenodd"/>
		<path id="Vector" d="M217.96 7.13L210.24 7.13L210.24 26L203.71 26L203.71 7.13L196 7.13L196 1L218 1L218 7.13L217.96 7.13Z" fill="#1D1D1B" fill-opacity="1.000000" fill-rule="evenodd"/>
		<path id="Vector" d="M244 1L244 26L237.47 26L237.47 17.13L237.88 9.71L227.52 26L220 26L220 1L226.52 1L226.52 9.86L226.2 17.18L236.48 1L244 1Z" fill="#1D1D1B" fill-opacity="1.000000" fill-rule="evenodd"/>
		<path id="Vector" d="M257.37 15L253.98 11.6C253.35 10.98 252.85 10.23 252.52 9.41C252.17 8.58 252 7.7 252 6.8C252 5.91 252.17 5.02 252.52 4.2C252.85 3.37 253.35 2.62 253.98 2C255.27 0.71 257 0 258.8 0C260.6 0 262.32 0.71 263.6 2L267 5.37L257.37 15Z" fill="#FF8150" fill-opacity="1.000000" fill-rule="evenodd"/>
	</g>
</svg>
