<svg  viewBox="0 0 47 36" fill="none" xmlns="http://www.w3.org/2000/svg">
<path d="M46.375 27.3462C46.375 30 45.4938 32.1346 43.7313 33.75C41.9689 35.25 39.7364 36 37.034 36C33.8616 36 31.2179 34.9615 29.103 32.8846C27.1055 30.8077 26.1068 27.75 26.1068 23.7115C26.1068 19.9038 26.6355 16.6731 27.693 14.0192C28.868 11.25 30.2192 8.94231 31.7466 7.09616C33.3916 5.13461 35.0366 3.57692 36.6815 2.42308C38.444 1.26923 39.9714 0.461539 41.2639 0L45.67 6.0577C43.0851 7.32692 40.9701 9.05769 39.3252 11.25C37.7977 13.3269 37.034 15.9808 37.034 19.2115C37.504 19.0962 38.1502 19.0385 38.9727 19.0385C41.3226 19.0385 43.1438 19.8462 44.4363 21.4615C45.7288 23.0769 46.375 25.0385 46.375 27.3462ZM20.6432 27.3462C20.6432 30 19.762 32.1346 17.9995 33.75C16.2371 35.25 14.0046 36 11.3022 36C8.12979 36 5.48611 34.9615 3.37117 32.8846C1.37372 30.8077 0.375 27.75 0.375 23.7115C0.375 19.9038 0.903736 16.6731 1.96121 14.0192C3.13617 11.25 4.48739 8.94231 6.01485 7.09616C7.6598 5.13461 9.30476 3.57692 10.9497 2.42308C12.7122 1.26923 14.2396 0.461539 15.5321 0L19.9382 6.0577C17.3533 7.32692 15.2383 9.05769 13.5934 11.25C12.0659 13.3269 11.3022 15.9808 11.3022 19.2115C11.7722 19.0962 12.4184 19.0385 13.2409 19.0385C15.5908 19.0385 17.412 19.8462 18.7045 21.4615C19.997 23.0769 20.6432 25.0385 20.6432 27.3462Z" fill="white"/>
</svg>
