<svg viewBox="0 0 27 25" fill="none" xmlns="http://www.w3.org/2000/svg">
<path fill-rule="evenodd" clip-rule="evenodd" d="M7.1267 0C7.39671 0 7.65567 0.101305 7.8466 0.281628C8.03753 0.461951 8.1448 0.706523 8.1448 0.961538V1.92308H18.3258V0.961538C18.3258 0.706523 18.4331 0.461951 18.624 0.281628C18.8149 0.101305 19.0739 0 19.3439 0C19.6139 0 19.8729 0.101305 20.0638 0.281628C20.2547 0.461951 20.362 0.706523 20.362 0.961538V1.92308H23.4163C24.2263 1.92308 25.0032 2.22699 25.576 2.76796C26.1488 3.30893 26.4706 4.04264 26.4706 4.80769V22.1154C26.4706 22.8804 26.1488 23.6141 25.576 24.1551C25.0032 24.6961 24.2263 25 23.4163 25H3.0543C2.24425 25 1.46738 24.6961 0.894584 24.1551C0.321791 23.6141 0 22.8804 0 22.1154V4.80769C0 4.04264 0.321791 3.30893 0.894584 2.76796C1.46738 2.22699 2.24425 1.92308 3.0543 1.92308H6.1086V0.961538C6.1086 0.706523 6.21586 0.461951 6.40679 0.281628C6.59772 0.101305 6.85668 0 7.1267 0ZM18.3258 3.84615V4.80769C18.3258 5.06271 18.4331 5.30728 18.624 5.4876C18.8149 5.66793 19.0739 5.76923 19.3439 5.76923C19.6139 5.76923 19.8729 5.66793 20.0638 5.4876C20.2547 5.30728 20.362 5.06271 20.362 4.80769V3.84615H23.4163C23.6863 3.84615 23.9453 3.94746 24.1362 4.12778C24.3271 4.30811 24.4344 4.55268 24.4344 4.80769V7.69231H2.0362V4.80769C2.0362 4.55268 2.14346 4.30811 2.33439 4.12778C2.52532 3.94746 2.78428 3.84615 3.0543 3.84615H6.1086V4.80769C6.1086 5.06271 6.21586 5.30728 6.40679 5.4876C6.59772 5.66793 6.85668 5.76923 7.1267 5.76923C7.39671 5.76923 7.65567 5.66793 7.8466 5.4876C8.03753 5.30728 8.1448 5.06271 8.1448 4.80769V3.84615H18.3258ZM2.0362 9.61538V22.1154C2.0362 22.3704 2.14346 22.615 2.33439 22.7953C2.52532 22.9756 2.78428 23.0769 3.0543 23.0769H23.4163C23.6863 23.0769 23.9453 22.9756 24.1362 22.7953C24.3271 22.615 24.4344 22.3704 24.4344 22.1154V9.61538H2.0362Z" fill="#DCC273"/>
<circle cx="7.35291" cy="13.2352" r="1.47059" fill="#DCC273"/>
<circle cx="7.35291" cy="19.1176" r="1.47059" fill="#DCC273"/>
<circle cx="13.2352" cy="13.2352" r="1.47059" fill="#DCC273"/>
<circle cx="13.2352" cy="19.1176" r="1.47059" fill="#DCC273"/>
<circle cx="19.1176" cy="13.2352" r="1.47059" fill="#DCC273"/>
<circle cx="19.1176" cy="19.1176" r="1.47059" fill="#DCC273"/>
</svg>
