<svg viewBox="0 0 25 25" fill="none" xmlns="http://www.w3.org/2000/svg">
<path d="M12.5 0C19.4037 0 25 5.59625 25 12.5C25 19.4037 19.4037 25 12.5 25C5.59625 25 0 19.4037 0 12.5C0 5.59625 5.59625 0 12.5 0ZM12.5 1.74375C9.64726 1.74375 6.91137 2.87699 4.89418 4.89418C2.87699 6.91137 1.74375 9.64726 1.74375 12.5C1.74375 15.3527 2.87699 18.0886 4.89418 20.1058C6.91137 22.123 9.64726 23.2562 12.5 23.2562C15.3527 23.2562 18.0886 22.123 20.1058 20.1058C22.123 18.0886 23.2562 15.3527 23.2562 12.5C23.2562 9.64726 22.123 6.91137 20.1058 4.89418C18.0886 2.87699 15.3527 1.74375 12.5 1.74375ZM11.3375 6.97625C11.8187 6.97625 12.2087 7.3675 12.2087 7.84875V13.9538H18.3137C18.5393 13.9623 18.7527 14.0579 18.9092 14.2205C19.0658 14.383 19.1532 14.5999 19.1532 14.8256C19.1532 15.0513 19.0658 15.2682 18.9092 15.4308C18.7527 15.5934 18.5393 15.689 18.3137 15.6975H11.3375C11.1061 15.6975 10.8842 15.6056 10.7205 15.442C10.5569 15.2783 10.465 15.0564 10.465 14.825V7.85C10.465 7.3675 10.855 6.97625 11.3375 6.97625Z" fill="#DCC273"/>
</svg>
