{
  "accessors": [
    {
      "bufferView": 2,
      "componentType": 5126,
      "count": 479,
      "max": [
        120.67179870605469,
        112.39168548583984,
        314.81100463867188
      ],
      "min": [
        -120.67179870605469,
        -110.21003723144531,
        -326.35711669921875
      ],
      "type": "VEC3"
    },
    {
      "bufferView": 2,
      "byteOffset": 5748,
      "componentType": 5126,
      "count": 479,
      "max": [
        1,
        1,
        0.92443567514419556
      ],
      "min": [
        -1,
        -0.69676727056503296,
        -0.99988049268722534
      ],
      "type": "VEC3"
    },
    {
      "bufferView": 3,
      "componentType": 5126,
      "count": 479,
      "max": [
        0.99623209238052368,
        0.99979746341705322,
        1,
        1
      ],
      "min": [
        -1,
        -1,
        -1,
        -1
      ],
      "type": "VEC4"
    },
    {
      "bufferView": 1,
      "componentType": 5126,
      "count": 479,
      "max": [
        1.8713910579681396,
        0.98155021667480469
      ],
      "min": [
        -0.45019310712814331,
        0.003012537956237793
      ],
      "type": "VEC2"
    },
    {
      "bufferView": 1,
      "byteOffset": 3832,
      "componentType": 5126,
      "count": 479,
      "max": [
        1.8713910579681396,
        0.98155021667480469
      ],
      "min": [
        -0.45019310712814331,
        0.003012537956237793
      ],
      "type": "VEC2"
    },
    {
      "bufferView": 1,
      "byteOffset": 7664,
      "componentType": 5126,
      "count": 479,
      "max": [
        1.8713910579681396,
        0.98155021667480469
      ],
      "min": [
        -0.45019310712814331,
        0.003012537956237793
      ],
      "type": "VEC2"
    },
    {
      "bufferView": 1,
      "byteOffset": 11496,
      "componentType": 5126,
      "count": 479,
      "max": [
        1.8713910579681396,
        0.98155021667480469
      ],
      "min": [
        -0.45019310712814331,
        0.003012537956237793
      ],
      "type": "VEC2"
    },
    {
      "bufferView": 1,
      "byteOffset": 15328,
      "componentType": 5126,
      "count": 479,
      "max": [
        1.8713910579681396,
        0.98155021667480469
      ],
      "min": [
        -0.45019310712814331,
        0.003012537956237793
      ],
      "type": "VEC2"
    },
    {
      "bufferView": 1,
      "byteOffset": 19160,
      "componentType": 5126,
      "count": 479,
      "max": [
        1.8713910579681396,
        0.98155021667480469
      ],
      "min": [
        -0.45019310712814331,
        0.003012537956237793
      ],
      "type": "VEC2"
    },
    {
      "bufferView": 0,
      "componentType": 5125,
      "count": 1254,
      "max": [
        478
      ],
      "min": [
        0
      ],
      "type": "SCALAR"
    },
    {
      "bufferView": 2,
      "byteOffset": 11496,
      "componentType": 5126,
      "count": 14238,
      "max": [
        120.4873046875,
        126.85396575927734,
        326.35711669921875
      ],
      "min": [
        -120.41764068603516,
        -126.85396575927734,
        -325.99298095703125
      ],
      "type": "VEC3"
    },
    {
      "bufferView": 2,
      "byteOffset": 182352,
      "componentType": 5126,
      "count": 14238,
      "max": [
        1,
        1,
        1
      ],
      "min": [
        -1,
        -1,
        -1
      ],
      "type": "VEC3"
    },
    {
      "bufferView": 3,
      "byteOffset": 7664,
      "componentType": 5126,
      "count": 14238,
      "max": [
        1,
        1,
        1,
        1
      ],
      "min": [
        -1,
        -1,
        -1,
        -1
      ],
      "type": "VEC4"
    },
    {
      "bufferView": 1,
      "byteOffset": 22992,
      "componentType": 5126,
      "count": 14238,
      "max": [
        0.98676067590713501,
        0.99548012018203735
      ],
      "min": [
        0.0026330950204282999,
        0.0048663620837032795
      ],
      "type": "VEC2"
    },
    {
      "bufferView": 1,
      "byteOffset": 136896,
      "componentType": 5126,
      "count": 14238,
      "max": [
        0.98676067590713501,
        0.99548012018203735
      ],
      "min": [
        0.0026330950204282999,
        0.0048663620837032795
      ],
      "type": "VEC2"
    },
    {
      "bufferView": 1,
      "byteOffset": 250800,
      "componentType": 5126,
      "count": 14238,
      "max": [
        0.98676067590713501,
        0.99548012018203735
      ],
      "min": [
        0.0026330950204282999,
        0.0048663620837032795
      ],
      "type": "VEC2"
    },
    {
      "bufferView": 1,
      "byteOffset": 364704,
      "componentType": 5126,
      "count": 14238,
      "max": [
        0.98676067590713501,
        0.99548012018203735
      ],
      "min": [
        0.0026330950204282999,
        0.0048663620837032795
      ],
      "type": "VEC2"
    },
    {
      "bufferView": 1,
      "byteOffset": 478608,
      "componentType": 5126,
      "count": 14238,
      "max": [
        0.98676067590713501,
        0.99548012018203735
      ],
      "min": [
        0.0026330950204282999,
        0.0048663620837032795
      ],
      "type": "VEC2"
    },
    {
      "bufferView": 1,
      "byteOffset": 592512,
      "componentType": 5126,
      "count": 14238,
      "max": [
        0.98676067590713501,
        0.99548012018203735
      ],
      "min": [
        0.0026330950204282999,
        0.0048663620837032795
      ],
      "type": "VEC2"
    },
    {
      "bufferView": 1,
      "byteOffset": 706416,
      "componentType": 5126,
      "count": 14238,
      "max": [
        0.98676067590713501,
        0.99548012018203735
      ],
      "min": [
        0.0026330950204282999,
        0.0048663620837032795
      ],
      "type": "VEC2"
    },
    {
      "bufferView": 1,
      "byteOffset": 820320,
      "componentType": 5126,
      "count": 14238,
      "max": [
        0.98676067590713501,
        0.99548012018203735
      ],
      "min": [
        0.0026330950204282999,
        0.0048663620837032795
      ],
      "type": "VEC2"
    },
    {
      "bufferView": 0,
      "byteOffset": 5016,
      "componentType": 5125,
      "count": 40554,
      "max": [
        14237
      ],
      "min": [
        0
      ],
      "type": "SCALAR"
    }
  ],
  "asset": {
    "extras": {
      "author": "Wholock (https://sketchfab.com/wholock)",
      "license": "CC-BY-4.0 (http://creativecommons.org/licenses/by/4.0/)",
      "source": "https://sketchfab.com/3d-models/star-trek-olympic-class-539ee999e0b548379d6de658bf883930",
      "title": "Star Trek - Olympic Class"
    },
    "generator": "Sketchfab-6.28.0",
    "version": "2.0"
  },
  "bufferViews": [
    {
      "buffer": 0,
      "byteLength": 167232,
      "byteOffset": 0,
      "name": "floatBufferViews",
      "target": 34963
    },
    {
      "buffer": 0,
      "byteLength": 934224,
      "byteOffset": 167232,
      "byteStride": 8,
      "name": "floatBufferViews",
      "target": 34962
    },
    {
      "buffer": 0,
      "byteLength": 353208,
      "byteOffset": 1101456,
      "byteStride": 12,
      "name": "floatBufferViews",
      "target": 34962
    },
    {
      "buffer": 0,
      "byteLength": 235472,
      "byteOffset": 1454664,
      "byteStride": 16,
      "name": "floatBufferViews",
      "target": 34962
    }
  ],
  "buffers": [
    {
      "byteLength": 1690136,
      "uri": "scene.bin"
    }
  ],
  "images": [
    {
      "uri": "textures/Olympic_decals_1_baseColor.png"
    },
    {
      "uri": "textures/Olympic_decals_1_metallicRoughness.png"
    },
    {
      "uri": "textures/Olympic_diffuse_1_baseColor.png"
    },
    {
      "uri": "textures/Olympic_diffuse_1_metallicRoughness.png"
    },
    {
      "uri": "textures/Olympic_diffuse_1_emissive.png"
    }
  ],
  "materials": [
    {
      "alphaMode": "BLEND",
      "doubleSided": true,
      "name": "Olympic_decals_1",
      "pbrMetallicRoughness": {
        "baseColorFactor": [
          1,
          1,
          1,
          1
        ],
        "baseColorTexture": {
          "index": 0,
          "texCoord": 0
        },
        "metallicFactor": 0,
        "metallicRoughnessTexture": {
          "index": 1,
          "texCoord": 0
        },
        "roughnessFactor": 1
      }
    },
    {
      "doubleSided": true,
      "emissiveFactor": [
        1,
        1,
        1
      ],
      "emissiveTexture": {
        "index": 4,
        "texCoord": 0
      },
      "name": "Olympic_diffuse_1",
      "pbrMetallicRoughness": {
        "baseColorFactor": [
          1,
          1,
          1,
          1
        ],
        "baseColorTexture": {
          "index": 2,
          "texCoord": 0
        },
        "metallicFactor": 0,
        "metallicRoughnessTexture": {
          "index": 3,
          "texCoord": 0
        },
        "roughnessFactor": 1
      }
    }
  ],
  "meshes": [
    {
      "name": "Olympic_Class_Olympic_decals_1_0",
      "primitives": [
        {
          "attributes": {
            "NORMAL": 1,
            "POSITION": 0,
            "TANGENT": 2,
            "TEXCOORD_0": 3,
            "TEXCOORD_1": 4,
            "TEXCOORD_2": 5,
            "TEXCOORD_3": 6,
            "TEXCOORD_4": 7,
            "TEXCOORD_5": 8
          },
          "indices": 9,
          "material": 0,
          "mode": 4
        }
      ]
    },
    {
      "name": "Olympic_Class_Olympic_diffuse_1_0",
      "primitives": [
        {
          "attributes": {
            "NORMAL": 11,
            "POSITION": 10,
            "TANGENT": 12,
            "TEXCOORD_0": 13,
            "TEXCOORD_1": 14,
            "TEXCOORD_2": 15,
            "TEXCOORD_3": 16,
            "TEXCOORD_4": 17,
            "TEXCOORD_5": 18,
            "TEXCOORD_6": 19,
            "TEXCOORD_7": 20
          },
          "indices": 21,
          "material": 1,
          "mode": 4
        }
      ]
    }
  ],
  "nodes": [
    {
      "children": [
        1
      ],
      "name": "RootNode (gltf orientation matrix)",
      "rotation": [
        -0.70710678118654746,
        -0,
        -0,
        0.70710678118654757
      ]
    },
    {
      "children": [
        2
      ],
      "matrix": [
        -1,
        -2.832769343193999e-16,
        0,
        0,
        2.832769343193999e-16,
        -1,
        0,
        0,
        0,
        0,
        1,
        0,
        -0.00064849853515625,
        -0.00164794921875,
        0,
        1
      ],
      "name": "RootNode (model correction matrix)"
    },
    {
      "children": [
        3
      ],
      "matrix": [
        1,
        0,
        0,
        0,
        0,
        0,
        1,
        0,
        0,
        -1,
        0,
        0,
        0,
        0,
        0,
        1
      ],
      "name": "e2d0ae9becfe4dff97d008be33d97fb0.fbx"
    },
    {
      "children": [
        4,
        7,
        10
      ],
      "name": "RootNode"
    },
    {
      "children": [
        5,
        6
      ],
      "name": "Olympic_Class"
    },
    {
      "mesh": 0,
      "name": "Olympic_Class_Olympic_decals_1_0"
    },
    {
      "mesh": 1,
      "name": "Olympic_Class_Olympic_diffuse_1_0"
    },
    {
      "children": [
        8
      ],
      "matrix": [
        0.70710678118654757,
        0,
        0.70710678118654746,
        0,
        -0.57922796533956922,
        0.57357643635104594,
        0.57922796533956944,
        0,
        -0.4055797876726388,
        -0.81915204428899202,
        0.4055797876726388,
        0,
        -200,
        200,
        200,
        1
      ],
      "name": "Light"
    },
    {
      "children": [
        9
      ],
      "matrix": [
        1,
        0,
        0,
        0,
        0,
        2.2204460492503131e-16,
        1,
        0,
        0,
        -1,
        2.2204460492503131e-16,
        0,
        0,
        0,
        0,
        1
      ],
      "name": ""
    },
    {
      "name": ""
    },
    {
      "children": [
        11
      ],
      "matrix": [
        2.2204460492503131e-16,
        0,
        -1,
        0,
        0,
        1,
        0,
        0,
        1,
        0,
        2.2204460492503131e-16,
        0,
        0,
        0,
        975.84942626953125,
        1
      ],
      "name": "Camera"
    },
    {
      "name": ""
    }
  ],
  "samplers": [
    {
      "magFilter": 9729,
      "minFilter": 9987,
      "wrapS": 10497,
      "wrapT": 10497
    }
  ],
  "scene": 0,
  "scenes": [
    {
      "name": "OSG_Scene",
      "nodes": [
        0
      ]
    }
  ],
  "textures": [
    {
      "sampler": 0,
      "source": 0
    },
    {
      "sampler": 0,
      "source": 1
    },
    {
      "sampler": 0,
      "source": 2
    },
    {
      "sampler": 0,
      "source": 3
    },
    {
      "sampler": 0,
      "source": 4
    }
  ]
}

