<svg width="24" height="24" viewBox="0 0 24 24" fill="none" xmlns="http://www.w3.org/2000/svg">
<path d="M18.7578 21.1875L13.6203 21.1875C14.5342 20.4042 15.3896 19.555 16.1797 18.6469C18.7297 15.7219 20.0703 12.6469 20.0703 9.75C20.0703 7.61169 19.2209 5.56096 17.7089 4.04895C16.1968 2.53694 14.1461 1.6875 12.0078 1.6875C9.86951 1.6875 7.81878 2.53694 6.30676 4.04895C4.79475 5.56096 3.94531 7.61169 3.94531 9.75C3.94531 12.6469 5.29531 15.7219 7.83594 18.6469C8.62598 19.555 9.48138 20.4042 10.3953 21.1875H5.25781C5.10863 21.1875 4.96555 21.2468 4.86007 21.3523C4.75458 21.4577 4.69531 21.6008 4.69531 21.75C4.69531 21.8992 4.75458 22.0423 4.86007 22.1477C4.96555 22.2532 5.10863 22.3125 5.25781 22.3125L18.7578 22.3125C18.907 22.3125 19.0501 22.2532 19.1556 22.1477C19.261 22.0423 19.3203 21.8992 19.3203 21.75C19.3203 21.6008 19.261 21.4577 19.1556 21.3523C19.0501 21.2468 18.907 21.1875 18.7578 21.1875ZM5.07031 9.75C5.07031 7.91006 5.80123 6.14548 7.10226 4.84445C8.40329 3.54341 10.1679 2.8125 12.0078 2.8125C13.8478 2.8125 15.6123 3.54341 16.9134 4.84445C18.2144 6.14548 18.9453 7.91006 18.9453 9.75C18.9453 15.3375 13.4141 19.9594 12.0078 21.0469C10.6016 19.9594 5.07031 15.3375 5.07031 9.75ZM15.5703 9.75C15.5703 9.0454 15.3614 8.35663 14.9699 7.77078C14.5785 7.18493 14.0221 6.72832 13.3711 6.45868C12.7202 6.18904 12.0039 6.11849 11.3128 6.25595C10.6217 6.39341 9.98697 6.73271 9.48874 7.23093C8.99052 7.72916 8.65123 8.36393 8.51377 9.05499C8.37631 9.74605 8.44685 10.4623 8.71649 11.1133C8.98613 11.7643 9.44274 12.3207 10.0286 12.7121C10.6144 13.1036 11.3032 13.3125 12.0078 13.3125C12.9526 13.3125 13.8588 12.9372 14.5269 12.2691C15.195 11.601 15.5703 10.6948 15.5703 9.75ZM9.57031 9.75C9.57031 9.26791 9.71327 8.79664 9.98111 8.3958C10.2489 7.99495 10.6296 7.68253 11.075 7.49804C11.5204 7.31356 12.0105 7.26528 12.4833 7.35934C12.9562 7.45339 13.3905 7.68554 13.7314 8.02643C14.0723 8.36732 14.3044 8.80164 14.3985 9.27447C14.4925 9.7473 14.4443 10.2374 14.2598 10.6828C14.0753 11.1282 13.7629 11.5089 13.362 11.7767C12.9612 12.0445 12.4899 12.1875 12.0078 12.1875C11.3621 12.185 10.7436 11.9274 10.287 11.4708C9.83038 11.0143 9.57278 10.3957 9.57031 9.75Z" fill="white"/>
</svg>
